G04 #@! TF.GenerationSoftware,KiCad,Pcbnew,(5.1.4-0-10_14)*
G04 #@! TF.CreationDate,2020-03-08T23:29:58-07:00*
G04 #@! TF.ProjectId,data-register-bank,64617461-2d72-4656-9769-737465722d62,rev?*
G04 #@! TF.SameCoordinates,Original*
G04 #@! TF.FileFunction,Legend,Top*
G04 #@! TF.FilePolarity,Positive*
%FSLAX46Y46*%
G04 Gerber Fmt 4.6, Leading zero omitted, Abs format (unit mm)*
G04 Created by KiCad (PCBNEW (5.1.4-0-10_14)) date 2020-03-08 23:29:58*
%MOMM*%
%LPD*%
G04 APERTURE LIST*
%ADD10C,0.150000*%
%ADD11C,0.120000*%
%ADD12C,0.200000*%
G04 APERTURE END LIST*
D10*
X72670576Y-179023652D02*
X72670576Y-179404604D01*
X72403909Y-178604604D02*
X72670576Y-179023652D01*
X72937242Y-178604604D01*
X73165814Y-179176033D02*
X73546766Y-179176033D01*
X73089623Y-179404604D02*
X73356290Y-178604604D01*
X73622957Y-179404604D01*
X74232480Y-178871271D02*
X74232480Y-179404604D01*
X74042004Y-178566509D02*
X73851528Y-179137938D01*
X74346766Y-179137938D01*
X74918195Y-178985557D02*
X75032480Y-179023652D01*
X75070576Y-179061747D01*
X75108671Y-179137938D01*
X75108671Y-179252223D01*
X75070576Y-179328414D01*
X75032480Y-179366509D01*
X74956290Y-179404604D01*
X74651528Y-179404604D01*
X74651528Y-178604604D01*
X74918195Y-178604604D01*
X74994385Y-178642700D01*
X75032480Y-178680795D01*
X75070576Y-178756985D01*
X75070576Y-178833176D01*
X75032480Y-178909366D01*
X74994385Y-178947461D01*
X74918195Y-178985557D01*
X74651528Y-178985557D01*
X76061052Y-179404604D02*
X76061052Y-178604604D01*
X76251528Y-178604604D01*
X76365814Y-178642700D01*
X76442004Y-178718890D01*
X76480100Y-178795080D01*
X76518195Y-178947461D01*
X76518195Y-179061747D01*
X76480100Y-179214128D01*
X76442004Y-179290319D01*
X76365814Y-179366509D01*
X76251528Y-179404604D01*
X76061052Y-179404604D01*
X77203909Y-179404604D02*
X77203909Y-178985557D01*
X77165814Y-178909366D01*
X77089623Y-178871271D01*
X76937242Y-178871271D01*
X76861052Y-178909366D01*
X77203909Y-179366509D02*
X77127719Y-179404604D01*
X76937242Y-179404604D01*
X76861052Y-179366509D01*
X76822957Y-179290319D01*
X76822957Y-179214128D01*
X76861052Y-179137938D01*
X76937242Y-179099842D01*
X77127719Y-179099842D01*
X77203909Y-179061747D01*
X77470576Y-178871271D02*
X77775338Y-178871271D01*
X77584861Y-178604604D02*
X77584861Y-179290319D01*
X77622957Y-179366509D01*
X77699147Y-179404604D01*
X77775338Y-179404604D01*
X78384861Y-179404604D02*
X78384861Y-178985557D01*
X78346766Y-178909366D01*
X78270576Y-178871271D01*
X78118195Y-178871271D01*
X78042004Y-178909366D01*
X78384861Y-179366509D02*
X78308671Y-179404604D01*
X78118195Y-179404604D01*
X78042004Y-179366509D01*
X78003909Y-179290319D01*
X78003909Y-179214128D01*
X78042004Y-179137938D01*
X78118195Y-179099842D01*
X78308671Y-179099842D01*
X78384861Y-179061747D01*
X79832480Y-179404604D02*
X79565814Y-179023652D01*
X79375338Y-179404604D02*
X79375338Y-178604604D01*
X79680100Y-178604604D01*
X79756290Y-178642700D01*
X79794385Y-178680795D01*
X79832480Y-178756985D01*
X79832480Y-178871271D01*
X79794385Y-178947461D01*
X79756290Y-178985557D01*
X79680100Y-179023652D01*
X79375338Y-179023652D01*
X80480100Y-179366509D02*
X80403909Y-179404604D01*
X80251528Y-179404604D01*
X80175338Y-179366509D01*
X80137242Y-179290319D01*
X80137242Y-178985557D01*
X80175338Y-178909366D01*
X80251528Y-178871271D01*
X80403909Y-178871271D01*
X80480100Y-178909366D01*
X80518195Y-178985557D01*
X80518195Y-179061747D01*
X80137242Y-179137938D01*
X81203909Y-178871271D02*
X81203909Y-179518890D01*
X81165814Y-179595080D01*
X81127719Y-179633176D01*
X81051528Y-179671271D01*
X80937242Y-179671271D01*
X80861052Y-179633176D01*
X81203909Y-179366509D02*
X81127719Y-179404604D01*
X80975338Y-179404604D01*
X80899147Y-179366509D01*
X80861052Y-179328414D01*
X80822957Y-179252223D01*
X80822957Y-179023652D01*
X80861052Y-178947461D01*
X80899147Y-178909366D01*
X80975338Y-178871271D01*
X81127719Y-178871271D01*
X81203909Y-178909366D01*
X81584861Y-179404604D02*
X81584861Y-178871271D01*
X81584861Y-178604604D02*
X81546766Y-178642700D01*
X81584861Y-178680795D01*
X81622957Y-178642700D01*
X81584861Y-178604604D01*
X81584861Y-178680795D01*
X81927719Y-179366509D02*
X82003909Y-179404604D01*
X82156290Y-179404604D01*
X82232480Y-179366509D01*
X82270576Y-179290319D01*
X82270576Y-179252223D01*
X82232480Y-179176033D01*
X82156290Y-179137938D01*
X82042004Y-179137938D01*
X81965814Y-179099842D01*
X81927719Y-179023652D01*
X81927719Y-178985557D01*
X81965814Y-178909366D01*
X82042004Y-178871271D01*
X82156290Y-178871271D01*
X82232480Y-178909366D01*
X82499147Y-178871271D02*
X82803909Y-178871271D01*
X82613433Y-178604604D02*
X82613433Y-179290319D01*
X82651528Y-179366509D01*
X82727719Y-179404604D01*
X82803909Y-179404604D01*
X83375338Y-179366509D02*
X83299147Y-179404604D01*
X83146766Y-179404604D01*
X83070576Y-179366509D01*
X83032480Y-179290319D01*
X83032480Y-178985557D01*
X83070576Y-178909366D01*
X83146766Y-178871271D01*
X83299147Y-178871271D01*
X83375338Y-178909366D01*
X83413433Y-178985557D01*
X83413433Y-179061747D01*
X83032480Y-179137938D01*
X83756290Y-179404604D02*
X83756290Y-178871271D01*
X83756290Y-179023652D02*
X83794385Y-178947461D01*
X83832480Y-178909366D01*
X83908671Y-178871271D01*
X83984861Y-178871271D01*
X85127719Y-178985557D02*
X85242004Y-179023652D01*
X85280100Y-179061747D01*
X85318195Y-179137938D01*
X85318195Y-179252223D01*
X85280100Y-179328414D01*
X85242004Y-179366509D01*
X85165814Y-179404604D01*
X84861052Y-179404604D01*
X84861052Y-178604604D01*
X85127719Y-178604604D01*
X85203909Y-178642700D01*
X85242004Y-178680795D01*
X85280100Y-178756985D01*
X85280100Y-178833176D01*
X85242004Y-178909366D01*
X85203909Y-178947461D01*
X85127719Y-178985557D01*
X84861052Y-178985557D01*
X86003909Y-179404604D02*
X86003909Y-178985557D01*
X85965814Y-178909366D01*
X85889623Y-178871271D01*
X85737242Y-178871271D01*
X85661052Y-178909366D01*
X86003909Y-179366509D02*
X85927719Y-179404604D01*
X85737242Y-179404604D01*
X85661052Y-179366509D01*
X85622957Y-179290319D01*
X85622957Y-179214128D01*
X85661052Y-179137938D01*
X85737242Y-179099842D01*
X85927719Y-179099842D01*
X86003909Y-179061747D01*
X86384861Y-178871271D02*
X86384861Y-179404604D01*
X86384861Y-178947461D02*
X86422957Y-178909366D01*
X86499147Y-178871271D01*
X86613433Y-178871271D01*
X86689623Y-178909366D01*
X86727719Y-178985557D01*
X86727719Y-179404604D01*
X87108671Y-179404604D02*
X87108671Y-178604604D01*
X87184861Y-179099842D02*
X87413433Y-179404604D01*
X87413433Y-178871271D02*
X87108671Y-179176033D01*
X88289623Y-178871271D02*
X88480100Y-179404604D01*
X88670576Y-178871271D01*
X89394385Y-179404604D02*
X88937242Y-179404604D01*
X89165814Y-179404604D02*
X89165814Y-178604604D01*
X89089623Y-178718890D01*
X89013433Y-178795080D01*
X88937242Y-178833176D01*
X89737242Y-179328414D02*
X89775338Y-179366509D01*
X89737242Y-179404604D01*
X89699147Y-179366509D01*
X89737242Y-179328414D01*
X89737242Y-179404604D01*
X90270576Y-178604604D02*
X90346766Y-178604604D01*
X90422957Y-178642700D01*
X90461052Y-178680795D01*
X90499147Y-178756985D01*
X90537242Y-178909366D01*
X90537242Y-179099842D01*
X90499147Y-179252223D01*
X90461052Y-179328414D01*
X90422957Y-179366509D01*
X90346766Y-179404604D01*
X90270576Y-179404604D01*
X90194385Y-179366509D01*
X90156290Y-179328414D01*
X90118195Y-179252223D01*
X90080100Y-179099842D01*
X90080100Y-178909366D01*
X90118195Y-178756985D01*
X90156290Y-178680795D01*
X90194385Y-178642700D01*
X90270576Y-178604604D01*
X90880100Y-179328414D02*
X90918195Y-179366509D01*
X90880100Y-179404604D01*
X90842004Y-179366509D01*
X90880100Y-179328414D01*
X90880100Y-179404604D01*
X91680100Y-179404604D02*
X91222957Y-179404604D01*
X91451528Y-179404604D02*
X91451528Y-178604604D01*
X91375338Y-178718890D01*
X91299147Y-178795080D01*
X91222957Y-178833176D01*
X75680100Y-180145080D02*
X75603909Y-180106985D01*
X75451528Y-180106985D01*
X75375338Y-180145080D01*
X75299147Y-180221271D01*
X75261052Y-180297461D01*
X75261052Y-180449842D01*
X75299147Y-180526033D01*
X75375338Y-180602223D01*
X75451528Y-180640319D01*
X75603909Y-180640319D01*
X75680100Y-180602223D01*
X75527719Y-179840319D02*
X75337242Y-179878414D01*
X75146766Y-179992700D01*
X75032480Y-180183176D01*
X74994385Y-180373652D01*
X75032480Y-180564128D01*
X75146766Y-180754604D01*
X75337242Y-180868890D01*
X75527719Y-180906985D01*
X75718195Y-180868890D01*
X75908671Y-180754604D01*
X76022957Y-180564128D01*
X76061052Y-180373652D01*
X76022957Y-180183176D01*
X75908671Y-179992700D01*
X75718195Y-179878414D01*
X75527719Y-179840319D01*
X76975338Y-180030795D02*
X77013433Y-179992700D01*
X77089623Y-179954604D01*
X77280100Y-179954604D01*
X77356290Y-179992700D01*
X77394385Y-180030795D01*
X77432480Y-180106985D01*
X77432480Y-180183176D01*
X77394385Y-180297461D01*
X76937242Y-180754604D01*
X77432480Y-180754604D01*
X77927719Y-179954604D02*
X78003909Y-179954604D01*
X78080100Y-179992700D01*
X78118195Y-180030795D01*
X78156290Y-180106985D01*
X78194385Y-180259366D01*
X78194385Y-180449842D01*
X78156290Y-180602223D01*
X78118195Y-180678414D01*
X78080100Y-180716509D01*
X78003909Y-180754604D01*
X77927719Y-180754604D01*
X77851528Y-180716509D01*
X77813433Y-180678414D01*
X77775338Y-180602223D01*
X77737242Y-180449842D01*
X77737242Y-180259366D01*
X77775338Y-180106985D01*
X77813433Y-180030795D01*
X77851528Y-179992700D01*
X77927719Y-179954604D01*
X78499147Y-180030795D02*
X78537242Y-179992700D01*
X78613433Y-179954604D01*
X78803909Y-179954604D01*
X78880100Y-179992700D01*
X78918195Y-180030795D01*
X78956290Y-180106985D01*
X78956290Y-180183176D01*
X78918195Y-180297461D01*
X78461052Y-180754604D01*
X78956290Y-180754604D01*
X79451528Y-179954604D02*
X79527719Y-179954604D01*
X79603909Y-179992700D01*
X79642004Y-180030795D01*
X79680100Y-180106985D01*
X79718195Y-180259366D01*
X79718195Y-180449842D01*
X79680100Y-180602223D01*
X79642004Y-180678414D01*
X79603909Y-180716509D01*
X79527719Y-180754604D01*
X79451528Y-180754604D01*
X79375338Y-180716509D01*
X79337242Y-180678414D01*
X79299147Y-180602223D01*
X79261052Y-180449842D01*
X79261052Y-180259366D01*
X79299147Y-180106985D01*
X79337242Y-180030795D01*
X79375338Y-179992700D01*
X79451528Y-179954604D01*
X81089623Y-179992700D02*
X81013433Y-179954604D01*
X80899147Y-179954604D01*
X80784861Y-179992700D01*
X80708671Y-180068890D01*
X80670576Y-180145080D01*
X80632480Y-180297461D01*
X80632480Y-180411747D01*
X80670576Y-180564128D01*
X80708671Y-180640319D01*
X80784861Y-180716509D01*
X80899147Y-180754604D01*
X80975338Y-180754604D01*
X81089623Y-180716509D01*
X81127719Y-180678414D01*
X81127719Y-180411747D01*
X80975338Y-180411747D01*
X81470576Y-180754604D02*
X81470576Y-180221271D01*
X81470576Y-180373652D02*
X81508671Y-180297461D01*
X81546766Y-180259366D01*
X81622957Y-180221271D01*
X81699147Y-180221271D01*
X82270576Y-180716509D02*
X82194385Y-180754604D01*
X82042004Y-180754604D01*
X81965814Y-180716509D01*
X81927719Y-180640319D01*
X81927719Y-180335557D01*
X81965814Y-180259366D01*
X82042004Y-180221271D01*
X82194385Y-180221271D01*
X82270576Y-180259366D01*
X82308671Y-180335557D01*
X82308671Y-180411747D01*
X81927719Y-180487938D01*
X82994385Y-180221271D02*
X82994385Y-180868890D01*
X82956290Y-180945080D01*
X82918195Y-180983176D01*
X82842004Y-181021271D01*
X82727719Y-181021271D01*
X82651528Y-180983176D01*
X82994385Y-180716509D02*
X82918195Y-180754604D01*
X82765814Y-180754604D01*
X82689623Y-180716509D01*
X82651528Y-180678414D01*
X82613433Y-180602223D01*
X82613433Y-180373652D01*
X82651528Y-180297461D01*
X82689623Y-180259366D01*
X82765814Y-180221271D01*
X82918195Y-180221271D01*
X82994385Y-180259366D01*
X83489623Y-180754604D02*
X83413433Y-180716509D01*
X83375338Y-180678414D01*
X83337242Y-180602223D01*
X83337242Y-180373652D01*
X83375338Y-180297461D01*
X83413433Y-180259366D01*
X83489623Y-180221271D01*
X83603909Y-180221271D01*
X83680100Y-180259366D01*
X83718195Y-180297461D01*
X83756290Y-180373652D01*
X83756290Y-180602223D01*
X83718195Y-180678414D01*
X83680100Y-180716509D01*
X83603909Y-180754604D01*
X83489623Y-180754604D01*
X84099147Y-180754604D02*
X84099147Y-180221271D01*
X84099147Y-180373652D02*
X84137242Y-180297461D01*
X84175338Y-180259366D01*
X84251528Y-180221271D01*
X84327719Y-180221271D01*
X84518195Y-180221271D02*
X84708671Y-180754604D01*
X84899147Y-180221271D02*
X84708671Y-180754604D01*
X84632480Y-180945080D01*
X84594385Y-180983176D01*
X84518195Y-181021271D01*
X85813433Y-180754604D02*
X85813433Y-179954604D01*
X86080100Y-180526033D01*
X86346766Y-179954604D01*
X86346766Y-180754604D01*
X87070576Y-180754604D02*
X87070576Y-180335557D01*
X87032480Y-180259366D01*
X86956290Y-180221271D01*
X86803909Y-180221271D01*
X86727719Y-180259366D01*
X87070576Y-180716509D02*
X86994385Y-180754604D01*
X86803909Y-180754604D01*
X86727719Y-180716509D01*
X86689623Y-180640319D01*
X86689623Y-180564128D01*
X86727719Y-180487938D01*
X86803909Y-180449842D01*
X86994385Y-180449842D01*
X87070576Y-180411747D01*
X87451528Y-180754604D02*
X87451528Y-180221271D01*
X87451528Y-180373652D02*
X87489623Y-180297461D01*
X87527719Y-180259366D01*
X87603909Y-180221271D01*
X87680100Y-180221271D01*
X87832480Y-180221271D02*
X88137242Y-180221271D01*
X87946766Y-179954604D02*
X87946766Y-180640319D01*
X87984861Y-180716509D01*
X88061052Y-180754604D01*
X88137242Y-180754604D01*
X88403909Y-180754604D02*
X88403909Y-180221271D01*
X88403909Y-179954604D02*
X88365814Y-179992700D01*
X88403909Y-180030795D01*
X88442004Y-179992700D01*
X88403909Y-179954604D01*
X88403909Y-180030795D01*
X88784861Y-180221271D02*
X88784861Y-180754604D01*
X88784861Y-180297461D02*
X88822957Y-180259366D01*
X88899147Y-180221271D01*
X89013433Y-180221271D01*
X89089623Y-180259366D01*
X89127719Y-180335557D01*
X89127719Y-180754604D01*
D11*
X71196200Y-130302000D02*
X74561700Y-130302000D01*
X66421000Y-130302000D02*
X63055500Y-130302000D01*
X74561700Y-130302000D02*
X74561700Y-130695700D01*
X63055500Y-130695700D02*
X63055500Y-130302000D01*
D10*
X66841928Y-130716280D02*
X66841928Y-129716280D01*
X67080023Y-129716280D01*
X67222880Y-129763900D01*
X67318119Y-129859138D01*
X67365738Y-129954376D01*
X67413357Y-130144852D01*
X67413357Y-130287709D01*
X67365738Y-130478185D01*
X67318119Y-130573423D01*
X67222880Y-130668661D01*
X67080023Y-130716280D01*
X66841928Y-130716280D01*
X68270500Y-130716280D02*
X68270500Y-130192471D01*
X68222880Y-130097233D01*
X68127642Y-130049614D01*
X67937166Y-130049614D01*
X67841928Y-130097233D01*
X68270500Y-130668661D02*
X68175261Y-130716280D01*
X67937166Y-130716280D01*
X67841928Y-130668661D01*
X67794309Y-130573423D01*
X67794309Y-130478185D01*
X67841928Y-130382947D01*
X67937166Y-130335328D01*
X68175261Y-130335328D01*
X68270500Y-130287709D01*
X68603833Y-130049614D02*
X68984785Y-130049614D01*
X68746690Y-129716280D02*
X68746690Y-130573423D01*
X68794309Y-130668661D01*
X68889547Y-130716280D01*
X68984785Y-130716280D01*
X69746690Y-130716280D02*
X69746690Y-130192471D01*
X69699071Y-130097233D01*
X69603833Y-130049614D01*
X69413357Y-130049614D01*
X69318119Y-130097233D01*
X69746690Y-130668661D02*
X69651452Y-130716280D01*
X69413357Y-130716280D01*
X69318119Y-130668661D01*
X69270500Y-130573423D01*
X69270500Y-130478185D01*
X69318119Y-130382947D01*
X69413357Y-130335328D01*
X69651452Y-130335328D01*
X69746690Y-130287709D01*
X70127642Y-129716280D02*
X70746690Y-129716280D01*
X70413357Y-130097233D01*
X70556214Y-130097233D01*
X70651452Y-130144852D01*
X70699071Y-130192471D01*
X70746690Y-130287709D01*
X70746690Y-130525804D01*
X70699071Y-130621042D01*
X70651452Y-130668661D01*
X70556214Y-130716280D01*
X70270500Y-130716280D01*
X70175261Y-130668661D01*
X70127642Y-130621042D01*
D11*
X98945700Y-130276600D02*
X98945700Y-130670300D01*
X95580200Y-130276600D02*
X98945700Y-130276600D01*
X87439500Y-130670300D02*
X87439500Y-130276600D01*
X90805000Y-130276600D02*
X87439500Y-130276600D01*
D10*
X91225928Y-130690880D02*
X91225928Y-129690880D01*
X91464023Y-129690880D01*
X91606880Y-129738500D01*
X91702119Y-129833738D01*
X91749738Y-129928976D01*
X91797357Y-130119452D01*
X91797357Y-130262309D01*
X91749738Y-130452785D01*
X91702119Y-130548023D01*
X91606880Y-130643261D01*
X91464023Y-130690880D01*
X91225928Y-130690880D01*
X92654500Y-130690880D02*
X92654500Y-130167071D01*
X92606880Y-130071833D01*
X92511642Y-130024214D01*
X92321166Y-130024214D01*
X92225928Y-130071833D01*
X92654500Y-130643261D02*
X92559261Y-130690880D01*
X92321166Y-130690880D01*
X92225928Y-130643261D01*
X92178309Y-130548023D01*
X92178309Y-130452785D01*
X92225928Y-130357547D01*
X92321166Y-130309928D01*
X92559261Y-130309928D01*
X92654500Y-130262309D01*
X92987833Y-130024214D02*
X93368785Y-130024214D01*
X93130690Y-129690880D02*
X93130690Y-130548023D01*
X93178309Y-130643261D01*
X93273547Y-130690880D01*
X93368785Y-130690880D01*
X94130690Y-130690880D02*
X94130690Y-130167071D01*
X94083071Y-130071833D01*
X93987833Y-130024214D01*
X93797357Y-130024214D01*
X93702119Y-130071833D01*
X94130690Y-130643261D02*
X94035452Y-130690880D01*
X93797357Y-130690880D01*
X93702119Y-130643261D01*
X93654500Y-130548023D01*
X93654500Y-130452785D01*
X93702119Y-130357547D01*
X93797357Y-130309928D01*
X94035452Y-130309928D01*
X94130690Y-130262309D01*
X94559261Y-129786119D02*
X94606880Y-129738500D01*
X94702119Y-129690880D01*
X94940214Y-129690880D01*
X95035452Y-129738500D01*
X95083071Y-129786119D01*
X95130690Y-129881357D01*
X95130690Y-129976595D01*
X95083071Y-130119452D01*
X94511642Y-130690880D01*
X95130690Y-130690880D01*
D11*
X147866100Y-130263900D02*
X147866100Y-130657600D01*
X144500600Y-130263900D02*
X147866100Y-130263900D01*
X136359900Y-130657600D02*
X136359900Y-130263900D01*
X139725400Y-130263900D02*
X136359900Y-130263900D01*
D10*
X140146328Y-130678180D02*
X140146328Y-129678180D01*
X140384423Y-129678180D01*
X140527280Y-129725800D01*
X140622519Y-129821038D01*
X140670138Y-129916276D01*
X140717757Y-130106752D01*
X140717757Y-130249609D01*
X140670138Y-130440085D01*
X140622519Y-130535323D01*
X140527280Y-130630561D01*
X140384423Y-130678180D01*
X140146328Y-130678180D01*
X141574900Y-130678180D02*
X141574900Y-130154371D01*
X141527280Y-130059133D01*
X141432042Y-130011514D01*
X141241566Y-130011514D01*
X141146328Y-130059133D01*
X141574900Y-130630561D02*
X141479661Y-130678180D01*
X141241566Y-130678180D01*
X141146328Y-130630561D01*
X141098709Y-130535323D01*
X141098709Y-130440085D01*
X141146328Y-130344847D01*
X141241566Y-130297228D01*
X141479661Y-130297228D01*
X141574900Y-130249609D01*
X141908233Y-130011514D02*
X142289185Y-130011514D01*
X142051090Y-129678180D02*
X142051090Y-130535323D01*
X142098709Y-130630561D01*
X142193947Y-130678180D01*
X142289185Y-130678180D01*
X143051090Y-130678180D02*
X143051090Y-130154371D01*
X143003471Y-130059133D01*
X142908233Y-130011514D01*
X142717757Y-130011514D01*
X142622519Y-130059133D01*
X143051090Y-130630561D02*
X142955852Y-130678180D01*
X142717757Y-130678180D01*
X142622519Y-130630561D01*
X142574900Y-130535323D01*
X142574900Y-130440085D01*
X142622519Y-130344847D01*
X142717757Y-130297228D01*
X142955852Y-130297228D01*
X143051090Y-130249609D01*
X143717757Y-129678180D02*
X143812995Y-129678180D01*
X143908233Y-129725800D01*
X143955852Y-129773419D01*
X144003471Y-129868657D01*
X144051090Y-130059133D01*
X144051090Y-130297228D01*
X144003471Y-130487704D01*
X143955852Y-130582942D01*
X143908233Y-130630561D01*
X143812995Y-130678180D01*
X143717757Y-130678180D01*
X143622519Y-130630561D01*
X143574900Y-130582942D01*
X143527280Y-130487704D01*
X143479661Y-130297228D01*
X143479661Y-130059133D01*
X143527280Y-129868657D01*
X143574900Y-129773419D01*
X143622519Y-129725800D01*
X143717757Y-129678180D01*
D11*
X111899700Y-130670300D02*
X111899700Y-130276600D01*
X115265200Y-130276600D02*
X111899700Y-130276600D01*
X123405900Y-130276600D02*
X123405900Y-130670300D01*
X120040400Y-130276600D02*
X123405900Y-130276600D01*
D10*
X115686128Y-130690880D02*
X115686128Y-129690880D01*
X115924223Y-129690880D01*
X116067080Y-129738500D01*
X116162319Y-129833738D01*
X116209938Y-129928976D01*
X116257557Y-130119452D01*
X116257557Y-130262309D01*
X116209938Y-130452785D01*
X116162319Y-130548023D01*
X116067080Y-130643261D01*
X115924223Y-130690880D01*
X115686128Y-130690880D01*
X117114700Y-130690880D02*
X117114700Y-130167071D01*
X117067080Y-130071833D01*
X116971842Y-130024214D01*
X116781366Y-130024214D01*
X116686128Y-130071833D01*
X117114700Y-130643261D02*
X117019461Y-130690880D01*
X116781366Y-130690880D01*
X116686128Y-130643261D01*
X116638509Y-130548023D01*
X116638509Y-130452785D01*
X116686128Y-130357547D01*
X116781366Y-130309928D01*
X117019461Y-130309928D01*
X117114700Y-130262309D01*
X117448033Y-130024214D02*
X117828985Y-130024214D01*
X117590890Y-129690880D02*
X117590890Y-130548023D01*
X117638509Y-130643261D01*
X117733747Y-130690880D01*
X117828985Y-130690880D01*
X118590890Y-130690880D02*
X118590890Y-130167071D01*
X118543271Y-130071833D01*
X118448033Y-130024214D01*
X118257557Y-130024214D01*
X118162319Y-130071833D01*
X118590890Y-130643261D02*
X118495652Y-130690880D01*
X118257557Y-130690880D01*
X118162319Y-130643261D01*
X118114700Y-130548023D01*
X118114700Y-130452785D01*
X118162319Y-130357547D01*
X118257557Y-130309928D01*
X118495652Y-130309928D01*
X118590890Y-130262309D01*
X119590890Y-130690880D02*
X119019461Y-130690880D01*
X119305176Y-130690880D02*
X119305176Y-129690880D01*
X119209938Y-129833738D01*
X119114700Y-129928976D01*
X119019461Y-129976595D01*
D11*
X135966200Y-181076600D02*
X135940800Y-166395400D01*
X147472400Y-181063900D02*
X135966200Y-181076600D01*
X147472400Y-166395400D02*
X147472400Y-181063900D01*
X135940800Y-166395400D02*
X147472400Y-166395400D01*
D10*
X140416114Y-167632571D02*
X140558971Y-167680190D01*
X140606590Y-167727809D01*
X140654209Y-167823047D01*
X140654209Y-167965904D01*
X140606590Y-168061142D01*
X140558971Y-168108761D01*
X140463733Y-168156380D01*
X140082780Y-168156380D01*
X140082780Y-167156380D01*
X140416114Y-167156380D01*
X140511352Y-167204000D01*
X140558971Y-167251619D01*
X140606590Y-167346857D01*
X140606590Y-167442095D01*
X140558971Y-167537333D01*
X140511352Y-167584952D01*
X140416114Y-167632571D01*
X140082780Y-167632571D01*
X141511352Y-168156380D02*
X141511352Y-167632571D01*
X141463733Y-167537333D01*
X141368495Y-167489714D01*
X141178019Y-167489714D01*
X141082780Y-167537333D01*
X141511352Y-168108761D02*
X141416114Y-168156380D01*
X141178019Y-168156380D01*
X141082780Y-168108761D01*
X141035161Y-168013523D01*
X141035161Y-167918285D01*
X141082780Y-167823047D01*
X141178019Y-167775428D01*
X141416114Y-167775428D01*
X141511352Y-167727809D01*
X141939923Y-168108761D02*
X142035161Y-168156380D01*
X142225638Y-168156380D01*
X142320876Y-168108761D01*
X142368495Y-168013523D01*
X142368495Y-167965904D01*
X142320876Y-167870666D01*
X142225638Y-167823047D01*
X142082780Y-167823047D01*
X141987542Y-167775428D01*
X141939923Y-167680190D01*
X141939923Y-167632571D01*
X141987542Y-167537333D01*
X142082780Y-167489714D01*
X142225638Y-167489714D01*
X142320876Y-167537333D01*
X143178019Y-168108761D02*
X143082780Y-168156380D01*
X142892304Y-168156380D01*
X142797066Y-168108761D01*
X142749447Y-168013523D01*
X142749447Y-167632571D01*
X142797066Y-167537333D01*
X142892304Y-167489714D01*
X143082780Y-167489714D01*
X143178019Y-167537333D01*
X143225638Y-167632571D01*
X143225638Y-167727809D01*
X142749447Y-167823047D01*
X138939923Y-169520666D02*
X139416114Y-169520666D01*
X138844685Y-169806380D02*
X139178019Y-168806380D01*
X139511352Y-169806380D01*
X140273257Y-169806380D02*
X140273257Y-168806380D01*
X140273257Y-169758761D02*
X140178019Y-169806380D01*
X139987542Y-169806380D01*
X139892304Y-169758761D01*
X139844685Y-169711142D01*
X139797066Y-169615904D01*
X139797066Y-169330190D01*
X139844685Y-169234952D01*
X139892304Y-169187333D01*
X139987542Y-169139714D01*
X140178019Y-169139714D01*
X140273257Y-169187333D01*
X141178019Y-169806380D02*
X141178019Y-168806380D01*
X141178019Y-169758761D02*
X141082780Y-169806380D01*
X140892304Y-169806380D01*
X140797066Y-169758761D01*
X140749447Y-169711142D01*
X140701828Y-169615904D01*
X140701828Y-169330190D01*
X140749447Y-169234952D01*
X140797066Y-169187333D01*
X140892304Y-169139714D01*
X141082780Y-169139714D01*
X141178019Y-169187333D01*
X141654209Y-169806380D02*
X141654209Y-169139714D01*
X141654209Y-169330190D02*
X141701828Y-169234952D01*
X141749447Y-169187333D01*
X141844685Y-169139714D01*
X141939923Y-169139714D01*
X142654209Y-169758761D02*
X142558971Y-169806380D01*
X142368495Y-169806380D01*
X142273257Y-169758761D01*
X142225638Y-169663523D01*
X142225638Y-169282571D01*
X142273257Y-169187333D01*
X142368495Y-169139714D01*
X142558971Y-169139714D01*
X142654209Y-169187333D01*
X142701828Y-169282571D01*
X142701828Y-169377809D01*
X142225638Y-169473047D01*
X143082780Y-169758761D02*
X143178019Y-169806380D01*
X143368495Y-169806380D01*
X143463733Y-169758761D01*
X143511352Y-169663523D01*
X143511352Y-169615904D01*
X143463733Y-169520666D01*
X143368495Y-169473047D01*
X143225638Y-169473047D01*
X143130400Y-169425428D01*
X143082780Y-169330190D01*
X143082780Y-169282571D01*
X143130400Y-169187333D01*
X143225638Y-169139714D01*
X143368495Y-169139714D01*
X143463733Y-169187333D01*
X143892304Y-169758761D02*
X143987542Y-169806380D01*
X144178019Y-169806380D01*
X144273257Y-169758761D01*
X144320876Y-169663523D01*
X144320876Y-169615904D01*
X144273257Y-169520666D01*
X144178019Y-169473047D01*
X144035161Y-169473047D01*
X143939923Y-169425428D01*
X143892304Y-169330190D01*
X143892304Y-169282571D01*
X143939923Y-169187333D01*
X144035161Y-169139714D01*
X144178019Y-169139714D01*
X144273257Y-169187333D01*
X139439614Y-171711880D02*
X138868185Y-171711880D01*
X139153900Y-171711880D02*
X139153900Y-170711880D01*
X139058661Y-170854738D01*
X138963423Y-170949976D01*
X138868185Y-170997595D01*
X140928814Y-171426166D02*
X141405004Y-171426166D01*
X140833576Y-171711880D02*
X141166909Y-170711880D01*
X141500242Y-171711880D01*
X141738338Y-170711880D02*
X142357385Y-170711880D01*
X142024052Y-171092833D01*
X142166909Y-171092833D01*
X142262147Y-171140452D01*
X142309766Y-171188071D01*
X142357385Y-171283309D01*
X142357385Y-171521404D01*
X142309766Y-171616642D01*
X142262147Y-171664261D01*
X142166909Y-171711880D01*
X141881195Y-171711880D01*
X141785957Y-171664261D01*
X141738338Y-171616642D01*
X144211680Y-170711880D02*
X144306919Y-170711880D01*
X144402157Y-170759500D01*
X144449776Y-170807119D01*
X144497395Y-170902357D01*
X144545014Y-171092833D01*
X144545014Y-171330928D01*
X144497395Y-171521404D01*
X144449776Y-171616642D01*
X144402157Y-171664261D01*
X144306919Y-171711880D01*
X144211680Y-171711880D01*
X144116442Y-171664261D01*
X144068823Y-171616642D01*
X144021204Y-171521404D01*
X143973585Y-171330928D01*
X143973585Y-171092833D01*
X144021204Y-170902357D01*
X144068823Y-170807119D01*
X144116442Y-170759500D01*
X144211680Y-170711880D01*
X144262480Y-175588680D02*
X144357719Y-175588680D01*
X144452957Y-175636300D01*
X144500576Y-175683919D01*
X144548195Y-175779157D01*
X144595814Y-175969633D01*
X144595814Y-176207728D01*
X144548195Y-176398204D01*
X144500576Y-176493442D01*
X144452957Y-176541061D01*
X144357719Y-176588680D01*
X144262480Y-176588680D01*
X144167242Y-176541061D01*
X144119623Y-176493442D01*
X144072004Y-176398204D01*
X144024385Y-176207728D01*
X144024385Y-175969633D01*
X144072004Y-175779157D01*
X144119623Y-175683919D01*
X144167242Y-175636300D01*
X144262480Y-175588680D01*
X139490414Y-176588680D02*
X138918985Y-176588680D01*
X139204700Y-176588680D02*
X139204700Y-175588680D01*
X139109461Y-175731538D01*
X139014223Y-175826776D01*
X138918985Y-175874395D01*
X140979614Y-176302966D02*
X141455804Y-176302966D01*
X140884376Y-176588680D02*
X141217709Y-175588680D01*
X141551042Y-176588680D01*
X141836757Y-175683919D02*
X141884376Y-175636300D01*
X141979614Y-175588680D01*
X142217709Y-175588680D01*
X142312947Y-175636300D01*
X142360566Y-175683919D01*
X142408185Y-175779157D01*
X142408185Y-175874395D01*
X142360566Y-176017252D01*
X141789138Y-176588680D01*
X142408185Y-176588680D01*
X121449500Y-169019361D02*
X121449500Y-168162219D01*
X122531166Y-168828885D02*
X122531166Y-168352695D01*
X122816880Y-168924123D02*
X121816880Y-168590790D01*
X122816880Y-168257457D01*
X121449500Y-168162219D02*
X121449500Y-167162219D01*
X122293071Y-167590790D02*
X122340690Y-167447933D01*
X122388309Y-167400314D01*
X122483547Y-167352695D01*
X122626404Y-167352695D01*
X122721642Y-167400314D01*
X122769261Y-167447933D01*
X122816880Y-167543171D01*
X122816880Y-167924123D01*
X121816880Y-167924123D01*
X121816880Y-167590790D01*
X121864500Y-167495552D01*
X121912119Y-167447933D01*
X122007357Y-167400314D01*
X122102595Y-167400314D01*
X122197833Y-167447933D01*
X122245452Y-167495552D01*
X122293071Y-167590790D01*
X122293071Y-167924123D01*
X121449500Y-167162219D02*
X121449500Y-166209838D01*
X122769261Y-166971742D02*
X122816880Y-166828885D01*
X122816880Y-166590790D01*
X122769261Y-166495552D01*
X122721642Y-166447933D01*
X122626404Y-166400314D01*
X122531166Y-166400314D01*
X122435928Y-166447933D01*
X122388309Y-166495552D01*
X122340690Y-166590790D01*
X122293071Y-166781266D01*
X122245452Y-166876504D01*
X122197833Y-166924123D01*
X122102595Y-166971742D01*
X122007357Y-166971742D01*
X121912119Y-166924123D01*
X121864500Y-166876504D01*
X121816880Y-166781266D01*
X121816880Y-166543171D01*
X121864500Y-166400314D01*
X124294300Y-168989190D02*
X124294300Y-167989190D01*
X125137871Y-168417761D02*
X125185490Y-168274904D01*
X125233109Y-168227285D01*
X125328347Y-168179666D01*
X125471204Y-168179666D01*
X125566442Y-168227285D01*
X125614061Y-168274904D01*
X125661680Y-168370142D01*
X125661680Y-168751095D01*
X124661680Y-168751095D01*
X124661680Y-168417761D01*
X124709300Y-168322523D01*
X124756919Y-168274904D01*
X124852157Y-168227285D01*
X124947395Y-168227285D01*
X125042633Y-168274904D01*
X125090252Y-168322523D01*
X125137871Y-168417761D01*
X125137871Y-168751095D01*
X124294300Y-167989190D02*
X124294300Y-166989190D01*
X125137871Y-167417761D02*
X125185490Y-167274904D01*
X125233109Y-167227285D01*
X125328347Y-167179666D01*
X125471204Y-167179666D01*
X125566442Y-167227285D01*
X125614061Y-167274904D01*
X125661680Y-167370142D01*
X125661680Y-167751095D01*
X124661680Y-167751095D01*
X124661680Y-167417761D01*
X124709300Y-167322523D01*
X124756919Y-167274904D01*
X124852157Y-167227285D01*
X124947395Y-167227285D01*
X125042633Y-167274904D01*
X125090252Y-167322523D01*
X125137871Y-167417761D01*
X125137871Y-167751095D01*
X124294300Y-166989190D02*
X124294300Y-166036809D01*
X125614061Y-166798714D02*
X125661680Y-166655857D01*
X125661680Y-166417761D01*
X125614061Y-166322523D01*
X125566442Y-166274904D01*
X125471204Y-166227285D01*
X125375966Y-166227285D01*
X125280728Y-166274904D01*
X125233109Y-166322523D01*
X125185490Y-166417761D01*
X125137871Y-166608238D01*
X125090252Y-166703476D01*
X125042633Y-166751095D01*
X124947395Y-166798714D01*
X124852157Y-166798714D01*
X124756919Y-166751095D01*
X124709300Y-166703476D01*
X124661680Y-166608238D01*
X124661680Y-166370142D01*
X124709300Y-166227285D01*
X126508047Y-134695600D02*
X127317571Y-134695600D01*
X127222333Y-136062980D02*
X126746142Y-136062980D01*
X126746142Y-135062980D01*
X127317571Y-134695600D02*
X128317571Y-134695600D01*
X127555666Y-136062980D02*
X127555666Y-135062980D01*
X127793761Y-135062980D01*
X127936619Y-135110600D01*
X128031857Y-135205838D01*
X128079476Y-135301076D01*
X128127095Y-135491552D01*
X128127095Y-135634409D01*
X128079476Y-135824885D01*
X128031857Y-135920123D01*
X127936619Y-136015361D01*
X127793761Y-136062980D01*
X127555666Y-136062980D01*
X128317571Y-134695600D02*
X129269952Y-134695600D01*
X128746142Y-135062980D02*
X128841380Y-135062980D01*
X128936619Y-135110600D01*
X128984238Y-135158219D01*
X129031857Y-135253457D01*
X129079476Y-135443933D01*
X129079476Y-135682028D01*
X129031857Y-135872504D01*
X128984238Y-135967742D01*
X128936619Y-136015361D01*
X128841380Y-136062980D01*
X128746142Y-136062980D01*
X128650904Y-136015361D01*
X128603285Y-135967742D01*
X128555666Y-135872504D01*
X128508047Y-135682028D01*
X128508047Y-135443933D01*
X128555666Y-135253457D01*
X128603285Y-135158219D01*
X128650904Y-135110600D01*
X128746142Y-135062980D01*
X126335019Y-131850800D02*
X127382638Y-131850800D01*
X126763590Y-132218180D02*
X126954066Y-132218180D01*
X127049304Y-132265800D01*
X127144542Y-132361038D01*
X127192161Y-132551514D01*
X127192161Y-132884847D01*
X127144542Y-133075323D01*
X127049304Y-133170561D01*
X126954066Y-133218180D01*
X126763590Y-133218180D01*
X126668352Y-133170561D01*
X126573114Y-133075323D01*
X126525495Y-132884847D01*
X126525495Y-132551514D01*
X126573114Y-132361038D01*
X126668352Y-132265800D01*
X126763590Y-132218180D01*
X127382638Y-131850800D02*
X128287400Y-131850800D01*
X127620733Y-132694371D02*
X127954066Y-132694371D01*
X128096923Y-133218180D02*
X127620733Y-133218180D01*
X127620733Y-132218180D01*
X128096923Y-132218180D01*
X128287400Y-131850800D02*
X129239780Y-131850800D01*
X128715971Y-132218180D02*
X128811209Y-132218180D01*
X128906447Y-132265800D01*
X128954066Y-132313419D01*
X129001685Y-132408657D01*
X129049304Y-132599133D01*
X129049304Y-132837228D01*
X129001685Y-133027704D01*
X128954066Y-133122942D01*
X128906447Y-133170561D01*
X128811209Y-133218180D01*
X128715971Y-133218180D01*
X128620733Y-133170561D01*
X128573114Y-133122942D01*
X128525495Y-133027704D01*
X128477876Y-132837228D01*
X128477876Y-132599133D01*
X128525495Y-132408657D01*
X128573114Y-132313419D01*
X128620733Y-132265800D01*
X128715971Y-132218180D01*
X102162147Y-134835300D02*
X102971671Y-134835300D01*
X102876433Y-136202680D02*
X102400242Y-136202680D01*
X102400242Y-135202680D01*
X102971671Y-134835300D02*
X103971671Y-134835300D01*
X103209766Y-136202680D02*
X103209766Y-135202680D01*
X103447861Y-135202680D01*
X103590719Y-135250300D01*
X103685957Y-135345538D01*
X103733576Y-135440776D01*
X103781195Y-135631252D01*
X103781195Y-135774109D01*
X103733576Y-135964585D01*
X103685957Y-136059823D01*
X103590719Y-136155061D01*
X103447861Y-136202680D01*
X103209766Y-136202680D01*
X103971671Y-134835300D02*
X104924052Y-134835300D01*
X104733576Y-136202680D02*
X104162147Y-136202680D01*
X104447861Y-136202680D02*
X104447861Y-135202680D01*
X104352623Y-135345538D01*
X104257385Y-135440776D01*
X104162147Y-135488395D01*
X101989119Y-131990500D02*
X103036738Y-131990500D01*
X102417690Y-132357880D02*
X102608166Y-132357880D01*
X102703404Y-132405500D01*
X102798642Y-132500738D01*
X102846261Y-132691214D01*
X102846261Y-133024547D01*
X102798642Y-133215023D01*
X102703404Y-133310261D01*
X102608166Y-133357880D01*
X102417690Y-133357880D01*
X102322452Y-133310261D01*
X102227214Y-133215023D01*
X102179595Y-133024547D01*
X102179595Y-132691214D01*
X102227214Y-132500738D01*
X102322452Y-132405500D01*
X102417690Y-132357880D01*
X103036738Y-131990500D02*
X103941500Y-131990500D01*
X103274833Y-132834071D02*
X103608166Y-132834071D01*
X103751023Y-133357880D02*
X103274833Y-133357880D01*
X103274833Y-132357880D01*
X103751023Y-132357880D01*
X103941500Y-131990500D02*
X104893880Y-131990500D01*
X104703404Y-133357880D02*
X104131976Y-133357880D01*
X104417690Y-133357880D02*
X104417690Y-132357880D01*
X104322452Y-132500738D01*
X104227214Y-132595976D01*
X104131976Y-132643595D01*
X78032147Y-134708300D02*
X78841671Y-134708300D01*
X78746433Y-136075680D02*
X78270242Y-136075680D01*
X78270242Y-135075680D01*
X78841671Y-134708300D02*
X79841671Y-134708300D01*
X79079766Y-136075680D02*
X79079766Y-135075680D01*
X79317861Y-135075680D01*
X79460719Y-135123300D01*
X79555957Y-135218538D01*
X79603576Y-135313776D01*
X79651195Y-135504252D01*
X79651195Y-135647109D01*
X79603576Y-135837585D01*
X79555957Y-135932823D01*
X79460719Y-136028061D01*
X79317861Y-136075680D01*
X79079766Y-136075680D01*
X79841671Y-134708300D02*
X80794052Y-134708300D01*
X80032147Y-135170919D02*
X80079766Y-135123300D01*
X80175004Y-135075680D01*
X80413100Y-135075680D01*
X80508338Y-135123300D01*
X80555957Y-135170919D01*
X80603576Y-135266157D01*
X80603576Y-135361395D01*
X80555957Y-135504252D01*
X79984528Y-136075680D01*
X80603576Y-136075680D01*
X77859119Y-131863500D02*
X78906738Y-131863500D01*
X78287690Y-132230880D02*
X78478166Y-132230880D01*
X78573404Y-132278500D01*
X78668642Y-132373738D01*
X78716261Y-132564214D01*
X78716261Y-132897547D01*
X78668642Y-133088023D01*
X78573404Y-133183261D01*
X78478166Y-133230880D01*
X78287690Y-133230880D01*
X78192452Y-133183261D01*
X78097214Y-133088023D01*
X78049595Y-132897547D01*
X78049595Y-132564214D01*
X78097214Y-132373738D01*
X78192452Y-132278500D01*
X78287690Y-132230880D01*
X78906738Y-131863500D02*
X79811500Y-131863500D01*
X79144833Y-132707071D02*
X79478166Y-132707071D01*
X79621023Y-133230880D02*
X79144833Y-133230880D01*
X79144833Y-132230880D01*
X79621023Y-132230880D01*
X79811500Y-131863500D02*
X80763880Y-131863500D01*
X80001976Y-132326119D02*
X80049595Y-132278500D01*
X80144833Y-132230880D01*
X80382928Y-132230880D01*
X80478166Y-132278500D01*
X80525785Y-132326119D01*
X80573404Y-132421357D01*
X80573404Y-132516595D01*
X80525785Y-132659452D01*
X79954357Y-133230880D01*
X80573404Y-133230880D01*
X53216347Y-134657500D02*
X54025871Y-134657500D01*
X53930633Y-136024880D02*
X53454442Y-136024880D01*
X53454442Y-135024880D01*
X54025871Y-134657500D02*
X55025871Y-134657500D01*
X54263966Y-136024880D02*
X54263966Y-135024880D01*
X54502061Y-135024880D01*
X54644919Y-135072500D01*
X54740157Y-135167738D01*
X54787776Y-135262976D01*
X54835395Y-135453452D01*
X54835395Y-135596309D01*
X54787776Y-135786785D01*
X54740157Y-135882023D01*
X54644919Y-135977261D01*
X54502061Y-136024880D01*
X54263966Y-136024880D01*
X55025871Y-134657500D02*
X55978252Y-134657500D01*
X55168728Y-135024880D02*
X55787776Y-135024880D01*
X55454442Y-135405833D01*
X55597300Y-135405833D01*
X55692538Y-135453452D01*
X55740157Y-135501071D01*
X55787776Y-135596309D01*
X55787776Y-135834404D01*
X55740157Y-135929642D01*
X55692538Y-135977261D01*
X55597300Y-136024880D01*
X55311585Y-136024880D01*
X55216347Y-135977261D01*
X55168728Y-135929642D01*
X53043319Y-131812700D02*
X54090938Y-131812700D01*
X53471890Y-132180080D02*
X53662366Y-132180080D01*
X53757604Y-132227700D01*
X53852842Y-132322938D01*
X53900461Y-132513414D01*
X53900461Y-132846747D01*
X53852842Y-133037223D01*
X53757604Y-133132461D01*
X53662366Y-133180080D01*
X53471890Y-133180080D01*
X53376652Y-133132461D01*
X53281414Y-133037223D01*
X53233795Y-132846747D01*
X53233795Y-132513414D01*
X53281414Y-132322938D01*
X53376652Y-132227700D01*
X53471890Y-132180080D01*
X54090938Y-131812700D02*
X54995700Y-131812700D01*
X54329033Y-132656271D02*
X54662366Y-132656271D01*
X54805223Y-133180080D02*
X54329033Y-133180080D01*
X54329033Y-132180080D01*
X54805223Y-132180080D01*
X54995700Y-131812700D02*
X55948080Y-131812700D01*
X55138557Y-132180080D02*
X55757604Y-132180080D01*
X55424271Y-132561033D01*
X55567128Y-132561033D01*
X55662366Y-132608652D01*
X55709985Y-132656271D01*
X55757604Y-132751509D01*
X55757604Y-132989604D01*
X55709985Y-133084842D01*
X55662366Y-133132461D01*
X55567128Y-133180080D01*
X55281414Y-133180080D01*
X55186176Y-133132461D01*
X55138557Y-133084842D01*
X124163080Y-181503004D02*
X123163080Y-181503004D01*
X123163080Y-181264909D01*
X123210700Y-181122052D01*
X123305938Y-181026814D01*
X123401176Y-180979195D01*
X123591652Y-180931576D01*
X123734509Y-180931576D01*
X123924985Y-180979195D01*
X124020223Y-181026814D01*
X124115461Y-181122052D01*
X124163080Y-181264909D01*
X124163080Y-181503004D01*
X123163080Y-180598242D02*
X123163080Y-179979195D01*
X123544033Y-180312528D01*
X123544033Y-180169671D01*
X123591652Y-180074433D01*
X123639271Y-180026814D01*
X123734509Y-179979195D01*
X123972604Y-179979195D01*
X124067842Y-180026814D01*
X124115461Y-180074433D01*
X124163080Y-180169671D01*
X124163080Y-180455385D01*
X124115461Y-180550623D01*
X124067842Y-180598242D01*
X121661180Y-181503004D02*
X120661180Y-181503004D01*
X120661180Y-181264909D01*
X120708800Y-181122052D01*
X120804038Y-181026814D01*
X120899276Y-180979195D01*
X121089752Y-180931576D01*
X121232609Y-180931576D01*
X121423085Y-180979195D01*
X121518323Y-181026814D01*
X121613561Y-181122052D01*
X121661180Y-181264909D01*
X121661180Y-181503004D01*
X120756419Y-180550623D02*
X120708800Y-180503004D01*
X120661180Y-180407766D01*
X120661180Y-180169671D01*
X120708800Y-180074433D01*
X120756419Y-180026814D01*
X120851657Y-179979195D01*
X120946895Y-179979195D01*
X121089752Y-180026814D01*
X121661180Y-180598242D01*
X121661180Y-179979195D01*
X119121180Y-181503004D02*
X118121180Y-181503004D01*
X118121180Y-181264909D01*
X118168800Y-181122052D01*
X118264038Y-181026814D01*
X118359276Y-180979195D01*
X118549752Y-180931576D01*
X118692609Y-180931576D01*
X118883085Y-180979195D01*
X118978323Y-181026814D01*
X119073561Y-181122052D01*
X119121180Y-181264909D01*
X119121180Y-181503004D01*
X119121180Y-179979195D02*
X119121180Y-180550623D01*
X119121180Y-180264909D02*
X118121180Y-180264909D01*
X118264038Y-180360147D01*
X118359276Y-180455385D01*
X118406895Y-180550623D01*
X116568480Y-181503004D02*
X115568480Y-181503004D01*
X115568480Y-181264909D01*
X115616100Y-181122052D01*
X115711338Y-181026814D01*
X115806576Y-180979195D01*
X115997052Y-180931576D01*
X116139909Y-180931576D01*
X116330385Y-180979195D01*
X116425623Y-181026814D01*
X116520861Y-181122052D01*
X116568480Y-181264909D01*
X116568480Y-181503004D01*
X115568480Y-180312528D02*
X115568480Y-180217290D01*
X115616100Y-180122052D01*
X115663719Y-180074433D01*
X115758957Y-180026814D01*
X115949433Y-179979195D01*
X116187528Y-179979195D01*
X116378004Y-180026814D01*
X116473242Y-180074433D01*
X116520861Y-180122052D01*
X116568480Y-180217290D01*
X116568480Y-180312528D01*
X116520861Y-180407766D01*
X116473242Y-180455385D01*
X116378004Y-180503004D01*
X116187528Y-180550623D01*
X115949433Y-180550623D01*
X115758957Y-180503004D01*
X115663719Y-180455385D01*
X115616100Y-180407766D01*
X115568480Y-180312528D01*
X112610300Y-181741100D02*
X112610300Y-180693480D01*
X112977680Y-181312528D02*
X112977680Y-181122052D01*
X113025300Y-181026814D01*
X113120538Y-180931576D01*
X113311014Y-180883957D01*
X113644347Y-180883957D01*
X113834823Y-180931576D01*
X113930061Y-181026814D01*
X113977680Y-181122052D01*
X113977680Y-181312528D01*
X113930061Y-181407766D01*
X113834823Y-181503004D01*
X113644347Y-181550623D01*
X113311014Y-181550623D01*
X113120538Y-181503004D01*
X113025300Y-181407766D01*
X112977680Y-181312528D01*
X112610300Y-180693480D02*
X112610300Y-179788719D01*
X113453871Y-180455385D02*
X113453871Y-180122052D01*
X113977680Y-179979195D02*
X113977680Y-180455385D01*
X112977680Y-180455385D01*
X112977680Y-179979195D01*
X112610300Y-179788719D02*
X112610300Y-178931576D01*
X113691966Y-179598242D02*
X113691966Y-179122052D01*
X113977680Y-179693480D02*
X112977680Y-179360147D01*
X113977680Y-179026814D01*
X110070300Y-181741100D02*
X110070300Y-180931576D01*
X111437680Y-181026814D02*
X111437680Y-181503004D01*
X110437680Y-181503004D01*
X110070300Y-180931576D02*
X110070300Y-179931576D01*
X111437680Y-180693480D02*
X110437680Y-180693480D01*
X110437680Y-180455385D01*
X110485300Y-180312528D01*
X110580538Y-180217290D01*
X110675776Y-180169671D01*
X110866252Y-180122052D01*
X111009109Y-180122052D01*
X111199585Y-180169671D01*
X111294823Y-180217290D01*
X111390061Y-180312528D01*
X111437680Y-180455385D01*
X111437680Y-180693480D01*
X110070300Y-179931576D02*
X110070300Y-178931576D01*
X110913871Y-179360147D02*
X110961490Y-179217290D01*
X111009109Y-179169671D01*
X111104347Y-179122052D01*
X111247204Y-179122052D01*
X111342442Y-179169671D01*
X111390061Y-179217290D01*
X111437680Y-179312528D01*
X111437680Y-179693480D01*
X110437680Y-179693480D01*
X110437680Y-179360147D01*
X110485300Y-179264909D01*
X110532919Y-179217290D01*
X110628157Y-179169671D01*
X110723395Y-179169671D01*
X110818633Y-179217290D01*
X110866252Y-179264909D01*
X110913871Y-179360147D01*
X110913871Y-179693480D01*
X103773242Y-180956976D02*
X103820861Y-181004595D01*
X103868480Y-181147452D01*
X103868480Y-181242690D01*
X103820861Y-181385547D01*
X103725623Y-181480785D01*
X103630385Y-181528404D01*
X103439909Y-181576023D01*
X103297052Y-181576023D01*
X103106576Y-181528404D01*
X103011338Y-181480785D01*
X102916100Y-181385547D01*
X102868480Y-181242690D01*
X102868480Y-181147452D01*
X102916100Y-181004595D01*
X102963719Y-180956976D01*
X103868480Y-180052214D02*
X103868480Y-180528404D01*
X102868480Y-180528404D01*
X103868480Y-179718880D02*
X102868480Y-179718880D01*
X103868480Y-179147452D02*
X103297052Y-179576023D01*
X102868480Y-179147452D02*
X103439909Y-179718880D01*
X99986500Y-181766500D02*
X99986500Y-180766500D01*
X101353880Y-180956976D02*
X100877690Y-181290309D01*
X101353880Y-181528404D02*
X100353880Y-181528404D01*
X100353880Y-181147452D01*
X100401500Y-181052214D01*
X100449119Y-181004595D01*
X100544357Y-180956976D01*
X100687214Y-180956976D01*
X100782452Y-181004595D01*
X100830071Y-181052214D01*
X100877690Y-181147452D01*
X100877690Y-181528404D01*
X99986500Y-180766500D02*
X99986500Y-179861738D01*
X100830071Y-180528404D02*
X100830071Y-180195071D01*
X101353880Y-180052214D02*
X101353880Y-180528404D01*
X100353880Y-180528404D01*
X100353880Y-180052214D01*
X99986500Y-179861738D02*
X99986500Y-178909357D01*
X101306261Y-179671261D02*
X101353880Y-179528404D01*
X101353880Y-179290309D01*
X101306261Y-179195071D01*
X101258642Y-179147452D01*
X101163404Y-179099833D01*
X101068166Y-179099833D01*
X100972928Y-179147452D01*
X100925309Y-179195071D01*
X100877690Y-179290309D01*
X100830071Y-179480785D01*
X100782452Y-179576023D01*
X100734833Y-179623642D01*
X100639595Y-179671261D01*
X100544357Y-179671261D01*
X100449119Y-179623642D01*
X100401500Y-179576023D01*
X100353880Y-179480785D01*
X100353880Y-179242690D01*
X100401500Y-179099833D01*
X99986500Y-178909357D02*
X99986500Y-178004595D01*
X100830071Y-178671261D02*
X100830071Y-178337928D01*
X101353880Y-178195071D02*
X101353880Y-178671261D01*
X100353880Y-178671261D01*
X100353880Y-178195071D01*
X99986500Y-178004595D02*
X99986500Y-177242690D01*
X100353880Y-177909357D02*
X100353880Y-177337928D01*
X101353880Y-177623642D02*
X100353880Y-177623642D01*
X95197680Y-181683961D02*
X96197680Y-181350628D01*
X95197680Y-181017295D01*
X96102442Y-180112533D02*
X96150061Y-180160152D01*
X96197680Y-180303009D01*
X96197680Y-180398247D01*
X96150061Y-180541104D01*
X96054823Y-180636342D01*
X95959585Y-180683961D01*
X95769109Y-180731580D01*
X95626252Y-180731580D01*
X95435776Y-180683961D01*
X95340538Y-180636342D01*
X95245300Y-180541104D01*
X95197680Y-180398247D01*
X95197680Y-180303009D01*
X95245300Y-180160152D01*
X95292919Y-180112533D01*
X96102442Y-179112533D02*
X96150061Y-179160152D01*
X96197680Y-179303009D01*
X96197680Y-179398247D01*
X96150061Y-179541104D01*
X96054823Y-179636342D01*
X95959585Y-179683961D01*
X95769109Y-179731580D01*
X95626252Y-179731580D01*
X95435776Y-179683961D01*
X95340538Y-179636342D01*
X95245300Y-179541104D01*
X95197680Y-179398247D01*
X95197680Y-179303009D01*
X95245300Y-179160152D01*
X95292919Y-179112533D01*
X92794200Y-181004595D02*
X92746580Y-181099833D01*
X92746580Y-181242690D01*
X92794200Y-181385547D01*
X92889438Y-181480785D01*
X92984676Y-181528404D01*
X93175152Y-181576023D01*
X93318009Y-181576023D01*
X93508485Y-181528404D01*
X93603723Y-181480785D01*
X93698961Y-181385547D01*
X93746580Y-181242690D01*
X93746580Y-181147452D01*
X93698961Y-181004595D01*
X93651342Y-180956976D01*
X93318009Y-180956976D01*
X93318009Y-181147452D01*
X93746580Y-180528404D02*
X92746580Y-180528404D01*
X93746580Y-179956976D01*
X92746580Y-179956976D01*
X93746580Y-179480785D02*
X92746580Y-179480785D01*
X92746580Y-179242690D01*
X92794200Y-179099833D01*
X92889438Y-179004595D01*
X92984676Y-178956976D01*
X93175152Y-178909357D01*
X93318009Y-178909357D01*
X93508485Y-178956976D01*
X93603723Y-179004595D01*
X93698961Y-179099833D01*
X93746580Y-179242690D01*
X93746580Y-179480785D01*
X70861180Y-180956976D02*
X70384990Y-181290309D01*
X70861180Y-181528404D02*
X69861180Y-181528404D01*
X69861180Y-181147452D01*
X69908800Y-181052214D01*
X69956419Y-181004595D01*
X70051657Y-180956976D01*
X70194514Y-180956976D01*
X70289752Y-181004595D01*
X70337371Y-181052214D01*
X70384990Y-181147452D01*
X70384990Y-181528404D01*
X70337371Y-180195071D02*
X70384990Y-180052214D01*
X70432609Y-180004595D01*
X70527847Y-179956976D01*
X70670704Y-179956976D01*
X70765942Y-180004595D01*
X70813561Y-180052214D01*
X70861180Y-180147452D01*
X70861180Y-180528404D01*
X69861180Y-180528404D01*
X69861180Y-180195071D01*
X69908800Y-180099833D01*
X69956419Y-180052214D01*
X70051657Y-180004595D01*
X70146895Y-180004595D01*
X70242133Y-180052214D01*
X70289752Y-180099833D01*
X70337371Y-180195071D01*
X70337371Y-180528404D01*
X69861180Y-179337928D02*
X69861180Y-179242690D01*
X69908800Y-179147452D01*
X69956419Y-179099833D01*
X70051657Y-179052214D01*
X70242133Y-179004595D01*
X70480228Y-179004595D01*
X70670704Y-179052214D01*
X70765942Y-179099833D01*
X70813561Y-179147452D01*
X70861180Y-179242690D01*
X70861180Y-179337928D01*
X70813561Y-179433166D01*
X70765942Y-179480785D01*
X70670704Y-179528404D01*
X70480228Y-179576023D01*
X70242133Y-179576023D01*
X70051657Y-179528404D01*
X69956419Y-179480785D01*
X69908800Y-179433166D01*
X69861180Y-179337928D01*
X68460880Y-180956976D02*
X67984690Y-181290309D01*
X68460880Y-181528404D02*
X67460880Y-181528404D01*
X67460880Y-181147452D01*
X67508500Y-181052214D01*
X67556119Y-181004595D01*
X67651357Y-180956976D01*
X67794214Y-180956976D01*
X67889452Y-181004595D01*
X67937071Y-181052214D01*
X67984690Y-181147452D01*
X67984690Y-181528404D01*
X67937071Y-180195071D02*
X67984690Y-180052214D01*
X68032309Y-180004595D01*
X68127547Y-179956976D01*
X68270404Y-179956976D01*
X68365642Y-180004595D01*
X68413261Y-180052214D01*
X68460880Y-180147452D01*
X68460880Y-180528404D01*
X67460880Y-180528404D01*
X67460880Y-180195071D01*
X67508500Y-180099833D01*
X67556119Y-180052214D01*
X67651357Y-180004595D01*
X67746595Y-180004595D01*
X67841833Y-180052214D01*
X67889452Y-180099833D01*
X67937071Y-180195071D01*
X67937071Y-180528404D01*
X68460880Y-179004595D02*
X68460880Y-179576023D01*
X68460880Y-179290309D02*
X67460880Y-179290309D01*
X67603738Y-179385547D01*
X67698976Y-179480785D01*
X67746595Y-179576023D01*
X65908180Y-180982376D02*
X65431990Y-181315709D01*
X65908180Y-181553804D02*
X64908180Y-181553804D01*
X64908180Y-181172852D01*
X64955800Y-181077614D01*
X65003419Y-181029995D01*
X65098657Y-180982376D01*
X65241514Y-180982376D01*
X65336752Y-181029995D01*
X65384371Y-181077614D01*
X65431990Y-181172852D01*
X65431990Y-181553804D01*
X65384371Y-180220471D02*
X65431990Y-180077614D01*
X65479609Y-180029995D01*
X65574847Y-179982376D01*
X65717704Y-179982376D01*
X65812942Y-180029995D01*
X65860561Y-180077614D01*
X65908180Y-180172852D01*
X65908180Y-180553804D01*
X64908180Y-180553804D01*
X64908180Y-180220471D01*
X64955800Y-180125233D01*
X65003419Y-180077614D01*
X65098657Y-180029995D01*
X65193895Y-180029995D01*
X65289133Y-180077614D01*
X65336752Y-180125233D01*
X65384371Y-180220471D01*
X65384371Y-180553804D01*
X65003419Y-179601423D02*
X64955800Y-179553804D01*
X64908180Y-179458566D01*
X64908180Y-179220471D01*
X64955800Y-179125233D01*
X65003419Y-179077614D01*
X65098657Y-179029995D01*
X65193895Y-179029995D01*
X65336752Y-179077614D01*
X65908180Y-179649042D01*
X65908180Y-179029995D01*
X63266580Y-180944276D02*
X62790390Y-181277609D01*
X63266580Y-181515704D02*
X62266580Y-181515704D01*
X62266580Y-181134752D01*
X62314200Y-181039514D01*
X62361819Y-180991895D01*
X62457057Y-180944276D01*
X62599914Y-180944276D01*
X62695152Y-180991895D01*
X62742771Y-181039514D01*
X62790390Y-181134752D01*
X62790390Y-181515704D01*
X62742771Y-180182371D02*
X62790390Y-180039514D01*
X62838009Y-179991895D01*
X62933247Y-179944276D01*
X63076104Y-179944276D01*
X63171342Y-179991895D01*
X63218961Y-180039514D01*
X63266580Y-180134752D01*
X63266580Y-180515704D01*
X62266580Y-180515704D01*
X62266580Y-180182371D01*
X62314200Y-180087133D01*
X62361819Y-180039514D01*
X62457057Y-179991895D01*
X62552295Y-179991895D01*
X62647533Y-180039514D01*
X62695152Y-180087133D01*
X62742771Y-180182371D01*
X62742771Y-180515704D01*
X62266580Y-179610942D02*
X62266580Y-178991895D01*
X62647533Y-179325228D01*
X62647533Y-179182371D01*
X62695152Y-179087133D01*
X62742771Y-179039514D01*
X62838009Y-178991895D01*
X63076104Y-178991895D01*
X63171342Y-179039514D01*
X63218961Y-179087133D01*
X63266580Y-179182371D01*
X63266580Y-179468085D01*
X63218961Y-179563323D01*
X63171342Y-179610942D01*
X60675780Y-180931576D02*
X60199590Y-181264909D01*
X60675780Y-181503004D02*
X59675780Y-181503004D01*
X59675780Y-181122052D01*
X59723400Y-181026814D01*
X59771019Y-180979195D01*
X59866257Y-180931576D01*
X60009114Y-180931576D01*
X60104352Y-180979195D01*
X60151971Y-181026814D01*
X60199590Y-181122052D01*
X60199590Y-181503004D01*
X60390066Y-180550623D02*
X60390066Y-180074433D01*
X60675780Y-180645861D02*
X59675780Y-180312528D01*
X60675780Y-179979195D01*
X59675780Y-179455385D02*
X59675780Y-179360147D01*
X59723400Y-179264909D01*
X59771019Y-179217290D01*
X59866257Y-179169671D01*
X60056733Y-179122052D01*
X60294828Y-179122052D01*
X60485304Y-179169671D01*
X60580542Y-179217290D01*
X60628161Y-179264909D01*
X60675780Y-179360147D01*
X60675780Y-179455385D01*
X60628161Y-179550623D01*
X60580542Y-179598242D01*
X60485304Y-179645861D01*
X60294828Y-179693480D01*
X60056733Y-179693480D01*
X59866257Y-179645861D01*
X59771019Y-179598242D01*
X59723400Y-179550623D01*
X59675780Y-179455385D01*
X58211980Y-180931576D02*
X57735790Y-181264909D01*
X58211980Y-181503004D02*
X57211980Y-181503004D01*
X57211980Y-181122052D01*
X57259600Y-181026814D01*
X57307219Y-180979195D01*
X57402457Y-180931576D01*
X57545314Y-180931576D01*
X57640552Y-180979195D01*
X57688171Y-181026814D01*
X57735790Y-181122052D01*
X57735790Y-181503004D01*
X57926266Y-180550623D02*
X57926266Y-180074433D01*
X58211980Y-180645861D02*
X57211980Y-180312528D01*
X58211980Y-179979195D01*
X58211980Y-179122052D02*
X58211980Y-179693480D01*
X58211980Y-179407766D02*
X57211980Y-179407766D01*
X57354838Y-179503004D01*
X57450076Y-179598242D01*
X57497695Y-179693480D01*
X55659280Y-180931576D02*
X55183090Y-181264909D01*
X55659280Y-181503004D02*
X54659280Y-181503004D01*
X54659280Y-181122052D01*
X54706900Y-181026814D01*
X54754519Y-180979195D01*
X54849757Y-180931576D01*
X54992614Y-180931576D01*
X55087852Y-180979195D01*
X55135471Y-181026814D01*
X55183090Y-181122052D01*
X55183090Y-181503004D01*
X55373566Y-180550623D02*
X55373566Y-180074433D01*
X55659280Y-180645861D02*
X54659280Y-180312528D01*
X55659280Y-179979195D01*
X54754519Y-179693480D02*
X54706900Y-179645861D01*
X54659280Y-179550623D01*
X54659280Y-179312528D01*
X54706900Y-179217290D01*
X54754519Y-179169671D01*
X54849757Y-179122052D01*
X54944995Y-179122052D01*
X55087852Y-179169671D01*
X55659280Y-179741100D01*
X55659280Y-179122052D01*
X53093880Y-180931576D02*
X52617690Y-181264909D01*
X53093880Y-181503004D02*
X52093880Y-181503004D01*
X52093880Y-181122052D01*
X52141500Y-181026814D01*
X52189119Y-180979195D01*
X52284357Y-180931576D01*
X52427214Y-180931576D01*
X52522452Y-180979195D01*
X52570071Y-181026814D01*
X52617690Y-181122052D01*
X52617690Y-181503004D01*
X52808166Y-180550623D02*
X52808166Y-180074433D01*
X53093880Y-180645861D02*
X52093880Y-180312528D01*
X53093880Y-179979195D01*
X52093880Y-179741100D02*
X52093880Y-179122052D01*
X52474833Y-179455385D01*
X52474833Y-179312528D01*
X52522452Y-179217290D01*
X52570071Y-179169671D01*
X52665309Y-179122052D01*
X52903404Y-179122052D01*
X52998642Y-179169671D01*
X53046261Y-179217290D01*
X53093880Y-179312528D01*
X53093880Y-179598242D01*
X53046261Y-179693480D01*
X52998642Y-179741100D01*
X128230380Y-186784104D02*
X128230380Y-186165057D01*
X128611333Y-186498390D01*
X128611333Y-186355533D01*
X128658952Y-186260295D01*
X128706571Y-186212676D01*
X128801809Y-186165057D01*
X129039904Y-186165057D01*
X129135142Y-186212676D01*
X129182761Y-186260295D01*
X129230380Y-186355533D01*
X129230380Y-186641247D01*
X129182761Y-186736485D01*
X129135142Y-186784104D01*
X129230380Y-185212676D02*
X129230380Y-185784104D01*
X129230380Y-185498390D02*
X128230380Y-185498390D01*
X128373238Y-185593628D01*
X128468476Y-185688866D01*
X128516095Y-185784104D01*
X130833880Y-186784104D02*
X130833880Y-186165057D01*
X131214833Y-186498390D01*
X131214833Y-186355533D01*
X131262452Y-186260295D01*
X131310071Y-186212676D01*
X131405309Y-186165057D01*
X131643404Y-186165057D01*
X131738642Y-186212676D01*
X131786261Y-186260295D01*
X131833880Y-186355533D01*
X131833880Y-186641247D01*
X131786261Y-186736485D01*
X131738642Y-186784104D01*
X130929119Y-185784104D02*
X130881500Y-185736485D01*
X130833880Y-185641247D01*
X130833880Y-185403152D01*
X130881500Y-185307914D01*
X130929119Y-185260295D01*
X131024357Y-185212676D01*
X131119595Y-185212676D01*
X131262452Y-185260295D01*
X131833880Y-185831723D01*
X131833880Y-185212676D01*
X136015480Y-186784104D02*
X136015480Y-186165057D01*
X136396433Y-186498390D01*
X136396433Y-186355533D01*
X136444052Y-186260295D01*
X136491671Y-186212676D01*
X136586909Y-186165057D01*
X136825004Y-186165057D01*
X136920242Y-186212676D01*
X136967861Y-186260295D01*
X137015480Y-186355533D01*
X137015480Y-186641247D01*
X136967861Y-186736485D01*
X136920242Y-186784104D01*
X136348814Y-185307914D02*
X137015480Y-185307914D01*
X135967861Y-185546009D02*
X136682147Y-185784104D01*
X136682147Y-185165057D01*
X133373880Y-186784104D02*
X133373880Y-186165057D01*
X133754833Y-186498390D01*
X133754833Y-186355533D01*
X133802452Y-186260295D01*
X133850071Y-186212676D01*
X133945309Y-186165057D01*
X134183404Y-186165057D01*
X134278642Y-186212676D01*
X134326261Y-186260295D01*
X134373880Y-186355533D01*
X134373880Y-186641247D01*
X134326261Y-186736485D01*
X134278642Y-186784104D01*
X133373880Y-185831723D02*
X133373880Y-185212676D01*
X133754833Y-185546009D01*
X133754833Y-185403152D01*
X133802452Y-185307914D01*
X133850071Y-185260295D01*
X133945309Y-185212676D01*
X134183404Y-185212676D01*
X134278642Y-185260295D01*
X134326261Y-185307914D01*
X134373880Y-185403152D01*
X134373880Y-185688866D01*
X134326261Y-185784104D01*
X134278642Y-185831723D01*
X138479280Y-186784104D02*
X138479280Y-186165057D01*
X138860233Y-186498390D01*
X138860233Y-186355533D01*
X138907852Y-186260295D01*
X138955471Y-186212676D01*
X139050709Y-186165057D01*
X139288804Y-186165057D01*
X139384042Y-186212676D01*
X139431661Y-186260295D01*
X139479280Y-186355533D01*
X139479280Y-186641247D01*
X139431661Y-186736485D01*
X139384042Y-186784104D01*
X138479280Y-185260295D02*
X138479280Y-185736485D01*
X138955471Y-185784104D01*
X138907852Y-185736485D01*
X138860233Y-185641247D01*
X138860233Y-185403152D01*
X138907852Y-185307914D01*
X138955471Y-185260295D01*
X139050709Y-185212676D01*
X139288804Y-185212676D01*
X139384042Y-185260295D01*
X139431661Y-185307914D01*
X139479280Y-185403152D01*
X139479280Y-185641247D01*
X139431661Y-185736485D01*
X139384042Y-185784104D01*
X140993880Y-186784104D02*
X140993880Y-186165057D01*
X141374833Y-186498390D01*
X141374833Y-186355533D01*
X141422452Y-186260295D01*
X141470071Y-186212676D01*
X141565309Y-186165057D01*
X141803404Y-186165057D01*
X141898642Y-186212676D01*
X141946261Y-186260295D01*
X141993880Y-186355533D01*
X141993880Y-186641247D01*
X141946261Y-186736485D01*
X141898642Y-186784104D01*
X140993880Y-185307914D02*
X140993880Y-185498390D01*
X141041500Y-185593628D01*
X141089119Y-185641247D01*
X141231976Y-185736485D01*
X141422452Y-185784104D01*
X141803404Y-185784104D01*
X141898642Y-185736485D01*
X141946261Y-185688866D01*
X141993880Y-185593628D01*
X141993880Y-185403152D01*
X141946261Y-185307914D01*
X141898642Y-185260295D01*
X141803404Y-185212676D01*
X141565309Y-185212676D01*
X141470071Y-185260295D01*
X141422452Y-185307914D01*
X141374833Y-185403152D01*
X141374833Y-185593628D01*
X141422452Y-185688866D01*
X141470071Y-185736485D01*
X141565309Y-185784104D01*
X143533880Y-186784104D02*
X143533880Y-186165057D01*
X143914833Y-186498390D01*
X143914833Y-186355533D01*
X143962452Y-186260295D01*
X144010071Y-186212676D01*
X144105309Y-186165057D01*
X144343404Y-186165057D01*
X144438642Y-186212676D01*
X144486261Y-186260295D01*
X144533880Y-186355533D01*
X144533880Y-186641247D01*
X144486261Y-186736485D01*
X144438642Y-186784104D01*
X143533880Y-185831723D02*
X143533880Y-185165057D01*
X144533880Y-185593628D01*
X146137380Y-186784104D02*
X146137380Y-186165057D01*
X146518333Y-186498390D01*
X146518333Y-186355533D01*
X146565952Y-186260295D01*
X146613571Y-186212676D01*
X146708809Y-186165057D01*
X146946904Y-186165057D01*
X147042142Y-186212676D01*
X147089761Y-186260295D01*
X147137380Y-186355533D01*
X147137380Y-186641247D01*
X147089761Y-186736485D01*
X147042142Y-186784104D01*
X146565952Y-185593628D02*
X146518333Y-185688866D01*
X146470714Y-185736485D01*
X146375476Y-185784104D01*
X146327857Y-185784104D01*
X146232619Y-185736485D01*
X146185000Y-185688866D01*
X146137380Y-185593628D01*
X146137380Y-185403152D01*
X146185000Y-185307914D01*
X146232619Y-185260295D01*
X146327857Y-185212676D01*
X146375476Y-185212676D01*
X146470714Y-185260295D01*
X146518333Y-185307914D01*
X146565952Y-185403152D01*
X146565952Y-185593628D01*
X146613571Y-185688866D01*
X146661190Y-185736485D01*
X146756428Y-185784104D01*
X146946904Y-185784104D01*
X147042142Y-185736485D01*
X147089761Y-185688866D01*
X147137380Y-185593628D01*
X147137380Y-185403152D01*
X147089761Y-185307914D01*
X147042142Y-185260295D01*
X146946904Y-185212676D01*
X146756428Y-185212676D01*
X146661190Y-185260295D01*
X146613571Y-185307914D01*
X146565952Y-185403152D01*
X125880880Y-186771404D02*
X125880880Y-186152357D01*
X126261833Y-186485690D01*
X126261833Y-186342833D01*
X126309452Y-186247595D01*
X126357071Y-186199976D01*
X126452309Y-186152357D01*
X126690404Y-186152357D01*
X126785642Y-186199976D01*
X126833261Y-186247595D01*
X126880880Y-186342833D01*
X126880880Y-186628547D01*
X126833261Y-186723785D01*
X126785642Y-186771404D01*
X125880880Y-185533309D02*
X125880880Y-185438071D01*
X125928500Y-185342833D01*
X125976119Y-185295214D01*
X126071357Y-185247595D01*
X126261833Y-185199976D01*
X126499928Y-185199976D01*
X126690404Y-185247595D01*
X126785642Y-185295214D01*
X126833261Y-185342833D01*
X126880880Y-185438071D01*
X126880880Y-185533309D01*
X126833261Y-185628547D01*
X126785642Y-185676166D01*
X126690404Y-185723785D01*
X126499928Y-185771404D01*
X126261833Y-185771404D01*
X126071357Y-185723785D01*
X125976119Y-185676166D01*
X125928500Y-185628547D01*
X125880880Y-185533309D01*
X118292619Y-186736485D02*
X118245000Y-186688866D01*
X118197380Y-186593628D01*
X118197380Y-186355533D01*
X118245000Y-186260295D01*
X118292619Y-186212676D01*
X118387857Y-186165057D01*
X118483095Y-186165057D01*
X118625952Y-186212676D01*
X119197380Y-186784104D01*
X119197380Y-186165057D01*
X118197380Y-185831723D02*
X118197380Y-185165057D01*
X119197380Y-185593628D01*
X120896119Y-186736485D02*
X120848500Y-186688866D01*
X120800880Y-186593628D01*
X120800880Y-186355533D01*
X120848500Y-186260295D01*
X120896119Y-186212676D01*
X120991357Y-186165057D01*
X121086595Y-186165057D01*
X121229452Y-186212676D01*
X121800880Y-186784104D01*
X121800880Y-186165057D01*
X121229452Y-185593628D02*
X121181833Y-185688866D01*
X121134214Y-185736485D01*
X121038976Y-185784104D01*
X120991357Y-185784104D01*
X120896119Y-185736485D01*
X120848500Y-185688866D01*
X120800880Y-185593628D01*
X120800880Y-185403152D01*
X120848500Y-185307914D01*
X120896119Y-185260295D01*
X120991357Y-185212676D01*
X121038976Y-185212676D01*
X121134214Y-185260295D01*
X121181833Y-185307914D01*
X121229452Y-185403152D01*
X121229452Y-185593628D01*
X121277071Y-185688866D01*
X121324690Y-185736485D01*
X121419928Y-185784104D01*
X121610404Y-185784104D01*
X121705642Y-185736485D01*
X121753261Y-185688866D01*
X121800880Y-185593628D01*
X121800880Y-185403152D01*
X121753261Y-185307914D01*
X121705642Y-185260295D01*
X121610404Y-185212676D01*
X121419928Y-185212676D01*
X121324690Y-185260295D01*
X121277071Y-185307914D01*
X121229452Y-185403152D01*
X105592619Y-186736485D02*
X105545000Y-186688866D01*
X105497380Y-186593628D01*
X105497380Y-186355533D01*
X105545000Y-186260295D01*
X105592619Y-186212676D01*
X105687857Y-186165057D01*
X105783095Y-186165057D01*
X105925952Y-186212676D01*
X106497380Y-186784104D01*
X106497380Y-186165057D01*
X105592619Y-185784104D02*
X105545000Y-185736485D01*
X105497380Y-185641247D01*
X105497380Y-185403152D01*
X105545000Y-185307914D01*
X105592619Y-185260295D01*
X105687857Y-185212676D01*
X105783095Y-185212676D01*
X105925952Y-185260295D01*
X106497380Y-185831723D01*
X106497380Y-185212676D01*
X123398019Y-186736485D02*
X123350400Y-186688866D01*
X123302780Y-186593628D01*
X123302780Y-186355533D01*
X123350400Y-186260295D01*
X123398019Y-186212676D01*
X123493257Y-186165057D01*
X123588495Y-186165057D01*
X123731352Y-186212676D01*
X124302780Y-186784104D01*
X124302780Y-186165057D01*
X124302780Y-185688866D02*
X124302780Y-185498390D01*
X124255161Y-185403152D01*
X124207542Y-185355533D01*
X124064685Y-185260295D01*
X123874209Y-185212676D01*
X123493257Y-185212676D01*
X123398019Y-185260295D01*
X123350400Y-185307914D01*
X123302780Y-185403152D01*
X123302780Y-185593628D01*
X123350400Y-185688866D01*
X123398019Y-185736485D01*
X123493257Y-185784104D01*
X123731352Y-185784104D01*
X123826590Y-185736485D01*
X123874209Y-185688866D01*
X123921828Y-185593628D01*
X123921828Y-185403152D01*
X123874209Y-185307914D01*
X123826590Y-185260295D01*
X123731352Y-185212676D01*
X102989119Y-186736485D02*
X102941500Y-186688866D01*
X102893880Y-186593628D01*
X102893880Y-186355533D01*
X102941500Y-186260295D01*
X102989119Y-186212676D01*
X103084357Y-186165057D01*
X103179595Y-186165057D01*
X103322452Y-186212676D01*
X103893880Y-186784104D01*
X103893880Y-186165057D01*
X103893880Y-185212676D02*
X103893880Y-185784104D01*
X103893880Y-185498390D02*
X102893880Y-185498390D01*
X103036738Y-185593628D01*
X103131976Y-185688866D01*
X103179595Y-185784104D01*
X110774219Y-186736485D02*
X110726600Y-186688866D01*
X110678980Y-186593628D01*
X110678980Y-186355533D01*
X110726600Y-186260295D01*
X110774219Y-186212676D01*
X110869457Y-186165057D01*
X110964695Y-186165057D01*
X111107552Y-186212676D01*
X111678980Y-186784104D01*
X111678980Y-186165057D01*
X111012314Y-185307914D02*
X111678980Y-185307914D01*
X110631361Y-185546009D02*
X111345647Y-185784104D01*
X111345647Y-185165057D01*
X108132619Y-186736485D02*
X108085000Y-186688866D01*
X108037380Y-186593628D01*
X108037380Y-186355533D01*
X108085000Y-186260295D01*
X108132619Y-186212676D01*
X108227857Y-186165057D01*
X108323095Y-186165057D01*
X108465952Y-186212676D01*
X109037380Y-186784104D01*
X109037380Y-186165057D01*
X108037380Y-185831723D02*
X108037380Y-185212676D01*
X108418333Y-185546009D01*
X108418333Y-185403152D01*
X108465952Y-185307914D01*
X108513571Y-185260295D01*
X108608809Y-185212676D01*
X108846904Y-185212676D01*
X108942142Y-185260295D01*
X108989761Y-185307914D01*
X109037380Y-185403152D01*
X109037380Y-185688866D01*
X108989761Y-185784104D01*
X108942142Y-185831723D01*
X115752619Y-186736485D02*
X115705000Y-186688866D01*
X115657380Y-186593628D01*
X115657380Y-186355533D01*
X115705000Y-186260295D01*
X115752619Y-186212676D01*
X115847857Y-186165057D01*
X115943095Y-186165057D01*
X116085952Y-186212676D01*
X116657380Y-186784104D01*
X116657380Y-186165057D01*
X115657380Y-185307914D02*
X115657380Y-185498390D01*
X115705000Y-185593628D01*
X115752619Y-185641247D01*
X115895476Y-185736485D01*
X116085952Y-185784104D01*
X116466904Y-185784104D01*
X116562142Y-185736485D01*
X116609761Y-185688866D01*
X116657380Y-185593628D01*
X116657380Y-185403152D01*
X116609761Y-185307914D01*
X116562142Y-185260295D01*
X116466904Y-185212676D01*
X116228809Y-185212676D01*
X116133571Y-185260295D01*
X116085952Y-185307914D01*
X116038333Y-185403152D01*
X116038333Y-185593628D01*
X116085952Y-185688866D01*
X116133571Y-185736485D01*
X116228809Y-185784104D01*
X113238019Y-186736485D02*
X113190400Y-186688866D01*
X113142780Y-186593628D01*
X113142780Y-186355533D01*
X113190400Y-186260295D01*
X113238019Y-186212676D01*
X113333257Y-186165057D01*
X113428495Y-186165057D01*
X113571352Y-186212676D01*
X114142780Y-186784104D01*
X114142780Y-186165057D01*
X113142780Y-185260295D02*
X113142780Y-185736485D01*
X113618971Y-185784104D01*
X113571352Y-185736485D01*
X113523733Y-185641247D01*
X113523733Y-185403152D01*
X113571352Y-185307914D01*
X113618971Y-185260295D01*
X113714209Y-185212676D01*
X113952304Y-185212676D01*
X114047542Y-185260295D01*
X114095161Y-185307914D01*
X114142780Y-185403152D01*
X114142780Y-185641247D01*
X114095161Y-185736485D01*
X114047542Y-185784104D01*
X88704680Y-186165057D02*
X88704680Y-186736485D01*
X88704680Y-186450771D02*
X87704680Y-186450771D01*
X87847538Y-186546009D01*
X87942776Y-186641247D01*
X87990395Y-186736485D01*
X87704680Y-185260295D02*
X87704680Y-185736485D01*
X88180871Y-185784104D01*
X88133252Y-185736485D01*
X88085633Y-185641247D01*
X88085633Y-185403152D01*
X88133252Y-185307914D01*
X88180871Y-185260295D01*
X88276109Y-185212676D01*
X88514204Y-185212676D01*
X88609442Y-185260295D01*
X88657061Y-185307914D01*
X88704680Y-185403152D01*
X88704680Y-185641247D01*
X88657061Y-185736485D01*
X88609442Y-185784104D01*
X86240880Y-186165057D02*
X86240880Y-186736485D01*
X86240880Y-186450771D02*
X85240880Y-186450771D01*
X85383738Y-186546009D01*
X85478976Y-186641247D01*
X85526595Y-186736485D01*
X85574214Y-185307914D02*
X86240880Y-185307914D01*
X85193261Y-185546009D02*
X85907547Y-185784104D01*
X85907547Y-185165057D01*
X83599280Y-186165057D02*
X83599280Y-186736485D01*
X83599280Y-186450771D02*
X82599280Y-186450771D01*
X82742138Y-186546009D01*
X82837376Y-186641247D01*
X82884995Y-186736485D01*
X82599280Y-185831723D02*
X82599280Y-185212676D01*
X82980233Y-185546009D01*
X82980233Y-185403152D01*
X83027852Y-185307914D01*
X83075471Y-185260295D01*
X83170709Y-185212676D01*
X83408804Y-185212676D01*
X83504042Y-185260295D01*
X83551661Y-185307914D01*
X83599280Y-185403152D01*
X83599280Y-185688866D01*
X83551661Y-185784104D01*
X83504042Y-185831723D01*
X93759280Y-186165057D02*
X93759280Y-186736485D01*
X93759280Y-186450771D02*
X92759280Y-186450771D01*
X92902138Y-186546009D01*
X92997376Y-186641247D01*
X93044995Y-186736485D01*
X92759280Y-185831723D02*
X92759280Y-185165057D01*
X93759280Y-185593628D01*
X98864680Y-186165057D02*
X98864680Y-186736485D01*
X98864680Y-186450771D02*
X97864680Y-186450771D01*
X98007538Y-186546009D01*
X98102776Y-186641247D01*
X98150395Y-186736485D01*
X98864680Y-185688866D02*
X98864680Y-185498390D01*
X98817061Y-185403152D01*
X98769442Y-185355533D01*
X98626585Y-185260295D01*
X98436109Y-185212676D01*
X98055157Y-185212676D01*
X97959919Y-185260295D01*
X97912300Y-185307914D01*
X97864680Y-185403152D01*
X97864680Y-185593628D01*
X97912300Y-185688866D01*
X97959919Y-185736485D01*
X98055157Y-185784104D01*
X98293252Y-185784104D01*
X98388490Y-185736485D01*
X98436109Y-185688866D01*
X98483728Y-185593628D01*
X98483728Y-185403152D01*
X98436109Y-185307914D01*
X98388490Y-185260295D01*
X98293252Y-185212676D01*
X81059280Y-186165057D02*
X81059280Y-186736485D01*
X81059280Y-186450771D02*
X80059280Y-186450771D01*
X80202138Y-186546009D01*
X80297376Y-186641247D01*
X80344995Y-186736485D01*
X80154519Y-185784104D02*
X80106900Y-185736485D01*
X80059280Y-185641247D01*
X80059280Y-185403152D01*
X80106900Y-185307914D01*
X80154519Y-185260295D01*
X80249757Y-185212676D01*
X80344995Y-185212676D01*
X80487852Y-185260295D01*
X81059280Y-185831723D01*
X81059280Y-185212676D01*
X96362780Y-186165057D02*
X96362780Y-186736485D01*
X96362780Y-186450771D02*
X95362780Y-186450771D01*
X95505638Y-186546009D01*
X95600876Y-186641247D01*
X95648495Y-186736485D01*
X95791352Y-185593628D02*
X95743733Y-185688866D01*
X95696114Y-185736485D01*
X95600876Y-185784104D01*
X95553257Y-185784104D01*
X95458019Y-185736485D01*
X95410400Y-185688866D01*
X95362780Y-185593628D01*
X95362780Y-185403152D01*
X95410400Y-185307914D01*
X95458019Y-185260295D01*
X95553257Y-185212676D01*
X95600876Y-185212676D01*
X95696114Y-185260295D01*
X95743733Y-185307914D01*
X95791352Y-185403152D01*
X95791352Y-185593628D01*
X95838971Y-185688866D01*
X95886590Y-185736485D01*
X95981828Y-185784104D01*
X96172304Y-185784104D01*
X96267542Y-185736485D01*
X96315161Y-185688866D01*
X96362780Y-185593628D01*
X96362780Y-185403152D01*
X96315161Y-185307914D01*
X96267542Y-185260295D01*
X96172304Y-185212676D01*
X95981828Y-185212676D01*
X95886590Y-185260295D01*
X95838971Y-185307914D01*
X95791352Y-185403152D01*
X100538019Y-186723785D02*
X100490400Y-186676166D01*
X100442780Y-186580928D01*
X100442780Y-186342833D01*
X100490400Y-186247595D01*
X100538019Y-186199976D01*
X100633257Y-186152357D01*
X100728495Y-186152357D01*
X100871352Y-186199976D01*
X101442780Y-186771404D01*
X101442780Y-186152357D01*
X100442780Y-185533309D02*
X100442780Y-185438071D01*
X100490400Y-185342833D01*
X100538019Y-185295214D01*
X100633257Y-185247595D01*
X100823733Y-185199976D01*
X101061828Y-185199976D01*
X101252304Y-185247595D01*
X101347542Y-185295214D01*
X101395161Y-185342833D01*
X101442780Y-185438071D01*
X101442780Y-185533309D01*
X101395161Y-185628547D01*
X101347542Y-185676166D01*
X101252304Y-185723785D01*
X101061828Y-185771404D01*
X100823733Y-185771404D01*
X100633257Y-185723785D01*
X100538019Y-185676166D01*
X100490400Y-185628547D01*
X100442780Y-185533309D01*
X91219280Y-186165057D02*
X91219280Y-186736485D01*
X91219280Y-186450771D02*
X90219280Y-186450771D01*
X90362138Y-186546009D01*
X90457376Y-186641247D01*
X90504995Y-186736485D01*
X90219280Y-185307914D02*
X90219280Y-185498390D01*
X90266900Y-185593628D01*
X90314519Y-185641247D01*
X90457376Y-185736485D01*
X90647852Y-185784104D01*
X91028804Y-185784104D01*
X91124042Y-185736485D01*
X91171661Y-185688866D01*
X91219280Y-185593628D01*
X91219280Y-185403152D01*
X91171661Y-185307914D01*
X91124042Y-185260295D01*
X91028804Y-185212676D01*
X90790709Y-185212676D01*
X90695471Y-185260295D01*
X90647852Y-185307914D01*
X90600233Y-185403152D01*
X90600233Y-185593628D01*
X90647852Y-185688866D01*
X90695471Y-185736485D01*
X90790709Y-185784104D01*
X78455780Y-186165057D02*
X78455780Y-186736485D01*
X78455780Y-186450771D02*
X77455780Y-186450771D01*
X77598638Y-186546009D01*
X77693876Y-186641247D01*
X77741495Y-186736485D01*
X78455780Y-185212676D02*
X78455780Y-185784104D01*
X78455780Y-185498390D02*
X77455780Y-185498390D01*
X77598638Y-185593628D01*
X77693876Y-185688866D01*
X77741495Y-185784104D01*
X75915780Y-186152357D02*
X75915780Y-186723785D01*
X75915780Y-186438071D02*
X74915780Y-186438071D01*
X75058638Y-186533309D01*
X75153876Y-186628547D01*
X75201495Y-186723785D01*
X74915780Y-185533309D02*
X74915780Y-185438071D01*
X74963400Y-185342833D01*
X75011019Y-185295214D01*
X75106257Y-185247595D01*
X75296733Y-185199976D01*
X75534828Y-185199976D01*
X75725304Y-185247595D01*
X75820542Y-185295214D01*
X75868161Y-185342833D01*
X75915780Y-185438071D01*
X75915780Y-185533309D01*
X75868161Y-185628547D01*
X75820542Y-185676166D01*
X75725304Y-185723785D01*
X75534828Y-185771404D01*
X75296733Y-185771404D01*
X75106257Y-185723785D01*
X75011019Y-185676166D01*
X74963400Y-185628547D01*
X74915780Y-185533309D01*
X73337680Y-185688866D02*
X73337680Y-185498390D01*
X73290061Y-185403152D01*
X73242442Y-185355533D01*
X73099585Y-185260295D01*
X72909109Y-185212676D01*
X72528157Y-185212676D01*
X72432919Y-185260295D01*
X72385300Y-185307914D01*
X72337680Y-185403152D01*
X72337680Y-185593628D01*
X72385300Y-185688866D01*
X72432919Y-185736485D01*
X72528157Y-185784104D01*
X72766252Y-185784104D01*
X72861490Y-185736485D01*
X72909109Y-185688866D01*
X72956728Y-185593628D01*
X72956728Y-185403152D01*
X72909109Y-185307914D01*
X72861490Y-185260295D01*
X72766252Y-185212676D01*
X70264352Y-185593628D02*
X70216733Y-185688866D01*
X70169114Y-185736485D01*
X70073876Y-185784104D01*
X70026257Y-185784104D01*
X69931019Y-185736485D01*
X69883400Y-185688866D01*
X69835780Y-185593628D01*
X69835780Y-185403152D01*
X69883400Y-185307914D01*
X69931019Y-185260295D01*
X70026257Y-185212676D01*
X70073876Y-185212676D01*
X70169114Y-185260295D01*
X70216733Y-185307914D01*
X70264352Y-185403152D01*
X70264352Y-185593628D01*
X70311971Y-185688866D01*
X70359590Y-185736485D01*
X70454828Y-185784104D01*
X70645304Y-185784104D01*
X70740542Y-185736485D01*
X70788161Y-185688866D01*
X70835780Y-185593628D01*
X70835780Y-185403152D01*
X70788161Y-185307914D01*
X70740542Y-185260295D01*
X70645304Y-185212676D01*
X70454828Y-185212676D01*
X70359590Y-185260295D01*
X70311971Y-185307914D01*
X70264352Y-185403152D01*
X67232280Y-185831723D02*
X67232280Y-185165057D01*
X68232280Y-185593628D01*
X64692280Y-185307914D02*
X64692280Y-185498390D01*
X64739900Y-185593628D01*
X64787519Y-185641247D01*
X64930376Y-185736485D01*
X65120852Y-185784104D01*
X65501804Y-185784104D01*
X65597042Y-185736485D01*
X65644661Y-185688866D01*
X65692280Y-185593628D01*
X65692280Y-185403152D01*
X65644661Y-185307914D01*
X65597042Y-185260295D01*
X65501804Y-185212676D01*
X65263709Y-185212676D01*
X65168471Y-185260295D01*
X65120852Y-185307914D01*
X65073233Y-185403152D01*
X65073233Y-185593628D01*
X65120852Y-185688866D01*
X65168471Y-185736485D01*
X65263709Y-185784104D01*
X62177680Y-185260295D02*
X62177680Y-185736485D01*
X62653871Y-185784104D01*
X62606252Y-185736485D01*
X62558633Y-185641247D01*
X62558633Y-185403152D01*
X62606252Y-185307914D01*
X62653871Y-185260295D01*
X62749109Y-185212676D01*
X62987204Y-185212676D01*
X63082442Y-185260295D01*
X63130061Y-185307914D01*
X63177680Y-185403152D01*
X63177680Y-185641247D01*
X63130061Y-185736485D01*
X63082442Y-185784104D01*
X60047214Y-185307914D02*
X60713880Y-185307914D01*
X59666261Y-185546009D02*
X60380547Y-185784104D01*
X60380547Y-185165057D01*
X57072280Y-185831723D02*
X57072280Y-185212676D01*
X57453233Y-185546009D01*
X57453233Y-185403152D01*
X57500852Y-185307914D01*
X57548471Y-185260295D01*
X57643709Y-185212676D01*
X57881804Y-185212676D01*
X57977042Y-185260295D01*
X58024661Y-185307914D01*
X58072280Y-185403152D01*
X58072280Y-185688866D01*
X58024661Y-185784104D01*
X57977042Y-185831723D01*
X54627519Y-185784104D02*
X54579900Y-185736485D01*
X54532280Y-185641247D01*
X54532280Y-185403152D01*
X54579900Y-185307914D01*
X54627519Y-185260295D01*
X54722757Y-185212676D01*
X54817995Y-185212676D01*
X54960852Y-185260295D01*
X55532280Y-185831723D01*
X55532280Y-185212676D01*
X52928780Y-185212676D02*
X52928780Y-185784104D01*
X52928780Y-185498390D02*
X51928780Y-185498390D01*
X52071638Y-185593628D01*
X52166876Y-185688866D01*
X52214495Y-185784104D01*
D12*
X87473042Y-171635680D02*
X87473042Y-170635680D01*
X87949233Y-170969014D02*
X87949233Y-171635680D01*
X87949233Y-171064252D02*
X87996852Y-171016633D01*
X88092090Y-170969014D01*
X88234947Y-170969014D01*
X88330185Y-171016633D01*
X88377804Y-171111871D01*
X88377804Y-171635680D01*
X88853995Y-170969014D02*
X88853995Y-171969014D01*
X88853995Y-171016633D02*
X88949233Y-170969014D01*
X89139709Y-170969014D01*
X89234947Y-171016633D01*
X89282566Y-171064252D01*
X89330185Y-171159490D01*
X89330185Y-171445204D01*
X89282566Y-171540442D01*
X89234947Y-171588061D01*
X89139709Y-171635680D01*
X88949233Y-171635680D01*
X88853995Y-171588061D01*
X90187328Y-170969014D02*
X90187328Y-171635680D01*
X89758757Y-170969014D02*
X89758757Y-171492823D01*
X89806376Y-171588061D01*
X89901614Y-171635680D01*
X90044471Y-171635680D01*
X90139709Y-171588061D01*
X90187328Y-171540442D01*
X90520661Y-170969014D02*
X90901614Y-170969014D01*
X90663519Y-170635680D02*
X90663519Y-171492823D01*
X90711138Y-171588061D01*
X90806376Y-171635680D01*
X90901614Y-171635680D01*
X56510490Y-171003980D02*
X56700966Y-171003980D01*
X56796204Y-171051600D01*
X56891442Y-171146838D01*
X56939061Y-171337314D01*
X56939061Y-171670647D01*
X56891442Y-171861123D01*
X56796204Y-171956361D01*
X56700966Y-172003980D01*
X56510490Y-172003980D01*
X56415252Y-171956361D01*
X56320014Y-171861123D01*
X56272395Y-171670647D01*
X56272395Y-171337314D01*
X56320014Y-171146838D01*
X56415252Y-171051600D01*
X56510490Y-171003980D01*
X57796204Y-171337314D02*
X57796204Y-172003980D01*
X57367633Y-171337314D02*
X57367633Y-171861123D01*
X57415252Y-171956361D01*
X57510490Y-172003980D01*
X57653347Y-172003980D01*
X57748585Y-171956361D01*
X57796204Y-171908742D01*
X58129538Y-171337314D02*
X58510490Y-171337314D01*
X58272395Y-171003980D02*
X58272395Y-171861123D01*
X58320014Y-171956361D01*
X58415252Y-172003980D01*
X58510490Y-172003980D01*
X58843823Y-171337314D02*
X58843823Y-172337314D01*
X58843823Y-171384933D02*
X58939061Y-171337314D01*
X59129538Y-171337314D01*
X59224776Y-171384933D01*
X59272395Y-171432552D01*
X59320014Y-171527790D01*
X59320014Y-171813504D01*
X59272395Y-171908742D01*
X59224776Y-171956361D01*
X59129538Y-172003980D01*
X58939061Y-172003980D01*
X58843823Y-171956361D01*
X60177157Y-171337314D02*
X60177157Y-172003980D01*
X59748585Y-171337314D02*
X59748585Y-171861123D01*
X59796204Y-171956361D01*
X59891442Y-172003980D01*
X60034300Y-172003980D01*
X60129538Y-171956361D01*
X60177157Y-171908742D01*
X60510490Y-171337314D02*
X60891442Y-171337314D01*
X60653347Y-171003980D02*
X60653347Y-171861123D01*
X60700966Y-171956361D01*
X60796204Y-172003980D01*
X60891442Y-172003980D01*
D11*
X124357500Y-163563100D02*
X124292500Y-163563100D01*
X126532500Y-163563100D02*
X126467500Y-163563100D01*
X124357500Y-160323100D02*
X124292500Y-160323100D01*
X126532500Y-160323100D02*
X126467500Y-160323100D01*
X124292500Y-160323100D02*
X124292500Y-163563100D01*
X126532500Y-160323100D02*
X126532500Y-163563100D01*
X127146700Y-141037000D02*
X127146700Y-151317000D01*
X147706700Y-141037000D02*
X127146700Y-141037000D01*
X147706700Y-151317000D02*
X147706700Y-141037000D01*
X127146700Y-151317000D02*
X147706700Y-151317000D01*
X127206700Y-143527000D02*
X127206700Y-145177000D01*
X147646700Y-143527000D02*
X127206700Y-143527000D01*
X147646700Y-148827000D02*
X147646700Y-143527000D01*
X127206700Y-148827000D02*
X147646700Y-148827000D01*
X127206700Y-147177000D02*
X127206700Y-148827000D01*
X127206700Y-145177000D02*
G75*
G02X127206700Y-147177000I0J-1000000D01*
G01*
X127070500Y-153864000D02*
X127070500Y-164144000D01*
X145090500Y-153864000D02*
X127070500Y-153864000D01*
X145090500Y-164144000D02*
X145090500Y-153864000D01*
X127070500Y-164144000D02*
X145090500Y-164144000D01*
X127130500Y-156354000D02*
X127130500Y-158004000D01*
X145030500Y-156354000D02*
X127130500Y-156354000D01*
X145030500Y-161654000D02*
X145030500Y-156354000D01*
X127130500Y-161654000D02*
X145030500Y-161654000D01*
X127130500Y-160004000D02*
X127130500Y-161654000D01*
X127130500Y-158004000D02*
G75*
G02X127130500Y-160004000I0J-1000000D01*
G01*
X102737300Y-141189400D02*
X102737300Y-151469400D01*
X123297300Y-141189400D02*
X102737300Y-141189400D01*
X123297300Y-151469400D02*
X123297300Y-141189400D01*
X102737300Y-151469400D02*
X123297300Y-151469400D01*
X102797300Y-143679400D02*
X102797300Y-145329400D01*
X123237300Y-143679400D02*
X102797300Y-143679400D01*
X123237300Y-148979400D02*
X123237300Y-143679400D01*
X102797300Y-148979400D02*
X123237300Y-148979400D01*
X102797300Y-147329400D02*
X102797300Y-148979400D01*
X102797300Y-145329400D02*
G75*
G02X102797300Y-147329400I0J-1000000D01*
G01*
X102737300Y-153864000D02*
X102737300Y-164144000D01*
X120757300Y-153864000D02*
X102737300Y-153864000D01*
X120757300Y-164144000D02*
X120757300Y-153864000D01*
X102737300Y-164144000D02*
X120757300Y-164144000D01*
X102797300Y-156354000D02*
X102797300Y-158004000D01*
X120697300Y-156354000D02*
X102797300Y-156354000D01*
X120697300Y-161654000D02*
X120697300Y-156354000D01*
X102797300Y-161654000D02*
X120697300Y-161654000D01*
X102797300Y-160004000D02*
X102797300Y-161654000D01*
X102797300Y-158004000D02*
G75*
G02X102797300Y-160004000I0J-1000000D01*
G01*
X78226300Y-141189400D02*
X78226300Y-151469400D01*
X98786300Y-141189400D02*
X78226300Y-141189400D01*
X98786300Y-151469400D02*
X98786300Y-141189400D01*
X78226300Y-151469400D02*
X98786300Y-151469400D01*
X78286300Y-143679400D02*
X78286300Y-145329400D01*
X98726300Y-143679400D02*
X78286300Y-143679400D01*
X98726300Y-148979400D02*
X98726300Y-143679400D01*
X78286300Y-148979400D02*
X98726300Y-148979400D01*
X78286300Y-147329400D02*
X78286300Y-148979400D01*
X78286300Y-145329400D02*
G75*
G02X78286300Y-147329400I0J-1000000D01*
G01*
X78061200Y-153864000D02*
X78061200Y-164144000D01*
X96081200Y-153864000D02*
X78061200Y-153864000D01*
X96081200Y-164144000D02*
X96081200Y-153864000D01*
X78061200Y-164144000D02*
X96081200Y-164144000D01*
X78121200Y-156354000D02*
X78121200Y-158004000D01*
X96021200Y-156354000D02*
X78121200Y-156354000D01*
X96021200Y-161654000D02*
X96021200Y-156354000D01*
X78121200Y-161654000D02*
X96021200Y-161654000D01*
X78121200Y-160004000D02*
X78121200Y-161654000D01*
X78121200Y-158004000D02*
G75*
G02X78121200Y-160004000I0J-1000000D01*
G01*
X53677200Y-141214800D02*
X53677200Y-151494800D01*
X74237200Y-141214800D02*
X53677200Y-141214800D01*
X74237200Y-151494800D02*
X74237200Y-141214800D01*
X53677200Y-151494800D02*
X74237200Y-151494800D01*
X53737200Y-143704800D02*
X53737200Y-145354800D01*
X74177200Y-143704800D02*
X53737200Y-143704800D01*
X74177200Y-149004800D02*
X74177200Y-143704800D01*
X53737200Y-149004800D02*
X74177200Y-149004800D01*
X53737200Y-147354800D02*
X53737200Y-149004800D01*
X53737200Y-145354800D02*
G75*
G02X53737200Y-147354800I0J-1000000D01*
G01*
X53702600Y-153914800D02*
X53702600Y-164194800D01*
X71722600Y-153914800D02*
X53702600Y-153914800D01*
X71722600Y-164194800D02*
X71722600Y-153914800D01*
X53702600Y-164194800D02*
X71722600Y-164194800D01*
X53762600Y-156404800D02*
X53762600Y-158054800D01*
X71662600Y-156404800D02*
X53762600Y-156404800D01*
X71662600Y-161704800D02*
X71662600Y-156404800D01*
X53762600Y-161704800D02*
X71662600Y-161704800D01*
X53762600Y-160054800D02*
X53762600Y-161704800D01*
X53762600Y-158054800D02*
G75*
G02X53762600Y-160054800I0J-1000000D01*
G01*
X53689900Y-166373500D02*
X53689900Y-176653500D01*
X79329900Y-166373500D02*
X53689900Y-166373500D01*
X79329900Y-176653500D02*
X79329900Y-166373500D01*
X53689900Y-176653500D02*
X79329900Y-176653500D01*
X53749900Y-168863500D02*
X53749900Y-170513500D01*
X79269900Y-168863500D02*
X53749900Y-168863500D01*
X79269900Y-174163500D02*
X79269900Y-168863500D01*
X53749900Y-174163500D02*
X79269900Y-174163500D01*
X53749900Y-172513500D02*
X53749900Y-174163500D01*
X53749900Y-170513500D02*
G75*
G02X53749900Y-172513500I0J-1000000D01*
G01*
X83750800Y-166233800D02*
X83750800Y-176513800D01*
X109390800Y-166233800D02*
X83750800Y-166233800D01*
X109390800Y-176513800D02*
X109390800Y-166233800D01*
X83750800Y-176513800D02*
X109390800Y-176513800D01*
X83810800Y-168723800D02*
X83810800Y-170373800D01*
X109330800Y-168723800D02*
X83810800Y-168723800D01*
X109330800Y-174023800D02*
X109330800Y-168723800D01*
X83810800Y-174023800D02*
X109330800Y-174023800D01*
X83810800Y-172373800D02*
X83810800Y-174023800D01*
X83810800Y-170373800D02*
G75*
G02X83810800Y-172373800I0J-1000000D01*
G01*
X105498900Y-137487200D02*
X105498900Y-140287200D01*
X115828900Y-137487200D02*
X102788900Y-137487200D01*
X115828900Y-140287200D02*
X115828900Y-137487200D01*
X102788900Y-140287200D02*
X115828900Y-140287200D01*
X102788900Y-137487200D02*
X102788900Y-140287200D01*
X64236600Y-140401500D02*
X64236600Y-137601500D01*
X53906600Y-140401500D02*
X66946600Y-140401500D01*
X53906600Y-137601500D02*
X53906600Y-140401500D01*
X66946600Y-137601500D02*
X53906600Y-137601500D01*
X66946600Y-140401500D02*
X66946600Y-137601500D01*
X144932400Y-140185600D02*
X144932400Y-137385600D01*
X134602400Y-140185600D02*
X147642400Y-140185600D01*
X134602400Y-137385600D02*
X134602400Y-140185600D01*
X147642400Y-137385600D02*
X134602400Y-137385600D01*
X147642400Y-140185600D02*
X147642400Y-137385600D01*
X128917700Y-140185600D02*
X128917700Y-137385600D01*
X118587700Y-140185600D02*
X131627700Y-140185600D01*
X118587700Y-137385600D02*
X118587700Y-140185600D01*
X131627700Y-137385600D02*
X118587700Y-137385600D01*
X131627700Y-140185600D02*
X131627700Y-137385600D01*
X96037400Y-140401500D02*
X96037400Y-137601500D01*
X85707400Y-140401500D02*
X98747400Y-140401500D01*
X85707400Y-137601500D02*
X85707400Y-140401500D01*
X98747400Y-137601500D02*
X85707400Y-137601500D01*
X98747400Y-140401500D02*
X98747400Y-137601500D01*
X80137000Y-140401500D02*
X80137000Y-137601500D01*
X69807000Y-140401500D02*
X82847000Y-140401500D01*
X69807000Y-137601500D02*
X69807000Y-140401500D01*
X82847000Y-137601500D02*
X69807000Y-137601500D01*
X82847000Y-140401500D02*
X82847000Y-137601500D01*
X129044700Y-170623100D02*
X129044700Y-171393100D01*
X129044700Y-178703100D02*
X129044700Y-177933100D01*
X127674700Y-171393100D02*
X127674700Y-177933100D01*
X130414700Y-171393100D02*
X127674700Y-171393100D01*
X130414700Y-177933100D02*
X130414700Y-171393100D01*
X127674700Y-177933100D02*
X130414700Y-177933100D01*
X132499100Y-170623100D02*
X132499100Y-171393100D01*
X132499100Y-178703100D02*
X132499100Y-177933100D01*
X131129100Y-171393100D02*
X131129100Y-177933100D01*
X133869100Y-171393100D02*
X131129100Y-171393100D01*
X133869100Y-177933100D02*
X133869100Y-171393100D01*
X131129100Y-177933100D02*
X133869100Y-177933100D01*
X137874700Y-179752300D02*
X137874700Y-178422300D01*
X139204700Y-179752300D02*
X137874700Y-179752300D01*
X140474700Y-179752300D02*
X140474700Y-177092300D01*
X140474700Y-177092300D02*
X145614700Y-177092300D01*
X140474700Y-179752300D02*
X145614700Y-179752300D01*
X145614700Y-179752300D02*
X145614700Y-177092300D01*
X137823900Y-174875500D02*
X137823900Y-173545500D01*
X139153900Y-174875500D02*
X137823900Y-174875500D01*
X140423900Y-174875500D02*
X140423900Y-172215500D01*
X140423900Y-172215500D02*
X145563900Y-172215500D01*
X140423900Y-174875500D02*
X145563900Y-174875500D01*
X145563900Y-174875500D02*
X145563900Y-172215500D01*
X51082900Y-184768800D02*
X51082900Y-183438800D01*
X52412900Y-184768800D02*
X51082900Y-184768800D01*
X53682900Y-184768800D02*
X53682900Y-182108800D01*
X53682900Y-182108800D02*
X147722900Y-182108800D01*
X53682900Y-184768800D02*
X147722900Y-184768800D01*
X147722900Y-184768800D02*
X147722900Y-182108800D01*
X123551500Y-169873600D02*
X121431500Y-169873600D01*
X123551500Y-174873600D02*
X121431500Y-174873600D01*
X123551500Y-169753600D02*
X121431500Y-169753600D01*
X121431500Y-174313600D02*
X121431500Y-174873600D01*
X121431500Y-172123600D02*
X121431500Y-172854600D01*
X121431500Y-169753600D02*
X121431500Y-169963600D01*
X123551500Y-174313600D02*
X123551500Y-174873600D01*
X123551500Y-172123600D02*
X123551500Y-172854600D01*
X123551500Y-169753600D02*
X123551500Y-169963600D01*
X126548700Y-169873600D02*
X124428700Y-169873600D01*
X126548700Y-174873600D02*
X124428700Y-174873600D01*
X126548700Y-169753600D02*
X124428700Y-169753600D01*
X124428700Y-174313600D02*
X124428700Y-174873600D01*
X124428700Y-172123600D02*
X124428700Y-172854600D01*
X124428700Y-169753600D02*
X124428700Y-169963600D01*
X126548700Y-174313600D02*
X126548700Y-174873600D01*
X126548700Y-172123600D02*
X126548700Y-172854600D01*
X126548700Y-169753600D02*
X126548700Y-169963600D01*
X135091500Y-133533700D02*
X135091500Y-131413700D01*
X130091500Y-133533700D02*
X130091500Y-131413700D01*
X135211500Y-133533700D02*
X135211500Y-131413700D01*
X130651500Y-131413700D02*
X130091500Y-131413700D01*
X132841500Y-131413700D02*
X132110500Y-131413700D01*
X135211500Y-131413700D02*
X135001500Y-131413700D01*
X130651500Y-133533700D02*
X130091500Y-133533700D01*
X132841500Y-133533700D02*
X132110500Y-133533700D01*
X135211500Y-133533700D02*
X135001500Y-133533700D01*
X110656700Y-133660700D02*
X110656700Y-131540700D01*
X105656700Y-133660700D02*
X105656700Y-131540700D01*
X110776700Y-133660700D02*
X110776700Y-131540700D01*
X106216700Y-131540700D02*
X105656700Y-131540700D01*
X108406700Y-131540700D02*
X107675700Y-131540700D01*
X110776700Y-131540700D02*
X110566700Y-131540700D01*
X106216700Y-133660700D02*
X105656700Y-133660700D01*
X108406700Y-133660700D02*
X107675700Y-133660700D01*
X110776700Y-133660700D02*
X110566700Y-133660700D01*
X86564800Y-133635300D02*
X86564800Y-131515300D01*
X81564800Y-133635300D02*
X81564800Y-131515300D01*
X86684800Y-133635300D02*
X86684800Y-131515300D01*
X82124800Y-131515300D02*
X81564800Y-131515300D01*
X84314800Y-131515300D02*
X83583800Y-131515300D01*
X86684800Y-131515300D02*
X86474800Y-131515300D01*
X82124800Y-133635300D02*
X81564800Y-133635300D01*
X84314800Y-133635300D02*
X83583800Y-133635300D01*
X86684800Y-133635300D02*
X86474800Y-133635300D01*
X61799800Y-133635300D02*
X61799800Y-131515300D01*
X56799800Y-133635300D02*
X56799800Y-131515300D01*
X61919800Y-133635300D02*
X61919800Y-131515300D01*
X57359800Y-131515300D02*
X56799800Y-131515300D01*
X59549800Y-131515300D02*
X58818800Y-131515300D01*
X61919800Y-131515300D02*
X61709800Y-131515300D01*
X57359800Y-133635300D02*
X56799800Y-133635300D01*
X59549800Y-133635300D02*
X58818800Y-133635300D01*
X61919800Y-133635300D02*
X61709800Y-133635300D01*
X135091500Y-136480100D02*
X135091500Y-134360100D01*
X130091500Y-136480100D02*
X130091500Y-134360100D01*
X135211500Y-136480100D02*
X135211500Y-134360100D01*
X130651500Y-134360100D02*
X130091500Y-134360100D01*
X132841500Y-134360100D02*
X132110500Y-134360100D01*
X135211500Y-134360100D02*
X135001500Y-134360100D01*
X130651500Y-136480100D02*
X130091500Y-136480100D01*
X132841500Y-136480100D02*
X132110500Y-136480100D01*
X135211500Y-136480100D02*
X135001500Y-136480100D01*
X110707500Y-136556300D02*
X110707500Y-134436300D01*
X105707500Y-136556300D02*
X105707500Y-134436300D01*
X110827500Y-136556300D02*
X110827500Y-134436300D01*
X106267500Y-134436300D02*
X105707500Y-134436300D01*
X108457500Y-134436300D02*
X107726500Y-134436300D01*
X110827500Y-134436300D02*
X110617500Y-134436300D01*
X106267500Y-136556300D02*
X105707500Y-136556300D01*
X108457500Y-136556300D02*
X107726500Y-136556300D01*
X110827500Y-136556300D02*
X110617500Y-136556300D01*
X86564800Y-136530900D02*
X86564800Y-134410900D01*
X81564800Y-136530900D02*
X81564800Y-134410900D01*
X86684800Y-136530900D02*
X86684800Y-134410900D01*
X82124800Y-134410900D02*
X81564800Y-134410900D01*
X84314800Y-134410900D02*
X83583800Y-134410900D01*
X86684800Y-134410900D02*
X86474800Y-134410900D01*
X82124800Y-136530900D02*
X81564800Y-136530900D01*
X84314800Y-136530900D02*
X83583800Y-136530900D01*
X86684800Y-136530900D02*
X86474800Y-136530900D01*
X61799800Y-136632500D02*
X61799800Y-134512500D01*
X56799800Y-136632500D02*
X56799800Y-134512500D01*
X61919800Y-136632500D02*
X61919800Y-134512500D01*
X57359800Y-134512500D02*
X56799800Y-134512500D01*
X59549800Y-134512500D02*
X58818800Y-134512500D01*
X61919800Y-134512500D02*
X61709800Y-134512500D01*
X57359800Y-136632500D02*
X56799800Y-136632500D01*
X59549800Y-136632500D02*
X58818800Y-136632500D01*
X61919800Y-136632500D02*
X61709800Y-136632500D01*
X136709600Y-136399600D02*
X138829600Y-136399600D01*
X136709600Y-131399600D02*
X138829600Y-131399600D01*
X136709600Y-136519600D02*
X138829600Y-136519600D01*
X138829600Y-131959600D02*
X138829600Y-131399600D01*
X138829600Y-134149600D02*
X138829600Y-133418600D01*
X138829600Y-136519600D02*
X138829600Y-136309600D01*
X136709600Y-131959600D02*
X136709600Y-131399600D01*
X136709600Y-134149600D02*
X136709600Y-133418600D01*
X136709600Y-136519600D02*
X136709600Y-136309600D01*
X139643300Y-136399600D02*
X141763300Y-136399600D01*
X139643300Y-131399600D02*
X141763300Y-131399600D01*
X139643300Y-136519600D02*
X141763300Y-136519600D01*
X141763300Y-131959600D02*
X141763300Y-131399600D01*
X141763300Y-134149600D02*
X141763300Y-133418600D01*
X141763300Y-136519600D02*
X141763300Y-136309600D01*
X139643300Y-131959600D02*
X139643300Y-131399600D01*
X139643300Y-134149600D02*
X139643300Y-133418600D01*
X139643300Y-136519600D02*
X139643300Y-136309600D01*
X142538900Y-136399600D02*
X144658900Y-136399600D01*
X142538900Y-131399600D02*
X144658900Y-131399600D01*
X142538900Y-136519600D02*
X144658900Y-136519600D01*
X144658900Y-131959600D02*
X144658900Y-131399600D01*
X144658900Y-134149600D02*
X144658900Y-133418600D01*
X144658900Y-136519600D02*
X144658900Y-136309600D01*
X142538900Y-131959600D02*
X142538900Y-131399600D01*
X142538900Y-134149600D02*
X142538900Y-133418600D01*
X142538900Y-136519600D02*
X142538900Y-136309600D01*
X145485300Y-136399600D02*
X147605300Y-136399600D01*
X145485300Y-131399600D02*
X147605300Y-131399600D01*
X145485300Y-136519600D02*
X147605300Y-136519600D01*
X147605300Y-131959600D02*
X147605300Y-131399600D01*
X147605300Y-134149600D02*
X147605300Y-133418600D01*
X147605300Y-136519600D02*
X147605300Y-136309600D01*
X145485300Y-131959600D02*
X145485300Y-131399600D01*
X145485300Y-134149600D02*
X145485300Y-133418600D01*
X145485300Y-136519600D02*
X145485300Y-136309600D01*
X112160500Y-136513900D02*
X114280500Y-136513900D01*
X112160500Y-131513900D02*
X114280500Y-131513900D01*
X112160500Y-136633900D02*
X114280500Y-136633900D01*
X114280500Y-132073900D02*
X114280500Y-131513900D01*
X114280500Y-134263900D02*
X114280500Y-133532900D01*
X114280500Y-136633900D02*
X114280500Y-136423900D01*
X112160500Y-132073900D02*
X112160500Y-131513900D01*
X112160500Y-134263900D02*
X112160500Y-133532900D01*
X112160500Y-136633900D02*
X112160500Y-136423900D01*
X115157700Y-136513900D02*
X117277700Y-136513900D01*
X115157700Y-131513900D02*
X117277700Y-131513900D01*
X115157700Y-136633900D02*
X117277700Y-136633900D01*
X117277700Y-132073900D02*
X117277700Y-131513900D01*
X117277700Y-134263900D02*
X117277700Y-133532900D01*
X117277700Y-136633900D02*
X117277700Y-136423900D01*
X115157700Y-132073900D02*
X115157700Y-131513900D01*
X115157700Y-134263900D02*
X115157700Y-133532900D01*
X115157700Y-136633900D02*
X115157700Y-136423900D01*
X118142200Y-136513900D02*
X120262200Y-136513900D01*
X118142200Y-131513900D02*
X120262200Y-131513900D01*
X118142200Y-136633900D02*
X120262200Y-136633900D01*
X120262200Y-132073900D02*
X120262200Y-131513900D01*
X120262200Y-134263900D02*
X120262200Y-133532900D01*
X120262200Y-136633900D02*
X120262200Y-136423900D01*
X118142200Y-132073900D02*
X118142200Y-131513900D01*
X118142200Y-134263900D02*
X118142200Y-133532900D01*
X118142200Y-136633900D02*
X118142200Y-136423900D01*
X121037800Y-136513900D02*
X123157800Y-136513900D01*
X121037800Y-131513900D02*
X123157800Y-131513900D01*
X121037800Y-136633900D02*
X123157800Y-136633900D01*
X123157800Y-132073900D02*
X123157800Y-131513900D01*
X123157800Y-134263900D02*
X123157800Y-133532900D01*
X123157800Y-136633900D02*
X123157800Y-136423900D01*
X121037800Y-132073900D02*
X121037800Y-131513900D01*
X121037800Y-134263900D02*
X121037800Y-133532900D01*
X121037800Y-136633900D02*
X121037800Y-136423900D01*
X87814600Y-136475800D02*
X89934600Y-136475800D01*
X87814600Y-131475800D02*
X89934600Y-131475800D01*
X87814600Y-136595800D02*
X89934600Y-136595800D01*
X89934600Y-132035800D02*
X89934600Y-131475800D01*
X89934600Y-134225800D02*
X89934600Y-133494800D01*
X89934600Y-136595800D02*
X89934600Y-136385800D01*
X87814600Y-132035800D02*
X87814600Y-131475800D01*
X87814600Y-134225800D02*
X87814600Y-133494800D01*
X87814600Y-136595800D02*
X87814600Y-136385800D01*
X90659400Y-136475800D02*
X92779400Y-136475800D01*
X90659400Y-131475800D02*
X92779400Y-131475800D01*
X90659400Y-136595800D02*
X92779400Y-136595800D01*
X92779400Y-132035800D02*
X92779400Y-131475800D01*
X92779400Y-134225800D02*
X92779400Y-133494800D01*
X92779400Y-136595800D02*
X92779400Y-136385800D01*
X90659400Y-132035800D02*
X90659400Y-131475800D01*
X90659400Y-134225800D02*
X90659400Y-133494800D01*
X90659400Y-136595800D02*
X90659400Y-136385800D01*
X93542300Y-136475800D02*
X95662300Y-136475800D01*
X93542300Y-131475800D02*
X95662300Y-131475800D01*
X93542300Y-136595800D02*
X95662300Y-136595800D01*
X95662300Y-132035800D02*
X95662300Y-131475800D01*
X95662300Y-134225800D02*
X95662300Y-133494800D01*
X95662300Y-136595800D02*
X95662300Y-136385800D01*
X93542300Y-132035800D02*
X93542300Y-131475800D01*
X93542300Y-134225800D02*
X93542300Y-133494800D01*
X93542300Y-136595800D02*
X93542300Y-136385800D01*
X96437900Y-136475800D02*
X98557900Y-136475800D01*
X96437900Y-131475800D02*
X98557900Y-131475800D01*
X96437900Y-136595800D02*
X98557900Y-136595800D01*
X98557900Y-132035800D02*
X98557900Y-131475800D01*
X98557900Y-134225800D02*
X98557900Y-133494800D01*
X98557900Y-136595800D02*
X98557900Y-136385800D01*
X96437900Y-132035800D02*
X96437900Y-131475800D01*
X96437900Y-134225800D02*
X96437900Y-133494800D01*
X96437900Y-136595800D02*
X96437900Y-136385800D01*
X63481400Y-136488500D02*
X65601400Y-136488500D01*
X63481400Y-131488500D02*
X65601400Y-131488500D01*
X63481400Y-136608500D02*
X65601400Y-136608500D01*
X65601400Y-132048500D02*
X65601400Y-131488500D01*
X65601400Y-134238500D02*
X65601400Y-133507500D01*
X65601400Y-136608500D02*
X65601400Y-136398500D01*
X63481400Y-132048500D02*
X63481400Y-131488500D01*
X63481400Y-134238500D02*
X63481400Y-133507500D01*
X63481400Y-136608500D02*
X63481400Y-136398500D01*
X66326200Y-136488500D02*
X68446200Y-136488500D01*
X66326200Y-131488500D02*
X68446200Y-131488500D01*
X66326200Y-136608500D02*
X68446200Y-136608500D01*
X68446200Y-132048500D02*
X68446200Y-131488500D01*
X68446200Y-134238500D02*
X68446200Y-133507500D01*
X68446200Y-136608500D02*
X68446200Y-136398500D01*
X66326200Y-132048500D02*
X66326200Y-131488500D01*
X66326200Y-134238500D02*
X66326200Y-133507500D01*
X66326200Y-136608500D02*
X66326200Y-136398500D01*
X69171000Y-136488500D02*
X71291000Y-136488500D01*
X69171000Y-131488500D02*
X71291000Y-131488500D01*
X69171000Y-136608500D02*
X71291000Y-136608500D01*
X71291000Y-132048500D02*
X71291000Y-131488500D01*
X71291000Y-134238500D02*
X71291000Y-133507500D01*
X71291000Y-136608500D02*
X71291000Y-136398500D01*
X69171000Y-132048500D02*
X69171000Y-131488500D01*
X69171000Y-134238500D02*
X69171000Y-133507500D01*
X69171000Y-136608500D02*
X69171000Y-136398500D01*
X72015800Y-136488500D02*
X74135800Y-136488500D01*
X72015800Y-131488500D02*
X74135800Y-131488500D01*
X72015800Y-136608500D02*
X74135800Y-136608500D01*
X74135800Y-132048500D02*
X74135800Y-131488500D01*
X74135800Y-134238500D02*
X74135800Y-133507500D01*
X74135800Y-136608500D02*
X74135800Y-136398500D01*
X72015800Y-132048500D02*
X72015800Y-131488500D01*
X72015800Y-134238500D02*
X72015800Y-133507500D01*
X72015800Y-136608500D02*
X72015800Y-136398500D01*
X124357500Y-150863100D02*
X124292500Y-150863100D01*
X126532500Y-150863100D02*
X126467500Y-150863100D01*
X124357500Y-147623100D02*
X124292500Y-147623100D01*
X126532500Y-147623100D02*
X126467500Y-147623100D01*
X124292500Y-147623100D02*
X124292500Y-150863100D01*
X126532500Y-147623100D02*
X126532500Y-150863100D01*
X99859200Y-163652000D02*
X99794200Y-163652000D01*
X102034200Y-163652000D02*
X101969200Y-163652000D01*
X99859200Y-160412000D02*
X99794200Y-160412000D01*
X102034200Y-160412000D02*
X101969200Y-160412000D01*
X99794200Y-160412000D02*
X99794200Y-163652000D01*
X102034200Y-160412000D02*
X102034200Y-163652000D01*
X99948100Y-150952000D02*
X99883100Y-150952000D01*
X102123100Y-150952000D02*
X102058100Y-150952000D01*
X99948100Y-147712000D02*
X99883100Y-147712000D01*
X102123100Y-147712000D02*
X102058100Y-147712000D01*
X99883100Y-147712000D02*
X99883100Y-150952000D01*
X102123100Y-147712000D02*
X102123100Y-150952000D01*
X80974300Y-176009100D02*
X80909300Y-176009100D01*
X83149300Y-176009100D02*
X83084300Y-176009100D01*
X80974300Y-172769100D02*
X80909300Y-172769100D01*
X83149300Y-172769100D02*
X83084300Y-172769100D01*
X80909300Y-172769100D02*
X80909300Y-176009100D01*
X83149300Y-172769100D02*
X83149300Y-176009100D01*
X75246600Y-163563100D02*
X75181600Y-163563100D01*
X77421600Y-163563100D02*
X77356600Y-163563100D01*
X75246600Y-160323100D02*
X75181600Y-160323100D01*
X77421600Y-160323100D02*
X77356600Y-160323100D01*
X75181600Y-160323100D02*
X75181600Y-163563100D01*
X77421600Y-160323100D02*
X77421600Y-163563100D01*
X75335500Y-151040900D02*
X75270500Y-151040900D01*
X77510500Y-151040900D02*
X77445500Y-151040900D01*
X75335500Y-147800900D02*
X75270500Y-147800900D01*
X77510500Y-147800900D02*
X77445500Y-147800900D01*
X75270500Y-147800900D02*
X75270500Y-151040900D01*
X77510500Y-147800900D02*
X77510500Y-151040900D01*
X50900700Y-176199600D02*
X50835700Y-176199600D01*
X53075700Y-176199600D02*
X53010700Y-176199600D01*
X50900700Y-172959600D02*
X50835700Y-172959600D01*
X53075700Y-172959600D02*
X53010700Y-172959600D01*
X50835700Y-172959600D02*
X50835700Y-176199600D01*
X53075700Y-172959600D02*
X53075700Y-176199600D01*
X50913400Y-163740900D02*
X50848400Y-163740900D01*
X53088400Y-163740900D02*
X53023400Y-163740900D01*
X50913400Y-160500900D02*
X50848400Y-160500900D01*
X53088400Y-160500900D02*
X53023400Y-160500900D01*
X50848400Y-160500900D02*
X50848400Y-163740900D01*
X53088400Y-160500900D02*
X53088400Y-163740900D01*
X50976900Y-151040900D02*
X50911900Y-151040900D01*
X53151900Y-151040900D02*
X53086900Y-151040900D01*
X50976900Y-147800900D02*
X50911900Y-147800900D01*
X53151900Y-147800900D02*
X53086900Y-147800900D01*
X50911900Y-147800900D02*
X50911900Y-151040900D01*
X53151900Y-147800900D02*
X53151900Y-151040900D01*
D10*
X124775980Y-158673585D02*
X124775980Y-158578347D01*
X124823600Y-158483109D01*
X124871219Y-158435490D01*
X124966457Y-158387871D01*
X125156933Y-158340252D01*
X125395028Y-158340252D01*
X125585504Y-158387871D01*
X125680742Y-158435490D01*
X125728361Y-158483109D01*
X125775980Y-158578347D01*
X125775980Y-158673585D01*
X125728361Y-158768823D01*
X125680742Y-158816442D01*
X125585504Y-158864061D01*
X125395028Y-158911680D01*
X125156933Y-158911680D01*
X124966457Y-158864061D01*
X124871219Y-158816442D01*
X124823600Y-158768823D01*
X124775980Y-158673585D01*
X125680742Y-157911680D02*
X125728361Y-157864061D01*
X125775980Y-157911680D01*
X125728361Y-157959300D01*
X125680742Y-157911680D01*
X125775980Y-157911680D01*
X125775980Y-156911680D02*
X125775980Y-157483109D01*
X125775980Y-157197395D02*
X124775980Y-157197395D01*
X124918838Y-157292633D01*
X125014076Y-157387871D01*
X125061695Y-157483109D01*
X125109314Y-156483109D02*
X126109314Y-156483109D01*
X125633123Y-156006919D02*
X125728361Y-155959300D01*
X125775980Y-155864061D01*
X125633123Y-156483109D02*
X125728361Y-156435490D01*
X125775980Y-156340252D01*
X125775980Y-156149776D01*
X125728361Y-156054538D01*
X125633123Y-156006919D01*
X125109314Y-156006919D01*
X125252171Y-155102157D02*
X125252171Y-155435490D01*
X125775980Y-155435490D02*
X124775980Y-155435490D01*
X124775980Y-154959300D01*
X134320352Y-145603980D02*
X134987019Y-145603980D01*
X134558447Y-146603980D01*
X135796542Y-145937314D02*
X135796542Y-146603980D01*
X135558447Y-145556361D02*
X135320352Y-146270647D01*
X135939400Y-146270647D01*
X136796542Y-146603980D02*
X136320352Y-146603980D01*
X136320352Y-145603980D01*
X137082257Y-146556361D02*
X137225114Y-146603980D01*
X137463209Y-146603980D01*
X137558447Y-146556361D01*
X137606066Y-146508742D01*
X137653685Y-146413504D01*
X137653685Y-146318266D01*
X137606066Y-146223028D01*
X137558447Y-146175409D01*
X137463209Y-146127790D01*
X137272733Y-146080171D01*
X137177495Y-146032552D01*
X137129876Y-145984933D01*
X137082257Y-145889695D01*
X137082257Y-145794457D01*
X137129876Y-145699219D01*
X137177495Y-145651600D01*
X137272733Y-145603980D01*
X137510828Y-145603980D01*
X137653685Y-145651600D01*
X138606066Y-146603980D02*
X138034638Y-146603980D01*
X138320352Y-146603980D02*
X138320352Y-145603980D01*
X138225114Y-145746838D01*
X138129876Y-145842076D01*
X138034638Y-145889695D01*
X138939400Y-145603980D02*
X139606066Y-145603980D01*
X139177495Y-146603980D01*
X139891780Y-145603980D02*
X140510828Y-145603980D01*
X140177495Y-145984933D01*
X140320352Y-145984933D01*
X140415590Y-146032552D01*
X140463209Y-146080171D01*
X140510828Y-146175409D01*
X140510828Y-146413504D01*
X140463209Y-146508742D01*
X140415590Y-146556361D01*
X140320352Y-146603980D01*
X140034638Y-146603980D01*
X139939400Y-146556361D01*
X139891780Y-146508742D01*
X133075752Y-158583380D02*
X133742419Y-158583380D01*
X133313847Y-159583380D01*
X134551942Y-158916714D02*
X134551942Y-159583380D01*
X134313847Y-158535761D02*
X134075752Y-159250047D01*
X134694800Y-159250047D01*
X135551942Y-159583380D02*
X135075752Y-159583380D01*
X135075752Y-158583380D01*
X135837657Y-159535761D02*
X135980514Y-159583380D01*
X136218609Y-159583380D01*
X136313847Y-159535761D01*
X136361466Y-159488142D01*
X136409085Y-159392904D01*
X136409085Y-159297666D01*
X136361466Y-159202428D01*
X136313847Y-159154809D01*
X136218609Y-159107190D01*
X136028133Y-159059571D01*
X135932895Y-159011952D01*
X135885276Y-158964333D01*
X135837657Y-158869095D01*
X135837657Y-158773857D01*
X135885276Y-158678619D01*
X135932895Y-158631000D01*
X136028133Y-158583380D01*
X136266228Y-158583380D01*
X136409085Y-158631000D01*
X136790038Y-158678619D02*
X136837657Y-158631000D01*
X136932895Y-158583380D01*
X137170990Y-158583380D01*
X137266228Y-158631000D01*
X137313847Y-158678619D01*
X137361466Y-158773857D01*
X137361466Y-158869095D01*
X137313847Y-159011952D01*
X136742419Y-159583380D01*
X137361466Y-159583380D01*
X138218609Y-158916714D02*
X138218609Y-159583380D01*
X137980514Y-158535761D02*
X137742419Y-159250047D01*
X138361466Y-159250047D01*
X138647180Y-158583380D02*
X139266228Y-158583380D01*
X138932895Y-158964333D01*
X139075752Y-158964333D01*
X139170990Y-159011952D01*
X139218609Y-159059571D01*
X139266228Y-159154809D01*
X139266228Y-159392904D01*
X139218609Y-159488142D01*
X139170990Y-159535761D01*
X139075752Y-159583380D01*
X138790038Y-159583380D01*
X138694800Y-159535761D01*
X138647180Y-159488142D01*
X109885552Y-145769080D02*
X110552219Y-145769080D01*
X110123647Y-146769080D01*
X111361742Y-146102414D02*
X111361742Y-146769080D01*
X111123647Y-145721461D02*
X110885552Y-146435747D01*
X111504600Y-146435747D01*
X112361742Y-146769080D02*
X111885552Y-146769080D01*
X111885552Y-145769080D01*
X112647457Y-146721461D02*
X112790314Y-146769080D01*
X113028409Y-146769080D01*
X113123647Y-146721461D01*
X113171266Y-146673842D01*
X113218885Y-146578604D01*
X113218885Y-146483366D01*
X113171266Y-146388128D01*
X113123647Y-146340509D01*
X113028409Y-146292890D01*
X112837933Y-146245271D01*
X112742695Y-146197652D01*
X112695076Y-146150033D01*
X112647457Y-146054795D01*
X112647457Y-145959557D01*
X112695076Y-145864319D01*
X112742695Y-145816700D01*
X112837933Y-145769080D01*
X113076028Y-145769080D01*
X113218885Y-145816700D01*
X114171266Y-146769080D02*
X113599838Y-146769080D01*
X113885552Y-146769080D02*
X113885552Y-145769080D01*
X113790314Y-145911938D01*
X113695076Y-146007176D01*
X113599838Y-146054795D01*
X114504600Y-145769080D02*
X115171266Y-145769080D01*
X114742695Y-146769080D01*
X115456980Y-145769080D02*
X116076028Y-145769080D01*
X115742695Y-146150033D01*
X115885552Y-146150033D01*
X115980790Y-146197652D01*
X116028409Y-146245271D01*
X116076028Y-146340509D01*
X116076028Y-146578604D01*
X116028409Y-146673842D01*
X115980790Y-146721461D01*
X115885552Y-146769080D01*
X115599838Y-146769080D01*
X115504600Y-146721461D01*
X115456980Y-146673842D01*
X108602852Y-158570680D02*
X109269519Y-158570680D01*
X108840947Y-159570680D01*
X110079042Y-158904014D02*
X110079042Y-159570680D01*
X109840947Y-158523061D02*
X109602852Y-159237347D01*
X110221900Y-159237347D01*
X111079042Y-159570680D02*
X110602852Y-159570680D01*
X110602852Y-158570680D01*
X111364757Y-159523061D02*
X111507614Y-159570680D01*
X111745709Y-159570680D01*
X111840947Y-159523061D01*
X111888566Y-159475442D01*
X111936185Y-159380204D01*
X111936185Y-159284966D01*
X111888566Y-159189728D01*
X111840947Y-159142109D01*
X111745709Y-159094490D01*
X111555233Y-159046871D01*
X111459995Y-158999252D01*
X111412376Y-158951633D01*
X111364757Y-158856395D01*
X111364757Y-158761157D01*
X111412376Y-158665919D01*
X111459995Y-158618300D01*
X111555233Y-158570680D01*
X111793328Y-158570680D01*
X111936185Y-158618300D01*
X112317138Y-158665919D02*
X112364757Y-158618300D01*
X112459995Y-158570680D01*
X112698090Y-158570680D01*
X112793328Y-158618300D01*
X112840947Y-158665919D01*
X112888566Y-158761157D01*
X112888566Y-158856395D01*
X112840947Y-158999252D01*
X112269519Y-159570680D01*
X112888566Y-159570680D01*
X113745709Y-158904014D02*
X113745709Y-159570680D01*
X113507614Y-158523061D02*
X113269519Y-159237347D01*
X113888566Y-159237347D01*
X114174280Y-158570680D02*
X114793328Y-158570680D01*
X114459995Y-158951633D01*
X114602852Y-158951633D01*
X114698090Y-158999252D01*
X114745709Y-159046871D01*
X114793328Y-159142109D01*
X114793328Y-159380204D01*
X114745709Y-159475442D01*
X114698090Y-159523061D01*
X114602852Y-159570680D01*
X114317138Y-159570680D01*
X114221900Y-159523061D01*
X114174280Y-159475442D01*
X85514252Y-145680180D02*
X86180919Y-145680180D01*
X85752347Y-146680180D01*
X86990442Y-146013514D02*
X86990442Y-146680180D01*
X86752347Y-145632561D02*
X86514252Y-146346847D01*
X87133300Y-146346847D01*
X87990442Y-146680180D02*
X87514252Y-146680180D01*
X87514252Y-145680180D01*
X88276157Y-146632561D02*
X88419014Y-146680180D01*
X88657109Y-146680180D01*
X88752347Y-146632561D01*
X88799966Y-146584942D01*
X88847585Y-146489704D01*
X88847585Y-146394466D01*
X88799966Y-146299228D01*
X88752347Y-146251609D01*
X88657109Y-146203990D01*
X88466633Y-146156371D01*
X88371395Y-146108752D01*
X88323776Y-146061133D01*
X88276157Y-145965895D01*
X88276157Y-145870657D01*
X88323776Y-145775419D01*
X88371395Y-145727800D01*
X88466633Y-145680180D01*
X88704728Y-145680180D01*
X88847585Y-145727800D01*
X89799966Y-146680180D02*
X89228538Y-146680180D01*
X89514252Y-146680180D02*
X89514252Y-145680180D01*
X89419014Y-145823038D01*
X89323776Y-145918276D01*
X89228538Y-145965895D01*
X90133300Y-145680180D02*
X90799966Y-145680180D01*
X90371395Y-146680180D01*
X91085680Y-145680180D02*
X91704728Y-145680180D01*
X91371395Y-146061133D01*
X91514252Y-146061133D01*
X91609490Y-146108752D01*
X91657109Y-146156371D01*
X91704728Y-146251609D01*
X91704728Y-146489704D01*
X91657109Y-146584942D01*
X91609490Y-146632561D01*
X91514252Y-146680180D01*
X91228538Y-146680180D01*
X91133300Y-146632561D01*
X91085680Y-146584942D01*
X83825152Y-158608780D02*
X84491819Y-158608780D01*
X84063247Y-159608780D01*
X85301342Y-158942114D02*
X85301342Y-159608780D01*
X85063247Y-158561161D02*
X84825152Y-159275447D01*
X85444200Y-159275447D01*
X86301342Y-159608780D02*
X85825152Y-159608780D01*
X85825152Y-158608780D01*
X86587057Y-159561161D02*
X86729914Y-159608780D01*
X86968009Y-159608780D01*
X87063247Y-159561161D01*
X87110866Y-159513542D01*
X87158485Y-159418304D01*
X87158485Y-159323066D01*
X87110866Y-159227828D01*
X87063247Y-159180209D01*
X86968009Y-159132590D01*
X86777533Y-159084971D01*
X86682295Y-159037352D01*
X86634676Y-158989733D01*
X86587057Y-158894495D01*
X86587057Y-158799257D01*
X86634676Y-158704019D01*
X86682295Y-158656400D01*
X86777533Y-158608780D01*
X87015628Y-158608780D01*
X87158485Y-158656400D01*
X87539438Y-158704019D02*
X87587057Y-158656400D01*
X87682295Y-158608780D01*
X87920390Y-158608780D01*
X88015628Y-158656400D01*
X88063247Y-158704019D01*
X88110866Y-158799257D01*
X88110866Y-158894495D01*
X88063247Y-159037352D01*
X87491819Y-159608780D01*
X88110866Y-159608780D01*
X88968009Y-158942114D02*
X88968009Y-159608780D01*
X88729914Y-158561161D02*
X88491819Y-159275447D01*
X89110866Y-159275447D01*
X89396580Y-158608780D02*
X90015628Y-158608780D01*
X89682295Y-158989733D01*
X89825152Y-158989733D01*
X89920390Y-159037352D01*
X89968009Y-159084971D01*
X90015628Y-159180209D01*
X90015628Y-159418304D01*
X89968009Y-159513542D01*
X89920390Y-159561161D01*
X89825152Y-159608780D01*
X89539438Y-159608780D01*
X89444200Y-159561161D01*
X89396580Y-159513542D01*
X61015952Y-145743680D02*
X61682619Y-145743680D01*
X61254047Y-146743680D01*
X62492142Y-146077014D02*
X62492142Y-146743680D01*
X62254047Y-145696061D02*
X62015952Y-146410347D01*
X62635000Y-146410347D01*
X63492142Y-146743680D02*
X63015952Y-146743680D01*
X63015952Y-145743680D01*
X63777857Y-146696061D02*
X63920714Y-146743680D01*
X64158809Y-146743680D01*
X64254047Y-146696061D01*
X64301666Y-146648442D01*
X64349285Y-146553204D01*
X64349285Y-146457966D01*
X64301666Y-146362728D01*
X64254047Y-146315109D01*
X64158809Y-146267490D01*
X63968333Y-146219871D01*
X63873095Y-146172252D01*
X63825476Y-146124633D01*
X63777857Y-146029395D01*
X63777857Y-145934157D01*
X63825476Y-145838919D01*
X63873095Y-145791300D01*
X63968333Y-145743680D01*
X64206428Y-145743680D01*
X64349285Y-145791300D01*
X65301666Y-146743680D02*
X64730238Y-146743680D01*
X65015952Y-146743680D02*
X65015952Y-145743680D01*
X64920714Y-145886538D01*
X64825476Y-145981776D01*
X64730238Y-146029395D01*
X65635000Y-145743680D02*
X66301666Y-145743680D01*
X65873095Y-146743680D01*
X66587380Y-145743680D02*
X67206428Y-145743680D01*
X66873095Y-146124633D01*
X67015952Y-146124633D01*
X67111190Y-146172252D01*
X67158809Y-146219871D01*
X67206428Y-146315109D01*
X67206428Y-146553204D01*
X67158809Y-146648442D01*
X67111190Y-146696061D01*
X67015952Y-146743680D01*
X66730238Y-146743680D01*
X66635000Y-146696061D01*
X66587380Y-146648442D01*
X59707852Y-158443680D02*
X60374519Y-158443680D01*
X59945947Y-159443680D01*
X61184042Y-158777014D02*
X61184042Y-159443680D01*
X60945947Y-158396061D02*
X60707852Y-159110347D01*
X61326900Y-159110347D01*
X62184042Y-159443680D02*
X61707852Y-159443680D01*
X61707852Y-158443680D01*
X62469757Y-159396061D02*
X62612614Y-159443680D01*
X62850709Y-159443680D01*
X62945947Y-159396061D01*
X62993566Y-159348442D01*
X63041185Y-159253204D01*
X63041185Y-159157966D01*
X62993566Y-159062728D01*
X62945947Y-159015109D01*
X62850709Y-158967490D01*
X62660233Y-158919871D01*
X62564995Y-158872252D01*
X62517376Y-158824633D01*
X62469757Y-158729395D01*
X62469757Y-158634157D01*
X62517376Y-158538919D01*
X62564995Y-158491300D01*
X62660233Y-158443680D01*
X62898328Y-158443680D01*
X63041185Y-158491300D01*
X63422138Y-158538919D02*
X63469757Y-158491300D01*
X63564995Y-158443680D01*
X63803090Y-158443680D01*
X63898328Y-158491300D01*
X63945947Y-158538919D01*
X63993566Y-158634157D01*
X63993566Y-158729395D01*
X63945947Y-158872252D01*
X63374519Y-159443680D01*
X63993566Y-159443680D01*
X64850709Y-158777014D02*
X64850709Y-159443680D01*
X64612614Y-158396061D02*
X64374519Y-159110347D01*
X64993566Y-159110347D01*
X65279280Y-158443680D02*
X65898328Y-158443680D01*
X65564995Y-158824633D01*
X65707852Y-158824633D01*
X65803090Y-158872252D01*
X65850709Y-158919871D01*
X65898328Y-159015109D01*
X65898328Y-159253204D01*
X65850709Y-159348442D01*
X65803090Y-159396061D01*
X65707852Y-159443680D01*
X65422138Y-159443680D01*
X65326900Y-159396061D01*
X65279280Y-159348442D01*
X64106728Y-171115100D02*
X64011490Y-171067480D01*
X63868633Y-171067480D01*
X63725776Y-171115100D01*
X63630538Y-171210338D01*
X63582919Y-171305576D01*
X63535300Y-171496052D01*
X63535300Y-171638909D01*
X63582919Y-171829385D01*
X63630538Y-171924623D01*
X63725776Y-172019861D01*
X63868633Y-172067480D01*
X63963871Y-172067480D01*
X64106728Y-172019861D01*
X64154347Y-171972242D01*
X64154347Y-171638909D01*
X63963871Y-171638909D01*
X64535300Y-171781766D02*
X65011490Y-171781766D01*
X64440061Y-172067480D02*
X64773395Y-171067480D01*
X65106728Y-172067480D01*
X65916252Y-172067480D02*
X65440061Y-172067480D01*
X65440061Y-171067480D01*
X66773395Y-172067480D02*
X66201966Y-172067480D01*
X66487680Y-172067480D02*
X66487680Y-171067480D01*
X66392442Y-171210338D01*
X66297204Y-171305576D01*
X66201966Y-171353195D01*
X67630538Y-171067480D02*
X67440061Y-171067480D01*
X67344823Y-171115100D01*
X67297204Y-171162719D01*
X67201966Y-171305576D01*
X67154347Y-171496052D01*
X67154347Y-171877004D01*
X67201966Y-171972242D01*
X67249585Y-172019861D01*
X67344823Y-172067480D01*
X67535300Y-172067480D01*
X67630538Y-172019861D01*
X67678157Y-171972242D01*
X67725776Y-171877004D01*
X67725776Y-171638909D01*
X67678157Y-171543671D01*
X67630538Y-171496052D01*
X67535300Y-171448433D01*
X67344823Y-171448433D01*
X67249585Y-171496052D01*
X67201966Y-171543671D01*
X67154347Y-171638909D01*
X68011490Y-171067480D02*
X68344823Y-172067480D01*
X68678157Y-171067480D01*
X69154347Y-171496052D02*
X69059109Y-171448433D01*
X69011490Y-171400814D01*
X68963871Y-171305576D01*
X68963871Y-171257957D01*
X69011490Y-171162719D01*
X69059109Y-171115100D01*
X69154347Y-171067480D01*
X69344823Y-171067480D01*
X69440061Y-171115100D01*
X69487680Y-171162719D01*
X69535300Y-171257957D01*
X69535300Y-171305576D01*
X69487680Y-171400814D01*
X69440061Y-171448433D01*
X69344823Y-171496052D01*
X69154347Y-171496052D01*
X69059109Y-171543671D01*
X69011490Y-171591290D01*
X68963871Y-171686528D01*
X68963871Y-171877004D01*
X69011490Y-171972242D01*
X69059109Y-172019861D01*
X69154347Y-172067480D01*
X69344823Y-172067480D01*
X69440061Y-172019861D01*
X69487680Y-171972242D01*
X69535300Y-171877004D01*
X69535300Y-171686528D01*
X69487680Y-171591290D01*
X69440061Y-171543671D01*
X69344823Y-171496052D01*
X94167628Y-170797600D02*
X94072390Y-170749980D01*
X93929533Y-170749980D01*
X93786676Y-170797600D01*
X93691438Y-170892838D01*
X93643819Y-170988076D01*
X93596200Y-171178552D01*
X93596200Y-171321409D01*
X93643819Y-171511885D01*
X93691438Y-171607123D01*
X93786676Y-171702361D01*
X93929533Y-171749980D01*
X94024771Y-171749980D01*
X94167628Y-171702361D01*
X94215247Y-171654742D01*
X94215247Y-171321409D01*
X94024771Y-171321409D01*
X94596200Y-171464266D02*
X95072390Y-171464266D01*
X94500961Y-171749980D02*
X94834295Y-170749980D01*
X95167628Y-171749980D01*
X95977152Y-171749980D02*
X95500961Y-171749980D01*
X95500961Y-170749980D01*
X96834295Y-171749980D02*
X96262866Y-171749980D01*
X96548580Y-171749980D02*
X96548580Y-170749980D01*
X96453342Y-170892838D01*
X96358104Y-170988076D01*
X96262866Y-171035695D01*
X97691438Y-170749980D02*
X97500961Y-170749980D01*
X97405723Y-170797600D01*
X97358104Y-170845219D01*
X97262866Y-170988076D01*
X97215247Y-171178552D01*
X97215247Y-171559504D01*
X97262866Y-171654742D01*
X97310485Y-171702361D01*
X97405723Y-171749980D01*
X97596200Y-171749980D01*
X97691438Y-171702361D01*
X97739057Y-171654742D01*
X97786676Y-171559504D01*
X97786676Y-171321409D01*
X97739057Y-171226171D01*
X97691438Y-171178552D01*
X97596200Y-171130933D01*
X97405723Y-171130933D01*
X97310485Y-171178552D01*
X97262866Y-171226171D01*
X97215247Y-171321409D01*
X98072390Y-170749980D02*
X98405723Y-171749980D01*
X98739057Y-170749980D01*
X99215247Y-171178552D02*
X99120009Y-171130933D01*
X99072390Y-171083314D01*
X99024771Y-170988076D01*
X99024771Y-170940457D01*
X99072390Y-170845219D01*
X99120009Y-170797600D01*
X99215247Y-170749980D01*
X99405723Y-170749980D01*
X99500961Y-170797600D01*
X99548580Y-170845219D01*
X99596200Y-170940457D01*
X99596200Y-170988076D01*
X99548580Y-171083314D01*
X99500961Y-171130933D01*
X99405723Y-171178552D01*
X99215247Y-171178552D01*
X99120009Y-171226171D01*
X99072390Y-171273790D01*
X99024771Y-171369028D01*
X99024771Y-171559504D01*
X99072390Y-171654742D01*
X99120009Y-171702361D01*
X99215247Y-171749980D01*
X99405723Y-171749980D01*
X99500961Y-171702361D01*
X99548580Y-171654742D01*
X99596200Y-171559504D01*
X99596200Y-171369028D01*
X99548580Y-171273790D01*
X99500961Y-171226171D01*
X99405723Y-171178552D01*
X128817714Y-175907533D02*
X129484380Y-175907533D01*
X128436761Y-176145628D02*
X129151047Y-176383723D01*
X129151047Y-175764676D01*
X128484380Y-175478961D02*
X128484380Y-174812295D01*
X129484380Y-175240866D01*
X128484380Y-174240866D02*
X128484380Y-174145628D01*
X128532000Y-174050390D01*
X128579619Y-174002771D01*
X128674857Y-173955152D01*
X128865333Y-173907533D01*
X129103428Y-173907533D01*
X129293904Y-173955152D01*
X129389142Y-174002771D01*
X129436761Y-174050390D01*
X129484380Y-174145628D01*
X129484380Y-174240866D01*
X129436761Y-174336104D01*
X129389142Y-174383723D01*
X129293904Y-174431342D01*
X129103428Y-174478961D01*
X128865333Y-174478961D01*
X128674857Y-174431342D01*
X128579619Y-174383723D01*
X128532000Y-174336104D01*
X128484380Y-174240866D01*
X129484380Y-173526580D02*
X129484380Y-173288485D01*
X129293904Y-173288485D01*
X129246285Y-173383723D01*
X129151047Y-173478961D01*
X129008190Y-173526580D01*
X128770095Y-173526580D01*
X128627238Y-173478961D01*
X128532000Y-173383723D01*
X128484380Y-173240866D01*
X128484380Y-173050390D01*
X128532000Y-172907533D01*
X128627238Y-172812295D01*
X128770095Y-172764676D01*
X129008190Y-172764676D01*
X129151047Y-172812295D01*
X129246285Y-172907533D01*
X129293904Y-173002771D01*
X129484380Y-173002771D01*
X129484380Y-172764676D01*
X132272114Y-176009133D02*
X132938780Y-176009133D01*
X131891161Y-176247228D02*
X132605447Y-176485323D01*
X132605447Y-175866276D01*
X131938780Y-175580561D02*
X131938780Y-174913895D01*
X132938780Y-175342466D01*
X131938780Y-174342466D02*
X131938780Y-174247228D01*
X131986400Y-174151990D01*
X132034019Y-174104371D01*
X132129257Y-174056752D01*
X132319733Y-174009133D01*
X132557828Y-174009133D01*
X132748304Y-174056752D01*
X132843542Y-174104371D01*
X132891161Y-174151990D01*
X132938780Y-174247228D01*
X132938780Y-174342466D01*
X132891161Y-174437704D01*
X132843542Y-174485323D01*
X132748304Y-174532942D01*
X132557828Y-174580561D01*
X132319733Y-174580561D01*
X132129257Y-174532942D01*
X132034019Y-174485323D01*
X131986400Y-174437704D01*
X131938780Y-174342466D01*
X132938780Y-173628180D02*
X132938780Y-173390085D01*
X132748304Y-173390085D01*
X132700685Y-173485323D01*
X132605447Y-173580561D01*
X132462590Y-173628180D01*
X132224495Y-173628180D01*
X132081638Y-173580561D01*
X131986400Y-173485323D01*
X131938780Y-173342466D01*
X131938780Y-173151990D01*
X131986400Y-173009133D01*
X132081638Y-172913895D01*
X132224495Y-172866276D01*
X132462590Y-172866276D01*
X132605447Y-172913895D01*
X132700685Y-173009133D01*
X132748304Y-173104371D01*
X132938780Y-173104371D01*
X132938780Y-172866276D01*
X124775980Y-145973585D02*
X124775980Y-145878347D01*
X124823600Y-145783109D01*
X124871219Y-145735490D01*
X124966457Y-145687871D01*
X125156933Y-145640252D01*
X125395028Y-145640252D01*
X125585504Y-145687871D01*
X125680742Y-145735490D01*
X125728361Y-145783109D01*
X125775980Y-145878347D01*
X125775980Y-145973585D01*
X125728361Y-146068823D01*
X125680742Y-146116442D01*
X125585504Y-146164061D01*
X125395028Y-146211680D01*
X125156933Y-146211680D01*
X124966457Y-146164061D01*
X124871219Y-146116442D01*
X124823600Y-146068823D01*
X124775980Y-145973585D01*
X125680742Y-145211680D02*
X125728361Y-145164061D01*
X125775980Y-145211680D01*
X125728361Y-145259300D01*
X125680742Y-145211680D01*
X125775980Y-145211680D01*
X125775980Y-144211680D02*
X125775980Y-144783109D01*
X125775980Y-144497395D02*
X124775980Y-144497395D01*
X124918838Y-144592633D01*
X125014076Y-144687871D01*
X125061695Y-144783109D01*
X125109314Y-143783109D02*
X126109314Y-143783109D01*
X125633123Y-143306919D02*
X125728361Y-143259300D01*
X125775980Y-143164061D01*
X125633123Y-143783109D02*
X125728361Y-143735490D01*
X125775980Y-143640252D01*
X125775980Y-143449776D01*
X125728361Y-143354538D01*
X125633123Y-143306919D01*
X125109314Y-143306919D01*
X125252171Y-142402157D02*
X125252171Y-142735490D01*
X125775980Y-142735490D02*
X124775980Y-142735490D01*
X124775980Y-142259300D01*
X100455480Y-158851385D02*
X100455480Y-158756147D01*
X100503100Y-158660909D01*
X100550719Y-158613290D01*
X100645957Y-158565671D01*
X100836433Y-158518052D01*
X101074528Y-158518052D01*
X101265004Y-158565671D01*
X101360242Y-158613290D01*
X101407861Y-158660909D01*
X101455480Y-158756147D01*
X101455480Y-158851385D01*
X101407861Y-158946623D01*
X101360242Y-158994242D01*
X101265004Y-159041861D01*
X101074528Y-159089480D01*
X100836433Y-159089480D01*
X100645957Y-159041861D01*
X100550719Y-158994242D01*
X100503100Y-158946623D01*
X100455480Y-158851385D01*
X101360242Y-158089480D02*
X101407861Y-158041861D01*
X101455480Y-158089480D01*
X101407861Y-158137100D01*
X101360242Y-158089480D01*
X101455480Y-158089480D01*
X101455480Y-157089480D02*
X101455480Y-157660909D01*
X101455480Y-157375195D02*
X100455480Y-157375195D01*
X100598338Y-157470433D01*
X100693576Y-157565671D01*
X100741195Y-157660909D01*
X100788814Y-156660909D02*
X101788814Y-156660909D01*
X101312623Y-156184719D02*
X101407861Y-156137100D01*
X101455480Y-156041861D01*
X101312623Y-156660909D02*
X101407861Y-156613290D01*
X101455480Y-156518052D01*
X101455480Y-156327576D01*
X101407861Y-156232338D01*
X101312623Y-156184719D01*
X100788814Y-156184719D01*
X100931671Y-155279957D02*
X100931671Y-155613290D01*
X101455480Y-155613290D02*
X100455480Y-155613290D01*
X100455480Y-155137100D01*
X100455480Y-146062485D02*
X100455480Y-145967247D01*
X100503100Y-145872009D01*
X100550719Y-145824390D01*
X100645957Y-145776771D01*
X100836433Y-145729152D01*
X101074528Y-145729152D01*
X101265004Y-145776771D01*
X101360242Y-145824390D01*
X101407861Y-145872009D01*
X101455480Y-145967247D01*
X101455480Y-146062485D01*
X101407861Y-146157723D01*
X101360242Y-146205342D01*
X101265004Y-146252961D01*
X101074528Y-146300580D01*
X100836433Y-146300580D01*
X100645957Y-146252961D01*
X100550719Y-146205342D01*
X100503100Y-146157723D01*
X100455480Y-146062485D01*
X101360242Y-145300580D02*
X101407861Y-145252961D01*
X101455480Y-145300580D01*
X101407861Y-145348200D01*
X101360242Y-145300580D01*
X101455480Y-145300580D01*
X101455480Y-144300580D02*
X101455480Y-144872009D01*
X101455480Y-144586295D02*
X100455480Y-144586295D01*
X100598338Y-144681533D01*
X100693576Y-144776771D01*
X100741195Y-144872009D01*
X100788814Y-143872009D02*
X101788814Y-143872009D01*
X101312623Y-143395819D02*
X101407861Y-143348200D01*
X101455480Y-143252961D01*
X101312623Y-143872009D02*
X101407861Y-143824390D01*
X101455480Y-143729152D01*
X101455480Y-143538676D01*
X101407861Y-143443438D01*
X101312623Y-143395819D01*
X100788814Y-143395819D01*
X100931671Y-142491057D02*
X100931671Y-142824390D01*
X101455480Y-142824390D02*
X100455480Y-142824390D01*
X100455480Y-142348200D01*
X81456280Y-171030685D02*
X81456280Y-170935447D01*
X81503900Y-170840209D01*
X81551519Y-170792590D01*
X81646757Y-170744971D01*
X81837233Y-170697352D01*
X82075328Y-170697352D01*
X82265804Y-170744971D01*
X82361042Y-170792590D01*
X82408661Y-170840209D01*
X82456280Y-170935447D01*
X82456280Y-171030685D01*
X82408661Y-171125923D01*
X82361042Y-171173542D01*
X82265804Y-171221161D01*
X82075328Y-171268780D01*
X81837233Y-171268780D01*
X81646757Y-171221161D01*
X81551519Y-171173542D01*
X81503900Y-171125923D01*
X81456280Y-171030685D01*
X82361042Y-170268780D02*
X82408661Y-170221161D01*
X82456280Y-170268780D01*
X82408661Y-170316400D01*
X82361042Y-170268780D01*
X82456280Y-170268780D01*
X82456280Y-169268780D02*
X82456280Y-169840209D01*
X82456280Y-169554495D02*
X81456280Y-169554495D01*
X81599138Y-169649733D01*
X81694376Y-169744971D01*
X81741995Y-169840209D01*
X81789614Y-168840209D02*
X82789614Y-168840209D01*
X82313423Y-168364019D02*
X82408661Y-168316400D01*
X82456280Y-168221161D01*
X82313423Y-168840209D02*
X82408661Y-168792590D01*
X82456280Y-168697352D01*
X82456280Y-168506876D01*
X82408661Y-168411638D01*
X82313423Y-168364019D01*
X81789614Y-168364019D01*
X81932471Y-167459257D02*
X81932471Y-167792590D01*
X82456280Y-167792590D02*
X81456280Y-167792590D01*
X81456280Y-167316400D01*
X75842880Y-158495785D02*
X75842880Y-158400547D01*
X75890500Y-158305309D01*
X75938119Y-158257690D01*
X76033357Y-158210071D01*
X76223833Y-158162452D01*
X76461928Y-158162452D01*
X76652404Y-158210071D01*
X76747642Y-158257690D01*
X76795261Y-158305309D01*
X76842880Y-158400547D01*
X76842880Y-158495785D01*
X76795261Y-158591023D01*
X76747642Y-158638642D01*
X76652404Y-158686261D01*
X76461928Y-158733880D01*
X76223833Y-158733880D01*
X76033357Y-158686261D01*
X75938119Y-158638642D01*
X75890500Y-158591023D01*
X75842880Y-158495785D01*
X76747642Y-157733880D02*
X76795261Y-157686261D01*
X76842880Y-157733880D01*
X76795261Y-157781500D01*
X76747642Y-157733880D01*
X76842880Y-157733880D01*
X76842880Y-156733880D02*
X76842880Y-157305309D01*
X76842880Y-157019595D02*
X75842880Y-157019595D01*
X75985738Y-157114833D01*
X76080976Y-157210071D01*
X76128595Y-157305309D01*
X76176214Y-156305309D02*
X77176214Y-156305309D01*
X76700023Y-155829119D02*
X76795261Y-155781500D01*
X76842880Y-155686261D01*
X76700023Y-156305309D02*
X76795261Y-156257690D01*
X76842880Y-156162452D01*
X76842880Y-155971976D01*
X76795261Y-155876738D01*
X76700023Y-155829119D01*
X76176214Y-155829119D01*
X76319071Y-154924357D02*
X76319071Y-155257690D01*
X76842880Y-155257690D02*
X75842880Y-155257690D01*
X75842880Y-154781500D01*
X75842880Y-146151385D02*
X75842880Y-146056147D01*
X75890500Y-145960909D01*
X75938119Y-145913290D01*
X76033357Y-145865671D01*
X76223833Y-145818052D01*
X76461928Y-145818052D01*
X76652404Y-145865671D01*
X76747642Y-145913290D01*
X76795261Y-145960909D01*
X76842880Y-146056147D01*
X76842880Y-146151385D01*
X76795261Y-146246623D01*
X76747642Y-146294242D01*
X76652404Y-146341861D01*
X76461928Y-146389480D01*
X76223833Y-146389480D01*
X76033357Y-146341861D01*
X75938119Y-146294242D01*
X75890500Y-146246623D01*
X75842880Y-146151385D01*
X76747642Y-145389480D02*
X76795261Y-145341861D01*
X76842880Y-145389480D01*
X76795261Y-145437100D01*
X76747642Y-145389480D01*
X76842880Y-145389480D01*
X76842880Y-144389480D02*
X76842880Y-144960909D01*
X76842880Y-144675195D02*
X75842880Y-144675195D01*
X75985738Y-144770433D01*
X76080976Y-144865671D01*
X76128595Y-144960909D01*
X76176214Y-143960909D02*
X77176214Y-143960909D01*
X76700023Y-143484719D02*
X76795261Y-143437100D01*
X76842880Y-143341861D01*
X76700023Y-143960909D02*
X76795261Y-143913290D01*
X76842880Y-143818052D01*
X76842880Y-143627576D01*
X76795261Y-143532338D01*
X76700023Y-143484719D01*
X76176214Y-143484719D01*
X76319071Y-142579957D02*
X76319071Y-142913290D01*
X76842880Y-142913290D02*
X75842880Y-142913290D01*
X75842880Y-142437100D01*
X51319180Y-171487885D02*
X51319180Y-171392647D01*
X51366800Y-171297409D01*
X51414419Y-171249790D01*
X51509657Y-171202171D01*
X51700133Y-171154552D01*
X51938228Y-171154552D01*
X52128704Y-171202171D01*
X52223942Y-171249790D01*
X52271561Y-171297409D01*
X52319180Y-171392647D01*
X52319180Y-171487885D01*
X52271561Y-171583123D01*
X52223942Y-171630742D01*
X52128704Y-171678361D01*
X51938228Y-171725980D01*
X51700133Y-171725980D01*
X51509657Y-171678361D01*
X51414419Y-171630742D01*
X51366800Y-171583123D01*
X51319180Y-171487885D01*
X52223942Y-170725980D02*
X52271561Y-170678361D01*
X52319180Y-170725980D01*
X52271561Y-170773600D01*
X52223942Y-170725980D01*
X52319180Y-170725980D01*
X52319180Y-169725980D02*
X52319180Y-170297409D01*
X52319180Y-170011695D02*
X51319180Y-170011695D01*
X51462038Y-170106933D01*
X51557276Y-170202171D01*
X51604895Y-170297409D01*
X51652514Y-169297409D02*
X52652514Y-169297409D01*
X52176323Y-168821219D02*
X52271561Y-168773600D01*
X52319180Y-168678361D01*
X52176323Y-169297409D02*
X52271561Y-169249790D01*
X52319180Y-169154552D01*
X52319180Y-168964076D01*
X52271561Y-168868838D01*
X52176323Y-168821219D01*
X51652514Y-168821219D01*
X51795371Y-167916457D02*
X51795371Y-168249790D01*
X52319180Y-168249790D02*
X51319180Y-168249790D01*
X51319180Y-167773600D01*
X51509680Y-158851385D02*
X51509680Y-158756147D01*
X51557300Y-158660909D01*
X51604919Y-158613290D01*
X51700157Y-158565671D01*
X51890633Y-158518052D01*
X52128728Y-158518052D01*
X52319204Y-158565671D01*
X52414442Y-158613290D01*
X52462061Y-158660909D01*
X52509680Y-158756147D01*
X52509680Y-158851385D01*
X52462061Y-158946623D01*
X52414442Y-158994242D01*
X52319204Y-159041861D01*
X52128728Y-159089480D01*
X51890633Y-159089480D01*
X51700157Y-159041861D01*
X51604919Y-158994242D01*
X51557300Y-158946623D01*
X51509680Y-158851385D01*
X52414442Y-158089480D02*
X52462061Y-158041861D01*
X52509680Y-158089480D01*
X52462061Y-158137100D01*
X52414442Y-158089480D01*
X52509680Y-158089480D01*
X52509680Y-157089480D02*
X52509680Y-157660909D01*
X52509680Y-157375195D02*
X51509680Y-157375195D01*
X51652538Y-157470433D01*
X51747776Y-157565671D01*
X51795395Y-157660909D01*
X51843014Y-156660909D02*
X52843014Y-156660909D01*
X52366823Y-156184719D02*
X52462061Y-156137100D01*
X52509680Y-156041861D01*
X52366823Y-156660909D02*
X52462061Y-156613290D01*
X52509680Y-156518052D01*
X52509680Y-156327576D01*
X52462061Y-156232338D01*
X52366823Y-156184719D01*
X51843014Y-156184719D01*
X51985871Y-155279957D02*
X51985871Y-155613290D01*
X52509680Y-155613290D02*
X51509680Y-155613290D01*
X51509680Y-155137100D01*
X51484280Y-145973585D02*
X51484280Y-145878347D01*
X51531900Y-145783109D01*
X51579519Y-145735490D01*
X51674757Y-145687871D01*
X51865233Y-145640252D01*
X52103328Y-145640252D01*
X52293804Y-145687871D01*
X52389042Y-145735490D01*
X52436661Y-145783109D01*
X52484280Y-145878347D01*
X52484280Y-145973585D01*
X52436661Y-146068823D01*
X52389042Y-146116442D01*
X52293804Y-146164061D01*
X52103328Y-146211680D01*
X51865233Y-146211680D01*
X51674757Y-146164061D01*
X51579519Y-146116442D01*
X51531900Y-146068823D01*
X51484280Y-145973585D01*
X52389042Y-145211680D02*
X52436661Y-145164061D01*
X52484280Y-145211680D01*
X52436661Y-145259300D01*
X52389042Y-145211680D01*
X52484280Y-145211680D01*
X52484280Y-144211680D02*
X52484280Y-144783109D01*
X52484280Y-144497395D02*
X51484280Y-144497395D01*
X51627138Y-144592633D01*
X51722376Y-144687871D01*
X51769995Y-144783109D01*
X51817614Y-143783109D02*
X52817614Y-143783109D01*
X52341423Y-143306919D02*
X52436661Y-143259300D01*
X52484280Y-143164061D01*
X52341423Y-143783109D02*
X52436661Y-143735490D01*
X52484280Y-143640252D01*
X52484280Y-143449776D01*
X52436661Y-143354538D01*
X52341423Y-143306919D01*
X51817614Y-143306919D01*
X51960471Y-142402157D02*
X51960471Y-142735490D01*
X52484280Y-142735490D02*
X51484280Y-142735490D01*
X51484280Y-142259300D01*
M02*
