M48
; DRILL file {KiCad (5.1.4-0-10_14)} date Sunday, March 08, 2020 at 11:30:02 PM
; FORMAT={-:-/ absolute / inch / decimal}
; #@! TF.CreationDate,2020-03-08T23:30:02-07:00
; #@! TF.GenerationSoftware,Kicad,Pcbnew,(5.1.4-0-10_14)
; #@! TF.FileFunction,Plated,1,4,PTH
FMAT,2
INCH
T1C0.0157
T2C0.0315
T3C0.0354
T4C0.0394
%
G90
G05
T1
X2.0395Y-6.1185
X2.0415Y-5.685
X2.049Y-5.2525
X2.0555Y-6.5255
X2.1115Y-7.0265
X2.2895Y-6.751
X2.317Y-6.192
X2.4237Y-6.2373
X2.5237Y-6.2848
X2.6133Y-6.3372
X2.815Y-7.3285
X2.9505Y-6.1045
X2.9645Y-5.711
X3.115Y-7.1525
X3.2837Y-6.1823
X3.3788Y-6.2452
X3.4837Y-6.2883
X3.5788Y-6.3467
X3.7018Y-6.0182
X3.7855Y-5.759
X3.916Y-6.4715
X3.968Y-5.5625
X3.97Y-5.3355
X3.984Y-6.078
X4.02Y-7.0615
X4.2438Y-6.1917
X4.3552Y-6.2423
X4.4552Y-6.2923
X4.5552Y-6.3463
X4.6475Y-6.5155
X4.7885Y-5.765
X4.7905Y-7.0635
X4.889Y-6.096
X4.991Y-6.628
X5.022Y-7.3125
X5.111Y-6.4725
X5.2132Y-6.1858
X5.3132Y-6.2478
X5.341Y-5.0995
X5.3835Y-6.9825
X5.4132Y-6.2913
X5.5132Y-6.3373
X5.7335Y-6.672
X5.7965Y-6.1465
T2
X4.7255Y-5.464
X4.8255Y-5.464
X5.0605Y-5.605
X5.0605Y-5.905
X5.1605Y-5.605
X5.1605Y-5.905
X5.2605Y-5.605
X5.2605Y-5.905
X5.3605Y-5.605
X5.3605Y-5.905
X5.4605Y-5.605
X5.4605Y-5.905
X5.5605Y-5.605
X5.5605Y-5.905
X5.6605Y-5.605
X5.6605Y-5.905
X5.7605Y-5.605
X5.7605Y-5.905
X4.9255Y-5.464
X5.0255Y-5.464
X5.1255Y-5.464
X3.0075Y-5.8335
X3.0075Y-5.9319
X4.0995Y-6.11
X4.0995Y-6.41
X4.1995Y-6.11
X4.2995Y-6.11
X4.2995Y-6.41
X4.3995Y-6.11
X4.3995Y-6.41
X4.4995Y-6.41
X4.5995Y-6.11
X4.5995Y-6.41
X4.6995Y-6.41
X4.9375Y-5.8265
X4.9375Y-5.9249
X2.046Y-6.3335
X2.046Y-6.4319
X3.9765Y-5.83
X3.9765Y-5.9284
X4.1995Y-6.41
X4.4995Y-6.11
X4.6995Y-6.11
X2.168Y-5.612
X2.168Y-5.912
X2.268Y-5.612
X2.268Y-5.912
X2.368Y-5.612
X2.368Y-5.912
X2.468Y-5.612
X2.468Y-5.912
X2.568Y-5.612
X2.568Y-5.912
X2.668Y-5.612
X2.668Y-5.912
X2.768Y-5.612
X2.768Y-5.912
X2.868Y-5.612
X2.868Y-5.912
X5.0805Y-6.6765
X5.0805Y-7.0765
X5.0575Y-6.11
X5.0575Y-6.41
X5.1575Y-6.11
X5.1575Y-6.41
X5.2575Y-6.11
X5.2575Y-6.41
X5.3575Y-6.11
X5.3575Y-6.41
X5.4575Y-6.11
X5.4575Y-6.41
X5.5575Y-6.11
X5.5575Y-6.41
X5.6575Y-6.11
X5.6575Y-6.41
X5.356Y-5.464
X5.456Y-5.464
X5.556Y-5.464
X5.656Y-5.464
X5.756Y-5.464
X2.1685Y-6.6025
X2.1685Y-6.9025
X2.2685Y-6.6025
X2.2685Y-6.9025
X2.3685Y-6.6025
X2.3685Y-6.9025
X2.4685Y-6.6025
X2.4685Y-6.9025
X2.5685Y-6.6025
X2.5685Y-6.9025
X3.431Y-5.4725
X3.531Y-5.4725
X3.004Y-6.3265
X3.004Y-6.4249
X2.169Y-6.412
X2.269Y-6.412
X2.769Y-6.112
X3.631Y-5.4725
X3.731Y-5.4725
X3.831Y-5.4725
X2.169Y-6.112
X2.269Y-6.112
X2.369Y-6.112
X2.369Y-6.412
X2.469Y-6.112
X2.469Y-6.412
X2.569Y-6.112
X2.569Y-6.412
X2.669Y-6.112
X2.669Y-6.412
X2.769Y-6.412
X3.1345Y-5.611
X3.1345Y-5.911
X3.2345Y-5.611
X3.2345Y-5.911
X3.3345Y-5.611
X3.3345Y-5.911
X3.4345Y-5.611
X3.4345Y-5.911
X3.5345Y-5.611
X3.5345Y-5.911
X3.6345Y-5.611
X3.6345Y-5.911
X3.7345Y-5.611
X3.7345Y-5.911
X3.8345Y-5.611
X2.9685Y-6.9025
X2.6685Y-6.6025
X2.6685Y-6.9025
X2.7685Y-6.6025
X2.7685Y-6.9025
X2.8685Y-6.9025
X3.0685Y-6.9025
X5.2165Y-7.0765
X2.8685Y-6.6025
X2.9685Y-6.6025
X5.2165Y-6.6765
X3.0685Y-6.6025
X4.1035Y-5.468
X4.9375Y-6.3265
X4.9375Y-6.4249
X2.0455Y-6.824
X2.0455Y-6.9224
X3.8345Y-5.911
X4.2035Y-5.468
X4.3035Y-5.468
X4.4035Y-5.468
X4.5035Y-5.468
X3.352Y-6.597
X3.352Y-6.897
X3.452Y-6.597
X3.452Y-6.897
X3.552Y-6.597
X3.552Y-6.897
X3.652Y-6.897
X3.752Y-6.597
X3.752Y-6.897
X3.852Y-6.597
X3.852Y-6.897
X3.952Y-6.597
X3.952Y-6.897
X4.052Y-6.597
X4.052Y-6.897
X4.152Y-6.597
X4.152Y-6.897
X4.252Y-6.597
X4.252Y-6.897
X3.973Y-6.33
X3.973Y-6.4284
X3.652Y-6.597
X2.0485Y-5.8335
X3.128Y-6.11
X3.128Y-6.41
X3.228Y-6.11
X3.228Y-6.41
X3.328Y-6.11
X3.328Y-6.41
X3.428Y-6.11
X3.428Y-6.41
X3.528Y-6.11
X3.528Y-6.41
X3.628Y-6.11
X3.728Y-6.11
X3.728Y-6.41
X3.205Y-5.4725
X2.0485Y-5.9319
X3.628Y-6.41
X2.805Y-5.4725
X2.905Y-5.4725
X3.005Y-5.4725
X3.105Y-5.4725
X4.0995Y-5.611
X4.0995Y-5.911
X4.1995Y-5.611
X4.1995Y-5.911
X4.2995Y-5.611
X4.2995Y-5.911
X4.3995Y-5.611
X4.3995Y-5.911
X4.4995Y-5.611
X4.4995Y-5.911
X4.5995Y-5.611
X4.5995Y-5.911
X4.6995Y-5.611
X4.6995Y-5.911
X4.7995Y-5.611
X4.7995Y-5.911
X2.179Y-5.4725
X2.279Y-5.4725
X2.379Y-5.4725
X2.479Y-5.4725
X3.2295Y-6.9149
X3.2295Y-6.8165
X2.579Y-5.4725
T3
X3.7245Y-5.227
X3.7245Y-5.327
X3.262Y-5.3335
X3.362Y-5.3335
X4.4575Y-5.2285
X4.4575Y-5.3285
X2.541Y-5.2275
X2.541Y-5.3275
X4.807Y-5.2285
X4.807Y-5.3285
X2.287Y-5.2195
X2.387Y-5.2195
X5.5395Y-5.224
X5.5395Y-5.324
X3.611Y-5.227
X3.611Y-5.327
X2.877Y-5.2275
X2.877Y-5.3275
X5.7695Y-5.224
X5.7695Y-5.324
X4.9405Y-6.734
X4.9405Y-6.834
X3.262Y-5.2195
X3.362Y-5.2195
X4.8225Y-6.734
X4.8225Y-6.834
X2.287Y-5.3375
X2.387Y-5.3375
X4.693Y-5.2285
X4.693Y-5.3285
X3.499Y-5.227
X3.499Y-5.327
X2.765Y-5.2275
X2.765Y-5.3275
X4.2125Y-5.3345
X4.3125Y-5.3345
X4.5755Y-5.2285
X4.5755Y-5.3285
X5.1725Y-5.3315
X5.2725Y-5.3315
X5.424Y-5.224
X3.8385Y-5.227
X4.2105Y-5.2205
X4.3105Y-5.2205
X5.424Y-5.324
X5.6535Y-5.224
X5.6535Y-5.324
X5.1725Y-5.2155
X5.2725Y-5.2155
X3.8385Y-5.327
X2.653Y-5.2275
X2.653Y-5.3275
T4
X2.0635Y-7.222
X2.1635Y-7.222
X2.2635Y-7.222
X2.3635Y-7.222
X2.4635Y-7.222
X2.5635Y-7.222
X2.6635Y-7.222
X2.7635Y-7.222
X2.8635Y-7.222
X2.9635Y-7.222
X3.0635Y-7.222
X3.1635Y-7.222
X3.2635Y-7.222
X3.3635Y-7.222
X3.4635Y-7.222
X3.5635Y-7.222
X3.6635Y-7.222
X3.7635Y-7.222
X3.8635Y-7.222
X3.9635Y-7.222
X4.0635Y-7.222
X4.1635Y-7.222
X4.2635Y-7.222
X4.3635Y-7.222
X4.4635Y-7.222
X4.5635Y-7.222
X4.6635Y-7.222
X4.7635Y-7.222
X4.8635Y-7.222
X4.9635Y-7.222
X5.0635Y-7.222
X5.1635Y-7.222
X5.2635Y-7.222
X5.3635Y-7.222
X5.4635Y-7.222
X5.5635Y-7.222
X5.6635Y-7.222
X5.7635Y-7.222
X5.4805Y-7.0245
X5.5805Y-7.0245
X5.6805Y-7.0245
X5.4785Y-6.8325
X5.5785Y-6.8325
X5.6785Y-6.8325
T0
M30
