M48
; DRILL file {KiCad (5.1.4-0-10_14)} date Saturday, December 07, 2019 at 10:26:48 AM
; FORMAT={-:-/ absolute / inch / decimal}
; #@! TF.CreationDate,2019-12-07T10:26:48-08:00
; #@! TF.GenerationSoftware,Kicad,Pcbnew,(5.1.4-0-10_14)
; #@! TF.FileFunction,Plated,1,2,PTH
FMAT,2
INCH
T1C0.0157
T2C0.0276
T3C0.0315
T4C0.0354
T5C0.0394
T6C0.0433
%
G90
G05
T1
X1.625Y-1.85
X1.85Y-1.85
X3.55Y-1.475
X3.725Y-1.975
X3.775Y-1.675
X3.775Y-1.675
T2
X2.325Y-1.45
X2.625Y-1.45
X2.325Y-1.8
X2.625Y-1.8
X2.325Y-1.625
X2.625Y-1.625
X1.4Y-0.925
X1.7Y-0.925
X3.175Y-1.85
X3.475Y-1.85
T3
X2.9Y-1.85
X2.9984Y-1.85
X2.9Y-1.3
X2.9Y-1.6
X3.0Y-1.3
X3.0Y-1.6
X3.1Y-1.3
X3.1Y-1.6
X3.2Y-1.3
X3.2Y-1.6
X3.3Y-1.3
X3.3Y-1.6
X3.4Y-1.3
X2.0Y-1.85
X2.0984Y-1.85
X3.4Y-1.6
X3.5Y-1.3
X3.5Y-1.6
X3.6Y-1.3
X3.6Y-1.6
X1.8Y-1.3
X1.8Y-1.6
X1.9Y-1.3
X1.9Y-1.6
X2.0Y-1.3
X2.0Y-1.6
X2.1Y-1.3
X2.1Y-1.6
X2.9Y-2.05
X2.9Y-2.35
X3.825Y-1.5
X3.9234Y-1.5
X2.0Y-2.05
X2.0Y-2.35
X2.1Y-2.05
X2.1Y-2.35
X2.2Y-2.05
X2.2Y-2.35
X2.3Y-2.05
X2.3Y-2.35
X2.4Y-2.05
X3.0Y-2.05
X1.1Y-2.05
X1.1Y-2.35
X1.2Y-2.05
X1.2Y-2.35
X1.3Y-2.05
X1.3Y-2.35
X1.4Y-2.05
X1.4Y-2.35
X2.4Y-2.35
X1.5Y-2.05
X1.5Y-2.35
X1.6Y-2.05
X1.6Y-2.35
X1.7Y-2.05
X3.4Y-2.35
X2.6Y-2.35
X3.1Y-2.05
X2.5Y-2.35
X3.1Y-2.35
X3.2Y-2.05
X3.2Y-2.35
X3.3Y-2.05
X3.3Y-2.35
X3.5Y-2.35
X2.5Y-2.05
X1.7Y-2.35
X2.6Y-2.05
X3.0Y-2.35
X2.6287Y-1.05
X2.7075Y-1.05
X2.2734Y-1.05
X3.5Y-2.05
X1.1Y-1.85
X1.1984Y-1.85
X3.4Y-2.05
X2.55Y-1.05
X1.925Y-1.05
X2.0234Y-1.05
X2.175Y-1.05
X3.325Y-1.05
X3.4234Y-1.05
X3.725Y-1.775
X3.725Y-1.875
X3.725Y-1.975
X3.725Y-2.075
X3.725Y-2.175
X3.725Y-2.275
X3.725Y-2.375
X4.025Y-1.775
X4.025Y-1.875
X4.025Y-1.975
X3.025Y-1.05
X3.1234Y-1.05
X4.025Y-2.075
X4.025Y-2.175
X4.025Y-2.275
X4.025Y-2.375
T4
X1.125Y-0.925
X1.225Y-0.925
T5
X1.2Y-1.65
X1.3Y-1.65
X1.4Y-1.65
X2.45Y-2.6
X2.55Y-2.6
X2.65Y-2.6
X2.75Y-2.6
X2.85Y-2.6
X2.95Y-2.6
T6
X3.6Y-0.925
X3.6Y-1.1022
X3.8559Y-0.925
X3.8559Y-1.1022
T0
M30
