G04 #@! TF.GenerationSoftware,KiCad,Pcbnew,(5.1.4-0-10_14)*
G04 #@! TF.CreationDate,2020-07-24T15:49:08-07:00*
G04 #@! TF.ProjectId,ya4b-alu,79613462-2d61-46c7-952e-6b696361645f,rev?*
G04 #@! TF.SameCoordinates,Original*
G04 #@! TF.FileFunction,Copper,L1,Top*
G04 #@! TF.FilePolarity,Positive*
%FSLAX46Y46*%
G04 Gerber Fmt 4.6, Leading zero omitted, Abs format (unit mm)*
G04 Created by KiCad (PCBNEW (5.1.4-0-10_14)) date 2020-07-24 15:49:08*
%MOMM*%
%LPD*%
G04 APERTURE LIST*
%ADD10O,1.600000X1.600000*%
%ADD11R,1.600000X1.600000*%
%ADD12C,1.600000*%
%ADD13O,1.700000X1.700000*%
%ADD14R,1.700000X1.700000*%
%ADD15C,1.800000*%
%ADD16R,1.800000X1.800000*%
%ADD17C,0.800000*%
%ADD18C,0.250000*%
G04 APERTURE END LIST*
D10*
X109570520Y-143352520D03*
X101950520Y-158592520D03*
X109570520Y-145892520D03*
X101950520Y-156052520D03*
X109570520Y-148432520D03*
X101950520Y-153512520D03*
X109570520Y-150972520D03*
X101950520Y-150972520D03*
X109570520Y-153512520D03*
X101950520Y-148432520D03*
X109570520Y-156052520D03*
X101950520Y-145892520D03*
X109570520Y-158592520D03*
D11*
X101950520Y-143352520D03*
D10*
X122234960Y-143322040D03*
X114614960Y-158562040D03*
X122234960Y-145862040D03*
X114614960Y-156022040D03*
X122234960Y-148402040D03*
X114614960Y-153482040D03*
X122234960Y-150942040D03*
X114614960Y-150942040D03*
X122234960Y-153482040D03*
X114614960Y-148402040D03*
X122234960Y-156022040D03*
X114614960Y-145862040D03*
X122234960Y-158562040D03*
D11*
X114614960Y-143322040D03*
D10*
X103383080Y-129118360D03*
X121163080Y-136738360D03*
X105923080Y-129118360D03*
X118623080Y-136738360D03*
X108463080Y-129118360D03*
X116083080Y-136738360D03*
X111003080Y-129118360D03*
X113543080Y-136738360D03*
X113543080Y-129118360D03*
X111003080Y-136738360D03*
X116083080Y-129118360D03*
X108463080Y-136738360D03*
X118623080Y-129118360D03*
X105923080Y-136738360D03*
X121163080Y-129118360D03*
D11*
X103383080Y-136738360D03*
D10*
X95905320Y-120020080D03*
X88285320Y-142880080D03*
X95905320Y-122560080D03*
X88285320Y-140340080D03*
X95905320Y-125100080D03*
X88285320Y-137800080D03*
X95905320Y-127640080D03*
X88285320Y-135260080D03*
X95905320Y-130180080D03*
X88285320Y-132720080D03*
X95905320Y-132720080D03*
X88285320Y-130180080D03*
X95905320Y-135260080D03*
X88285320Y-127640080D03*
X95905320Y-137800080D03*
X88285320Y-125100080D03*
X95905320Y-140340080D03*
X88285320Y-122560080D03*
X95905320Y-142880080D03*
D11*
X88285320Y-120020080D03*
D10*
X160756600Y-143316960D03*
X153136600Y-158556960D03*
X160756600Y-145856960D03*
X153136600Y-156016960D03*
X160756600Y-148396960D03*
X153136600Y-153476960D03*
X160756600Y-150936960D03*
X153136600Y-150936960D03*
X160756600Y-153476960D03*
X153136600Y-148396960D03*
X160756600Y-156016960D03*
X153136600Y-145856960D03*
X160756600Y-158556960D03*
D11*
X153136600Y-143316960D03*
D10*
X107421680Y-92415360D03*
X122661680Y-100035360D03*
X109961680Y-92415360D03*
X120121680Y-100035360D03*
X112501680Y-92415360D03*
X117581680Y-100035360D03*
X115041680Y-92415360D03*
X115041680Y-100035360D03*
X117581680Y-92415360D03*
X112501680Y-100035360D03*
X120121680Y-92415360D03*
X109961680Y-100035360D03*
X122661680Y-92415360D03*
D11*
X107421680Y-100035360D03*
D10*
X147782280Y-131069080D03*
X163022280Y-138689080D03*
X150322280Y-131069080D03*
X160482280Y-138689080D03*
X152862280Y-131069080D03*
X157942280Y-138689080D03*
X155402280Y-131069080D03*
X155402280Y-138689080D03*
X157942280Y-131069080D03*
X152862280Y-138689080D03*
X160482280Y-131069080D03*
X150322280Y-138689080D03*
X163022280Y-131069080D03*
D11*
X147782280Y-138689080D03*
D10*
X125542040Y-110779560D03*
X140782040Y-118399560D03*
X128082040Y-110779560D03*
X138242040Y-118399560D03*
X130622040Y-110779560D03*
X135702040Y-118399560D03*
X133162040Y-110779560D03*
X133162040Y-118399560D03*
X135702040Y-110779560D03*
X130622040Y-118399560D03*
X138242040Y-110779560D03*
X128082040Y-118399560D03*
X140782040Y-110779560D03*
D11*
X125542040Y-118399560D03*
D10*
X125460760Y-125227080D03*
X140700760Y-132847080D03*
X128000760Y-125227080D03*
X138160760Y-132847080D03*
X130540760Y-125227080D03*
X135620760Y-132847080D03*
X133080760Y-125227080D03*
X133080760Y-132847080D03*
X135620760Y-125227080D03*
X130540760Y-132847080D03*
X138160760Y-125227080D03*
X128000760Y-132847080D03*
X140700760Y-125227080D03*
D11*
X125460760Y-132847080D03*
D10*
X146552920Y-143316960D03*
X138932920Y-158556960D03*
X146552920Y-145856960D03*
X138932920Y-156016960D03*
X146552920Y-148396960D03*
X138932920Y-153476960D03*
X146552920Y-150936960D03*
X138932920Y-150936960D03*
X146552920Y-153476960D03*
X138932920Y-148396960D03*
X146552920Y-156016960D03*
X138932920Y-145856960D03*
X146552920Y-158556960D03*
D11*
X138932920Y-143316960D03*
D10*
X134706360Y-143352520D03*
X127086360Y-158592520D03*
X134706360Y-145892520D03*
X127086360Y-156052520D03*
X134706360Y-148432520D03*
X127086360Y-153512520D03*
X134706360Y-150972520D03*
X127086360Y-150972520D03*
X134706360Y-153512520D03*
X127086360Y-148432520D03*
X134706360Y-156052520D03*
X127086360Y-145892520D03*
X134706360Y-158592520D03*
D11*
X127086360Y-143352520D03*
D10*
X145186400Y-105745280D03*
X162966400Y-113365280D03*
X147726400Y-105745280D03*
X160426400Y-113365280D03*
X150266400Y-105745280D03*
X157886400Y-113365280D03*
X152806400Y-105745280D03*
X155346400Y-113365280D03*
X155346400Y-105745280D03*
X152806400Y-113365280D03*
X157886400Y-105745280D03*
X150266400Y-113365280D03*
X160426400Y-105745280D03*
X147726400Y-113365280D03*
X162966400Y-105745280D03*
D11*
X145186400Y-113365280D03*
D10*
X145186400Y-119461280D03*
X162966400Y-127081280D03*
X147726400Y-119461280D03*
X160426400Y-127081280D03*
X150266400Y-119461280D03*
X157886400Y-127081280D03*
X152806400Y-119461280D03*
X155346400Y-127081280D03*
X155346400Y-119461280D03*
X152806400Y-127081280D03*
X157886400Y-119461280D03*
X150266400Y-127081280D03*
X160426400Y-119461280D03*
X147726400Y-127081280D03*
X162966400Y-119461280D03*
D11*
X145186400Y-127081280D03*
D10*
X103464360Y-116540280D03*
X121244360Y-124160280D03*
X106004360Y-116540280D03*
X118704360Y-124160280D03*
X108544360Y-116540280D03*
X116164360Y-124160280D03*
X111084360Y-116540280D03*
X113624360Y-124160280D03*
X113624360Y-116540280D03*
X111084360Y-124160280D03*
X116164360Y-116540280D03*
X108544360Y-124160280D03*
X118704360Y-116540280D03*
X106004360Y-124160280D03*
X121244360Y-116540280D03*
D11*
X103464360Y-124160280D03*
D10*
X78943200Y-116936520D03*
X71323200Y-134716520D03*
X78943200Y-119476520D03*
X71323200Y-132176520D03*
X78943200Y-122016520D03*
X71323200Y-129636520D03*
X78943200Y-124556520D03*
X71323200Y-127096520D03*
X78943200Y-127096520D03*
X71323200Y-124556520D03*
X78943200Y-129636520D03*
X71323200Y-122016520D03*
X78943200Y-132176520D03*
X71323200Y-119476520D03*
X78943200Y-134716520D03*
D11*
X71323200Y-116936520D03*
D10*
X69250560Y-150982680D03*
X97190560Y-158602680D03*
X71790560Y-150982680D03*
X94650560Y-158602680D03*
X74330560Y-150982680D03*
X92110560Y-158602680D03*
X76870560Y-150982680D03*
X89570560Y-158602680D03*
X79410560Y-150982680D03*
X87030560Y-158602680D03*
X81950560Y-150982680D03*
X84490560Y-158602680D03*
X84490560Y-150982680D03*
X81950560Y-158602680D03*
X87030560Y-150982680D03*
X79410560Y-158602680D03*
X89570560Y-150982680D03*
X76870560Y-158602680D03*
X92110560Y-150982680D03*
X74330560Y-158602680D03*
X94650560Y-150982680D03*
X71790560Y-158602680D03*
X97190560Y-150982680D03*
D11*
X69250560Y-158602680D03*
D10*
X153804660Y-97073720D03*
X156344660Y-97073720D03*
X158884660Y-97073720D03*
X161424660Y-97073720D03*
D11*
X163964660Y-97073720D03*
D10*
X126962920Y-100762540D03*
X129502920Y-100762540D03*
X132042920Y-100762540D03*
X134582920Y-100762540D03*
D11*
X137122920Y-100762540D03*
D10*
X127011180Y-97023660D03*
X129551180Y-97023660D03*
X132091180Y-97023660D03*
X134631180Y-97023660D03*
D11*
X137171180Y-97023660D03*
D10*
X72794940Y-146553520D03*
X75334940Y-146553520D03*
X77874940Y-146553520D03*
X80414940Y-146553520D03*
D11*
X82954940Y-146553520D03*
D10*
X88840140Y-111875560D03*
X91380140Y-111875560D03*
X93920140Y-111875560D03*
X96460140Y-111875560D03*
D11*
X99000140Y-111875560D03*
D10*
X108795820Y-111920020D03*
X111335820Y-111920020D03*
X113875820Y-111920020D03*
X116415820Y-111920020D03*
D11*
X118955820Y-111920020D03*
D10*
X71490840Y-111818420D03*
X74030840Y-111818420D03*
X76570840Y-111818420D03*
X79110840Y-111818420D03*
D11*
X81650840Y-111818420D03*
D10*
X83228180Y-99956620D03*
X85768180Y-99956620D03*
X88308180Y-99956620D03*
X90848180Y-99956620D03*
X93388180Y-99956620D03*
X95928180Y-99956620D03*
X98468180Y-99956620D03*
X101008180Y-99956620D03*
D11*
X103548180Y-99956620D03*
D10*
X68986400Y-99862640D03*
X71526400Y-99862640D03*
X74066400Y-99862640D03*
X76606400Y-99862640D03*
D11*
X79146400Y-99862640D03*
D10*
X144632680Y-90007440D03*
D12*
X144632680Y-100167440D03*
D10*
X140975080Y-90007440D03*
D12*
X140975080Y-100167440D03*
D13*
X163296600Y-165214300D03*
X160756600Y-165214300D03*
X158216600Y-165214300D03*
X155676600Y-165214300D03*
X153136600Y-165214300D03*
X150596600Y-165214300D03*
X148056600Y-165214300D03*
X145516600Y-165214300D03*
X142976600Y-165214300D03*
X140436600Y-165214300D03*
X137896600Y-165214300D03*
X135356600Y-165214300D03*
X132816600Y-165214300D03*
X130276600Y-165214300D03*
X127736600Y-165214300D03*
X125196600Y-165214300D03*
X122656600Y-165214300D03*
X120116600Y-165214300D03*
X117576600Y-165214300D03*
X115036600Y-165214300D03*
X112496600Y-165214300D03*
X109956600Y-165214300D03*
X107416600Y-165214300D03*
X104876600Y-165214300D03*
X102336600Y-165214300D03*
X99796600Y-165214300D03*
X97256600Y-165214300D03*
X94716600Y-165214300D03*
X92176600Y-165214300D03*
X89636600Y-165214300D03*
X87096600Y-165214300D03*
X84556600Y-165214300D03*
X82016600Y-165214300D03*
X79476600Y-165214300D03*
X76936600Y-165214300D03*
X74396600Y-165214300D03*
X71856600Y-165214300D03*
D14*
X69316600Y-165214300D03*
D15*
X161531340Y-91229180D03*
D16*
X161531340Y-93769180D03*
D15*
X158826240Y-91229180D03*
D16*
X158826240Y-93769180D03*
D15*
X156121140Y-91229180D03*
D16*
X156121140Y-93769180D03*
D15*
X153416040Y-91229180D03*
D16*
X153416040Y-93769180D03*
D15*
X150710940Y-91229180D03*
D16*
X150710940Y-93769180D03*
D15*
X147998220Y-91252040D03*
D16*
X147998220Y-93792040D03*
D15*
X134831840Y-90981000D03*
D16*
X134831840Y-93521000D03*
D15*
X132126740Y-90981000D03*
D16*
X132126740Y-93521000D03*
D15*
X129421640Y-90981000D03*
D16*
X129421640Y-93521000D03*
D15*
X126711460Y-90983540D03*
D16*
X126711460Y-93523540D03*
D15*
X80498760Y-140381320D03*
D16*
X80498760Y-142921320D03*
D15*
X77793660Y-140381320D03*
D16*
X77793660Y-142921320D03*
D15*
X75088560Y-140381320D03*
D16*
X75088560Y-142921320D03*
D15*
X72378380Y-140399100D03*
D16*
X72378380Y-142939100D03*
D15*
X96729380Y-105817660D03*
D16*
X96729380Y-108357660D03*
D15*
X93988720Y-105817660D03*
D16*
X93988720Y-108357660D03*
D15*
X91250600Y-105817660D03*
D16*
X91250600Y-108357660D03*
D15*
X88507400Y-105825280D03*
D16*
X88507400Y-108365280D03*
D15*
X116682520Y-105818940D03*
D16*
X116682520Y-108358940D03*
D15*
X113941860Y-105818940D03*
D16*
X113941860Y-108358940D03*
D15*
X111201200Y-105818940D03*
D16*
X111201200Y-108358940D03*
D15*
X108455460Y-105824020D03*
D16*
X108455460Y-108364020D03*
D15*
X79268320Y-105732580D03*
D16*
X79268320Y-108272580D03*
D15*
X76527660Y-105732580D03*
D16*
X76527660Y-108272580D03*
D15*
X73792080Y-105740200D03*
D16*
X73792080Y-108280200D03*
D15*
X71084440Y-105740200D03*
D16*
X71084440Y-108280200D03*
D15*
X102074980Y-93713300D03*
D16*
X102074980Y-96253300D03*
D15*
X99334320Y-93713300D03*
D16*
X99334320Y-96253300D03*
D15*
X96593660Y-93713300D03*
D16*
X96593660Y-96253300D03*
D15*
X93853000Y-93713300D03*
D16*
X93853000Y-96253300D03*
D15*
X91112340Y-93713300D03*
D16*
X91112340Y-96253300D03*
D15*
X88374220Y-93713300D03*
D16*
X88374220Y-96253300D03*
D15*
X85633560Y-93713300D03*
D16*
X85633560Y-96253300D03*
D15*
X82892900Y-93713300D03*
D16*
X82892900Y-96253300D03*
D15*
X76913740Y-93670120D03*
D16*
X76913740Y-96210120D03*
D15*
X74173080Y-93670120D03*
D16*
X74173080Y-96210120D03*
D15*
X71432420Y-93670120D03*
D16*
X71432420Y-96210120D03*
D15*
X68691760Y-93670120D03*
D16*
X68691760Y-96210120D03*
D12*
X144292320Y-133071240D03*
X144292320Y-130571240D03*
X149727920Y-145248000D03*
X149727920Y-142748000D03*
X132633080Y-140385800D03*
X135133080Y-140385800D03*
X127391800Y-107767120D03*
X124891800Y-107767120D03*
X81874360Y-118867560D03*
X81874360Y-116367560D03*
X146954880Y-102814120D03*
X144454880Y-102814120D03*
X147117440Y-116448840D03*
X144617440Y-116448840D03*
X120166760Y-140482320D03*
X122666760Y-140482320D03*
X127473080Y-121808240D03*
X124973080Y-121808240D03*
X109398440Y-89438480D03*
X106898440Y-89438480D03*
X163769040Y-145329280D03*
X163769040Y-142829280D03*
X100218240Y-118623720D03*
X100218240Y-116123720D03*
X93659320Y-116773960D03*
X96159320Y-116773960D03*
X100055680Y-131044320D03*
X100055680Y-128544320D03*
X107532800Y-140451840D03*
X110032800Y-140451840D03*
X68976240Y-144733640D03*
X68976240Y-147233640D03*
D17*
X66825859Y-116816921D03*
X68788280Y-162554920D03*
X80573880Y-114091720D03*
X80523080Y-104651650D03*
X117895109Y-114133790D03*
X69626480Y-161168080D03*
X149727920Y-163412010D03*
X84373720Y-102900480D03*
X123037600Y-102900480D03*
X124371239Y-159632193D03*
X100736400Y-102311200D03*
X81600040Y-148076920D03*
X98065478Y-143912750D03*
X87025900Y-102001740D03*
X85105240Y-146466560D03*
X85003640Y-108193840D03*
X85003640Y-105049320D03*
X104124085Y-144358638D03*
X83154520Y-154010360D03*
X144414240Y-140782040D03*
X144211040Y-160406080D03*
X83124040Y-160040320D03*
X85486240Y-153349960D03*
X149264665Y-154166949D03*
X147782280Y-141284960D03*
X88280240Y-152364440D03*
X138191240Y-136702800D03*
X130246120Y-161803080D03*
X101351080Y-162590480D03*
X88366600Y-160660080D03*
X96938881Y-149557521D03*
X149443440Y-147487640D03*
X94055309Y-129962894D03*
X79202280Y-114391440D03*
X72100440Y-114340640D03*
X91659870Y-140239777D03*
X112320327Y-142052727D03*
X92384880Y-142864840D03*
X107421680Y-152146000D03*
X107421680Y-142402560D03*
X93187520Y-138755120D03*
X105846880Y-139760960D03*
X107287505Y-155362531D03*
X93797120Y-137673080D03*
X105592880Y-156814520D03*
X100365560Y-136819640D03*
X73974960Y-148452840D03*
X78790800Y-155585158D03*
X70693280Y-141594840D03*
X79959200Y-156392880D03*
X70826251Y-144320150D03*
X80919320Y-157002480D03*
X149062440Y-130154680D03*
X125244023Y-160120324D03*
X152877520Y-129189480D03*
X123845320Y-129235200D03*
X125369320Y-140299440D03*
X99054920Y-147706080D03*
X143372840Y-112151160D03*
X142849662Y-160176453D03*
X154261601Y-161628039D03*
X156758640Y-162687000D03*
X158968440Y-162681920D03*
X161551401Y-123045439D03*
X119104250Y-134049610D03*
X144907000Y-163412010D03*
X90058240Y-132882640D03*
X90371505Y-130588176D03*
X133146800Y-120822720D03*
X152928320Y-123911360D03*
X155102558Y-154833320D03*
X150357840Y-149037040D03*
X141173200Y-148808440D03*
X165481000Y-128275080D03*
X160502600Y-135031480D03*
X143345021Y-134658221D03*
X142731330Y-153283688D03*
X150078440Y-152755600D03*
X157688280Y-152095200D03*
X127873760Y-131241800D03*
X157673040Y-157434280D03*
X150713440Y-158323280D03*
X162219640Y-124968000D03*
X130276600Y-128249680D03*
X123677680Y-127944880D03*
X136296400Y-137427810D03*
X133126480Y-115773200D03*
X136880600Y-116027200D03*
X142006320Y-158485840D03*
X122312590Y-121081752D03*
X122312590Y-132963534D03*
X155437840Y-134035800D03*
X165475920Y-133949440D03*
X118379240Y-130937000D03*
X97825560Y-130175000D03*
X98181160Y-125100080D03*
X110867351Y-131662010D03*
X113685320Y-134499621D03*
X83022440Y-124556520D03*
X83022440Y-128452880D03*
X118316749Y-151091130D03*
X117668040Y-152877520D03*
X116895880Y-155910280D03*
X116027200Y-158658560D03*
D18*
X66945458Y-116936520D02*
X66825859Y-116816921D01*
X71323200Y-116936520D02*
X66945458Y-116936520D01*
X68788280Y-162554920D02*
X82082640Y-162554920D01*
X82082640Y-162740340D02*
X84556600Y-165214300D01*
X82082640Y-162554920D02*
X82082640Y-162740340D01*
X121244360Y-116540280D02*
X118704360Y-116540280D01*
X71432420Y-97360120D02*
X72941399Y-98869099D01*
X71432420Y-96210120D02*
X71432420Y-97360120D01*
X79804995Y-104499250D02*
X79957395Y-104651650D01*
X72941399Y-100402641D02*
X77038008Y-104499250D01*
X72941399Y-98869099D02*
X72941399Y-100402641D01*
X77038008Y-104499250D02*
X79804995Y-104499250D01*
X79957395Y-104651650D02*
X80523080Y-104651650D01*
X80573880Y-114091720D02*
X117853039Y-114091720D01*
X117853039Y-114091720D02*
X117895109Y-114133790D01*
X160426400Y-105745280D02*
X162966400Y-105745280D01*
X160426400Y-119461280D02*
X162966400Y-119461280D01*
X83050380Y-161168080D02*
X87096600Y-165214300D01*
X69626480Y-161168080D02*
X83050380Y-161168080D01*
X159301399Y-104620279D02*
X159626401Y-104945281D01*
X144596037Y-104620279D02*
X159301399Y-104620279D01*
X143902398Y-103926640D02*
X144596037Y-104620279D01*
X79005398Y-103926640D02*
X143902398Y-103926640D01*
X74173080Y-97360120D02*
X75481399Y-98668439D01*
X74173080Y-96210120D02*
X74173080Y-97360120D01*
X159626401Y-104945281D02*
X160426400Y-105745280D01*
X75481399Y-98668439D02*
X75481399Y-100402641D01*
X75481399Y-100402641D02*
X79005398Y-103926640D01*
X105052569Y-166967331D02*
X106241599Y-165778301D01*
X108591601Y-165752891D02*
X109228011Y-166389301D01*
X149327921Y-163812009D02*
X149727920Y-163412010D01*
X109228011Y-166389301D02*
X149124419Y-166389301D01*
X149327921Y-166185799D02*
X149327921Y-163812009D01*
X106241599Y-164650299D02*
X106852599Y-164039299D01*
X89636600Y-165214300D02*
X91389631Y-166967331D01*
X106852599Y-164039299D02*
X107980601Y-164039299D01*
X149124419Y-166389301D02*
X149327921Y-166185799D01*
X108591601Y-164650299D02*
X108591601Y-165752891D01*
X91389631Y-166967331D02*
X105052569Y-166967331D01*
X106241599Y-165778301D02*
X106241599Y-164650299D01*
X107980601Y-164039299D02*
X108591601Y-164650299D01*
X84373720Y-102900480D02*
X84773719Y-103300479D01*
X84773719Y-103300479D02*
X122637601Y-103300479D01*
X122637601Y-103300479D02*
X123037600Y-102900480D01*
X121508559Y-160137052D02*
X123866380Y-160137052D01*
X92176600Y-165214300D02*
X97334093Y-160056807D01*
X123971240Y-160032192D02*
X124371239Y-159632193D01*
X123866380Y-160137052D02*
X123971240Y-160032192D01*
X121428314Y-160056807D02*
X121508559Y-160137052D01*
X97334093Y-160056807D02*
X121428314Y-160056807D01*
X86446232Y-144387557D02*
X86646040Y-144187749D01*
X81600040Y-148076920D02*
X81600040Y-145723418D01*
X81600040Y-145723418D02*
X82935901Y-144387557D01*
X97224794Y-144187749D02*
X97499793Y-143912750D01*
X82935901Y-144387557D02*
X86446232Y-144387557D01*
X86646040Y-144187749D02*
X97224794Y-144187749D01*
X97499793Y-143912750D02*
X98065478Y-143912750D01*
X100736400Y-102311200D02*
X87335360Y-102311200D01*
X87335360Y-102311200D02*
X87025900Y-102001740D01*
X85003640Y-108193840D02*
X85003640Y-105049320D01*
X86934040Y-144637760D02*
X103279278Y-144637760D01*
X85105240Y-146466560D02*
X86934040Y-144637760D01*
X103558400Y-144358638D02*
X104124085Y-144358638D01*
X103279278Y-144637760D02*
X103558400Y-144358638D01*
X82588835Y-154010360D02*
X83154520Y-154010360D01*
X71790560Y-150982680D02*
X74818240Y-154010360D01*
X74818240Y-154010360D02*
X82588835Y-154010360D01*
X154277279Y-139814081D02*
X145382199Y-139814081D01*
X155402280Y-138689080D02*
X154277279Y-139814081D01*
X145382199Y-139814081D02*
X144414240Y-140782040D01*
X100360601Y-166389301D02*
X91469461Y-166389301D01*
X100971601Y-165778301D02*
X100360601Y-166389301D01*
X103177614Y-162689266D02*
X100971601Y-164895279D01*
X141927853Y-162689266D02*
X103177614Y-162689266D01*
X100971601Y-164895279D02*
X100971601Y-165778301D01*
X144211040Y-160406080D02*
X141927853Y-162689266D01*
X90811601Y-165731441D02*
X90811601Y-164650299D01*
X90811601Y-164650299D02*
X86201622Y-160040320D01*
X91469461Y-166389301D02*
X90811601Y-165731441D01*
X86201622Y-160040320D02*
X83124040Y-160040320D01*
X74330560Y-150982680D02*
X76596240Y-153248360D01*
X84818955Y-153248360D02*
X84920555Y-153349960D01*
X84920555Y-153349960D02*
X85486240Y-153349960D01*
X76596240Y-153248360D02*
X84818955Y-153248360D01*
X155346400Y-141284960D02*
X157942280Y-138689080D01*
X147782280Y-141284960D02*
X155346400Y-141284960D01*
X78252320Y-152364440D02*
X76870560Y-150982680D01*
X88280240Y-152364440D02*
X78252320Y-152364440D01*
X133080760Y-132847080D02*
X133080760Y-133978450D01*
X133080760Y-133978450D02*
X135805110Y-136702800D01*
X135805110Y-136702800D02*
X138191240Y-136702800D01*
X130246120Y-161803080D02*
X102138480Y-161803080D01*
X102138480Y-161803080D02*
X101351080Y-162590480D01*
X138132921Y-147596961D02*
X138932920Y-148396960D01*
X114074959Y-147277039D02*
X137812999Y-147277039D01*
X137812999Y-147277039D02*
X138132921Y-147596961D01*
X111794477Y-149557521D02*
X114074959Y-147277039D01*
X79410560Y-150982680D02*
X80835719Y-149557521D01*
X96938881Y-149557521D02*
X111794477Y-149557521D01*
X80835719Y-149557521D02*
X96938881Y-149557521D01*
X139732919Y-147596961D02*
X138932920Y-148396960D01*
X140057921Y-147271959D02*
X139732919Y-147596961D01*
X148662074Y-147271959D02*
X140057921Y-147271959D01*
X148877755Y-147487640D02*
X148662074Y-147271959D01*
X149443440Y-147487640D02*
X148877755Y-147487640D01*
X79743199Y-131376521D02*
X92641682Y-131376521D01*
X78943200Y-132176520D02*
X79743199Y-131376521D01*
X92641682Y-131376521D02*
X93655310Y-130362893D01*
X93655310Y-130362893D02*
X94055309Y-129962894D01*
X81361878Y-120020080D02*
X87235320Y-120020080D01*
X80749359Y-119407561D02*
X81361878Y-120020080D01*
X87235320Y-120020080D02*
X88285320Y-120020080D01*
X80749359Y-116907561D02*
X80749359Y-119407561D01*
X79202280Y-115360482D02*
X80749359Y-116907561D01*
X79202280Y-114391440D02*
X79202280Y-115360482D01*
X72151240Y-114391440D02*
X72100440Y-114340640D01*
X79202280Y-114391440D02*
X72151240Y-114391440D01*
X114790001Y-125285281D02*
X117823081Y-128318361D01*
X112209361Y-125285281D02*
X114790001Y-125285281D01*
X117823081Y-128318361D02*
X118623080Y-129118360D01*
X111084360Y-124160280D02*
X112209361Y-125285281D01*
X95905320Y-140340080D02*
X91760173Y-140340080D01*
X91760173Y-140340080D02*
X91659870Y-140239777D01*
X111754642Y-142052727D02*
X112320327Y-142052727D01*
X111379474Y-141677559D02*
X111754642Y-142052727D01*
X95905320Y-140340080D02*
X97242799Y-141677559D01*
X97242799Y-141677559D02*
X111379474Y-141677559D01*
X95890080Y-142864840D02*
X95905320Y-142880080D01*
X92384880Y-142864840D02*
X95890080Y-142864840D01*
X110695521Y-151512521D02*
X110062042Y-152146000D01*
X113483590Y-150942040D02*
X112913109Y-151512521D01*
X110062042Y-152146000D02*
X107421680Y-152146000D01*
X112913109Y-151512521D02*
X110695521Y-151512521D01*
X114614960Y-150942040D02*
X113483590Y-150942040D01*
X97689251Y-142227519D02*
X97036690Y-142880080D01*
X106680954Y-142227519D02*
X97689251Y-142227519D01*
X97036690Y-142880080D02*
X95905320Y-142880080D01*
X106855995Y-142402560D02*
X106680954Y-142227519D01*
X107421680Y-142402560D02*
X106855995Y-142402560D01*
X89870280Y-138755120D02*
X88285320Y-140340080D01*
X93187520Y-138755120D02*
X89870280Y-138755120D01*
X93587519Y-139155119D02*
X93187520Y-138755120D01*
X93647479Y-139215079D02*
X93587519Y-139155119D01*
X105300999Y-139215079D02*
X93647479Y-139215079D01*
X105846880Y-139760960D02*
X105300999Y-139215079D01*
X107827957Y-154822079D02*
X107687504Y-154962532D01*
X114614960Y-153482040D02*
X111266002Y-153482040D01*
X111266002Y-153482040D02*
X109925963Y-154822079D01*
X107687504Y-154962532D02*
X107287505Y-155362531D01*
X109925963Y-154822079D02*
X107827957Y-154822079D01*
X88412320Y-137673080D02*
X88285320Y-137800080D01*
X93797120Y-137673080D02*
X88412320Y-137673080D01*
X111266002Y-156022040D02*
X110110521Y-157177521D01*
X110110521Y-157177521D02*
X105955881Y-157177521D01*
X114614960Y-156022040D02*
X111266002Y-156022040D01*
X105955881Y-157177521D02*
X105592880Y-156814520D01*
X94197119Y-137273081D02*
X93797120Y-137673080D01*
X95050559Y-136419641D02*
X94197119Y-137273081D01*
X99965561Y-136419641D02*
X95050559Y-136419641D01*
X100365560Y-136819640D02*
X99965561Y-136419641D01*
X82368244Y-148432520D02*
X81998842Y-148801922D01*
X81252038Y-148801922D02*
X80902956Y-148452840D01*
X74540645Y-148452840D02*
X73974960Y-148452840D01*
X101950520Y-148432520D02*
X82368244Y-148432520D01*
X81998842Y-148801922D02*
X81252038Y-148801922D01*
X80902956Y-148452840D02*
X74540645Y-148452840D01*
X98187678Y-154735362D02*
X82806518Y-154735362D01*
X79654398Y-154721560D02*
X79190799Y-155185159D01*
X101950520Y-150972520D02*
X98187678Y-154735362D01*
X82806518Y-154735362D02*
X82792716Y-154721560D01*
X82792716Y-154721560D02*
X79654398Y-154721560D01*
X79190799Y-155185159D02*
X78790800Y-155585158D01*
X76893661Y-141281319D02*
X77793660Y-140381320D01*
X71288226Y-141624101D02*
X76550879Y-141624101D01*
X71258965Y-141594840D02*
X71288226Y-141624101D01*
X76550879Y-141624101D02*
X76893661Y-141281319D01*
X70693280Y-141594840D02*
X71258965Y-141594840D01*
X101950520Y-153512520D02*
X100263960Y-155199080D01*
X80359199Y-155992881D02*
X79959200Y-156392880D01*
X81153000Y-155199080D02*
X80359199Y-155992881D01*
X100263960Y-155199080D02*
X81153000Y-155199080D01*
X79273759Y-141606321D02*
X79598761Y-141281319D01*
X79273759Y-143826223D02*
X79273759Y-141606321D01*
X78779832Y-144320150D02*
X79273759Y-143826223D01*
X79598761Y-141281319D02*
X80498760Y-140381320D01*
X70826251Y-144320150D02*
X78779832Y-144320150D01*
X81869280Y-156052520D02*
X81319319Y-156602481D01*
X81319319Y-156602481D02*
X80919320Y-157002480D01*
X101950520Y-156052520D02*
X81869280Y-156052520D01*
X125438668Y-90983540D02*
X126711460Y-90983540D01*
X112268498Y-90983540D02*
X125438668Y-90983540D01*
X111376679Y-91875359D02*
X112268498Y-90983540D01*
X111376679Y-95030361D02*
X111376679Y-91875359D01*
X107421680Y-98985360D02*
X111376679Y-95030361D01*
X107421680Y-100035360D02*
X107421680Y-98985360D01*
X124744480Y-148432520D02*
X127086360Y-148432520D01*
X122234960Y-150942040D02*
X124744480Y-148432520D01*
X112171370Y-149817039D02*
X121109959Y-149817039D01*
X109570520Y-150972520D02*
X111015889Y-150972520D01*
X111015889Y-150972520D02*
X112171370Y-149817039D01*
X121109959Y-149817039D02*
X121434961Y-150142041D01*
X121434961Y-150142041D02*
X122234960Y-150942040D01*
X115698510Y-94298530D02*
X123551468Y-94298530D01*
X123551468Y-94298530D02*
X125551459Y-92298539D01*
X109961680Y-100035360D02*
X115698510Y-94298530D01*
X128521641Y-91880999D02*
X129421640Y-90981000D01*
X128104101Y-92298539D02*
X128521641Y-91880999D01*
X125551459Y-92298539D02*
X128104101Y-92298539D01*
X124576840Y-153482040D02*
X127086360Y-150972520D01*
X122234960Y-153482040D02*
X124576840Y-153482040D01*
X110930521Y-152152519D02*
X120905439Y-152152519D01*
X121434961Y-152682041D02*
X122234960Y-153482040D01*
X109570520Y-153512520D02*
X110930521Y-152152519D01*
X120905439Y-152152519D02*
X121434961Y-152682041D01*
X130901739Y-92206001D02*
X131226741Y-91880999D01*
X130901739Y-94425903D02*
X130901739Y-92206001D01*
X130579101Y-94748541D02*
X130901739Y-94425903D01*
X115041680Y-100035360D02*
X120328499Y-94748541D01*
X131226741Y-91880999D02*
X132126740Y-90981000D01*
X120328499Y-94748541D02*
X130579101Y-94748541D01*
X109570520Y-156052520D02*
X110769400Y-154853640D01*
X121066560Y-154853640D02*
X122234960Y-156022040D01*
X110769400Y-154853640D02*
X121066560Y-154853640D01*
X125371429Y-155227451D02*
X126286361Y-154312519D01*
X122234960Y-156022040D02*
X123029549Y-155227451D01*
X126286361Y-154312519D02*
X127086360Y-153512520D01*
X123029549Y-155227451D02*
X125371429Y-155227451D01*
X133606839Y-92206001D02*
X133931841Y-91880999D01*
X133606839Y-94425903D02*
X133606839Y-92206001D01*
X132406822Y-95625920D02*
X133606839Y-94425903D01*
X121991120Y-95625920D02*
X132406822Y-95625920D01*
X133931841Y-91880999D02*
X134831840Y-90981000D01*
X117581680Y-100035360D02*
X121991120Y-95625920D01*
X121434961Y-157762041D02*
X122234960Y-158562040D01*
X121109959Y-157437039D02*
X121434961Y-157762041D01*
X110726001Y-157437039D02*
X121109959Y-157437039D01*
X109570520Y-158592520D02*
X110726001Y-157437039D01*
X122234960Y-158562040D02*
X123034959Y-157762041D01*
X123034959Y-157762041D02*
X125376839Y-157762041D01*
X125376839Y-157762041D02*
X126286361Y-156852519D01*
X126286361Y-156852519D02*
X127086360Y-156052520D01*
X143752319Y-129446239D02*
X147744399Y-129446239D01*
X141476479Y-131722079D02*
X143752319Y-129446239D01*
X129125761Y-131722079D02*
X141476479Y-131722079D01*
X147744399Y-129446239D02*
X148503640Y-130205480D01*
X128000760Y-132847080D02*
X129125761Y-131722079D01*
X149011640Y-130205480D02*
X149062440Y-130154680D01*
X148503640Y-130205480D02*
X149011640Y-130205480D01*
X95097600Y-164833300D02*
X99343837Y-160587063D01*
X99343837Y-160587063D02*
X124777284Y-160587063D01*
X124844024Y-160520323D02*
X125244023Y-160120324D01*
X124777284Y-160587063D02*
X124844024Y-160520323D01*
X125369320Y-141852682D02*
X122484963Y-144737039D01*
X104771003Y-144737039D02*
X102200523Y-147307519D01*
X125369320Y-140299440D02*
X125369320Y-141852682D01*
X102200523Y-147307519D02*
X99453481Y-147307519D01*
X122484963Y-144737039D02*
X104771003Y-144737039D01*
X99453481Y-147307519D02*
X99054920Y-147706080D01*
X124411005Y-129235200D02*
X123845320Y-129235200D01*
X143191519Y-128841071D02*
X142797390Y-129235200D01*
X147775642Y-128841071D02*
X143191519Y-128841071D01*
X152877520Y-129189480D02*
X148124051Y-129189480D01*
X148124051Y-129189480D02*
X147775642Y-128841071D01*
X142797390Y-129235200D02*
X124411005Y-129235200D01*
X149052280Y-112151160D02*
X150266400Y-113365280D01*
X143372840Y-112151160D02*
X149052280Y-112151160D01*
X142449663Y-160576452D02*
X142849662Y-160176453D01*
X99796600Y-165214300D02*
X99796600Y-163071956D01*
X99796600Y-163071956D02*
X101831482Y-161037074D01*
X101831482Y-161037074D02*
X141989041Y-161037074D01*
X141989041Y-161037074D02*
X142449663Y-160576452D01*
X142114253Y-163139277D02*
X104114443Y-163139277D01*
X154261601Y-161628039D02*
X143625491Y-161628039D01*
X104114443Y-163139277D02*
X102616000Y-164637720D01*
X143625491Y-161628039D02*
X142114253Y-163139277D01*
X142300653Y-163589288D02*
X143202941Y-162687000D01*
X106501612Y-163589288D02*
X142300653Y-163589288D01*
X104876600Y-165214300D02*
X106501612Y-163589288D01*
X156192955Y-162687000D02*
X156758640Y-162687000D01*
X143202941Y-162687000D02*
X156192955Y-162687000D01*
X156851601Y-164233074D02*
X156851601Y-165778301D01*
X156851601Y-165778301D02*
X154095822Y-168534080D01*
X158402755Y-162681920D02*
X156851601Y-164233074D01*
X158968440Y-162681920D02*
X158402755Y-162681920D01*
X154095822Y-168534080D02*
X110736380Y-168534080D01*
X110736380Y-168534080D02*
X107416600Y-165214300D01*
X119504359Y-123360281D02*
X118704360Y-124160280D01*
X119829361Y-123035279D02*
X119504359Y-123360281D01*
X157208001Y-123045439D02*
X157197841Y-123035279D01*
X157197841Y-123035279D02*
X119829361Y-123035279D01*
X161551401Y-123045439D02*
X157208001Y-123045439D01*
X157511769Y-123035279D02*
X157197841Y-123035279D01*
X118263566Y-133774611D02*
X118538565Y-134049610D01*
X113117347Y-133774611D02*
X118263566Y-133774611D01*
X112975437Y-133916521D02*
X113117347Y-133774611D01*
X118538565Y-134049610D02*
X119104250Y-134049610D01*
X78943200Y-134716520D02*
X79743199Y-133916521D01*
X79743199Y-133916521D02*
X112975437Y-133916521D01*
X119227597Y-164364301D02*
X119552599Y-164039299D01*
X117576600Y-165214300D02*
X118426599Y-164364301D01*
X144507001Y-163812009D02*
X144907000Y-163412010D01*
X144279711Y-164039299D02*
X144507001Y-163812009D01*
X118426599Y-164364301D02*
X119227597Y-164364301D01*
X119552599Y-164039299D02*
X144279711Y-164039299D01*
X88447880Y-132882640D02*
X88285320Y-132720080D01*
X90058240Y-132882640D02*
X88447880Y-132882640D01*
X89971506Y-130188177D02*
X90371505Y-130588176D01*
X89963409Y-130180080D02*
X89971506Y-130188177D01*
X88285320Y-130180080D02*
X89963409Y-130180080D01*
X146926401Y-118661281D02*
X147726400Y-119461280D01*
X144839877Y-118336279D02*
X146601399Y-118336279D01*
X143778157Y-117274559D02*
X144839877Y-118336279D01*
X146601399Y-118336279D02*
X146926401Y-118661281D01*
X139367041Y-117274559D02*
X143778157Y-117274559D01*
X138242040Y-118399560D02*
X139367041Y-117274559D01*
X138242040Y-115229640D02*
X138242040Y-118399560D01*
X147726400Y-105745280D02*
X138242040Y-115229640D01*
X148904960Y-120822720D02*
X150266400Y-119461280D01*
X133146800Y-120822720D02*
X148904960Y-120822720D01*
X142016480Y-123911360D02*
X140700760Y-125227080D01*
X152928320Y-123911360D02*
X142016480Y-123911360D01*
X154536873Y-154833320D02*
X155102558Y-154833320D01*
X154478234Y-154891959D02*
X154536873Y-154833320D01*
X140057921Y-154891959D02*
X154478234Y-154891959D01*
X138932920Y-156016960D02*
X140057921Y-154891959D01*
X152257760Y-150936960D02*
X153136600Y-150936960D01*
X150357840Y-149037040D02*
X152257760Y-150936960D01*
X145421550Y-148396960D02*
X145010070Y-148808440D01*
X146552920Y-148396960D02*
X145421550Y-148396960D01*
X145010070Y-148808440D02*
X141173200Y-148808440D01*
X161282279Y-130269081D02*
X160482280Y-131069080D01*
X162876281Y-128675079D02*
X161282279Y-130269081D01*
X165081001Y-128675079D02*
X162876281Y-128675079D01*
X165481000Y-128275080D02*
X165081001Y-128675079D01*
X143718280Y-135031480D02*
X143345021Y-134658221D01*
X160502600Y-135031480D02*
X143718280Y-135031480D01*
X142538058Y-153476960D02*
X142731330Y-153283688D01*
X138932920Y-153476960D02*
X142538058Y-153476960D01*
X153136600Y-153476960D02*
X160756600Y-153476960D01*
X149471599Y-149811959D02*
X145087121Y-149811959D01*
X153136600Y-153476960D02*
X149471599Y-149811959D01*
X143962120Y-150936960D02*
X138932920Y-150936960D01*
X145087121Y-149811959D02*
X143962120Y-150936960D01*
X147684290Y-153476960D02*
X148405650Y-152755600D01*
X146552920Y-153476960D02*
X147684290Y-153476960D01*
X148405650Y-152755600D02*
X150078440Y-152755600D01*
X157688280Y-148925280D02*
X160756600Y-145856960D01*
X157688280Y-152095200D02*
X157688280Y-148925280D01*
X127308075Y-131241800D02*
X127873760Y-131241800D01*
X124335759Y-131787079D02*
X124881038Y-131241800D01*
X124335759Y-132347671D02*
X124335759Y-131787079D01*
X124881038Y-131241800D02*
X127308075Y-131241800D01*
X95905320Y-135260080D02*
X121423350Y-135260080D01*
X121423350Y-135260080D02*
X124335759Y-132347671D01*
X147677921Y-157141961D02*
X147352919Y-156816959D01*
X156815036Y-157141961D02*
X147677921Y-157141961D01*
X147352919Y-156816959D02*
X146552920Y-156016960D01*
X157107355Y-157434280D02*
X156815036Y-157141961D01*
X157673040Y-157434280D02*
X157107355Y-157434280D01*
X157942280Y-131069080D02*
X155264260Y-128391060D01*
X155264260Y-128391060D02*
X143005119Y-128391060D01*
X143005119Y-128391060D02*
X142931700Y-128464479D01*
X142931700Y-128464479D02*
X131564401Y-128464479D01*
X129127001Y-126027079D02*
X128800759Y-126027079D01*
X131564401Y-128464479D02*
X129127001Y-126027079D01*
X128800759Y-126027079D02*
X128000760Y-125227080D01*
X146786600Y-158323280D02*
X146552920Y-158556960D01*
X150713440Y-158323280D02*
X146786600Y-158323280D01*
X134820761Y-126027079D02*
X135620760Y-125227080D01*
X134495759Y-126352081D02*
X134820761Y-126027079D01*
X131665761Y-126352081D02*
X134495759Y-126352081D01*
X130540760Y-125227080D02*
X131665761Y-126352081D01*
X143730597Y-126352081D02*
X145114678Y-124968000D01*
X136745761Y-126352081D02*
X143730597Y-126352081D01*
X135620760Y-125227080D02*
X136745761Y-126352081D01*
X145114678Y-124968000D02*
X162219640Y-124968000D01*
X136635530Y-133647079D02*
X138922733Y-135934282D01*
X135620760Y-132847080D02*
X136420759Y-133647079D01*
X152062281Y-137889081D02*
X152862280Y-138689080D01*
X150107482Y-135934282D02*
X152062281Y-137889081D01*
X136420759Y-133647079D02*
X136635530Y-133647079D01*
X138922733Y-135934282D02*
X150107482Y-135934282D01*
X130276600Y-128249680D02*
X123931680Y-128249680D01*
X123677680Y-127995680D02*
X123677680Y-127944880D01*
X123931680Y-128249680D02*
X123677680Y-127995680D01*
X135124131Y-138600079D02*
X135896401Y-137827809D01*
X95905320Y-137800080D02*
X96705319Y-138600079D01*
X96705319Y-138600079D02*
X135124131Y-138600079D01*
X135896401Y-137827809D02*
X136296400Y-137427810D01*
X133126480Y-115773200D02*
X136677400Y-115773200D01*
X136880600Y-115976400D02*
X136880600Y-116027200D01*
X136677400Y-115773200D02*
X136880600Y-115976400D01*
X161881601Y-159096961D02*
X161881601Y-152061961D01*
X142006320Y-158485840D02*
X143363802Y-158485840D01*
X144559923Y-159681961D02*
X161296601Y-159681961D01*
X161881601Y-152061961D02*
X161556599Y-151736959D01*
X161296601Y-159681961D02*
X161881601Y-159096961D01*
X161556599Y-151736959D02*
X160756600Y-150936960D01*
X143363802Y-158485840D02*
X144559923Y-159681961D01*
X123011462Y-120382880D02*
X122712589Y-120681753D01*
X122712589Y-120681753D02*
X122312590Y-121081752D01*
X128638720Y-120382880D02*
X123011462Y-120382880D01*
X130622040Y-118399560D02*
X128638720Y-120382880D01*
X121746905Y-132963534D02*
X122312590Y-132963534D01*
X121385839Y-133324600D02*
X121746905Y-132963534D01*
X96509840Y-133324600D02*
X121385839Y-133324600D01*
X95905320Y-132720080D02*
X96509840Y-133324600D01*
X153987281Y-132194081D02*
X153662279Y-131869079D01*
X161897279Y-132194081D02*
X153987281Y-132194081D01*
X153662279Y-131869079D02*
X152862280Y-131069080D01*
X163022280Y-131069080D02*
X161897279Y-132194081D01*
X151453650Y-131069080D02*
X152862280Y-131069080D01*
X150322280Y-131069080D02*
X151453650Y-131069080D01*
X155437840Y-134035800D02*
X165389560Y-134035800D01*
X165389560Y-134035800D02*
X165475920Y-133949440D01*
X118379240Y-130937000D02*
X102697280Y-130937000D01*
X99515679Y-132169321D02*
X97825560Y-130479202D01*
X101464959Y-132169321D02*
X99515679Y-132169321D01*
X102697280Y-130937000D02*
X101464959Y-132169321D01*
X97825560Y-130479202D02*
X97825560Y-130175000D01*
X98181160Y-125100080D02*
X95905320Y-125100080D01*
X110467352Y-132062009D02*
X110867351Y-131662010D01*
X109763561Y-132765800D02*
X110467352Y-132062009D01*
X98491040Y-132765800D02*
X109763561Y-132765800D01*
X95905320Y-130180080D02*
X98491040Y-132765800D01*
X78943200Y-124556520D02*
X83022440Y-124556520D01*
X109959359Y-124410283D02*
X109959359Y-122745281D01*
X99515679Y-127419319D02*
X106950323Y-127419319D01*
X115364361Y-117340279D02*
X116164360Y-116540280D01*
X98082119Y-128852879D02*
X99515679Y-127419319D01*
X106950323Y-127419319D02*
X109959359Y-124410283D01*
X83422439Y-128852879D02*
X98082119Y-128852879D01*
X109959359Y-122745281D02*
X115364361Y-117340279D01*
X83022440Y-128452880D02*
X83422439Y-128852879D01*
X124326837Y-152067041D02*
X121694959Y-152067041D01*
X121694959Y-152067041D02*
X120719048Y-151091130D01*
X134706360Y-150972520D02*
X133581359Y-149847519D01*
X133581359Y-149847519D02*
X126546359Y-149847519D01*
X126546359Y-149847519D02*
X124326837Y-152067041D01*
X118882434Y-151091130D02*
X118316749Y-151091130D01*
X120719048Y-151091130D02*
X118882434Y-151091130D01*
X133906361Y-152712521D02*
X134706360Y-153512520D01*
X126546359Y-152387519D02*
X133581359Y-152387519D01*
X124156438Y-154777440D02*
X126546359Y-152387519D01*
X119965438Y-152877520D02*
X121865358Y-154777440D01*
X117668040Y-152877520D02*
X119965438Y-152877520D01*
X121865358Y-154777440D02*
X124156438Y-154777440D01*
X133581359Y-152387519D02*
X133906361Y-152712521D01*
X107419359Y-124410283D02*
X107419359Y-122745281D01*
X105533121Y-126296521D02*
X107419359Y-124410283D01*
X112824361Y-117340279D02*
X113624360Y-116540280D01*
X107419359Y-122745281D02*
X112824361Y-117340279D01*
X79743199Y-126296521D02*
X105533121Y-126296521D01*
X78943200Y-127096520D02*
X79743199Y-126296521D01*
X133906361Y-155252521D02*
X134706360Y-156052520D01*
X133581359Y-154927519D02*
X133906361Y-155252521D01*
X126546359Y-154927519D02*
X133581359Y-154927519D01*
X121694959Y-157147041D02*
X124326837Y-157147041D01*
X120858197Y-156310279D02*
X121694959Y-157147041D01*
X117295879Y-156310279D02*
X120858197Y-156310279D01*
X116895880Y-155910280D02*
X117295879Y-156310279D01*
X124326837Y-157147041D02*
X126546359Y-154927519D01*
X95655317Y-121145081D02*
X97142519Y-121145081D01*
X93115317Y-123685081D02*
X95655317Y-121145081D01*
X72454570Y-127096520D02*
X73869569Y-125681521D01*
X86038877Y-125681521D02*
X88035317Y-123685081D01*
X88035317Y-123685081D02*
X93115317Y-123685081D01*
X73869569Y-125681521D02*
X86038877Y-125681521D01*
X71323200Y-127096520D02*
X72454570Y-127096520D01*
X110284361Y-117340279D02*
X111084360Y-116540280D01*
X109959359Y-117665281D02*
X110284361Y-117340279D01*
X102924359Y-117665281D02*
X109959359Y-117665281D01*
X102708678Y-117449600D02*
X102924359Y-117665281D01*
X99727358Y-117449600D02*
X102708678Y-117449600D01*
X97142519Y-120034439D02*
X99727358Y-117449600D01*
X97142519Y-121145081D02*
X97142519Y-120034439D01*
X107002799Y-114998719D02*
X107744361Y-115740281D01*
X99678239Y-114998719D02*
X107002799Y-114998719D01*
X96777997Y-117898961D02*
X99678239Y-114998719D01*
X96361437Y-117898961D02*
X96777997Y-117898961D01*
X93115317Y-121145081D02*
X96361437Y-117898961D01*
X88035317Y-121145081D02*
X93115317Y-121145081D01*
X85748879Y-123431519D02*
X88035317Y-121145081D01*
X107744361Y-115740281D02*
X108544360Y-116540280D01*
X72448201Y-123431519D02*
X85748879Y-123431519D01*
X71323200Y-124556520D02*
X72448201Y-123431519D01*
X120666478Y-158658560D02*
X121694959Y-159687041D01*
X123554811Y-158907191D02*
X125736029Y-158907191D01*
X116027200Y-158658560D02*
X120666478Y-158658560D01*
X125736029Y-158907191D02*
X126546359Y-159717521D01*
X133906361Y-159392519D02*
X134706360Y-158592520D01*
X121694959Y-159687041D02*
X122774961Y-159687041D01*
X122774961Y-159687041D02*
X123554811Y-158907191D01*
X126546359Y-159717521D02*
X133581359Y-159717521D01*
X133581359Y-159717521D02*
X133906361Y-159392519D01*
M02*
