M48
; DRILL file {KiCad (5.1.4-0-10_14)} date Friday, July 24, 2020 at 03:49:15 PM
; FORMAT={-:-/ absolute / inch / decimal}
; #@! TF.CreationDate,2020-07-24T15:49:15-07:00
; #@! TF.GenerationSoftware,Kicad,Pcbnew,(5.1.4-0-10_14)
; #@! TF.FileFunction,Plated,1,4,PTH
FMAT,2
INCH
T1C0.0157
T2C0.0315
T3C0.0354
T4C0.0394
%
G90
G05
T1
X2.6309Y-4.5991
X2.7082Y-6.3998
X2.7412Y-6.3452
X2.7832Y-5.5746
X2.7884Y-5.6819
X2.8386Y-4.5016
X2.9124Y-5.8446
X3.102Y-6.1254
X3.1182Y-4.5036
X3.148Y-6.1572
X3.1702Y-4.1201
X3.1722Y-4.4918
X3.1858Y-6.1812
X3.2126Y-5.8298
X3.2686Y-4.9038
X3.2686Y-5.0572
X3.2726Y-6.3008
X3.2738Y-6.0634
X3.3218Y-4.0512
X3.3466Y-4.1358
X3.3466Y-4.2596
X3.3506Y-5.7664
X3.3656Y-6.0374
X3.4262Y-4.0158
X3.4756Y-5.9986
X3.479Y-6.3252
X3.5456Y-5.2316
X3.5579Y-5.1413
X3.6087Y-5.5213
X3.6372Y-5.6246
X3.6688Y-5.4628
X3.6928Y-5.4202
X3.703Y-5.1166
X3.8165Y-5.8881
X3.8514Y-5.125
X3.8608Y-5.6659
X3.8654Y-4.9252
X3.8998Y-5.8152
X3.9514Y-5.3866
X3.966Y-4.028
X3.9902Y-6.4012
X4.0994Y-5.6834
X4.1572Y-6.1738
X4.1672Y-5.5024
X4.2239Y-6.1166
X4.2292Y-5.6064
X4.2292Y-5.99
X4.3649Y-5.1835
X4.4221Y-5.5926
X4.4758Y-5.2953
X4.568Y-6.2464
X4.6022Y-6.1382
X4.6326Y-6.0188
X4.6415Y-4.4935
X4.6581Y-5.9485
X4.6606Y-5.155
X4.6891Y-5.2775
X4.8155Y-4.767
X4.8155Y-5.2348
X4.844Y-4.0512
X4.8692Y-5.0372
X4.8758Y-5.088
X4.8965Y-6.2847
X4.9309Y-6.3039
X4.9358Y-5.5236
X5.0344Y-5.167
X5.1278Y-6.3702
X5.129Y-5.0492
X5.2412Y-4.558
X5.242Y-4.7568
X5.366Y-5.4105
X5.389Y-4.568
X5.4406Y-5.382
X5.558Y-5.8586
X5.5908Y-6.2396
X5.6193Y-6.0348
X5.624Y-6.3062
X5.6435Y-5.3015
X5.6446Y-4.4154
X5.6776Y-6.3152
X5.6856Y-5.5426
X5.705Y-6.4335
X5.8182Y-5.5624
X5.8686Y-5.1242
X5.8766Y-6.0696
X5.8836Y-5.8066
X5.8948Y-6.4335
X5.9086Y-6.014
X5.9196Y-5.8676
X5.9336Y-6.2332
X6.0188Y-5.0862
X6.0208Y-4.8784
X6.0733Y-6.3633
X6.1064Y-6.0958
X6.1196Y-5.277
X6.1716Y-6.405
X6.2076Y-6.1982
X6.2082Y-5.988
X6.2586Y-6.4048
X6.319Y-5.3162
X6.3603Y-4.8443
X6.3866Y-4.92
X6.5148Y-5.2736
X6.515Y-5.0502
T2
X6.0553Y-3.8218
X6.1553Y-3.8218
X6.2553Y-3.8218
X6.3553Y-3.8218
X6.4553Y-3.8218
X5.2218Y-5.527
X5.3202Y-5.527
X3.4758Y-4.7252
X3.4758Y-4.8252
X3.4758Y-4.9252
X3.4758Y-5.0252
X3.4758Y-5.1252
X3.4758Y-5.5252
X3.4758Y-5.6252
X3.7758Y-4.7252
X3.7758Y-4.8252
X3.7758Y-4.9252
X3.7758Y-5.2252
X3.7758Y-5.3252
X3.7758Y-5.4252
X3.7758Y-5.5252
X3.7758Y-5.6252
X5.6936Y-4.5846
X5.792Y-4.5846
X3.2234Y-4.5814
X3.2234Y-4.6798
X3.4758Y-5.2252
X3.4758Y-5.3252
X3.4758Y-5.4252
X3.7758Y-5.0252
X3.7758Y-5.1252
X4.9202Y-4.7956
X5.0186Y-4.7956
X5.8182Y-5.1602
X5.8182Y-5.4602
X5.9182Y-5.1602
X5.9182Y-5.4602
X6.0182Y-5.1602
X6.0182Y-5.4602
X6.1182Y-5.1602
X6.1182Y-5.4602
X5.0034Y-5.7438
X6.2182Y-5.4602
X5.3034Y-6.0438
X5.3034Y-6.1438
X6.4182Y-5.4602
X5.0034Y-5.6438
X5.0034Y-5.9438
X5.3034Y-6.2438
X6.2182Y-5.1602
X6.4476Y-5.6232
X6.4476Y-5.7216
X5.0034Y-5.8438
X6.3182Y-5.1602
X6.3182Y-5.4602
X6.4182Y-5.1602
X5.6942Y-3.5436
X5.6942Y-3.9436
X5.0034Y-6.0438
X5.0034Y-6.1438
X5.0034Y-6.2438
X5.3034Y-5.6438
X5.3034Y-5.7438
X5.3034Y-5.8438
X5.3034Y-5.9438
X4.0702Y-5.0834
X4.0702Y-5.3834
X4.1702Y-5.0834
X4.1702Y-5.3834
X4.2702Y-5.0834
X4.2702Y-5.3834
X4.3702Y-5.0834
X4.3702Y-5.3834
X4.4702Y-5.0834
X4.4702Y-5.3834
X4.5702Y-5.0834
X4.5702Y-5.3834
X4.6702Y-5.0834
X4.0138Y-5.6438
X4.0138Y-5.7438
X4.0138Y-5.8438
X4.0138Y-5.9438
X4.0138Y-6.0438
X4.0138Y-6.1438
X4.0138Y-6.2438
X4.3138Y-5.6438
X4.3138Y-5.7438
X4.3138Y-5.9438
X4.3138Y-6.0438
X3.6874Y-4.5974
X3.7858Y-4.5974
X4.3138Y-5.8438
X4.3138Y-6.1438
X4.3138Y-6.2438
X4.2336Y-5.5296
X4.332Y-5.5296
X4.7702Y-5.0834
X3.9767Y-3.9353
X4.6702Y-5.3834
X5.7698Y-5.6424
X3.8767Y-3.9353
X3.7767Y-3.9353
X3.6767Y-3.9353
X3.5767Y-3.9353
X3.4767Y-3.9353
X3.3767Y-3.9353
X5.4698Y-6.2424
X3.2767Y-3.9353
X5.7698Y-5.7424
X4.0767Y-3.9353
X5.4698Y-6.1424
X5.7698Y-6.2424
X5.7698Y-5.8424
X5.4698Y-5.7424
X5.4698Y-5.6424
X5.7698Y-6.1424
X5.4698Y-5.8424
X5.7698Y-6.0424
X5.4698Y-5.9424
X5.7698Y-5.9424
X5.4698Y-6.0424
X4.7702Y-5.3834
X2.7264Y-5.9442
X2.7264Y-6.2442
X2.8264Y-5.9442
X2.8264Y-6.2442
X2.9264Y-5.9442
X2.9264Y-6.2442
X3.0264Y-5.9442
X3.0264Y-6.2442
X3.1264Y-5.9442
X3.1264Y-6.2442
X3.2264Y-5.9442
X3.2264Y-6.2442
X3.3264Y-5.9442
X3.3264Y-6.2442
X3.4264Y-5.9442
X3.4264Y-6.2442
X3.5264Y-5.9442
X3.5264Y-6.2442
X3.6264Y-5.9442
X3.6264Y-6.2442
X3.7264Y-5.9442
X3.7264Y-6.2442
X3.8264Y-5.9442
X3.8264Y-6.2442
X2.8659Y-5.7698
X2.9659Y-5.7698
X3.0659Y-5.7698
X3.1659Y-5.7698
X3.2659Y-5.7698
X4.917Y-4.2428
X5.0154Y-4.2428
X2.808Y-4.6038
X2.808Y-4.7038
X2.808Y-4.8038
X2.808Y-4.9038
X2.808Y-5.0038
X2.808Y-5.1038
X2.808Y-5.2038
X2.808Y-5.3038
X3.108Y-4.6038
X3.108Y-5.1038
X3.108Y-5.2038
X4.6833Y-4.4063
X3.108Y-5.0038
X4.2833Y-4.4063
X3.108Y-4.9038
X4.3833Y-4.4063
X3.108Y-4.8038
X4.4833Y-4.4063
X3.108Y-4.7038
X4.5833Y-4.4063
X3.108Y-5.3038
X5.716Y-4.1632
X5.716Y-4.4632
X5.816Y-4.1632
X5.816Y-4.4632
X5.916Y-4.1632
X5.916Y-4.4632
X6.016Y-4.1632
X6.016Y-4.4632
X6.116Y-4.1632
X6.116Y-4.4632
X6.216Y-4.1632
X5.8948Y-5.62
X5.8948Y-5.7184
X4.9985Y-3.967
X5.0985Y-3.967
X5.1985Y-3.967
X5.2985Y-3.967
X5.3985Y-3.967
X5.6872Y-4.0478
X5.7856Y-4.0478
X5.5502Y-3.5436
X5.5502Y-3.9436
X6.216Y-4.4632
X6.316Y-4.1632
X6.316Y-4.4632
X6.416Y-4.1632
X6.416Y-4.4632
X4.731Y-5.5308
X4.8294Y-5.5308
X4.2086Y-3.5212
X4.307Y-3.5212
X4.2292Y-3.6384
X4.2292Y-3.9384
X4.3292Y-3.6384
X4.3292Y-3.9384
X4.4292Y-3.6384
X4.4292Y-3.9384
X4.5292Y-3.6384
X4.5292Y-3.9384
X4.5124Y-5.9426
X4.5124Y-5.6426
X4.5124Y-5.7426
X4.5124Y-5.8426
X4.5124Y-6.0426
X4.5124Y-6.1426
X4.5124Y-6.2426
X4.8124Y-5.6426
X4.8124Y-5.7426
X4.8124Y-5.8426
X4.8124Y-5.9426
X4.6292Y-3.6384
X4.6292Y-3.9384
X4.7292Y-3.9384
X4.8124Y-6.0426
X4.7292Y-3.6384
X4.8292Y-3.6384
X4.8292Y-3.9384
X4.8124Y-6.1426
X4.8124Y-6.2426
X4.0734Y-4.5882
X4.0734Y-4.8882
X4.1734Y-4.5882
X4.1734Y-4.8882
X4.2734Y-4.5882
X4.2734Y-4.8882
X4.3734Y-4.5882
X4.3734Y-4.8882
X4.4734Y-4.5882
X4.4734Y-4.8882
X4.5734Y-4.5882
X5.5394Y-4.9302
X4.5734Y-4.8882
X4.9394Y-5.2302
X4.6734Y-4.8882
X4.9394Y-4.9302
X5.5394Y-5.2302
X4.7734Y-4.8882
X5.0394Y-4.9302
X5.1394Y-4.9302
X5.3394Y-5.2302
X5.4394Y-5.2302
X4.6734Y-4.5882
X5.2394Y-4.9302
X5.2394Y-5.2302
X5.3394Y-4.9302
X4.7734Y-4.5882
X5.0394Y-5.2302
X5.1394Y-5.2302
X5.4394Y-4.9302
X3.9456Y-4.5718
X3.9456Y-4.6702
X2.7156Y-5.6982
X5.4004Y-3.8198
X2.716Y-3.9316
X2.816Y-3.9316
X2.916Y-3.9316
X3.016Y-3.9316
X3.116Y-3.9316
X5.716Y-4.7032
X5.716Y-5.0032
X5.2426Y-4.6614
X3.9392Y-5.0608
X3.9392Y-5.1592
X4.9426Y-4.3614
X4.9426Y-4.6614
X5.0426Y-4.3614
X5.0426Y-4.6614
X5.1426Y-4.3614
X5.1426Y-4.6614
X5.2426Y-4.3614
X5.3426Y-4.3614
X5.3426Y-4.6614
X5.4426Y-4.3614
X5.4426Y-4.6614
X5.5426Y-4.3614
X5.5426Y-4.6614
X2.8146Y-4.4023
X2.9146Y-4.4023
X3.0146Y-4.4023
X3.1146Y-4.4023
X3.2146Y-4.4023
X6.029Y-5.6424
X6.029Y-5.7424
X6.029Y-5.8424
X6.029Y-5.9424
X6.029Y-6.0424
X6.029Y-6.1424
X6.029Y-6.2424
X6.329Y-5.6424
X6.116Y-5.0032
X6.016Y-5.0032
X6.116Y-4.7032
X6.329Y-5.7424
X5.816Y-4.7032
X5.816Y-5.0032
X5.916Y-4.7032
X5.916Y-5.0032
X6.216Y-4.7032
X6.216Y-5.0032
X6.316Y-4.7032
X6.316Y-5.0032
X6.416Y-4.7032
X6.329Y-5.8424
X6.329Y-5.9424
X6.016Y-4.7032
X6.416Y-5.0032
X6.329Y-6.0424
X6.329Y-6.1424
X6.329Y-6.2424
X5.0004Y-3.8198
X5.1004Y-3.8198
X5.2004Y-3.8198
X5.3004Y-3.8198
X2.7156Y-5.7966
X3.4976Y-4.4045
X3.5976Y-4.4045
X3.6976Y-4.4045
X3.7976Y-4.4045
X3.8976Y-4.4045
X5.6808Y-5.1406
X5.6808Y-5.239
T3
X6.253Y-3.5917
X6.253Y-3.6917
X3.3714Y-3.6895
X3.3714Y-3.7895
X5.8267Y-3.5926
X5.8267Y-3.6926
X5.0953Y-3.5819
X3.8082Y-4.166
X3.0129Y-4.1627
X3.0129Y-4.2627
X2.7986Y-4.163
X2.7986Y-4.263
X2.9202Y-3.6878
X2.9202Y-3.7878
X6.3595Y-3.5917
X6.04Y-3.5917
X6.3595Y-3.6917
X4.378Y-4.1661
X4.378Y-4.2661
X5.3083Y-3.5819
X5.3083Y-3.6819
X3.1208Y-4.1627
X3.1208Y-4.2627
X4.9886Y-3.582
X4.9886Y-3.682
X3.4845Y-4.2663
X2.9562Y-5.5268
X2.9562Y-5.6268
X3.8082Y-4.266
X6.04Y-3.6917
X3.4845Y-4.1663
X3.5871Y-3.6895
X3.5871Y-3.7895
X4.4859Y-4.1661
X4.4859Y-4.2661
X5.0953Y-3.6819
X2.7044Y-3.6878
X2.7044Y-3.7878
X4.2699Y-4.1663
X4.2699Y-4.2663
X3.0281Y-3.6878
X3.0627Y-5.6268
X3.0281Y-3.7878
X3.5925Y-4.166
X3.0627Y-5.5268
X3.5925Y-4.266
X3.9108Y-3.6895
X3.9108Y-3.7895
X6.1465Y-3.5917
X6.1465Y-3.6917
X2.9052Y-4.163
X2.9052Y-4.263
X2.8123Y-3.6878
X4.5938Y-4.1661
X4.5938Y-4.2661
X3.695Y-3.6895
X3.695Y-3.7895
X5.9335Y-3.5917
X5.2018Y-3.5819
X5.2018Y-3.6819
X2.8495Y-5.5275
X2.8495Y-5.6275
X4.0187Y-3.6895
X4.0187Y-3.7895
X3.4793Y-3.6895
X3.4793Y-3.7895
X3.1692Y-5.5268
X3.1692Y-5.6268
X3.8029Y-3.6895
X3.8029Y-3.7895
X2.8123Y-3.7878
X3.2635Y-3.6895
X3.2635Y-3.7895
X3.7003Y-4.166
X3.7003Y-4.266
X5.9335Y-3.6917
T4
X2.729Y-6.5045
X2.829Y-6.5045
X2.929Y-6.5045
X3.029Y-6.5045
X3.129Y-6.5045
X3.229Y-6.5045
X3.329Y-6.5045
X3.429Y-6.5045
X3.529Y-6.5045
X3.629Y-6.5045
X3.729Y-6.5045
X3.829Y-6.5045
X3.929Y-6.5045
X4.029Y-6.5045
X4.129Y-6.5045
X4.229Y-6.5045
X4.329Y-6.5045
X4.429Y-6.5045
X4.529Y-6.5045
X4.629Y-6.5045
X4.729Y-6.5045
X4.829Y-6.5045
X4.929Y-6.5045
X5.029Y-6.5045
X5.129Y-6.5045
X5.229Y-6.5045
X5.329Y-6.5045
X5.429Y-6.5045
X5.529Y-6.5045
X5.629Y-6.5045
X5.729Y-6.5045
X5.829Y-6.5045
X5.929Y-6.5045
X6.029Y-6.5045
X6.129Y-6.5045
X6.229Y-6.5045
X6.329Y-6.5045
X6.429Y-6.5045
T0
M30
