G04 #@! TF.GenerationSoftware,KiCad,Pcbnew,(5.1.4-0-10_14)*
G04 #@! TF.CreationDate,2020-07-24T15:49:08-07:00*
G04 #@! TF.ProjectId,ya4b-alu,79613462-2d61-46c7-952e-6b696361645f,rev?*
G04 #@! TF.SameCoordinates,Original*
G04 #@! TF.FileFunction,Copper,L4,Bot*
G04 #@! TF.FilePolarity,Positive*
%FSLAX46Y46*%
G04 Gerber Fmt 4.6, Leading zero omitted, Abs format (unit mm)*
G04 Created by KiCad (PCBNEW (5.1.4-0-10_14)) date 2020-07-24 15:49:08*
%MOMM*%
%LPD*%
G04 APERTURE LIST*
%ADD10O,1.600000X1.600000*%
%ADD11R,1.600000X1.600000*%
%ADD12C,1.600000*%
%ADD13O,1.700000X1.700000*%
%ADD14R,1.700000X1.700000*%
%ADD15C,1.800000*%
%ADD16R,1.800000X1.800000*%
%ADD17C,0.800000*%
%ADD18C,0.250000*%
G04 APERTURE END LIST*
D10*
X109570520Y-143352520D03*
X101950520Y-158592520D03*
X109570520Y-145892520D03*
X101950520Y-156052520D03*
X109570520Y-148432520D03*
X101950520Y-153512520D03*
X109570520Y-150972520D03*
X101950520Y-150972520D03*
X109570520Y-153512520D03*
X101950520Y-148432520D03*
X109570520Y-156052520D03*
X101950520Y-145892520D03*
X109570520Y-158592520D03*
D11*
X101950520Y-143352520D03*
D10*
X122234960Y-143322040D03*
X114614960Y-158562040D03*
X122234960Y-145862040D03*
X114614960Y-156022040D03*
X122234960Y-148402040D03*
X114614960Y-153482040D03*
X122234960Y-150942040D03*
X114614960Y-150942040D03*
X122234960Y-153482040D03*
X114614960Y-148402040D03*
X122234960Y-156022040D03*
X114614960Y-145862040D03*
X122234960Y-158562040D03*
D11*
X114614960Y-143322040D03*
D10*
X103383080Y-129118360D03*
X121163080Y-136738360D03*
X105923080Y-129118360D03*
X118623080Y-136738360D03*
X108463080Y-129118360D03*
X116083080Y-136738360D03*
X111003080Y-129118360D03*
X113543080Y-136738360D03*
X113543080Y-129118360D03*
X111003080Y-136738360D03*
X116083080Y-129118360D03*
X108463080Y-136738360D03*
X118623080Y-129118360D03*
X105923080Y-136738360D03*
X121163080Y-129118360D03*
D11*
X103383080Y-136738360D03*
D10*
X95905320Y-120020080D03*
X88285320Y-142880080D03*
X95905320Y-122560080D03*
X88285320Y-140340080D03*
X95905320Y-125100080D03*
X88285320Y-137800080D03*
X95905320Y-127640080D03*
X88285320Y-135260080D03*
X95905320Y-130180080D03*
X88285320Y-132720080D03*
X95905320Y-132720080D03*
X88285320Y-130180080D03*
X95905320Y-135260080D03*
X88285320Y-127640080D03*
X95905320Y-137800080D03*
X88285320Y-125100080D03*
X95905320Y-140340080D03*
X88285320Y-122560080D03*
X95905320Y-142880080D03*
D11*
X88285320Y-120020080D03*
D10*
X160756600Y-143316960D03*
X153136600Y-158556960D03*
X160756600Y-145856960D03*
X153136600Y-156016960D03*
X160756600Y-148396960D03*
X153136600Y-153476960D03*
X160756600Y-150936960D03*
X153136600Y-150936960D03*
X160756600Y-153476960D03*
X153136600Y-148396960D03*
X160756600Y-156016960D03*
X153136600Y-145856960D03*
X160756600Y-158556960D03*
D11*
X153136600Y-143316960D03*
D10*
X107421680Y-92415360D03*
X122661680Y-100035360D03*
X109961680Y-92415360D03*
X120121680Y-100035360D03*
X112501680Y-92415360D03*
X117581680Y-100035360D03*
X115041680Y-92415360D03*
X115041680Y-100035360D03*
X117581680Y-92415360D03*
X112501680Y-100035360D03*
X120121680Y-92415360D03*
X109961680Y-100035360D03*
X122661680Y-92415360D03*
D11*
X107421680Y-100035360D03*
D10*
X147782280Y-131069080D03*
X163022280Y-138689080D03*
X150322280Y-131069080D03*
X160482280Y-138689080D03*
X152862280Y-131069080D03*
X157942280Y-138689080D03*
X155402280Y-131069080D03*
X155402280Y-138689080D03*
X157942280Y-131069080D03*
X152862280Y-138689080D03*
X160482280Y-131069080D03*
X150322280Y-138689080D03*
X163022280Y-131069080D03*
D11*
X147782280Y-138689080D03*
D10*
X125542040Y-110779560D03*
X140782040Y-118399560D03*
X128082040Y-110779560D03*
X138242040Y-118399560D03*
X130622040Y-110779560D03*
X135702040Y-118399560D03*
X133162040Y-110779560D03*
X133162040Y-118399560D03*
X135702040Y-110779560D03*
X130622040Y-118399560D03*
X138242040Y-110779560D03*
X128082040Y-118399560D03*
X140782040Y-110779560D03*
D11*
X125542040Y-118399560D03*
D10*
X125460760Y-125227080D03*
X140700760Y-132847080D03*
X128000760Y-125227080D03*
X138160760Y-132847080D03*
X130540760Y-125227080D03*
X135620760Y-132847080D03*
X133080760Y-125227080D03*
X133080760Y-132847080D03*
X135620760Y-125227080D03*
X130540760Y-132847080D03*
X138160760Y-125227080D03*
X128000760Y-132847080D03*
X140700760Y-125227080D03*
D11*
X125460760Y-132847080D03*
D10*
X146552920Y-143316960D03*
X138932920Y-158556960D03*
X146552920Y-145856960D03*
X138932920Y-156016960D03*
X146552920Y-148396960D03*
X138932920Y-153476960D03*
X146552920Y-150936960D03*
X138932920Y-150936960D03*
X146552920Y-153476960D03*
X138932920Y-148396960D03*
X146552920Y-156016960D03*
X138932920Y-145856960D03*
X146552920Y-158556960D03*
D11*
X138932920Y-143316960D03*
D10*
X134706360Y-143352520D03*
X127086360Y-158592520D03*
X134706360Y-145892520D03*
X127086360Y-156052520D03*
X134706360Y-148432520D03*
X127086360Y-153512520D03*
X134706360Y-150972520D03*
X127086360Y-150972520D03*
X134706360Y-153512520D03*
X127086360Y-148432520D03*
X134706360Y-156052520D03*
X127086360Y-145892520D03*
X134706360Y-158592520D03*
D11*
X127086360Y-143352520D03*
D10*
X145186400Y-105745280D03*
X162966400Y-113365280D03*
X147726400Y-105745280D03*
X160426400Y-113365280D03*
X150266400Y-105745280D03*
X157886400Y-113365280D03*
X152806400Y-105745280D03*
X155346400Y-113365280D03*
X155346400Y-105745280D03*
X152806400Y-113365280D03*
X157886400Y-105745280D03*
X150266400Y-113365280D03*
X160426400Y-105745280D03*
X147726400Y-113365280D03*
X162966400Y-105745280D03*
D11*
X145186400Y-113365280D03*
D10*
X145186400Y-119461280D03*
X162966400Y-127081280D03*
X147726400Y-119461280D03*
X160426400Y-127081280D03*
X150266400Y-119461280D03*
X157886400Y-127081280D03*
X152806400Y-119461280D03*
X155346400Y-127081280D03*
X155346400Y-119461280D03*
X152806400Y-127081280D03*
X157886400Y-119461280D03*
X150266400Y-127081280D03*
X160426400Y-119461280D03*
X147726400Y-127081280D03*
X162966400Y-119461280D03*
D11*
X145186400Y-127081280D03*
D10*
X103464360Y-116540280D03*
X121244360Y-124160280D03*
X106004360Y-116540280D03*
X118704360Y-124160280D03*
X108544360Y-116540280D03*
X116164360Y-124160280D03*
X111084360Y-116540280D03*
X113624360Y-124160280D03*
X113624360Y-116540280D03*
X111084360Y-124160280D03*
X116164360Y-116540280D03*
X108544360Y-124160280D03*
X118704360Y-116540280D03*
X106004360Y-124160280D03*
X121244360Y-116540280D03*
D11*
X103464360Y-124160280D03*
D10*
X78943200Y-116936520D03*
X71323200Y-134716520D03*
X78943200Y-119476520D03*
X71323200Y-132176520D03*
X78943200Y-122016520D03*
X71323200Y-129636520D03*
X78943200Y-124556520D03*
X71323200Y-127096520D03*
X78943200Y-127096520D03*
X71323200Y-124556520D03*
X78943200Y-129636520D03*
X71323200Y-122016520D03*
X78943200Y-132176520D03*
X71323200Y-119476520D03*
X78943200Y-134716520D03*
D11*
X71323200Y-116936520D03*
D10*
X69250560Y-150982680D03*
X97190560Y-158602680D03*
X71790560Y-150982680D03*
X94650560Y-158602680D03*
X74330560Y-150982680D03*
X92110560Y-158602680D03*
X76870560Y-150982680D03*
X89570560Y-158602680D03*
X79410560Y-150982680D03*
X87030560Y-158602680D03*
X81950560Y-150982680D03*
X84490560Y-158602680D03*
X84490560Y-150982680D03*
X81950560Y-158602680D03*
X87030560Y-150982680D03*
X79410560Y-158602680D03*
X89570560Y-150982680D03*
X76870560Y-158602680D03*
X92110560Y-150982680D03*
X74330560Y-158602680D03*
X94650560Y-150982680D03*
X71790560Y-158602680D03*
X97190560Y-150982680D03*
D11*
X69250560Y-158602680D03*
D10*
X153804660Y-97073720D03*
X156344660Y-97073720D03*
X158884660Y-97073720D03*
X161424660Y-97073720D03*
D11*
X163964660Y-97073720D03*
D10*
X126962920Y-100762540D03*
X129502920Y-100762540D03*
X132042920Y-100762540D03*
X134582920Y-100762540D03*
D11*
X137122920Y-100762540D03*
D10*
X127011180Y-97023660D03*
X129551180Y-97023660D03*
X132091180Y-97023660D03*
X134631180Y-97023660D03*
D11*
X137171180Y-97023660D03*
D10*
X72794940Y-146553520D03*
X75334940Y-146553520D03*
X77874940Y-146553520D03*
X80414940Y-146553520D03*
D11*
X82954940Y-146553520D03*
D10*
X88840140Y-111875560D03*
X91380140Y-111875560D03*
X93920140Y-111875560D03*
X96460140Y-111875560D03*
D11*
X99000140Y-111875560D03*
D10*
X108795820Y-111920020D03*
X111335820Y-111920020D03*
X113875820Y-111920020D03*
X116415820Y-111920020D03*
D11*
X118955820Y-111920020D03*
D10*
X71490840Y-111818420D03*
X74030840Y-111818420D03*
X76570840Y-111818420D03*
X79110840Y-111818420D03*
D11*
X81650840Y-111818420D03*
D10*
X83228180Y-99956620D03*
X85768180Y-99956620D03*
X88308180Y-99956620D03*
X90848180Y-99956620D03*
X93388180Y-99956620D03*
X95928180Y-99956620D03*
X98468180Y-99956620D03*
X101008180Y-99956620D03*
D11*
X103548180Y-99956620D03*
D10*
X68986400Y-99862640D03*
X71526400Y-99862640D03*
X74066400Y-99862640D03*
X76606400Y-99862640D03*
D11*
X79146400Y-99862640D03*
D10*
X144632680Y-90007440D03*
D12*
X144632680Y-100167440D03*
D10*
X140975080Y-90007440D03*
D12*
X140975080Y-100167440D03*
D13*
X163296600Y-165214300D03*
X160756600Y-165214300D03*
X158216600Y-165214300D03*
X155676600Y-165214300D03*
X153136600Y-165214300D03*
X150596600Y-165214300D03*
X148056600Y-165214300D03*
X145516600Y-165214300D03*
X142976600Y-165214300D03*
X140436600Y-165214300D03*
X137896600Y-165214300D03*
X135356600Y-165214300D03*
X132816600Y-165214300D03*
X130276600Y-165214300D03*
X127736600Y-165214300D03*
X125196600Y-165214300D03*
X122656600Y-165214300D03*
X120116600Y-165214300D03*
X117576600Y-165214300D03*
X115036600Y-165214300D03*
X112496600Y-165214300D03*
X109956600Y-165214300D03*
X107416600Y-165214300D03*
X104876600Y-165214300D03*
X102336600Y-165214300D03*
X99796600Y-165214300D03*
X97256600Y-165214300D03*
X94716600Y-165214300D03*
X92176600Y-165214300D03*
X89636600Y-165214300D03*
X87096600Y-165214300D03*
X84556600Y-165214300D03*
X82016600Y-165214300D03*
X79476600Y-165214300D03*
X76936600Y-165214300D03*
X74396600Y-165214300D03*
X71856600Y-165214300D03*
D14*
X69316600Y-165214300D03*
D15*
X161531340Y-91229180D03*
D16*
X161531340Y-93769180D03*
D15*
X158826240Y-91229180D03*
D16*
X158826240Y-93769180D03*
D15*
X156121140Y-91229180D03*
D16*
X156121140Y-93769180D03*
D15*
X153416040Y-91229180D03*
D16*
X153416040Y-93769180D03*
D15*
X150710940Y-91229180D03*
D16*
X150710940Y-93769180D03*
D15*
X147998220Y-91252040D03*
D16*
X147998220Y-93792040D03*
D15*
X134831840Y-90981000D03*
D16*
X134831840Y-93521000D03*
D15*
X132126740Y-90981000D03*
D16*
X132126740Y-93521000D03*
D15*
X129421640Y-90981000D03*
D16*
X129421640Y-93521000D03*
D15*
X126711460Y-90983540D03*
D16*
X126711460Y-93523540D03*
D15*
X80498760Y-140381320D03*
D16*
X80498760Y-142921320D03*
D15*
X77793660Y-140381320D03*
D16*
X77793660Y-142921320D03*
D15*
X75088560Y-140381320D03*
D16*
X75088560Y-142921320D03*
D15*
X72378380Y-140399100D03*
D16*
X72378380Y-142939100D03*
D15*
X96729380Y-105817660D03*
D16*
X96729380Y-108357660D03*
D15*
X93988720Y-105817660D03*
D16*
X93988720Y-108357660D03*
D15*
X91250600Y-105817660D03*
D16*
X91250600Y-108357660D03*
D15*
X88507400Y-105825280D03*
D16*
X88507400Y-108365280D03*
D15*
X116682520Y-105818940D03*
D16*
X116682520Y-108358940D03*
D15*
X113941860Y-105818940D03*
D16*
X113941860Y-108358940D03*
D15*
X111201200Y-105818940D03*
D16*
X111201200Y-108358940D03*
D15*
X108455460Y-105824020D03*
D16*
X108455460Y-108364020D03*
D15*
X79268320Y-105732580D03*
D16*
X79268320Y-108272580D03*
D15*
X76527660Y-105732580D03*
D16*
X76527660Y-108272580D03*
D15*
X73792080Y-105740200D03*
D16*
X73792080Y-108280200D03*
D15*
X71084440Y-105740200D03*
D16*
X71084440Y-108280200D03*
D15*
X102074980Y-93713300D03*
D16*
X102074980Y-96253300D03*
D15*
X99334320Y-93713300D03*
D16*
X99334320Y-96253300D03*
D15*
X96593660Y-93713300D03*
D16*
X96593660Y-96253300D03*
D15*
X93853000Y-93713300D03*
D16*
X93853000Y-96253300D03*
D15*
X91112340Y-93713300D03*
D16*
X91112340Y-96253300D03*
D15*
X88374220Y-93713300D03*
D16*
X88374220Y-96253300D03*
D15*
X85633560Y-93713300D03*
D16*
X85633560Y-96253300D03*
D15*
X82892900Y-93713300D03*
D16*
X82892900Y-96253300D03*
D15*
X76913740Y-93670120D03*
D16*
X76913740Y-96210120D03*
D15*
X74173080Y-93670120D03*
D16*
X74173080Y-96210120D03*
D15*
X71432420Y-93670120D03*
D16*
X71432420Y-96210120D03*
D15*
X68691760Y-93670120D03*
D16*
X68691760Y-96210120D03*
D12*
X144292320Y-133071240D03*
X144292320Y-130571240D03*
X149727920Y-145248000D03*
X149727920Y-142748000D03*
X132633080Y-140385800D03*
X135133080Y-140385800D03*
X127391800Y-107767120D03*
X124891800Y-107767120D03*
X81874360Y-118867560D03*
X81874360Y-116367560D03*
X146954880Y-102814120D03*
X144454880Y-102814120D03*
X147117440Y-116448840D03*
X144617440Y-116448840D03*
X120166760Y-140482320D03*
X122666760Y-140482320D03*
X127473080Y-121808240D03*
X124973080Y-121808240D03*
X109398440Y-89438480D03*
X106898440Y-89438480D03*
X163769040Y-145329280D03*
X163769040Y-142829280D03*
X100218240Y-118623720D03*
X100218240Y-116123720D03*
X93659320Y-116773960D03*
X96159320Y-116773960D03*
X100055680Y-131044320D03*
X100055680Y-128544320D03*
X107532800Y-140451840D03*
X110032800Y-140451840D03*
X68976240Y-144733640D03*
X68976240Y-147233640D03*
D17*
X66825859Y-116816921D03*
X68788280Y-162554920D03*
X80573880Y-114091720D03*
X80523080Y-104651650D03*
X117895109Y-114133790D03*
X69626480Y-161168080D03*
X149727920Y-163412010D03*
X84373720Y-102900480D03*
X123037600Y-102900480D03*
X124371239Y-159632193D03*
X100736400Y-102311200D03*
X81600040Y-148076920D03*
X98065478Y-143912750D03*
X87025900Y-102001740D03*
X85105240Y-146466560D03*
X85003640Y-108193840D03*
X85003640Y-105049320D03*
X104124085Y-144358638D03*
X83154520Y-154010360D03*
X144414240Y-140782040D03*
X144211040Y-160406080D03*
X83124040Y-160040320D03*
X85486240Y-153349960D03*
X149264665Y-154166949D03*
X147782280Y-141284960D03*
X88280240Y-152364440D03*
X138191240Y-136702800D03*
X130246120Y-161803080D03*
X101351080Y-162590480D03*
X88366600Y-160660080D03*
X96938881Y-149557521D03*
X149443440Y-147487640D03*
X94055309Y-129962894D03*
X79202280Y-114391440D03*
X72100440Y-114340640D03*
X91659870Y-140239777D03*
X112320327Y-142052727D03*
X92384880Y-142864840D03*
X107421680Y-152146000D03*
X107421680Y-142402560D03*
X93187520Y-138755120D03*
X105846880Y-139760960D03*
X107287505Y-155362531D03*
X93797120Y-137673080D03*
X105592880Y-156814520D03*
X100365560Y-136819640D03*
X73974960Y-148452840D03*
X78790800Y-155585158D03*
X70693280Y-141594840D03*
X79959200Y-156392880D03*
X70826251Y-144320150D03*
X80919320Y-157002480D03*
X149062440Y-130154680D03*
X125244023Y-160120324D03*
X152877520Y-129189480D03*
X123845320Y-129235200D03*
X125369320Y-140299440D03*
X99054920Y-147706080D03*
X143372840Y-112151160D03*
X142849662Y-160176453D03*
X154261601Y-161628039D03*
X156758640Y-162687000D03*
X158968440Y-162681920D03*
X161551401Y-123045439D03*
X119104250Y-134049610D03*
X144907000Y-163412010D03*
X90058240Y-132882640D03*
X90371505Y-130588176D03*
X133146800Y-120822720D03*
X152928320Y-123911360D03*
X155102558Y-154833320D03*
X150357840Y-149037040D03*
X141173200Y-148808440D03*
X165481000Y-128275080D03*
X160502600Y-135031480D03*
X143345021Y-134658221D03*
X142731330Y-153283688D03*
X150078440Y-152755600D03*
X157688280Y-152095200D03*
X127873760Y-131241800D03*
X157673040Y-157434280D03*
X150713440Y-158323280D03*
X162219640Y-124968000D03*
X130276600Y-128249680D03*
X123677680Y-127944880D03*
X136296400Y-137427810D03*
X133126480Y-115773200D03*
X136880600Y-116027200D03*
X142006320Y-158485840D03*
X122312590Y-121081752D03*
X122312590Y-132963534D03*
X155437840Y-134035800D03*
X165475920Y-133949440D03*
X118379240Y-130937000D03*
X97825560Y-130175000D03*
X98181160Y-125100080D03*
X110867351Y-131662010D03*
X113685320Y-134499621D03*
X83022440Y-124556520D03*
X83022440Y-128452880D03*
X118316749Y-151091130D03*
X117668040Y-152877520D03*
X116895880Y-155910280D03*
X116027200Y-158658560D03*
D18*
X68186401Y-99062641D02*
X68986400Y-99862640D01*
X67466759Y-98342999D02*
X68186401Y-99062641D01*
X67466759Y-94895121D02*
X67466759Y-98342999D01*
X68691760Y-93670120D02*
X67466759Y-94895121D01*
X66825859Y-146025881D02*
X66796058Y-145996080D01*
X66825859Y-103688183D02*
X66825859Y-116251236D01*
X66796058Y-145996080D02*
X66796058Y-117412407D01*
X66825859Y-116251236D02*
X66825859Y-116816921D01*
X82016600Y-165214300D02*
X80841599Y-166389301D01*
X66796058Y-117412407D02*
X66825859Y-117382606D01*
X68691760Y-97902998D02*
X70111401Y-99322639D01*
X70111401Y-100402641D02*
X66825859Y-103688183D01*
X80841599Y-166389301D02*
X68206599Y-166389301D01*
X70111401Y-99322639D02*
X70111401Y-100402641D01*
X68206599Y-166389301D02*
X66825859Y-165008561D01*
X66825859Y-165008561D02*
X66825859Y-146025881D01*
X68691760Y-96210120D02*
X68691760Y-97902998D01*
X66825859Y-117382606D02*
X66825859Y-116816921D01*
X70726401Y-99062641D02*
X71526400Y-99862640D01*
X70207419Y-98543659D02*
X70726401Y-99062641D01*
X70207419Y-94895121D02*
X70207419Y-98543659D01*
X71432420Y-93670120D02*
X70207419Y-94895121D01*
X70122360Y-102991058D02*
X69517840Y-102991058D01*
X72651401Y-100462017D02*
X70122360Y-102991058D01*
X69517840Y-102991058D02*
X67703269Y-104805629D01*
X68388281Y-162154921D02*
X68788280Y-162554920D01*
X67401228Y-161167868D02*
X68388281Y-162154921D01*
X67664839Y-143743628D02*
X67401228Y-144007239D01*
X71432420Y-96210120D02*
X71432420Y-98103658D01*
X71432420Y-98103658D02*
X72651401Y-99322639D01*
X67703269Y-104805629D02*
X67703269Y-143705199D01*
X67401228Y-144007239D02*
X67401228Y-161167868D01*
X67703269Y-143705199D02*
X67664839Y-143743628D01*
X72651401Y-99322639D02*
X72651401Y-100462017D01*
X80523080Y-113475235D02*
X80523080Y-105217335D01*
X80573880Y-114091720D02*
X80573880Y-113526035D01*
X80573880Y-113526035D02*
X80523080Y-113475235D01*
X80523080Y-105217335D02*
X80523080Y-104651650D01*
X117895109Y-115731029D02*
X117895109Y-114699475D01*
X117895109Y-114699475D02*
X117895109Y-114133790D01*
X118704360Y-116540280D02*
X117895109Y-115731029D01*
X73266401Y-99062641D02*
X74066400Y-99862640D01*
X72948079Y-98744319D02*
X73266401Y-99062641D01*
X72948079Y-94895121D02*
X72948079Y-98744319D01*
X74173080Y-93670120D02*
X72948079Y-94895121D01*
X159301399Y-118336279D02*
X159626401Y-118661281D01*
X159301399Y-112825279D02*
X159301399Y-118336279D01*
X160426400Y-111700278D02*
X159301399Y-112825279D01*
X159626401Y-118661281D02*
X160426400Y-119461280D01*
X160426400Y-105745280D02*
X160426400Y-111700278D01*
X71426362Y-103441068D02*
X69704241Y-103441068D01*
X75191401Y-99322639D02*
X75191401Y-100402641D01*
X67851239Y-159392839D02*
X69226481Y-160768081D01*
X75191401Y-100402641D02*
X74606401Y-100987641D01*
X74173080Y-96210120D02*
X74173080Y-98304318D01*
X69704241Y-103441068D02*
X68153280Y-104992029D01*
X67851239Y-144193639D02*
X67851239Y-159392839D01*
X68153280Y-143891598D02*
X67851239Y-144193639D01*
X68153280Y-104992029D02*
X68153280Y-143891598D01*
X74606401Y-100987641D02*
X73879788Y-100987641D01*
X74173080Y-98304318D02*
X75191401Y-99322639D01*
X69226481Y-160768081D02*
X69626480Y-161168080D01*
X73879788Y-100987641D02*
X71426362Y-103441068D01*
X75806401Y-99062641D02*
X76606400Y-99862640D01*
X75688739Y-98944979D02*
X75806401Y-99062641D01*
X75688739Y-94895121D02*
X75688739Y-98944979D01*
X76913740Y-93670120D02*
X75688739Y-94895121D01*
X77731401Y-98177781D02*
X77731401Y-101064279D01*
X78341198Y-156360962D02*
X78833844Y-156360962D01*
X70310039Y-104065188D02*
X68925440Y-105449787D01*
X71250559Y-152107681D02*
X74341917Y-152107681D01*
X68925440Y-105449787D02*
X68925440Y-143017838D01*
X80825559Y-158352677D02*
X80825559Y-159142681D01*
X88786601Y-164364301D02*
X89636600Y-165214300D01*
X77731401Y-101064279D02*
X74730491Y-104065188D01*
X70101241Y-144193639D02*
X70101241Y-150168359D01*
X68925440Y-143017838D02*
X70101241Y-144193639D01*
X70375561Y-150442679D02*
X70375561Y-151232683D01*
X85722177Y-164039299D02*
X88461599Y-164039299D01*
X78833844Y-156360962D02*
X80825559Y-158352677D01*
X74730491Y-104065188D02*
X70310039Y-104065188D01*
X74341917Y-152107681D02*
X77303798Y-155069562D01*
X77303798Y-155323562D02*
X78341198Y-156360962D01*
X70375561Y-151232683D02*
X71250559Y-152107681D01*
X76913740Y-96210120D02*
X76913740Y-97360120D01*
X88461599Y-164039299D02*
X88786601Y-164364301D01*
X80825559Y-159142681D02*
X85722177Y-164039299D01*
X70101241Y-150168359D02*
X70375561Y-150442679D01*
X76913740Y-97360120D02*
X77731401Y-98177781D01*
X77303798Y-155069562D02*
X77303798Y-155323562D01*
X146552920Y-150936960D02*
X146552920Y-151786400D01*
X146552920Y-151786400D02*
X148185039Y-153418519D01*
X149327921Y-163012011D02*
X149727920Y-163412010D01*
X148185039Y-153418519D02*
X148185039Y-161869129D01*
X148185039Y-161869129D02*
X149327921Y-163012011D01*
X81667899Y-98396339D02*
X82428181Y-99156621D01*
X81667899Y-94938301D02*
X81667899Y-98396339D01*
X82428181Y-99156621D02*
X83228180Y-99956620D01*
X82892900Y-93713300D02*
X81667899Y-94938301D01*
X82892900Y-96253300D02*
X82892900Y-97403300D01*
X82892900Y-97403300D02*
X84373720Y-98884120D01*
X84373720Y-98884120D02*
X84373720Y-102900480D01*
X123037600Y-102900480D02*
X123037600Y-127511958D01*
X123037600Y-139188158D02*
X127086360Y-143236918D01*
X123037600Y-127511958D02*
X122952679Y-127596879D01*
X122952679Y-128292881D02*
X123037600Y-128377802D01*
X123037600Y-128377802D02*
X123037600Y-139188158D01*
X127086360Y-143236918D02*
X127086360Y-143352520D01*
X122952679Y-127596879D02*
X122952679Y-128292881D01*
X124371239Y-159066508D02*
X124371239Y-159632193D01*
X126036360Y-143352520D02*
X124371239Y-145017641D01*
X127086360Y-143352520D02*
X126036360Y-143352520D01*
X124371239Y-145017641D02*
X124371239Y-159066508D01*
X84408559Y-97465629D02*
X85768180Y-98825250D01*
X85633560Y-93713300D02*
X84408559Y-94938301D01*
X85768180Y-98825250D02*
X85768180Y-99956620D01*
X84408559Y-94938301D02*
X84408559Y-97465629D01*
X101343241Y-103483726D02*
X101343241Y-134516079D01*
X100736400Y-102876885D02*
X101343241Y-103483726D01*
X100736400Y-102311200D02*
X100736400Y-102876885D01*
X101343241Y-134516079D02*
X98704400Y-137154920D01*
X98704400Y-137154920D02*
X98704400Y-138729720D01*
X101950520Y-141975840D02*
X101950520Y-143352520D01*
X98704400Y-138729720D02*
X101950520Y-141975840D01*
X81600040Y-150632160D02*
X81950560Y-150982680D01*
X81600040Y-148076920D02*
X81600040Y-150632160D01*
X98065478Y-139368642D02*
X98065478Y-143347065D01*
X98065478Y-143347065D02*
X98065478Y-143912750D01*
X98704400Y-138729720D02*
X98065478Y-139368642D01*
X85633560Y-96253300D02*
X85633560Y-97403300D01*
X85633560Y-97403300D02*
X86308181Y-98077921D01*
X86308181Y-98831619D02*
X87025900Y-99549338D01*
X86308181Y-98077921D02*
X86308181Y-98831619D01*
X87025900Y-101436055D02*
X87025900Y-102001740D01*
X87025900Y-99549338D02*
X87025900Y-101436055D01*
X87508181Y-99156621D02*
X88308180Y-99956620D01*
X87149219Y-98797659D02*
X87508181Y-99156621D01*
X87149219Y-94938301D02*
X87149219Y-98797659D01*
X88374220Y-93713300D02*
X87149219Y-94938301D01*
X85105240Y-150368000D02*
X84490560Y-150982680D01*
X85105240Y-146466560D02*
X85105240Y-150368000D01*
X85105240Y-146466560D02*
X85105240Y-108295440D01*
X85105240Y-108295440D02*
X85003640Y-108193840D01*
X89433181Y-100619779D02*
X89433181Y-98462261D01*
X88374220Y-97403300D02*
X88374220Y-96253300D01*
X85003640Y-105049320D02*
X89433181Y-100619779D01*
X89433181Y-98462261D02*
X88374220Y-97403300D01*
X104781719Y-139186999D02*
X104781719Y-143701004D01*
X103383080Y-136738360D02*
X103383080Y-137788360D01*
X104781719Y-143701004D02*
X104524084Y-143958639D01*
X103383080Y-137788360D02*
X104781719Y-139186999D01*
X104524084Y-143958639D02*
X104124085Y-144358638D01*
X89887339Y-98995779D02*
X90048181Y-99156621D01*
X90048181Y-99156621D02*
X90848180Y-99956620D01*
X89887339Y-94938301D02*
X89887339Y-98995779D01*
X91112340Y-93713300D02*
X89887339Y-94938301D01*
X84079941Y-107166915D02*
X84079941Y-149728297D01*
X83154520Y-150653718D02*
X83154520Y-153444675D01*
X91973181Y-98264141D02*
X91973181Y-100496621D01*
X91112340Y-96253300D02*
X91112340Y-97403300D01*
X87554219Y-103692637D02*
X84079941Y-107166915D01*
X91112340Y-97403300D02*
X91973181Y-98264141D01*
X84079941Y-149728297D02*
X83154520Y-150653718D01*
X88777165Y-103692637D02*
X87554219Y-103692637D01*
X83154520Y-153444675D02*
X83154520Y-154010360D01*
X91973181Y-100496621D02*
X88777165Y-103692637D01*
X144414240Y-140782040D02*
X144007840Y-141188440D01*
X144007840Y-160202880D02*
X144211040Y-160406080D01*
X144007840Y-141188440D02*
X144007840Y-160202880D01*
X83124040Y-154040840D02*
X83154520Y-154010360D01*
X83124040Y-160040320D02*
X83124040Y-154040840D01*
X92627999Y-98065069D02*
X93388180Y-98825250D01*
X93388180Y-98825250D02*
X93388180Y-99956620D01*
X92627999Y-94938301D02*
X92627999Y-98065069D01*
X93853000Y-93713300D02*
X92627999Y-94938301D01*
X87740619Y-104142648D02*
X85886239Y-105997028D01*
X90806021Y-104142648D02*
X87740619Y-104142648D01*
X85886239Y-152949961D02*
X85486240Y-153349960D01*
X93853000Y-96253300D02*
X93853000Y-97403300D01*
X93853000Y-97403300D02*
X94513181Y-98063481D01*
X94513181Y-98063481D02*
X94513181Y-100435488D01*
X94513181Y-100435488D02*
X90806021Y-104142648D01*
X85886239Y-105997028D02*
X85886239Y-152949961D01*
X147782280Y-152125680D02*
X148864666Y-153208066D01*
X148864666Y-153766950D02*
X149264665Y-154166949D01*
X147782280Y-138689080D02*
X147782280Y-141284960D01*
X148864666Y-153208066D02*
X148864666Y-153766950D01*
X147782280Y-141284960D02*
X147782280Y-152125680D01*
X95928180Y-98825250D02*
X95928180Y-99956620D01*
X95368659Y-98265729D02*
X95928180Y-98825250D01*
X95368659Y-94938301D02*
X95368659Y-98265729D01*
X96593660Y-93713300D02*
X95368659Y-94938301D01*
X87160319Y-105359359D02*
X87160319Y-149447437D01*
X87927019Y-104592659D02*
X87160319Y-105359359D01*
X92957143Y-104592659D02*
X87927019Y-104592659D01*
X97053181Y-97862821D02*
X97053181Y-100496621D01*
X96593660Y-97403300D02*
X97053181Y-97862821D01*
X96593660Y-96253300D02*
X96593660Y-97403300D01*
X97053181Y-100496621D02*
X92957143Y-104592659D01*
X87160319Y-149447437D02*
X88280240Y-150567358D01*
X88280240Y-150567358D02*
X88280240Y-152364440D01*
X138191240Y-142575280D02*
X138932920Y-143316960D01*
X138191240Y-136702800D02*
X138191240Y-142575280D01*
X134166359Y-149847519D02*
X130246120Y-153767758D01*
X135831361Y-148972521D02*
X134956363Y-149847519D01*
X138932920Y-143316960D02*
X137882920Y-143316960D01*
X134956363Y-149847519D02*
X134166359Y-149847519D01*
X135831361Y-145368519D02*
X135831361Y-148972521D01*
X137882920Y-143316960D02*
X135831361Y-145368519D01*
X130246120Y-153767758D02*
X130246120Y-161803080D01*
X88280240Y-160573720D02*
X88366600Y-160660080D01*
X88280240Y-152364440D02*
X88280240Y-160573720D01*
X98109319Y-98466389D02*
X98468180Y-98825250D01*
X98468180Y-98825250D02*
X98468180Y-99956620D01*
X98109319Y-94938301D02*
X98109319Y-98466389D01*
X99334320Y-93713300D02*
X98109319Y-94938301D01*
X97030321Y-117646637D02*
X97030321Y-149441119D01*
X100125141Y-114551817D02*
X97030321Y-117646637D01*
X99593181Y-97662161D02*
X99593181Y-110283599D01*
X99334320Y-97403300D02*
X99593181Y-97662161D01*
X100125141Y-110815559D02*
X100125141Y-114551817D01*
X99593181Y-110283599D02*
X100125141Y-110815559D01*
X99334320Y-96253300D02*
X99334320Y-97403300D01*
X96938881Y-149532559D02*
X96938881Y-149557521D01*
X97030321Y-149441119D02*
X96938881Y-149532559D01*
X150852921Y-140351091D02*
X150852921Y-146078159D01*
X150322280Y-139820450D02*
X150852921Y-140351091D01*
X150322280Y-138689080D02*
X150322280Y-139820450D01*
X150852921Y-146078159D02*
X149443440Y-147487640D01*
X101008180Y-98825250D02*
X101008180Y-99956620D01*
X100849979Y-98667049D02*
X101008180Y-98825250D01*
X100849979Y-94938301D02*
X100849979Y-98667049D01*
X102074980Y-93713300D02*
X100849979Y-94938301D01*
X109386557Y-139326839D02*
X110619759Y-139326839D01*
X107129361Y-137069643D02*
X109386557Y-139326839D01*
X102423179Y-111294097D02*
X107129361Y-116000279D01*
X102074980Y-97403300D02*
X102423179Y-97751499D01*
X110619759Y-139326839D02*
X114614960Y-143322040D01*
X107129361Y-116000279D02*
X107129361Y-137069643D01*
X102074980Y-96253300D02*
X102074980Y-97403300D01*
X102423179Y-97751499D02*
X102423179Y-111294097D01*
X78143201Y-118676521D02*
X78943200Y-119476520D01*
X72309441Y-110972019D02*
X72615841Y-111278419D01*
X72309441Y-106965201D02*
X72309441Y-110972019D01*
X72615841Y-113149161D02*
X78143201Y-118676521D01*
X72615841Y-111278419D02*
X72615841Y-113149161D01*
X71084440Y-105740200D02*
X72309441Y-106965201D01*
X71084440Y-111412020D02*
X71490840Y-111818420D01*
X71084440Y-108280200D02*
X71084440Y-111412020D01*
X75155841Y-112068423D02*
X78898937Y-115811519D01*
X78898937Y-115811519D02*
X79483201Y-115811519D01*
X75155841Y-107103961D02*
X75155841Y-112068423D01*
X79483201Y-115811519D02*
X80068201Y-116396519D01*
X80068201Y-116396519D02*
X80068201Y-131051519D01*
X73792080Y-105740200D02*
X75155841Y-107103961D01*
X80068201Y-131051519D02*
X79743199Y-131376521D01*
X79743199Y-131376521D02*
X78943200Y-132176520D01*
X95905320Y-122560080D02*
X94055309Y-124410091D01*
X94055309Y-124410091D02*
X94055309Y-129397209D01*
X94055309Y-129397209D02*
X94055309Y-129962894D01*
X73792080Y-111579660D02*
X74030840Y-111818420D01*
X73792080Y-108280200D02*
X73792080Y-111579660D01*
X77752661Y-112941821D02*
X79202280Y-114391440D01*
X76527660Y-105732580D02*
X77752661Y-106957581D01*
X77752661Y-106957581D02*
X77752661Y-112941821D01*
X72448201Y-131051519D02*
X72123199Y-131376521D01*
X72448201Y-115254086D02*
X72448201Y-131051519D01*
X72100440Y-114906325D02*
X72448201Y-115254086D01*
X72123199Y-131376521D02*
X71323200Y-132176520D01*
X72100440Y-114340640D02*
X72100440Y-114906325D01*
X76527660Y-111775240D02*
X76570840Y-111818420D01*
X76527660Y-108272580D02*
X76527660Y-111775240D01*
X70523201Y-118676521D02*
X71323200Y-119476520D01*
X79268320Y-105732580D02*
X78043319Y-104507579D01*
X70496439Y-104515199D02*
X69859439Y-105152199D01*
X69859439Y-118012759D02*
X70523201Y-118676521D01*
X69859439Y-105152199D02*
X69859439Y-118012759D01*
X78043319Y-104507579D02*
X74924511Y-104507579D01*
X74924511Y-104507579D02*
X74916891Y-104515199D01*
X74916891Y-104515199D02*
X70496439Y-104515199D01*
X79268320Y-111660940D02*
X79110840Y-111818420D01*
X79268320Y-108272580D02*
X79268320Y-111660940D01*
X108455460Y-111579660D02*
X108795820Y-111920020D01*
X108455460Y-108364020D02*
X108455460Y-111579660D01*
X111201200Y-111785400D02*
X111335820Y-111920020D01*
X111201200Y-108358940D02*
X111201200Y-111785400D01*
X113941860Y-111853980D02*
X113875820Y-111920020D01*
X113941860Y-108358940D02*
X113941860Y-111853980D01*
X116682520Y-111653320D02*
X116415820Y-111920020D01*
X116682520Y-108358940D02*
X116682520Y-111653320D01*
X88507400Y-105825280D02*
X89965141Y-107283021D01*
X91659870Y-130851222D02*
X91659870Y-139674092D01*
X89965141Y-129156493D02*
X91659870Y-130851222D01*
X89965141Y-107283021D02*
X89965141Y-129156493D01*
X91659870Y-139674092D02*
X91659870Y-140239777D01*
X114614960Y-148402040D02*
X112320327Y-146107407D01*
X112320327Y-146107407D02*
X112320327Y-142618412D01*
X112320327Y-142618412D02*
X112320327Y-142052727D01*
X88507400Y-111542820D02*
X88840140Y-111875560D01*
X88507400Y-108365280D02*
X88507400Y-111542820D01*
X92505141Y-107072201D02*
X92505141Y-113102779D01*
X90514578Y-115093342D02*
X90514578Y-129069520D01*
X91250600Y-105817660D02*
X92505141Y-107072201D01*
X92505141Y-113102779D02*
X90514578Y-115093342D01*
X90514578Y-129069520D02*
X92384880Y-130939821D01*
X92384880Y-130939821D02*
X92384880Y-142299155D01*
X92384880Y-142299155D02*
X92384880Y-142864840D01*
X107421680Y-152146000D02*
X107421680Y-142402560D01*
X91250600Y-111746020D02*
X91380140Y-111875560D01*
X91250600Y-108357660D02*
X91250600Y-111746020D01*
X95213721Y-112246981D02*
X90964589Y-116496113D01*
X90964589Y-116496113D02*
X90964589Y-128883120D01*
X93187520Y-138189435D02*
X93187520Y-138755120D01*
X93988720Y-105817660D02*
X95213721Y-107042661D01*
X90964589Y-128883120D02*
X93187520Y-131106050D01*
X93187520Y-137209676D02*
X93072118Y-137325078D01*
X93187520Y-131106050D02*
X93187520Y-137209676D01*
X95213721Y-107042661D02*
X95213721Y-112246981D01*
X93072118Y-137325078D02*
X93072118Y-138074033D01*
X93072118Y-138074033D02*
X93187520Y-138189435D01*
X105846880Y-139760960D02*
X105846880Y-153921906D01*
X105846880Y-153921906D02*
X106887506Y-154962532D01*
X106887506Y-154962532D02*
X107287505Y-155362531D01*
X93988720Y-111806980D02*
X93920140Y-111875560D01*
X93988720Y-108357660D02*
X93988720Y-111806980D01*
X93119319Y-115648959D02*
X91414600Y-117353678D01*
X94351743Y-115648959D02*
X93119319Y-115648959D01*
X97585141Y-112415561D02*
X94351743Y-115648959D01*
X96729380Y-105817660D02*
X97954381Y-107042661D01*
X97585141Y-111105557D02*
X97585141Y-112415561D01*
X97954381Y-110736317D02*
X97585141Y-111105557D01*
X97954381Y-107042661D02*
X97954381Y-110736317D01*
X91414600Y-117353678D02*
X91414600Y-128696720D01*
X91414600Y-128696720D02*
X93797120Y-131079240D01*
X93797120Y-131079240D02*
X93797120Y-137673080D01*
X103075521Y-153731476D02*
X103075521Y-139529601D01*
X105592880Y-156248835D02*
X103075521Y-153731476D01*
X105592880Y-156814520D02*
X105592880Y-156248835D01*
X103075521Y-139529601D02*
X100365560Y-136819640D01*
X96729380Y-111606320D02*
X96460140Y-111875560D01*
X96729380Y-108357660D02*
X96729380Y-111606320D01*
X73278379Y-141299099D02*
X72378380Y-140399100D01*
X73603381Y-141624101D02*
X73278379Y-141299099D01*
X73974960Y-146068538D02*
X73603381Y-145696959D01*
X73603381Y-145696959D02*
X73603381Y-141624101D01*
X73974960Y-148452840D02*
X73974960Y-146068538D01*
X73278379Y-127681341D02*
X73278379Y-139499101D01*
X78943200Y-122016520D02*
X73278379Y-127681341D01*
X73278379Y-139499101D02*
X72378380Y-140399100D01*
X72378380Y-146136960D02*
X72794940Y-146553520D01*
X72378380Y-142939100D02*
X72378380Y-146136960D01*
X75088560Y-133491160D02*
X75088560Y-140381320D01*
X78943200Y-129636520D02*
X75088560Y-133491160D01*
X76459941Y-147093521D02*
X75745559Y-147807903D01*
X75745559Y-152539917D02*
X78390801Y-155185159D01*
X75745559Y-147807903D02*
X75745559Y-152539917D01*
X75088560Y-140381320D02*
X76459941Y-141752701D01*
X76459941Y-141752701D02*
X76459941Y-147093521D01*
X78390801Y-155185159D02*
X78790800Y-155585158D01*
X75088560Y-146307140D02*
X75334940Y-146553520D01*
X75088560Y-142921320D02*
X75088560Y-146307140D01*
X70198199Y-130761521D02*
X70198199Y-141099759D01*
X71323200Y-129636520D02*
X70198199Y-130761521D01*
X70198199Y-141099759D02*
X70693280Y-141594840D01*
X79018661Y-147074801D02*
X78285559Y-147807903D01*
X78285559Y-153361074D02*
X79959200Y-155034715D01*
X77793660Y-140381320D02*
X79018661Y-141606321D01*
X78285559Y-147807903D02*
X78285559Y-153361074D01*
X79959200Y-155827195D02*
X79959200Y-156392880D01*
X79018661Y-141606321D02*
X79018661Y-147074801D01*
X79959200Y-155034715D02*
X79959200Y-155827195D01*
X77793660Y-146472240D02*
X77874940Y-146553520D01*
X77793660Y-142921320D02*
X77793660Y-146472240D01*
X69684471Y-123655249D02*
X69684471Y-142612685D01*
X69684471Y-142612685D02*
X70826251Y-143754465D01*
X71323200Y-122016520D02*
X69684471Y-123655249D01*
X70826251Y-143754465D02*
X70826251Y-144320150D01*
X80498760Y-140381320D02*
X81723761Y-141606321D01*
X80919320Y-156436795D02*
X80919320Y-157002480D01*
X81723761Y-141606321D02*
X81723761Y-146909701D01*
X81723761Y-146909701D02*
X80825559Y-147807903D01*
X80825559Y-147807903D02*
X80825559Y-156343034D01*
X80825559Y-156343034D02*
X80919320Y-156436795D01*
X80498760Y-146469700D02*
X80414940Y-146553520D01*
X80498760Y-142921320D02*
X80498760Y-146469700D01*
X127762919Y-99962541D02*
X126962920Y-100762540D01*
X128136181Y-99589279D02*
X127762919Y-99962541D01*
X128136181Y-92408261D02*
X128136181Y-99589279D01*
X126711460Y-90983540D02*
X128136181Y-92408261D01*
X127886359Y-147632521D02*
X127086360Y-148432520D01*
X126875759Y-140956917D02*
X128211361Y-142292519D01*
X126875759Y-124687079D02*
X126875759Y-140956917D01*
X128598081Y-122964757D02*
X126875759Y-124687079D01*
X128598081Y-121268239D02*
X128598081Y-122964757D01*
X126957039Y-119627197D02*
X128598081Y-121268239D01*
X126957039Y-110239559D02*
X126957039Y-119627197D01*
X128516801Y-108679797D02*
X126957039Y-110239559D01*
X128516801Y-103447791D02*
X128516801Y-108679797D01*
X128211361Y-147307519D02*
X127886359Y-147632521D01*
X128211361Y-142292519D02*
X128211361Y-147307519D01*
X126962920Y-101893910D02*
X128516801Y-103447791D01*
X126962920Y-100762540D02*
X126962920Y-101893910D01*
X126711460Y-96723940D02*
X127011180Y-97023660D01*
X126711460Y-93523540D02*
X126711460Y-96723940D01*
X130676181Y-99589279D02*
X130302919Y-99962541D01*
X130302919Y-99962541D02*
X129502920Y-100762540D01*
X130676181Y-92235541D02*
X130676181Y-99589279D01*
X129421640Y-90981000D02*
X130676181Y-92235541D01*
X127886359Y-150172521D02*
X127086360Y-150972520D01*
X129207041Y-148851839D02*
X127886359Y-150172521D01*
X129207041Y-102189789D02*
X129207041Y-148851839D01*
X129502920Y-101893910D02*
X129207041Y-102189789D01*
X129502920Y-100762540D02*
X129502920Y-101893910D01*
X129421640Y-96894120D02*
X129551180Y-97023660D01*
X129421640Y-93521000D02*
X129421640Y-96894120D01*
X132842919Y-99962541D02*
X132042920Y-100762540D01*
X133351741Y-99453719D02*
X132842919Y-99962541D01*
X133351741Y-92206001D02*
X133351741Y-99453719D01*
X132126740Y-90981000D02*
X133351741Y-92206001D01*
X132042920Y-101893910D02*
X131780280Y-102156550D01*
X132042920Y-100762540D02*
X132042920Y-101893910D01*
X131780280Y-138937187D02*
X130921760Y-139795707D01*
X131780280Y-102156550D02*
X131780280Y-138937187D01*
X130921760Y-149677120D02*
X127086360Y-153512520D01*
X130921760Y-139795707D02*
X130921760Y-149677120D01*
X132126740Y-96988100D02*
X132091180Y-97023660D01*
X132126740Y-93521000D02*
X132126740Y-96988100D01*
X135756181Y-99589279D02*
X135382919Y-99962541D01*
X135756181Y-96253657D02*
X135756181Y-99589279D01*
X136056841Y-95952997D02*
X135756181Y-96253657D01*
X135382919Y-99962541D02*
X134582920Y-100762540D01*
X136056841Y-92206001D02*
X136056841Y-95952997D01*
X134831840Y-90981000D02*
X136056841Y-92206001D01*
X134582920Y-101893910D02*
X134495759Y-101981071D01*
X127886359Y-155252521D02*
X127086360Y-156052520D01*
X134495759Y-136858118D02*
X131371771Y-139982106D01*
X134582920Y-100762540D02*
X134582920Y-101893910D01*
X131371771Y-139982106D02*
X131371771Y-151767109D01*
X134495759Y-101981071D02*
X134495759Y-136858118D01*
X131371771Y-151767109D02*
X127886359Y-155252521D01*
X134831840Y-96823000D02*
X134631180Y-97023660D01*
X134831840Y-93521000D02*
X134831840Y-96823000D01*
X150266400Y-128950720D02*
X150266400Y-127081280D01*
X149062440Y-130154680D02*
X150266400Y-128950720D01*
X148079881Y-103726797D02*
X146601399Y-105205279D01*
X147998220Y-91252040D02*
X149223221Y-92477041D01*
X149223221Y-92477041D02*
X149223221Y-94952041D01*
X144092679Y-99042439D02*
X143329879Y-99805239D01*
X144376359Y-101689119D02*
X147494881Y-101689119D01*
X148079881Y-102274119D02*
X148079881Y-103726797D01*
X149223221Y-94952041D02*
X145132823Y-99042439D01*
X146601399Y-105205279D02*
X146601399Y-114267797D01*
X150266400Y-125569871D02*
X150266400Y-125949910D01*
X146601399Y-118921279D02*
X146601399Y-121904870D01*
X146601399Y-114267797D02*
X148242441Y-115908839D01*
X143329879Y-100642639D02*
X144376359Y-101689119D01*
X148242441Y-115908839D02*
X148242441Y-117280237D01*
X148242441Y-117280237D02*
X146601399Y-118921279D01*
X147494881Y-101689119D02*
X148079881Y-102274119D01*
X145132823Y-99042439D02*
X144092679Y-99042439D01*
X143329879Y-99805239D02*
X143329879Y-100642639D01*
X146601399Y-121904870D02*
X150266400Y-125569871D01*
X150266400Y-125949910D02*
X150266400Y-127081280D01*
X127336363Y-149847519D02*
X126546359Y-149847519D01*
X126546359Y-149847519D02*
X125244023Y-151149855D01*
X128661372Y-142106119D02*
X128661372Y-148522510D01*
X128000760Y-132847080D02*
X128000760Y-141445507D01*
X125244023Y-151149855D02*
X125244023Y-159554639D01*
X128000760Y-141445507D02*
X128661372Y-142106119D01*
X128661372Y-148522510D02*
X127336363Y-149847519D01*
X125244023Y-159554639D02*
X125244023Y-160120324D01*
X146848220Y-93792040D02*
X140975080Y-99665180D01*
X147998220Y-93792040D02*
X146848220Y-93792040D01*
X140975080Y-99665180D02*
X140975080Y-100167440D01*
X152006401Y-126281281D02*
X152806400Y-127081280D01*
X149141399Y-123416279D02*
X152006401Y-126281281D01*
X149141399Y-105205279D02*
X149141399Y-123416279D01*
X151935941Y-102410737D02*
X149141399Y-105205279D01*
X151935941Y-92454181D02*
X151935941Y-102410737D01*
X150710940Y-91229180D02*
X151935941Y-92454181D01*
X152806400Y-128212650D02*
X152877520Y-128283770D01*
X152806400Y-127081280D02*
X152806400Y-128212650D01*
X152877520Y-128283770D02*
X152877520Y-129189480D01*
X123845320Y-129235200D02*
X123845320Y-138724640D01*
X125369320Y-140248640D02*
X125369320Y-140299440D01*
X123845320Y-138724640D02*
X125369320Y-140248640D01*
X99054920Y-163415980D02*
X97256600Y-165214300D01*
X99054920Y-147706080D02*
X99054920Y-163415980D01*
X150710940Y-93769180D02*
X150710940Y-94919180D01*
X150710940Y-94919180D02*
X145462680Y-100167440D01*
X145462680Y-100167440D02*
X144632680Y-100167440D01*
X151066399Y-112565281D02*
X150266400Y-113365280D01*
X151391401Y-112240279D02*
X151066399Y-112565281D01*
X151391401Y-105495277D02*
X151391401Y-112240279D01*
X154929661Y-101957017D02*
X151391401Y-105495277D01*
X154641041Y-96245099D02*
X154929661Y-96533719D01*
X154929661Y-96533719D02*
X154929661Y-101957017D01*
X154641041Y-92454181D02*
X154641041Y-96245099D01*
X153416040Y-91229180D02*
X154641041Y-92454181D01*
X143462043Y-159564072D02*
X143249661Y-159776454D01*
X146311401Y-132717161D02*
X143118840Y-135909722D01*
X143372840Y-119312722D02*
X146311401Y-122251283D01*
X143462043Y-152972640D02*
X143462043Y-159564072D01*
X143249661Y-159776454D02*
X142849662Y-160176453D01*
X143118840Y-152629437D02*
X143462043Y-152972640D01*
X143118840Y-135909722D02*
X143118840Y-152629437D01*
X146311401Y-122251283D02*
X146311401Y-132717161D01*
X143372840Y-112151160D02*
X143372840Y-119312722D01*
X153416040Y-96685100D02*
X153804660Y-97073720D01*
X153416040Y-93769180D02*
X153416040Y-96685100D01*
X153606399Y-112565281D02*
X152806400Y-113365280D01*
X153931401Y-112240279D02*
X153606399Y-112565281D01*
X157469661Y-101957017D02*
X153931401Y-105495277D01*
X153931401Y-105495277D02*
X153931401Y-112240279D01*
X157469661Y-92577701D02*
X157469661Y-101957017D01*
X156121140Y-91229180D02*
X157469661Y-92577701D01*
X156121140Y-96850200D02*
X156344660Y-97073720D01*
X156121140Y-93769180D02*
X156121140Y-96850200D01*
X156471401Y-112240279D02*
X156146399Y-112565281D01*
X156471401Y-105495277D02*
X156471401Y-112240279D01*
X156146399Y-112565281D02*
X155346400Y-113365280D01*
X160051241Y-101915437D02*
X156471401Y-105495277D01*
X160051241Y-92454181D02*
X160051241Y-101915437D01*
X158826240Y-91229180D02*
X160051241Y-92454181D01*
X158826240Y-97015300D02*
X158884660Y-97073720D01*
X158826240Y-93769180D02*
X158826240Y-97015300D01*
X158686399Y-112565281D02*
X157886400Y-113365280D01*
X159011401Y-112240279D02*
X158686399Y-112565281D01*
X159011401Y-105495277D02*
X159011401Y-112240279D01*
X162756341Y-101750337D02*
X159011401Y-105495277D01*
X162756341Y-92454181D02*
X162756341Y-101750337D01*
X161531340Y-91229180D02*
X162756341Y-92454181D01*
X161531340Y-96967040D02*
X161424660Y-97073720D01*
X161531340Y-93769180D02*
X161531340Y-96967040D01*
X161551401Y-115621651D02*
X161551401Y-123045439D01*
X160426400Y-114496650D02*
X161551401Y-115621651D01*
X160426400Y-113365280D02*
X160426400Y-114496650D01*
X161226399Y-127881279D02*
X161499481Y-127881279D01*
X161499481Y-127881279D02*
X164750919Y-131132717D01*
X164750919Y-131132717D02*
X164750919Y-134297441D01*
X160426400Y-127081280D02*
X161226399Y-127881279D01*
X164750919Y-134297441D02*
X164894041Y-134440563D01*
X164894041Y-134440563D02*
X164894041Y-145869281D01*
X162366362Y-148396960D02*
X161887970Y-148396960D01*
X164894041Y-145869281D02*
X162366362Y-148396960D01*
X161887970Y-148396960D02*
X160756600Y-148396960D01*
X160426400Y-124170440D02*
X160426400Y-125949910D01*
X161551401Y-123045439D02*
X160426400Y-124170440D01*
X160426400Y-125949910D02*
X160426400Y-127081280D01*
X119504249Y-133649611D02*
X119104250Y-134049610D01*
X120116600Y-165214300D02*
X119041759Y-164139459D01*
X119748081Y-139235997D02*
X119748081Y-134693441D01*
X119748081Y-134693441D02*
X119504249Y-134449609D01*
X119041759Y-164139459D02*
X119041759Y-139942319D01*
X119041759Y-139942319D02*
X119748081Y-139235997D01*
X119504249Y-134449609D02*
X119104250Y-134049610D01*
X118704360Y-124160280D02*
X119748081Y-125204001D01*
X119748081Y-125204001D02*
X119748081Y-133405779D01*
X119748081Y-133405779D02*
X119504249Y-133649611D01*
X146552920Y-145856960D02*
X144936042Y-147473838D01*
X144936042Y-147473838D02*
X144936042Y-162817283D01*
X144907000Y-162846325D02*
X144907000Y-163412010D01*
X144936042Y-162817283D02*
X144907000Y-162846325D01*
X76936600Y-161076640D02*
X76936600Y-165214300D01*
X79410560Y-158602680D02*
X76936600Y-161076640D01*
X74396600Y-161076640D02*
X74396600Y-165214300D01*
X76870560Y-158602680D02*
X74396600Y-161076640D01*
X73530561Y-163540339D02*
X72706599Y-164364301D01*
X72706599Y-164364301D02*
X71856600Y-165214300D01*
X73530561Y-159402679D02*
X73530561Y-163540339D01*
X74330560Y-158602680D02*
X73530561Y-159402679D01*
X71790560Y-162740340D02*
X69316600Y-165214300D01*
X71790560Y-158602680D02*
X71790560Y-162740340D01*
X89570560Y-136545320D02*
X88285320Y-135260080D01*
X89570560Y-150982680D02*
X89570560Y-136545320D01*
X92110560Y-149851310D02*
X90109040Y-147849790D01*
X92110560Y-150982680D02*
X92110560Y-149851310D01*
X90109040Y-132933440D02*
X90058240Y-132882640D01*
X90109040Y-147849790D02*
X90109040Y-132933440D01*
X90898504Y-131115175D02*
X90771504Y-130988175D01*
X90898504Y-147327144D02*
X90898504Y-131115175D01*
X93850561Y-150182681D02*
X93754041Y-150182681D01*
X90771504Y-130988175D02*
X90371505Y-130588176D01*
X94650560Y-150982680D02*
X93850561Y-150182681D01*
X93754041Y-150182681D02*
X90898504Y-147327144D01*
X133080760Y-120888760D02*
X133146800Y-120822720D01*
X133080760Y-125227080D02*
X133080760Y-120888760D01*
X152806400Y-120592650D02*
X152928320Y-120714570D01*
X152806400Y-119461280D02*
X152806400Y-120592650D01*
X152928320Y-120714570D02*
X152928320Y-123911360D01*
X155102558Y-152902918D02*
X153136600Y-150936960D01*
X155102558Y-154833320D02*
X155102558Y-152902918D01*
X152806400Y-111700278D02*
X151681399Y-112825279D01*
X152011599Y-147220549D02*
X151561588Y-147670559D01*
X154137360Y-119127238D02*
X154137360Y-140131198D01*
X152336601Y-155216961D02*
X153136600Y-156016960D01*
X151681399Y-116671277D02*
X154137360Y-119127238D01*
X151561588Y-147670559D02*
X151561588Y-154441948D01*
X152806400Y-105745280D02*
X152806400Y-111700278D01*
X152011599Y-142256959D02*
X152011599Y-147220549D01*
X154137360Y-140131198D02*
X152011599Y-142256959D01*
X151681399Y-112825279D02*
X151681399Y-116671277D01*
X151561588Y-154441948D02*
X152336601Y-155216961D01*
X154221399Y-116671277D02*
X156565600Y-119015478D01*
X154221399Y-112825279D02*
X154221399Y-116671277D01*
X155346400Y-111700278D02*
X154221399Y-112825279D01*
X155346400Y-105745280D02*
X155346400Y-111700278D01*
X156565600Y-144967960D02*
X153136600Y-148396960D01*
X156565600Y-119015478D02*
X156565600Y-144967960D01*
X156761399Y-116671277D02*
X159252920Y-119162798D01*
X156761399Y-112825279D02*
X156761399Y-116671277D01*
X157886400Y-111700278D02*
X156761399Y-112825279D01*
X157886400Y-105745280D02*
X157886400Y-111700278D01*
X159252920Y-157053280D02*
X160573720Y-158374080D01*
X159252920Y-119162798D02*
X159252920Y-157053280D01*
X160573720Y-158374080D02*
X160756600Y-158556960D01*
X139285761Y-121983281D02*
X136502039Y-119199559D01*
X136502039Y-119199559D02*
X135702040Y-118399560D01*
X139285761Y-141484799D02*
X139285761Y-121983281D01*
X141173200Y-143372238D02*
X139285761Y-141484799D01*
X141173200Y-148808440D02*
X141173200Y-143372238D01*
X122661680Y-92415360D02*
X127111760Y-87965280D01*
X127111760Y-87965280D02*
X140324840Y-87965280D01*
X160080442Y-87965280D02*
X165481000Y-93365838D01*
X140324840Y-87965280D02*
X160080442Y-87965280D01*
X165481000Y-93365838D02*
X165481000Y-128275080D01*
X160482280Y-135011160D02*
X160502600Y-135031480D01*
X160482280Y-131069080D02*
X160482280Y-135011160D01*
X142668829Y-135334413D02*
X142945022Y-135058220D01*
X142945022Y-135058220D02*
X143345021Y-134658221D01*
X142668829Y-149486189D02*
X142668829Y-135334413D01*
X142668829Y-149741051D02*
X142668829Y-149486189D01*
X142668829Y-149486189D02*
X142613165Y-149541853D01*
X142613165Y-149541853D02*
X142613165Y-153165523D01*
X142613165Y-153165523D02*
X142731330Y-153283688D01*
X152336601Y-152676961D02*
X153136600Y-153476960D01*
X152011599Y-147856959D02*
X152011599Y-152351959D01*
X153136600Y-145856960D02*
X153136600Y-146731958D01*
X153136600Y-146731958D02*
X152011599Y-147856959D01*
X152011599Y-152351959D02*
X152336601Y-152676961D01*
X127873760Y-125354080D02*
X128000760Y-125227080D01*
X127873760Y-131241800D02*
X127873760Y-125354080D01*
X130540760Y-131715710D02*
X130276600Y-131451550D01*
X130540760Y-132847080D02*
X130540760Y-131715710D01*
X130276600Y-131451550D02*
X130276600Y-128249680D01*
X124492040Y-118399560D02*
X125542040Y-118399560D01*
X123677680Y-119213920D02*
X124492040Y-118399560D01*
X123677680Y-127944880D02*
X123677680Y-119213920D01*
X137035759Y-136688451D02*
X136696399Y-137027811D01*
X137035759Y-126352081D02*
X137035759Y-136688451D01*
X138160760Y-125227080D02*
X137035759Y-126352081D01*
X136696399Y-137027811D02*
X136296400Y-137427810D01*
X133162040Y-115808760D02*
X133126480Y-115773200D01*
X133162040Y-118399560D02*
X133162040Y-115808760D01*
X136880600Y-118703122D02*
X142006320Y-123828842D01*
X136880600Y-116027200D02*
X136880600Y-118703122D01*
X142006320Y-149052280D02*
X142006320Y-149296120D01*
X142006320Y-149052280D02*
X142006320Y-158485840D01*
X142006320Y-123828842D02*
X142006320Y-149052280D01*
X122312590Y-121647437D02*
X122521181Y-121856028D01*
X122521181Y-121856028D02*
X122521181Y-127391966D01*
X122312590Y-121081752D02*
X122312590Y-121647437D01*
X122312590Y-132397849D02*
X122312590Y-132963534D01*
X122502668Y-128479281D02*
X122521181Y-128497794D01*
X122502668Y-127410479D02*
X122502668Y-128479281D01*
X122521181Y-127391966D02*
X122502668Y-127410479D01*
X122521181Y-128497794D02*
X122521181Y-132189258D01*
X122521181Y-132189258D02*
X122312590Y-132397849D01*
X155402280Y-134000240D02*
X155437840Y-134035800D01*
X155402280Y-131069080D02*
X155402280Y-134000240D01*
X165475920Y-151297640D02*
X160756600Y-156016960D01*
X165475920Y-133949440D02*
X165475920Y-151297640D01*
X117581680Y-97495360D02*
X120121680Y-100035360D01*
X117581680Y-92415360D02*
X117581680Y-97495360D01*
X113301679Y-99235361D02*
X112501680Y-100035360D01*
X116166681Y-96370359D02*
X113301679Y-99235361D01*
X116166681Y-92165357D02*
X116166681Y-96370359D01*
X117041679Y-91290359D02*
X116166681Y-92165357D01*
X118996679Y-91290359D02*
X117041679Y-91290359D01*
X120121680Y-92415360D02*
X118996679Y-91290359D01*
X118623080Y-136738360D02*
X118623080Y-135606990D01*
X118623080Y-135606990D02*
X118379240Y-135363150D01*
X118379240Y-135363150D02*
X118379240Y-130937000D01*
X97825560Y-130175000D02*
X97825560Y-125455680D01*
X97825560Y-125455680D02*
X98181160Y-125100080D01*
X111003080Y-136738360D02*
X111003080Y-131797739D01*
X111003080Y-131797739D02*
X110867351Y-131662010D01*
X113543080Y-134357381D02*
X113685320Y-134499621D01*
X113543080Y-129118360D02*
X113543080Y-134357381D01*
X83022440Y-124556520D02*
X83022440Y-128452880D01*
X116164360Y-116540280D02*
X117486599Y-117862519D01*
X117486599Y-117862519D02*
X117486599Y-131163081D01*
X117486599Y-131163081D02*
X117490609Y-131167091D01*
X117490609Y-131167091D02*
X117490609Y-150264990D01*
X117490609Y-150264990D02*
X117916750Y-150691131D01*
X117916750Y-150691131D02*
X118316749Y-151091130D01*
X135506359Y-151772519D02*
X134706360Y-150972520D01*
X137807919Y-160045619D02*
X137807919Y-154653371D01*
X135506359Y-152351811D02*
X135506359Y-151772519D01*
X137807919Y-154653371D02*
X135506359Y-152351811D01*
X142976600Y-165214300D02*
X137807919Y-160045619D01*
X137357908Y-158646950D02*
X135831361Y-157120403D01*
X137357908Y-162135608D02*
X137357908Y-158646950D01*
X135831361Y-157120403D02*
X135831361Y-154637521D01*
X135506359Y-154312519D02*
X134706360Y-153512520D01*
X140436600Y-165214300D02*
X137357908Y-162135608D01*
X135831361Y-154637521D02*
X135506359Y-154312519D01*
X114749361Y-139998617D02*
X116927222Y-142176478D01*
X114749361Y-117665281D02*
X114749361Y-139998617D01*
X116927222Y-142176478D02*
X116927222Y-152136702D01*
X116927222Y-152136702D02*
X117268041Y-152477521D01*
X113624360Y-116540280D02*
X114749361Y-117665281D01*
X117268041Y-152477521D02*
X117668040Y-152877520D01*
X137896600Y-165214300D02*
X136907897Y-164225597D01*
X136907897Y-164225597D02*
X136907897Y-158833350D01*
X136907897Y-158833350D02*
X134706360Y-156631813D01*
X134706360Y-156631813D02*
X134706360Y-156052520D01*
X112418079Y-117873999D02*
X112418079Y-138940157D01*
X115861361Y-141747028D02*
X116477211Y-142362878D01*
X111084360Y-116540280D02*
X112418079Y-117873999D01*
X116477211Y-142362878D02*
X116477211Y-155491611D01*
X116477211Y-155491611D02*
X116495881Y-155510281D01*
X116495881Y-155510281D02*
X116895880Y-155910280D01*
X112418079Y-138940157D02*
X115224950Y-141747028D01*
X115224950Y-141747028D02*
X115861361Y-141747028D01*
X135356600Y-159242760D02*
X134706360Y-158592520D01*
X135356600Y-165214300D02*
X135356600Y-159242760D01*
X109669361Y-137069643D02*
X114796757Y-142197039D01*
X115674961Y-142197039D02*
X116027200Y-142549278D01*
X108544360Y-116540280D02*
X109669361Y-117665281D01*
X114796757Y-142197039D02*
X115674961Y-142197039D01*
X109669361Y-117665281D02*
X109669361Y-137069643D01*
X116027200Y-142549278D02*
X116027200Y-158658560D01*
M02*
