M48
; DRILL file {KiCad (5.1.4-0-10_14)} date Tuesday, February 11, 2020 at 09:32:07 PM
; FORMAT={-:-/ absolute / inch / decimal}
; #@! TF.CreationDate,2020-02-11T21:32:07-08:00
; #@! TF.GenerationSoftware,Kicad,Pcbnew,(5.1.4-0-10_14)
; #@! TF.FileFunction,Plated,1,2,PTH
FMAT,2
INCH
T1C0.0157
T2C0.0315
T3C0.0354
T4C0.0394
%
G90
G05
T1
X2.9265Y-3.744
X2.9665Y-3.594
X3.0635Y-4.5895
X3.141Y-4.552
X3.2725Y-4.519
X3.365Y-4.632
X3.5135Y-4.9285
X3.8775Y-4.109
X3.889Y-3.7525
X3.929Y-3.5955
X3.972Y-4.556
X3.981Y-4.0455
X4.055Y-4.5945
X4.0725Y-4.013
X4.1535Y-4.633
X4.2332Y-4.1303
X4.2545Y-4.296
X4.279Y-4.0755
X4.3662Y-4.3427
X4.3805Y-3.977
X4.3965Y-4.6565
X4.4665Y-4.329
X4.4975Y-4.9345
X4.559Y-4.3025
X4.6995Y-3.781
X4.6995Y-3.94
X4.7385Y-4.4295
X4.7695Y-3.3755
X4.838Y-4.525
X4.874Y-4.556
X4.9445Y-4.2305
X4.9742Y-4.6883
X5.0112Y-3.9053
X5.0615Y-4.216
X5.0995Y-4.598
X5.1615Y-3.9065
X5.1655Y-4.651
X5.3058Y-4.0682
X5.4172Y-4.0983
X5.5172Y-4.1323
X5.6058Y-4.1617
X5.998Y-4.204
T2
X5.0615Y-3.992
X5.0615Y-4.292
X5.1615Y-3.992
X5.1615Y-4.292
X5.2615Y-3.992
X5.2615Y-4.292
X5.3615Y-3.992
X5.3615Y-4.292
X5.4615Y-3.992
X5.4615Y-4.292
X5.5615Y-3.992
X5.5615Y-4.292
X5.6615Y-3.992
X5.6615Y-4.292
X5.0655Y-4.4455
X5.0655Y-4.7455
X5.1655Y-4.4455
X5.1655Y-4.7455
X5.2655Y-4.4455
X5.2655Y-4.7455
X5.3655Y-4.4455
X5.3655Y-4.7455
X5.4655Y-4.4455
X5.4655Y-4.7455
X5.5655Y-4.4455
X5.5655Y-4.7455
X5.6655Y-4.4455
X5.6655Y-4.7455
X4.6995Y-4.126
X4.6995Y-4.2244
X3.755Y-4.447
X3.755Y-4.747
X3.855Y-4.447
X3.855Y-4.747
X3.955Y-4.447
X3.955Y-4.747
X4.055Y-4.447
X4.055Y-4.747
X4.155Y-4.447
X4.155Y-4.747
X4.255Y-4.447
X4.255Y-4.747
X4.355Y-4.447
X4.355Y-4.747
X4.455Y-4.447
X4.455Y-4.747
X4.555Y-4.447
X4.555Y-4.747
X4.655Y-4.447
X4.655Y-4.747
X5.8245Y-3.8365
X6.2245Y-3.8365
X3.7365Y-4.1261
X3.7365Y-4.2245
X2.9115Y-3.361
X2.9115Y-3.661
X3.0115Y-3.361
X3.0115Y-3.661
X3.1115Y-3.361
X3.1115Y-3.661
X3.2115Y-3.361
X3.8775Y-3.9055
X3.8775Y-4.2055
X3.9775Y-3.9055
X3.9775Y-4.2055
X4.0775Y-3.9055
X4.0775Y-4.2055
X4.1775Y-3.9055
X4.1775Y-4.2055
X4.2775Y-3.9055
X4.2775Y-4.2055
X4.3775Y-3.9055
X4.3775Y-4.2055
X4.4775Y-3.9055
X4.4775Y-4.2055
X4.5775Y-3.9055
X4.5775Y-4.2055
X5.8245Y-3.6265
X6.2245Y-3.6265
X4.9485Y-4.4255
X4.9485Y-4.5239
X5.8245Y-3.969
X6.2245Y-3.969
X2.9115Y-3.9045
X3.3115Y-3.661
X3.5115Y-4.2045
X3.2115Y-3.661
X3.3115Y-3.361
X3.4115Y-3.661
X3.5115Y-3.661
X3.6115Y-3.661
X2.9115Y-4.2045
X3.0115Y-3.9045
X3.0115Y-4.2045
X3.1115Y-3.9045
X3.1115Y-4.2045
X3.2115Y-3.9045
X3.2115Y-4.2045
X3.3115Y-3.9045
X3.3115Y-4.2045
X3.4115Y-3.9045
X3.4115Y-4.2045
X3.5115Y-3.9045
X3.6115Y-3.9045
X4.6995Y-3.679
X3.4115Y-3.361
X3.6115Y-4.2045
X4.6995Y-3.5806
X3.5115Y-3.361
X3.6115Y-3.361
X2.912Y-4.448
X2.912Y-4.748
X3.012Y-4.448
X3.012Y-4.748
X3.112Y-4.448
X3.112Y-4.748
X3.212Y-4.448
X3.212Y-4.748
X3.312Y-4.448
X3.312Y-4.748
X3.412Y-4.448
X3.412Y-4.748
X3.512Y-4.448
X3.512Y-4.748
X3.632Y-4.6681
X3.632Y-4.7665
X3.7405Y-3.5791
X3.7405Y-3.6775
X3.8785Y-3.36
X3.8785Y-3.66
X3.9785Y-3.36
X3.9785Y-3.66
X4.0785Y-3.36
X4.0785Y-3.66
X4.1785Y-3.36
X4.1785Y-3.66
X4.2785Y-3.36
X4.2785Y-3.66
X4.3785Y-3.36
X4.3785Y-3.66
X4.4785Y-3.36
X4.4785Y-3.66
X4.5785Y-3.36
X4.7785Y-4.6661
X4.7785Y-4.7645
X5.8245Y-3.494
X6.2245Y-3.494
X5.8245Y-3.3615
X6.2245Y-3.3615
X4.5785Y-3.66
X4.856Y-3.7685
X4.956Y-3.7685
X5.056Y-3.7685
X5.156Y-3.7685
X5.256Y-3.7685
X5.356Y-3.7685
X5.8245Y-4.3065
X6.2245Y-4.3065
X5.556Y-3.7685
X5.656Y-3.7685
X4.945Y-3.9715
X4.945Y-4.0699
X5.456Y-3.7685
X5.8245Y-4.1015
X6.2245Y-4.1015
T3
X6.3595Y-3.969
X6.4595Y-3.969
X6.362Y-3.6265
X6.462Y-3.6265
X5.6705Y-3.5255
X5.6705Y-3.6255
X6.362Y-3.494
X6.462Y-3.494
X5.318Y-3.5255
X5.318Y-3.6255
X5.078Y-3.5255
X5.078Y-3.6255
X4.843Y-3.5255
X6.362Y-4.3065
X5.1955Y-3.5255
X5.1955Y-3.6255
X4.843Y-3.6255
X6.4595Y-4.099
X5.4355Y-3.5255
X5.4355Y-3.6255
X6.3595Y-4.099
X6.462Y-4.3065
X6.362Y-3.3615
X6.462Y-3.3615
X4.9605Y-3.5255
X4.9605Y-3.6255
X6.3595Y-3.8365
X6.4595Y-3.8365
X5.553Y-3.5255
X5.553Y-3.6255
T4
X2.93Y-5.0375
X3.03Y-5.0375
X3.13Y-5.0375
X3.23Y-5.0375
X3.33Y-5.0375
X3.43Y-5.0375
X3.53Y-5.0375
X3.63Y-5.0375
X3.73Y-5.0375
X3.83Y-5.0375
X3.93Y-5.0375
X4.03Y-5.0375
X4.13Y-5.0375
X4.23Y-5.0375
X4.33Y-5.0375
X4.43Y-5.0375
X4.53Y-5.0375
X4.63Y-5.0375
X4.73Y-5.0375
X4.83Y-5.0375
X4.93Y-5.0375
X5.03Y-5.0375
X5.13Y-5.0375
X5.23Y-5.0375
X5.33Y-5.0375
X5.43Y-5.0375
X5.53Y-5.0375
X5.63Y-5.0375
X5.73Y-5.0375
X5.83Y-5.0375
X5.93Y-5.0375
X6.03Y-5.0375
X6.13Y-5.0375
X6.23Y-5.0375
X6.33Y-5.0375
X6.43Y-5.0375
X6.53Y-5.0375
X6.63Y-5.0375
T0
M30
