G04 #@! TF.GenerationSoftware,KiCad,Pcbnew,(5.1.4-0-10_14)*
G04 #@! TF.CreationDate,2020-02-11T21:32:02-08:00*
G04 #@! TF.ProjectId,transfer-register-board,7472616e-7366-4657-922d-726567697374,rev?*
G04 #@! TF.SameCoordinates,Original*
G04 #@! TF.FileFunction,Legend,Top*
G04 #@! TF.FilePolarity,Positive*
%FSLAX46Y46*%
G04 Gerber Fmt 4.6, Leading zero omitted, Abs format (unit mm)*
G04 Created by KiCad (PCBNEW (5.1.4-0-10_14)) date 2020-02-11 21:32:02*
%MOMM*%
%LPD*%
G04 APERTURE LIST*
%ADD10C,0.150000*%
%ADD11C,0.200000*%
%ADD12C,0.120000*%
G04 APERTURE END LIST*
D10*
X148229323Y-117489790D02*
X148229323Y-117965980D01*
X147895990Y-116965980D02*
X148229323Y-117489790D01*
X148562657Y-116965980D01*
X148848371Y-117680266D02*
X149324561Y-117680266D01*
X148753133Y-117965980D02*
X149086466Y-116965980D01*
X149419800Y-117965980D01*
X150181704Y-117299314D02*
X150181704Y-117965980D01*
X149943609Y-116918361D02*
X149705514Y-117632647D01*
X150324561Y-117632647D01*
X151038847Y-117442171D02*
X151181704Y-117489790D01*
X151229323Y-117537409D01*
X151276942Y-117632647D01*
X151276942Y-117775504D01*
X151229323Y-117870742D01*
X151181704Y-117918361D01*
X151086466Y-117965980D01*
X150705514Y-117965980D01*
X150705514Y-116965980D01*
X151038847Y-116965980D01*
X151134085Y-117013600D01*
X151181704Y-117061219D01*
X151229323Y-117156457D01*
X151229323Y-117251695D01*
X151181704Y-117346933D01*
X151134085Y-117394552D01*
X151038847Y-117442171D01*
X150705514Y-117442171D01*
X152324561Y-116965980D02*
X152895990Y-116965980D01*
X152610276Y-117965980D02*
X152610276Y-116965980D01*
X153229323Y-117965980D02*
X153229323Y-117299314D01*
X153229323Y-117489790D02*
X153276942Y-117394552D01*
X153324561Y-117346933D01*
X153419800Y-117299314D01*
X153515038Y-117299314D01*
X154276942Y-117965980D02*
X154276942Y-117442171D01*
X154229323Y-117346933D01*
X154134085Y-117299314D01*
X153943609Y-117299314D01*
X153848371Y-117346933D01*
X154276942Y-117918361D02*
X154181704Y-117965980D01*
X153943609Y-117965980D01*
X153848371Y-117918361D01*
X153800752Y-117823123D01*
X153800752Y-117727885D01*
X153848371Y-117632647D01*
X153943609Y-117585028D01*
X154181704Y-117585028D01*
X154276942Y-117537409D01*
X154753133Y-117299314D02*
X154753133Y-117965980D01*
X154753133Y-117394552D02*
X154800752Y-117346933D01*
X154895990Y-117299314D01*
X155038847Y-117299314D01*
X155134085Y-117346933D01*
X155181704Y-117442171D01*
X155181704Y-117965980D01*
X155610276Y-117918361D02*
X155705514Y-117965980D01*
X155895990Y-117965980D01*
X155991228Y-117918361D01*
X156038847Y-117823123D01*
X156038847Y-117775504D01*
X155991228Y-117680266D01*
X155895990Y-117632647D01*
X155753133Y-117632647D01*
X155657895Y-117585028D01*
X155610276Y-117489790D01*
X155610276Y-117442171D01*
X155657895Y-117346933D01*
X155753133Y-117299314D01*
X155895990Y-117299314D01*
X155991228Y-117346933D01*
X156324561Y-117299314D02*
X156705514Y-117299314D01*
X156467419Y-117965980D02*
X156467419Y-117108838D01*
X156515038Y-117013600D01*
X156610276Y-116965980D01*
X156705514Y-116965980D01*
X157419800Y-117918361D02*
X157324561Y-117965980D01*
X157134085Y-117965980D01*
X157038847Y-117918361D01*
X156991228Y-117823123D01*
X156991228Y-117442171D01*
X157038847Y-117346933D01*
X157134085Y-117299314D01*
X157324561Y-117299314D01*
X157419800Y-117346933D01*
X157467419Y-117442171D01*
X157467419Y-117537409D01*
X156991228Y-117632647D01*
X157895990Y-117965980D02*
X157895990Y-117299314D01*
X157895990Y-117489790D02*
X157943609Y-117394552D01*
X157991228Y-117346933D01*
X158086466Y-117299314D01*
X158181704Y-117299314D01*
X159848371Y-117965980D02*
X159515038Y-117489790D01*
X159276942Y-117965980D02*
X159276942Y-116965980D01*
X159657895Y-116965980D01*
X159753133Y-117013600D01*
X159800752Y-117061219D01*
X159848371Y-117156457D01*
X159848371Y-117299314D01*
X159800752Y-117394552D01*
X159753133Y-117442171D01*
X159657895Y-117489790D01*
X159276942Y-117489790D01*
X160657895Y-117918361D02*
X160562657Y-117965980D01*
X160372180Y-117965980D01*
X160276942Y-117918361D01*
X160229323Y-117823123D01*
X160229323Y-117442171D01*
X160276942Y-117346933D01*
X160372180Y-117299314D01*
X160562657Y-117299314D01*
X160657895Y-117346933D01*
X160705514Y-117442171D01*
X160705514Y-117537409D01*
X160229323Y-117632647D01*
X161562657Y-117299314D02*
X161562657Y-118108838D01*
X161515038Y-118204076D01*
X161467419Y-118251695D01*
X161372180Y-118299314D01*
X161229323Y-118299314D01*
X161134085Y-118251695D01*
X161562657Y-117918361D02*
X161467419Y-117965980D01*
X161276942Y-117965980D01*
X161181704Y-117918361D01*
X161134085Y-117870742D01*
X161086466Y-117775504D01*
X161086466Y-117489790D01*
X161134085Y-117394552D01*
X161181704Y-117346933D01*
X161276942Y-117299314D01*
X161467419Y-117299314D01*
X161562657Y-117346933D01*
X162038847Y-117965980D02*
X162038847Y-117299314D01*
X162038847Y-116965980D02*
X161991228Y-117013600D01*
X162038847Y-117061219D01*
X162086466Y-117013600D01*
X162038847Y-116965980D01*
X162038847Y-117061219D01*
X162467419Y-117918361D02*
X162562657Y-117965980D01*
X162753133Y-117965980D01*
X162848371Y-117918361D01*
X162895990Y-117823123D01*
X162895990Y-117775504D01*
X162848371Y-117680266D01*
X162753133Y-117632647D01*
X162610276Y-117632647D01*
X162515038Y-117585028D01*
X162467419Y-117489790D01*
X162467419Y-117442171D01*
X162515038Y-117346933D01*
X162610276Y-117299314D01*
X162753133Y-117299314D01*
X162848371Y-117346933D01*
X163181704Y-117299314D02*
X163562657Y-117299314D01*
X163324561Y-116965980D02*
X163324561Y-117823123D01*
X163372180Y-117918361D01*
X163467419Y-117965980D01*
X163562657Y-117965980D01*
X164276942Y-117918361D02*
X164181704Y-117965980D01*
X163991228Y-117965980D01*
X163895990Y-117918361D01*
X163848371Y-117823123D01*
X163848371Y-117442171D01*
X163895990Y-117346933D01*
X163991228Y-117299314D01*
X164181704Y-117299314D01*
X164276942Y-117346933D01*
X164324561Y-117442171D01*
X164324561Y-117537409D01*
X163848371Y-117632647D01*
X164753133Y-117965980D02*
X164753133Y-117299314D01*
X164753133Y-117489790D02*
X164800752Y-117394552D01*
X164848371Y-117346933D01*
X164943609Y-117299314D01*
X165038847Y-117299314D01*
X166038847Y-117299314D02*
X166276942Y-117965980D01*
X166515038Y-117299314D01*
X167419800Y-117965980D02*
X166848371Y-117965980D01*
X167134085Y-117965980D02*
X167134085Y-116965980D01*
X167038847Y-117108838D01*
X166943609Y-117204076D01*
X166848371Y-117251695D01*
X167848371Y-117870742D02*
X167895990Y-117918361D01*
X167848371Y-117965980D01*
X167800752Y-117918361D01*
X167848371Y-117870742D01*
X167848371Y-117965980D01*
X168515038Y-116965980D02*
X168610276Y-116965980D01*
X168705514Y-117013600D01*
X168753133Y-117061219D01*
X168800752Y-117156457D01*
X168848371Y-117346933D01*
X168848371Y-117585028D01*
X168800752Y-117775504D01*
X168753133Y-117870742D01*
X168705514Y-117918361D01*
X168610276Y-117965980D01*
X168515038Y-117965980D01*
X168419800Y-117918361D01*
X168372180Y-117870742D01*
X168324561Y-117775504D01*
X168276942Y-117585028D01*
X168276942Y-117346933D01*
X168324561Y-117156457D01*
X168372180Y-117061219D01*
X168419800Y-117013600D01*
X168515038Y-116965980D01*
X150419800Y-118854076D02*
X150324561Y-118806457D01*
X150134085Y-118806457D01*
X150038847Y-118854076D01*
X149943609Y-118949314D01*
X149895990Y-119044552D01*
X149895990Y-119235028D01*
X149943609Y-119330266D01*
X150038847Y-119425504D01*
X150134085Y-119473123D01*
X150324561Y-119473123D01*
X150419800Y-119425504D01*
X150229323Y-118473123D02*
X149991228Y-118520742D01*
X149753133Y-118663600D01*
X149610276Y-118901695D01*
X149562657Y-119139790D01*
X149610276Y-119377885D01*
X149753133Y-119615980D01*
X149991228Y-119758838D01*
X150229323Y-119806457D01*
X150467419Y-119758838D01*
X150705514Y-119615980D01*
X150848371Y-119377885D01*
X150895990Y-119139790D01*
X150848371Y-118901695D01*
X150705514Y-118663600D01*
X150467419Y-118520742D01*
X150229323Y-118473123D01*
X152038847Y-118711219D02*
X152086466Y-118663600D01*
X152181704Y-118615980D01*
X152419800Y-118615980D01*
X152515038Y-118663600D01*
X152562657Y-118711219D01*
X152610276Y-118806457D01*
X152610276Y-118901695D01*
X152562657Y-119044552D01*
X151991228Y-119615980D01*
X152610276Y-119615980D01*
X153229323Y-118615980D02*
X153324561Y-118615980D01*
X153419800Y-118663600D01*
X153467419Y-118711219D01*
X153515038Y-118806457D01*
X153562657Y-118996933D01*
X153562657Y-119235028D01*
X153515038Y-119425504D01*
X153467419Y-119520742D01*
X153419800Y-119568361D01*
X153324561Y-119615980D01*
X153229323Y-119615980D01*
X153134085Y-119568361D01*
X153086466Y-119520742D01*
X153038847Y-119425504D01*
X152991228Y-119235028D01*
X152991228Y-118996933D01*
X153038847Y-118806457D01*
X153086466Y-118711219D01*
X153134085Y-118663600D01*
X153229323Y-118615980D01*
X153943609Y-118711219D02*
X153991228Y-118663600D01*
X154086466Y-118615980D01*
X154324561Y-118615980D01*
X154419800Y-118663600D01*
X154467419Y-118711219D01*
X154515038Y-118806457D01*
X154515038Y-118901695D01*
X154467419Y-119044552D01*
X153895990Y-119615980D01*
X154515038Y-119615980D01*
X155134085Y-118615980D02*
X155229323Y-118615980D01*
X155324561Y-118663600D01*
X155372180Y-118711219D01*
X155419800Y-118806457D01*
X155467419Y-118996933D01*
X155467419Y-119235028D01*
X155419800Y-119425504D01*
X155372180Y-119520742D01*
X155324561Y-119568361D01*
X155229323Y-119615980D01*
X155134085Y-119615980D01*
X155038847Y-119568361D01*
X154991228Y-119520742D01*
X154943609Y-119425504D01*
X154895990Y-119235028D01*
X154895990Y-118996933D01*
X154943609Y-118806457D01*
X154991228Y-118711219D01*
X155038847Y-118663600D01*
X155134085Y-118615980D01*
X157181704Y-118663600D02*
X157086466Y-118615980D01*
X156943609Y-118615980D01*
X156800752Y-118663600D01*
X156705514Y-118758838D01*
X156657895Y-118854076D01*
X156610276Y-119044552D01*
X156610276Y-119187409D01*
X156657895Y-119377885D01*
X156705514Y-119473123D01*
X156800752Y-119568361D01*
X156943609Y-119615980D01*
X157038847Y-119615980D01*
X157181704Y-119568361D01*
X157229323Y-119520742D01*
X157229323Y-119187409D01*
X157038847Y-119187409D01*
X157657895Y-119615980D02*
X157657895Y-118949314D01*
X157657895Y-119139790D02*
X157705514Y-119044552D01*
X157753133Y-118996933D01*
X157848371Y-118949314D01*
X157943609Y-118949314D01*
X158657895Y-119568361D02*
X158562657Y-119615980D01*
X158372180Y-119615980D01*
X158276942Y-119568361D01*
X158229323Y-119473123D01*
X158229323Y-119092171D01*
X158276942Y-118996933D01*
X158372180Y-118949314D01*
X158562657Y-118949314D01*
X158657895Y-118996933D01*
X158705514Y-119092171D01*
X158705514Y-119187409D01*
X158229323Y-119282647D01*
X159562657Y-118949314D02*
X159562657Y-119758838D01*
X159515038Y-119854076D01*
X159467419Y-119901695D01*
X159372180Y-119949314D01*
X159229323Y-119949314D01*
X159134085Y-119901695D01*
X159562657Y-119568361D02*
X159467419Y-119615980D01*
X159276942Y-119615980D01*
X159181704Y-119568361D01*
X159134085Y-119520742D01*
X159086466Y-119425504D01*
X159086466Y-119139790D01*
X159134085Y-119044552D01*
X159181704Y-118996933D01*
X159276942Y-118949314D01*
X159467419Y-118949314D01*
X159562657Y-118996933D01*
X160181704Y-119615980D02*
X160086466Y-119568361D01*
X160038847Y-119520742D01*
X159991228Y-119425504D01*
X159991228Y-119139790D01*
X160038847Y-119044552D01*
X160086466Y-118996933D01*
X160181704Y-118949314D01*
X160324561Y-118949314D01*
X160419800Y-118996933D01*
X160467419Y-119044552D01*
X160515038Y-119139790D01*
X160515038Y-119425504D01*
X160467419Y-119520742D01*
X160419800Y-119568361D01*
X160324561Y-119615980D01*
X160181704Y-119615980D01*
X160943609Y-119615980D02*
X160943609Y-118949314D01*
X160943609Y-119139790D02*
X160991228Y-119044552D01*
X161038847Y-118996933D01*
X161134085Y-118949314D01*
X161229323Y-118949314D01*
X161467419Y-118949314D02*
X161705514Y-119615980D01*
X161943609Y-118949314D02*
X161705514Y-119615980D01*
X161610276Y-119854076D01*
X161562657Y-119901695D01*
X161467419Y-119949314D01*
X163086466Y-119615980D02*
X163086466Y-118615980D01*
X163419800Y-119330266D01*
X163753133Y-118615980D01*
X163753133Y-119615980D01*
X164657895Y-119615980D02*
X164657895Y-119092171D01*
X164610276Y-118996933D01*
X164515038Y-118949314D01*
X164324561Y-118949314D01*
X164229323Y-118996933D01*
X164657895Y-119568361D02*
X164562657Y-119615980D01*
X164324561Y-119615980D01*
X164229323Y-119568361D01*
X164181704Y-119473123D01*
X164181704Y-119377885D01*
X164229323Y-119282647D01*
X164324561Y-119235028D01*
X164562657Y-119235028D01*
X164657895Y-119187409D01*
X165134085Y-119615980D02*
X165134085Y-118949314D01*
X165134085Y-119139790D02*
X165181704Y-119044552D01*
X165229323Y-118996933D01*
X165324561Y-118949314D01*
X165419800Y-118949314D01*
X165610276Y-118949314D02*
X165991228Y-118949314D01*
X165753133Y-118615980D02*
X165753133Y-119473123D01*
X165800752Y-119568361D01*
X165895990Y-119615980D01*
X165991228Y-119615980D01*
X166324561Y-119615980D02*
X166324561Y-118949314D01*
X166324561Y-118615980D02*
X166276942Y-118663600D01*
X166324561Y-118711219D01*
X166372180Y-118663600D01*
X166324561Y-118615980D01*
X166324561Y-118711219D01*
X166800752Y-118949314D02*
X166800752Y-119615980D01*
X166800752Y-119044552D02*
X166848371Y-118996933D01*
X166943609Y-118949314D01*
X167086466Y-118949314D01*
X167181704Y-118996933D01*
X167229323Y-119092171D01*
X167229323Y-119615980D01*
X162263000Y-126204000D02*
X162263000Y-125232571D01*
X163864857Y-125346857D02*
X163864857Y-125918285D01*
X162664857Y-125918285D01*
X162263000Y-125232571D02*
X162263000Y-124032571D01*
X163864857Y-124946857D02*
X162664857Y-124946857D01*
X162664857Y-124661142D01*
X162722000Y-124489714D01*
X162836285Y-124375428D01*
X162950571Y-124318285D01*
X163179142Y-124261142D01*
X163350571Y-124261142D01*
X163579142Y-124318285D01*
X163693428Y-124375428D01*
X163807714Y-124489714D01*
X163864857Y-124661142D01*
X163864857Y-124946857D01*
X162263000Y-124032571D02*
X162263000Y-123118285D01*
X162664857Y-123918285D02*
X162664857Y-123232571D01*
X163864857Y-123575428D02*
X162664857Y-123575428D01*
X162263000Y-123118285D02*
X162263000Y-121861142D01*
X163864857Y-122832571D02*
X162664857Y-122832571D01*
X163236285Y-122832571D02*
X163236285Y-122146857D01*
X163864857Y-122146857D02*
X162664857Y-122146857D01*
X159786500Y-126204000D02*
X159786500Y-125232571D01*
X161388357Y-125346857D02*
X161388357Y-125918285D01*
X160188357Y-125918285D01*
X159786500Y-125232571D02*
X159786500Y-124032571D01*
X161388357Y-124946857D02*
X160188357Y-124946857D01*
X160188357Y-124661142D01*
X160245500Y-124489714D01*
X160359785Y-124375428D01*
X160474071Y-124318285D01*
X160702642Y-124261142D01*
X160874071Y-124261142D01*
X161102642Y-124318285D01*
X161216928Y-124375428D01*
X161331214Y-124489714D01*
X161388357Y-124661142D01*
X161388357Y-124946857D01*
X159786500Y-124032571D02*
X159786500Y-123118285D01*
X160188357Y-123918285D02*
X160188357Y-123232571D01*
X161388357Y-123575428D02*
X160188357Y-123575428D01*
X159786500Y-123118285D02*
X159786500Y-122146857D01*
X161388357Y-122261142D02*
X161388357Y-122832571D01*
X160188357Y-122832571D01*
X149626500Y-126204000D02*
X149626500Y-125289714D01*
X150028357Y-126089714D02*
X150028357Y-125404000D01*
X151228357Y-125746857D02*
X150028357Y-125746857D01*
X149626500Y-125289714D02*
X149626500Y-124261142D01*
X150885500Y-125061142D02*
X150885500Y-124489714D01*
X151228357Y-125175428D02*
X150028357Y-124775428D01*
X151228357Y-124375428D01*
X149626500Y-124261142D02*
X149626500Y-123004000D01*
X150028357Y-123746857D02*
X150028357Y-123518285D01*
X150085500Y-123404000D01*
X150199785Y-123289714D01*
X150428357Y-123232571D01*
X150828357Y-123232571D01*
X151056928Y-123289714D01*
X151171214Y-123404000D01*
X151228357Y-123518285D01*
X151228357Y-123746857D01*
X151171214Y-123861142D01*
X151056928Y-123975428D01*
X150828357Y-124032571D01*
X150428357Y-124032571D01*
X150199785Y-123975428D01*
X150085500Y-123861142D01*
X150028357Y-123746857D01*
X149626500Y-123004000D02*
X149626500Y-121918285D01*
X150599785Y-122718285D02*
X150599785Y-122318285D01*
X151228357Y-122146857D02*
X151228357Y-122718285D01*
X150028357Y-122718285D01*
X150028357Y-122146857D01*
X154706500Y-126204000D02*
X154706500Y-125289714D01*
X155108357Y-126089714D02*
X155108357Y-125404000D01*
X156308357Y-125746857D02*
X155108357Y-125746857D01*
X154706500Y-125289714D02*
X154706500Y-124032571D01*
X156308357Y-125004000D02*
X155108357Y-125004000D01*
X155679785Y-125004000D02*
X155679785Y-124318285D01*
X156308357Y-124318285D02*
X155108357Y-124318285D01*
X154706500Y-124032571D02*
X154706500Y-122775428D01*
X155108357Y-123518285D02*
X155108357Y-123289714D01*
X155165500Y-123175428D01*
X155279785Y-123061142D01*
X155508357Y-123004000D01*
X155908357Y-123004000D01*
X156136928Y-123061142D01*
X156251214Y-123175428D01*
X156308357Y-123289714D01*
X156308357Y-123518285D01*
X156251214Y-123632571D01*
X156136928Y-123746857D01*
X155908357Y-123804000D01*
X155508357Y-123804000D01*
X155279785Y-123746857D01*
X155165500Y-123632571D01*
X155108357Y-123518285D01*
X154706500Y-122775428D02*
X154706500Y-121689714D01*
X155679785Y-122489714D02*
X155679785Y-122089714D01*
X156308357Y-121918285D02*
X156308357Y-122489714D01*
X155108357Y-122489714D01*
X155108357Y-121918285D01*
X152103000Y-126204000D02*
X152103000Y-125289714D01*
X152504857Y-126089714D02*
X152504857Y-125404000D01*
X153704857Y-125746857D02*
X152504857Y-125746857D01*
X152103000Y-125289714D02*
X152103000Y-124318285D01*
X153704857Y-124432571D02*
X153704857Y-125004000D01*
X152504857Y-125004000D01*
X152103000Y-124318285D02*
X152103000Y-123061142D01*
X152504857Y-123804000D02*
X152504857Y-123575428D01*
X152562000Y-123461142D01*
X152676285Y-123346857D01*
X152904857Y-123289714D01*
X153304857Y-123289714D01*
X153533428Y-123346857D01*
X153647714Y-123461142D01*
X153704857Y-123575428D01*
X153704857Y-123804000D01*
X153647714Y-123918285D01*
X153533428Y-124032571D01*
X153304857Y-124089714D01*
X152904857Y-124089714D01*
X152676285Y-124032571D01*
X152562000Y-123918285D01*
X152504857Y-123804000D01*
X152103000Y-123061142D02*
X152103000Y-121975428D01*
X153076285Y-122775428D02*
X153076285Y-122375428D01*
X153704857Y-122204000D02*
X153704857Y-122775428D01*
X152504857Y-122775428D01*
X152504857Y-122204000D01*
X157183000Y-126204000D02*
X157183000Y-125175428D01*
X158442000Y-125975428D02*
X158442000Y-125404000D01*
X158784857Y-126089714D02*
X157584857Y-125689714D01*
X158784857Y-125289714D01*
X158784857Y-124889714D02*
X157584857Y-124889714D01*
X157584857Y-124604000D01*
X157642000Y-124432571D01*
X157756285Y-124318285D01*
X157870571Y-124261142D01*
X158099142Y-124204000D01*
X158270571Y-124204000D01*
X158499142Y-124261142D01*
X158613428Y-124318285D01*
X158727714Y-124432571D01*
X158784857Y-124604000D01*
X158784857Y-124889714D01*
X125714071Y-125042071D02*
X125771214Y-125099214D01*
X125828357Y-125270642D01*
X125828357Y-125384928D01*
X125771214Y-125556357D01*
X125656928Y-125670642D01*
X125542642Y-125727785D01*
X125314071Y-125784928D01*
X125142642Y-125784928D01*
X124914071Y-125727785D01*
X124799785Y-125670642D01*
X124685500Y-125556357D01*
X124628357Y-125384928D01*
X124628357Y-125270642D01*
X124685500Y-125099214D01*
X124742642Y-125042071D01*
X125828357Y-123956357D02*
X125828357Y-124527785D01*
X124628357Y-124527785D01*
X125828357Y-123556357D02*
X124628357Y-123556357D01*
X125828357Y-122870642D02*
X125142642Y-123384928D01*
X124628357Y-122870642D02*
X125314071Y-123556357D01*
X143481357Y-125918285D02*
X142281357Y-125918285D01*
X142281357Y-125632571D01*
X142338500Y-125461142D01*
X142452785Y-125346857D01*
X142567071Y-125289714D01*
X142795642Y-125232571D01*
X142967071Y-125232571D01*
X143195642Y-125289714D01*
X143309928Y-125346857D01*
X143424214Y-125461142D01*
X143481357Y-125632571D01*
X143481357Y-125918285D01*
X143481357Y-124089714D02*
X143481357Y-124775428D01*
X143481357Y-124432571D02*
X142281357Y-124432571D01*
X142452785Y-124546857D01*
X142567071Y-124661142D01*
X142624214Y-124775428D01*
X146084857Y-125918285D02*
X144884857Y-125918285D01*
X144884857Y-125632571D01*
X144942000Y-125461142D01*
X145056285Y-125346857D01*
X145170571Y-125289714D01*
X145399142Y-125232571D01*
X145570571Y-125232571D01*
X145799142Y-125289714D01*
X145913428Y-125346857D01*
X146027714Y-125461142D01*
X146084857Y-125632571D01*
X146084857Y-125918285D01*
X144999142Y-124775428D02*
X144942000Y-124718285D01*
X144884857Y-124604000D01*
X144884857Y-124318285D01*
X144942000Y-124204000D01*
X144999142Y-124146857D01*
X145113428Y-124089714D01*
X145227714Y-124089714D01*
X145399142Y-124146857D01*
X146084857Y-124832571D01*
X146084857Y-124089714D01*
X148561357Y-125918285D02*
X147361357Y-125918285D01*
X147361357Y-125632571D01*
X147418500Y-125461142D01*
X147532785Y-125346857D01*
X147647071Y-125289714D01*
X147875642Y-125232571D01*
X148047071Y-125232571D01*
X148275642Y-125289714D01*
X148389928Y-125346857D01*
X148504214Y-125461142D01*
X148561357Y-125632571D01*
X148561357Y-125918285D01*
X147361357Y-124832571D02*
X147361357Y-124089714D01*
X147818500Y-124489714D01*
X147818500Y-124318285D01*
X147875642Y-124204000D01*
X147932785Y-124146857D01*
X148047071Y-124089714D01*
X148332785Y-124089714D01*
X148447071Y-124146857D01*
X148504214Y-124204000D01*
X148561357Y-124318285D01*
X148561357Y-124661142D01*
X148504214Y-124775428D01*
X148447071Y-124832571D01*
X117135357Y-126026214D02*
X118335357Y-125626214D01*
X117135357Y-125226214D01*
X118221071Y-124140500D02*
X118278214Y-124197642D01*
X118335357Y-124369071D01*
X118335357Y-124483357D01*
X118278214Y-124654785D01*
X118163928Y-124769071D01*
X118049642Y-124826214D01*
X117821071Y-124883357D01*
X117649642Y-124883357D01*
X117421071Y-124826214D01*
X117306785Y-124769071D01*
X117192500Y-124654785D01*
X117135357Y-124483357D01*
X117135357Y-124369071D01*
X117192500Y-124197642D01*
X117249642Y-124140500D01*
X118221071Y-122940500D02*
X118278214Y-122997642D01*
X118335357Y-123169071D01*
X118335357Y-123283357D01*
X118278214Y-123454785D01*
X118163928Y-123569071D01*
X118049642Y-123626214D01*
X117821071Y-123683357D01*
X117649642Y-123683357D01*
X117421071Y-123626214D01*
X117306785Y-123569071D01*
X117192500Y-123454785D01*
X117135357Y-123283357D01*
X117135357Y-123169071D01*
X117192500Y-122997642D01*
X117249642Y-122940500D01*
X141004857Y-125918285D02*
X139804857Y-125918285D01*
X139804857Y-125632571D01*
X139862000Y-125461142D01*
X139976285Y-125346857D01*
X140090571Y-125289714D01*
X140319142Y-125232571D01*
X140490571Y-125232571D01*
X140719142Y-125289714D01*
X140833428Y-125346857D01*
X140947714Y-125461142D01*
X141004857Y-125632571D01*
X141004857Y-125918285D01*
X139804857Y-124489714D02*
X139804857Y-124375428D01*
X139862000Y-124261142D01*
X139919142Y-124204000D01*
X140033428Y-124146857D01*
X140262000Y-124089714D01*
X140547714Y-124089714D01*
X140776285Y-124146857D01*
X140890571Y-124204000D01*
X140947714Y-124261142D01*
X141004857Y-124375428D01*
X141004857Y-124489714D01*
X140947714Y-124604000D01*
X140890571Y-124661142D01*
X140776285Y-124718285D01*
X140547714Y-124775428D01*
X140262000Y-124775428D01*
X140033428Y-124718285D01*
X139919142Y-124661142D01*
X139862000Y-124604000D01*
X139804857Y-124489714D01*
X121750000Y-126140500D02*
X121750000Y-124940500D01*
X123351857Y-125169071D02*
X122780428Y-125569071D01*
X123351857Y-125854785D02*
X122151857Y-125854785D01*
X122151857Y-125397642D01*
X122209000Y-125283357D01*
X122266142Y-125226214D01*
X122380428Y-125169071D01*
X122551857Y-125169071D01*
X122666142Y-125226214D01*
X122723285Y-125283357D01*
X122780428Y-125397642D01*
X122780428Y-125854785D01*
X121750000Y-124940500D02*
X121750000Y-123797642D01*
X123294714Y-124711928D02*
X123351857Y-124540500D01*
X123351857Y-124254785D01*
X123294714Y-124140500D01*
X123237571Y-124083357D01*
X123123285Y-124026214D01*
X123009000Y-124026214D01*
X122894714Y-124083357D01*
X122837571Y-124140500D01*
X122780428Y-124254785D01*
X122723285Y-124483357D01*
X122666142Y-124597642D01*
X122609000Y-124654785D01*
X122494714Y-124711928D01*
X122380428Y-124711928D01*
X122266142Y-124654785D01*
X122209000Y-124597642D01*
X122151857Y-124483357D01*
X122151857Y-124197642D01*
X122209000Y-124026214D01*
X121750000Y-123797642D02*
X121750000Y-122883357D01*
X122151857Y-123683357D02*
X122151857Y-122997642D01*
X123351857Y-123340500D02*
X122151857Y-123340500D01*
X114589000Y-125226214D02*
X114531857Y-125340500D01*
X114531857Y-125511928D01*
X114589000Y-125683357D01*
X114703285Y-125797642D01*
X114817571Y-125854785D01*
X115046142Y-125911928D01*
X115217571Y-125911928D01*
X115446142Y-125854785D01*
X115560428Y-125797642D01*
X115674714Y-125683357D01*
X115731857Y-125511928D01*
X115731857Y-125397642D01*
X115674714Y-125226214D01*
X115617571Y-125169071D01*
X115217571Y-125169071D01*
X115217571Y-125397642D01*
X115731857Y-124654785D02*
X114531857Y-124654785D01*
X115731857Y-123969071D01*
X114531857Y-123969071D01*
X115731857Y-123397642D02*
X114531857Y-123397642D01*
X114531857Y-123111928D01*
X114589000Y-122940500D01*
X114703285Y-122826214D01*
X114817571Y-122769071D01*
X115046142Y-122711928D01*
X115217571Y-122711928D01*
X115446142Y-122769071D01*
X115560428Y-122826214D01*
X115674714Y-122940500D01*
X115731857Y-123111928D01*
X115731857Y-123397642D01*
X112849000Y-125911928D02*
X112849000Y-125340500D01*
X113191857Y-126026214D02*
X111991857Y-125626214D01*
X113191857Y-125226214D01*
X111991857Y-124597642D02*
X111991857Y-124483357D01*
X112049000Y-124369071D01*
X112106142Y-124311928D01*
X112220428Y-124254785D01*
X112449000Y-124197642D01*
X112734714Y-124197642D01*
X112963285Y-124254785D01*
X113077571Y-124311928D01*
X113134714Y-124369071D01*
X113191857Y-124483357D01*
X113191857Y-124597642D01*
X113134714Y-124711928D01*
X113077571Y-124769071D01*
X112963285Y-124826214D01*
X112734714Y-124883357D01*
X112449000Y-124883357D01*
X112220428Y-124826214D01*
X112106142Y-124769071D01*
X112049000Y-124711928D01*
X111991857Y-124597642D01*
X110372500Y-125911928D02*
X110372500Y-125340500D01*
X110715357Y-126026214D02*
X109515357Y-125626214D01*
X110715357Y-125226214D01*
X110715357Y-124197642D02*
X110715357Y-124883357D01*
X110715357Y-124540500D02*
X109515357Y-124540500D01*
X109686785Y-124654785D01*
X109801071Y-124769071D01*
X109858214Y-124883357D01*
X107769000Y-125911928D02*
X107769000Y-125340500D01*
X108111857Y-126026214D02*
X106911857Y-125626214D01*
X108111857Y-125226214D01*
X107026142Y-124883357D02*
X106969000Y-124826214D01*
X106911857Y-124711928D01*
X106911857Y-124426214D01*
X106969000Y-124311928D01*
X107026142Y-124254785D01*
X107140428Y-124197642D01*
X107254714Y-124197642D01*
X107426142Y-124254785D01*
X108111857Y-124940500D01*
X108111857Y-124197642D01*
X105292500Y-125911928D02*
X105292500Y-125340500D01*
X105635357Y-126026214D02*
X104435357Y-125626214D01*
X105635357Y-125226214D01*
X104435357Y-124940500D02*
X104435357Y-124197642D01*
X104892500Y-124597642D01*
X104892500Y-124426214D01*
X104949642Y-124311928D01*
X105006785Y-124254785D01*
X105121071Y-124197642D01*
X105406785Y-124197642D01*
X105521071Y-124254785D01*
X105578214Y-124311928D01*
X105635357Y-124426214D01*
X105635357Y-124769071D01*
X105578214Y-124883357D01*
X105521071Y-124940500D01*
X102689000Y-125911928D02*
X102689000Y-125340500D01*
X103031857Y-126026214D02*
X101831857Y-125626214D01*
X103031857Y-125226214D01*
X102231857Y-124311928D02*
X103031857Y-124311928D01*
X101774714Y-124597642D02*
X102631857Y-124883357D01*
X102631857Y-124140500D01*
X100149000Y-125911928D02*
X100149000Y-125340500D01*
X100491857Y-126026214D02*
X99291857Y-125626214D01*
X100491857Y-125226214D01*
X99291857Y-124254785D02*
X99291857Y-124826214D01*
X99863285Y-124883357D01*
X99806142Y-124826214D01*
X99749000Y-124711928D01*
X99749000Y-124426214D01*
X99806142Y-124311928D01*
X99863285Y-124254785D01*
X99977571Y-124197642D01*
X100263285Y-124197642D01*
X100377571Y-124254785D01*
X100434714Y-124311928D01*
X100491857Y-124426214D01*
X100491857Y-124711928D01*
X100434714Y-124826214D01*
X100377571Y-124883357D01*
X97672500Y-125911928D02*
X97672500Y-125340500D01*
X98015357Y-126026214D02*
X96815357Y-125626214D01*
X98015357Y-125226214D01*
X96815357Y-124311928D02*
X96815357Y-124540500D01*
X96872500Y-124654785D01*
X96929642Y-124711928D01*
X97101071Y-124826214D01*
X97329642Y-124883357D01*
X97786785Y-124883357D01*
X97901071Y-124826214D01*
X97958214Y-124769071D01*
X98015357Y-124654785D01*
X98015357Y-124426214D01*
X97958214Y-124311928D01*
X97901071Y-124254785D01*
X97786785Y-124197642D01*
X97501071Y-124197642D01*
X97386785Y-124254785D01*
X97329642Y-124311928D01*
X97272500Y-124426214D01*
X97272500Y-124654785D01*
X97329642Y-124769071D01*
X97386785Y-124826214D01*
X97501071Y-124883357D01*
X95069000Y-125911928D02*
X95069000Y-125340500D01*
X95411857Y-126026214D02*
X94211857Y-125626214D01*
X95411857Y-125226214D01*
X94211857Y-124940500D02*
X94211857Y-124140500D01*
X95411857Y-124654785D01*
X160251857Y-131747571D02*
X160251857Y-131004714D01*
X160709000Y-131404714D01*
X160709000Y-131233285D01*
X160766142Y-131119000D01*
X160823285Y-131061857D01*
X160937571Y-131004714D01*
X161223285Y-131004714D01*
X161337571Y-131061857D01*
X161394714Y-131119000D01*
X161451857Y-131233285D01*
X161451857Y-131576142D01*
X161394714Y-131690428D01*
X161337571Y-131747571D01*
X160251857Y-129919000D02*
X160251857Y-130490428D01*
X160823285Y-130547571D01*
X160766142Y-130490428D01*
X160709000Y-130376142D01*
X160709000Y-130090428D01*
X160766142Y-129976142D01*
X160823285Y-129919000D01*
X160937571Y-129861857D01*
X161223285Y-129861857D01*
X161337571Y-129919000D01*
X161394714Y-129976142D01*
X161451857Y-130090428D01*
X161451857Y-130376142D01*
X161394714Y-130490428D01*
X161337571Y-130547571D01*
X155235357Y-131747571D02*
X155235357Y-131004714D01*
X155692500Y-131404714D01*
X155692500Y-131233285D01*
X155749642Y-131119000D01*
X155806785Y-131061857D01*
X155921071Y-131004714D01*
X156206785Y-131004714D01*
X156321071Y-131061857D01*
X156378214Y-131119000D01*
X156435357Y-131233285D01*
X156435357Y-131576142D01*
X156378214Y-131690428D01*
X156321071Y-131747571D01*
X155235357Y-130604714D02*
X155235357Y-129861857D01*
X155692500Y-130261857D01*
X155692500Y-130090428D01*
X155749642Y-129976142D01*
X155806785Y-129919000D01*
X155921071Y-129861857D01*
X156206785Y-129861857D01*
X156321071Y-129919000D01*
X156378214Y-129976142D01*
X156435357Y-130090428D01*
X156435357Y-130433285D01*
X156378214Y-130547571D01*
X156321071Y-130604714D01*
X165268357Y-131747571D02*
X165268357Y-131004714D01*
X165725500Y-131404714D01*
X165725500Y-131233285D01*
X165782642Y-131119000D01*
X165839785Y-131061857D01*
X165954071Y-131004714D01*
X166239785Y-131004714D01*
X166354071Y-131061857D01*
X166411214Y-131119000D01*
X166468357Y-131233285D01*
X166468357Y-131576142D01*
X166411214Y-131690428D01*
X166354071Y-131747571D01*
X165268357Y-130604714D02*
X165268357Y-129804714D01*
X166468357Y-130319000D01*
X157711857Y-131747571D02*
X157711857Y-131004714D01*
X158169000Y-131404714D01*
X158169000Y-131233285D01*
X158226142Y-131119000D01*
X158283285Y-131061857D01*
X158397571Y-131004714D01*
X158683285Y-131004714D01*
X158797571Y-131061857D01*
X158854714Y-131119000D01*
X158911857Y-131233285D01*
X158911857Y-131576142D01*
X158854714Y-131690428D01*
X158797571Y-131747571D01*
X158111857Y-129976142D02*
X158911857Y-129976142D01*
X157654714Y-130261857D02*
X158511857Y-130547571D01*
X158511857Y-129804714D01*
X167871857Y-131747571D02*
X167871857Y-131004714D01*
X168329000Y-131404714D01*
X168329000Y-131233285D01*
X168386142Y-131119000D01*
X168443285Y-131061857D01*
X168557571Y-131004714D01*
X168843285Y-131004714D01*
X168957571Y-131061857D01*
X169014714Y-131119000D01*
X169071857Y-131233285D01*
X169071857Y-131576142D01*
X169014714Y-131690428D01*
X168957571Y-131747571D01*
X168386142Y-130319000D02*
X168329000Y-130433285D01*
X168271857Y-130490428D01*
X168157571Y-130547571D01*
X168100428Y-130547571D01*
X167986142Y-130490428D01*
X167929000Y-130433285D01*
X167871857Y-130319000D01*
X167871857Y-130090428D01*
X167929000Y-129976142D01*
X167986142Y-129919000D01*
X168100428Y-129861857D01*
X168157571Y-129861857D01*
X168271857Y-129919000D01*
X168329000Y-129976142D01*
X168386142Y-130090428D01*
X168386142Y-130319000D01*
X168443285Y-130433285D01*
X168500428Y-130490428D01*
X168614714Y-130547571D01*
X168843285Y-130547571D01*
X168957571Y-130490428D01*
X169014714Y-130433285D01*
X169071857Y-130319000D01*
X169071857Y-130090428D01*
X169014714Y-129976142D01*
X168957571Y-129919000D01*
X168843285Y-129861857D01*
X168614714Y-129861857D01*
X168500428Y-129919000D01*
X168443285Y-129976142D01*
X168386142Y-130090428D01*
X162728357Y-131747571D02*
X162728357Y-131004714D01*
X163185500Y-131404714D01*
X163185500Y-131233285D01*
X163242642Y-131119000D01*
X163299785Y-131061857D01*
X163414071Y-131004714D01*
X163699785Y-131004714D01*
X163814071Y-131061857D01*
X163871214Y-131119000D01*
X163928357Y-131233285D01*
X163928357Y-131576142D01*
X163871214Y-131690428D01*
X163814071Y-131747571D01*
X162728357Y-129976142D02*
X162728357Y-130204714D01*
X162785500Y-130319000D01*
X162842642Y-130376142D01*
X163014071Y-130490428D01*
X163242642Y-130547571D01*
X163699785Y-130547571D01*
X163814071Y-130490428D01*
X163871214Y-130433285D01*
X163928357Y-130319000D01*
X163928357Y-130090428D01*
X163871214Y-129976142D01*
X163814071Y-129919000D01*
X163699785Y-129861857D01*
X163414071Y-129861857D01*
X163299785Y-129919000D01*
X163242642Y-129976142D01*
X163185500Y-130090428D01*
X163185500Y-130319000D01*
X163242642Y-130433285D01*
X163299785Y-130490428D01*
X163414071Y-130547571D01*
X152631857Y-131747571D02*
X152631857Y-131004714D01*
X153089000Y-131404714D01*
X153089000Y-131233285D01*
X153146142Y-131119000D01*
X153203285Y-131061857D01*
X153317571Y-131004714D01*
X153603285Y-131004714D01*
X153717571Y-131061857D01*
X153774714Y-131119000D01*
X153831857Y-131233285D01*
X153831857Y-131576142D01*
X153774714Y-131690428D01*
X153717571Y-131747571D01*
X152746142Y-130547571D02*
X152689000Y-130490428D01*
X152631857Y-130376142D01*
X152631857Y-130090428D01*
X152689000Y-129976142D01*
X152746142Y-129919000D01*
X152860428Y-129861857D01*
X152974714Y-129861857D01*
X153146142Y-129919000D01*
X153831857Y-130604714D01*
X153831857Y-129861857D01*
X134839142Y-131690428D02*
X134782000Y-131633285D01*
X134724857Y-131519000D01*
X134724857Y-131233285D01*
X134782000Y-131119000D01*
X134839142Y-131061857D01*
X134953428Y-131004714D01*
X135067714Y-131004714D01*
X135239142Y-131061857D01*
X135924857Y-131747571D01*
X135924857Y-131004714D01*
X134724857Y-129919000D02*
X134724857Y-130490428D01*
X135296285Y-130547571D01*
X135239142Y-130490428D01*
X135182000Y-130376142D01*
X135182000Y-130090428D01*
X135239142Y-129976142D01*
X135296285Y-129919000D01*
X135410571Y-129861857D01*
X135696285Y-129861857D01*
X135810571Y-129919000D01*
X135867714Y-129976142D01*
X135924857Y-130090428D01*
X135924857Y-130376142D01*
X135867714Y-130490428D01*
X135810571Y-130547571D01*
X147424857Y-131747571D02*
X147424857Y-131004714D01*
X147882000Y-131404714D01*
X147882000Y-131233285D01*
X147939142Y-131119000D01*
X147996285Y-131061857D01*
X148110571Y-131004714D01*
X148396285Y-131004714D01*
X148510571Y-131061857D01*
X148567714Y-131119000D01*
X148624857Y-131233285D01*
X148624857Y-131576142D01*
X148567714Y-131690428D01*
X148510571Y-131747571D01*
X147424857Y-130261857D02*
X147424857Y-130147571D01*
X147482000Y-130033285D01*
X147539142Y-129976142D01*
X147653428Y-129919000D01*
X147882000Y-129861857D01*
X148167714Y-129861857D01*
X148396285Y-129919000D01*
X148510571Y-129976142D01*
X148567714Y-130033285D01*
X148624857Y-130147571D01*
X148624857Y-130261857D01*
X148567714Y-130376142D01*
X148510571Y-130433285D01*
X148396285Y-130490428D01*
X148167714Y-130547571D01*
X147882000Y-130547571D01*
X147653428Y-130490428D01*
X147539142Y-130433285D01*
X147482000Y-130376142D01*
X147424857Y-130261857D01*
X142522642Y-131690428D02*
X142465500Y-131633285D01*
X142408357Y-131519000D01*
X142408357Y-131233285D01*
X142465500Y-131119000D01*
X142522642Y-131061857D01*
X142636928Y-131004714D01*
X142751214Y-131004714D01*
X142922642Y-131061857D01*
X143608357Y-131747571D01*
X143608357Y-131004714D01*
X142922642Y-130319000D02*
X142865500Y-130433285D01*
X142808357Y-130490428D01*
X142694071Y-130547571D01*
X142636928Y-130547571D01*
X142522642Y-130490428D01*
X142465500Y-130433285D01*
X142408357Y-130319000D01*
X142408357Y-130090428D01*
X142465500Y-129976142D01*
X142522642Y-129919000D01*
X142636928Y-129861857D01*
X142694071Y-129861857D01*
X142808357Y-129919000D01*
X142865500Y-129976142D01*
X142922642Y-130090428D01*
X142922642Y-130319000D01*
X142979785Y-130433285D01*
X143036928Y-130490428D01*
X143151214Y-130547571D01*
X143379785Y-130547571D01*
X143494071Y-130490428D01*
X143551214Y-130433285D01*
X143608357Y-130319000D01*
X143608357Y-130090428D01*
X143551214Y-129976142D01*
X143494071Y-129919000D01*
X143379785Y-129861857D01*
X143151214Y-129861857D01*
X143036928Y-129919000D01*
X142979785Y-129976142D01*
X142922642Y-130090428D01*
X137442642Y-131690428D02*
X137385500Y-131633285D01*
X137328357Y-131519000D01*
X137328357Y-131233285D01*
X137385500Y-131119000D01*
X137442642Y-131061857D01*
X137556928Y-131004714D01*
X137671214Y-131004714D01*
X137842642Y-131061857D01*
X138528357Y-131747571D01*
X138528357Y-131004714D01*
X137328357Y-129976142D02*
X137328357Y-130204714D01*
X137385500Y-130319000D01*
X137442642Y-130376142D01*
X137614071Y-130490428D01*
X137842642Y-130547571D01*
X138299785Y-130547571D01*
X138414071Y-130490428D01*
X138471214Y-130433285D01*
X138528357Y-130319000D01*
X138528357Y-130090428D01*
X138471214Y-129976142D01*
X138414071Y-129919000D01*
X138299785Y-129861857D01*
X138014071Y-129861857D01*
X137899785Y-129919000D01*
X137842642Y-129976142D01*
X137785500Y-130090428D01*
X137785500Y-130319000D01*
X137842642Y-130433285D01*
X137899785Y-130490428D01*
X138014071Y-130547571D01*
X150028357Y-131747571D02*
X150028357Y-131004714D01*
X150485500Y-131404714D01*
X150485500Y-131233285D01*
X150542642Y-131119000D01*
X150599785Y-131061857D01*
X150714071Y-131004714D01*
X150999785Y-131004714D01*
X151114071Y-131061857D01*
X151171214Y-131119000D01*
X151228357Y-131233285D01*
X151228357Y-131576142D01*
X151171214Y-131690428D01*
X151114071Y-131747571D01*
X151228357Y-129861857D02*
X151228357Y-130547571D01*
X151228357Y-130204714D02*
X150028357Y-130204714D01*
X150199785Y-130319000D01*
X150314071Y-130433285D01*
X150371214Y-130547571D01*
X144999142Y-131690428D02*
X144942000Y-131633285D01*
X144884857Y-131519000D01*
X144884857Y-131233285D01*
X144942000Y-131119000D01*
X144999142Y-131061857D01*
X145113428Y-131004714D01*
X145227714Y-131004714D01*
X145399142Y-131061857D01*
X146084857Y-131747571D01*
X146084857Y-131004714D01*
X146084857Y-130433285D02*
X146084857Y-130204714D01*
X146027714Y-130090428D01*
X145970571Y-130033285D01*
X145799142Y-129919000D01*
X145570571Y-129861857D01*
X145113428Y-129861857D01*
X144999142Y-129919000D01*
X144942000Y-129976142D01*
X144884857Y-130090428D01*
X144884857Y-130319000D01*
X144942000Y-130433285D01*
X144999142Y-130490428D01*
X145113428Y-130547571D01*
X145399142Y-130547571D01*
X145513428Y-130490428D01*
X145570571Y-130433285D01*
X145627714Y-130319000D01*
X145627714Y-130090428D01*
X145570571Y-129976142D01*
X145513428Y-129919000D01*
X145399142Y-129861857D01*
X140046142Y-131690428D02*
X139989000Y-131633285D01*
X139931857Y-131519000D01*
X139931857Y-131233285D01*
X139989000Y-131119000D01*
X140046142Y-131061857D01*
X140160428Y-131004714D01*
X140274714Y-131004714D01*
X140446142Y-131061857D01*
X141131857Y-131747571D01*
X141131857Y-131004714D01*
X139931857Y-130604714D02*
X139931857Y-129804714D01*
X141131857Y-130319000D01*
X132172142Y-131690428D02*
X132115000Y-131633285D01*
X132057857Y-131519000D01*
X132057857Y-131233285D01*
X132115000Y-131119000D01*
X132172142Y-131061857D01*
X132286428Y-131004714D01*
X132400714Y-131004714D01*
X132572142Y-131061857D01*
X133257857Y-131747571D01*
X133257857Y-131004714D01*
X132457857Y-129976142D02*
X133257857Y-129976142D01*
X132000714Y-130261857D02*
X132857857Y-130547571D01*
X132857857Y-129804714D01*
X120557857Y-131004714D02*
X120557857Y-131690428D01*
X120557857Y-131347571D02*
X119357857Y-131347571D01*
X119529285Y-131461857D01*
X119643571Y-131576142D01*
X119700714Y-131690428D01*
X120557857Y-130433285D02*
X120557857Y-130204714D01*
X120500714Y-130090428D01*
X120443571Y-130033285D01*
X120272142Y-129919000D01*
X120043571Y-129861857D01*
X119586428Y-129861857D01*
X119472142Y-129919000D01*
X119415000Y-129976142D01*
X119357857Y-130090428D01*
X119357857Y-130319000D01*
X119415000Y-130433285D01*
X119472142Y-130490428D01*
X119586428Y-130547571D01*
X119872142Y-130547571D01*
X119986428Y-130490428D01*
X120043571Y-130433285D01*
X120100714Y-130319000D01*
X120100714Y-130090428D01*
X120043571Y-129976142D01*
X119986428Y-129919000D01*
X119872142Y-129861857D01*
X115541357Y-131004714D02*
X115541357Y-131690428D01*
X115541357Y-131347571D02*
X114341357Y-131347571D01*
X114512785Y-131461857D01*
X114627071Y-131576142D01*
X114684214Y-131690428D01*
X114341357Y-130604714D02*
X114341357Y-129804714D01*
X115541357Y-130319000D01*
X124488642Y-131690428D02*
X124431500Y-131633285D01*
X124374357Y-131519000D01*
X124374357Y-131233285D01*
X124431500Y-131119000D01*
X124488642Y-131061857D01*
X124602928Y-131004714D01*
X124717214Y-131004714D01*
X124888642Y-131061857D01*
X125574357Y-131747571D01*
X125574357Y-131004714D01*
X125574357Y-129861857D02*
X125574357Y-130547571D01*
X125574357Y-130204714D02*
X124374357Y-130204714D01*
X124545785Y-130319000D01*
X124660071Y-130433285D01*
X124717214Y-130547571D01*
X118017857Y-131004714D02*
X118017857Y-131690428D01*
X118017857Y-131347571D02*
X116817857Y-131347571D01*
X116989285Y-131461857D01*
X117103571Y-131576142D01*
X117160714Y-131690428D01*
X117332142Y-130319000D02*
X117275000Y-130433285D01*
X117217857Y-130490428D01*
X117103571Y-130547571D01*
X117046428Y-130547571D01*
X116932142Y-130490428D01*
X116875000Y-130433285D01*
X116817857Y-130319000D01*
X116817857Y-130090428D01*
X116875000Y-129976142D01*
X116932142Y-129919000D01*
X117046428Y-129861857D01*
X117103571Y-129861857D01*
X117217857Y-129919000D01*
X117275000Y-129976142D01*
X117332142Y-130090428D01*
X117332142Y-130319000D01*
X117389285Y-130433285D01*
X117446428Y-130490428D01*
X117560714Y-130547571D01*
X117789285Y-130547571D01*
X117903571Y-130490428D01*
X117960714Y-130433285D01*
X118017857Y-130319000D01*
X118017857Y-130090428D01*
X117960714Y-129976142D01*
X117903571Y-129919000D01*
X117789285Y-129861857D01*
X117560714Y-129861857D01*
X117446428Y-129919000D01*
X117389285Y-129976142D01*
X117332142Y-130090428D01*
X129505142Y-131690428D02*
X129448000Y-131633285D01*
X129390857Y-131519000D01*
X129390857Y-131233285D01*
X129448000Y-131119000D01*
X129505142Y-131061857D01*
X129619428Y-131004714D01*
X129733714Y-131004714D01*
X129905142Y-131061857D01*
X130590857Y-131747571D01*
X130590857Y-131004714D01*
X129390857Y-130604714D02*
X129390857Y-129861857D01*
X129848000Y-130261857D01*
X129848000Y-130090428D01*
X129905142Y-129976142D01*
X129962285Y-129919000D01*
X130076571Y-129861857D01*
X130362285Y-129861857D01*
X130476571Y-129919000D01*
X130533714Y-129976142D01*
X130590857Y-130090428D01*
X130590857Y-130433285D01*
X130533714Y-130547571D01*
X130476571Y-130604714D01*
X127092142Y-131690428D02*
X127035000Y-131633285D01*
X126977857Y-131519000D01*
X126977857Y-131233285D01*
X127035000Y-131119000D01*
X127092142Y-131061857D01*
X127206428Y-131004714D01*
X127320714Y-131004714D01*
X127492142Y-131061857D01*
X128177857Y-131747571D01*
X128177857Y-131004714D01*
X127092142Y-130547571D02*
X127035000Y-130490428D01*
X126977857Y-130376142D01*
X126977857Y-130090428D01*
X127035000Y-129976142D01*
X127092142Y-129919000D01*
X127206428Y-129861857D01*
X127320714Y-129861857D01*
X127492142Y-129919000D01*
X128177857Y-130604714D01*
X128177857Y-129861857D01*
X121948642Y-131690428D02*
X121891500Y-131633285D01*
X121834357Y-131519000D01*
X121834357Y-131233285D01*
X121891500Y-131119000D01*
X121948642Y-131061857D01*
X122062928Y-131004714D01*
X122177214Y-131004714D01*
X122348642Y-131061857D01*
X123034357Y-131747571D01*
X123034357Y-131004714D01*
X121834357Y-130261857D02*
X121834357Y-130147571D01*
X121891500Y-130033285D01*
X121948642Y-129976142D01*
X122062928Y-129919000D01*
X122291500Y-129861857D01*
X122577214Y-129861857D01*
X122805785Y-129919000D01*
X122920071Y-129976142D01*
X122977214Y-130033285D01*
X123034357Y-130147571D01*
X123034357Y-130261857D01*
X122977214Y-130376142D01*
X122920071Y-130433285D01*
X122805785Y-130490428D01*
X122577214Y-130547571D01*
X122291500Y-130547571D01*
X122062928Y-130490428D01*
X121948642Y-130433285D01*
X121891500Y-130376142D01*
X121834357Y-130261857D01*
X95284857Y-130433142D02*
X95284857Y-130204571D01*
X95227714Y-130090285D01*
X95170571Y-130033142D01*
X94999142Y-129918857D01*
X94770571Y-129861714D01*
X94313428Y-129861714D01*
X94199142Y-129918857D01*
X94142000Y-129976000D01*
X94084857Y-130090285D01*
X94084857Y-130318857D01*
X94142000Y-130433142D01*
X94199142Y-130490285D01*
X94313428Y-130547428D01*
X94599142Y-130547428D01*
X94713428Y-130490285D01*
X94770571Y-130433142D01*
X94827714Y-130318857D01*
X94827714Y-130090285D01*
X94770571Y-129976000D01*
X94713428Y-129918857D01*
X94599142Y-129861714D01*
X107857857Y-131004714D02*
X107857857Y-131690428D01*
X107857857Y-131347571D02*
X106657857Y-131347571D01*
X106829285Y-131461857D01*
X106943571Y-131576142D01*
X107000714Y-131690428D01*
X107057857Y-129976142D02*
X107857857Y-129976142D01*
X106600714Y-130261857D02*
X107457857Y-130547571D01*
X107457857Y-129804714D01*
X102841357Y-131004714D02*
X102841357Y-131690428D01*
X102841357Y-131347571D02*
X101641357Y-131347571D01*
X101812785Y-131461857D01*
X101927071Y-131576142D01*
X101984214Y-131690428D01*
X101755642Y-130547571D02*
X101698500Y-130490428D01*
X101641357Y-130376142D01*
X101641357Y-130090428D01*
X101698500Y-129976142D01*
X101755642Y-129919000D01*
X101869928Y-129861857D01*
X101984214Y-129861857D01*
X102155642Y-129919000D01*
X102841357Y-130604714D01*
X102841357Y-129861857D01*
X97761357Y-131068214D02*
X97761357Y-131753928D01*
X97761357Y-131411071D02*
X96561357Y-131411071D01*
X96732785Y-131525357D01*
X96847071Y-131639642D01*
X96904214Y-131753928D01*
X96561357Y-130325357D02*
X96561357Y-130211071D01*
X96618500Y-130096785D01*
X96675642Y-130039642D01*
X96789928Y-129982500D01*
X97018500Y-129925357D01*
X97304214Y-129925357D01*
X97532785Y-129982500D01*
X97647071Y-130039642D01*
X97704214Y-130096785D01*
X97761357Y-130211071D01*
X97761357Y-130325357D01*
X97704214Y-130439642D01*
X97647071Y-130496785D01*
X97532785Y-130553928D01*
X97304214Y-130611071D01*
X97018500Y-130611071D01*
X96789928Y-130553928D01*
X96675642Y-130496785D01*
X96618500Y-130439642D01*
X96561357Y-130325357D01*
X110461357Y-131004714D02*
X110461357Y-131690428D01*
X110461357Y-131347571D02*
X109261357Y-131347571D01*
X109432785Y-131461857D01*
X109547071Y-131576142D01*
X109604214Y-131690428D01*
X109261357Y-129919000D02*
X109261357Y-130490428D01*
X109832785Y-130547571D01*
X109775642Y-130490428D01*
X109718500Y-130376142D01*
X109718500Y-130090428D01*
X109775642Y-129976142D01*
X109832785Y-129919000D01*
X109947071Y-129861857D01*
X110232785Y-129861857D01*
X110347071Y-129919000D01*
X110404214Y-129976142D01*
X110461357Y-130090428D01*
X110461357Y-130376142D01*
X110404214Y-130490428D01*
X110347071Y-130547571D01*
X105317857Y-131004714D02*
X105317857Y-131690428D01*
X105317857Y-131347571D02*
X104117857Y-131347571D01*
X104289285Y-131461857D01*
X104403571Y-131576142D01*
X104460714Y-131690428D01*
X104117857Y-130604714D02*
X104117857Y-129861857D01*
X104575000Y-130261857D01*
X104575000Y-130090428D01*
X104632142Y-129976142D01*
X104689285Y-129919000D01*
X104803571Y-129861857D01*
X105089285Y-129861857D01*
X105203571Y-129919000D01*
X105260714Y-129976142D01*
X105317857Y-130090428D01*
X105317857Y-130433285D01*
X105260714Y-130547571D01*
X105203571Y-130604714D01*
X100301357Y-131004714D02*
X100301357Y-131690428D01*
X100301357Y-131347571D02*
X99101357Y-131347571D01*
X99272785Y-131461857D01*
X99387071Y-131576142D01*
X99444214Y-131690428D01*
X100301357Y-129861857D02*
X100301357Y-130547571D01*
X100301357Y-130204714D02*
X99101357Y-130204714D01*
X99272785Y-130319000D01*
X99387071Y-130433285D01*
X99444214Y-130547571D01*
X112874357Y-131004714D02*
X112874357Y-131690428D01*
X112874357Y-131347571D02*
X111674357Y-131347571D01*
X111845785Y-131461857D01*
X111960071Y-131576142D01*
X112017214Y-131690428D01*
X111674357Y-129976142D02*
X111674357Y-130204714D01*
X111731500Y-130319000D01*
X111788642Y-130376142D01*
X111960071Y-130490428D01*
X112188642Y-130547571D01*
X112645785Y-130547571D01*
X112760071Y-130490428D01*
X112817214Y-130433285D01*
X112874357Y-130319000D01*
X112874357Y-130090428D01*
X112817214Y-129976142D01*
X112760071Y-129919000D01*
X112645785Y-129861857D01*
X112360071Y-129861857D01*
X112245785Y-129919000D01*
X112188642Y-129976142D01*
X112131500Y-130090428D01*
X112131500Y-130319000D01*
X112188642Y-130433285D01*
X112245785Y-130490428D01*
X112360071Y-130547571D01*
X92059142Y-130382357D02*
X92002000Y-130496642D01*
X91944857Y-130553785D01*
X91830571Y-130610928D01*
X91773428Y-130610928D01*
X91659142Y-130553785D01*
X91602000Y-130496642D01*
X91544857Y-130382357D01*
X91544857Y-130153785D01*
X91602000Y-130039500D01*
X91659142Y-129982357D01*
X91773428Y-129925214D01*
X91830571Y-129925214D01*
X91944857Y-129982357D01*
X92002000Y-130039500D01*
X92059142Y-130153785D01*
X92059142Y-130382357D01*
X92116285Y-130496642D01*
X92173428Y-130553785D01*
X92287714Y-130610928D01*
X92516285Y-130610928D01*
X92630571Y-130553785D01*
X92687714Y-130496642D01*
X92744857Y-130382357D01*
X92744857Y-130153785D01*
X92687714Y-130039500D01*
X92630571Y-129982357D01*
X92516285Y-129925214D01*
X92287714Y-129925214D01*
X92173428Y-129982357D01*
X92116285Y-130039500D01*
X92059142Y-130153785D01*
X88941357Y-130668071D02*
X88941357Y-129868071D01*
X90141357Y-130382357D01*
X86401357Y-130039500D02*
X86401357Y-130268071D01*
X86458500Y-130382357D01*
X86515642Y-130439500D01*
X86687071Y-130553785D01*
X86915642Y-130610928D01*
X87372785Y-130610928D01*
X87487071Y-130553785D01*
X87544214Y-130496642D01*
X87601357Y-130382357D01*
X87601357Y-130153785D01*
X87544214Y-130039500D01*
X87487071Y-129982357D01*
X87372785Y-129925214D01*
X87087071Y-129925214D01*
X86972785Y-129982357D01*
X86915642Y-130039500D01*
X86858500Y-130153785D01*
X86858500Y-130382357D01*
X86915642Y-130496642D01*
X86972785Y-130553785D01*
X87087071Y-130610928D01*
X83924857Y-129982357D02*
X83924857Y-130553785D01*
X84496285Y-130610928D01*
X84439142Y-130553785D01*
X84382000Y-130439500D01*
X84382000Y-130153785D01*
X84439142Y-130039500D01*
X84496285Y-129982357D01*
X84610571Y-129925214D01*
X84896285Y-129925214D01*
X85010571Y-129982357D01*
X85067714Y-130039500D01*
X85124857Y-130153785D01*
X85124857Y-130439500D01*
X85067714Y-130553785D01*
X85010571Y-130610928D01*
X81784857Y-130039500D02*
X82584857Y-130039500D01*
X81327714Y-130325214D02*
X82184857Y-130610928D01*
X82184857Y-129868071D01*
X78908357Y-130668071D02*
X78908357Y-129925214D01*
X79365500Y-130325214D01*
X79365500Y-130153785D01*
X79422642Y-130039500D01*
X79479785Y-129982357D01*
X79594071Y-129925214D01*
X79879785Y-129925214D01*
X79994071Y-129982357D01*
X80051214Y-130039500D01*
X80108357Y-130153785D01*
X80108357Y-130496642D01*
X80051214Y-130610928D01*
X79994071Y-130668071D01*
X76419142Y-130610928D02*
X76362000Y-130553785D01*
X76304857Y-130439500D01*
X76304857Y-130153785D01*
X76362000Y-130039500D01*
X76419142Y-129982357D01*
X76533428Y-129925214D01*
X76647714Y-129925214D01*
X76819142Y-129982357D01*
X77504857Y-130668071D01*
X77504857Y-129925214D01*
X74964857Y-129925214D02*
X74964857Y-130610928D01*
X74964857Y-130268071D02*
X73764857Y-130268071D01*
X73936285Y-130382357D01*
X74050571Y-130496642D01*
X74107714Y-130610928D01*
D11*
X166170228Y-102990600D02*
X167141657Y-102990600D01*
X167027371Y-104657457D02*
X166455942Y-104657457D01*
X166455942Y-103457457D01*
X167141657Y-102990600D02*
X168341657Y-102990600D01*
X167427371Y-104657457D02*
X167427371Y-103457457D01*
X167713085Y-103457457D01*
X167884514Y-103514600D01*
X167998800Y-103628885D01*
X168055942Y-103743171D01*
X168113085Y-103971742D01*
X168113085Y-104143171D01*
X168055942Y-104371742D01*
X167998800Y-104486028D01*
X167884514Y-104600314D01*
X167713085Y-104657457D01*
X167427371Y-104657457D01*
X168341657Y-102990600D02*
X169255942Y-102990600D01*
X168455942Y-103457457D02*
X169141657Y-103457457D01*
X168798800Y-104657457D02*
X168798800Y-103457457D01*
X169255942Y-102990600D02*
X170227371Y-102990600D01*
X170113085Y-104657457D02*
X169541657Y-104657457D01*
X169541657Y-103457457D01*
X165900371Y-99815600D02*
X166871800Y-99815600D01*
X166757514Y-101482457D02*
X166186085Y-101482457D01*
X166186085Y-100282457D01*
X166871800Y-99815600D02*
X168071800Y-99815600D01*
X167157514Y-101482457D02*
X167157514Y-100282457D01*
X167443228Y-100282457D01*
X167614657Y-100339600D01*
X167728942Y-100453885D01*
X167786085Y-100568171D01*
X167843228Y-100796742D01*
X167843228Y-100968171D01*
X167786085Y-101196742D01*
X167728942Y-101311028D01*
X167614657Y-101425314D01*
X167443228Y-101482457D01*
X167157514Y-101482457D01*
X168071800Y-99815600D02*
X168986085Y-99815600D01*
X168186085Y-100282457D02*
X168871800Y-100282457D01*
X168528942Y-101482457D02*
X168528942Y-100282457D01*
X168986085Y-99815600D02*
X170243228Y-99815600D01*
X169271800Y-101482457D02*
X169271800Y-100282457D01*
X169271800Y-100853885D02*
X169957514Y-100853885D01*
X169957514Y-101482457D02*
X169957514Y-100282457D01*
X165941514Y-96450100D02*
X166970085Y-96450100D01*
X166170085Y-97774100D02*
X166741514Y-97774100D01*
X166055800Y-98116957D02*
X166455800Y-96916957D01*
X166855800Y-98116957D01*
X167255800Y-98116957D02*
X167255800Y-96916957D01*
X167541514Y-96916957D01*
X167712942Y-96974100D01*
X167827228Y-97088385D01*
X167884371Y-97202671D01*
X167941514Y-97431242D01*
X167941514Y-97602671D01*
X167884371Y-97831242D01*
X167827228Y-97945528D01*
X167712942Y-98059814D01*
X167541514Y-98116957D01*
X167255800Y-98116957D01*
X166021014Y-91052600D02*
X166935300Y-91052600D01*
X166135300Y-91519457D02*
X166821014Y-91519457D01*
X166478157Y-92719457D02*
X166478157Y-91519457D01*
X166935300Y-91052600D02*
X167906728Y-91052600D01*
X167792442Y-92719457D02*
X167221014Y-92719457D01*
X167221014Y-91519457D01*
X167906728Y-91052600D02*
X169163871Y-91052600D01*
X168421014Y-91519457D02*
X168649585Y-91519457D01*
X168763871Y-91576600D01*
X168878157Y-91690885D01*
X168935300Y-91919457D01*
X168935300Y-92319457D01*
X168878157Y-92548028D01*
X168763871Y-92662314D01*
X168649585Y-92719457D01*
X168421014Y-92719457D01*
X168306728Y-92662314D01*
X168192442Y-92548028D01*
X168135300Y-92319457D01*
X168135300Y-91919457D01*
X168192442Y-91690885D01*
X168306728Y-91576600D01*
X168421014Y-91519457D01*
X169163871Y-91052600D02*
X170249585Y-91052600D01*
X169449585Y-92090885D02*
X169849585Y-92090885D01*
X170021014Y-92719457D02*
X169449585Y-92719457D01*
X169449585Y-91519457D01*
X170021014Y-91519457D01*
X165878157Y-87750600D02*
X166792442Y-87750600D01*
X165992442Y-88217457D02*
X166678157Y-88217457D01*
X166335300Y-89417457D02*
X166335300Y-88217457D01*
X166792442Y-87750600D02*
X168049585Y-87750600D01*
X167078157Y-89417457D02*
X167078157Y-88217457D01*
X167078157Y-88788885D02*
X167763871Y-88788885D01*
X167763871Y-89417457D02*
X167763871Y-88217457D01*
X168049585Y-87750600D02*
X169306728Y-87750600D01*
X168563871Y-88217457D02*
X168792442Y-88217457D01*
X168906728Y-88274600D01*
X169021014Y-88388885D01*
X169078157Y-88617457D01*
X169078157Y-89017457D01*
X169021014Y-89246028D01*
X168906728Y-89360314D01*
X168792442Y-89417457D01*
X168563871Y-89417457D01*
X168449585Y-89360314D01*
X168335300Y-89246028D01*
X168278157Y-89017457D01*
X168278157Y-88617457D01*
X168335300Y-88388885D01*
X168449585Y-88274600D01*
X168563871Y-88217457D01*
X169306728Y-87750600D02*
X170392442Y-87750600D01*
X169592442Y-88788885D02*
X169992442Y-88788885D01*
X170163871Y-89417457D02*
X169592442Y-89417457D01*
X169592442Y-88217457D01*
X170163871Y-88217457D01*
X165928942Y-84448600D02*
X166843228Y-84448600D01*
X166043228Y-84915457D02*
X166728942Y-84915457D01*
X166386085Y-86115457D02*
X166386085Y-84915457D01*
X166843228Y-84448600D02*
X167871800Y-84448600D01*
X167071800Y-85772600D02*
X167643228Y-85772600D01*
X166957514Y-86115457D02*
X167357514Y-84915457D01*
X167757514Y-86115457D01*
X167871800Y-84448600D02*
X169128942Y-84448600D01*
X168386085Y-84915457D02*
X168614657Y-84915457D01*
X168728942Y-84972600D01*
X168843228Y-85086885D01*
X168900371Y-85315457D01*
X168900371Y-85715457D01*
X168843228Y-85944028D01*
X168728942Y-86058314D01*
X168614657Y-86115457D01*
X168386085Y-86115457D01*
X168271800Y-86058314D01*
X168157514Y-85944028D01*
X168100371Y-85715457D01*
X168100371Y-85315457D01*
X168157514Y-85086885D01*
X168271800Y-84972600D01*
X168386085Y-84915457D01*
X169128942Y-84448600D02*
X170214657Y-84448600D01*
X169414657Y-85486885D02*
X169814657Y-85486885D01*
X169986085Y-86115457D02*
X169414657Y-86115457D01*
X169414657Y-84915457D01*
X169986085Y-84915457D01*
X165998728Y-108451600D02*
X167198728Y-108451600D01*
X166970157Y-110118457D02*
X166570157Y-109547028D01*
X166284442Y-110118457D02*
X166284442Y-108918457D01*
X166741585Y-108918457D01*
X166855871Y-108975600D01*
X166913014Y-109032742D01*
X166970157Y-109147028D01*
X166970157Y-109318457D01*
X166913014Y-109432742D01*
X166855871Y-109489885D01*
X166741585Y-109547028D01*
X166284442Y-109547028D01*
X167198728Y-108451600D02*
X168341585Y-108451600D01*
X167427300Y-110061314D02*
X167598728Y-110118457D01*
X167884442Y-110118457D01*
X167998728Y-110061314D01*
X168055871Y-110004171D01*
X168113014Y-109889885D01*
X168113014Y-109775600D01*
X168055871Y-109661314D01*
X167998728Y-109604171D01*
X167884442Y-109547028D01*
X167655871Y-109489885D01*
X167541585Y-109432742D01*
X167484442Y-109375600D01*
X167427300Y-109261314D01*
X167427300Y-109147028D01*
X167484442Y-109032742D01*
X167541585Y-108975600D01*
X167655871Y-108918457D01*
X167941585Y-108918457D01*
X168113014Y-108975600D01*
X168341585Y-108451600D02*
X169255871Y-108451600D01*
X168455871Y-108918457D02*
X169141585Y-108918457D01*
X168798728Y-110118457D02*
X168798728Y-108918457D01*
X138566628Y-84001057D02*
X139252342Y-84001057D01*
X138909485Y-85201057D02*
X138909485Y-84001057D01*
X140223771Y-85201057D02*
X139652342Y-85201057D01*
X139652342Y-84001057D01*
X126485771Y-84001057D02*
X127171485Y-84001057D01*
X126828628Y-85201057D02*
X126828628Y-84001057D01*
X127571485Y-85201057D02*
X127571485Y-84001057D01*
X127571485Y-84572485D02*
X128257200Y-84572485D01*
X128257200Y-85201057D02*
X128257200Y-84001057D01*
D12*
X145173700Y-85674200D02*
X145173700Y-86245700D01*
X133680200Y-86372700D02*
X133680200Y-85674200D01*
X133680200Y-85674200D02*
X145173700Y-85674200D01*
D11*
X140096985Y-87296557D02*
X140096985Y-86096557D01*
X140382700Y-86096557D01*
X140554128Y-86153700D01*
X140668414Y-86267985D01*
X140725557Y-86382271D01*
X140782700Y-86610842D01*
X140782700Y-86782271D01*
X140725557Y-87010842D01*
X140668414Y-87125128D01*
X140554128Y-87239414D01*
X140382700Y-87296557D01*
X140096985Y-87296557D01*
X141925557Y-87296557D02*
X141239842Y-87296557D01*
X141582700Y-87296557D02*
X141582700Y-86096557D01*
X141468414Y-86267985D01*
X141354128Y-86382271D01*
X141239842Y-86439414D01*
X143017985Y-87296557D02*
X143017985Y-86096557D01*
X143303700Y-86096557D01*
X143475128Y-86153700D01*
X143589414Y-86267985D01*
X143646557Y-86382271D01*
X143703700Y-86610842D01*
X143703700Y-86782271D01*
X143646557Y-87010842D01*
X143589414Y-87125128D01*
X143475128Y-87239414D01*
X143303700Y-87296557D01*
X143017985Y-87296557D01*
X144446557Y-86096557D02*
X144560842Y-86096557D01*
X144675128Y-86153700D01*
X144732271Y-86210842D01*
X144789414Y-86325128D01*
X144846557Y-86553700D01*
X144846557Y-86839414D01*
X144789414Y-87067985D01*
X144732271Y-87182271D01*
X144675128Y-87239414D01*
X144560842Y-87296557D01*
X144446557Y-87296557D01*
X144332271Y-87239414D01*
X144275128Y-87182271D01*
X144217985Y-87067985D01*
X144160842Y-86839414D01*
X144160842Y-86553700D01*
X144217985Y-86325128D01*
X144275128Y-86210842D01*
X144332271Y-86153700D01*
X144446557Y-86096557D01*
X134064485Y-87360057D02*
X134064485Y-86160057D01*
X134350200Y-86160057D01*
X134521628Y-86217200D01*
X134635914Y-86331485D01*
X134693057Y-86445771D01*
X134750200Y-86674342D01*
X134750200Y-86845771D01*
X134693057Y-87074342D01*
X134635914Y-87188628D01*
X134521628Y-87302914D01*
X134350200Y-87360057D01*
X134064485Y-87360057D01*
X135150200Y-86160057D02*
X135893057Y-86160057D01*
X135493057Y-86617200D01*
X135664485Y-86617200D01*
X135778771Y-86674342D01*
X135835914Y-86731485D01*
X135893057Y-86845771D01*
X135893057Y-87131485D01*
X135835914Y-87245771D01*
X135778771Y-87302914D01*
X135664485Y-87360057D01*
X135321628Y-87360057D01*
X135207342Y-87302914D01*
X135150200Y-87245771D01*
X137048985Y-87296557D02*
X137048985Y-86096557D01*
X137334700Y-86096557D01*
X137506128Y-86153700D01*
X137620414Y-86267985D01*
X137677557Y-86382271D01*
X137734700Y-86610842D01*
X137734700Y-86782271D01*
X137677557Y-87010842D01*
X137620414Y-87125128D01*
X137506128Y-87239414D01*
X137334700Y-87296557D01*
X137048985Y-87296557D01*
X138191842Y-86210842D02*
X138248985Y-86153700D01*
X138363271Y-86096557D01*
X138648985Y-86096557D01*
X138763271Y-86153700D01*
X138820414Y-86210842D01*
X138877557Y-86325128D01*
X138877557Y-86439414D01*
X138820414Y-86610842D01*
X138134700Y-87296557D01*
X138877557Y-87296557D01*
D12*
X133172200Y-85674200D02*
X133172200Y-86245700D01*
X121678700Y-85674200D02*
X133172200Y-85674200D01*
X121678700Y-86372700D02*
X121678700Y-85674200D01*
D11*
X131016485Y-87296557D02*
X131016485Y-86096557D01*
X131302200Y-86096557D01*
X131473628Y-86153700D01*
X131587914Y-86267985D01*
X131645057Y-86382271D01*
X131702200Y-86610842D01*
X131702200Y-86782271D01*
X131645057Y-87010842D01*
X131587914Y-87125128D01*
X131473628Y-87239414D01*
X131302200Y-87296557D01*
X131016485Y-87296557D01*
X132445057Y-86096557D02*
X132559342Y-86096557D01*
X132673628Y-86153700D01*
X132730771Y-86210842D01*
X132787914Y-86325128D01*
X132845057Y-86553700D01*
X132845057Y-86839414D01*
X132787914Y-87067985D01*
X132730771Y-87182271D01*
X132673628Y-87239414D01*
X132559342Y-87296557D01*
X132445057Y-87296557D01*
X132330771Y-87239414D01*
X132273628Y-87182271D01*
X132216485Y-87067985D01*
X132159342Y-86839414D01*
X132159342Y-86553700D01*
X132216485Y-86325128D01*
X132273628Y-86210842D01*
X132330771Y-86153700D01*
X132445057Y-86096557D01*
X128095485Y-87296557D02*
X128095485Y-86096557D01*
X128381200Y-86096557D01*
X128552628Y-86153700D01*
X128666914Y-86267985D01*
X128724057Y-86382271D01*
X128781200Y-86610842D01*
X128781200Y-86782271D01*
X128724057Y-87010842D01*
X128666914Y-87125128D01*
X128552628Y-87239414D01*
X128381200Y-87296557D01*
X128095485Y-87296557D01*
X129924057Y-87296557D02*
X129238342Y-87296557D01*
X129581200Y-87296557D02*
X129581200Y-86096557D01*
X129466914Y-86267985D01*
X129352628Y-86382271D01*
X129238342Y-86439414D01*
X125047485Y-87296557D02*
X125047485Y-86096557D01*
X125333200Y-86096557D01*
X125504628Y-86153700D01*
X125618914Y-86267985D01*
X125676057Y-86382271D01*
X125733200Y-86610842D01*
X125733200Y-86782271D01*
X125676057Y-87010842D01*
X125618914Y-87125128D01*
X125504628Y-87239414D01*
X125333200Y-87296557D01*
X125047485Y-87296557D01*
X126190342Y-86210842D02*
X126247485Y-86153700D01*
X126361771Y-86096557D01*
X126647485Y-86096557D01*
X126761771Y-86153700D01*
X126818914Y-86210842D01*
X126876057Y-86325128D01*
X126876057Y-86439414D01*
X126818914Y-86610842D01*
X126133200Y-87296557D01*
X126876057Y-87296557D01*
X122062985Y-87360057D02*
X122062985Y-86160057D01*
X122348700Y-86160057D01*
X122520128Y-86217200D01*
X122634414Y-86331485D01*
X122691557Y-86445771D01*
X122748700Y-86674342D01*
X122748700Y-86845771D01*
X122691557Y-87074342D01*
X122634414Y-87188628D01*
X122520128Y-87302914D01*
X122348700Y-87360057D01*
X122062985Y-87360057D01*
X123148700Y-86160057D02*
X123891557Y-86160057D01*
X123491557Y-86617200D01*
X123662985Y-86617200D01*
X123777271Y-86674342D01*
X123834414Y-86731485D01*
X123891557Y-86845771D01*
X123891557Y-87131485D01*
X123834414Y-87245771D01*
X123777271Y-87302914D01*
X123662985Y-87360057D01*
X123320128Y-87360057D01*
X123205842Y-87302914D01*
X123148700Y-87245771D01*
D12*
X124678000Y-103946100D02*
X124433000Y-103946100D01*
X126773000Y-103946100D02*
X126528000Y-103946100D01*
X124678000Y-100306100D02*
X124433000Y-100306100D01*
X126773000Y-100306100D02*
X126528000Y-100306100D01*
X124433000Y-100306100D02*
X124433000Y-103946100D01*
X126773000Y-100306100D02*
X126773000Y-103946100D01*
X118442300Y-107870400D02*
X118197300Y-107870400D01*
X120537300Y-107870400D02*
X120292300Y-107870400D01*
X118442300Y-104230400D02*
X118197300Y-104230400D01*
X120537300Y-104230400D02*
X120292300Y-104230400D01*
X118197300Y-104230400D02*
X118197300Y-107870400D01*
X120537300Y-104230400D02*
X120537300Y-107870400D01*
X124766900Y-115477700D02*
X124521900Y-115477700D01*
X126861900Y-115477700D02*
X126616900Y-115477700D01*
X124766900Y-111837700D02*
X124521900Y-111837700D01*
X126861900Y-111837700D02*
X126616900Y-111837700D01*
X124521900Y-111837700D02*
X124521900Y-115477700D01*
X126861900Y-111837700D02*
X126861900Y-115477700D01*
X122298900Y-117948300D02*
X122543900Y-117948300D01*
X120203900Y-117948300D02*
X120448900Y-117948300D01*
X122298900Y-121588300D02*
X122543900Y-121588300D01*
X120203900Y-121588300D02*
X120448900Y-121588300D01*
X122543900Y-121588300D02*
X122543900Y-117948300D01*
X120203900Y-121588300D02*
X120203900Y-117948300D01*
X93177800Y-117999100D02*
X93422800Y-117999100D01*
X91082800Y-117999100D02*
X91327800Y-117999100D01*
X93177800Y-121639100D02*
X93422800Y-121639100D01*
X91082800Y-121639100D02*
X91327800Y-121639100D01*
X93422800Y-121639100D02*
X93422800Y-117999100D01*
X91082800Y-121639100D02*
X91082800Y-117999100D01*
X95832100Y-104232300D02*
X96077100Y-104232300D01*
X93737100Y-104232300D02*
X93982100Y-104232300D01*
X95832100Y-107872300D02*
X96077100Y-107872300D01*
X93737100Y-107872300D02*
X93982100Y-107872300D01*
X96077100Y-107872300D02*
X96077100Y-104232300D01*
X93737100Y-107872300D02*
X93737100Y-104232300D01*
X120292300Y-90376600D02*
X120537300Y-90376600D01*
X118197300Y-90376600D02*
X118442300Y-90376600D01*
X120292300Y-94016600D02*
X120537300Y-94016600D01*
X118197300Y-94016600D02*
X118442300Y-94016600D01*
X120537300Y-94016600D02*
X120537300Y-90376600D01*
X118197300Y-94016600D02*
X118197300Y-90376600D01*
X95933700Y-90338500D02*
X96178700Y-90338500D01*
X93838700Y-90338500D02*
X94083700Y-90338500D01*
X95933700Y-93978500D02*
X96178700Y-93978500D01*
X93838700Y-93978500D02*
X94083700Y-93978500D01*
X96178700Y-93978500D02*
X96178700Y-90338500D01*
X93838700Y-93978500D02*
X93838700Y-90338500D01*
X124612400Y-94319900D02*
X124612400Y-97119900D01*
X145102400Y-94319900D02*
X121902400Y-94319900D01*
X145102400Y-97119900D02*
X145102400Y-94319900D01*
X121902400Y-97119900D02*
X145102400Y-97119900D01*
X121902400Y-94319900D02*
X121902400Y-97119900D01*
X157062300Y-109385100D02*
X156292300Y-109385100D01*
X148982300Y-109385100D02*
X149752300Y-109385100D01*
X156292300Y-108015100D02*
X149752300Y-108015100D01*
X156292300Y-110755100D02*
X156292300Y-108015100D01*
X149752300Y-110755100D02*
X156292300Y-110755100D01*
X149752300Y-108015100D02*
X149752300Y-110755100D01*
X157062300Y-104178100D02*
X156292300Y-104178100D01*
X148982300Y-104178100D02*
X149752300Y-104178100D01*
X156292300Y-102808100D02*
X149752300Y-102808100D01*
X156292300Y-105548100D02*
X156292300Y-102808100D01*
X149752300Y-105548100D02*
X156292300Y-105548100D01*
X149752300Y-102808100D02*
X149752300Y-105548100D01*
X157062300Y-100812600D02*
X156292300Y-100812600D01*
X148982300Y-100812600D02*
X149752300Y-100812600D01*
X156292300Y-99442600D02*
X149752300Y-99442600D01*
X156292300Y-102182600D02*
X156292300Y-99442600D01*
X149752300Y-102182600D02*
X156292300Y-102182600D01*
X149752300Y-99442600D02*
X149752300Y-102182600D01*
X157062300Y-97447100D02*
X156292300Y-97447100D01*
X148982300Y-97447100D02*
X149752300Y-97447100D01*
X156292300Y-96077100D02*
X149752300Y-96077100D01*
X156292300Y-98817100D02*
X156292300Y-96077100D01*
X149752300Y-98817100D02*
X156292300Y-98817100D01*
X149752300Y-96077100D02*
X149752300Y-98817100D01*
X157062300Y-88747600D02*
X156292300Y-88747600D01*
X148982300Y-88747600D02*
X149752300Y-88747600D01*
X156292300Y-87377600D02*
X149752300Y-87377600D01*
X156292300Y-90117600D02*
X156292300Y-87377600D01*
X149752300Y-90117600D02*
X156292300Y-90117600D01*
X149752300Y-87377600D02*
X149752300Y-90117600D01*
X157062300Y-92113100D02*
X156292300Y-92113100D01*
X148982300Y-92113100D02*
X149752300Y-92113100D01*
X156292300Y-90743100D02*
X149752300Y-90743100D01*
X156292300Y-93483100D02*
X156292300Y-90743100D01*
X149752300Y-93483100D02*
X156292300Y-93483100D01*
X149752300Y-90743100D02*
X149752300Y-93483100D01*
X157062300Y-85382100D02*
X156292300Y-85382100D01*
X148982300Y-85382100D02*
X149752300Y-85382100D01*
X156292300Y-84012100D02*
X149752300Y-84012100D01*
X156292300Y-86752100D02*
X156292300Y-84012100D01*
X149752300Y-86752100D02*
X156292300Y-86752100D01*
X149752300Y-84012100D02*
X149752300Y-86752100D01*
X160361300Y-96387100D02*
X160361300Y-98507100D01*
X165361300Y-96387100D02*
X165361300Y-98507100D01*
X160241300Y-96387100D02*
X160241300Y-98507100D01*
X164801300Y-98507100D02*
X165361300Y-98507100D01*
X162611300Y-98507100D02*
X163342300Y-98507100D01*
X160241300Y-98507100D02*
X160451300Y-98507100D01*
X164801300Y-96387100D02*
X165361300Y-96387100D01*
X162611300Y-96387100D02*
X163342300Y-96387100D01*
X160241300Y-96387100D02*
X160451300Y-96387100D01*
X160361300Y-99752600D02*
X160361300Y-101872600D01*
X165361300Y-99752600D02*
X165361300Y-101872600D01*
X160241300Y-99752600D02*
X160241300Y-101872600D01*
X164801300Y-101872600D02*
X165361300Y-101872600D01*
X162611300Y-101872600D02*
X163342300Y-101872600D01*
X160241300Y-101872600D02*
X160451300Y-101872600D01*
X164801300Y-99752600D02*
X165361300Y-99752600D01*
X162611300Y-99752600D02*
X163342300Y-99752600D01*
X160241300Y-99752600D02*
X160451300Y-99752600D01*
X160361300Y-103054600D02*
X160361300Y-105174600D01*
X165361300Y-103054600D02*
X165361300Y-105174600D01*
X160241300Y-103054600D02*
X160241300Y-105174600D01*
X164801300Y-105174600D02*
X165361300Y-105174600D01*
X162611300Y-105174600D02*
X163342300Y-105174600D01*
X160241300Y-105174600D02*
X160451300Y-105174600D01*
X164801300Y-103054600D02*
X165361300Y-103054600D01*
X162611300Y-103054600D02*
X163342300Y-103054600D01*
X160241300Y-103054600D02*
X160451300Y-103054600D01*
X160424800Y-108325100D02*
X160424800Y-110445100D01*
X165424800Y-108325100D02*
X165424800Y-110445100D01*
X160304800Y-108325100D02*
X160304800Y-110445100D01*
X164864800Y-110445100D02*
X165424800Y-110445100D01*
X162674800Y-110445100D02*
X163405800Y-110445100D01*
X160304800Y-110445100D02*
X160514800Y-110445100D01*
X164864800Y-108325100D02*
X165424800Y-108325100D01*
X162674800Y-108325100D02*
X163405800Y-108325100D01*
X160304800Y-108325100D02*
X160514800Y-108325100D01*
X160424800Y-91053100D02*
X160424800Y-93173100D01*
X165424800Y-91053100D02*
X165424800Y-93173100D01*
X160304800Y-91053100D02*
X160304800Y-93173100D01*
X164864800Y-93173100D02*
X165424800Y-93173100D01*
X162674800Y-93173100D02*
X163405800Y-93173100D01*
X160304800Y-93173100D02*
X160514800Y-93173100D01*
X164864800Y-91053100D02*
X165424800Y-91053100D01*
X162674800Y-91053100D02*
X163405800Y-91053100D01*
X160304800Y-91053100D02*
X160514800Y-91053100D01*
X160424800Y-87687600D02*
X160424800Y-89807600D01*
X165424800Y-87687600D02*
X165424800Y-89807600D01*
X160304800Y-87687600D02*
X160304800Y-89807600D01*
X164864800Y-89807600D02*
X165424800Y-89807600D01*
X162674800Y-89807600D02*
X163405800Y-89807600D01*
X160304800Y-89807600D02*
X160514800Y-89807600D01*
X164864800Y-87687600D02*
X165424800Y-87687600D01*
X162674800Y-87687600D02*
X163405800Y-87687600D01*
X160304800Y-87687600D02*
X160514800Y-87687600D01*
X160424800Y-84322100D02*
X160424800Y-86442100D01*
X165424800Y-84322100D02*
X165424800Y-86442100D01*
X160304800Y-84322100D02*
X160304800Y-86442100D01*
X164864800Y-86442100D02*
X165424800Y-86442100D01*
X162674800Y-86442100D02*
X163405800Y-86442100D01*
X160304800Y-86442100D02*
X160514800Y-86442100D01*
X164864800Y-84322100D02*
X165424800Y-84322100D01*
X162674800Y-84322100D02*
X163405800Y-84322100D01*
X160304800Y-84322100D02*
X160514800Y-84322100D01*
X142970700Y-93257700D02*
X145090700Y-93257700D01*
X142970700Y-88257700D02*
X145090700Y-88257700D01*
X142970700Y-93377700D02*
X145090700Y-93377700D01*
X145090700Y-88817700D02*
X145090700Y-88257700D01*
X145090700Y-91007700D02*
X145090700Y-90276700D01*
X145090700Y-93377700D02*
X145090700Y-93167700D01*
X142970700Y-88817700D02*
X142970700Y-88257700D01*
X142970700Y-91007700D02*
X142970700Y-90276700D01*
X142970700Y-93377700D02*
X142970700Y-93167700D01*
X139986200Y-93257700D02*
X142106200Y-93257700D01*
X139986200Y-88257700D02*
X142106200Y-88257700D01*
X139986200Y-93377700D02*
X142106200Y-93377700D01*
X142106200Y-88817700D02*
X142106200Y-88257700D01*
X142106200Y-91007700D02*
X142106200Y-90276700D01*
X142106200Y-93377700D02*
X142106200Y-93167700D01*
X139986200Y-88817700D02*
X139986200Y-88257700D01*
X139986200Y-91007700D02*
X139986200Y-90276700D01*
X139986200Y-93377700D02*
X139986200Y-93167700D01*
X137001700Y-93257700D02*
X139121700Y-93257700D01*
X137001700Y-88257700D02*
X139121700Y-88257700D01*
X137001700Y-93377700D02*
X139121700Y-93377700D01*
X139121700Y-88817700D02*
X139121700Y-88257700D01*
X139121700Y-91007700D02*
X139121700Y-90276700D01*
X139121700Y-93377700D02*
X139121700Y-93167700D01*
X137001700Y-88817700D02*
X137001700Y-88257700D01*
X137001700Y-91007700D02*
X137001700Y-90276700D01*
X137001700Y-93377700D02*
X137001700Y-93167700D01*
X134017200Y-93257700D02*
X136137200Y-93257700D01*
X134017200Y-88257700D02*
X136137200Y-88257700D01*
X134017200Y-93377700D02*
X136137200Y-93377700D01*
X136137200Y-88817700D02*
X136137200Y-88257700D01*
X136137200Y-91007700D02*
X136137200Y-90276700D01*
X136137200Y-93377700D02*
X136137200Y-93167700D01*
X134017200Y-88817700D02*
X134017200Y-88257700D01*
X134017200Y-91007700D02*
X134017200Y-90276700D01*
X134017200Y-93377700D02*
X134017200Y-93167700D01*
X130905700Y-93257700D02*
X133025700Y-93257700D01*
X130905700Y-88257700D02*
X133025700Y-88257700D01*
X130905700Y-93377700D02*
X133025700Y-93377700D01*
X133025700Y-88817700D02*
X133025700Y-88257700D01*
X133025700Y-91007700D02*
X133025700Y-90276700D01*
X133025700Y-93377700D02*
X133025700Y-93167700D01*
X130905700Y-88817700D02*
X130905700Y-88257700D01*
X130905700Y-91007700D02*
X130905700Y-90276700D01*
X130905700Y-93377700D02*
X130905700Y-93167700D01*
X127921200Y-93257700D02*
X130041200Y-93257700D01*
X127921200Y-88257700D02*
X130041200Y-88257700D01*
X127921200Y-93377700D02*
X130041200Y-93377700D01*
X130041200Y-88817700D02*
X130041200Y-88257700D01*
X130041200Y-91007700D02*
X130041200Y-90276700D01*
X130041200Y-93377700D02*
X130041200Y-93167700D01*
X127921200Y-88817700D02*
X127921200Y-88257700D01*
X127921200Y-91007700D02*
X127921200Y-90276700D01*
X127921200Y-93377700D02*
X127921200Y-93167700D01*
X124936700Y-93257700D02*
X127056700Y-93257700D01*
X124936700Y-88257700D02*
X127056700Y-88257700D01*
X124936700Y-93377700D02*
X127056700Y-93377700D01*
X127056700Y-88817700D02*
X127056700Y-88257700D01*
X127056700Y-91007700D02*
X127056700Y-90276700D01*
X127056700Y-93377700D02*
X127056700Y-93167700D01*
X124936700Y-88817700D02*
X124936700Y-88257700D01*
X124936700Y-91007700D02*
X124936700Y-90276700D01*
X124936700Y-93377700D02*
X124936700Y-93167700D01*
X121952200Y-93257700D02*
X124072200Y-93257700D01*
X121952200Y-88257700D02*
X124072200Y-88257700D01*
X121952200Y-93377700D02*
X124072200Y-93377700D01*
X124072200Y-88817700D02*
X124072200Y-88257700D01*
X124072200Y-91007700D02*
X124072200Y-90276700D01*
X124072200Y-93377700D02*
X124072200Y-93167700D01*
X121952200Y-88817700D02*
X121952200Y-88257700D01*
X121952200Y-91007700D02*
X121952200Y-90276700D01*
X121952200Y-93377700D02*
X121952200Y-93167700D01*
X169732000Y-129282500D02*
X169732000Y-126622500D01*
X75692000Y-129282500D02*
X169732000Y-129282500D01*
X75692000Y-126622500D02*
X169732000Y-126622500D01*
X75692000Y-129282500D02*
X75692000Y-126622500D01*
X74422000Y-129282500D02*
X73092000Y-129282500D01*
X73092000Y-129282500D02*
X73092000Y-127952500D01*
X117598500Y-104009700D02*
G75*
G02X117598500Y-102009700I0J1000000D01*
G01*
X117598500Y-102009700D02*
X117598500Y-100359700D01*
X117598500Y-100359700D02*
X97158500Y-100359700D01*
X97158500Y-100359700D02*
X97158500Y-105659700D01*
X97158500Y-105659700D02*
X117598500Y-105659700D01*
X117598500Y-105659700D02*
X117598500Y-104009700D01*
X117658500Y-97869700D02*
X97098500Y-97869700D01*
X97098500Y-97869700D02*
X97098500Y-108149700D01*
X97098500Y-108149700D02*
X117658500Y-108149700D01*
X117658500Y-108149700D02*
X117658500Y-97869700D01*
X93122100Y-108124300D02*
X93122100Y-97844300D01*
X72562100Y-108124300D02*
X93122100Y-108124300D01*
X72562100Y-97844300D02*
X72562100Y-108124300D01*
X93122100Y-97844300D02*
X72562100Y-97844300D01*
X93062100Y-105634300D02*
X93062100Y-103984300D01*
X72622100Y-105634300D02*
X93062100Y-105634300D01*
X72622100Y-100334300D02*
X72622100Y-105634300D01*
X93062100Y-100334300D02*
X72622100Y-100334300D01*
X93062100Y-101984300D02*
X93062100Y-100334300D01*
X93062100Y-103984300D02*
G75*
G02X93062100Y-101984300I0J1000000D01*
G01*
X117623900Y-90154000D02*
G75*
G02X117623900Y-88154000I0J1000000D01*
G01*
X117623900Y-88154000D02*
X117623900Y-86504000D01*
X117623900Y-86504000D02*
X97183900Y-86504000D01*
X97183900Y-86504000D02*
X97183900Y-91804000D01*
X97183900Y-91804000D02*
X117623900Y-91804000D01*
X117623900Y-91804000D02*
X117623900Y-90154000D01*
X117683900Y-84014000D02*
X97123900Y-84014000D01*
X97123900Y-84014000D02*
X97123900Y-94294000D01*
X97123900Y-94294000D02*
X117683900Y-94294000D01*
X117683900Y-94294000D02*
X117683900Y-84014000D01*
X93122100Y-94319400D02*
X93122100Y-84039400D01*
X72562100Y-94319400D02*
X93122100Y-94319400D01*
X72562100Y-84039400D02*
X72562100Y-94319400D01*
X93122100Y-84039400D02*
X72562100Y-84039400D01*
X93062100Y-91829400D02*
X93062100Y-90179400D01*
X72622100Y-91829400D02*
X93062100Y-91829400D01*
X72622100Y-86529400D02*
X72622100Y-91829400D01*
X93062100Y-86529400D02*
X72622100Y-86529400D01*
X93062100Y-88179400D02*
X93062100Y-86529400D01*
X93062100Y-90179400D02*
G75*
G02X93062100Y-88179400I0J1000000D01*
G01*
X127172100Y-100066800D02*
X127172100Y-110346800D01*
X145192100Y-100066800D02*
X127172100Y-100066800D01*
X145192100Y-110346800D02*
X145192100Y-100066800D01*
X127172100Y-110346800D02*
X145192100Y-110346800D01*
X127232100Y-102556800D02*
X127232100Y-104206800D01*
X145132100Y-102556800D02*
X127232100Y-102556800D01*
X145132100Y-107856800D02*
X145132100Y-102556800D01*
X127232100Y-107856800D02*
X145132100Y-107856800D01*
X127232100Y-106206800D02*
X127232100Y-107856800D01*
X127232100Y-104206800D02*
G75*
G02X127232100Y-106206800I0J-1000000D01*
G01*
X127333700Y-115725700D02*
G75*
G02X127333700Y-117725700I0J-1000000D01*
G01*
X127333700Y-117725700D02*
X127333700Y-119375700D01*
X127333700Y-119375700D02*
X145233700Y-119375700D01*
X145233700Y-119375700D02*
X145233700Y-114075700D01*
X145233700Y-114075700D02*
X127333700Y-114075700D01*
X127333700Y-114075700D02*
X127333700Y-115725700D01*
X127273700Y-121865700D02*
X145293700Y-121865700D01*
X145293700Y-121865700D02*
X145293700Y-111585700D01*
X145293700Y-111585700D02*
X127273700Y-111585700D01*
X127273700Y-111585700D02*
X127273700Y-121865700D01*
X119567000Y-117763800D02*
G75*
G02X119567000Y-115763800I0J1000000D01*
G01*
X119567000Y-115763800D02*
X119567000Y-114113800D01*
X119567000Y-114113800D02*
X94047000Y-114113800D01*
X94047000Y-114113800D02*
X94047000Y-119413800D01*
X94047000Y-119413800D02*
X119567000Y-119413800D01*
X119567000Y-119413800D02*
X119567000Y-117763800D01*
X119627000Y-111623800D02*
X93987000Y-111623800D01*
X93987000Y-111623800D02*
X93987000Y-121903800D01*
X93987000Y-121903800D02*
X119627000Y-121903800D01*
X119627000Y-121903800D02*
X119627000Y-111623800D01*
X90534800Y-117789200D02*
G75*
G02X90534800Y-115789200I0J1000000D01*
G01*
X90534800Y-115789200D02*
X90534800Y-114139200D01*
X90534800Y-114139200D02*
X72634800Y-114139200D01*
X72634800Y-114139200D02*
X72634800Y-119439200D01*
X72634800Y-119439200D02*
X90534800Y-119439200D01*
X90534800Y-119439200D02*
X90534800Y-117789200D01*
X90594800Y-111649200D02*
X72574800Y-111649200D01*
X72574800Y-111649200D02*
X72574800Y-121929200D01*
X72574800Y-121929200D02*
X90594800Y-121929200D01*
X90594800Y-121929200D02*
X90594800Y-111649200D01*
D10*
X122845580Y-103758785D02*
X122845580Y-103663547D01*
X122893200Y-103568309D01*
X122940819Y-103520690D01*
X123036057Y-103473071D01*
X123226533Y-103425452D01*
X123464628Y-103425452D01*
X123655104Y-103473071D01*
X123750342Y-103520690D01*
X123797961Y-103568309D01*
X123845580Y-103663547D01*
X123845580Y-103758785D01*
X123797961Y-103854023D01*
X123750342Y-103901642D01*
X123655104Y-103949261D01*
X123464628Y-103996880D01*
X123226533Y-103996880D01*
X123036057Y-103949261D01*
X122940819Y-103901642D01*
X122893200Y-103854023D01*
X122845580Y-103758785D01*
X123750342Y-102996880D02*
X123797961Y-102949261D01*
X123845580Y-102996880D01*
X123797961Y-103044500D01*
X123750342Y-102996880D01*
X123845580Y-102996880D01*
X123845580Y-101996880D02*
X123845580Y-102568309D01*
X123845580Y-102282595D02*
X122845580Y-102282595D01*
X122988438Y-102377833D01*
X123083676Y-102473071D01*
X123131295Y-102568309D01*
X123178914Y-101568309D02*
X124178914Y-101568309D01*
X123702723Y-101092119D02*
X123797961Y-101044500D01*
X123845580Y-100949261D01*
X123702723Y-101568309D02*
X123797961Y-101520690D01*
X123845580Y-101425452D01*
X123845580Y-101234976D01*
X123797961Y-101139738D01*
X123702723Y-101092119D01*
X123178914Y-101092119D01*
X123321771Y-100187357D02*
X123321771Y-100520690D01*
X123845580Y-100520690D02*
X122845580Y-100520690D01*
X122845580Y-100044500D01*
X120851680Y-107771985D02*
X120851680Y-107676747D01*
X120899300Y-107581509D01*
X120946919Y-107533890D01*
X121042157Y-107486271D01*
X121232633Y-107438652D01*
X121470728Y-107438652D01*
X121661204Y-107486271D01*
X121756442Y-107533890D01*
X121804061Y-107581509D01*
X121851680Y-107676747D01*
X121851680Y-107771985D01*
X121804061Y-107867223D01*
X121756442Y-107914842D01*
X121661204Y-107962461D01*
X121470728Y-108010080D01*
X121232633Y-108010080D01*
X121042157Y-107962461D01*
X120946919Y-107914842D01*
X120899300Y-107867223D01*
X120851680Y-107771985D01*
X121756442Y-107010080D02*
X121804061Y-106962461D01*
X121851680Y-107010080D01*
X121804061Y-107057700D01*
X121756442Y-107010080D01*
X121851680Y-107010080D01*
X121851680Y-106010080D02*
X121851680Y-106581509D01*
X121851680Y-106295795D02*
X120851680Y-106295795D01*
X120994538Y-106391033D01*
X121089776Y-106486271D01*
X121137395Y-106581509D01*
X121185014Y-105581509D02*
X122185014Y-105581509D01*
X121708823Y-105105319D02*
X121804061Y-105057700D01*
X121851680Y-104962461D01*
X121708823Y-105581509D02*
X121804061Y-105533890D01*
X121851680Y-105438652D01*
X121851680Y-105248176D01*
X121804061Y-105152938D01*
X121708823Y-105105319D01*
X121185014Y-105105319D01*
X121327871Y-104200557D02*
X121327871Y-104533890D01*
X121851680Y-104533890D02*
X120851680Y-104533890D01*
X120851680Y-104057700D01*
X122921780Y-115188785D02*
X122921780Y-115093547D01*
X122969400Y-114998309D01*
X123017019Y-114950690D01*
X123112257Y-114903071D01*
X123302733Y-114855452D01*
X123540828Y-114855452D01*
X123731304Y-114903071D01*
X123826542Y-114950690D01*
X123874161Y-114998309D01*
X123921780Y-115093547D01*
X123921780Y-115188785D01*
X123874161Y-115284023D01*
X123826542Y-115331642D01*
X123731304Y-115379261D01*
X123540828Y-115426880D01*
X123302733Y-115426880D01*
X123112257Y-115379261D01*
X123017019Y-115331642D01*
X122969400Y-115284023D01*
X122921780Y-115188785D01*
X123826542Y-114426880D02*
X123874161Y-114379261D01*
X123921780Y-114426880D01*
X123874161Y-114474500D01*
X123826542Y-114426880D01*
X123921780Y-114426880D01*
X123921780Y-113426880D02*
X123921780Y-113998309D01*
X123921780Y-113712595D02*
X122921780Y-113712595D01*
X123064638Y-113807833D01*
X123159876Y-113903071D01*
X123207495Y-113998309D01*
X123255114Y-112998309D02*
X124255114Y-112998309D01*
X123778923Y-112522119D02*
X123874161Y-112474500D01*
X123921780Y-112379261D01*
X123778923Y-112998309D02*
X123874161Y-112950690D01*
X123921780Y-112855452D01*
X123921780Y-112664976D01*
X123874161Y-112569738D01*
X123778923Y-112522119D01*
X123255114Y-112522119D01*
X123397971Y-111617357D02*
X123397971Y-111950690D01*
X123921780Y-111950690D02*
X122921780Y-111950690D01*
X122921780Y-111474500D01*
X122945280Y-121284785D02*
X122945280Y-121189547D01*
X122992900Y-121094309D01*
X123040519Y-121046690D01*
X123135757Y-120999071D01*
X123326233Y-120951452D01*
X123564328Y-120951452D01*
X123754804Y-120999071D01*
X123850042Y-121046690D01*
X123897661Y-121094309D01*
X123945280Y-121189547D01*
X123945280Y-121284785D01*
X123897661Y-121380023D01*
X123850042Y-121427642D01*
X123754804Y-121475261D01*
X123564328Y-121522880D01*
X123326233Y-121522880D01*
X123135757Y-121475261D01*
X123040519Y-121427642D01*
X122992900Y-121380023D01*
X122945280Y-121284785D01*
X123850042Y-120522880D02*
X123897661Y-120475261D01*
X123945280Y-120522880D01*
X123897661Y-120570500D01*
X123850042Y-120522880D01*
X123945280Y-120522880D01*
X123945280Y-119522880D02*
X123945280Y-120094309D01*
X123945280Y-119808595D02*
X122945280Y-119808595D01*
X123088138Y-119903833D01*
X123183376Y-119999071D01*
X123230995Y-120094309D01*
X123278614Y-119094309D02*
X124278614Y-119094309D01*
X123802423Y-118618119D02*
X123897661Y-118570500D01*
X123945280Y-118475261D01*
X123802423Y-119094309D02*
X123897661Y-119046690D01*
X123945280Y-118951452D01*
X123945280Y-118760976D01*
X123897661Y-118665738D01*
X123802423Y-118618119D01*
X123278614Y-118618119D01*
X123421471Y-117713357D02*
X123421471Y-118046690D01*
X123945280Y-118046690D02*
X122945280Y-118046690D01*
X122945280Y-117570500D01*
X91832180Y-116687385D02*
X91832180Y-116592147D01*
X91879800Y-116496909D01*
X91927419Y-116449290D01*
X92022657Y-116401671D01*
X92213133Y-116354052D01*
X92451228Y-116354052D01*
X92641704Y-116401671D01*
X92736942Y-116449290D01*
X92784561Y-116496909D01*
X92832180Y-116592147D01*
X92832180Y-116687385D01*
X92784561Y-116782623D01*
X92736942Y-116830242D01*
X92641704Y-116877861D01*
X92451228Y-116925480D01*
X92213133Y-116925480D01*
X92022657Y-116877861D01*
X91927419Y-116830242D01*
X91879800Y-116782623D01*
X91832180Y-116687385D01*
X92736942Y-115925480D02*
X92784561Y-115877861D01*
X92832180Y-115925480D01*
X92784561Y-115973100D01*
X92736942Y-115925480D01*
X92832180Y-115925480D01*
X92832180Y-114925480D02*
X92832180Y-115496909D01*
X92832180Y-115211195D02*
X91832180Y-115211195D01*
X91975038Y-115306433D01*
X92070276Y-115401671D01*
X92117895Y-115496909D01*
X92165514Y-114496909D02*
X93165514Y-114496909D01*
X92689323Y-114020719D02*
X92784561Y-113973100D01*
X92832180Y-113877861D01*
X92689323Y-114496909D02*
X92784561Y-114449290D01*
X92832180Y-114354052D01*
X92832180Y-114163576D01*
X92784561Y-114068338D01*
X92689323Y-114020719D01*
X92165514Y-114020719D01*
X92308371Y-113115957D02*
X92308371Y-113449290D01*
X92832180Y-113449290D02*
X91832180Y-113449290D01*
X91832180Y-112973100D01*
X94549980Y-102984085D02*
X94549980Y-102888847D01*
X94597600Y-102793609D01*
X94645219Y-102745990D01*
X94740457Y-102698371D01*
X94930933Y-102650752D01*
X95169028Y-102650752D01*
X95359504Y-102698371D01*
X95454742Y-102745990D01*
X95502361Y-102793609D01*
X95549980Y-102888847D01*
X95549980Y-102984085D01*
X95502361Y-103079323D01*
X95454742Y-103126942D01*
X95359504Y-103174561D01*
X95169028Y-103222180D01*
X94930933Y-103222180D01*
X94740457Y-103174561D01*
X94645219Y-103126942D01*
X94597600Y-103079323D01*
X94549980Y-102984085D01*
X95454742Y-102222180D02*
X95502361Y-102174561D01*
X95549980Y-102222180D01*
X95502361Y-102269800D01*
X95454742Y-102222180D01*
X95549980Y-102222180D01*
X95549980Y-101222180D02*
X95549980Y-101793609D01*
X95549980Y-101507895D02*
X94549980Y-101507895D01*
X94692838Y-101603133D01*
X94788076Y-101698371D01*
X94835695Y-101793609D01*
X94883314Y-100793609D02*
X95883314Y-100793609D01*
X95407123Y-100317419D02*
X95502361Y-100269800D01*
X95549980Y-100174561D01*
X95407123Y-100793609D02*
X95502361Y-100745990D01*
X95549980Y-100650752D01*
X95549980Y-100460276D01*
X95502361Y-100365038D01*
X95407123Y-100317419D01*
X94883314Y-100317419D01*
X95026171Y-99412657D02*
X95026171Y-99745990D01*
X95549980Y-99745990D02*
X94549980Y-99745990D01*
X94549980Y-99269800D01*
X118819680Y-88683885D02*
X118819680Y-88588647D01*
X118867300Y-88493409D01*
X118914919Y-88445790D01*
X119010157Y-88398171D01*
X119200633Y-88350552D01*
X119438728Y-88350552D01*
X119629204Y-88398171D01*
X119724442Y-88445790D01*
X119772061Y-88493409D01*
X119819680Y-88588647D01*
X119819680Y-88683885D01*
X119772061Y-88779123D01*
X119724442Y-88826742D01*
X119629204Y-88874361D01*
X119438728Y-88921980D01*
X119200633Y-88921980D01*
X119010157Y-88874361D01*
X118914919Y-88826742D01*
X118867300Y-88779123D01*
X118819680Y-88683885D01*
X119724442Y-87921980D02*
X119772061Y-87874361D01*
X119819680Y-87921980D01*
X119772061Y-87969600D01*
X119724442Y-87921980D01*
X119819680Y-87921980D01*
X119819680Y-86921980D02*
X119819680Y-87493409D01*
X119819680Y-87207695D02*
X118819680Y-87207695D01*
X118962538Y-87302933D01*
X119057776Y-87398171D01*
X119105395Y-87493409D01*
X119153014Y-86493409D02*
X120153014Y-86493409D01*
X119676823Y-86017219D02*
X119772061Y-85969600D01*
X119819680Y-85874361D01*
X119676823Y-86493409D02*
X119772061Y-86445790D01*
X119819680Y-86350552D01*
X119819680Y-86160076D01*
X119772061Y-86064838D01*
X119676823Y-86017219D01*
X119153014Y-86017219D01*
X119295871Y-85112457D02*
X119295871Y-85445790D01*
X119819680Y-85445790D02*
X118819680Y-85445790D01*
X118819680Y-84969600D01*
X94651580Y-88836285D02*
X94651580Y-88741047D01*
X94699200Y-88645809D01*
X94746819Y-88598190D01*
X94842057Y-88550571D01*
X95032533Y-88502952D01*
X95270628Y-88502952D01*
X95461104Y-88550571D01*
X95556342Y-88598190D01*
X95603961Y-88645809D01*
X95651580Y-88741047D01*
X95651580Y-88836285D01*
X95603961Y-88931523D01*
X95556342Y-88979142D01*
X95461104Y-89026761D01*
X95270628Y-89074380D01*
X95032533Y-89074380D01*
X94842057Y-89026761D01*
X94746819Y-88979142D01*
X94699200Y-88931523D01*
X94651580Y-88836285D01*
X95556342Y-88074380D02*
X95603961Y-88026761D01*
X95651580Y-88074380D01*
X95603961Y-88122000D01*
X95556342Y-88074380D01*
X95651580Y-88074380D01*
X95651580Y-87074380D02*
X95651580Y-87645809D01*
X95651580Y-87360095D02*
X94651580Y-87360095D01*
X94794438Y-87455333D01*
X94889676Y-87550571D01*
X94937295Y-87645809D01*
X94984914Y-86645809D02*
X95984914Y-86645809D01*
X95508723Y-86169619D02*
X95603961Y-86122000D01*
X95651580Y-86026761D01*
X95508723Y-86645809D02*
X95603961Y-86598190D01*
X95651580Y-86502952D01*
X95651580Y-86312476D01*
X95603961Y-86217238D01*
X95508723Y-86169619D01*
X94984914Y-86169619D01*
X95127771Y-85264857D02*
X95127771Y-85598190D01*
X95651580Y-85598190D02*
X94651580Y-85598190D01*
X94651580Y-85122000D01*
X132219866Y-98198014D02*
X132219866Y-98864680D01*
X131981771Y-97817061D02*
X131743676Y-98531347D01*
X132362723Y-98531347D01*
X132648438Y-97864680D02*
X133315104Y-97864680D01*
X132886533Y-98864680D01*
X133886533Y-97864680D02*
X133981771Y-97864680D01*
X134077009Y-97912300D01*
X134124628Y-97959919D01*
X134172247Y-98055157D01*
X134219866Y-98245633D01*
X134219866Y-98483728D01*
X134172247Y-98674204D01*
X134124628Y-98769442D01*
X134077009Y-98817061D01*
X133981771Y-98864680D01*
X133886533Y-98864680D01*
X133791295Y-98817061D01*
X133743676Y-98769442D01*
X133696057Y-98674204D01*
X133648438Y-98483728D01*
X133648438Y-98245633D01*
X133696057Y-98055157D01*
X133743676Y-97959919D01*
X133791295Y-97912300D01*
X133886533Y-97864680D01*
X134600819Y-98864680D02*
X134838914Y-98864680D01*
X134838914Y-98674204D01*
X134743676Y-98626585D01*
X134648438Y-98531347D01*
X134600819Y-98388490D01*
X134600819Y-98150395D01*
X134648438Y-98007538D01*
X134743676Y-97912300D01*
X134886533Y-97864680D01*
X135077009Y-97864680D01*
X135219866Y-97912300D01*
X135315104Y-98007538D01*
X135362723Y-98150395D01*
X135362723Y-98388490D01*
X135315104Y-98531347D01*
X135219866Y-98626585D01*
X135124628Y-98674204D01*
X135124628Y-98864680D01*
X135362723Y-98864680D01*
X151705966Y-109133814D02*
X151705966Y-109800480D01*
X151467871Y-108752861D02*
X151229776Y-109467147D01*
X151848823Y-109467147D01*
X152134538Y-108800480D02*
X152801204Y-108800480D01*
X152372633Y-109800480D01*
X153372633Y-108800480D02*
X153467871Y-108800480D01*
X153563109Y-108848100D01*
X153610728Y-108895719D01*
X153658347Y-108990957D01*
X153705966Y-109181433D01*
X153705966Y-109419528D01*
X153658347Y-109610004D01*
X153610728Y-109705242D01*
X153563109Y-109752861D01*
X153467871Y-109800480D01*
X153372633Y-109800480D01*
X153277395Y-109752861D01*
X153229776Y-109705242D01*
X153182157Y-109610004D01*
X153134538Y-109419528D01*
X153134538Y-109181433D01*
X153182157Y-108990957D01*
X153229776Y-108895719D01*
X153277395Y-108848100D01*
X153372633Y-108800480D01*
X154086919Y-109800480D02*
X154325014Y-109800480D01*
X154325014Y-109610004D01*
X154229776Y-109562385D01*
X154134538Y-109467147D01*
X154086919Y-109324290D01*
X154086919Y-109086195D01*
X154134538Y-108943338D01*
X154229776Y-108848100D01*
X154372633Y-108800480D01*
X154563109Y-108800480D01*
X154705966Y-108848100D01*
X154801204Y-108943338D01*
X154848823Y-109086195D01*
X154848823Y-109324290D01*
X154801204Y-109467147D01*
X154705966Y-109562385D01*
X154610728Y-109610004D01*
X154610728Y-109800480D01*
X154848823Y-109800480D01*
X151744466Y-103926814D02*
X151744466Y-104593480D01*
X151506371Y-103545861D02*
X151268276Y-104260147D01*
X151887323Y-104260147D01*
X152173038Y-103593480D02*
X152839704Y-103593480D01*
X152411133Y-104593480D01*
X153411133Y-103593480D02*
X153506371Y-103593480D01*
X153601609Y-103641100D01*
X153649228Y-103688719D01*
X153696847Y-103783957D01*
X153744466Y-103974433D01*
X153744466Y-104212528D01*
X153696847Y-104403004D01*
X153649228Y-104498242D01*
X153601609Y-104545861D01*
X153506371Y-104593480D01*
X153411133Y-104593480D01*
X153315895Y-104545861D01*
X153268276Y-104498242D01*
X153220657Y-104403004D01*
X153173038Y-104212528D01*
X153173038Y-103974433D01*
X153220657Y-103783957D01*
X153268276Y-103688719D01*
X153315895Y-103641100D01*
X153411133Y-103593480D01*
X154125419Y-104593480D02*
X154363514Y-104593480D01*
X154363514Y-104403004D01*
X154268276Y-104355385D01*
X154173038Y-104260147D01*
X154125419Y-104117290D01*
X154125419Y-103879195D01*
X154173038Y-103736338D01*
X154268276Y-103641100D01*
X154411133Y-103593480D01*
X154601609Y-103593480D01*
X154744466Y-103641100D01*
X154839704Y-103736338D01*
X154887323Y-103879195D01*
X154887323Y-104117290D01*
X154839704Y-104260147D01*
X154744466Y-104355385D01*
X154649228Y-104403004D01*
X154649228Y-104593480D01*
X154887323Y-104593480D01*
X151688966Y-100610814D02*
X151688966Y-101277480D01*
X151450871Y-100229861D02*
X151212776Y-100944147D01*
X151831823Y-100944147D01*
X152117538Y-100277480D02*
X152784204Y-100277480D01*
X152355633Y-101277480D01*
X153355633Y-100277480D02*
X153450871Y-100277480D01*
X153546109Y-100325100D01*
X153593728Y-100372719D01*
X153641347Y-100467957D01*
X153688966Y-100658433D01*
X153688966Y-100896528D01*
X153641347Y-101087004D01*
X153593728Y-101182242D01*
X153546109Y-101229861D01*
X153450871Y-101277480D01*
X153355633Y-101277480D01*
X153260395Y-101229861D01*
X153212776Y-101182242D01*
X153165157Y-101087004D01*
X153117538Y-100896528D01*
X153117538Y-100658433D01*
X153165157Y-100467957D01*
X153212776Y-100372719D01*
X153260395Y-100325100D01*
X153355633Y-100277480D01*
X154069919Y-101277480D02*
X154308014Y-101277480D01*
X154308014Y-101087004D01*
X154212776Y-101039385D01*
X154117538Y-100944147D01*
X154069919Y-100801290D01*
X154069919Y-100563195D01*
X154117538Y-100420338D01*
X154212776Y-100325100D01*
X154355633Y-100277480D01*
X154546109Y-100277480D01*
X154688966Y-100325100D01*
X154784204Y-100420338D01*
X154831823Y-100563195D01*
X154831823Y-100801290D01*
X154784204Y-100944147D01*
X154688966Y-101039385D01*
X154593728Y-101087004D01*
X154593728Y-101277480D01*
X154831823Y-101277480D01*
X151688966Y-97232814D02*
X151688966Y-97899480D01*
X151450871Y-96851861D02*
X151212776Y-97566147D01*
X151831823Y-97566147D01*
X152117538Y-96899480D02*
X152784204Y-96899480D01*
X152355633Y-97899480D01*
X153355633Y-96899480D02*
X153450871Y-96899480D01*
X153546109Y-96947100D01*
X153593728Y-96994719D01*
X153641347Y-97089957D01*
X153688966Y-97280433D01*
X153688966Y-97518528D01*
X153641347Y-97709004D01*
X153593728Y-97804242D01*
X153546109Y-97851861D01*
X153450871Y-97899480D01*
X153355633Y-97899480D01*
X153260395Y-97851861D01*
X153212776Y-97804242D01*
X153165157Y-97709004D01*
X153117538Y-97518528D01*
X153117538Y-97280433D01*
X153165157Y-97089957D01*
X153212776Y-96994719D01*
X153260395Y-96947100D01*
X153355633Y-96899480D01*
X154069919Y-97899480D02*
X154308014Y-97899480D01*
X154308014Y-97709004D01*
X154212776Y-97661385D01*
X154117538Y-97566147D01*
X154069919Y-97423290D01*
X154069919Y-97185195D01*
X154117538Y-97042338D01*
X154212776Y-96947100D01*
X154355633Y-96899480D01*
X154546109Y-96899480D01*
X154688966Y-96947100D01*
X154784204Y-97042338D01*
X154831823Y-97185195D01*
X154831823Y-97423290D01*
X154784204Y-97566147D01*
X154688966Y-97661385D01*
X154593728Y-97709004D01*
X154593728Y-97899480D01*
X154831823Y-97899480D01*
X151642466Y-88531814D02*
X151642466Y-89198480D01*
X151404371Y-88150861D02*
X151166276Y-88865147D01*
X151785323Y-88865147D01*
X152071038Y-88198480D02*
X152737704Y-88198480D01*
X152309133Y-89198480D01*
X153309133Y-88198480D02*
X153404371Y-88198480D01*
X153499609Y-88246100D01*
X153547228Y-88293719D01*
X153594847Y-88388957D01*
X153642466Y-88579433D01*
X153642466Y-88817528D01*
X153594847Y-89008004D01*
X153547228Y-89103242D01*
X153499609Y-89150861D01*
X153404371Y-89198480D01*
X153309133Y-89198480D01*
X153213895Y-89150861D01*
X153166276Y-89103242D01*
X153118657Y-89008004D01*
X153071038Y-88817528D01*
X153071038Y-88579433D01*
X153118657Y-88388957D01*
X153166276Y-88293719D01*
X153213895Y-88246100D01*
X153309133Y-88198480D01*
X154023419Y-89198480D02*
X154261514Y-89198480D01*
X154261514Y-89008004D01*
X154166276Y-88960385D01*
X154071038Y-88865147D01*
X154023419Y-88722290D01*
X154023419Y-88484195D01*
X154071038Y-88341338D01*
X154166276Y-88246100D01*
X154309133Y-88198480D01*
X154499609Y-88198480D01*
X154642466Y-88246100D01*
X154737704Y-88341338D01*
X154785323Y-88484195D01*
X154785323Y-88722290D01*
X154737704Y-88865147D01*
X154642466Y-88960385D01*
X154547228Y-89008004D01*
X154547228Y-89198480D01*
X154785323Y-89198480D01*
X151688966Y-91898814D02*
X151688966Y-92565480D01*
X151450871Y-91517861D02*
X151212776Y-92232147D01*
X151831823Y-92232147D01*
X152117538Y-91565480D02*
X152784204Y-91565480D01*
X152355633Y-92565480D01*
X153355633Y-91565480D02*
X153450871Y-91565480D01*
X153546109Y-91613100D01*
X153593728Y-91660719D01*
X153641347Y-91755957D01*
X153688966Y-91946433D01*
X153688966Y-92184528D01*
X153641347Y-92375004D01*
X153593728Y-92470242D01*
X153546109Y-92517861D01*
X153450871Y-92565480D01*
X153355633Y-92565480D01*
X153260395Y-92517861D01*
X153212776Y-92470242D01*
X153165157Y-92375004D01*
X153117538Y-92184528D01*
X153117538Y-91946433D01*
X153165157Y-91755957D01*
X153212776Y-91660719D01*
X153260395Y-91613100D01*
X153355633Y-91565480D01*
X154069919Y-92565480D02*
X154308014Y-92565480D01*
X154308014Y-92375004D01*
X154212776Y-92327385D01*
X154117538Y-92232147D01*
X154069919Y-92089290D01*
X154069919Y-91851195D01*
X154117538Y-91708338D01*
X154212776Y-91613100D01*
X154355633Y-91565480D01*
X154546109Y-91565480D01*
X154688966Y-91613100D01*
X154784204Y-91708338D01*
X154831823Y-91851195D01*
X154831823Y-92089290D01*
X154784204Y-92232147D01*
X154688966Y-92327385D01*
X154593728Y-92375004D01*
X154593728Y-92565480D01*
X154831823Y-92565480D01*
X151744466Y-85102814D02*
X151744466Y-85769480D01*
X151506371Y-84721861D02*
X151268276Y-85436147D01*
X151887323Y-85436147D01*
X152173038Y-84769480D02*
X152839704Y-84769480D01*
X152411133Y-85769480D01*
X153411133Y-84769480D02*
X153506371Y-84769480D01*
X153601609Y-84817100D01*
X153649228Y-84864719D01*
X153696847Y-84959957D01*
X153744466Y-85150433D01*
X153744466Y-85388528D01*
X153696847Y-85579004D01*
X153649228Y-85674242D01*
X153601609Y-85721861D01*
X153506371Y-85769480D01*
X153411133Y-85769480D01*
X153315895Y-85721861D01*
X153268276Y-85674242D01*
X153220657Y-85579004D01*
X153173038Y-85388528D01*
X153173038Y-85150433D01*
X153220657Y-84959957D01*
X153268276Y-84864719D01*
X153315895Y-84817100D01*
X153411133Y-84769480D01*
X154125419Y-85769480D02*
X154363514Y-85769480D01*
X154363514Y-85579004D01*
X154268276Y-85531385D01*
X154173038Y-85436147D01*
X154125419Y-85293290D01*
X154125419Y-85055195D01*
X154173038Y-84912338D01*
X154268276Y-84817100D01*
X154411133Y-84769480D01*
X154601609Y-84769480D01*
X154744466Y-84817100D01*
X154839704Y-84912338D01*
X154887323Y-85055195D01*
X154887323Y-85293290D01*
X154839704Y-85436147D01*
X154744466Y-85531385D01*
X154649228Y-85579004D01*
X154649228Y-85769480D01*
X154887323Y-85769480D01*
X104259452Y-102335080D02*
X104926119Y-102335080D01*
X104497547Y-103335080D01*
X105735642Y-102668414D02*
X105735642Y-103335080D01*
X105497547Y-102287461D02*
X105259452Y-103001747D01*
X105878500Y-103001747D01*
X106735642Y-103335080D02*
X106259452Y-103335080D01*
X106259452Y-102335080D01*
X107021357Y-103287461D02*
X107164214Y-103335080D01*
X107402309Y-103335080D01*
X107497547Y-103287461D01*
X107545166Y-103239842D01*
X107592785Y-103144604D01*
X107592785Y-103049366D01*
X107545166Y-102954128D01*
X107497547Y-102906509D01*
X107402309Y-102858890D01*
X107211833Y-102811271D01*
X107116595Y-102763652D01*
X107068976Y-102716033D01*
X107021357Y-102620795D01*
X107021357Y-102525557D01*
X107068976Y-102430319D01*
X107116595Y-102382700D01*
X107211833Y-102335080D01*
X107449928Y-102335080D01*
X107592785Y-102382700D01*
X108545166Y-103335080D02*
X107973738Y-103335080D01*
X108259452Y-103335080D02*
X108259452Y-102335080D01*
X108164214Y-102477938D01*
X108068976Y-102573176D01*
X107973738Y-102620795D01*
X109449928Y-102335080D02*
X108973738Y-102335080D01*
X108926119Y-102811271D01*
X108973738Y-102763652D01*
X109068976Y-102716033D01*
X109307071Y-102716033D01*
X109402309Y-102763652D01*
X109449928Y-102811271D01*
X109497547Y-102906509D01*
X109497547Y-103144604D01*
X109449928Y-103239842D01*
X109402309Y-103287461D01*
X109307071Y-103335080D01*
X109068976Y-103335080D01*
X108973738Y-103287461D01*
X108926119Y-103239842D01*
X109830880Y-102335080D02*
X110497547Y-102335080D01*
X110068976Y-103335080D01*
X79659552Y-102182680D02*
X80326219Y-102182680D01*
X79897647Y-103182680D01*
X81135742Y-102516014D02*
X81135742Y-103182680D01*
X80897647Y-102135061D02*
X80659552Y-102849347D01*
X81278600Y-102849347D01*
X82135742Y-103182680D02*
X81659552Y-103182680D01*
X81659552Y-102182680D01*
X82421457Y-103135061D02*
X82564314Y-103182680D01*
X82802409Y-103182680D01*
X82897647Y-103135061D01*
X82945266Y-103087442D01*
X82992885Y-102992204D01*
X82992885Y-102896966D01*
X82945266Y-102801728D01*
X82897647Y-102754109D01*
X82802409Y-102706490D01*
X82611933Y-102658871D01*
X82516695Y-102611252D01*
X82469076Y-102563633D01*
X82421457Y-102468395D01*
X82421457Y-102373157D01*
X82469076Y-102277919D01*
X82516695Y-102230300D01*
X82611933Y-102182680D01*
X82850028Y-102182680D01*
X82992885Y-102230300D01*
X83945266Y-103182680D02*
X83373838Y-103182680D01*
X83659552Y-103182680D02*
X83659552Y-102182680D01*
X83564314Y-102325538D01*
X83469076Y-102420776D01*
X83373838Y-102468395D01*
X84850028Y-102182680D02*
X84373838Y-102182680D01*
X84326219Y-102658871D01*
X84373838Y-102611252D01*
X84469076Y-102563633D01*
X84707171Y-102563633D01*
X84802409Y-102611252D01*
X84850028Y-102658871D01*
X84897647Y-102754109D01*
X84897647Y-102992204D01*
X84850028Y-103087442D01*
X84802409Y-103135061D01*
X84707171Y-103182680D01*
X84469076Y-103182680D01*
X84373838Y-103135061D01*
X84326219Y-103087442D01*
X85230980Y-102182680D02*
X85897647Y-102182680D01*
X85469076Y-103182680D01*
X104157852Y-88606380D02*
X104824519Y-88606380D01*
X104395947Y-89606380D01*
X105634042Y-88939714D02*
X105634042Y-89606380D01*
X105395947Y-88558761D02*
X105157852Y-89273047D01*
X105776900Y-89273047D01*
X106634042Y-89606380D02*
X106157852Y-89606380D01*
X106157852Y-88606380D01*
X106919757Y-89558761D02*
X107062614Y-89606380D01*
X107300709Y-89606380D01*
X107395947Y-89558761D01*
X107443566Y-89511142D01*
X107491185Y-89415904D01*
X107491185Y-89320666D01*
X107443566Y-89225428D01*
X107395947Y-89177809D01*
X107300709Y-89130190D01*
X107110233Y-89082571D01*
X107014995Y-89034952D01*
X106967376Y-88987333D01*
X106919757Y-88892095D01*
X106919757Y-88796857D01*
X106967376Y-88701619D01*
X107014995Y-88654000D01*
X107110233Y-88606380D01*
X107348328Y-88606380D01*
X107491185Y-88654000D01*
X108443566Y-89606380D02*
X107872138Y-89606380D01*
X108157852Y-89606380D02*
X108157852Y-88606380D01*
X108062614Y-88749238D01*
X107967376Y-88844476D01*
X107872138Y-88892095D01*
X108776900Y-88606380D02*
X109443566Y-88606380D01*
X109014995Y-89606380D01*
X109729280Y-88606380D02*
X110348328Y-88606380D01*
X110014995Y-88987333D01*
X110157852Y-88987333D01*
X110253090Y-89034952D01*
X110300709Y-89082571D01*
X110348328Y-89177809D01*
X110348328Y-89415904D01*
X110300709Y-89511142D01*
X110253090Y-89558761D01*
X110157852Y-89606380D01*
X109872138Y-89606380D01*
X109776900Y-89558761D01*
X109729280Y-89511142D01*
X79596052Y-88695280D02*
X80262719Y-88695280D01*
X79834147Y-89695280D01*
X81072242Y-89028614D02*
X81072242Y-89695280D01*
X80834147Y-88647661D02*
X80596052Y-89361947D01*
X81215100Y-89361947D01*
X82072242Y-89695280D02*
X81596052Y-89695280D01*
X81596052Y-88695280D01*
X82357957Y-89647661D02*
X82500814Y-89695280D01*
X82738909Y-89695280D01*
X82834147Y-89647661D01*
X82881766Y-89600042D01*
X82929385Y-89504804D01*
X82929385Y-89409566D01*
X82881766Y-89314328D01*
X82834147Y-89266709D01*
X82738909Y-89219090D01*
X82548433Y-89171471D01*
X82453195Y-89123852D01*
X82405576Y-89076233D01*
X82357957Y-88980995D01*
X82357957Y-88885757D01*
X82405576Y-88790519D01*
X82453195Y-88742900D01*
X82548433Y-88695280D01*
X82786528Y-88695280D01*
X82929385Y-88742900D01*
X83881766Y-89695280D02*
X83310338Y-89695280D01*
X83596052Y-89695280D02*
X83596052Y-88695280D01*
X83500814Y-88838138D01*
X83405576Y-88933376D01*
X83310338Y-88980995D01*
X84215100Y-88695280D02*
X84881766Y-88695280D01*
X84453195Y-89695280D01*
X85167480Y-88695280D02*
X85786528Y-88695280D01*
X85453195Y-89076233D01*
X85596052Y-89076233D01*
X85691290Y-89123852D01*
X85738909Y-89171471D01*
X85786528Y-89266709D01*
X85786528Y-89504804D01*
X85738909Y-89600042D01*
X85691290Y-89647661D01*
X85596052Y-89695280D01*
X85310338Y-89695280D01*
X85215100Y-89647661D01*
X85167480Y-89600042D01*
X133126552Y-104659180D02*
X133793219Y-104659180D01*
X133364647Y-105659180D01*
X134602742Y-104992514D02*
X134602742Y-105659180D01*
X134364647Y-104611561D02*
X134126552Y-105325847D01*
X134745600Y-105325847D01*
X135602742Y-105659180D02*
X135126552Y-105659180D01*
X135126552Y-104659180D01*
X135888457Y-105611561D02*
X136031314Y-105659180D01*
X136269409Y-105659180D01*
X136364647Y-105611561D01*
X136412266Y-105563942D01*
X136459885Y-105468704D01*
X136459885Y-105373466D01*
X136412266Y-105278228D01*
X136364647Y-105230609D01*
X136269409Y-105182990D01*
X136078933Y-105135371D01*
X135983695Y-105087752D01*
X135936076Y-105040133D01*
X135888457Y-104944895D01*
X135888457Y-104849657D01*
X135936076Y-104754419D01*
X135983695Y-104706800D01*
X136078933Y-104659180D01*
X136317028Y-104659180D01*
X136459885Y-104706800D01*
X136840838Y-104754419D02*
X136888457Y-104706800D01*
X136983695Y-104659180D01*
X137221790Y-104659180D01*
X137317028Y-104706800D01*
X137364647Y-104754419D01*
X137412266Y-104849657D01*
X137412266Y-104944895D01*
X137364647Y-105087752D01*
X136793219Y-105659180D01*
X137412266Y-105659180D01*
X138269409Y-104992514D02*
X138269409Y-105659180D01*
X138031314Y-104611561D02*
X137793219Y-105325847D01*
X138412266Y-105325847D01*
X138697980Y-104659180D02*
X139317028Y-104659180D01*
X138983695Y-105040133D01*
X139126552Y-105040133D01*
X139221790Y-105087752D01*
X139269409Y-105135371D01*
X139317028Y-105230609D01*
X139317028Y-105468704D01*
X139269409Y-105563942D01*
X139221790Y-105611561D01*
X139126552Y-105659180D01*
X138840838Y-105659180D01*
X138745600Y-105611561D01*
X138697980Y-105563942D01*
X133291652Y-116241580D02*
X133958319Y-116241580D01*
X133529747Y-117241580D01*
X134767842Y-116574914D02*
X134767842Y-117241580D01*
X134529747Y-116193961D02*
X134291652Y-116908247D01*
X134910700Y-116908247D01*
X135767842Y-117241580D02*
X135291652Y-117241580D01*
X135291652Y-116241580D01*
X136053557Y-117193961D02*
X136196414Y-117241580D01*
X136434509Y-117241580D01*
X136529747Y-117193961D01*
X136577366Y-117146342D01*
X136624985Y-117051104D01*
X136624985Y-116955866D01*
X136577366Y-116860628D01*
X136529747Y-116813009D01*
X136434509Y-116765390D01*
X136244033Y-116717771D01*
X136148795Y-116670152D01*
X136101176Y-116622533D01*
X136053557Y-116527295D01*
X136053557Y-116432057D01*
X136101176Y-116336819D01*
X136148795Y-116289200D01*
X136244033Y-116241580D01*
X136482128Y-116241580D01*
X136624985Y-116289200D01*
X137005938Y-116336819D02*
X137053557Y-116289200D01*
X137148795Y-116241580D01*
X137386890Y-116241580D01*
X137482128Y-116289200D01*
X137529747Y-116336819D01*
X137577366Y-116432057D01*
X137577366Y-116527295D01*
X137529747Y-116670152D01*
X136958319Y-117241580D01*
X137577366Y-117241580D01*
X138434509Y-116574914D02*
X138434509Y-117241580D01*
X138196414Y-116193961D02*
X137958319Y-116908247D01*
X138577366Y-116908247D01*
X138863080Y-116241580D02*
X139482128Y-116241580D01*
X139148795Y-116622533D01*
X139291652Y-116622533D01*
X139386890Y-116670152D01*
X139434509Y-116717771D01*
X139482128Y-116813009D01*
X139482128Y-117051104D01*
X139434509Y-117146342D01*
X139386890Y-117193961D01*
X139291652Y-117241580D01*
X139005938Y-117241580D01*
X138910700Y-117193961D01*
X138863080Y-117146342D01*
X103814952Y-116279680D02*
X104481619Y-116279680D01*
X104053047Y-117279680D01*
X105291142Y-116613014D02*
X105291142Y-117279680D01*
X105053047Y-116232061D02*
X104814952Y-116946347D01*
X105434000Y-116946347D01*
X106291142Y-117279680D02*
X105814952Y-117279680D01*
X105814952Y-116279680D01*
X106576857Y-117232061D02*
X106719714Y-117279680D01*
X106957809Y-117279680D01*
X107053047Y-117232061D01*
X107100666Y-117184442D01*
X107148285Y-117089204D01*
X107148285Y-116993966D01*
X107100666Y-116898728D01*
X107053047Y-116851109D01*
X106957809Y-116803490D01*
X106767333Y-116755871D01*
X106672095Y-116708252D01*
X106624476Y-116660633D01*
X106576857Y-116565395D01*
X106576857Y-116470157D01*
X106624476Y-116374919D01*
X106672095Y-116327300D01*
X106767333Y-116279680D01*
X107005428Y-116279680D01*
X107148285Y-116327300D01*
X108053047Y-116279680D02*
X107576857Y-116279680D01*
X107529238Y-116755871D01*
X107576857Y-116708252D01*
X107672095Y-116660633D01*
X107910190Y-116660633D01*
X108005428Y-116708252D01*
X108053047Y-116755871D01*
X108100666Y-116851109D01*
X108100666Y-117089204D01*
X108053047Y-117184442D01*
X108005428Y-117232061D01*
X107910190Y-117279680D01*
X107672095Y-117279680D01*
X107576857Y-117232061D01*
X107529238Y-117184442D01*
X108957809Y-116613014D02*
X108957809Y-117279680D01*
X108719714Y-116232061D02*
X108481619Y-116946347D01*
X109100666Y-116946347D01*
X110005428Y-117279680D02*
X109434000Y-117279680D01*
X109719714Y-117279680D02*
X109719714Y-116279680D01*
X109624476Y-116422538D01*
X109529238Y-116517776D01*
X109434000Y-116565395D01*
X77338752Y-117257461D02*
X77481609Y-117305080D01*
X77719704Y-117305080D01*
X77814942Y-117257461D01*
X77862561Y-117209842D01*
X77910180Y-117114604D01*
X77910180Y-117019366D01*
X77862561Y-116924128D01*
X77814942Y-116876509D01*
X77719704Y-116828890D01*
X77529228Y-116781271D01*
X77433990Y-116733652D01*
X77386371Y-116686033D01*
X77338752Y-116590795D01*
X77338752Y-116495557D01*
X77386371Y-116400319D01*
X77433990Y-116352700D01*
X77529228Y-116305080D01*
X77767323Y-116305080D01*
X77910180Y-116352700D01*
X78338752Y-117305080D02*
X78338752Y-116305080D01*
X78910180Y-117305080D01*
X78910180Y-116305080D01*
X79291133Y-116305080D02*
X79957800Y-116305080D01*
X79529228Y-117305080D01*
X80767323Y-116638414D02*
X80767323Y-117305080D01*
X80529228Y-116257461D02*
X80291133Y-116971747D01*
X80910180Y-116971747D01*
X81767323Y-117305080D02*
X81291133Y-117305080D01*
X81291133Y-116305080D01*
X82053038Y-117257461D02*
X82195895Y-117305080D01*
X82433990Y-117305080D01*
X82529228Y-117257461D01*
X82576847Y-117209842D01*
X82624466Y-117114604D01*
X82624466Y-117019366D01*
X82576847Y-116924128D01*
X82529228Y-116876509D01*
X82433990Y-116828890D01*
X82243514Y-116781271D01*
X82148276Y-116733652D01*
X82100657Y-116686033D01*
X82053038Y-116590795D01*
X82053038Y-116495557D01*
X82100657Y-116400319D01*
X82148276Y-116352700D01*
X82243514Y-116305080D01*
X82481609Y-116305080D01*
X82624466Y-116352700D01*
X83243514Y-116305080D02*
X83338752Y-116305080D01*
X83433990Y-116352700D01*
X83481609Y-116400319D01*
X83529228Y-116495557D01*
X83576847Y-116686033D01*
X83576847Y-116924128D01*
X83529228Y-117114604D01*
X83481609Y-117209842D01*
X83433990Y-117257461D01*
X83338752Y-117305080D01*
X83243514Y-117305080D01*
X83148276Y-117257461D01*
X83100657Y-117209842D01*
X83053038Y-117114604D01*
X83005419Y-116924128D01*
X83005419Y-116686033D01*
X83053038Y-116495557D01*
X83100657Y-116400319D01*
X83148276Y-116352700D01*
X83243514Y-116305080D01*
X84433990Y-116638414D02*
X84433990Y-117305080D01*
X84195895Y-116257461D02*
X83957800Y-116971747D01*
X84576847Y-116971747D01*
X84957800Y-117305080D02*
X84957800Y-116305080D01*
X85529228Y-117305080D01*
X85529228Y-116305080D01*
M02*
