M48
; DRILL file {KiCad (5.1.4-0-10_14)} date Wednesday, April 08, 2020 at 08:52:17 AM
; FORMAT={-:-/ absolute / inch / decimal}
; #@! TF.CreationDate,2020-04-08T08:52:17-07:00
; #@! TF.GenerationSoftware,Kicad,Pcbnew,(5.1.4-0-10_14)
; #@! TF.FileFunction,Plated,1,4,PTH
FMAT,2
INCH
T1C0.0157
T2C0.0315
T3C0.0354
T4C0.0394
%
G90
G05
T1
X-6.0545Y-3.222
X-6.0145Y-1.038
X-5.9065Y-3.087
X-5.82Y-2.6505
X-5.8125Y-3.1295
X-5.7335Y-2.215
X-5.733Y-1.7745
X-5.7215Y-2.668
X-5.663Y-3.1805
X-5.6335Y-2.243
X-5.633Y-1.8025
X-5.623Y-2.6895
X-5.6187Y-3.5917
X-5.5645Y-3.1545
X-5.5335Y-2.276
X-5.533Y-1.8355
X-5.5215Y-2.712
X-5.4605Y-3.567
X-5.4335Y-2.309
X-5.433Y-1.8685
X-5.4235Y-3.6405
X-5.42Y-2.7345
X-5.353Y-3.563
X-5.316Y-2.755
X-5.263Y-3.1015
X-5.2185Y-2.7775
X-5.2155Y-3.222
X-5.12Y-2.8045
X-5.0783Y-3.625
X-5.056Y-3.9605
X-5.046Y-2.058
X-4.9755Y-1.087
X-4.974Y-3.9465
X-4.9653Y-3.13
X-4.902Y-3.7065
X-4.87Y-3.244
X-4.8655Y-3.822
X-4.8283Y-3.8648
X-4.775Y-2.6515
X-4.684Y-1.7745
X-4.682Y-2.2155
X-4.6765Y-2.669
X-4.6658Y-3.8776
X-4.6633Y-3.3917
X-4.584Y-1.8025
X-4.582Y-2.2435
X-4.578Y-2.6905
X-4.484Y-1.8355
X-4.482Y-2.2765
X-4.4765Y-2.713
X-4.4173Y-3.7065
X-4.384Y-1.8685
X-4.382Y-2.3095
X-4.376Y-2.731
X-4.3113Y-3.5128
X-4.275Y-2.752
X-4.207Y-3.4007
X-4.1755Y-2.774
X-4.1157Y-3.8122
X-4.0745Y-2.796
X-4.0183Y-3.8408
X-4.014Y-3.545
X-4.0098Y-2.2903
X-4.001Y-2.637
X-3.9305Y-1.069
X-3.9235Y-3.8775
X-3.872Y-3.1729
X-3.869Y-2.2395
X-3.811Y-2.2775
X-3.73Y-2.6515
X-3.6975Y-3.874
X-3.6315Y-2.669
X-3.631Y-1.775
X-3.6295Y-2.211
X-3.533Y-2.6905
X-3.531Y-1.803
X-3.5295Y-2.2445
X-3.5255Y-3.9465
X-3.4315Y-2.713
X-3.431Y-1.836
X-3.4295Y-2.2775
X-3.4215Y-3.9085
X-3.3365Y-2.7405
X-3.331Y-1.869
X-3.3295Y-2.3105
X-3.2975Y-3.8425
X-3.2165Y-2.759
X-3.1605Y-3.5985
X-3.1215Y-2.7845
X-3.0335Y-2.815
X-2.93Y-1.803
X-2.9265Y-1.8575
X-2.907Y-3.5488
X-2.8895Y-1.057
X-2.832Y-3.188
X-2.685Y-2.6515
X-2.677Y-3.041
X-2.669Y-3.9205
X-2.5865Y-2.669
X-2.585Y-1.7755
X-2.582Y-2.22
X-2.488Y-2.6905
X-2.485Y-1.8035
X-2.482Y-2.248
X-2.3865Y-2.713
X-2.385Y-1.8365
X-2.382Y-2.281
X-2.285Y-1.8695
X-2.285Y-2.728
X-2.282Y-2.314
X-2.1835Y-2.747
X-2.0855Y-2.7695
X-2.0377Y-3.1672
X-1.9855Y-4.157
X-1.9845Y-2.796
T2
X-4.882Y-2.1315
X-4.882Y-2.4315
X-4.782Y-2.1315
X-4.782Y-2.4315
X-4.682Y-2.1315
X-4.682Y-2.4315
X-4.582Y-2.1315
X-4.582Y-2.4315
X-4.482Y-2.1315
X-4.482Y-2.4315
X-4.382Y-2.1315
X-4.382Y-2.4315
X-4.282Y-2.1315
X-4.282Y-2.4315
X-4.182Y-2.1315
X-4.182Y-2.4315
X-4.975Y-2.575
X-4.975Y-2.875
X-4.875Y-2.575
X-4.875Y-2.875
X-4.775Y-2.575
X-4.775Y-2.875
X-4.675Y-2.575
X-4.675Y-2.875
X-4.575Y-2.575
X-4.575Y-2.875
X-4.475Y-2.575
X-4.475Y-2.875
X-4.375Y-2.575
X-4.375Y-2.875
X-4.275Y-2.575
X-4.275Y-2.875
X-4.175Y-2.575
X-4.1882Y-1.4968
X-2.7472Y-3.3822
X-2.7472Y-3.7822
X-4.8882Y-1.4968
X-4.7882Y-1.4968
X-4.6882Y-1.4968
X-4.5882Y-1.4968
X-4.4882Y-1.4968
X-4.3882Y-1.4968
X-4.2882Y-1.4968
X-4.0882Y-1.4968
X-5.863Y-3.457
X-5.863Y-3.757
X-5.763Y-3.457
X-5.763Y-3.757
X-5.663Y-3.457
X-5.663Y-3.757
X-5.563Y-3.457
X-5.563Y-3.757
X-5.463Y-3.457
X-5.463Y-3.757
X-5.363Y-3.457
X-5.363Y-3.757
X-5.263Y-3.457
X-5.263Y-3.757
X-5.163Y-3.757
X-5.063Y-3.457
X-5.063Y-3.757
X-4.963Y-3.457
X-4.963Y-3.757
X-4.175Y-2.875
X-4.075Y-2.575
X-4.075Y-2.875
X-5.163Y-3.457
X-2.472Y-3.3822
X-2.472Y-3.7822
X-5.7278Y-1.1064
X-5.6278Y-1.1064
X-1.9605Y-1.8931
X-1.9605Y-1.9915
X-5.002Y-2.3426
X-5.002Y-2.441
X-3.655Y-3.465
X-3.655Y-3.765
X-3.555Y-3.465
X-3.555Y-3.765
X-3.455Y-3.465
X-3.455Y-3.765
X-3.355Y-3.465
X-3.355Y-3.765
X-3.255Y-3.465
X-4.0585Y-1.8911
X-2.903Y-2.3426
X-2.903Y-2.441
X-3.6812Y-2.9962
X-3.6812Y-3.0946
X-2.5956Y-1.1122
X-2.4956Y-1.1122
X-2.955Y-3.765
X-2.3956Y-1.1122
X-3.055Y-3.765
X-2.2956Y-1.1122
X-3.155Y-3.765
X-2.1956Y-1.1122
X-3.255Y-3.765
X-3.155Y-3.465
X-3.055Y-3.465
X-2.955Y-3.465
X-5.933Y-1.6905
X-5.933Y-1.9905
X-5.833Y-1.6905
X-5.833Y-1.9905
X-5.733Y-1.6905
X-5.333Y-1.6905
X-4.0585Y-1.9895
X-5.733Y-1.9905
X-5.433Y-1.6905
X-5.233Y-1.6905
X-5.3278Y-1.1064
X-5.533Y-1.6905
X-5.433Y-1.9905
X-4.061Y-2.3346
X-4.061Y-2.433
X-4.784Y-3.436
X-4.784Y-3.5344
X-5.5278Y-1.1064
X-5.4278Y-1.1064
X-5.633Y-1.6905
X-5.633Y-1.9905
X-5.533Y-1.9905
X-5.333Y-1.9905
X-5.233Y-1.9905
X-4.884Y-1.6905
X-3.3295Y-2.4335
X-3.7828Y-3.449
X-3.7828Y-3.5474
X-3.635Y-1.1134
X-3.535Y-1.1134
X-3.435Y-1.1134
X-3.335Y-1.1134
X-3.235Y-1.1134
X-3.8295Y-2.1335
X-3.8295Y-2.4335
X-4.184Y-1.6905
X-3.7295Y-2.1335
X-3.7295Y-2.4335
X-3.6295Y-2.1335
X-3.6295Y-2.4335
X-3.5295Y-2.1335
X-3.5295Y-2.4335
X-3.4295Y-2.1335
X-3.4295Y-2.4335
X-3.3295Y-2.1335
X-3.2295Y-2.1335
X-3.1295Y-2.1335
X-4.884Y-1.9905
X-4.184Y-1.9905
X-3.2295Y-2.4335
X-3.1295Y-2.4335
X-4.784Y-1.6905
X-4.784Y-1.9905
X-4.684Y-1.6905
X-4.684Y-1.9905
X-4.584Y-1.6905
X-4.584Y-1.9905
X-4.484Y-1.6905
X-4.484Y-1.9905
X-4.384Y-1.6905
X-4.384Y-1.9905
X-4.284Y-1.6905
X-4.284Y-1.9905
X-3.007Y-2.3386
X-3.007Y-2.437
X-3.93Y-2.575
X-2.607Y-3.3822
X-3.03Y-2.875
X-2.607Y-3.7822
X-4.46Y-3.0182
X-4.46Y-3.3182
X-3.23Y-2.875
X-4.36Y-3.0182
X-4.36Y-3.3182
X-4.26Y-3.0182
X-4.26Y-3.3182
X-4.16Y-3.0182
X-4.16Y-3.3182
X-4.06Y-3.0182
X-4.06Y-3.3182
X-3.96Y-3.0182
X-3.96Y-3.3182
X-3.93Y-2.875
X-3.83Y-2.575
X-3.83Y-2.875
X-3.73Y-2.575
X-3.73Y-2.875
X-3.63Y-2.575
X-3.63Y-2.875
X-3.53Y-2.575
X-3.53Y-2.875
X-3.43Y-2.575
X-3.43Y-2.875
X-3.33Y-2.575
X-3.33Y-2.875
X-3.23Y-2.575
X-3.13Y-2.575
X-3.13Y-2.875
X-3.03Y-2.575
X-4.6828Y-1.1074
X-4.5828Y-1.1074
X-4.4828Y-1.1074
X-4.3828Y-1.1074
X-3.86Y-3.3182
X-3.86Y-3.0182
X-2.885Y-2.575
X-2.885Y-2.875
X-2.785Y-2.575
X-2.785Y-2.875
X-2.685Y-2.575
X-2.685Y-2.875
X-2.585Y-2.575
X-2.585Y-2.875
X-2.485Y-2.575
X-2.485Y-2.875
X-2.385Y-2.575
X-2.385Y-2.875
X-2.285Y-2.575
X-2.285Y-2.875
X-2.185Y-2.575
X-2.185Y-2.875
X-2.085Y-2.575
X-2.085Y-2.875
X-1.985Y-2.575
X-5.1155Y-1.8931
X-5.1155Y-1.9915
X-4.2828Y-1.1074
X-1.985Y-2.875
X-3.0075Y-1.8911
X-3.0075Y-1.9895
X-5.1115Y-2.3386
X-5.1115Y-2.437
X-2.7845Y-1.69
X-2.7845Y-1.99
X-2.6845Y-1.69
X-2.6845Y-1.99
X-2.5845Y-1.69
X-2.5845Y-1.99
X-2.4845Y-1.69
X-2.4845Y-1.99
X-5.5606Y-3.3172
X-3.5578Y-3.0144
X-3.5578Y-3.3144
X-3.4578Y-3.0144
X-3.4578Y-3.3144
X-3.3578Y-3.0144
X-2.2845Y-1.69
X-3.3578Y-3.3144
X-3.2578Y-3.0144
X-3.2578Y-3.3144
X-3.1578Y-3.0144
X-3.1578Y-3.3144
X-3.0578Y-3.0144
X-3.0578Y-3.3144
X-2.9578Y-3.0144
X-2.1845Y-1.99
X-2.0845Y-1.99
X-3.953Y-2.3346
X-3.953Y-2.433
X-2.082Y-2.4335
X-1.962Y-2.3366
X-2.2845Y-1.99
X-2.1845Y-1.69
X-2.0845Y-1.69
X-6.051Y-2.3526
X-6.051Y-2.451
X-2.9578Y-3.3144
X-2.3845Y-1.99
X-1.962Y-2.435
X-2.3845Y-1.69
X-2.782Y-2.1335
X-2.782Y-2.4335
X-2.682Y-2.1335
X-2.682Y-2.4335
X-2.582Y-2.1335
X-2.582Y-2.4335
X-2.482Y-2.1335
X-2.482Y-2.4335
X-2.382Y-2.1335
X-2.382Y-2.4335
X-2.282Y-2.1335
X-2.282Y-2.4335
X-2.182Y-2.1335
X-2.182Y-2.4335
X-2.082Y-2.1335
X-4.5838Y-3.0016
X-2.7932Y-1.4956
X-2.6932Y-1.4956
X-2.5932Y-1.4956
X-2.4932Y-1.4956
X-2.3932Y-1.4956
X-2.2932Y-1.4956
X-2.1932Y-1.4956
X-3.7386Y-1.499
X-4.667Y-3.461
X-4.667Y-3.761
X-4.567Y-3.461
X-4.567Y-3.761
X-4.467Y-3.461
X-4.467Y-3.761
X-4.367Y-3.461
X-4.367Y-3.761
X-4.267Y-3.461
X-4.267Y-3.761
X-4.167Y-3.461
X-4.167Y-3.761
X-4.067Y-3.461
X-4.067Y-3.761
X-3.967Y-3.461
X-3.967Y-3.761
X-5.8606Y-3.0172
X-5.8606Y-3.3172
X-5.7606Y-3.0172
X-5.7606Y-3.3172
X-5.6606Y-3.0172
X-5.6606Y-3.3172
X-5.5606Y-3.0172
X-5.4606Y-3.0172
X-5.4606Y-3.3172
X-5.3606Y-3.0172
X-5.3606Y-3.3172
X-5.2606Y-3.0172
X-5.2606Y-3.3172
X-5.1606Y-3.0172
X-5.9804Y-2.9996
X-5.9804Y-3.098
X-5.1606Y-3.3172
X-5.0606Y-3.0172
X-5.0606Y-3.3172
X-4.9606Y-3.0172
X-4.9606Y-3.3172
X-4.8606Y-3.0172
X-4.8606Y-3.3172
X-4.7606Y-3.0172
X-4.7606Y-3.3172
X-4.5838Y-3.1
X-2.3334Y-3.3826
X-2.3334Y-3.7826
X-5.9358Y-1.4992
X-5.8358Y-1.4992
X-5.7358Y-1.4992
X-5.6358Y-1.4992
X-5.5358Y-1.4992
X-5.4358Y-1.4992
X-5.3358Y-1.4992
X-5.2358Y-1.4992
X-5.1358Y-1.4992
X-3.8386Y-1.499
X-3.6386Y-1.499
X-2.0932Y-1.4956
X-1.9932Y-1.4956
X-5.9335Y-2.1335
X-5.9335Y-2.4335
X-5.8335Y-2.1335
X-5.8335Y-2.4335
X-5.7335Y-2.1335
X-5.7335Y-2.4335
X-5.6335Y-2.1335
X-5.6335Y-2.4335
X-5.5335Y-2.1335
X-5.5335Y-2.4335
X-5.4335Y-2.1335
X-5.4335Y-2.4335
X-5.3335Y-2.1335
X-5.3335Y-2.4335
X-5.2335Y-2.1335
X-5.2335Y-2.4335
X-6.02Y-2.575
X-6.02Y-2.875
X-5.92Y-2.575
X-5.92Y-2.875
X-5.82Y-2.575
X-5.82Y-2.875
X-3.5386Y-1.499
X-3.4386Y-1.499
X-3.3386Y-1.499
X-3.2386Y-1.499
X-3.1386Y-1.499
X-3.0386Y-1.499
X-5.989Y-3.445
X-5.989Y-3.5434
X-3.831Y-1.688
X-3.831Y-1.988
X-3.731Y-1.688
X-3.731Y-1.988
X-3.631Y-1.688
X-3.631Y-1.988
X-3.531Y-1.688
X-3.531Y-1.988
X-3.431Y-1.688
X-3.431Y-1.988
X-3.331Y-1.688
X-3.131Y-1.688
X-5.72Y-2.575
X-5.42Y-2.875
X-5.32Y-2.875
X-5.22Y-2.575
X-5.22Y-2.875
X-3.231Y-1.688
X-5.32Y-2.575
X-5.12Y-2.575
X-5.12Y-2.875
X-3.331Y-1.988
X-5.72Y-2.875
X-3.231Y-1.988
X-5.62Y-2.575
X-5.42Y-2.575
X-3.131Y-1.988
X-5.62Y-2.875
X-5.52Y-2.575
X-5.52Y-2.875
T3
X-2.69Y-1.259
X-2.69Y-1.359
X-5.239Y-1.258
X-5.239Y-1.358
X-4.669Y-1.259
X-5.476Y-1.258
X-4.669Y-1.359
X-5.476Y-1.358
X-2.607Y-0.875
X-2.607Y-0.975
X-2.3334Y-3.1472
X-3.259Y-1.256
X-3.259Y-1.356
X-5.314Y-0.965
X-2.3334Y-3.2472
X-5.314Y-0.865
X-4.311Y-1.259
X-2.215Y-1.259
X-2.215Y-1.359
X-4.696Y-0.962
X-5.604Y-0.865
X-5.604Y-0.965
X-2.334Y-1.259
X-2.334Y-1.359
X-3.616Y-1.256
X-3.616Y-1.356
X-4.696Y-0.862
X-4.56Y-0.962
X-2.572Y-1.259
X-2.572Y-1.359
X-4.56Y-0.862
X-2.471Y-0.875
X-2.471Y-0.975
X-3.141Y-1.256
X-3.141Y-1.356
X-4.904Y-1.259
X-4.904Y-1.359
X-4.311Y-1.359
X-2.808Y-1.259
X-5.95Y-1.258
X-5.95Y-1.358
X-3.225Y-0.875
X-3.225Y-0.975
X-2.7408Y-3.146
X-2.7408Y-3.246
X-2.6044Y-3.1486
X-2.6044Y-3.2486
X-2.4706Y-3.1486
X-2.4706Y-3.2486
X-1.978Y-1.259
X-1.978Y-1.359
X-4.075Y-1.259
X-4.075Y-1.359
X-3.378Y-1.256
X-3.378Y-1.356
X-3.734Y-1.256
X-3.734Y-1.356
X-5.596Y-1.258
X-5.596Y-1.358
X-5.715Y-1.258
X-5.715Y-1.358
X-2.097Y-1.259
X-2.097Y-1.359
X-3.852Y-1.256
X-3.653Y-0.975
X-2.808Y-1.359
X-4.55Y-1.359
X-3.653Y-0.875
X-4.55Y-1.259
X-4.786Y-1.259
X-4.786Y-1.359
X-2.453Y-1.359
X-3.497Y-1.256
X-2.453Y-1.259
X-5.832Y-1.258
X-5.832Y-1.358
X-4.193Y-1.259
X-4.193Y-1.359
X-3.852Y-1.356
X-3.497Y-1.356
X-4.43Y-1.259
X-4.43Y-1.359
X-3.023Y-1.356
X-3.516Y-0.875
X-3.516Y-0.975
X-3.023Y-1.256
X-5.74Y-0.865
X-5.74Y-0.965
X-2.179Y-0.975
X-5.357Y-1.258
X-5.357Y-1.358
X-5.121Y-1.258
X-5.121Y-1.358
X-4.269Y-0.862
X-4.269Y-0.962
X-2.179Y-0.875
T4
X-2.14Y-3.7475
X-2.04Y-3.7475
X-1.94Y-3.7475
X-5.817Y-4.0664
X-5.717Y-4.0664
X-5.617Y-4.0664
X-5.517Y-4.0664
X-5.417Y-4.0664
X-5.317Y-4.0664
X-5.217Y-4.0664
X-5.117Y-4.0664
X-5.017Y-4.0664
X-4.917Y-4.0664
X-4.817Y-4.0664
X-4.717Y-4.0664
X-4.617Y-4.0664
X-4.517Y-4.0664
X-4.417Y-4.0664
X-4.317Y-4.0664
X-4.217Y-4.0664
X-4.117Y-4.0664
X-4.017Y-4.0664
X-3.917Y-4.0664
X-3.817Y-4.0664
X-3.717Y-4.0664
X-3.617Y-4.0664
X-3.517Y-4.0664
X-3.417Y-4.0664
X-3.317Y-4.0664
X-3.217Y-4.0664
X-3.117Y-4.0664
X-3.017Y-4.0664
X-2.917Y-4.0664
X-2.817Y-4.0664
X-2.717Y-4.0664
X-2.617Y-4.0664
X-2.517Y-4.0664
X-2.317Y-4.0664
X-2.217Y-4.0664
X-2.117Y-4.0664
X-2.14Y-3.5235
X-2.04Y-3.5235
X-1.94Y-3.5235
X-2.417Y-4.0664
T0
M30
