G04 #@! TF.GenerationSoftware,KiCad,Pcbnew,(5.1.4-0-10_14)*
G04 #@! TF.CreationDate,2020-02-04T19:49:50-08:00*
G04 #@! TF.ProjectId,address-register-bank,61646472-6573-4732-9d72-656769737465,rev?*
G04 #@! TF.SameCoordinates,Original*
G04 #@! TF.FileFunction,Legend,Top*
G04 #@! TF.FilePolarity,Positive*
%FSLAX46Y46*%
G04 Gerber Fmt 4.6, Leading zero omitted, Abs format (unit mm)*
G04 Created by KiCad (PCBNEW (5.1.4-0-10_14)) date 2020-02-04 19:49:50*
%MOMM*%
%LPD*%
G04 APERTURE LIST*
%ADD10C,0.150000*%
%ADD11C,0.120000*%
G04 APERTURE END LIST*
D10*
X-50593619Y-92416380D02*
X-50498380Y-92416380D01*
X-50403142Y-92464000D01*
X-50355523Y-92511619D01*
X-50307904Y-92606857D01*
X-50260285Y-92797333D01*
X-50260285Y-93035428D01*
X-50307904Y-93225904D01*
X-50355523Y-93321142D01*
X-50403142Y-93368761D01*
X-50498380Y-93416380D01*
X-50593619Y-93416380D01*
X-50688857Y-93368761D01*
X-50736476Y-93321142D01*
X-50784095Y-93225904D01*
X-50831714Y-93035428D01*
X-50831714Y-92797333D01*
X-50784095Y-92606857D01*
X-50736476Y-92511619D01*
X-50688857Y-92464000D01*
X-50593619Y-92416380D01*
X-55467285Y-93416380D02*
X-56038714Y-93416380D01*
X-55753000Y-93416380D02*
X-55753000Y-92416380D01*
X-55848238Y-92559238D01*
X-55943476Y-92654476D01*
X-56038714Y-92702095D01*
X-137129259Y-100448026D02*
X-137605449Y-100781360D01*
X-137129259Y-101019455D02*
X-138129259Y-101019455D01*
X-138129259Y-100638502D01*
X-138081640Y-100543264D01*
X-138034020Y-100495645D01*
X-137938782Y-100448026D01*
X-137795925Y-100448026D01*
X-137700687Y-100495645D01*
X-137653068Y-100543264D01*
X-137605449Y-100638502D01*
X-137605449Y-101019455D01*
X-137653068Y-99686121D02*
X-137605449Y-99543264D01*
X-137557830Y-99495645D01*
X-137462592Y-99448026D01*
X-137319735Y-99448026D01*
X-137224497Y-99495645D01*
X-137176878Y-99543264D01*
X-137129259Y-99638502D01*
X-137129259Y-100019455D01*
X-138129259Y-100019455D01*
X-138129259Y-99686121D01*
X-138081640Y-99590883D01*
X-138034020Y-99543264D01*
X-137938782Y-99495645D01*
X-137843544Y-99495645D01*
X-137748306Y-99543264D01*
X-137700687Y-99590883D01*
X-137653068Y-99686121D01*
X-137653068Y-100019455D01*
X-138129259Y-99114693D02*
X-138129259Y-98495645D01*
X-137748306Y-98828979D01*
X-137748306Y-98686121D01*
X-137700687Y-98590883D01*
X-137653068Y-98543264D01*
X-137557830Y-98495645D01*
X-137319735Y-98495645D01*
X-137224497Y-98543264D01*
X-137176878Y-98590883D01*
X-137129259Y-98686121D01*
X-137129259Y-98971836D01*
X-137176878Y-99067074D01*
X-137224497Y-99114693D01*
X-109459733Y-100927445D02*
X-109459733Y-100451255D01*
X-109174019Y-101022683D02*
X-110174019Y-100689350D01*
X-109174019Y-100356017D01*
X-110174019Y-99832207D02*
X-110174019Y-99736969D01*
X-110126400Y-99641731D01*
X-110078780Y-99594112D01*
X-109983542Y-99546493D01*
X-109793066Y-99498874D01*
X-109554971Y-99498874D01*
X-109364495Y-99546493D01*
X-109269257Y-99594112D01*
X-109221638Y-99641731D01*
X-109174019Y-99736969D01*
X-109174019Y-99832207D01*
X-109221638Y-99927445D01*
X-109269257Y-99975064D01*
X-109364495Y-100022683D01*
X-109554971Y-100070302D01*
X-109793066Y-100070302D01*
X-109983542Y-100022683D01*
X-110078780Y-99975064D01*
X-110126400Y-99927445D01*
X-110174019Y-99832207D01*
X-107515280Y-100634704D02*
X-107562899Y-100729942D01*
X-107562899Y-100872800D01*
X-107515280Y-101015657D01*
X-107420041Y-101110895D01*
X-107324803Y-101158514D01*
X-107134327Y-101206133D01*
X-106991470Y-101206133D01*
X-106800994Y-101158514D01*
X-106705756Y-101110895D01*
X-106610518Y-101015657D01*
X-106562899Y-100872800D01*
X-106562899Y-100777561D01*
X-106610518Y-100634704D01*
X-106658137Y-100587085D01*
X-106991470Y-100587085D01*
X-106991470Y-100777561D01*
X-106562899Y-100158514D02*
X-107562899Y-100158514D01*
X-106562899Y-99587085D01*
X-107562899Y-99587085D01*
X-106562899Y-99110895D02*
X-107562899Y-99110895D01*
X-107562899Y-98872800D01*
X-107515280Y-98729942D01*
X-107420041Y-98634704D01*
X-107324803Y-98587085D01*
X-107134327Y-98539466D01*
X-106991470Y-98539466D01*
X-106800994Y-98587085D01*
X-106705756Y-98634704D01*
X-106610518Y-98729942D01*
X-106562899Y-98872800D01*
X-106562899Y-99110895D01*
X-100366160Y-101331542D02*
X-100366160Y-100331542D01*
X-98998779Y-100522019D02*
X-99474969Y-100855352D01*
X-98998779Y-101093447D02*
X-99998779Y-101093447D01*
X-99998779Y-100712495D01*
X-99951160Y-100617257D01*
X-99903540Y-100569638D01*
X-99808302Y-100522019D01*
X-99665445Y-100522019D01*
X-99570207Y-100569638D01*
X-99522588Y-100617257D01*
X-99474969Y-100712495D01*
X-99474969Y-101093447D01*
X-100366160Y-100331542D02*
X-100366160Y-99379161D01*
X-99046398Y-100141066D02*
X-98998779Y-99998209D01*
X-98998779Y-99760114D01*
X-99046398Y-99664876D01*
X-99094017Y-99617257D01*
X-99189255Y-99569638D01*
X-99284493Y-99569638D01*
X-99379731Y-99617257D01*
X-99427350Y-99664876D01*
X-99474969Y-99760114D01*
X-99522588Y-99950590D01*
X-99570207Y-100045828D01*
X-99617826Y-100093447D01*
X-99713064Y-100141066D01*
X-99808302Y-100141066D01*
X-99903540Y-100093447D01*
X-99951160Y-100045828D01*
X-99998779Y-99950590D01*
X-99998779Y-99712495D01*
X-99951160Y-99569638D01*
X-100366160Y-99379161D02*
X-100366160Y-98617257D01*
X-99998779Y-99283923D02*
X-99998779Y-98712495D01*
X-98998779Y-98998209D02*
X-99998779Y-98998209D01*
X-104977179Y-101155333D02*
X-103977179Y-100822000D01*
X-104977179Y-100488666D01*
X-104072417Y-99583904D02*
X-104024798Y-99631523D01*
X-103977179Y-99774380D01*
X-103977179Y-99869619D01*
X-104024798Y-100012476D01*
X-104120036Y-100107714D01*
X-104215274Y-100155333D01*
X-104405750Y-100202952D01*
X-104548607Y-100202952D01*
X-104739083Y-100155333D01*
X-104834321Y-100107714D01*
X-104929560Y-100012476D01*
X-104977179Y-99869619D01*
X-104977179Y-99774380D01*
X-104929560Y-99631523D01*
X-104881940Y-99583904D01*
X-104072417Y-98583904D02*
X-104024798Y-98631523D01*
X-103977179Y-98774380D01*
X-103977179Y-98869619D01*
X-104024798Y-99012476D01*
X-104120036Y-99107714D01*
X-104215274Y-99155333D01*
X-104405750Y-99202952D01*
X-104548607Y-99202952D01*
X-104739083Y-99155333D01*
X-104834321Y-99107714D01*
X-104929560Y-99012476D01*
X-104977179Y-98869619D01*
X-104977179Y-98774380D01*
X-104929560Y-98631523D01*
X-104881940Y-98583904D01*
X-147289259Y-100346118D02*
X-147765449Y-100679451D01*
X-147289259Y-100917546D02*
X-148289259Y-100917546D01*
X-148289259Y-100536594D01*
X-148241640Y-100441356D01*
X-148194020Y-100393737D01*
X-148098782Y-100346118D01*
X-147955925Y-100346118D01*
X-147860687Y-100393737D01*
X-147813068Y-100441356D01*
X-147765449Y-100536594D01*
X-147765449Y-100917546D01*
X-147574973Y-99965165D02*
X-147574973Y-99488975D01*
X-147289259Y-100060403D02*
X-148289259Y-99727070D01*
X-147289259Y-99393737D01*
X-148289259Y-99155641D02*
X-148289259Y-98536594D01*
X-147908306Y-98869927D01*
X-147908306Y-98727070D01*
X-147860687Y-98631832D01*
X-147813068Y-98584213D01*
X-147717830Y-98536594D01*
X-147479735Y-98536594D01*
X-147384497Y-98584213D01*
X-147336878Y-98631832D01*
X-147289259Y-98727070D01*
X-147289259Y-99012784D01*
X-147336878Y-99108022D01*
X-147384497Y-99155641D01*
X-127148293Y-100993485D02*
X-127148293Y-100517295D01*
X-126862579Y-101088723D02*
X-127862579Y-100755390D01*
X-126862579Y-100422057D01*
X-127862579Y-100183961D02*
X-127862579Y-99517295D01*
X-126862579Y-99945866D01*
X-134619739Y-100448026D02*
X-135095929Y-100781360D01*
X-134619739Y-101019455D02*
X-135619739Y-101019455D01*
X-135619739Y-100638502D01*
X-135572120Y-100543264D01*
X-135524500Y-100495645D01*
X-135429262Y-100448026D01*
X-135286405Y-100448026D01*
X-135191167Y-100495645D01*
X-135143548Y-100543264D01*
X-135095929Y-100638502D01*
X-135095929Y-101019455D01*
X-135143548Y-99686121D02*
X-135095929Y-99543264D01*
X-135048310Y-99495645D01*
X-134953072Y-99448026D01*
X-134810215Y-99448026D01*
X-134714977Y-99495645D01*
X-134667358Y-99543264D01*
X-134619739Y-99638502D01*
X-134619739Y-100019455D01*
X-135619739Y-100019455D01*
X-135619739Y-99686121D01*
X-135572120Y-99590883D01*
X-135524500Y-99543264D01*
X-135429262Y-99495645D01*
X-135334024Y-99495645D01*
X-135238786Y-99543264D01*
X-135191167Y-99590883D01*
X-135143548Y-99686121D01*
X-135143548Y-100019455D01*
X-135524500Y-99067074D02*
X-135572120Y-99019455D01*
X-135619739Y-98924217D01*
X-135619739Y-98686121D01*
X-135572120Y-98590883D01*
X-135524500Y-98543264D01*
X-135429262Y-98495645D01*
X-135334024Y-98495645D01*
X-135191167Y-98543264D01*
X-134619739Y-99114693D01*
X-134619739Y-98495645D01*
X-132018779Y-100448026D02*
X-132494969Y-100781360D01*
X-132018779Y-101019455D02*
X-133018779Y-101019455D01*
X-133018779Y-100638502D01*
X-132971160Y-100543264D01*
X-132923540Y-100495645D01*
X-132828302Y-100448026D01*
X-132685445Y-100448026D01*
X-132590207Y-100495645D01*
X-132542588Y-100543264D01*
X-132494969Y-100638502D01*
X-132494969Y-101019455D01*
X-132542588Y-99686121D02*
X-132494969Y-99543264D01*
X-132447350Y-99495645D01*
X-132352112Y-99448026D01*
X-132209255Y-99448026D01*
X-132114017Y-99495645D01*
X-132066398Y-99543264D01*
X-132018779Y-99638502D01*
X-132018779Y-100019455D01*
X-133018779Y-100019455D01*
X-133018779Y-99686121D01*
X-132971160Y-99590883D01*
X-132923540Y-99543264D01*
X-132828302Y-99495645D01*
X-132733064Y-99495645D01*
X-132637826Y-99543264D01*
X-132590207Y-99590883D01*
X-132542588Y-99686121D01*
X-132542588Y-100019455D01*
X-132018779Y-98495645D02*
X-132018779Y-99067074D01*
X-132018779Y-98781360D02*
X-133018779Y-98781360D01*
X-132875921Y-98876598D01*
X-132780683Y-98971836D01*
X-132733064Y-99067074D01*
X-129448299Y-100417546D02*
X-129924489Y-100750880D01*
X-129448299Y-100988975D02*
X-130448299Y-100988975D01*
X-130448299Y-100608022D01*
X-130400680Y-100512784D01*
X-130353060Y-100465165D01*
X-130257822Y-100417546D01*
X-130114965Y-100417546D01*
X-130019727Y-100465165D01*
X-129972108Y-100512784D01*
X-129924489Y-100608022D01*
X-129924489Y-100988975D01*
X-129972108Y-99655641D02*
X-129924489Y-99512784D01*
X-129876870Y-99465165D01*
X-129781632Y-99417546D01*
X-129638775Y-99417546D01*
X-129543537Y-99465165D01*
X-129495918Y-99512784D01*
X-129448299Y-99608022D01*
X-129448299Y-99988975D01*
X-130448299Y-99988975D01*
X-130448299Y-99655641D01*
X-130400680Y-99560403D01*
X-130353060Y-99512784D01*
X-130257822Y-99465165D01*
X-130162584Y-99465165D01*
X-130067346Y-99512784D01*
X-130019727Y-99560403D01*
X-129972108Y-99655641D01*
X-129972108Y-99988975D01*
X-130448299Y-98798499D02*
X-130448299Y-98703260D01*
X-130400680Y-98608022D01*
X-130353060Y-98560403D01*
X-130257822Y-98512784D01*
X-130067346Y-98465165D01*
X-129829251Y-98465165D01*
X-129638775Y-98512784D01*
X-129543537Y-98560403D01*
X-129495918Y-98608022D01*
X-129448299Y-98703260D01*
X-129448299Y-98798499D01*
X-129495918Y-98893737D01*
X-129543537Y-98941356D01*
X-129638775Y-98988975D01*
X-129829251Y-99036594D01*
X-130067346Y-99036594D01*
X-130257822Y-98988975D01*
X-130353060Y-98941356D01*
X-130400680Y-98893737D01*
X-130448299Y-98798499D01*
X-124618453Y-100957925D02*
X-124618453Y-100481735D01*
X-124332739Y-101053163D02*
X-125332739Y-100719830D01*
X-124332739Y-100386497D01*
X-125332739Y-99624592D02*
X-125332739Y-99815068D01*
X-125285120Y-99910306D01*
X-125237500Y-99957925D01*
X-125094643Y-100053163D01*
X-124904167Y-100100782D01*
X-124523215Y-100100782D01*
X-124427977Y-100053163D01*
X-124380358Y-100005544D01*
X-124332739Y-99910306D01*
X-124332739Y-99719830D01*
X-124380358Y-99624592D01*
X-124427977Y-99576973D01*
X-124523215Y-99529354D01*
X-124761310Y-99529354D01*
X-124856548Y-99576973D01*
X-124904167Y-99624592D01*
X-124951786Y-99719830D01*
X-124951786Y-99910306D01*
X-124904167Y-100005544D01*
X-124856548Y-100053163D01*
X-124761310Y-100100782D01*
X-139669259Y-100376598D02*
X-140145449Y-100709931D01*
X-139669259Y-100948026D02*
X-140669259Y-100948026D01*
X-140669259Y-100567074D01*
X-140621640Y-100471836D01*
X-140574020Y-100424217D01*
X-140478782Y-100376598D01*
X-140335925Y-100376598D01*
X-140240687Y-100424217D01*
X-140193068Y-100471836D01*
X-140145449Y-100567074D01*
X-140145449Y-100948026D01*
X-139954973Y-99995645D02*
X-139954973Y-99519455D01*
X-139669259Y-100090883D02*
X-140669259Y-99757550D01*
X-139669259Y-99424217D01*
X-140669259Y-98900407D02*
X-140669259Y-98805169D01*
X-140621640Y-98709931D01*
X-140574020Y-98662312D01*
X-140478782Y-98614693D01*
X-140288306Y-98567074D01*
X-140050211Y-98567074D01*
X-139859735Y-98614693D01*
X-139764497Y-98662312D01*
X-139716878Y-98709931D01*
X-139669259Y-98805169D01*
X-139669259Y-98900407D01*
X-139716878Y-98995645D01*
X-139764497Y-99043264D01*
X-139859735Y-99090883D01*
X-140050211Y-99138502D01*
X-140288306Y-99138502D01*
X-140478782Y-99090883D01*
X-140574020Y-99043264D01*
X-140621640Y-98995645D01*
X-140669259Y-98900407D01*
X-114473693Y-100927445D02*
X-114473693Y-100451255D01*
X-114187979Y-101022683D02*
X-115187979Y-100689350D01*
X-114187979Y-100356017D01*
X-115092740Y-100070302D02*
X-115140360Y-100022683D01*
X-115187979Y-99927445D01*
X-115187979Y-99689350D01*
X-115140360Y-99594112D01*
X-115092740Y-99546493D01*
X-114997502Y-99498874D01*
X-114902264Y-99498874D01*
X-114759407Y-99546493D01*
X-114187979Y-100117921D01*
X-114187979Y-99498874D01*
X-111964173Y-100957925D02*
X-111964173Y-100481735D01*
X-111678459Y-101053163D02*
X-112678459Y-100719830D01*
X-111678459Y-100386497D01*
X-111678459Y-99529354D02*
X-111678459Y-100100782D01*
X-111678459Y-99815068D02*
X-112678459Y-99815068D01*
X-112535601Y-99910306D01*
X-112440363Y-100005544D01*
X-112392744Y-100100782D01*
X-142173699Y-100346118D02*
X-142649889Y-100679451D01*
X-142173699Y-100917546D02*
X-143173699Y-100917546D01*
X-143173699Y-100536594D01*
X-143126080Y-100441356D01*
X-143078460Y-100393737D01*
X-142983222Y-100346118D01*
X-142840365Y-100346118D01*
X-142745127Y-100393737D01*
X-142697508Y-100441356D01*
X-142649889Y-100536594D01*
X-142649889Y-100917546D01*
X-142459413Y-99965165D02*
X-142459413Y-99488975D01*
X-142173699Y-100060403D02*
X-143173699Y-99727070D01*
X-142173699Y-99393737D01*
X-142173699Y-98536594D02*
X-142173699Y-99108022D01*
X-142173699Y-98822308D02*
X-143173699Y-98822308D01*
X-143030841Y-98917546D01*
X-142935603Y-99012784D01*
X-142887984Y-99108022D01*
X-92256859Y-101059834D02*
X-91447335Y-101059834D01*
X-91352097Y-101012215D01*
X-91304478Y-100964596D01*
X-91256859Y-100869358D01*
X-91256859Y-100678881D01*
X-91304478Y-100583643D01*
X-91352097Y-100536024D01*
X-91447335Y-100488405D01*
X-92256859Y-100488405D01*
X-92624240Y-100250310D02*
X-92624240Y-99250310D01*
X-91256859Y-100012215D02*
X-92256859Y-100012215D01*
X-92256859Y-99774120D01*
X-92209240Y-99631262D01*
X-92114001Y-99536024D01*
X-92018763Y-99488405D01*
X-91828287Y-99440786D01*
X-91685430Y-99440786D01*
X-91494954Y-99488405D01*
X-91399716Y-99536024D01*
X-91304478Y-99631262D01*
X-91256859Y-99774120D01*
X-91256859Y-100012215D01*
X-96508297Y-100569638D02*
X-96460678Y-100617257D01*
X-96413059Y-100760114D01*
X-96413059Y-100855352D01*
X-96460678Y-100998209D01*
X-96555916Y-101093447D01*
X-96651154Y-101141066D01*
X-96841630Y-101188685D01*
X-96984487Y-101188685D01*
X-97174963Y-101141066D01*
X-97270201Y-101093447D01*
X-97365440Y-100998209D01*
X-97413059Y-100855352D01*
X-97413059Y-100760114D01*
X-97365440Y-100617257D01*
X-97317820Y-100569638D01*
X-96413059Y-99664876D02*
X-96413059Y-100141066D01*
X-97413059Y-100141066D01*
X-96413059Y-99331542D02*
X-97413059Y-99331542D01*
X-96413059Y-98760114D02*
X-96984487Y-99188685D01*
X-97413059Y-98760114D02*
X-96841630Y-99331542D01*
X-117013693Y-100957925D02*
X-117013693Y-100481735D01*
X-116727979Y-101053163D02*
X-117727979Y-100719830D01*
X-116727979Y-100386497D01*
X-117727979Y-100148401D02*
X-117727979Y-99529354D01*
X-117347026Y-99862687D01*
X-117347026Y-99719830D01*
X-117299407Y-99624592D01*
X-117251788Y-99576973D01*
X-117156550Y-99529354D01*
X-116918455Y-99529354D01*
X-116823217Y-99576973D01*
X-116775598Y-99624592D01*
X-116727979Y-99719830D01*
X-116727979Y-100005544D01*
X-116775598Y-100100782D01*
X-116823217Y-100148401D01*
X-144749259Y-100346118D02*
X-145225449Y-100679451D01*
X-144749259Y-100917546D02*
X-145749259Y-100917546D01*
X-145749259Y-100536594D01*
X-145701640Y-100441356D01*
X-145654020Y-100393737D01*
X-145558782Y-100346118D01*
X-145415925Y-100346118D01*
X-145320687Y-100393737D01*
X-145273068Y-100441356D01*
X-145225449Y-100536594D01*
X-145225449Y-100917546D01*
X-145034973Y-99965165D02*
X-145034973Y-99488975D01*
X-144749259Y-100060403D02*
X-145749259Y-99727070D01*
X-144749259Y-99393737D01*
X-145654020Y-99108022D02*
X-145701640Y-99060403D01*
X-145749259Y-98965165D01*
X-145749259Y-98727070D01*
X-145701640Y-98631832D01*
X-145654020Y-98584213D01*
X-145558782Y-98536594D01*
X-145463544Y-98536594D01*
X-145320687Y-98584213D01*
X-144749259Y-99155641D01*
X-144749259Y-98536594D01*
X-95164240Y-101226500D02*
X-95164240Y-100226500D01*
X-93892097Y-100416977D02*
X-93844478Y-100464596D01*
X-93796859Y-100607453D01*
X-93796859Y-100702691D01*
X-93844478Y-100845548D01*
X-93939716Y-100940786D01*
X-94034954Y-100988405D01*
X-94225430Y-101036024D01*
X-94368287Y-101036024D01*
X-94558763Y-100988405D01*
X-94654001Y-100940786D01*
X-94749240Y-100845548D01*
X-94796859Y-100702691D01*
X-94796859Y-100607453D01*
X-94749240Y-100464596D01*
X-94701620Y-100416977D01*
X-95164240Y-100226500D02*
X-95164240Y-99321739D01*
X-94320668Y-99988405D02*
X-94320668Y-99655072D01*
X-93796859Y-99512215D02*
X-93796859Y-99988405D01*
X-94796859Y-99988405D01*
X-94796859Y-99512215D01*
X-87681400Y-101328361D02*
X-87681400Y-100471219D01*
X-86599733Y-101137885D02*
X-86599733Y-100661695D01*
X-86314019Y-101233123D02*
X-87314019Y-100899790D01*
X-86314019Y-100566457D01*
X-87681400Y-100471219D02*
X-87681400Y-99423600D01*
X-87314019Y-100042647D02*
X-87314019Y-99852171D01*
X-87266400Y-99756933D01*
X-87171161Y-99661695D01*
X-86980685Y-99614076D01*
X-86647352Y-99614076D01*
X-86456876Y-99661695D01*
X-86361638Y-99756933D01*
X-86314019Y-99852171D01*
X-86314019Y-100042647D01*
X-86361638Y-100137885D01*
X-86456876Y-100233123D01*
X-86647352Y-100280742D01*
X-86980685Y-100280742D01*
X-87171161Y-100233123D01*
X-87266400Y-100137885D01*
X-87314019Y-100042647D01*
X-87681400Y-99423600D02*
X-87681400Y-98518838D01*
X-86837828Y-99185504D02*
X-86837828Y-98852171D01*
X-86314019Y-98709314D02*
X-86314019Y-99185504D01*
X-87314019Y-99185504D01*
X-87314019Y-98709314D01*
X-119619733Y-100957925D02*
X-119619733Y-100481735D01*
X-119334019Y-101053163D02*
X-120334019Y-100719830D01*
X-119334019Y-100386497D01*
X-120000685Y-99624592D02*
X-119334019Y-99624592D01*
X-120381638Y-99862687D02*
X-119667352Y-100100782D01*
X-119667352Y-99481735D01*
X-122144493Y-100927445D02*
X-122144493Y-100451255D01*
X-121858779Y-101022683D02*
X-122858779Y-100689350D01*
X-121858779Y-100356017D01*
X-122858779Y-99546493D02*
X-122858779Y-100022683D01*
X-122382588Y-100070302D01*
X-122430207Y-100022683D01*
X-122477826Y-99927445D01*
X-122477826Y-99689350D01*
X-122430207Y-99594112D01*
X-122382588Y-99546493D01*
X-122287350Y-99498874D01*
X-122049255Y-99498874D01*
X-121954017Y-99546493D01*
X-121906398Y-99594112D01*
X-121858779Y-99689350D01*
X-121858779Y-99927445D01*
X-121906398Y-100022683D01*
X-121954017Y-100070302D01*
X-90267120Y-101379161D02*
X-90267120Y-100569638D01*
X-88899739Y-100664876D02*
X-88899739Y-101141066D01*
X-89899739Y-101141066D01*
X-90267120Y-100569638D02*
X-90267120Y-99569638D01*
X-88899739Y-100331542D02*
X-89899739Y-100331542D01*
X-89899739Y-100093447D01*
X-89852120Y-99950590D01*
X-89756881Y-99855352D01*
X-89661643Y-99807733D01*
X-89471167Y-99760114D01*
X-89328310Y-99760114D01*
X-89137834Y-99807733D01*
X-89042596Y-99855352D01*
X-88947358Y-99950590D01*
X-88899739Y-100093447D01*
X-88899739Y-100331542D01*
X-90267120Y-99569638D02*
X-90267120Y-98569638D01*
X-89423548Y-98998209D02*
X-89375929Y-98855352D01*
X-89328310Y-98807733D01*
X-89233072Y-98760114D01*
X-89090215Y-98760114D01*
X-88994977Y-98807733D01*
X-88947358Y-98855352D01*
X-88899739Y-98950590D01*
X-88899739Y-99331542D01*
X-89899739Y-99331542D01*
X-89899739Y-98998209D01*
X-89852120Y-98902971D01*
X-89804500Y-98855352D01*
X-89709262Y-98807733D01*
X-89614024Y-98807733D01*
X-89518786Y-98855352D01*
X-89471167Y-98902971D01*
X-89423548Y-98998209D01*
X-89423548Y-99331542D01*
X-56854339Y-107108523D02*
X-56854339Y-106489476D01*
X-56473386Y-106822809D01*
X-56473386Y-106679952D01*
X-56425767Y-106584714D01*
X-56378148Y-106537095D01*
X-56282910Y-106489476D01*
X-56044815Y-106489476D01*
X-55949577Y-106537095D01*
X-55901958Y-106584714D01*
X-55854339Y-106679952D01*
X-55854339Y-106965666D01*
X-55901958Y-107060904D01*
X-55949577Y-107108523D01*
X-56854339Y-106156142D02*
X-56854339Y-105489476D01*
X-55854339Y-105918047D01*
X-54314339Y-107108523D02*
X-54314339Y-106489476D01*
X-53933386Y-106822809D01*
X-53933386Y-106679952D01*
X-53885767Y-106584714D01*
X-53838148Y-106537095D01*
X-53742910Y-106489476D01*
X-53504815Y-106489476D01*
X-53409577Y-106537095D01*
X-53361958Y-106584714D01*
X-53314339Y-106679952D01*
X-53314339Y-106965666D01*
X-53361958Y-107060904D01*
X-53409577Y-107108523D01*
X-53885767Y-105918047D02*
X-53933386Y-106013285D01*
X-53981005Y-106060904D01*
X-54076243Y-106108523D01*
X-54123862Y-106108523D01*
X-54219100Y-106060904D01*
X-54266720Y-106013285D01*
X-54314339Y-105918047D01*
X-54314339Y-105727571D01*
X-54266720Y-105632333D01*
X-54219100Y-105584714D01*
X-54123862Y-105537095D01*
X-54076243Y-105537095D01*
X-53981005Y-105584714D01*
X-53933386Y-105632333D01*
X-53885767Y-105727571D01*
X-53885767Y-105918047D01*
X-53838148Y-106013285D01*
X-53790529Y-106060904D01*
X-53695291Y-106108523D01*
X-53504815Y-106108523D01*
X-53409577Y-106060904D01*
X-53361958Y-106013285D01*
X-53314339Y-105918047D01*
X-53314339Y-105727571D01*
X-53361958Y-105632333D01*
X-53409577Y-105584714D01*
X-53504815Y-105537095D01*
X-53695291Y-105537095D01*
X-53790529Y-105584714D01*
X-53838148Y-105632333D01*
X-53885767Y-105727571D01*
X-59394339Y-107139003D02*
X-59394339Y-106519956D01*
X-59013386Y-106853289D01*
X-59013386Y-106710432D01*
X-58965767Y-106615194D01*
X-58918148Y-106567575D01*
X-58822910Y-106519956D01*
X-58584815Y-106519956D01*
X-58489577Y-106567575D01*
X-58441958Y-106615194D01*
X-58394339Y-106710432D01*
X-58394339Y-106996146D01*
X-58441958Y-107091384D01*
X-58489577Y-107139003D01*
X-59394339Y-105662813D02*
X-59394339Y-105853289D01*
X-59346720Y-105948527D01*
X-59299100Y-105996146D01*
X-59156243Y-106091384D01*
X-58965767Y-106139003D01*
X-58584815Y-106139003D01*
X-58489577Y-106091384D01*
X-58441958Y-106043765D01*
X-58394339Y-105948527D01*
X-58394339Y-105758051D01*
X-58441958Y-105662813D01*
X-58489577Y-105615194D01*
X-58584815Y-105567575D01*
X-58822910Y-105567575D01*
X-58918148Y-105615194D01*
X-58965767Y-105662813D01*
X-59013386Y-105758051D01*
X-59013386Y-105948527D01*
X-58965767Y-106043765D01*
X-58918148Y-106091384D01*
X-58822910Y-106139003D01*
X-69589899Y-107108523D02*
X-69589899Y-106489476D01*
X-69208946Y-106822809D01*
X-69208946Y-106679952D01*
X-69161327Y-106584714D01*
X-69113708Y-106537095D01*
X-69018470Y-106489476D01*
X-68780375Y-106489476D01*
X-68685137Y-106537095D01*
X-68637518Y-106584714D01*
X-68589899Y-106679952D01*
X-68589899Y-106965666D01*
X-68637518Y-107060904D01*
X-68685137Y-107108523D01*
X-69494660Y-106108523D02*
X-69542280Y-106060904D01*
X-69589899Y-105965666D01*
X-69589899Y-105727571D01*
X-69542280Y-105632333D01*
X-69494660Y-105584714D01*
X-69399422Y-105537095D01*
X-69304184Y-105537095D01*
X-69161327Y-105584714D01*
X-68589899Y-106156142D01*
X-68589899Y-105537095D01*
X-67049899Y-107108523D02*
X-67049899Y-106489476D01*
X-66668946Y-106822809D01*
X-66668946Y-106679952D01*
X-66621327Y-106584714D01*
X-66573708Y-106537095D01*
X-66478470Y-106489476D01*
X-66240375Y-106489476D01*
X-66145137Y-106537095D01*
X-66097518Y-106584714D01*
X-66049899Y-106679952D01*
X-66049899Y-106965666D01*
X-66097518Y-107060904D01*
X-66145137Y-107108523D01*
X-67049899Y-106156142D02*
X-67049899Y-105537095D01*
X-66668946Y-105870428D01*
X-66668946Y-105727571D01*
X-66621327Y-105632333D01*
X-66573708Y-105584714D01*
X-66478470Y-105537095D01*
X-66240375Y-105537095D01*
X-66145137Y-105584714D01*
X-66097518Y-105632333D01*
X-66049899Y-105727571D01*
X-66049899Y-106013285D01*
X-66097518Y-106108523D01*
X-66145137Y-106156142D01*
X-64408299Y-107042483D02*
X-64408299Y-106423436D01*
X-64027346Y-106756769D01*
X-64027346Y-106613912D01*
X-63979727Y-106518674D01*
X-63932108Y-106471055D01*
X-63836870Y-106423436D01*
X-63598775Y-106423436D01*
X-63503537Y-106471055D01*
X-63455918Y-106518674D01*
X-63408299Y-106613912D01*
X-63408299Y-106899626D01*
X-63455918Y-106994864D01*
X-63503537Y-107042483D01*
X-64074965Y-105566293D02*
X-63408299Y-105566293D01*
X-64455918Y-105804388D02*
X-63741632Y-106042483D01*
X-63741632Y-105423436D01*
X-72063859Y-107072963D02*
X-72063859Y-106453916D01*
X-71682906Y-106787249D01*
X-71682906Y-106644392D01*
X-71635287Y-106549154D01*
X-71587668Y-106501535D01*
X-71492430Y-106453916D01*
X-71254335Y-106453916D01*
X-71159097Y-106501535D01*
X-71111478Y-106549154D01*
X-71063859Y-106644392D01*
X-71063859Y-106930106D01*
X-71111478Y-107025344D01*
X-71159097Y-107072963D01*
X-71063859Y-105501535D02*
X-71063859Y-106072963D01*
X-71063859Y-105787249D02*
X-72063859Y-105787249D01*
X-71921001Y-105882487D01*
X-71825763Y-105977725D01*
X-71778144Y-106072963D01*
X-61903859Y-107108523D02*
X-61903859Y-106489476D01*
X-61522906Y-106822809D01*
X-61522906Y-106679952D01*
X-61475287Y-106584714D01*
X-61427668Y-106537095D01*
X-61332430Y-106489476D01*
X-61094335Y-106489476D01*
X-60999097Y-106537095D01*
X-60951478Y-106584714D01*
X-60903859Y-106679952D01*
X-60903859Y-106965666D01*
X-60951478Y-107060904D01*
X-60999097Y-107108523D01*
X-61903859Y-105584714D02*
X-61903859Y-106060904D01*
X-61427668Y-106108523D01*
X-61475287Y-106060904D01*
X-61522906Y-105965666D01*
X-61522906Y-105727571D01*
X-61475287Y-105632333D01*
X-61427668Y-105584714D01*
X-61332430Y-105537095D01*
X-61094335Y-105537095D01*
X-60999097Y-105584714D01*
X-60951478Y-105632333D01*
X-60903859Y-105727571D01*
X-60903859Y-105965666D01*
X-60951478Y-106060904D01*
X-60999097Y-106108523D01*
X-79522580Y-107091384D02*
X-79570200Y-107043765D01*
X-79617819Y-106948527D01*
X-79617819Y-106710432D01*
X-79570200Y-106615194D01*
X-79522580Y-106567575D01*
X-79427342Y-106519956D01*
X-79332104Y-106519956D01*
X-79189247Y-106567575D01*
X-78617819Y-107139003D01*
X-78617819Y-106519956D01*
X-79189247Y-105948527D02*
X-79236866Y-106043765D01*
X-79284485Y-106091384D01*
X-79379723Y-106139003D01*
X-79427342Y-106139003D01*
X-79522580Y-106091384D01*
X-79570200Y-106043765D01*
X-79617819Y-105948527D01*
X-79617819Y-105758051D01*
X-79570200Y-105662813D01*
X-79522580Y-105615194D01*
X-79427342Y-105567575D01*
X-79379723Y-105567575D01*
X-79284485Y-105615194D01*
X-79236866Y-105662813D01*
X-79189247Y-105758051D01*
X-79189247Y-105948527D01*
X-79141628Y-106043765D01*
X-79094009Y-106091384D01*
X-78998771Y-106139003D01*
X-78808295Y-106139003D01*
X-78713057Y-106091384D01*
X-78665438Y-106043765D01*
X-78617819Y-105948527D01*
X-78617819Y-105758051D01*
X-78665438Y-105662813D01*
X-78713057Y-105615194D01*
X-78808295Y-105567575D01*
X-78998771Y-105567575D01*
X-79094009Y-105615194D01*
X-79141628Y-105662813D01*
X-79189247Y-105758051D01*
X-84765140Y-107025344D02*
X-84812760Y-106977725D01*
X-84860379Y-106882487D01*
X-84860379Y-106644392D01*
X-84812760Y-106549154D01*
X-84765140Y-106501535D01*
X-84669902Y-106453916D01*
X-84574664Y-106453916D01*
X-84431807Y-106501535D01*
X-83860379Y-107072963D01*
X-83860379Y-106453916D01*
X-84860379Y-105596773D02*
X-84860379Y-105787249D01*
X-84812760Y-105882487D01*
X-84765140Y-105930106D01*
X-84622283Y-106025344D01*
X-84431807Y-106072963D01*
X-84050855Y-106072963D01*
X-83955617Y-106025344D01*
X-83907998Y-105977725D01*
X-83860379Y-105882487D01*
X-83860379Y-105692011D01*
X-83907998Y-105596773D01*
X-83955617Y-105549154D01*
X-84050855Y-105501535D01*
X-84288950Y-105501535D01*
X-84384188Y-105549154D01*
X-84431807Y-105596773D01*
X-84479426Y-105692011D01*
X-84479426Y-105882487D01*
X-84431807Y-105977725D01*
X-84384188Y-106025344D01*
X-84288950Y-106072963D01*
X-82225140Y-107060904D02*
X-82272760Y-107013285D01*
X-82320379Y-106918047D01*
X-82320379Y-106679952D01*
X-82272760Y-106584714D01*
X-82225140Y-106537095D01*
X-82129902Y-106489476D01*
X-82034664Y-106489476D01*
X-81891807Y-106537095D01*
X-81320379Y-107108523D01*
X-81320379Y-106489476D01*
X-82320379Y-106156142D02*
X-82320379Y-105489476D01*
X-81320379Y-105918047D01*
X-74537819Y-107108523D02*
X-74537819Y-106489476D01*
X-74156866Y-106822809D01*
X-74156866Y-106679952D01*
X-74109247Y-106584714D01*
X-74061628Y-106537095D01*
X-73966390Y-106489476D01*
X-73728295Y-106489476D01*
X-73633057Y-106537095D01*
X-73585438Y-106584714D01*
X-73537819Y-106679952D01*
X-73537819Y-106965666D01*
X-73585438Y-107060904D01*
X-73633057Y-107108523D01*
X-74537819Y-105870428D02*
X-74537819Y-105775190D01*
X-74490200Y-105679952D01*
X-74442580Y-105632333D01*
X-74347342Y-105584714D01*
X-74156866Y-105537095D01*
X-73918771Y-105537095D01*
X-73728295Y-105584714D01*
X-73633057Y-105632333D01*
X-73585438Y-105679952D01*
X-73537819Y-105775190D01*
X-73537819Y-105870428D01*
X-73585438Y-105965666D01*
X-73633057Y-106013285D01*
X-73728295Y-106060904D01*
X-73918771Y-106108523D01*
X-74156866Y-106108523D01*
X-74347342Y-106060904D01*
X-74442580Y-106013285D01*
X-74490200Y-105965666D01*
X-74537819Y-105870428D01*
X-76982580Y-107060904D02*
X-77030200Y-107013285D01*
X-77077819Y-106918047D01*
X-77077819Y-106679952D01*
X-77030200Y-106584714D01*
X-76982580Y-106537095D01*
X-76887342Y-106489476D01*
X-76792104Y-106489476D01*
X-76649247Y-106537095D01*
X-76077819Y-107108523D01*
X-76077819Y-106489476D01*
X-76077819Y-106013285D02*
X-76077819Y-105822809D01*
X-76125438Y-105727571D01*
X-76173057Y-105679952D01*
X-76315914Y-105584714D01*
X-76506390Y-105537095D01*
X-76887342Y-105537095D01*
X-76982580Y-105584714D01*
X-77030200Y-105632333D01*
X-77077819Y-105727571D01*
X-77077819Y-105918047D01*
X-77030200Y-106013285D01*
X-76982580Y-106060904D01*
X-76887342Y-106108523D01*
X-76649247Y-106108523D01*
X-76554009Y-106060904D01*
X-76506390Y-106013285D01*
X-76458771Y-105918047D01*
X-76458771Y-105727571D01*
X-76506390Y-105632333D01*
X-76554009Y-105584714D01*
X-76649247Y-105537095D01*
X-89799420Y-106994864D02*
X-89847040Y-106947245D01*
X-89894659Y-106852007D01*
X-89894659Y-106613912D01*
X-89847040Y-106518674D01*
X-89799420Y-106471055D01*
X-89704182Y-106423436D01*
X-89608944Y-106423436D01*
X-89466087Y-106471055D01*
X-88894659Y-107042483D01*
X-88894659Y-106423436D01*
X-89561325Y-105566293D02*
X-88894659Y-105566293D01*
X-89942278Y-105804388D02*
X-89227992Y-106042483D01*
X-89227992Y-105423436D01*
X-97419420Y-106994864D02*
X-97467040Y-106947245D01*
X-97514659Y-106852007D01*
X-97514659Y-106613912D01*
X-97467040Y-106518674D01*
X-97419420Y-106471055D01*
X-97324182Y-106423436D01*
X-97228944Y-106423436D01*
X-97086087Y-106471055D01*
X-96514659Y-107042483D01*
X-96514659Y-106423436D01*
X-96514659Y-105471055D02*
X-96514659Y-106042483D01*
X-96514659Y-105756769D02*
X-97514659Y-105756769D01*
X-97371801Y-105852007D01*
X-97276563Y-105947245D01*
X-97228944Y-106042483D01*
X-94752420Y-107025344D02*
X-94800040Y-106977725D01*
X-94847659Y-106882487D01*
X-94847659Y-106644392D01*
X-94800040Y-106549154D01*
X-94752420Y-106501535D01*
X-94657182Y-106453916D01*
X-94561944Y-106453916D01*
X-94419087Y-106501535D01*
X-93847659Y-107072963D01*
X-93847659Y-106453916D01*
X-94752420Y-106072963D02*
X-94800040Y-106025344D01*
X-94847659Y-105930106D01*
X-94847659Y-105692011D01*
X-94800040Y-105596773D01*
X-94752420Y-105549154D01*
X-94657182Y-105501535D01*
X-94561944Y-105501535D01*
X-94419087Y-105549154D01*
X-93847659Y-106120582D01*
X-93847659Y-105501535D01*
X-87305140Y-107060904D02*
X-87352760Y-107013285D01*
X-87400379Y-106918047D01*
X-87400379Y-106679952D01*
X-87352760Y-106584714D01*
X-87305140Y-106537095D01*
X-87209902Y-106489476D01*
X-87114664Y-106489476D01*
X-86971807Y-106537095D01*
X-86400379Y-107108523D01*
X-86400379Y-106489476D01*
X-87400379Y-105584714D02*
X-87400379Y-106060904D01*
X-86924188Y-106108523D01*
X-86971807Y-106060904D01*
X-87019426Y-105965666D01*
X-87019426Y-105727571D01*
X-86971807Y-105632333D01*
X-86924188Y-105584714D01*
X-86828950Y-105537095D01*
X-86590855Y-105537095D01*
X-86495617Y-105584714D01*
X-86447998Y-105632333D01*
X-86400379Y-105727571D01*
X-86400379Y-105965666D01*
X-86447998Y-106060904D01*
X-86495617Y-106108523D01*
X-92212420Y-107025344D02*
X-92260040Y-106977725D01*
X-92307659Y-106882487D01*
X-92307659Y-106644392D01*
X-92260040Y-106549154D01*
X-92212420Y-106501535D01*
X-92117182Y-106453916D01*
X-92021944Y-106453916D01*
X-91879087Y-106501535D01*
X-91307659Y-107072963D01*
X-91307659Y-106453916D01*
X-92307659Y-106120582D02*
X-92307659Y-105501535D01*
X-91926706Y-105834868D01*
X-91926706Y-105692011D01*
X-91879087Y-105596773D01*
X-91831468Y-105549154D01*
X-91736230Y-105501535D01*
X-91498135Y-105501535D01*
X-91402897Y-105549154D01*
X-91355278Y-105596773D01*
X-91307659Y-105692011D01*
X-91307659Y-105977725D01*
X-91355278Y-106072963D01*
X-91402897Y-106120582D01*
X-101503219Y-106392956D02*
X-101503219Y-106964384D01*
X-101503219Y-106678670D02*
X-102503219Y-106678670D01*
X-102360361Y-106773908D01*
X-102265123Y-106869146D01*
X-102217504Y-106964384D01*
X-101503219Y-105916765D02*
X-101503219Y-105726289D01*
X-101550838Y-105631051D01*
X-101598457Y-105583432D01*
X-101741314Y-105488194D01*
X-101931790Y-105440575D01*
X-102312742Y-105440575D01*
X-102407980Y-105488194D01*
X-102455600Y-105535813D01*
X-102503219Y-105631051D01*
X-102503219Y-105821527D01*
X-102455600Y-105916765D01*
X-102407980Y-105964384D01*
X-102312742Y-106012003D01*
X-102074647Y-106012003D01*
X-101979409Y-105964384D01*
X-101931790Y-105916765D01*
X-101884171Y-105821527D01*
X-101884171Y-105631051D01*
X-101931790Y-105535813D01*
X-101979409Y-105488194D01*
X-102074647Y-105440575D01*
X-99959420Y-107025344D02*
X-100007040Y-106977725D01*
X-100054659Y-106882487D01*
X-100054659Y-106644392D01*
X-100007040Y-106549154D01*
X-99959420Y-106501535D01*
X-99864182Y-106453916D01*
X-99768944Y-106453916D01*
X-99626087Y-106501535D01*
X-99054659Y-107072963D01*
X-99054659Y-106453916D01*
X-100054659Y-105834868D02*
X-100054659Y-105739630D01*
X-100007040Y-105644392D01*
X-99959420Y-105596773D01*
X-99864182Y-105549154D01*
X-99673706Y-105501535D01*
X-99435611Y-105501535D01*
X-99245135Y-105549154D01*
X-99149897Y-105596773D01*
X-99102278Y-105644392D01*
X-99054659Y-105739630D01*
X-99054659Y-105834868D01*
X-99102278Y-105930106D01*
X-99149897Y-105977725D01*
X-99245135Y-106025344D01*
X-99435611Y-106072963D01*
X-99673706Y-106072963D01*
X-99864182Y-106025344D01*
X-99959420Y-105977725D01*
X-100007040Y-105930106D01*
X-100054659Y-105834868D01*
X-104012739Y-106453916D02*
X-104012739Y-107025344D01*
X-104012739Y-106739630D02*
X-105012739Y-106739630D01*
X-104869881Y-106834868D01*
X-104774643Y-106930106D01*
X-104727024Y-107025344D01*
X-104584167Y-105882487D02*
X-104631786Y-105977725D01*
X-104679405Y-106025344D01*
X-104774643Y-106072963D01*
X-104822262Y-106072963D01*
X-104917500Y-106025344D01*
X-104965120Y-105977725D01*
X-105012739Y-105882487D01*
X-105012739Y-105692011D01*
X-104965120Y-105596773D01*
X-104917500Y-105549154D01*
X-104822262Y-105501535D01*
X-104774643Y-105501535D01*
X-104679405Y-105549154D01*
X-104631786Y-105596773D01*
X-104584167Y-105692011D01*
X-104584167Y-105882487D01*
X-104536548Y-105977725D01*
X-104488929Y-106025344D01*
X-104393691Y-106072963D01*
X-104203215Y-106072963D01*
X-104107977Y-106025344D01*
X-104060358Y-105977725D01*
X-104012739Y-105882487D01*
X-104012739Y-105692011D01*
X-104060358Y-105596773D01*
X-104107977Y-105549154D01*
X-104203215Y-105501535D01*
X-104393691Y-105501535D01*
X-104488929Y-105549154D01*
X-104536548Y-105596773D01*
X-104584167Y-105692011D01*
X-106649259Y-106392956D02*
X-106649259Y-106964384D01*
X-106649259Y-106678670D02*
X-107649259Y-106678670D01*
X-107506401Y-106773908D01*
X-107411163Y-106869146D01*
X-107363544Y-106964384D01*
X-107649259Y-106059622D02*
X-107649259Y-105392956D01*
X-106649259Y-105821527D01*
X-109224819Y-106392956D02*
X-109224819Y-106964384D01*
X-109224819Y-106678670D02*
X-110224819Y-106678670D01*
X-110081961Y-106773908D01*
X-109986723Y-106869146D01*
X-109939104Y-106964384D01*
X-110224819Y-105535813D02*
X-110224819Y-105726289D01*
X-110177200Y-105821527D01*
X-110129580Y-105869146D01*
X-109986723Y-105964384D01*
X-109796247Y-106012003D01*
X-109415295Y-106012003D01*
X-109320057Y-105964384D01*
X-109272438Y-105916765D01*
X-109224819Y-105821527D01*
X-109224819Y-105631051D01*
X-109272438Y-105535813D01*
X-109320057Y-105488194D01*
X-109415295Y-105440575D01*
X-109653390Y-105440575D01*
X-109748628Y-105488194D01*
X-109796247Y-105535813D01*
X-109843866Y-105631051D01*
X-109843866Y-105821527D01*
X-109796247Y-105916765D01*
X-109748628Y-105964384D01*
X-109653390Y-106012003D01*
X-114238779Y-106392956D02*
X-114238779Y-106964384D01*
X-114238779Y-106678670D02*
X-115238779Y-106678670D01*
X-115095921Y-106773908D01*
X-115000683Y-106869146D01*
X-114953064Y-106964384D01*
X-114905445Y-105535813D02*
X-114238779Y-105535813D01*
X-115286398Y-105773908D02*
X-114572112Y-106012003D01*
X-114572112Y-105392956D01*
X-121909579Y-106392956D02*
X-121909579Y-106964384D01*
X-121909579Y-106678670D02*
X-122909579Y-106678670D01*
X-122766721Y-106773908D01*
X-122671483Y-106869146D01*
X-122623864Y-106964384D01*
X-121909579Y-105440575D02*
X-121909579Y-106012003D01*
X-121909579Y-105726289D02*
X-122909579Y-105726289D01*
X-122766721Y-105821527D01*
X-122671483Y-105916765D01*
X-122623864Y-106012003D01*
X-119384819Y-106423436D02*
X-119384819Y-106994864D01*
X-119384819Y-106709150D02*
X-120384819Y-106709150D01*
X-120241961Y-106804388D01*
X-120146723Y-106899626D01*
X-120099104Y-106994864D01*
X-120289580Y-106042483D02*
X-120337200Y-105994864D01*
X-120384819Y-105899626D01*
X-120384819Y-105661531D01*
X-120337200Y-105566293D01*
X-120289580Y-105518674D01*
X-120194342Y-105471055D01*
X-120099104Y-105471055D01*
X-119956247Y-105518674D01*
X-119384819Y-106090102D01*
X-119384819Y-105471055D01*
X-116778779Y-106423436D02*
X-116778779Y-106994864D01*
X-116778779Y-106709150D02*
X-117778779Y-106709150D01*
X-117635921Y-106804388D01*
X-117540683Y-106899626D01*
X-117493064Y-106994864D01*
X-117778779Y-106090102D02*
X-117778779Y-105471055D01*
X-117397826Y-105804388D01*
X-117397826Y-105661531D01*
X-117350207Y-105566293D01*
X-117302588Y-105518674D01*
X-117207350Y-105471055D01*
X-116969255Y-105471055D01*
X-116874017Y-105518674D01*
X-116826398Y-105566293D01*
X-116778779Y-105661531D01*
X-116778779Y-105947245D01*
X-116826398Y-106042483D01*
X-116874017Y-106090102D01*
X-111729259Y-106423436D02*
X-111729259Y-106994864D01*
X-111729259Y-106709150D02*
X-112729259Y-106709150D01*
X-112586401Y-106804388D01*
X-112491163Y-106899626D01*
X-112443544Y-106994864D01*
X-112729259Y-105518674D02*
X-112729259Y-105994864D01*
X-112253068Y-106042483D01*
X-112300687Y-105994864D01*
X-112348306Y-105899626D01*
X-112348306Y-105661531D01*
X-112300687Y-105566293D01*
X-112253068Y-105518674D01*
X-112157830Y-105471055D01*
X-111919735Y-105471055D01*
X-111824497Y-105518674D01*
X-111776878Y-105566293D01*
X-111729259Y-105661531D01*
X-111729259Y-105899626D01*
X-111776878Y-105994864D01*
X-111824497Y-106042483D01*
X-124383539Y-106423436D02*
X-124383539Y-106994864D01*
X-124383539Y-106709150D02*
X-125383539Y-106709150D01*
X-125240681Y-106804388D01*
X-125145443Y-106899626D01*
X-125097824Y-106994864D01*
X-125383539Y-105804388D02*
X-125383539Y-105709150D01*
X-125335920Y-105613912D01*
X-125288300Y-105566293D01*
X-125193062Y-105518674D01*
X-125002586Y-105471055D01*
X-124764491Y-105471055D01*
X-124574015Y-105518674D01*
X-124478777Y-105566293D01*
X-124431158Y-105613912D01*
X-124383539Y-105709150D01*
X-124383539Y-105804388D01*
X-124431158Y-105899626D01*
X-124478777Y-105947245D01*
X-124574015Y-105994864D01*
X-124764491Y-106042483D01*
X-125002586Y-106042483D01*
X-125193062Y-105994864D01*
X-125288300Y-105947245D01*
X-125335920Y-105899626D01*
X-125383539Y-105804388D01*
X-135670539Y-105580203D02*
X-135670539Y-105770680D01*
X-135622920Y-105865918D01*
X-135575300Y-105913537D01*
X-135432443Y-106008775D01*
X-135241967Y-106056394D01*
X-134861015Y-106056394D01*
X-134765777Y-106008775D01*
X-134718158Y-105961156D01*
X-134670539Y-105865918D01*
X-134670539Y-105675441D01*
X-134718158Y-105580203D01*
X-134765777Y-105532584D01*
X-134861015Y-105484965D01*
X-135099110Y-105484965D01*
X-135194348Y-105532584D01*
X-135241967Y-105580203D01*
X-135289586Y-105675441D01*
X-135289586Y-105865918D01*
X-135241967Y-105961156D01*
X-135194348Y-106008775D01*
X-135099110Y-106056394D01*
X-126923539Y-105961156D02*
X-126923539Y-105770680D01*
X-126971158Y-105675441D01*
X-127018777Y-105627822D01*
X-127161634Y-105532584D01*
X-127352110Y-105484965D01*
X-127733062Y-105484965D01*
X-127828300Y-105532584D01*
X-127875920Y-105580203D01*
X-127923539Y-105675441D01*
X-127923539Y-105865918D01*
X-127875920Y-105961156D01*
X-127828300Y-106008775D01*
X-127733062Y-106056394D01*
X-127494967Y-106056394D01*
X-127399729Y-106008775D01*
X-127352110Y-105961156D01*
X-127304491Y-105865918D01*
X-127304491Y-105675441D01*
X-127352110Y-105580203D01*
X-127399729Y-105532584D01*
X-127494967Y-105484965D01*
X-130070527Y-105835438D02*
X-130118146Y-105930676D01*
X-130165765Y-105978295D01*
X-130261003Y-106025914D01*
X-130308622Y-106025914D01*
X-130403860Y-105978295D01*
X-130451480Y-105930676D01*
X-130499099Y-105835438D01*
X-130499099Y-105644961D01*
X-130451480Y-105549723D01*
X-130403860Y-105502104D01*
X-130308622Y-105454485D01*
X-130261003Y-105454485D01*
X-130165765Y-105502104D01*
X-130118146Y-105549723D01*
X-130070527Y-105644961D01*
X-130070527Y-105835438D01*
X-130022908Y-105930676D01*
X-129975289Y-105978295D01*
X-129880051Y-106025914D01*
X-129689575Y-106025914D01*
X-129594337Y-105978295D01*
X-129546718Y-105930676D01*
X-129499099Y-105835438D01*
X-129499099Y-105644961D01*
X-129546718Y-105549723D01*
X-129594337Y-105502104D01*
X-129689575Y-105454485D01*
X-129880051Y-105454485D01*
X-129975289Y-105502104D01*
X-130022908Y-105549723D01*
X-130070527Y-105644961D01*
X-133069579Y-106104013D02*
X-133069579Y-105437346D01*
X-132069579Y-105865918D01*
X-138180059Y-105532584D02*
X-138180059Y-106008775D01*
X-137703868Y-106056394D01*
X-137751487Y-106008775D01*
X-137799106Y-105913537D01*
X-137799106Y-105675441D01*
X-137751487Y-105580203D01*
X-137703868Y-105532584D01*
X-137608630Y-105484965D01*
X-137370535Y-105484965D01*
X-137275297Y-105532584D01*
X-137227678Y-105580203D01*
X-137180059Y-105675441D01*
X-137180059Y-105913537D01*
X-137227678Y-106008775D01*
X-137275297Y-106056394D01*
X-140386725Y-105580203D02*
X-139720059Y-105580203D01*
X-140767678Y-105818299D02*
X-140053392Y-106056394D01*
X-140053392Y-105437346D01*
X-143224499Y-106073533D02*
X-143224499Y-105454485D01*
X-142843546Y-105787819D01*
X-142843546Y-105644961D01*
X-142795927Y-105549723D01*
X-142748308Y-105502104D01*
X-142653070Y-105454485D01*
X-142414975Y-105454485D01*
X-142319737Y-105502104D01*
X-142272118Y-105549723D01*
X-142224499Y-105644961D01*
X-142224499Y-105930676D01*
X-142272118Y-106025914D01*
X-142319737Y-106073533D01*
X-145704820Y-106025914D02*
X-145752440Y-105978295D01*
X-145800059Y-105883057D01*
X-145800059Y-105644961D01*
X-145752440Y-105549723D01*
X-145704820Y-105502104D01*
X-145609582Y-105454485D01*
X-145514344Y-105454485D01*
X-145371487Y-105502104D01*
X-144800059Y-106073533D01*
X-144800059Y-105454485D01*
X-147340059Y-105454485D02*
X-147340059Y-106025914D01*
X-147340059Y-105740200D02*
X-148340059Y-105740200D01*
X-148197201Y-105835438D01*
X-148101963Y-105930676D01*
X-148054344Y-106025914D01*
X-60075011Y-23135340D02*
X-59979773Y-23135340D01*
X-59884535Y-23182960D01*
X-59836916Y-23230579D01*
X-59789297Y-23325817D01*
X-59741678Y-23516293D01*
X-59741678Y-23754388D01*
X-59789297Y-23944864D01*
X-59836916Y-24040102D01*
X-59884535Y-24087721D01*
X-59979773Y-24135340D01*
X-60075011Y-24135340D01*
X-60170249Y-24087721D01*
X-60217868Y-24040102D01*
X-60265487Y-23944864D01*
X-60313106Y-23754388D01*
X-60313106Y-23516293D01*
X-60265487Y-23325817D01*
X-60217868Y-23230579D01*
X-60170249Y-23182960D01*
X-60075011Y-23135340D01*
X-59408344Y-24135340D02*
X-58884535Y-23468674D01*
X-59408344Y-23468674D02*
X-58884535Y-24135340D01*
X-58598820Y-23135340D02*
X-57979773Y-23135340D01*
X-58313106Y-23516293D01*
X-58170249Y-23516293D01*
X-58075011Y-23563912D01*
X-58027392Y-23611531D01*
X-57979773Y-23706769D01*
X-57979773Y-23944864D01*
X-58027392Y-24040102D01*
X-58075011Y-24087721D01*
X-58170249Y-24135340D01*
X-58455963Y-24135340D01*
X-58551201Y-24087721D01*
X-58598820Y-24040102D01*
X-86770411Y-23125180D02*
X-86675173Y-23125180D01*
X-86579935Y-23172800D01*
X-86532316Y-23220419D01*
X-86484697Y-23315657D01*
X-86437078Y-23506133D01*
X-86437078Y-23744228D01*
X-86484697Y-23934704D01*
X-86532316Y-24029942D01*
X-86579935Y-24077561D01*
X-86675173Y-24125180D01*
X-86770411Y-24125180D01*
X-86865649Y-24077561D01*
X-86913268Y-24029942D01*
X-86960887Y-23934704D01*
X-87008506Y-23744228D01*
X-87008506Y-23506133D01*
X-86960887Y-23315657D01*
X-86913268Y-23220419D01*
X-86865649Y-23172800D01*
X-86770411Y-23125180D01*
X-86103744Y-24125180D02*
X-85579935Y-23458514D01*
X-86103744Y-23458514D02*
X-85579935Y-24125180D01*
X-85246601Y-23220419D02*
X-85198982Y-23172800D01*
X-85103744Y-23125180D01*
X-84865649Y-23125180D01*
X-84770411Y-23172800D01*
X-84722792Y-23220419D01*
X-84675173Y-23315657D01*
X-84675173Y-23410895D01*
X-84722792Y-23553752D01*
X-85294220Y-24125180D01*
X-84675173Y-24125180D01*
X-113237211Y-22708620D02*
X-113141973Y-22708620D01*
X-113046735Y-22756240D01*
X-112999116Y-22803859D01*
X-112951497Y-22899097D01*
X-112903878Y-23089573D01*
X-112903878Y-23327668D01*
X-112951497Y-23518144D01*
X-112999116Y-23613382D01*
X-113046735Y-23661001D01*
X-113141973Y-23708620D01*
X-113237211Y-23708620D01*
X-113332449Y-23661001D01*
X-113380068Y-23613382D01*
X-113427687Y-23518144D01*
X-113475306Y-23327668D01*
X-113475306Y-23089573D01*
X-113427687Y-22899097D01*
X-113380068Y-22803859D01*
X-113332449Y-22756240D01*
X-113237211Y-22708620D01*
X-112570544Y-23708620D02*
X-112046735Y-23041954D01*
X-112570544Y-23041954D02*
X-112046735Y-23708620D01*
X-111141973Y-23708620D02*
X-111713401Y-23708620D01*
X-111427687Y-23708620D02*
X-111427687Y-22708620D01*
X-111522925Y-22851478D01*
X-111618163Y-22946716D01*
X-111713401Y-22994335D01*
X-139704011Y-22723860D02*
X-139608773Y-22723860D01*
X-139513535Y-22771480D01*
X-139465916Y-22819099D01*
X-139418297Y-22914337D01*
X-139370678Y-23104813D01*
X-139370678Y-23342908D01*
X-139418297Y-23533384D01*
X-139465916Y-23628622D01*
X-139513535Y-23676241D01*
X-139608773Y-23723860D01*
X-139704011Y-23723860D01*
X-139799249Y-23676241D01*
X-139846868Y-23628622D01*
X-139894487Y-23533384D01*
X-139942106Y-23342908D01*
X-139942106Y-23104813D01*
X-139894487Y-22914337D01*
X-139846868Y-22819099D01*
X-139799249Y-22771480D01*
X-139704011Y-22723860D01*
X-139037344Y-23723860D02*
X-138513535Y-23057194D01*
X-139037344Y-23057194D02*
X-138513535Y-23723860D01*
X-137942106Y-22723860D02*
X-137846868Y-22723860D01*
X-137751630Y-22771480D01*
X-137704011Y-22819099D01*
X-137656392Y-22914337D01*
X-137608773Y-23104813D01*
X-137608773Y-23342908D01*
X-137656392Y-23533384D01*
X-137704011Y-23628622D01*
X-137751630Y-23676241D01*
X-137846868Y-23723860D01*
X-137942106Y-23723860D01*
X-138037344Y-23676241D01*
X-138084963Y-23628622D01*
X-138132582Y-23533384D01*
X-138180201Y-23342908D01*
X-138180201Y-23104813D01*
X-138132582Y-22914337D01*
X-138084963Y-22819099D01*
X-138037344Y-22771480D01*
X-137942106Y-22723860D01*
X-55594285Y-87701380D02*
X-56165714Y-87701380D01*
X-55880000Y-87701380D02*
X-55880000Y-86701380D01*
X-55975238Y-86844238D01*
X-56070476Y-86939476D01*
X-56165714Y-86987095D01*
X-50847619Y-86701380D02*
X-50752380Y-86701380D01*
X-50657142Y-86749000D01*
X-50609523Y-86796619D01*
X-50561904Y-86891857D01*
X-50514285Y-87082333D01*
X-50514285Y-87320428D01*
X-50561904Y-87510904D01*
X-50609523Y-87606142D01*
X-50657142Y-87653761D01*
X-50752380Y-87701380D01*
X-50847619Y-87701380D01*
X-50942857Y-87653761D01*
X-50990476Y-87606142D01*
X-51038095Y-87510904D01*
X-51085714Y-87320428D01*
X-51085714Y-87082333D01*
X-51038095Y-86891857D01*
X-50990476Y-86796619D01*
X-50942857Y-86749000D01*
X-50847619Y-86701380D01*
X-54808285Y-83304571D02*
X-54665428Y-83352190D01*
X-54617809Y-83399809D01*
X-54570190Y-83495047D01*
X-54570190Y-83637904D01*
X-54617809Y-83733142D01*
X-54665428Y-83780761D01*
X-54760666Y-83828380D01*
X-55141619Y-83828380D01*
X-55141619Y-82828380D01*
X-54808285Y-82828380D01*
X-54713047Y-82876000D01*
X-54665428Y-82923619D01*
X-54617809Y-83018857D01*
X-54617809Y-83114095D01*
X-54665428Y-83209333D01*
X-54713047Y-83256952D01*
X-54808285Y-83304571D01*
X-55141619Y-83304571D01*
X-53713047Y-83828380D02*
X-53713047Y-83304571D01*
X-53760666Y-83209333D01*
X-53855904Y-83161714D01*
X-54046380Y-83161714D01*
X-54141619Y-83209333D01*
X-53713047Y-83780761D02*
X-53808285Y-83828380D01*
X-54046380Y-83828380D01*
X-54141619Y-83780761D01*
X-54189238Y-83685523D01*
X-54189238Y-83590285D01*
X-54141619Y-83495047D01*
X-54046380Y-83447428D01*
X-53808285Y-83447428D01*
X-53713047Y-83399809D01*
X-53284476Y-83780761D02*
X-53189238Y-83828380D01*
X-52998761Y-83828380D01*
X-52903523Y-83780761D01*
X-52855904Y-83685523D01*
X-52855904Y-83637904D01*
X-52903523Y-83542666D01*
X-52998761Y-83495047D01*
X-53141619Y-83495047D01*
X-53236857Y-83447428D01*
X-53284476Y-83352190D01*
X-53284476Y-83304571D01*
X-53236857Y-83209333D01*
X-53141619Y-83161714D01*
X-52998761Y-83161714D01*
X-52903523Y-83209333D01*
X-52046380Y-83780761D02*
X-52141619Y-83828380D01*
X-52332095Y-83828380D01*
X-52427333Y-83780761D01*
X-52474952Y-83685523D01*
X-52474952Y-83304571D01*
X-52427333Y-83209333D01*
X-52332095Y-83161714D01*
X-52141619Y-83161714D01*
X-52046380Y-83209333D01*
X-51998761Y-83304571D01*
X-51998761Y-83399809D01*
X-52474952Y-83495047D01*
X-56284476Y-85192666D02*
X-55808285Y-85192666D01*
X-56379714Y-85478380D02*
X-56046380Y-84478380D01*
X-55713047Y-85478380D01*
X-54951142Y-85478380D02*
X-54951142Y-84478380D01*
X-54951142Y-85430761D02*
X-55046380Y-85478380D01*
X-55236857Y-85478380D01*
X-55332095Y-85430761D01*
X-55379714Y-85383142D01*
X-55427333Y-85287904D01*
X-55427333Y-85002190D01*
X-55379714Y-84906952D01*
X-55332095Y-84859333D01*
X-55236857Y-84811714D01*
X-55046380Y-84811714D01*
X-54951142Y-84859333D01*
X-54046380Y-85478380D02*
X-54046380Y-84478380D01*
X-54046380Y-85430761D02*
X-54141619Y-85478380D01*
X-54332095Y-85478380D01*
X-54427333Y-85430761D01*
X-54474952Y-85383142D01*
X-54522571Y-85287904D01*
X-54522571Y-85002190D01*
X-54474952Y-84906952D01*
X-54427333Y-84859333D01*
X-54332095Y-84811714D01*
X-54141619Y-84811714D01*
X-54046380Y-84859333D01*
X-53570190Y-85478380D02*
X-53570190Y-84811714D01*
X-53570190Y-85002190D02*
X-53522571Y-84906952D01*
X-53474952Y-84859333D01*
X-53379714Y-84811714D01*
X-53284476Y-84811714D01*
X-52570190Y-85430761D02*
X-52665428Y-85478380D01*
X-52855904Y-85478380D01*
X-52951142Y-85430761D01*
X-52998761Y-85335523D01*
X-52998761Y-84954571D01*
X-52951142Y-84859333D01*
X-52855904Y-84811714D01*
X-52665428Y-84811714D01*
X-52570190Y-84859333D01*
X-52522571Y-84954571D01*
X-52522571Y-85049809D01*
X-52998761Y-85145047D01*
X-52141619Y-85430761D02*
X-52046380Y-85478380D01*
X-51855904Y-85478380D01*
X-51760666Y-85430761D01*
X-51713047Y-85335523D01*
X-51713047Y-85287904D01*
X-51760666Y-85192666D01*
X-51855904Y-85145047D01*
X-51998761Y-85145047D01*
X-52094000Y-85097428D01*
X-52141619Y-85002190D01*
X-52141619Y-84954571D01*
X-52094000Y-84859333D01*
X-51998761Y-84811714D01*
X-51855904Y-84811714D01*
X-51760666Y-84859333D01*
X-51332095Y-85430761D02*
X-51236857Y-85478380D01*
X-51046380Y-85478380D01*
X-50951142Y-85430761D01*
X-50903523Y-85335523D01*
X-50903523Y-85287904D01*
X-50951142Y-85192666D01*
X-51046380Y-85145047D01*
X-51189238Y-85145047D01*
X-51284476Y-85097428D01*
X-51332095Y-85002190D01*
X-51332095Y-84954571D01*
X-51284476Y-84859333D01*
X-51189238Y-84811714D01*
X-51046380Y-84811714D01*
X-50951142Y-84859333D01*
D11*
X-150189240Y-79446880D02*
G75*
G02X-150189240Y-81446880I0J-1000000D01*
G01*
X-150189240Y-81446880D02*
X-150189240Y-83096880D01*
X-150189240Y-83096880D02*
X-119589240Y-83096880D01*
X-119589240Y-83096880D02*
X-119589240Y-77796880D01*
X-119589240Y-77796880D02*
X-150189240Y-77796880D01*
X-150189240Y-77796880D02*
X-150189240Y-79446880D01*
X-150249240Y-85586880D02*
X-119529240Y-85586880D01*
X-119529240Y-85586880D02*
X-119529240Y-75306880D01*
X-119529240Y-75306880D02*
X-150249240Y-75306880D01*
X-150249240Y-75306880D02*
X-150249240Y-85586880D01*
X-136596120Y-29502560D02*
X-136596120Y-26702560D01*
X-146926120Y-29502560D02*
X-133886120Y-29502560D01*
X-146926120Y-26702560D02*
X-146926120Y-29502560D01*
X-133886120Y-26702560D02*
X-146926120Y-26702560D01*
X-133886120Y-29502560D02*
X-133886120Y-26702560D01*
X-69589000Y-52899000D02*
X-69589000Y-63179000D01*
X-49029000Y-52899000D02*
X-69589000Y-52899000D01*
X-49029000Y-63179000D02*
X-49029000Y-52899000D01*
X-69589000Y-63179000D02*
X-49029000Y-63179000D01*
X-69529000Y-55389000D02*
X-69529000Y-57039000D01*
X-49089000Y-55389000D02*
X-69529000Y-55389000D01*
X-49089000Y-60689000D02*
X-49089000Y-55389000D01*
X-69529000Y-60689000D02*
X-49089000Y-60689000D01*
X-69529000Y-59039000D02*
X-69529000Y-60689000D01*
X-69529000Y-57039000D02*
G75*
G02X-69529000Y-59039000I0J-1000000D01*
G01*
X-74669000Y-64075000D02*
X-74669000Y-74355000D01*
X-49029000Y-64075000D02*
X-74669000Y-64075000D01*
X-49029000Y-74355000D02*
X-49029000Y-64075000D01*
X-74669000Y-74355000D02*
X-49029000Y-74355000D01*
X-74609000Y-66565000D02*
X-74609000Y-68215000D01*
X-49089000Y-66565000D02*
X-74609000Y-66565000D01*
X-49089000Y-71865000D02*
X-49089000Y-66565000D01*
X-74609000Y-71865000D02*
X-49089000Y-71865000D01*
X-74609000Y-70215000D02*
X-74609000Y-71865000D01*
X-74609000Y-68215000D02*
G75*
G02X-74609000Y-70215000I0J-1000000D01*
G01*
X-69529000Y-45863000D02*
G75*
G02X-69529000Y-47863000I0J-1000000D01*
G01*
X-69529000Y-47863000D02*
X-69529000Y-49513000D01*
X-69529000Y-49513000D02*
X-49089000Y-49513000D01*
X-49089000Y-49513000D02*
X-49089000Y-44213000D01*
X-49089000Y-44213000D02*
X-69529000Y-44213000D01*
X-69529000Y-44213000D02*
X-69529000Y-45863000D01*
X-69589000Y-52003000D02*
X-49029000Y-52003000D01*
X-49029000Y-52003000D02*
X-49029000Y-41723000D01*
X-49029000Y-41723000D02*
X-69589000Y-41723000D01*
X-69589000Y-41723000D02*
X-69589000Y-52003000D01*
X-72383200Y-35688600D02*
X-70263200Y-35688600D01*
X-72383200Y-30688600D02*
X-70263200Y-30688600D01*
X-72383200Y-35808600D02*
X-70263200Y-35808600D01*
X-70263200Y-31248600D02*
X-70263200Y-30688600D01*
X-70263200Y-33438600D02*
X-70263200Y-32707600D01*
X-70263200Y-35808600D02*
X-70263200Y-35598600D01*
X-72383200Y-31248600D02*
X-72383200Y-30688600D01*
X-72383200Y-33438600D02*
X-72383200Y-32707600D01*
X-72383200Y-35808600D02*
X-72383200Y-35598600D01*
X-64312800Y-86947880D02*
X-64312800Y-87717880D01*
X-64312800Y-95027880D02*
X-64312800Y-94257880D01*
X-65682800Y-87717880D02*
X-65682800Y-94257880D01*
X-62942800Y-87717880D02*
X-65682800Y-87717880D01*
X-62942800Y-94257880D02*
X-62942800Y-87717880D01*
X-65682800Y-94257880D02*
X-62942800Y-94257880D01*
X-65337240Y-83684440D02*
X-63217240Y-83684440D01*
X-65337240Y-78684440D02*
X-63217240Y-78684440D01*
X-65337240Y-83804440D02*
X-63217240Y-83804440D01*
X-63217240Y-79244440D02*
X-63217240Y-78684440D01*
X-63217240Y-81434440D02*
X-63217240Y-80703440D01*
X-63217240Y-83804440D02*
X-63217240Y-83594440D01*
X-65337240Y-79244440D02*
X-65337240Y-78684440D01*
X-65337240Y-81434440D02*
X-65337240Y-80703440D01*
X-65337240Y-83804440D02*
X-65337240Y-83594440D01*
X-68735760Y-83684440D02*
X-66615760Y-83684440D01*
X-68735760Y-78684440D02*
X-66615760Y-78684440D01*
X-68735760Y-83804440D02*
X-66615760Y-83804440D01*
X-66615760Y-79244440D02*
X-66615760Y-78684440D01*
X-66615760Y-81434440D02*
X-66615760Y-80703440D01*
X-66615760Y-83804440D02*
X-66615760Y-83594440D01*
X-68735760Y-79244440D02*
X-68735760Y-78684440D01*
X-68735760Y-81434440D02*
X-68735760Y-80703440D01*
X-68735760Y-83804440D02*
X-68735760Y-83594440D01*
X-72200320Y-83618400D02*
X-70080320Y-83618400D01*
X-72200320Y-78618400D02*
X-70080320Y-78618400D01*
X-72200320Y-83738400D02*
X-70080320Y-83738400D01*
X-70080320Y-79178400D02*
X-70080320Y-78618400D01*
X-70080320Y-81368400D02*
X-70080320Y-80637400D01*
X-70080320Y-83738400D02*
X-70080320Y-83528400D01*
X-72200320Y-79178400D02*
X-72200320Y-78618400D01*
X-72200320Y-81368400D02*
X-72200320Y-80637400D01*
X-72200320Y-83738400D02*
X-72200320Y-83528400D01*
X-61852360Y-83648880D02*
X-59732360Y-83648880D01*
X-61852360Y-78648880D02*
X-59732360Y-78648880D01*
X-61852360Y-83768880D02*
X-59732360Y-83768880D01*
X-59732360Y-79208880D02*
X-59732360Y-78648880D01*
X-59732360Y-81398880D02*
X-59732360Y-80667880D01*
X-59732360Y-83768880D02*
X-59732360Y-83558880D01*
X-61852360Y-79208880D02*
X-61852360Y-78648880D01*
X-61852360Y-81398880D02*
X-61852360Y-80667880D01*
X-61852360Y-83768880D02*
X-61852360Y-83558880D01*
X-51301200Y-35688600D02*
X-49181200Y-35688600D01*
X-51301200Y-30688600D02*
X-49181200Y-30688600D01*
X-51301200Y-35808600D02*
X-49181200Y-35808600D01*
X-49181200Y-31248600D02*
X-49181200Y-30688600D01*
X-49181200Y-33438600D02*
X-49181200Y-32707600D01*
X-49181200Y-35808600D02*
X-49181200Y-35598600D01*
X-51301200Y-31248600D02*
X-51301200Y-30688600D01*
X-51301200Y-33438600D02*
X-51301200Y-32707600D01*
X-51301200Y-35808600D02*
X-51301200Y-35598600D01*
X-54323800Y-35688600D02*
X-52203800Y-35688600D01*
X-54323800Y-30688600D02*
X-52203800Y-30688600D01*
X-54323800Y-35808600D02*
X-52203800Y-35808600D01*
X-52203800Y-31248600D02*
X-52203800Y-30688600D01*
X-52203800Y-33438600D02*
X-52203800Y-32707600D01*
X-52203800Y-35808600D02*
X-52203800Y-35598600D01*
X-54323800Y-31248600D02*
X-54323800Y-30688600D01*
X-54323800Y-33438600D02*
X-54323800Y-32707600D01*
X-54323800Y-35808600D02*
X-54323800Y-35598600D01*
X-57321000Y-35688600D02*
X-55201000Y-35688600D01*
X-57321000Y-30688600D02*
X-55201000Y-30688600D01*
X-57321000Y-35808600D02*
X-55201000Y-35808600D01*
X-55201000Y-31248600D02*
X-55201000Y-30688600D01*
X-55201000Y-33438600D02*
X-55201000Y-32707600D01*
X-55201000Y-35808600D02*
X-55201000Y-35598600D01*
X-57321000Y-31248600D02*
X-57321000Y-30688600D01*
X-57321000Y-33438600D02*
X-57321000Y-32707600D01*
X-57321000Y-35808600D02*
X-57321000Y-35598600D01*
X-60343600Y-35688600D02*
X-58223600Y-35688600D01*
X-60343600Y-30688600D02*
X-58223600Y-30688600D01*
X-60343600Y-35808600D02*
X-58223600Y-35808600D01*
X-58223600Y-31248600D02*
X-58223600Y-30688600D01*
X-58223600Y-33438600D02*
X-58223600Y-32707600D01*
X-58223600Y-35808600D02*
X-58223600Y-35598600D01*
X-60343600Y-31248600D02*
X-60343600Y-30688600D01*
X-60343600Y-33438600D02*
X-60343600Y-32707600D01*
X-60343600Y-35808600D02*
X-60343600Y-35598600D01*
X-63366200Y-35688600D02*
X-61246200Y-35688600D01*
X-63366200Y-30688600D02*
X-61246200Y-30688600D01*
X-63366200Y-35808600D02*
X-61246200Y-35808600D01*
X-61246200Y-31248600D02*
X-61246200Y-30688600D01*
X-61246200Y-33438600D02*
X-61246200Y-32707600D01*
X-61246200Y-35808600D02*
X-61246200Y-35598600D01*
X-63366200Y-31248600D02*
X-63366200Y-30688600D01*
X-63366200Y-33438600D02*
X-63366200Y-32707600D01*
X-63366200Y-35808600D02*
X-63366200Y-35598600D01*
X-66388800Y-35688600D02*
X-64268800Y-35688600D01*
X-66388800Y-30688600D02*
X-64268800Y-30688600D01*
X-66388800Y-35808600D02*
X-64268800Y-35808600D01*
X-64268800Y-31248600D02*
X-64268800Y-30688600D01*
X-64268800Y-33438600D02*
X-64268800Y-32707600D01*
X-64268800Y-35808600D02*
X-64268800Y-35598600D01*
X-66388800Y-31248600D02*
X-66388800Y-30688600D01*
X-66388800Y-33438600D02*
X-66388800Y-32707600D01*
X-66388800Y-35808600D02*
X-66388800Y-35598600D01*
X-69386000Y-35688600D02*
X-67266000Y-35688600D01*
X-69386000Y-30688600D02*
X-67266000Y-30688600D01*
X-69386000Y-35808600D02*
X-67266000Y-35808600D01*
X-67266000Y-31248600D02*
X-67266000Y-30688600D01*
X-67266000Y-33438600D02*
X-67266000Y-32707600D01*
X-67266000Y-35808600D02*
X-67266000Y-35598600D01*
X-69386000Y-31248600D02*
X-69386000Y-30688600D01*
X-69386000Y-33438600D02*
X-69386000Y-32707600D01*
X-69386000Y-35808600D02*
X-69386000Y-35598600D01*
X-56406600Y-25935000D02*
X-54286600Y-25935000D01*
X-56406600Y-20935000D02*
X-54286600Y-20935000D01*
X-56406600Y-26055000D02*
X-54286600Y-26055000D01*
X-54286600Y-21495000D02*
X-54286600Y-20935000D01*
X-54286600Y-23685000D02*
X-54286600Y-22954000D01*
X-54286600Y-26055000D02*
X-54286600Y-25845000D01*
X-56406600Y-21495000D02*
X-56406600Y-20935000D01*
X-56406600Y-23685000D02*
X-56406600Y-22954000D01*
X-56406600Y-26055000D02*
X-56406600Y-25845000D01*
X-63823400Y-25935000D02*
X-61703400Y-25935000D01*
X-63823400Y-20935000D02*
X-61703400Y-20935000D01*
X-63823400Y-26055000D02*
X-61703400Y-26055000D01*
X-61703400Y-21495000D02*
X-61703400Y-20935000D01*
X-61703400Y-23685000D02*
X-61703400Y-22954000D01*
X-61703400Y-26055000D02*
X-61703400Y-25845000D01*
X-63823400Y-21495000D02*
X-63823400Y-20935000D01*
X-63823400Y-23685000D02*
X-63823400Y-22954000D01*
X-63823400Y-26055000D02*
X-63823400Y-25845000D01*
X-67277800Y-25935000D02*
X-65157800Y-25935000D01*
X-67277800Y-20935000D02*
X-65157800Y-20935000D01*
X-67277800Y-26055000D02*
X-65157800Y-26055000D01*
X-65157800Y-21495000D02*
X-65157800Y-20935000D01*
X-65157800Y-23685000D02*
X-65157800Y-22954000D01*
X-65157800Y-26055000D02*
X-65157800Y-25845000D01*
X-67277800Y-21495000D02*
X-67277800Y-20935000D01*
X-67277800Y-23685000D02*
X-67277800Y-22954000D01*
X-67277800Y-26055000D02*
X-67277800Y-25845000D01*
X-77844200Y-35612400D02*
X-75724200Y-35612400D01*
X-77844200Y-30612400D02*
X-75724200Y-30612400D01*
X-77844200Y-35732400D02*
X-75724200Y-35732400D01*
X-75724200Y-31172400D02*
X-75724200Y-30612400D01*
X-75724200Y-33362400D02*
X-75724200Y-32631400D01*
X-75724200Y-35732400D02*
X-75724200Y-35522400D01*
X-77844200Y-31172400D02*
X-77844200Y-30612400D01*
X-77844200Y-33362400D02*
X-77844200Y-32631400D01*
X-77844200Y-35732400D02*
X-77844200Y-35522400D01*
X-80841400Y-35612400D02*
X-78721400Y-35612400D01*
X-80841400Y-30612400D02*
X-78721400Y-30612400D01*
X-80841400Y-35732400D02*
X-78721400Y-35732400D01*
X-78721400Y-31172400D02*
X-78721400Y-30612400D01*
X-78721400Y-33362400D02*
X-78721400Y-32631400D01*
X-78721400Y-35732400D02*
X-78721400Y-35522400D01*
X-80841400Y-31172400D02*
X-80841400Y-30612400D01*
X-80841400Y-33362400D02*
X-80841400Y-32631400D01*
X-80841400Y-35732400D02*
X-80841400Y-35522400D01*
X-83838600Y-35612400D02*
X-81718600Y-35612400D01*
X-83838600Y-30612400D02*
X-81718600Y-30612400D01*
X-83838600Y-35732400D02*
X-81718600Y-35732400D01*
X-81718600Y-31172400D02*
X-81718600Y-30612400D01*
X-81718600Y-33362400D02*
X-81718600Y-32631400D01*
X-81718600Y-35732400D02*
X-81718600Y-35522400D01*
X-83838600Y-31172400D02*
X-83838600Y-30612400D01*
X-83838600Y-33362400D02*
X-83838600Y-32631400D01*
X-83838600Y-35732400D02*
X-83838600Y-35522400D01*
X-86861200Y-35612400D02*
X-84741200Y-35612400D01*
X-86861200Y-30612400D02*
X-84741200Y-30612400D01*
X-86861200Y-35732400D02*
X-84741200Y-35732400D01*
X-84741200Y-31172400D02*
X-84741200Y-30612400D01*
X-84741200Y-33362400D02*
X-84741200Y-32631400D01*
X-84741200Y-35732400D02*
X-84741200Y-35522400D01*
X-86861200Y-31172400D02*
X-86861200Y-30612400D01*
X-86861200Y-33362400D02*
X-86861200Y-32631400D01*
X-86861200Y-35732400D02*
X-86861200Y-35522400D01*
X-89883800Y-35612400D02*
X-87763800Y-35612400D01*
X-89883800Y-30612400D02*
X-87763800Y-30612400D01*
X-89883800Y-35732400D02*
X-87763800Y-35732400D01*
X-87763800Y-31172400D02*
X-87763800Y-30612400D01*
X-87763800Y-33362400D02*
X-87763800Y-32631400D01*
X-87763800Y-35732400D02*
X-87763800Y-35522400D01*
X-89883800Y-31172400D02*
X-89883800Y-30612400D01*
X-89883800Y-33362400D02*
X-89883800Y-32631400D01*
X-89883800Y-35732400D02*
X-89883800Y-35522400D01*
X-92906400Y-35612400D02*
X-90786400Y-35612400D01*
X-92906400Y-30612400D02*
X-90786400Y-30612400D01*
X-92906400Y-35732400D02*
X-90786400Y-35732400D01*
X-90786400Y-31172400D02*
X-90786400Y-30612400D01*
X-90786400Y-33362400D02*
X-90786400Y-32631400D01*
X-90786400Y-35732400D02*
X-90786400Y-35522400D01*
X-92906400Y-31172400D02*
X-92906400Y-30612400D01*
X-92906400Y-33362400D02*
X-92906400Y-32631400D01*
X-92906400Y-35732400D02*
X-92906400Y-35522400D01*
X-95903600Y-35612400D02*
X-93783600Y-35612400D01*
X-95903600Y-30612400D02*
X-93783600Y-30612400D01*
X-95903600Y-35732400D02*
X-93783600Y-35732400D01*
X-93783600Y-31172400D02*
X-93783600Y-30612400D01*
X-93783600Y-33362400D02*
X-93783600Y-32631400D01*
X-93783600Y-35732400D02*
X-93783600Y-35522400D01*
X-95903600Y-31172400D02*
X-95903600Y-30612400D01*
X-95903600Y-33362400D02*
X-95903600Y-32631400D01*
X-95903600Y-35732400D02*
X-95903600Y-35522400D01*
X-98900800Y-35612400D02*
X-96780800Y-35612400D01*
X-98900800Y-30612400D02*
X-96780800Y-30612400D01*
X-98900800Y-35732400D02*
X-96780800Y-35732400D01*
X-96780800Y-31172400D02*
X-96780800Y-30612400D01*
X-96780800Y-33362400D02*
X-96780800Y-32631400D01*
X-96780800Y-35732400D02*
X-96780800Y-35522400D01*
X-98900800Y-31172400D02*
X-98900800Y-30612400D01*
X-98900800Y-33362400D02*
X-98900800Y-32631400D01*
X-98900800Y-35732400D02*
X-98900800Y-35522400D01*
X-82975000Y-25935000D02*
X-80855000Y-25935000D01*
X-82975000Y-20935000D02*
X-80855000Y-20935000D01*
X-82975000Y-26055000D02*
X-80855000Y-26055000D01*
X-80855000Y-21495000D02*
X-80855000Y-20935000D01*
X-80855000Y-23685000D02*
X-80855000Y-22954000D01*
X-80855000Y-26055000D02*
X-80855000Y-25845000D01*
X-82975000Y-21495000D02*
X-82975000Y-20935000D01*
X-82975000Y-23685000D02*
X-82975000Y-22954000D01*
X-82975000Y-26055000D02*
X-82975000Y-25845000D01*
X-90366400Y-25935000D02*
X-88246400Y-25935000D01*
X-90366400Y-20935000D02*
X-88246400Y-20935000D01*
X-90366400Y-26055000D02*
X-88246400Y-26055000D01*
X-88246400Y-21495000D02*
X-88246400Y-20935000D01*
X-88246400Y-23685000D02*
X-88246400Y-22954000D01*
X-88246400Y-26055000D02*
X-88246400Y-25845000D01*
X-90366400Y-21495000D02*
X-90366400Y-20935000D01*
X-90366400Y-23685000D02*
X-90366400Y-22954000D01*
X-90366400Y-26055000D02*
X-90366400Y-25845000D01*
X-93846200Y-25935000D02*
X-91726200Y-25935000D01*
X-93846200Y-20935000D02*
X-91726200Y-20935000D01*
X-93846200Y-26055000D02*
X-91726200Y-26055000D01*
X-91726200Y-21495000D02*
X-91726200Y-20935000D01*
X-91726200Y-23685000D02*
X-91726200Y-22954000D01*
X-91726200Y-26055000D02*
X-91726200Y-25845000D01*
X-93846200Y-21495000D02*
X-93846200Y-20935000D01*
X-93846200Y-23685000D02*
X-93846200Y-22954000D01*
X-93846200Y-26055000D02*
X-93846200Y-25845000D01*
X-104565000Y-35688600D02*
X-102445000Y-35688600D01*
X-104565000Y-30688600D02*
X-102445000Y-30688600D01*
X-104565000Y-35808600D02*
X-102445000Y-35808600D01*
X-102445000Y-31248600D02*
X-102445000Y-30688600D01*
X-102445000Y-33438600D02*
X-102445000Y-32707600D01*
X-102445000Y-35808600D02*
X-102445000Y-35598600D01*
X-104565000Y-31248600D02*
X-104565000Y-30688600D01*
X-104565000Y-33438600D02*
X-104565000Y-32707600D01*
X-104565000Y-35808600D02*
X-104565000Y-35598600D01*
X-107562200Y-35688600D02*
X-105442200Y-35688600D01*
X-107562200Y-30688600D02*
X-105442200Y-30688600D01*
X-107562200Y-35808600D02*
X-105442200Y-35808600D01*
X-105442200Y-31248600D02*
X-105442200Y-30688600D01*
X-105442200Y-33438600D02*
X-105442200Y-32707600D01*
X-105442200Y-35808600D02*
X-105442200Y-35598600D01*
X-107562200Y-31248600D02*
X-107562200Y-30688600D01*
X-107562200Y-33438600D02*
X-107562200Y-32707600D01*
X-107562200Y-35808600D02*
X-107562200Y-35598600D01*
X-110559400Y-35688600D02*
X-108439400Y-35688600D01*
X-110559400Y-30688600D02*
X-108439400Y-30688600D01*
X-110559400Y-35808600D02*
X-108439400Y-35808600D01*
X-108439400Y-31248600D02*
X-108439400Y-30688600D01*
X-108439400Y-33438600D02*
X-108439400Y-32707600D01*
X-108439400Y-35808600D02*
X-108439400Y-35598600D01*
X-110559400Y-31248600D02*
X-110559400Y-30688600D01*
X-110559400Y-33438600D02*
X-110559400Y-32707600D01*
X-110559400Y-35808600D02*
X-110559400Y-35598600D01*
X-113582000Y-35688600D02*
X-111462000Y-35688600D01*
X-113582000Y-30688600D02*
X-111462000Y-30688600D01*
X-113582000Y-35808600D02*
X-111462000Y-35808600D01*
X-111462000Y-31248600D02*
X-111462000Y-30688600D01*
X-111462000Y-33438600D02*
X-111462000Y-32707600D01*
X-111462000Y-35808600D02*
X-111462000Y-35598600D01*
X-113582000Y-31248600D02*
X-113582000Y-30688600D01*
X-113582000Y-33438600D02*
X-113582000Y-32707600D01*
X-113582000Y-35808600D02*
X-113582000Y-35598600D01*
X-116630000Y-35688600D02*
X-114510000Y-35688600D01*
X-116630000Y-30688600D02*
X-114510000Y-30688600D01*
X-116630000Y-35808600D02*
X-114510000Y-35808600D01*
X-114510000Y-31248600D02*
X-114510000Y-30688600D01*
X-114510000Y-33438600D02*
X-114510000Y-32707600D01*
X-114510000Y-35808600D02*
X-114510000Y-35598600D01*
X-116630000Y-31248600D02*
X-116630000Y-30688600D01*
X-116630000Y-33438600D02*
X-116630000Y-32707600D01*
X-116630000Y-35808600D02*
X-116630000Y-35598600D01*
X-119652600Y-35688600D02*
X-117532600Y-35688600D01*
X-119652600Y-30688600D02*
X-117532600Y-30688600D01*
X-119652600Y-35808600D02*
X-117532600Y-35808600D01*
X-117532600Y-31248600D02*
X-117532600Y-30688600D01*
X-117532600Y-33438600D02*
X-117532600Y-32707600D01*
X-117532600Y-35808600D02*
X-117532600Y-35598600D01*
X-119652600Y-31248600D02*
X-119652600Y-30688600D01*
X-119652600Y-33438600D02*
X-119652600Y-32707600D01*
X-119652600Y-35808600D02*
X-119652600Y-35598600D01*
X-122624400Y-35688600D02*
X-120504400Y-35688600D01*
X-122624400Y-30688600D02*
X-120504400Y-30688600D01*
X-122624400Y-35808600D02*
X-120504400Y-35808600D01*
X-120504400Y-31248600D02*
X-120504400Y-30688600D01*
X-120504400Y-33438600D02*
X-120504400Y-32707600D01*
X-120504400Y-35808600D02*
X-120504400Y-35598600D01*
X-122624400Y-31248600D02*
X-122624400Y-30688600D01*
X-122624400Y-33438600D02*
X-122624400Y-32707600D01*
X-122624400Y-35808600D02*
X-122624400Y-35598600D01*
X-125621600Y-35688600D02*
X-123501600Y-35688600D01*
X-125621600Y-30688600D02*
X-123501600Y-30688600D01*
X-125621600Y-35808600D02*
X-123501600Y-35808600D01*
X-123501600Y-31248600D02*
X-123501600Y-30688600D01*
X-123501600Y-33438600D02*
X-123501600Y-32707600D01*
X-123501600Y-35808600D02*
X-123501600Y-35598600D01*
X-125621600Y-31248600D02*
X-125621600Y-30688600D01*
X-125621600Y-33438600D02*
X-125621600Y-32707600D01*
X-125621600Y-35808600D02*
X-125621600Y-35598600D01*
X-109492600Y-25604800D02*
X-107372600Y-25604800D01*
X-109492600Y-20604800D02*
X-107372600Y-20604800D01*
X-109492600Y-25724800D02*
X-107372600Y-25724800D01*
X-107372600Y-21164800D02*
X-107372600Y-20604800D01*
X-107372600Y-23354800D02*
X-107372600Y-22623800D01*
X-107372600Y-25724800D02*
X-107372600Y-25514800D01*
X-109492600Y-21164800D02*
X-109492600Y-20604800D01*
X-109492600Y-23354800D02*
X-109492600Y-22623800D01*
X-109492600Y-25724800D02*
X-109492600Y-25514800D01*
X-116884000Y-25604800D02*
X-114764000Y-25604800D01*
X-116884000Y-20604800D02*
X-114764000Y-20604800D01*
X-116884000Y-25724800D02*
X-114764000Y-25724800D01*
X-114764000Y-21164800D02*
X-114764000Y-20604800D01*
X-114764000Y-23354800D02*
X-114764000Y-22623800D01*
X-114764000Y-25724800D02*
X-114764000Y-25514800D01*
X-116884000Y-21164800D02*
X-116884000Y-20604800D01*
X-116884000Y-23354800D02*
X-116884000Y-22623800D01*
X-116884000Y-25724800D02*
X-116884000Y-25514800D01*
X-120338400Y-25604800D02*
X-118218400Y-25604800D01*
X-120338400Y-20604800D02*
X-118218400Y-20604800D01*
X-120338400Y-25724800D02*
X-118218400Y-25724800D01*
X-118218400Y-21164800D02*
X-118218400Y-20604800D01*
X-118218400Y-23354800D02*
X-118218400Y-22623800D01*
X-118218400Y-25724800D02*
X-118218400Y-25514800D01*
X-120338400Y-21164800D02*
X-120338400Y-20604800D01*
X-120338400Y-23354800D02*
X-120338400Y-22623800D01*
X-120338400Y-25724800D02*
X-120338400Y-25514800D01*
X-131133400Y-35663200D02*
X-129013400Y-35663200D01*
X-131133400Y-30663200D02*
X-129013400Y-30663200D01*
X-131133400Y-35783200D02*
X-129013400Y-35783200D01*
X-129013400Y-31223200D02*
X-129013400Y-30663200D01*
X-129013400Y-33413200D02*
X-129013400Y-32682200D01*
X-129013400Y-35783200D02*
X-129013400Y-35573200D01*
X-131133400Y-31223200D02*
X-131133400Y-30663200D01*
X-131133400Y-33413200D02*
X-131133400Y-32682200D01*
X-131133400Y-35783200D02*
X-131133400Y-35573200D01*
X-134130600Y-35663200D02*
X-132010600Y-35663200D01*
X-134130600Y-30663200D02*
X-132010600Y-30663200D01*
X-134130600Y-35783200D02*
X-132010600Y-35783200D01*
X-132010600Y-31223200D02*
X-132010600Y-30663200D01*
X-132010600Y-33413200D02*
X-132010600Y-32682200D01*
X-132010600Y-35783200D02*
X-132010600Y-35573200D01*
X-134130600Y-31223200D02*
X-134130600Y-30663200D01*
X-134130600Y-33413200D02*
X-134130600Y-32682200D01*
X-134130600Y-35783200D02*
X-134130600Y-35573200D01*
X-137127800Y-35663200D02*
X-135007800Y-35663200D01*
X-137127800Y-30663200D02*
X-135007800Y-30663200D01*
X-137127800Y-35783200D02*
X-135007800Y-35783200D01*
X-135007800Y-31223200D02*
X-135007800Y-30663200D01*
X-135007800Y-33413200D02*
X-135007800Y-32682200D01*
X-135007800Y-35783200D02*
X-135007800Y-35573200D01*
X-137127800Y-31223200D02*
X-137127800Y-30663200D01*
X-137127800Y-33413200D02*
X-137127800Y-32682200D01*
X-137127800Y-35783200D02*
X-137127800Y-35573200D01*
X-140150400Y-35663200D02*
X-138030400Y-35663200D01*
X-140150400Y-30663200D02*
X-138030400Y-30663200D01*
X-140150400Y-35783200D02*
X-138030400Y-35783200D01*
X-138030400Y-31223200D02*
X-138030400Y-30663200D01*
X-138030400Y-33413200D02*
X-138030400Y-32682200D01*
X-138030400Y-35783200D02*
X-138030400Y-35573200D01*
X-140150400Y-31223200D02*
X-140150400Y-30663200D01*
X-140150400Y-33413200D02*
X-140150400Y-32682200D01*
X-140150400Y-35783200D02*
X-140150400Y-35573200D01*
X-143198400Y-35663200D02*
X-141078400Y-35663200D01*
X-143198400Y-30663200D02*
X-141078400Y-30663200D01*
X-143198400Y-35783200D02*
X-141078400Y-35783200D01*
X-141078400Y-31223200D02*
X-141078400Y-30663200D01*
X-141078400Y-33413200D02*
X-141078400Y-32682200D01*
X-141078400Y-35783200D02*
X-141078400Y-35573200D01*
X-143198400Y-31223200D02*
X-143198400Y-30663200D01*
X-143198400Y-33413200D02*
X-143198400Y-32682200D01*
X-143198400Y-35783200D02*
X-143198400Y-35573200D01*
X-146221000Y-35663200D02*
X-144101000Y-35663200D01*
X-146221000Y-30663200D02*
X-144101000Y-30663200D01*
X-146221000Y-35783200D02*
X-144101000Y-35783200D01*
X-144101000Y-31223200D02*
X-144101000Y-30663200D01*
X-144101000Y-33413200D02*
X-144101000Y-32682200D01*
X-144101000Y-35783200D02*
X-144101000Y-35573200D01*
X-146221000Y-31223200D02*
X-146221000Y-30663200D01*
X-146221000Y-33413200D02*
X-146221000Y-32682200D01*
X-146221000Y-35783200D02*
X-146221000Y-35573200D01*
X-149192800Y-35663200D02*
X-147072800Y-35663200D01*
X-149192800Y-30663200D02*
X-147072800Y-30663200D01*
X-149192800Y-35783200D02*
X-147072800Y-35783200D01*
X-147072800Y-31223200D02*
X-147072800Y-30663200D01*
X-147072800Y-33413200D02*
X-147072800Y-32682200D01*
X-147072800Y-35783200D02*
X-147072800Y-35573200D01*
X-149192800Y-31223200D02*
X-149192800Y-30663200D01*
X-149192800Y-33413200D02*
X-149192800Y-32682200D01*
X-149192800Y-35783200D02*
X-149192800Y-35573200D01*
X-152190000Y-35663200D02*
X-150070000Y-35663200D01*
X-152190000Y-30663200D02*
X-150070000Y-30663200D01*
X-152190000Y-35783200D02*
X-150070000Y-35783200D01*
X-150070000Y-31223200D02*
X-150070000Y-30663200D01*
X-150070000Y-33413200D02*
X-150070000Y-32682200D01*
X-150070000Y-35783200D02*
X-150070000Y-35573200D01*
X-152190000Y-31223200D02*
X-152190000Y-30663200D01*
X-152190000Y-33413200D02*
X-152190000Y-32682200D01*
X-152190000Y-35783200D02*
X-152190000Y-35573200D01*
X-136035600Y-25681000D02*
X-133915600Y-25681000D01*
X-136035600Y-20681000D02*
X-133915600Y-20681000D01*
X-136035600Y-25801000D02*
X-133915600Y-25801000D01*
X-133915600Y-21241000D02*
X-133915600Y-20681000D01*
X-133915600Y-23431000D02*
X-133915600Y-22700000D01*
X-133915600Y-25801000D02*
X-133915600Y-25591000D01*
X-136035600Y-21241000D02*
X-136035600Y-20681000D01*
X-136035600Y-23431000D02*
X-136035600Y-22700000D01*
X-136035600Y-25801000D02*
X-136035600Y-25591000D01*
X-143401600Y-25681000D02*
X-141281600Y-25681000D01*
X-143401600Y-20681000D02*
X-141281600Y-20681000D01*
X-143401600Y-25801000D02*
X-141281600Y-25801000D01*
X-141281600Y-21241000D02*
X-141281600Y-20681000D01*
X-141281600Y-23431000D02*
X-141281600Y-22700000D01*
X-141281600Y-25801000D02*
X-141281600Y-25591000D01*
X-143401600Y-21241000D02*
X-143401600Y-20681000D01*
X-143401600Y-23431000D02*
X-143401600Y-22700000D01*
X-143401600Y-25801000D02*
X-143401600Y-25591000D01*
X-146856000Y-25681000D02*
X-144736000Y-25681000D01*
X-146856000Y-20681000D02*
X-144736000Y-20681000D01*
X-146856000Y-25801000D02*
X-144736000Y-25801000D01*
X-144736000Y-21241000D02*
X-144736000Y-20681000D01*
X-144736000Y-23431000D02*
X-144736000Y-22700000D01*
X-144736000Y-25801000D02*
X-144736000Y-25591000D01*
X-146856000Y-21241000D02*
X-146856000Y-20681000D01*
X-146856000Y-23431000D02*
X-146856000Y-22700000D01*
X-146856000Y-25801000D02*
X-146856000Y-25591000D01*
X-73183000Y-43674000D02*
X-73183000Y-44932000D01*
X-71343000Y-43674000D02*
X-71343000Y-44932000D01*
X-73183000Y-54850000D02*
X-73183000Y-56108000D01*
X-71343000Y-54850000D02*
X-71343000Y-56108000D01*
X-73056000Y-60565000D02*
X-73056000Y-61823000D01*
X-71216000Y-60565000D02*
X-71216000Y-61823000D01*
X-99726000Y-43674000D02*
X-99726000Y-44932000D01*
X-97886000Y-43674000D02*
X-97886000Y-44932000D01*
X-126396000Y-43674000D02*
X-126396000Y-44932000D01*
X-124556000Y-43674000D02*
X-124556000Y-44932000D01*
X-152558000Y-43674000D02*
X-152558000Y-44932000D01*
X-150718000Y-43674000D02*
X-150718000Y-44932000D01*
X-99726000Y-54763000D02*
X-99726000Y-56021000D01*
X-97886000Y-54763000D02*
X-97886000Y-56021000D01*
X-126269000Y-54469000D02*
X-126269000Y-55727000D01*
X-124429000Y-54469000D02*
X-124429000Y-55727000D01*
X-152558000Y-60438000D02*
X-152558000Y-61696000D01*
X-150718000Y-60438000D02*
X-150718000Y-61696000D01*
X-99726000Y-60438000D02*
X-99726000Y-61696000D01*
X-97886000Y-60438000D02*
X-97886000Y-61696000D01*
X-126269000Y-60438000D02*
X-126269000Y-61696000D01*
X-124429000Y-60438000D02*
X-124429000Y-61696000D01*
X-152558000Y-54850000D02*
X-152558000Y-56108000D01*
X-150718000Y-54850000D02*
X-150718000Y-56108000D01*
X-94422480Y-76724480D02*
X-94422480Y-77982480D01*
X-92582480Y-76724480D02*
X-92582480Y-77982480D01*
X-117348520Y-76861640D02*
X-117348520Y-78119640D01*
X-115508520Y-76861640D02*
X-115508520Y-78119640D01*
X-97003120Y-88225600D02*
X-97003120Y-89483600D01*
X-95163120Y-88225600D02*
X-95163120Y-89483600D01*
X-152822160Y-76810840D02*
X-152822160Y-78068840D01*
X-150982160Y-76810840D02*
X-150982160Y-78068840D01*
X-122433600Y-87895400D02*
X-122433600Y-89153400D01*
X-120593600Y-87895400D02*
X-120593600Y-89153400D01*
X-153040600Y-88124000D02*
X-153040600Y-89382000D01*
X-151200600Y-88124000D02*
X-151200600Y-89382000D01*
X-52441800Y-104616560D02*
X-52441800Y-101956560D01*
X-146481800Y-104616560D02*
X-52441800Y-104616560D01*
X-146481800Y-101956560D02*
X-52441800Y-101956560D01*
X-146481800Y-104616560D02*
X-146481800Y-101956560D01*
X-147751800Y-104616560D02*
X-149081800Y-104616560D01*
X-149081800Y-104616560D02*
X-149081800Y-103286560D01*
X-57210000Y-94021600D02*
X-57210000Y-96681600D01*
X-52070000Y-94021600D02*
X-57210000Y-94021600D01*
X-52070000Y-96681600D02*
X-57210000Y-96681600D01*
X-52070000Y-94021600D02*
X-52070000Y-96681600D01*
X-50800000Y-94021600D02*
X-49470000Y-94021600D01*
X-49470000Y-94021600D02*
X-49470000Y-95351600D01*
X-49470000Y-88332000D02*
X-49470000Y-89662000D01*
X-50800000Y-88332000D02*
X-49470000Y-88332000D01*
X-52070000Y-88332000D02*
X-52070000Y-90992000D01*
X-52070000Y-90992000D02*
X-57210000Y-90992000D01*
X-52070000Y-88332000D02*
X-57210000Y-88332000D01*
X-57210000Y-88332000D02*
X-57210000Y-90992000D01*
X-62162360Y-94268040D02*
X-59422360Y-94268040D01*
X-59422360Y-94268040D02*
X-59422360Y-87728040D01*
X-59422360Y-87728040D02*
X-62162360Y-87728040D01*
X-62162360Y-87728040D02*
X-62162360Y-94268040D01*
X-60792360Y-95038040D02*
X-60792360Y-94268040D01*
X-60792360Y-86958040D02*
X-60792360Y-87728040D01*
X-71302880Y-86947880D02*
X-71302880Y-87717880D01*
X-71302880Y-95027880D02*
X-71302880Y-94257880D01*
X-72672880Y-87717880D02*
X-72672880Y-94257880D01*
X-69932880Y-87717880D02*
X-72672880Y-87717880D01*
X-69932880Y-94257880D02*
X-69932880Y-87717880D01*
X-72672880Y-94257880D02*
X-69932880Y-94257880D01*
X-69111800Y-94257880D02*
X-66371800Y-94257880D01*
X-66371800Y-94257880D02*
X-66371800Y-87717880D01*
X-66371800Y-87717880D02*
X-69111800Y-87717880D01*
X-69111800Y-87717880D02*
X-69111800Y-94257880D01*
X-67741800Y-95027880D02*
X-67741800Y-94257880D01*
X-67741800Y-86947880D02*
X-67741800Y-87717880D01*
X-131719320Y-39479680D02*
X-131719320Y-36679680D01*
X-152209320Y-39479680D02*
X-129009320Y-39479680D01*
X-152209320Y-36679680D02*
X-152209320Y-39479680D01*
X-129009320Y-36679680D02*
X-152209320Y-36679680D01*
X-129009320Y-39479680D02*
X-129009320Y-36679680D01*
X-107343120Y-29527960D02*
X-107343120Y-26727960D01*
X-107343120Y-26727960D02*
X-120383120Y-26727960D01*
X-120383120Y-26727960D02*
X-120383120Y-29527960D01*
X-120383120Y-29527960D02*
X-107343120Y-29527960D01*
X-110053120Y-29527960D02*
X-110053120Y-26727960D01*
X-102400280Y-39418720D02*
X-102400280Y-36618720D01*
X-102400280Y-36618720D02*
X-125600280Y-36618720D01*
X-125600280Y-36618720D02*
X-125600280Y-39418720D01*
X-125600280Y-39418720D02*
X-102400280Y-39418720D01*
X-105110280Y-39418720D02*
X-105110280Y-36618720D01*
X-83439000Y-29680360D02*
X-83439000Y-26880360D01*
X-93769000Y-29680360D02*
X-80729000Y-29680360D01*
X-93769000Y-26880360D02*
X-93769000Y-29680360D01*
X-80729000Y-26880360D02*
X-93769000Y-26880360D01*
X-80729000Y-29680360D02*
X-80729000Y-26880360D01*
X-78450440Y-39474600D02*
X-78450440Y-36674600D01*
X-98940440Y-39474600D02*
X-75740440Y-39474600D01*
X-98940440Y-36674600D02*
X-98940440Y-39474600D01*
X-75740440Y-36674600D02*
X-98940440Y-36674600D01*
X-75740440Y-39474600D02*
X-75740440Y-36674600D01*
X-54328240Y-29649880D02*
X-54328240Y-26849880D01*
X-54328240Y-26849880D02*
X-67368240Y-26849880D01*
X-67368240Y-26849880D02*
X-67368240Y-29649880D01*
X-67368240Y-29649880D02*
X-54328240Y-29649880D01*
X-57038240Y-29649880D02*
X-57038240Y-26849880D01*
X-49187280Y-39388240D02*
X-49187280Y-36588240D01*
X-49187280Y-36588240D02*
X-72387280Y-36588240D01*
X-72387280Y-36588240D02*
X-72387280Y-39388240D01*
X-72387280Y-39388240D02*
X-49187280Y-39388240D01*
X-51897280Y-39388240D02*
X-51897280Y-36588240D01*
X-150250200Y-90617800D02*
G75*
G02X-150250200Y-92617800I0J-1000000D01*
G01*
X-150250200Y-92617800D02*
X-150250200Y-94267800D01*
X-150250200Y-94267800D02*
X-124730200Y-94267800D01*
X-124730200Y-94267800D02*
X-124730200Y-88967800D01*
X-124730200Y-88967800D02*
X-150250200Y-88967800D01*
X-150250200Y-88967800D02*
X-150250200Y-90617800D01*
X-150310200Y-96757800D02*
X-124670200Y-96757800D01*
X-124670200Y-96757800D02*
X-124670200Y-86477800D01*
X-124670200Y-86477800D02*
X-150310200Y-86477800D01*
X-150310200Y-86477800D02*
X-150310200Y-96757800D01*
X-114614000Y-79472280D02*
G75*
G02X-114614000Y-81472280I0J-1000000D01*
G01*
X-114614000Y-81472280D02*
X-114614000Y-83122280D01*
X-114614000Y-83122280D02*
X-96714000Y-83122280D01*
X-96714000Y-83122280D02*
X-96714000Y-77822280D01*
X-96714000Y-77822280D02*
X-114614000Y-77822280D01*
X-114614000Y-77822280D02*
X-114614000Y-79472280D01*
X-114674000Y-85612280D02*
X-96654000Y-85612280D01*
X-96654000Y-85612280D02*
X-96654000Y-75332280D01*
X-96654000Y-75332280D02*
X-114674000Y-75332280D01*
X-114674000Y-75332280D02*
X-114674000Y-85612280D01*
X-91758120Y-75235760D02*
X-91758120Y-85515760D01*
X-73738120Y-75235760D02*
X-91758120Y-75235760D01*
X-73738120Y-85515760D02*
X-73738120Y-75235760D01*
X-91758120Y-85515760D02*
X-73738120Y-85515760D01*
X-91698120Y-77725760D02*
X-91698120Y-79375760D01*
X-73798120Y-77725760D02*
X-91698120Y-77725760D01*
X-73798120Y-83025760D02*
X-73798120Y-77725760D01*
X-91698120Y-83025760D02*
X-73798120Y-83025760D01*
X-91698120Y-81375760D02*
X-91698120Y-83025760D01*
X-91698120Y-79375760D02*
G75*
G02X-91698120Y-81375760I0J-1000000D01*
G01*
X-119931800Y-86579400D02*
X-119931800Y-96859400D01*
X-99371800Y-86579400D02*
X-119931800Y-86579400D01*
X-99371800Y-96859400D02*
X-99371800Y-86579400D01*
X-119931800Y-96859400D02*
X-99371800Y-96859400D01*
X-119871800Y-89069400D02*
X-119871800Y-90719400D01*
X-99431800Y-89069400D02*
X-119871800Y-89069400D01*
X-99431800Y-94369400D02*
X-99431800Y-89069400D01*
X-119871800Y-94369400D02*
X-99431800Y-94369400D01*
X-119871800Y-92719400D02*
X-119871800Y-94369400D01*
X-119871800Y-90719400D02*
G75*
G02X-119871800Y-92719400I0J-1000000D01*
G01*
X-94167000Y-90821000D02*
G75*
G02X-94167000Y-92821000I0J-1000000D01*
G01*
X-94167000Y-92821000D02*
X-94167000Y-94471000D01*
X-94167000Y-94471000D02*
X-73727000Y-94471000D01*
X-73727000Y-94471000D02*
X-73727000Y-89171000D01*
X-73727000Y-89171000D02*
X-94167000Y-89171000D01*
X-94167000Y-89171000D02*
X-94167000Y-90821000D01*
X-94227000Y-96961000D02*
X-73667000Y-96961000D01*
X-73667000Y-96961000D02*
X-73667000Y-86681000D01*
X-73667000Y-86681000D02*
X-94227000Y-86681000D01*
X-94227000Y-86681000D02*
X-94227000Y-96961000D01*
X-149345000Y-52899000D02*
X-149345000Y-63179000D01*
X-128785000Y-52899000D02*
X-149345000Y-52899000D01*
X-128785000Y-63179000D02*
X-128785000Y-52899000D01*
X-149345000Y-63179000D02*
X-128785000Y-63179000D01*
X-149285000Y-55389000D02*
X-149285000Y-57039000D01*
X-128845000Y-55389000D02*
X-149285000Y-55389000D01*
X-128845000Y-60689000D02*
X-128845000Y-55389000D01*
X-149285000Y-60689000D02*
X-128845000Y-60689000D01*
X-149285000Y-59039000D02*
X-149285000Y-60689000D01*
X-149285000Y-57039000D02*
G75*
G02X-149285000Y-59039000I0J-1000000D01*
G01*
X-149345000Y-41723000D02*
X-149345000Y-52003000D01*
X-128785000Y-41723000D02*
X-149345000Y-41723000D01*
X-128785000Y-52003000D02*
X-128785000Y-41723000D01*
X-149345000Y-52003000D02*
X-128785000Y-52003000D01*
X-149285000Y-44213000D02*
X-149285000Y-45863000D01*
X-128845000Y-44213000D02*
X-149285000Y-44213000D01*
X-128845000Y-49513000D02*
X-128845000Y-44213000D01*
X-149285000Y-49513000D02*
X-128845000Y-49513000D01*
X-149285000Y-47863000D02*
X-149285000Y-49513000D01*
X-149285000Y-45863000D02*
G75*
G02X-149285000Y-47863000I0J-1000000D01*
G01*
X-154238000Y-68215000D02*
G75*
G02X-154238000Y-70215000I0J-1000000D01*
G01*
X-154238000Y-70215000D02*
X-154238000Y-71865000D01*
X-154238000Y-71865000D02*
X-128718000Y-71865000D01*
X-128718000Y-71865000D02*
X-128718000Y-66565000D01*
X-128718000Y-66565000D02*
X-154238000Y-66565000D01*
X-154238000Y-66565000D02*
X-154238000Y-68215000D01*
X-154298000Y-74355000D02*
X-128658000Y-74355000D01*
X-128658000Y-74355000D02*
X-128658000Y-64075000D01*
X-128658000Y-64075000D02*
X-154298000Y-64075000D01*
X-154298000Y-64075000D02*
X-154298000Y-74355000D01*
X-122742000Y-57039000D02*
G75*
G02X-122742000Y-59039000I0J-1000000D01*
G01*
X-122742000Y-59039000D02*
X-122742000Y-60689000D01*
X-122742000Y-60689000D02*
X-102302000Y-60689000D01*
X-102302000Y-60689000D02*
X-102302000Y-55389000D01*
X-102302000Y-55389000D02*
X-122742000Y-55389000D01*
X-122742000Y-55389000D02*
X-122742000Y-57039000D01*
X-122802000Y-63179000D02*
X-102242000Y-63179000D01*
X-102242000Y-63179000D02*
X-102242000Y-52899000D01*
X-102242000Y-52899000D02*
X-122802000Y-52899000D01*
X-122802000Y-52899000D02*
X-122802000Y-63179000D01*
X-122742000Y-45863000D02*
G75*
G02X-122742000Y-47863000I0J-1000000D01*
G01*
X-122742000Y-47863000D02*
X-122742000Y-49513000D01*
X-122742000Y-49513000D02*
X-102302000Y-49513000D01*
X-102302000Y-49513000D02*
X-102302000Y-44213000D01*
X-102302000Y-44213000D02*
X-122742000Y-44213000D01*
X-122742000Y-44213000D02*
X-122742000Y-45863000D01*
X-122802000Y-52003000D02*
X-102242000Y-52003000D01*
X-102242000Y-52003000D02*
X-102242000Y-41723000D01*
X-102242000Y-41723000D02*
X-122802000Y-41723000D01*
X-122802000Y-41723000D02*
X-122802000Y-52003000D01*
X-127755000Y-64075000D02*
X-127755000Y-74355000D01*
X-102115000Y-64075000D02*
X-127755000Y-64075000D01*
X-102115000Y-74355000D02*
X-102115000Y-64075000D01*
X-127755000Y-74355000D02*
X-102115000Y-74355000D01*
X-127695000Y-66565000D02*
X-127695000Y-68215000D01*
X-102175000Y-66565000D02*
X-127695000Y-66565000D01*
X-102175000Y-71865000D02*
X-102175000Y-66565000D01*
X-127695000Y-71865000D02*
X-102175000Y-71865000D01*
X-127695000Y-70215000D02*
X-127695000Y-71865000D01*
X-127695000Y-68215000D02*
G75*
G02X-127695000Y-70215000I0J-1000000D01*
G01*
X-96259000Y-52899000D02*
X-96259000Y-63179000D01*
X-75699000Y-52899000D02*
X-96259000Y-52899000D01*
X-75699000Y-63179000D02*
X-75699000Y-52899000D01*
X-96259000Y-63179000D02*
X-75699000Y-63179000D01*
X-96199000Y-55389000D02*
X-96199000Y-57039000D01*
X-75759000Y-55389000D02*
X-96199000Y-55389000D01*
X-75759000Y-60689000D02*
X-75759000Y-55389000D01*
X-96199000Y-60689000D02*
X-75759000Y-60689000D01*
X-96199000Y-59039000D02*
X-96199000Y-60689000D01*
X-96199000Y-57039000D02*
G75*
G02X-96199000Y-59039000I0J-1000000D01*
G01*
X-96199000Y-45863000D02*
G75*
G02X-96199000Y-47863000I0J-1000000D01*
G01*
X-96199000Y-47863000D02*
X-96199000Y-49513000D01*
X-96199000Y-49513000D02*
X-75759000Y-49513000D01*
X-75759000Y-49513000D02*
X-75759000Y-44213000D01*
X-75759000Y-44213000D02*
X-96199000Y-44213000D01*
X-96199000Y-44213000D02*
X-96199000Y-45863000D01*
X-96259000Y-52003000D02*
X-75699000Y-52003000D01*
X-75699000Y-52003000D02*
X-75699000Y-41723000D01*
X-75699000Y-41723000D02*
X-96259000Y-41723000D01*
X-96259000Y-41723000D02*
X-96259000Y-52003000D01*
X-101152000Y-68215000D02*
G75*
G02X-101152000Y-70215000I0J-1000000D01*
G01*
X-101152000Y-70215000D02*
X-101152000Y-71865000D01*
X-101152000Y-71865000D02*
X-75632000Y-71865000D01*
X-75632000Y-71865000D02*
X-75632000Y-66565000D01*
X-75632000Y-66565000D02*
X-101152000Y-66565000D01*
X-101152000Y-66565000D02*
X-101152000Y-68215000D01*
X-101212000Y-74355000D02*
X-75572000Y-74355000D01*
X-75572000Y-74355000D02*
X-75572000Y-64075000D01*
X-75572000Y-64075000D02*
X-101212000Y-64075000D01*
X-101212000Y-64075000D02*
X-101212000Y-74355000D01*
D10*
X-137844801Y-79921480D02*
X-137940040Y-79873860D01*
X-138082897Y-79873860D01*
X-138225754Y-79921480D01*
X-138320992Y-80016718D01*
X-138368611Y-80111956D01*
X-138416230Y-80302432D01*
X-138416230Y-80445289D01*
X-138368611Y-80635765D01*
X-138320992Y-80731003D01*
X-138225754Y-80826241D01*
X-138082897Y-80873860D01*
X-137987659Y-80873860D01*
X-137844801Y-80826241D01*
X-137797182Y-80778622D01*
X-137797182Y-80445289D01*
X-137987659Y-80445289D01*
X-137416230Y-80588146D02*
X-136940040Y-80588146D01*
X-137511468Y-80873860D02*
X-137178135Y-79873860D01*
X-136844801Y-80873860D01*
X-136035278Y-80873860D02*
X-136511468Y-80873860D01*
X-136511468Y-79873860D01*
X-135749563Y-79969099D02*
X-135701944Y-79921480D01*
X-135606706Y-79873860D01*
X-135368611Y-79873860D01*
X-135273373Y-79921480D01*
X-135225754Y-79969099D01*
X-135178135Y-80064337D01*
X-135178135Y-80159575D01*
X-135225754Y-80302432D01*
X-135797182Y-80873860D01*
X-135178135Y-80873860D01*
X-134797182Y-79969099D02*
X-134749563Y-79921480D01*
X-134654325Y-79873860D01*
X-134416230Y-79873860D01*
X-134320992Y-79921480D01*
X-134273373Y-79969099D01*
X-134225754Y-80064337D01*
X-134225754Y-80159575D01*
X-134273373Y-80302432D01*
X-134844801Y-80873860D01*
X-134225754Y-80873860D01*
X-133940039Y-79873860D02*
X-133606706Y-80873860D01*
X-133273373Y-79873860D01*
X-132416230Y-80873860D02*
X-132987659Y-80873860D01*
X-132701944Y-80873860D02*
X-132701944Y-79873860D01*
X-132797182Y-80016718D01*
X-132892420Y-80111956D01*
X-132987659Y-80159575D01*
X-131797182Y-79873860D02*
X-131701944Y-79873860D01*
X-131606706Y-79921480D01*
X-131559087Y-79969099D01*
X-131511468Y-80064337D01*
X-131463849Y-80254813D01*
X-131463849Y-80492908D01*
X-131511468Y-80683384D01*
X-131559087Y-80778622D01*
X-131606706Y-80826241D01*
X-131701944Y-80873860D01*
X-131797182Y-80873860D01*
X-131892420Y-80826241D01*
X-131940039Y-80778622D01*
X-131987659Y-80683384D01*
X-132035278Y-80492908D01*
X-132035278Y-80254813D01*
X-131987659Y-80064337D01*
X-131940039Y-79969099D01*
X-131892420Y-79921480D01*
X-131797182Y-79873860D01*
X-132660045Y-29644173D02*
X-131993379Y-29644173D01*
X-133040998Y-29882268D02*
X-132326712Y-30120363D01*
X-132326712Y-29501316D01*
X-132993379Y-29215601D02*
X-132993379Y-28548935D01*
X-131993379Y-28977506D01*
X-132993379Y-27977506D02*
X-132993379Y-27882268D01*
X-132945760Y-27787030D01*
X-132898140Y-27739411D01*
X-132802902Y-27691792D01*
X-132612426Y-27644173D01*
X-132374331Y-27644173D01*
X-132183855Y-27691792D01*
X-132088617Y-27739411D01*
X-132040998Y-27787030D01*
X-131993379Y-27882268D01*
X-131993379Y-27977506D01*
X-132040998Y-28072744D01*
X-132088617Y-28120363D01*
X-132183855Y-28167982D01*
X-132374331Y-28215601D01*
X-132612426Y-28215601D01*
X-132802902Y-28167982D01*
X-132898140Y-28120363D01*
X-132945760Y-28072744D01*
X-132993379Y-27977506D01*
X-131993379Y-27263220D02*
X-131993379Y-27025125D01*
X-132183855Y-27025125D01*
X-132231474Y-27120363D01*
X-132326712Y-27215601D01*
X-132469569Y-27263220D01*
X-132707664Y-27263220D01*
X-132850521Y-27215601D01*
X-132945760Y-27120363D01*
X-132993379Y-26977506D01*
X-132993379Y-26787030D01*
X-132945760Y-26644173D01*
X-132850521Y-26548935D01*
X-132707664Y-26501316D01*
X-132469569Y-26501316D01*
X-132326712Y-26548935D01*
X-132231474Y-26644173D01*
X-132183855Y-26739411D01*
X-131993379Y-26739411D01*
X-131993379Y-26501316D01*
X-62428047Y-57592980D02*
X-61761380Y-57592980D01*
X-62189952Y-58592980D01*
X-60951857Y-57926314D02*
X-60951857Y-58592980D01*
X-61189952Y-57545361D02*
X-61428047Y-58259647D01*
X-60809000Y-58259647D01*
X-59951857Y-58592980D02*
X-60428047Y-58592980D01*
X-60428047Y-57592980D01*
X-59666142Y-58545361D02*
X-59523285Y-58592980D01*
X-59285190Y-58592980D01*
X-59189952Y-58545361D01*
X-59142333Y-58497742D01*
X-59094714Y-58402504D01*
X-59094714Y-58307266D01*
X-59142333Y-58212028D01*
X-59189952Y-58164409D01*
X-59285190Y-58116790D01*
X-59475666Y-58069171D01*
X-59570904Y-58021552D01*
X-59618523Y-57973933D01*
X-59666142Y-57878695D01*
X-59666142Y-57783457D01*
X-59618523Y-57688219D01*
X-59570904Y-57640600D01*
X-59475666Y-57592980D01*
X-59237571Y-57592980D01*
X-59094714Y-57640600D01*
X-58142333Y-58592980D02*
X-58713761Y-58592980D01*
X-58428047Y-58592980D02*
X-58428047Y-57592980D01*
X-58523285Y-57735838D01*
X-58618523Y-57831076D01*
X-58713761Y-57878695D01*
X-57285190Y-57592980D02*
X-57475666Y-57592980D01*
X-57570904Y-57640600D01*
X-57618523Y-57688219D01*
X-57713761Y-57831076D01*
X-57761380Y-58021552D01*
X-57761380Y-58402504D01*
X-57713761Y-58497742D01*
X-57666142Y-58545361D01*
X-57570904Y-58592980D01*
X-57380428Y-58592980D01*
X-57285190Y-58545361D01*
X-57237571Y-58497742D01*
X-57189952Y-58402504D01*
X-57189952Y-58164409D01*
X-57237571Y-58069171D01*
X-57285190Y-58021552D01*
X-57380428Y-57973933D01*
X-57570904Y-57973933D01*
X-57666142Y-58021552D01*
X-57713761Y-58069171D01*
X-57761380Y-58164409D01*
X-56713761Y-58592980D02*
X-56523285Y-58592980D01*
X-56428047Y-58545361D01*
X-56380428Y-58497742D01*
X-56285190Y-58354885D01*
X-56237571Y-58164409D01*
X-56237571Y-57783457D01*
X-56285190Y-57688219D01*
X-56332809Y-57640600D01*
X-56428047Y-57592980D01*
X-56618523Y-57592980D01*
X-56713761Y-57640600D01*
X-56761380Y-57688219D01*
X-56809000Y-57783457D01*
X-56809000Y-58021552D01*
X-56761380Y-58116790D01*
X-56713761Y-58164409D01*
X-56618523Y-58212028D01*
X-56428047Y-58212028D01*
X-56332809Y-58164409D01*
X-56285190Y-58116790D01*
X-56237571Y-58021552D01*
X-64917247Y-68616580D02*
X-64250580Y-68616580D01*
X-64679152Y-69616580D01*
X-63441057Y-68949914D02*
X-63441057Y-69616580D01*
X-63679152Y-68568961D02*
X-63917247Y-69283247D01*
X-63298200Y-69283247D01*
X-62441057Y-69616580D02*
X-62917247Y-69616580D01*
X-62917247Y-68616580D01*
X-62155342Y-69568961D02*
X-62012485Y-69616580D01*
X-61774390Y-69616580D01*
X-61679152Y-69568961D01*
X-61631533Y-69521342D01*
X-61583914Y-69426104D01*
X-61583914Y-69330866D01*
X-61631533Y-69235628D01*
X-61679152Y-69188009D01*
X-61774390Y-69140390D01*
X-61964866Y-69092771D01*
X-62060104Y-69045152D01*
X-62107723Y-68997533D01*
X-62155342Y-68902295D01*
X-62155342Y-68807057D01*
X-62107723Y-68711819D01*
X-62060104Y-68664200D01*
X-61964866Y-68616580D01*
X-61726771Y-68616580D01*
X-61583914Y-68664200D01*
X-60679152Y-68616580D02*
X-61155342Y-68616580D01*
X-61202961Y-69092771D01*
X-61155342Y-69045152D01*
X-61060104Y-68997533D01*
X-60822009Y-68997533D01*
X-60726771Y-69045152D01*
X-60679152Y-69092771D01*
X-60631533Y-69188009D01*
X-60631533Y-69426104D01*
X-60679152Y-69521342D01*
X-60726771Y-69568961D01*
X-60822009Y-69616580D01*
X-61060104Y-69616580D01*
X-61155342Y-69568961D01*
X-61202961Y-69521342D01*
X-59774390Y-68949914D02*
X-59774390Y-69616580D01*
X-60012485Y-68568961D02*
X-60250580Y-69283247D01*
X-59631533Y-69283247D01*
X-58726771Y-69616580D02*
X-59298200Y-69616580D01*
X-59012485Y-69616580D02*
X-59012485Y-68616580D01*
X-59107723Y-68759438D01*
X-59202961Y-68854676D01*
X-59298200Y-68902295D01*
X-62123247Y-46162980D02*
X-61456580Y-46162980D01*
X-61885152Y-47162980D01*
X-60647057Y-46496314D02*
X-60647057Y-47162980D01*
X-60885152Y-46115361D02*
X-61123247Y-46829647D01*
X-60504200Y-46829647D01*
X-59647057Y-47162980D02*
X-60123247Y-47162980D01*
X-60123247Y-46162980D01*
X-59361342Y-47115361D02*
X-59218485Y-47162980D01*
X-58980390Y-47162980D01*
X-58885152Y-47115361D01*
X-58837533Y-47067742D01*
X-58789914Y-46972504D01*
X-58789914Y-46877266D01*
X-58837533Y-46782028D01*
X-58885152Y-46734409D01*
X-58980390Y-46686790D01*
X-59170866Y-46639171D01*
X-59266104Y-46591552D01*
X-59313723Y-46543933D01*
X-59361342Y-46448695D01*
X-59361342Y-46353457D01*
X-59313723Y-46258219D01*
X-59266104Y-46210600D01*
X-59170866Y-46162980D01*
X-58932771Y-46162980D01*
X-58789914Y-46210600D01*
X-57837533Y-47162980D02*
X-58408961Y-47162980D01*
X-58123247Y-47162980D02*
X-58123247Y-46162980D01*
X-58218485Y-46305838D01*
X-58313723Y-46401076D01*
X-58408961Y-46448695D01*
X-56980390Y-46162980D02*
X-57170866Y-46162980D01*
X-57266104Y-46210600D01*
X-57313723Y-46258219D01*
X-57408961Y-46401076D01*
X-57456580Y-46591552D01*
X-57456580Y-46972504D01*
X-57408961Y-47067742D01*
X-57361342Y-47115361D01*
X-57266104Y-47162980D01*
X-57075628Y-47162980D01*
X-56980390Y-47115361D01*
X-56932771Y-47067742D01*
X-56885152Y-46972504D01*
X-56885152Y-46734409D01*
X-56932771Y-46639171D01*
X-56980390Y-46591552D01*
X-57075628Y-46543933D01*
X-57266104Y-46543933D01*
X-57361342Y-46591552D01*
X-57408961Y-46639171D01*
X-57456580Y-46734409D01*
X-56408961Y-47162980D02*
X-56218485Y-47162980D01*
X-56123247Y-47115361D01*
X-56075628Y-47067742D01*
X-55980390Y-46924885D01*
X-55932771Y-46734409D01*
X-55932771Y-46353457D01*
X-55980390Y-46258219D01*
X-56028009Y-46210600D01*
X-56123247Y-46162980D01*
X-56313723Y-46162980D01*
X-56408961Y-46210600D01*
X-56456580Y-46258219D01*
X-56504200Y-46353457D01*
X-56504200Y-46591552D01*
X-56456580Y-46686790D01*
X-56408961Y-46734409D01*
X-56313723Y-46782028D01*
X-56123247Y-46782028D01*
X-56028009Y-46734409D01*
X-55980390Y-46686790D01*
X-55932771Y-46591552D01*
X-64496605Y-92356773D02*
X-63829939Y-92356773D01*
X-64877558Y-92594868D02*
X-64163272Y-92832963D01*
X-64163272Y-92213916D01*
X-64829939Y-91928201D02*
X-64829939Y-91261535D01*
X-63829939Y-91690106D01*
X-64829939Y-90690106D02*
X-64829939Y-90594868D01*
X-64782320Y-90499630D01*
X-64734700Y-90452011D01*
X-64639462Y-90404392D01*
X-64448986Y-90356773D01*
X-64210891Y-90356773D01*
X-64020415Y-90404392D01*
X-63925177Y-90452011D01*
X-63877558Y-90499630D01*
X-63829939Y-90594868D01*
X-63829939Y-90690106D01*
X-63877558Y-90785344D01*
X-63925177Y-90832963D01*
X-64020415Y-90880582D01*
X-64210891Y-90928201D01*
X-64448986Y-90928201D01*
X-64639462Y-90880582D01*
X-64734700Y-90832963D01*
X-64782320Y-90785344D01*
X-64829939Y-90690106D01*
X-63829939Y-89975820D02*
X-63829939Y-89737725D01*
X-64020415Y-89737725D01*
X-64068034Y-89832963D01*
X-64163272Y-89928201D01*
X-64306129Y-89975820D01*
X-64544224Y-89975820D01*
X-64687081Y-89928201D01*
X-64782320Y-89832963D01*
X-64829939Y-89690106D01*
X-64829939Y-89499630D01*
X-64782320Y-89356773D01*
X-64687081Y-89261535D01*
X-64544224Y-89213916D01*
X-64306129Y-89213916D01*
X-64163272Y-89261535D01*
X-64068034Y-89356773D01*
X-64020415Y-89452011D01*
X-63829939Y-89452011D01*
X-63829939Y-89213916D01*
X-65098514Y-76983340D02*
X-65098514Y-77792864D01*
X-65050895Y-77888102D01*
X-65003276Y-77935721D01*
X-64908038Y-77983340D01*
X-64717561Y-77983340D01*
X-64622323Y-77935721D01*
X-64574704Y-77888102D01*
X-64527085Y-77792864D01*
X-64527085Y-76983340D01*
X-64288990Y-76615960D02*
X-63288990Y-76615960D01*
X-64050895Y-77983340D02*
X-64050895Y-76983340D01*
X-63812800Y-76983340D01*
X-63669942Y-77030960D01*
X-63574704Y-77126198D01*
X-63527085Y-77221436D01*
X-63479466Y-77411912D01*
X-63479466Y-77554769D01*
X-63527085Y-77745245D01*
X-63574704Y-77840483D01*
X-63669942Y-77935721D01*
X-63812800Y-77983340D01*
X-64050895Y-77983340D01*
X-69017662Y-76615960D02*
X-68017662Y-76615960D01*
X-68208139Y-77983340D02*
X-68541472Y-77507150D01*
X-68779567Y-77983340D02*
X-68779567Y-76983340D01*
X-68398615Y-76983340D01*
X-68303377Y-77030960D01*
X-68255758Y-77078579D01*
X-68208139Y-77173817D01*
X-68208139Y-77316674D01*
X-68255758Y-77411912D01*
X-68303377Y-77459531D01*
X-68398615Y-77507150D01*
X-68779567Y-77507150D01*
X-68017662Y-76615960D02*
X-67065281Y-76615960D01*
X-67827186Y-77935721D02*
X-67684329Y-77983340D01*
X-67446234Y-77983340D01*
X-67350996Y-77935721D01*
X-67303377Y-77888102D01*
X-67255758Y-77792864D01*
X-67255758Y-77697626D01*
X-67303377Y-77602388D01*
X-67350996Y-77554769D01*
X-67446234Y-77507150D01*
X-67636710Y-77459531D01*
X-67731948Y-77411912D01*
X-67779567Y-77364293D01*
X-67827186Y-77269055D01*
X-67827186Y-77173817D01*
X-67779567Y-77078579D01*
X-67731948Y-77030960D01*
X-67636710Y-76983340D01*
X-67398615Y-76983340D01*
X-67255758Y-77030960D01*
X-67065281Y-76615960D02*
X-66303377Y-76615960D01*
X-66970043Y-76983340D02*
X-66398615Y-76983340D01*
X-66684329Y-77983340D02*
X-66684329Y-76983340D01*
X-72697790Y-76600720D02*
X-71697790Y-76600720D01*
X-72126361Y-77444291D02*
X-71983504Y-77491910D01*
X-71935885Y-77539529D01*
X-71888266Y-77634767D01*
X-71888266Y-77777624D01*
X-71935885Y-77872862D01*
X-71983504Y-77920481D01*
X-72078742Y-77968100D01*
X-72459695Y-77968100D01*
X-72459695Y-76968100D01*
X-72126361Y-76968100D01*
X-72031123Y-77015720D01*
X-71983504Y-77063339D01*
X-71935885Y-77158577D01*
X-71935885Y-77253815D01*
X-71983504Y-77349053D01*
X-72031123Y-77396672D01*
X-72126361Y-77444291D01*
X-72459695Y-77444291D01*
X-71697790Y-76600720D02*
X-70697790Y-76600720D01*
X-71126361Y-77444291D02*
X-70983504Y-77491910D01*
X-70935885Y-77539529D01*
X-70888266Y-77634767D01*
X-70888266Y-77777624D01*
X-70935885Y-77872862D01*
X-70983504Y-77920481D01*
X-71078742Y-77968100D01*
X-71459695Y-77968100D01*
X-71459695Y-76968100D01*
X-71126361Y-76968100D01*
X-71031123Y-77015720D01*
X-70983504Y-77063339D01*
X-70935885Y-77158577D01*
X-70935885Y-77253815D01*
X-70983504Y-77349053D01*
X-71031123Y-77396672D01*
X-71126361Y-77444291D01*
X-71459695Y-77444291D01*
X-70697790Y-76600720D02*
X-69745409Y-76600720D01*
X-70507314Y-77920481D02*
X-70364457Y-77968100D01*
X-70126361Y-77968100D01*
X-70031123Y-77920481D01*
X-69983504Y-77872862D01*
X-69935885Y-77777624D01*
X-69935885Y-77682386D01*
X-69983504Y-77587148D01*
X-70031123Y-77539529D01*
X-70126361Y-77491910D01*
X-70316838Y-77444291D01*
X-70412076Y-77396672D01*
X-70459695Y-77349053D01*
X-70507314Y-77253815D01*
X-70507314Y-77158577D01*
X-70459695Y-77063339D01*
X-70412076Y-77015720D01*
X-70316838Y-76968100D01*
X-70078742Y-76968100D01*
X-69935885Y-77015720D01*
X-62268241Y-76615960D02*
X-61411099Y-76615960D01*
X-62077765Y-77697626D02*
X-61601575Y-77697626D01*
X-62173003Y-77983340D02*
X-61839670Y-76983340D01*
X-61506337Y-77983340D01*
X-61411099Y-76615960D02*
X-60411099Y-76615960D01*
X-60839670Y-77459531D02*
X-60696813Y-77507150D01*
X-60649194Y-77554769D01*
X-60601575Y-77650007D01*
X-60601575Y-77792864D01*
X-60649194Y-77888102D01*
X-60696813Y-77935721D01*
X-60792051Y-77983340D01*
X-61173003Y-77983340D01*
X-61173003Y-76983340D01*
X-60839670Y-76983340D01*
X-60744432Y-77030960D01*
X-60696813Y-77078579D01*
X-60649194Y-77173817D01*
X-60649194Y-77269055D01*
X-60696813Y-77364293D01*
X-60744432Y-77411912D01*
X-60839670Y-77459531D01*
X-61173003Y-77459531D01*
X-60411099Y-76615960D02*
X-59458718Y-76615960D01*
X-60220622Y-77935721D02*
X-60077765Y-77983340D01*
X-59839670Y-77983340D01*
X-59744432Y-77935721D01*
X-59696813Y-77888102D01*
X-59649194Y-77792864D01*
X-59649194Y-77697626D01*
X-59696813Y-77602388D01*
X-59744432Y-77554769D01*
X-59839670Y-77507150D01*
X-60030146Y-77459531D01*
X-60125384Y-77411912D01*
X-60173003Y-77364293D01*
X-60220622Y-77269055D01*
X-60220622Y-77173817D01*
X-60173003Y-77078579D01*
X-60125384Y-77030960D01*
X-60030146Y-76983340D01*
X-59792051Y-76983340D01*
X-59649194Y-77030960D01*
X-56951380Y-18744600D02*
X-55903761Y-18744600D01*
X-56522809Y-19111980D02*
X-56332333Y-19111980D01*
X-56237095Y-19159600D01*
X-56141857Y-19254838D01*
X-56094238Y-19445314D01*
X-56094238Y-19778647D01*
X-56141857Y-19969123D01*
X-56237095Y-20064361D01*
X-56332333Y-20111980D01*
X-56522809Y-20111980D01*
X-56618047Y-20064361D01*
X-56713285Y-19969123D01*
X-56760904Y-19778647D01*
X-56760904Y-19445314D01*
X-56713285Y-19254838D01*
X-56618047Y-19159600D01*
X-56522809Y-19111980D01*
X-55903761Y-18744600D02*
X-54999000Y-18744600D01*
X-55665666Y-19588171D02*
X-55332333Y-19588171D01*
X-55189476Y-20111980D02*
X-55665666Y-20111980D01*
X-55665666Y-19111980D01*
X-55189476Y-19111980D01*
X-54999000Y-18744600D02*
X-54046619Y-18744600D01*
X-54856142Y-19111980D02*
X-54237095Y-19111980D01*
X-54570428Y-19492933D01*
X-54427571Y-19492933D01*
X-54332333Y-19540552D01*
X-54284714Y-19588171D01*
X-54237095Y-19683409D01*
X-54237095Y-19921504D01*
X-54284714Y-20016742D01*
X-54332333Y-20064361D01*
X-54427571Y-20111980D01*
X-54713285Y-20111980D01*
X-54808523Y-20064361D01*
X-54856142Y-20016742D01*
X-64191971Y-18744600D02*
X-63191971Y-18744600D01*
X-63382447Y-20016742D02*
X-63430066Y-20064361D01*
X-63572923Y-20111980D01*
X-63668161Y-20111980D01*
X-63811019Y-20064361D01*
X-63906257Y-19969123D01*
X-63953876Y-19873885D01*
X-64001495Y-19683409D01*
X-64001495Y-19540552D01*
X-63953876Y-19350076D01*
X-63906257Y-19254838D01*
X-63811019Y-19159600D01*
X-63668161Y-19111980D01*
X-63572923Y-19111980D01*
X-63430066Y-19159600D01*
X-63382447Y-19207219D01*
X-63191971Y-18744600D02*
X-62287209Y-18744600D01*
X-62953876Y-19588171D02*
X-62620542Y-19588171D01*
X-62477685Y-20111980D02*
X-62953876Y-20111980D01*
X-62953876Y-19111980D01*
X-62477685Y-19111980D01*
X-62287209Y-18744600D02*
X-61334828Y-18744600D01*
X-62144352Y-19111980D02*
X-61525304Y-19111980D01*
X-61858638Y-19492933D01*
X-61715780Y-19492933D01*
X-61620542Y-19540552D01*
X-61572923Y-19588171D01*
X-61525304Y-19683409D01*
X-61525304Y-19921504D01*
X-61572923Y-20016742D01*
X-61620542Y-20064361D01*
X-61715780Y-20111980D01*
X-62001495Y-20111980D01*
X-62096733Y-20064361D01*
X-62144352Y-20016742D01*
X-67573352Y-18795400D02*
X-66763828Y-18795400D01*
X-66859066Y-20162780D02*
X-67335257Y-20162780D01*
X-67335257Y-19162780D01*
X-66763828Y-18795400D02*
X-65763828Y-18795400D01*
X-66525733Y-20162780D02*
X-66525733Y-19162780D01*
X-66287638Y-19162780D01*
X-66144780Y-19210400D01*
X-66049542Y-19305638D01*
X-66001923Y-19400876D01*
X-65954304Y-19591352D01*
X-65954304Y-19734209D01*
X-66001923Y-19924685D01*
X-66049542Y-20019923D01*
X-66144780Y-20115161D01*
X-66287638Y-20162780D01*
X-66525733Y-20162780D01*
X-65763828Y-18795400D02*
X-64811447Y-18795400D01*
X-65620971Y-19162780D02*
X-65001923Y-19162780D01*
X-65335257Y-19543733D01*
X-65192400Y-19543733D01*
X-65097161Y-19591352D01*
X-65049542Y-19638971D01*
X-65001923Y-19734209D01*
X-65001923Y-19972304D01*
X-65049542Y-20067542D01*
X-65097161Y-20115161D01*
X-65192400Y-20162780D01*
X-65478114Y-20162780D01*
X-65573352Y-20115161D01*
X-65620971Y-20067542D01*
X-83392780Y-19074800D02*
X-82345161Y-19074800D01*
X-82964209Y-19442180D02*
X-82773733Y-19442180D01*
X-82678495Y-19489800D01*
X-82583257Y-19585038D01*
X-82535638Y-19775514D01*
X-82535638Y-20108847D01*
X-82583257Y-20299323D01*
X-82678495Y-20394561D01*
X-82773733Y-20442180D01*
X-82964209Y-20442180D01*
X-83059447Y-20394561D01*
X-83154685Y-20299323D01*
X-83202304Y-20108847D01*
X-83202304Y-19775514D01*
X-83154685Y-19585038D01*
X-83059447Y-19489800D01*
X-82964209Y-19442180D01*
X-82345161Y-19074800D02*
X-81440400Y-19074800D01*
X-82107066Y-19918371D02*
X-81773733Y-19918371D01*
X-81630876Y-20442180D02*
X-82107066Y-20442180D01*
X-82107066Y-19442180D01*
X-81630876Y-19442180D01*
X-81440400Y-19074800D02*
X-80488019Y-19074800D01*
X-81249923Y-19537419D02*
X-81202304Y-19489800D01*
X-81107066Y-19442180D01*
X-80868971Y-19442180D01*
X-80773733Y-19489800D01*
X-80726114Y-19537419D01*
X-80678495Y-19632657D01*
X-80678495Y-19727895D01*
X-80726114Y-19870752D01*
X-81297542Y-20442180D01*
X-80678495Y-20442180D01*
X-90785771Y-19024000D02*
X-89785771Y-19024000D01*
X-89976247Y-20296142D02*
X-90023866Y-20343761D01*
X-90166723Y-20391380D01*
X-90261961Y-20391380D01*
X-90404819Y-20343761D01*
X-90500057Y-20248523D01*
X-90547676Y-20153285D01*
X-90595295Y-19962809D01*
X-90595295Y-19819952D01*
X-90547676Y-19629476D01*
X-90500057Y-19534238D01*
X-90404819Y-19439000D01*
X-90261961Y-19391380D01*
X-90166723Y-19391380D01*
X-90023866Y-19439000D01*
X-89976247Y-19486619D01*
X-89785771Y-19024000D02*
X-88881009Y-19024000D01*
X-89547676Y-19867571D02*
X-89214342Y-19867571D01*
X-89071485Y-20391380D02*
X-89547676Y-20391380D01*
X-89547676Y-19391380D01*
X-89071485Y-19391380D01*
X-88881009Y-19024000D02*
X-87928628Y-19024000D01*
X-88690533Y-19486619D02*
X-88642914Y-19439000D01*
X-88547676Y-19391380D01*
X-88309580Y-19391380D01*
X-88214342Y-19439000D01*
X-88166723Y-19486619D01*
X-88119104Y-19581857D01*
X-88119104Y-19677095D01*
X-88166723Y-19819952D01*
X-88738152Y-20391380D01*
X-88119104Y-20391380D01*
X-94116352Y-19024000D02*
X-93306828Y-19024000D01*
X-93402066Y-20391380D02*
X-93878257Y-20391380D01*
X-93878257Y-19391380D01*
X-93306828Y-19024000D02*
X-92306828Y-19024000D01*
X-93068733Y-20391380D02*
X-93068733Y-19391380D01*
X-92830638Y-19391380D01*
X-92687780Y-19439000D01*
X-92592542Y-19534238D01*
X-92544923Y-19629476D01*
X-92497304Y-19819952D01*
X-92497304Y-19962809D01*
X-92544923Y-20153285D01*
X-92592542Y-20248523D01*
X-92687780Y-20343761D01*
X-92830638Y-20391380D01*
X-93068733Y-20391380D01*
X-92306828Y-19024000D02*
X-91354447Y-19024000D01*
X-92116352Y-19486619D02*
X-92068733Y-19439000D01*
X-91973495Y-19391380D01*
X-91735400Y-19391380D01*
X-91640161Y-19439000D01*
X-91592542Y-19486619D01*
X-91544923Y-19581857D01*
X-91544923Y-19677095D01*
X-91592542Y-19819952D01*
X-92163971Y-20391380D01*
X-91544923Y-20391380D01*
X-109910380Y-18744600D02*
X-108862761Y-18744600D01*
X-109481809Y-19111980D02*
X-109291333Y-19111980D01*
X-109196095Y-19159600D01*
X-109100857Y-19254838D01*
X-109053238Y-19445314D01*
X-109053238Y-19778647D01*
X-109100857Y-19969123D01*
X-109196095Y-20064361D01*
X-109291333Y-20111980D01*
X-109481809Y-20111980D01*
X-109577047Y-20064361D01*
X-109672285Y-19969123D01*
X-109719904Y-19778647D01*
X-109719904Y-19445314D01*
X-109672285Y-19254838D01*
X-109577047Y-19159600D01*
X-109481809Y-19111980D01*
X-108862761Y-18744600D02*
X-107958000Y-18744600D01*
X-108624666Y-19588171D02*
X-108291333Y-19588171D01*
X-108148476Y-20111980D02*
X-108624666Y-20111980D01*
X-108624666Y-19111980D01*
X-108148476Y-19111980D01*
X-107958000Y-18744600D02*
X-107005619Y-18744600D01*
X-107196095Y-20111980D02*
X-107767523Y-20111980D01*
X-107481809Y-20111980D02*
X-107481809Y-19111980D01*
X-107577047Y-19254838D01*
X-107672285Y-19350076D01*
X-107767523Y-19397695D01*
X-117303371Y-18668400D02*
X-116303371Y-18668400D01*
X-116493847Y-19940542D02*
X-116541466Y-19988161D01*
X-116684323Y-20035780D01*
X-116779561Y-20035780D01*
X-116922419Y-19988161D01*
X-117017657Y-19892923D01*
X-117065276Y-19797685D01*
X-117112895Y-19607209D01*
X-117112895Y-19464352D01*
X-117065276Y-19273876D01*
X-117017657Y-19178638D01*
X-116922419Y-19083400D01*
X-116779561Y-19035780D01*
X-116684323Y-19035780D01*
X-116541466Y-19083400D01*
X-116493847Y-19131019D01*
X-116303371Y-18668400D02*
X-115398609Y-18668400D01*
X-116065276Y-19511971D02*
X-115731942Y-19511971D01*
X-115589085Y-20035780D02*
X-116065276Y-20035780D01*
X-116065276Y-19035780D01*
X-115589085Y-19035780D01*
X-115398609Y-18668400D02*
X-114446228Y-18668400D01*
X-114636704Y-20035780D02*
X-115208133Y-20035780D01*
X-114922419Y-20035780D02*
X-114922419Y-19035780D01*
X-115017657Y-19178638D01*
X-115112895Y-19273876D01*
X-115208133Y-19321495D01*
X-120659352Y-18719200D02*
X-119849828Y-18719200D01*
X-119945066Y-20086580D02*
X-120421257Y-20086580D01*
X-120421257Y-19086580D01*
X-119849828Y-18719200D02*
X-118849828Y-18719200D01*
X-119611733Y-20086580D02*
X-119611733Y-19086580D01*
X-119373638Y-19086580D01*
X-119230780Y-19134200D01*
X-119135542Y-19229438D01*
X-119087923Y-19324676D01*
X-119040304Y-19515152D01*
X-119040304Y-19658009D01*
X-119087923Y-19848485D01*
X-119135542Y-19943723D01*
X-119230780Y-20038961D01*
X-119373638Y-20086580D01*
X-119611733Y-20086580D01*
X-118849828Y-18719200D02*
X-117897447Y-18719200D01*
X-118087923Y-20086580D02*
X-118659352Y-20086580D01*
X-118373638Y-20086580D02*
X-118373638Y-19086580D01*
X-118468876Y-19229438D01*
X-118564114Y-19324676D01*
X-118659352Y-19372295D01*
X-136478780Y-18770000D02*
X-135431161Y-18770000D01*
X-136050209Y-19137380D02*
X-135859733Y-19137380D01*
X-135764495Y-19185000D01*
X-135669257Y-19280238D01*
X-135621638Y-19470714D01*
X-135621638Y-19804047D01*
X-135669257Y-19994523D01*
X-135764495Y-20089761D01*
X-135859733Y-20137380D01*
X-136050209Y-20137380D01*
X-136145447Y-20089761D01*
X-136240685Y-19994523D01*
X-136288304Y-19804047D01*
X-136288304Y-19470714D01*
X-136240685Y-19280238D01*
X-136145447Y-19185000D01*
X-136050209Y-19137380D01*
X-135431161Y-18770000D02*
X-134526400Y-18770000D01*
X-135193066Y-19613571D02*
X-134859733Y-19613571D01*
X-134716876Y-20137380D02*
X-135193066Y-20137380D01*
X-135193066Y-19137380D01*
X-134716876Y-19137380D01*
X-134526400Y-18770000D02*
X-133574019Y-18770000D01*
X-134097828Y-19137380D02*
X-134002590Y-19137380D01*
X-133907352Y-19185000D01*
X-133859733Y-19232619D01*
X-133812114Y-19327857D01*
X-133764495Y-19518333D01*
X-133764495Y-19756428D01*
X-133812114Y-19946904D01*
X-133859733Y-20042142D01*
X-133907352Y-20089761D01*
X-134002590Y-20137380D01*
X-134097828Y-20137380D01*
X-134193066Y-20089761D01*
X-134240685Y-20042142D01*
X-134288304Y-19946904D01*
X-134335923Y-19756428D01*
X-134335923Y-19518333D01*
X-134288304Y-19327857D01*
X-134240685Y-19232619D01*
X-134193066Y-19185000D01*
X-134097828Y-19137380D01*
X-143719371Y-18744600D02*
X-142719371Y-18744600D01*
X-142909847Y-20016742D02*
X-142957466Y-20064361D01*
X-143100323Y-20111980D01*
X-143195561Y-20111980D01*
X-143338419Y-20064361D01*
X-143433657Y-19969123D01*
X-143481276Y-19873885D01*
X-143528895Y-19683409D01*
X-143528895Y-19540552D01*
X-143481276Y-19350076D01*
X-143433657Y-19254838D01*
X-143338419Y-19159600D01*
X-143195561Y-19111980D01*
X-143100323Y-19111980D01*
X-142957466Y-19159600D01*
X-142909847Y-19207219D01*
X-142719371Y-18744600D02*
X-141814609Y-18744600D01*
X-142481276Y-19588171D02*
X-142147942Y-19588171D01*
X-142005085Y-20111980D02*
X-142481276Y-20111980D01*
X-142481276Y-19111980D01*
X-142005085Y-19111980D01*
X-141814609Y-18744600D02*
X-140862228Y-18744600D01*
X-141386038Y-19111980D02*
X-141290800Y-19111980D01*
X-141195561Y-19159600D01*
X-141147942Y-19207219D01*
X-141100323Y-19302457D01*
X-141052704Y-19492933D01*
X-141052704Y-19731028D01*
X-141100323Y-19921504D01*
X-141147942Y-20016742D01*
X-141195561Y-20064361D01*
X-141290800Y-20111980D01*
X-141386038Y-20111980D01*
X-141481276Y-20064361D01*
X-141528895Y-20016742D01*
X-141576514Y-19921504D01*
X-141624133Y-19731028D01*
X-141624133Y-19492933D01*
X-141576514Y-19302457D01*
X-141528895Y-19207219D01*
X-141481276Y-19159600D01*
X-141386038Y-19111980D01*
X-147202352Y-18719200D02*
X-146392828Y-18719200D01*
X-146488066Y-20086580D02*
X-146964257Y-20086580D01*
X-146964257Y-19086580D01*
X-146392828Y-18719200D02*
X-145392828Y-18719200D01*
X-146154733Y-20086580D02*
X-146154733Y-19086580D01*
X-145916638Y-19086580D01*
X-145773780Y-19134200D01*
X-145678542Y-19229438D01*
X-145630923Y-19324676D01*
X-145583304Y-19515152D01*
X-145583304Y-19658009D01*
X-145630923Y-19848485D01*
X-145678542Y-19943723D01*
X-145773780Y-20038961D01*
X-145916638Y-20086580D01*
X-146154733Y-20086580D01*
X-145392828Y-18719200D02*
X-144440447Y-18719200D01*
X-144964257Y-19086580D02*
X-144869019Y-19086580D01*
X-144773780Y-19134200D01*
X-144726161Y-19181819D01*
X-144678542Y-19277057D01*
X-144630923Y-19467533D01*
X-144630923Y-19705628D01*
X-144678542Y-19896104D01*
X-144726161Y-19991342D01*
X-144773780Y-20038961D01*
X-144869019Y-20086580D01*
X-144964257Y-20086580D01*
X-145059495Y-20038961D01*
X-145107114Y-19991342D01*
X-145154733Y-19896104D01*
X-145202352Y-19705628D01*
X-145202352Y-19467533D01*
X-145154733Y-19277057D01*
X-145107114Y-19181819D01*
X-145059495Y-19134200D01*
X-144964257Y-19086580D01*
X-74860619Y-46017285D02*
X-74860619Y-45922047D01*
X-74813000Y-45826809D01*
X-74765380Y-45779190D01*
X-74670142Y-45731571D01*
X-74479666Y-45683952D01*
X-74241571Y-45683952D01*
X-74051095Y-45731571D01*
X-73955857Y-45779190D01*
X-73908238Y-45826809D01*
X-73860619Y-45922047D01*
X-73860619Y-46017285D01*
X-73908238Y-46112523D01*
X-73955857Y-46160142D01*
X-74051095Y-46207761D01*
X-74241571Y-46255380D01*
X-74479666Y-46255380D01*
X-74670142Y-46207761D01*
X-74765380Y-46160142D01*
X-74813000Y-46112523D01*
X-74860619Y-46017285D01*
X-73955857Y-45255380D02*
X-73908238Y-45207761D01*
X-73860619Y-45255380D01*
X-73908238Y-45303000D01*
X-73955857Y-45255380D01*
X-73860619Y-45255380D01*
X-73860619Y-44255380D02*
X-73860619Y-44826809D01*
X-73860619Y-44541095D02*
X-74860619Y-44541095D01*
X-74717761Y-44636333D01*
X-74622523Y-44731571D01*
X-74574904Y-44826809D01*
X-74527285Y-43826809D02*
X-73527285Y-43826809D01*
X-74003476Y-43350619D02*
X-73908238Y-43303000D01*
X-73860619Y-43207761D01*
X-74003476Y-43826809D02*
X-73908238Y-43779190D01*
X-73860619Y-43683952D01*
X-73860619Y-43493476D01*
X-73908238Y-43398238D01*
X-74003476Y-43350619D01*
X-74527285Y-43350619D01*
X-74384428Y-42445857D02*
X-74384428Y-42779190D01*
X-73860619Y-42779190D02*
X-74860619Y-42779190D01*
X-74860619Y-42303000D01*
X-74860619Y-57193285D02*
X-74860619Y-57098047D01*
X-74813000Y-57002809D01*
X-74765380Y-56955190D01*
X-74670142Y-56907571D01*
X-74479666Y-56859952D01*
X-74241571Y-56859952D01*
X-74051095Y-56907571D01*
X-73955857Y-56955190D01*
X-73908238Y-57002809D01*
X-73860619Y-57098047D01*
X-73860619Y-57193285D01*
X-73908238Y-57288523D01*
X-73955857Y-57336142D01*
X-74051095Y-57383761D01*
X-74241571Y-57431380D01*
X-74479666Y-57431380D01*
X-74670142Y-57383761D01*
X-74765380Y-57336142D01*
X-74813000Y-57288523D01*
X-74860619Y-57193285D01*
X-73955857Y-56431380D02*
X-73908238Y-56383761D01*
X-73860619Y-56431380D01*
X-73908238Y-56479000D01*
X-73955857Y-56431380D01*
X-73860619Y-56431380D01*
X-73860619Y-55431380D02*
X-73860619Y-56002809D01*
X-73860619Y-55717095D02*
X-74860619Y-55717095D01*
X-74717761Y-55812333D01*
X-74622523Y-55907571D01*
X-74574904Y-56002809D01*
X-74527285Y-55002809D02*
X-73527285Y-55002809D01*
X-74003476Y-54526619D02*
X-73908238Y-54479000D01*
X-73860619Y-54383761D01*
X-74003476Y-55002809D02*
X-73908238Y-54955190D01*
X-73860619Y-54859952D01*
X-73860619Y-54669476D01*
X-73908238Y-54574238D01*
X-74003476Y-54526619D01*
X-74527285Y-54526619D01*
X-74384428Y-53621857D02*
X-74384428Y-53955190D01*
X-73860619Y-53955190D02*
X-74860619Y-53955190D01*
X-74860619Y-53479000D01*
X-74733619Y-62908285D02*
X-74733619Y-62813047D01*
X-74686000Y-62717809D01*
X-74638380Y-62670190D01*
X-74543142Y-62622571D01*
X-74352666Y-62574952D01*
X-74114571Y-62574952D01*
X-73924095Y-62622571D01*
X-73828857Y-62670190D01*
X-73781238Y-62717809D01*
X-73733619Y-62813047D01*
X-73733619Y-62908285D01*
X-73781238Y-63003523D01*
X-73828857Y-63051142D01*
X-73924095Y-63098761D01*
X-74114571Y-63146380D01*
X-74352666Y-63146380D01*
X-74543142Y-63098761D01*
X-74638380Y-63051142D01*
X-74686000Y-63003523D01*
X-74733619Y-62908285D01*
X-73828857Y-62146380D02*
X-73781238Y-62098761D01*
X-73733619Y-62146380D01*
X-73781238Y-62194000D01*
X-73828857Y-62146380D01*
X-73733619Y-62146380D01*
X-73733619Y-61146380D02*
X-73733619Y-61717809D01*
X-73733619Y-61432095D02*
X-74733619Y-61432095D01*
X-74590761Y-61527333D01*
X-74495523Y-61622571D01*
X-74447904Y-61717809D01*
X-74400285Y-60717809D02*
X-73400285Y-60717809D01*
X-73876476Y-60241619D02*
X-73781238Y-60194000D01*
X-73733619Y-60098761D01*
X-73876476Y-60717809D02*
X-73781238Y-60670190D01*
X-73733619Y-60574952D01*
X-73733619Y-60384476D01*
X-73781238Y-60289238D01*
X-73876476Y-60241619D01*
X-74400285Y-60241619D01*
X-74257428Y-59336857D02*
X-74257428Y-59670190D01*
X-73733619Y-59670190D02*
X-74733619Y-59670190D01*
X-74733619Y-59194000D01*
X-101403619Y-46017285D02*
X-101403619Y-45922047D01*
X-101356000Y-45826809D01*
X-101308380Y-45779190D01*
X-101213142Y-45731571D01*
X-101022666Y-45683952D01*
X-100784571Y-45683952D01*
X-100594095Y-45731571D01*
X-100498857Y-45779190D01*
X-100451238Y-45826809D01*
X-100403619Y-45922047D01*
X-100403619Y-46017285D01*
X-100451238Y-46112523D01*
X-100498857Y-46160142D01*
X-100594095Y-46207761D01*
X-100784571Y-46255380D01*
X-101022666Y-46255380D01*
X-101213142Y-46207761D01*
X-101308380Y-46160142D01*
X-101356000Y-46112523D01*
X-101403619Y-46017285D01*
X-100498857Y-45255380D02*
X-100451238Y-45207761D01*
X-100403619Y-45255380D01*
X-100451238Y-45303000D01*
X-100498857Y-45255380D01*
X-100403619Y-45255380D01*
X-100403619Y-44255380D02*
X-100403619Y-44826809D01*
X-100403619Y-44541095D02*
X-101403619Y-44541095D01*
X-101260761Y-44636333D01*
X-101165523Y-44731571D01*
X-101117904Y-44826809D01*
X-101070285Y-43826809D02*
X-100070285Y-43826809D01*
X-100546476Y-43350619D02*
X-100451238Y-43303000D01*
X-100403619Y-43207761D01*
X-100546476Y-43826809D02*
X-100451238Y-43779190D01*
X-100403619Y-43683952D01*
X-100403619Y-43493476D01*
X-100451238Y-43398238D01*
X-100546476Y-43350619D01*
X-101070285Y-43350619D01*
X-100927428Y-42445857D02*
X-100927428Y-42779190D01*
X-100403619Y-42779190D02*
X-101403619Y-42779190D01*
X-101403619Y-42303000D01*
X-128073619Y-46017285D02*
X-128073619Y-45922047D01*
X-128026000Y-45826809D01*
X-127978380Y-45779190D01*
X-127883142Y-45731571D01*
X-127692666Y-45683952D01*
X-127454571Y-45683952D01*
X-127264095Y-45731571D01*
X-127168857Y-45779190D01*
X-127121238Y-45826809D01*
X-127073619Y-45922047D01*
X-127073619Y-46017285D01*
X-127121238Y-46112523D01*
X-127168857Y-46160142D01*
X-127264095Y-46207761D01*
X-127454571Y-46255380D01*
X-127692666Y-46255380D01*
X-127883142Y-46207761D01*
X-127978380Y-46160142D01*
X-128026000Y-46112523D01*
X-128073619Y-46017285D01*
X-127168857Y-45255380D02*
X-127121238Y-45207761D01*
X-127073619Y-45255380D01*
X-127121238Y-45303000D01*
X-127168857Y-45255380D01*
X-127073619Y-45255380D01*
X-127073619Y-44255380D02*
X-127073619Y-44826809D01*
X-127073619Y-44541095D02*
X-128073619Y-44541095D01*
X-127930761Y-44636333D01*
X-127835523Y-44731571D01*
X-127787904Y-44826809D01*
X-127740285Y-43826809D02*
X-126740285Y-43826809D01*
X-127216476Y-43350619D02*
X-127121238Y-43303000D01*
X-127073619Y-43207761D01*
X-127216476Y-43826809D02*
X-127121238Y-43779190D01*
X-127073619Y-43683952D01*
X-127073619Y-43493476D01*
X-127121238Y-43398238D01*
X-127216476Y-43350619D01*
X-127740285Y-43350619D01*
X-127597428Y-42445857D02*
X-127597428Y-42779190D01*
X-127073619Y-42779190D02*
X-128073619Y-42779190D01*
X-128073619Y-42303000D01*
X-154235619Y-46017285D02*
X-154235619Y-45922047D01*
X-154188000Y-45826809D01*
X-154140380Y-45779190D01*
X-154045142Y-45731571D01*
X-153854666Y-45683952D01*
X-153616571Y-45683952D01*
X-153426095Y-45731571D01*
X-153330857Y-45779190D01*
X-153283238Y-45826809D01*
X-153235619Y-45922047D01*
X-153235619Y-46017285D01*
X-153283238Y-46112523D01*
X-153330857Y-46160142D01*
X-153426095Y-46207761D01*
X-153616571Y-46255380D01*
X-153854666Y-46255380D01*
X-154045142Y-46207761D01*
X-154140380Y-46160142D01*
X-154188000Y-46112523D01*
X-154235619Y-46017285D01*
X-153330857Y-45255380D02*
X-153283238Y-45207761D01*
X-153235619Y-45255380D01*
X-153283238Y-45303000D01*
X-153330857Y-45255380D01*
X-153235619Y-45255380D01*
X-153235619Y-44255380D02*
X-153235619Y-44826809D01*
X-153235619Y-44541095D02*
X-154235619Y-44541095D01*
X-154092761Y-44636333D01*
X-153997523Y-44731571D01*
X-153949904Y-44826809D01*
X-153902285Y-43826809D02*
X-152902285Y-43826809D01*
X-153378476Y-43350619D02*
X-153283238Y-43303000D01*
X-153235619Y-43207761D01*
X-153378476Y-43826809D02*
X-153283238Y-43779190D01*
X-153235619Y-43683952D01*
X-153235619Y-43493476D01*
X-153283238Y-43398238D01*
X-153378476Y-43350619D01*
X-153902285Y-43350619D01*
X-153759428Y-42445857D02*
X-153759428Y-42779190D01*
X-153235619Y-42779190D02*
X-154235619Y-42779190D01*
X-154235619Y-42303000D01*
X-101403619Y-57106285D02*
X-101403619Y-57011047D01*
X-101356000Y-56915809D01*
X-101308380Y-56868190D01*
X-101213142Y-56820571D01*
X-101022666Y-56772952D01*
X-100784571Y-56772952D01*
X-100594095Y-56820571D01*
X-100498857Y-56868190D01*
X-100451238Y-56915809D01*
X-100403619Y-57011047D01*
X-100403619Y-57106285D01*
X-100451238Y-57201523D01*
X-100498857Y-57249142D01*
X-100594095Y-57296761D01*
X-100784571Y-57344380D01*
X-101022666Y-57344380D01*
X-101213142Y-57296761D01*
X-101308380Y-57249142D01*
X-101356000Y-57201523D01*
X-101403619Y-57106285D01*
X-100498857Y-56344380D02*
X-100451238Y-56296761D01*
X-100403619Y-56344380D01*
X-100451238Y-56392000D01*
X-100498857Y-56344380D01*
X-100403619Y-56344380D01*
X-100403619Y-55344380D02*
X-100403619Y-55915809D01*
X-100403619Y-55630095D02*
X-101403619Y-55630095D01*
X-101260761Y-55725333D01*
X-101165523Y-55820571D01*
X-101117904Y-55915809D01*
X-101070285Y-54915809D02*
X-100070285Y-54915809D01*
X-100546476Y-54439619D02*
X-100451238Y-54392000D01*
X-100403619Y-54296761D01*
X-100546476Y-54915809D02*
X-100451238Y-54868190D01*
X-100403619Y-54772952D01*
X-100403619Y-54582476D01*
X-100451238Y-54487238D01*
X-100546476Y-54439619D01*
X-101070285Y-54439619D01*
X-100927428Y-53534857D02*
X-100927428Y-53868190D01*
X-100403619Y-53868190D02*
X-101403619Y-53868190D01*
X-101403619Y-53392000D01*
X-127946619Y-56812285D02*
X-127946619Y-56717047D01*
X-127899000Y-56621809D01*
X-127851380Y-56574190D01*
X-127756142Y-56526571D01*
X-127565666Y-56478952D01*
X-127327571Y-56478952D01*
X-127137095Y-56526571D01*
X-127041857Y-56574190D01*
X-126994238Y-56621809D01*
X-126946619Y-56717047D01*
X-126946619Y-56812285D01*
X-126994238Y-56907523D01*
X-127041857Y-56955142D01*
X-127137095Y-57002761D01*
X-127327571Y-57050380D01*
X-127565666Y-57050380D01*
X-127756142Y-57002761D01*
X-127851380Y-56955142D01*
X-127899000Y-56907523D01*
X-127946619Y-56812285D01*
X-127041857Y-56050380D02*
X-126994238Y-56002761D01*
X-126946619Y-56050380D01*
X-126994238Y-56098000D01*
X-127041857Y-56050380D01*
X-126946619Y-56050380D01*
X-126946619Y-55050380D02*
X-126946619Y-55621809D01*
X-126946619Y-55336095D02*
X-127946619Y-55336095D01*
X-127803761Y-55431333D01*
X-127708523Y-55526571D01*
X-127660904Y-55621809D01*
X-127613285Y-54621809D02*
X-126613285Y-54621809D01*
X-127089476Y-54145619D02*
X-126994238Y-54098000D01*
X-126946619Y-54002761D01*
X-127089476Y-54621809D02*
X-126994238Y-54574190D01*
X-126946619Y-54478952D01*
X-126946619Y-54288476D01*
X-126994238Y-54193238D01*
X-127089476Y-54145619D01*
X-127613285Y-54145619D01*
X-127470428Y-53240857D02*
X-127470428Y-53574190D01*
X-126946619Y-53574190D02*
X-127946619Y-53574190D01*
X-127946619Y-53098000D01*
X-154235619Y-62781285D02*
X-154235619Y-62686047D01*
X-154188000Y-62590809D01*
X-154140380Y-62543190D01*
X-154045142Y-62495571D01*
X-153854666Y-62447952D01*
X-153616571Y-62447952D01*
X-153426095Y-62495571D01*
X-153330857Y-62543190D01*
X-153283238Y-62590809D01*
X-153235619Y-62686047D01*
X-153235619Y-62781285D01*
X-153283238Y-62876523D01*
X-153330857Y-62924142D01*
X-153426095Y-62971761D01*
X-153616571Y-63019380D01*
X-153854666Y-63019380D01*
X-154045142Y-62971761D01*
X-154140380Y-62924142D01*
X-154188000Y-62876523D01*
X-154235619Y-62781285D01*
X-153330857Y-62019380D02*
X-153283238Y-61971761D01*
X-153235619Y-62019380D01*
X-153283238Y-62067000D01*
X-153330857Y-62019380D01*
X-153235619Y-62019380D01*
X-153235619Y-61019380D02*
X-153235619Y-61590809D01*
X-153235619Y-61305095D02*
X-154235619Y-61305095D01*
X-154092761Y-61400333D01*
X-153997523Y-61495571D01*
X-153949904Y-61590809D01*
X-153902285Y-60590809D02*
X-152902285Y-60590809D01*
X-153378476Y-60114619D02*
X-153283238Y-60067000D01*
X-153235619Y-59971761D01*
X-153378476Y-60590809D02*
X-153283238Y-60543190D01*
X-153235619Y-60447952D01*
X-153235619Y-60257476D01*
X-153283238Y-60162238D01*
X-153378476Y-60114619D01*
X-153902285Y-60114619D01*
X-153759428Y-59209857D02*
X-153759428Y-59543190D01*
X-153235619Y-59543190D02*
X-154235619Y-59543190D01*
X-154235619Y-59067000D01*
X-101403619Y-62781285D02*
X-101403619Y-62686047D01*
X-101356000Y-62590809D01*
X-101308380Y-62543190D01*
X-101213142Y-62495571D01*
X-101022666Y-62447952D01*
X-100784571Y-62447952D01*
X-100594095Y-62495571D01*
X-100498857Y-62543190D01*
X-100451238Y-62590809D01*
X-100403619Y-62686047D01*
X-100403619Y-62781285D01*
X-100451238Y-62876523D01*
X-100498857Y-62924142D01*
X-100594095Y-62971761D01*
X-100784571Y-63019380D01*
X-101022666Y-63019380D01*
X-101213142Y-62971761D01*
X-101308380Y-62924142D01*
X-101356000Y-62876523D01*
X-101403619Y-62781285D01*
X-100498857Y-62019380D02*
X-100451238Y-61971761D01*
X-100403619Y-62019380D01*
X-100451238Y-62067000D01*
X-100498857Y-62019380D01*
X-100403619Y-62019380D01*
X-100403619Y-61019380D02*
X-100403619Y-61590809D01*
X-100403619Y-61305095D02*
X-101403619Y-61305095D01*
X-101260761Y-61400333D01*
X-101165523Y-61495571D01*
X-101117904Y-61590809D01*
X-101070285Y-60590809D02*
X-100070285Y-60590809D01*
X-100546476Y-60114619D02*
X-100451238Y-60067000D01*
X-100403619Y-59971761D01*
X-100546476Y-60590809D02*
X-100451238Y-60543190D01*
X-100403619Y-60447952D01*
X-100403619Y-60257476D01*
X-100451238Y-60162238D01*
X-100546476Y-60114619D01*
X-101070285Y-60114619D01*
X-100927428Y-59209857D02*
X-100927428Y-59543190D01*
X-100403619Y-59543190D02*
X-101403619Y-59543190D01*
X-101403619Y-59067000D01*
X-127946619Y-62781285D02*
X-127946619Y-62686047D01*
X-127899000Y-62590809D01*
X-127851380Y-62543190D01*
X-127756142Y-62495571D01*
X-127565666Y-62447952D01*
X-127327571Y-62447952D01*
X-127137095Y-62495571D01*
X-127041857Y-62543190D01*
X-126994238Y-62590809D01*
X-126946619Y-62686047D01*
X-126946619Y-62781285D01*
X-126994238Y-62876523D01*
X-127041857Y-62924142D01*
X-127137095Y-62971761D01*
X-127327571Y-63019380D01*
X-127565666Y-63019380D01*
X-127756142Y-62971761D01*
X-127851380Y-62924142D01*
X-127899000Y-62876523D01*
X-127946619Y-62781285D01*
X-127041857Y-62019380D02*
X-126994238Y-61971761D01*
X-126946619Y-62019380D01*
X-126994238Y-62067000D01*
X-127041857Y-62019380D01*
X-126946619Y-62019380D01*
X-126946619Y-61019380D02*
X-126946619Y-61590809D01*
X-126946619Y-61305095D02*
X-127946619Y-61305095D01*
X-127803761Y-61400333D01*
X-127708523Y-61495571D01*
X-127660904Y-61590809D01*
X-127613285Y-60590809D02*
X-126613285Y-60590809D01*
X-127089476Y-60114619D02*
X-126994238Y-60067000D01*
X-126946619Y-59971761D01*
X-127089476Y-60590809D02*
X-126994238Y-60543190D01*
X-126946619Y-60447952D01*
X-126946619Y-60257476D01*
X-126994238Y-60162238D01*
X-127089476Y-60114619D01*
X-127613285Y-60114619D01*
X-127470428Y-59209857D02*
X-127470428Y-59543190D01*
X-126946619Y-59543190D02*
X-127946619Y-59543190D01*
X-127946619Y-59067000D01*
X-154235619Y-57193285D02*
X-154235619Y-57098047D01*
X-154188000Y-57002809D01*
X-154140380Y-56955190D01*
X-154045142Y-56907571D01*
X-153854666Y-56859952D01*
X-153616571Y-56859952D01*
X-153426095Y-56907571D01*
X-153330857Y-56955190D01*
X-153283238Y-57002809D01*
X-153235619Y-57098047D01*
X-153235619Y-57193285D01*
X-153283238Y-57288523D01*
X-153330857Y-57336142D01*
X-153426095Y-57383761D01*
X-153616571Y-57431380D01*
X-153854666Y-57431380D01*
X-154045142Y-57383761D01*
X-154140380Y-57336142D01*
X-154188000Y-57288523D01*
X-154235619Y-57193285D01*
X-153330857Y-56431380D02*
X-153283238Y-56383761D01*
X-153235619Y-56431380D01*
X-153283238Y-56479000D01*
X-153330857Y-56431380D01*
X-153235619Y-56431380D01*
X-153235619Y-55431380D02*
X-153235619Y-56002809D01*
X-153235619Y-55717095D02*
X-154235619Y-55717095D01*
X-154092761Y-55812333D01*
X-153997523Y-55907571D01*
X-153949904Y-56002809D01*
X-153902285Y-55002809D02*
X-152902285Y-55002809D01*
X-153378476Y-54526619D02*
X-153283238Y-54479000D01*
X-153235619Y-54383761D01*
X-153378476Y-55002809D02*
X-153283238Y-54955190D01*
X-153235619Y-54859952D01*
X-153235619Y-54669476D01*
X-153283238Y-54574238D01*
X-153378476Y-54526619D01*
X-153902285Y-54526619D01*
X-153759428Y-53621857D02*
X-153759428Y-53955190D01*
X-153235619Y-53955190D02*
X-154235619Y-53955190D01*
X-154235619Y-53479000D01*
X-96100099Y-79067765D02*
X-96100099Y-78972527D01*
X-96052480Y-78877289D01*
X-96004860Y-78829670D01*
X-95909622Y-78782051D01*
X-95719146Y-78734432D01*
X-95481051Y-78734432D01*
X-95290575Y-78782051D01*
X-95195337Y-78829670D01*
X-95147718Y-78877289D01*
X-95100099Y-78972527D01*
X-95100099Y-79067765D01*
X-95147718Y-79163003D01*
X-95195337Y-79210622D01*
X-95290575Y-79258241D01*
X-95481051Y-79305860D01*
X-95719146Y-79305860D01*
X-95909622Y-79258241D01*
X-96004860Y-79210622D01*
X-96052480Y-79163003D01*
X-96100099Y-79067765D01*
X-95195337Y-78305860D02*
X-95147718Y-78258241D01*
X-95100099Y-78305860D01*
X-95147718Y-78353480D01*
X-95195337Y-78305860D01*
X-95100099Y-78305860D01*
X-95100099Y-77305860D02*
X-95100099Y-77877289D01*
X-95100099Y-77591575D02*
X-96100099Y-77591575D01*
X-95957241Y-77686813D01*
X-95862003Y-77782051D01*
X-95814384Y-77877289D01*
X-95766765Y-76877289D02*
X-94766765Y-76877289D01*
X-95242956Y-76401099D02*
X-95147718Y-76353480D01*
X-95100099Y-76258241D01*
X-95242956Y-76877289D02*
X-95147718Y-76829670D01*
X-95100099Y-76734432D01*
X-95100099Y-76543956D01*
X-95147718Y-76448718D01*
X-95242956Y-76401099D01*
X-95766765Y-76401099D01*
X-95623908Y-75496337D02*
X-95623908Y-75829670D01*
X-95100099Y-75829670D02*
X-96100099Y-75829670D01*
X-96100099Y-75353480D01*
X-119026139Y-79204925D02*
X-119026139Y-79109687D01*
X-118978520Y-79014449D01*
X-118930900Y-78966830D01*
X-118835662Y-78919211D01*
X-118645186Y-78871592D01*
X-118407091Y-78871592D01*
X-118216615Y-78919211D01*
X-118121377Y-78966830D01*
X-118073758Y-79014449D01*
X-118026139Y-79109687D01*
X-118026139Y-79204925D01*
X-118073758Y-79300163D01*
X-118121377Y-79347782D01*
X-118216615Y-79395401D01*
X-118407091Y-79443020D01*
X-118645186Y-79443020D01*
X-118835662Y-79395401D01*
X-118930900Y-79347782D01*
X-118978520Y-79300163D01*
X-119026139Y-79204925D01*
X-118121377Y-78443020D02*
X-118073758Y-78395401D01*
X-118026139Y-78443020D01*
X-118073758Y-78490640D01*
X-118121377Y-78443020D01*
X-118026139Y-78443020D01*
X-118026139Y-77443020D02*
X-118026139Y-78014449D01*
X-118026139Y-77728735D02*
X-119026139Y-77728735D01*
X-118883281Y-77823973D01*
X-118788043Y-77919211D01*
X-118740424Y-78014449D01*
X-118692805Y-77014449D02*
X-117692805Y-77014449D01*
X-118168996Y-76538259D02*
X-118073758Y-76490640D01*
X-118026139Y-76395401D01*
X-118168996Y-77014449D02*
X-118073758Y-76966830D01*
X-118026139Y-76871592D01*
X-118026139Y-76681116D01*
X-118073758Y-76585878D01*
X-118168996Y-76538259D01*
X-118692805Y-76538259D01*
X-118549948Y-75633497D02*
X-118549948Y-75966830D01*
X-118026139Y-75966830D02*
X-119026139Y-75966830D01*
X-119026139Y-75490640D01*
X-98680739Y-90568885D02*
X-98680739Y-90473647D01*
X-98633120Y-90378409D01*
X-98585500Y-90330790D01*
X-98490262Y-90283171D01*
X-98299786Y-90235552D01*
X-98061691Y-90235552D01*
X-97871215Y-90283171D01*
X-97775977Y-90330790D01*
X-97728358Y-90378409D01*
X-97680739Y-90473647D01*
X-97680739Y-90568885D01*
X-97728358Y-90664123D01*
X-97775977Y-90711742D01*
X-97871215Y-90759361D01*
X-98061691Y-90806980D01*
X-98299786Y-90806980D01*
X-98490262Y-90759361D01*
X-98585500Y-90711742D01*
X-98633120Y-90664123D01*
X-98680739Y-90568885D01*
X-97775977Y-89806980D02*
X-97728358Y-89759361D01*
X-97680739Y-89806980D01*
X-97728358Y-89854600D01*
X-97775977Y-89806980D01*
X-97680739Y-89806980D01*
X-97680739Y-88806980D02*
X-97680739Y-89378409D01*
X-97680739Y-89092695D02*
X-98680739Y-89092695D01*
X-98537881Y-89187933D01*
X-98442643Y-89283171D01*
X-98395024Y-89378409D01*
X-98347405Y-88378409D02*
X-97347405Y-88378409D01*
X-97823596Y-87902219D02*
X-97728358Y-87854600D01*
X-97680739Y-87759361D01*
X-97823596Y-88378409D02*
X-97728358Y-88330790D01*
X-97680739Y-88235552D01*
X-97680739Y-88045076D01*
X-97728358Y-87949838D01*
X-97823596Y-87902219D01*
X-98347405Y-87902219D01*
X-98204548Y-86997457D02*
X-98204548Y-87330790D01*
X-97680739Y-87330790D02*
X-98680739Y-87330790D01*
X-98680739Y-86854600D01*
X-154499779Y-79154125D02*
X-154499779Y-79058887D01*
X-154452160Y-78963649D01*
X-154404540Y-78916030D01*
X-154309302Y-78868411D01*
X-154118826Y-78820792D01*
X-153880731Y-78820792D01*
X-153690255Y-78868411D01*
X-153595017Y-78916030D01*
X-153547398Y-78963649D01*
X-153499779Y-79058887D01*
X-153499779Y-79154125D01*
X-153547398Y-79249363D01*
X-153595017Y-79296982D01*
X-153690255Y-79344601D01*
X-153880731Y-79392220D01*
X-154118826Y-79392220D01*
X-154309302Y-79344601D01*
X-154404540Y-79296982D01*
X-154452160Y-79249363D01*
X-154499779Y-79154125D01*
X-153595017Y-78392220D02*
X-153547398Y-78344601D01*
X-153499779Y-78392220D01*
X-153547398Y-78439840D01*
X-153595017Y-78392220D01*
X-153499779Y-78392220D01*
X-153499779Y-77392220D02*
X-153499779Y-77963649D01*
X-153499779Y-77677935D02*
X-154499779Y-77677935D01*
X-154356921Y-77773173D01*
X-154261683Y-77868411D01*
X-154214064Y-77963649D01*
X-154166445Y-76963649D02*
X-153166445Y-76963649D01*
X-153642636Y-76487459D02*
X-153547398Y-76439840D01*
X-153499779Y-76344601D01*
X-153642636Y-76963649D02*
X-153547398Y-76916030D01*
X-153499779Y-76820792D01*
X-153499779Y-76630316D01*
X-153547398Y-76535078D01*
X-153642636Y-76487459D01*
X-154166445Y-76487459D01*
X-154023588Y-75582697D02*
X-154023588Y-75916030D01*
X-153499779Y-75916030D02*
X-154499779Y-75916030D01*
X-154499779Y-75439840D01*
X-124111219Y-90238685D02*
X-124111219Y-90143447D01*
X-124063600Y-90048209D01*
X-124015980Y-90000590D01*
X-123920742Y-89952971D01*
X-123730266Y-89905352D01*
X-123492171Y-89905352D01*
X-123301695Y-89952971D01*
X-123206457Y-90000590D01*
X-123158838Y-90048209D01*
X-123111219Y-90143447D01*
X-123111219Y-90238685D01*
X-123158838Y-90333923D01*
X-123206457Y-90381542D01*
X-123301695Y-90429161D01*
X-123492171Y-90476780D01*
X-123730266Y-90476780D01*
X-123920742Y-90429161D01*
X-124015980Y-90381542D01*
X-124063600Y-90333923D01*
X-124111219Y-90238685D01*
X-123206457Y-89476780D02*
X-123158838Y-89429161D01*
X-123111219Y-89476780D01*
X-123158838Y-89524400D01*
X-123206457Y-89476780D01*
X-123111219Y-89476780D01*
X-123111219Y-88476780D02*
X-123111219Y-89048209D01*
X-123111219Y-88762495D02*
X-124111219Y-88762495D01*
X-123968361Y-88857733D01*
X-123873123Y-88952971D01*
X-123825504Y-89048209D01*
X-123777885Y-88048209D02*
X-122777885Y-88048209D01*
X-123254076Y-87572019D02*
X-123158838Y-87524400D01*
X-123111219Y-87429161D01*
X-123254076Y-88048209D02*
X-123158838Y-88000590D01*
X-123111219Y-87905352D01*
X-123111219Y-87714876D01*
X-123158838Y-87619638D01*
X-123254076Y-87572019D01*
X-123777885Y-87572019D01*
X-123635028Y-86667257D02*
X-123635028Y-87000590D01*
X-123111219Y-87000590D02*
X-124111219Y-87000590D01*
X-124111219Y-86524400D01*
X-154718219Y-90467285D02*
X-154718219Y-90372047D01*
X-154670600Y-90276809D01*
X-154622980Y-90229190D01*
X-154527742Y-90181571D01*
X-154337266Y-90133952D01*
X-154099171Y-90133952D01*
X-153908695Y-90181571D01*
X-153813457Y-90229190D01*
X-153765838Y-90276809D01*
X-153718219Y-90372047D01*
X-153718219Y-90467285D01*
X-153765838Y-90562523D01*
X-153813457Y-90610142D01*
X-153908695Y-90657761D01*
X-154099171Y-90705380D01*
X-154337266Y-90705380D01*
X-154527742Y-90657761D01*
X-154622980Y-90610142D01*
X-154670600Y-90562523D01*
X-154718219Y-90467285D01*
X-153813457Y-89705380D02*
X-153765838Y-89657761D01*
X-153718219Y-89705380D01*
X-153765838Y-89753000D01*
X-153813457Y-89705380D01*
X-153718219Y-89705380D01*
X-153718219Y-88705380D02*
X-153718219Y-89276809D01*
X-153718219Y-88991095D02*
X-154718219Y-88991095D01*
X-154575361Y-89086333D01*
X-154480123Y-89181571D01*
X-154432504Y-89276809D01*
X-154384885Y-88276809D02*
X-153384885Y-88276809D01*
X-153861076Y-87800619D02*
X-153765838Y-87753000D01*
X-153718219Y-87657761D01*
X-153861076Y-88276809D02*
X-153765838Y-88229190D01*
X-153718219Y-88133952D01*
X-153718219Y-87943476D01*
X-153765838Y-87848238D01*
X-153861076Y-87800619D01*
X-154384885Y-87800619D01*
X-154242028Y-86895857D02*
X-154242028Y-87229190D01*
X-153718219Y-87229190D02*
X-154718219Y-87229190D01*
X-154718219Y-86753000D01*
X-150629419Y-103619893D02*
X-149915133Y-103619893D01*
X-149772276Y-103667512D01*
X-149677038Y-103762750D01*
X-149629419Y-103905607D01*
X-149629419Y-104000845D01*
X-149629419Y-102619893D02*
X-149629419Y-103191321D01*
X-149629419Y-102905607D02*
X-150629419Y-102905607D01*
X-150486561Y-103000845D01*
X-150391323Y-103096083D01*
X-150343704Y-103191321D01*
X-54171125Y-93130666D02*
X-53694935Y-93130666D01*
X-54266363Y-93416380D02*
X-53933030Y-92416380D01*
X-53599697Y-93416380D01*
X-53313982Y-92511619D02*
X-53266363Y-92464000D01*
X-53171125Y-92416380D01*
X-52933030Y-92416380D01*
X-52837792Y-92464000D01*
X-52790173Y-92511619D01*
X-52742554Y-92606857D01*
X-52742554Y-92702095D01*
X-52790173Y-92844952D01*
X-53361601Y-93416380D01*
X-52742554Y-93416380D01*
X-54054285Y-87415666D02*
X-53578095Y-87415666D01*
X-54149523Y-87701380D02*
X-53816190Y-86701380D01*
X-53482857Y-87701380D01*
X-53244761Y-86701380D02*
X-52625714Y-86701380D01*
X-52959047Y-87082333D01*
X-52816190Y-87082333D01*
X-52720952Y-87129952D01*
X-52673333Y-87177571D01*
X-52625714Y-87272809D01*
X-52625714Y-87510904D01*
X-52673333Y-87606142D01*
X-52720952Y-87653761D01*
X-52816190Y-87701380D01*
X-53101904Y-87701380D01*
X-53197142Y-87653761D01*
X-53244761Y-87606142D01*
X-60955845Y-92509173D02*
X-60289179Y-92509173D01*
X-61336798Y-92747268D02*
X-60622512Y-92985363D01*
X-60622512Y-92366316D01*
X-61289179Y-92080601D02*
X-61289179Y-91413935D01*
X-60289179Y-91842506D01*
X-61289179Y-90842506D02*
X-61289179Y-90747268D01*
X-61241560Y-90652030D01*
X-61193940Y-90604411D01*
X-61098702Y-90556792D01*
X-60908226Y-90509173D01*
X-60670131Y-90509173D01*
X-60479655Y-90556792D01*
X-60384417Y-90604411D01*
X-60336798Y-90652030D01*
X-60289179Y-90747268D01*
X-60289179Y-90842506D01*
X-60336798Y-90937744D01*
X-60384417Y-90985363D01*
X-60479655Y-91032982D01*
X-60670131Y-91080601D01*
X-60908226Y-91080601D01*
X-61098702Y-91032982D01*
X-61193940Y-90985363D01*
X-61241560Y-90937744D01*
X-61289179Y-90842506D01*
X-60289179Y-90128220D02*
X-60289179Y-89890125D01*
X-60479655Y-89890125D01*
X-60527274Y-89985363D01*
X-60622512Y-90080601D01*
X-60765369Y-90128220D01*
X-61003464Y-90128220D01*
X-61146321Y-90080601D01*
X-61241560Y-89985363D01*
X-61289179Y-89842506D01*
X-61289179Y-89652030D01*
X-61241560Y-89509173D01*
X-61146321Y-89413935D01*
X-61003464Y-89366316D01*
X-60765369Y-89366316D01*
X-60622512Y-89413935D01*
X-60527274Y-89509173D01*
X-60479655Y-89604411D01*
X-60289179Y-89604411D01*
X-60289179Y-89366316D01*
X-71451125Y-92453293D02*
X-70784459Y-92453293D01*
X-71832078Y-92691388D02*
X-71117792Y-92929483D01*
X-71117792Y-92310436D01*
X-71784459Y-92024721D02*
X-71784459Y-91358055D01*
X-70784459Y-91786626D01*
X-71784459Y-90786626D02*
X-71784459Y-90691388D01*
X-71736840Y-90596150D01*
X-71689220Y-90548531D01*
X-71593982Y-90500912D01*
X-71403506Y-90453293D01*
X-71165411Y-90453293D01*
X-70974935Y-90500912D01*
X-70879697Y-90548531D01*
X-70832078Y-90596150D01*
X-70784459Y-90691388D01*
X-70784459Y-90786626D01*
X-70832078Y-90881864D01*
X-70879697Y-90929483D01*
X-70974935Y-90977102D01*
X-71165411Y-91024721D01*
X-71403506Y-91024721D01*
X-71593982Y-90977102D01*
X-71689220Y-90929483D01*
X-71736840Y-90881864D01*
X-71784459Y-90786626D01*
X-70784459Y-90072340D02*
X-70784459Y-89834245D01*
X-70974935Y-89834245D01*
X-71022554Y-89929483D01*
X-71117792Y-90024721D01*
X-71260649Y-90072340D01*
X-71498744Y-90072340D01*
X-71641601Y-90024721D01*
X-71736840Y-89929483D01*
X-71784459Y-89786626D01*
X-71784459Y-89596150D01*
X-71736840Y-89453293D01*
X-71641601Y-89358055D01*
X-71498744Y-89310436D01*
X-71260649Y-89310436D01*
X-71117792Y-89358055D01*
X-71022554Y-89453293D01*
X-70974935Y-89548531D01*
X-70784459Y-89548531D01*
X-70784459Y-89310436D01*
X-67956085Y-92387253D02*
X-67289419Y-92387253D01*
X-68337038Y-92625348D02*
X-67622752Y-92863443D01*
X-67622752Y-92244396D01*
X-68289419Y-91958681D02*
X-68289419Y-91292015D01*
X-67289419Y-91720586D01*
X-68289419Y-90720586D02*
X-68289419Y-90625348D01*
X-68241800Y-90530110D01*
X-68194180Y-90482491D01*
X-68098942Y-90434872D01*
X-67908466Y-90387253D01*
X-67670371Y-90387253D01*
X-67479895Y-90434872D01*
X-67384657Y-90482491D01*
X-67337038Y-90530110D01*
X-67289419Y-90625348D01*
X-67289419Y-90720586D01*
X-67337038Y-90815824D01*
X-67384657Y-90863443D01*
X-67479895Y-90911062D01*
X-67670371Y-90958681D01*
X-67908466Y-90958681D01*
X-68098942Y-90911062D01*
X-68194180Y-90863443D01*
X-68241800Y-90815824D01*
X-68289419Y-90720586D01*
X-67289419Y-90006300D02*
X-67289419Y-89768205D01*
X-67479895Y-89768205D01*
X-67527514Y-89863443D01*
X-67622752Y-89958681D01*
X-67765609Y-90006300D01*
X-68003704Y-90006300D01*
X-68146561Y-89958681D01*
X-68241800Y-89863443D01*
X-68289419Y-89720586D01*
X-68289419Y-89530110D01*
X-68241800Y-89387253D01*
X-68146561Y-89292015D01*
X-68003704Y-89244396D01*
X-67765609Y-89244396D01*
X-67622752Y-89292015D01*
X-67527514Y-89387253D01*
X-67479895Y-89482491D01*
X-67289419Y-89482491D01*
X-67289419Y-89244396D01*
X-142887533Y-40461274D02*
X-142887533Y-41127940D01*
X-143125628Y-40080321D02*
X-143363723Y-40794607D01*
X-142744676Y-40794607D01*
X-142458961Y-40127940D02*
X-141792295Y-40127940D01*
X-142220866Y-41127940D01*
X-141220866Y-40127940D02*
X-141125628Y-40127940D01*
X-141030390Y-40175560D01*
X-140982771Y-40223179D01*
X-140935152Y-40318417D01*
X-140887533Y-40508893D01*
X-140887533Y-40746988D01*
X-140935152Y-40937464D01*
X-140982771Y-41032702D01*
X-141030390Y-41080321D01*
X-141125628Y-41127940D01*
X-141220866Y-41127940D01*
X-141316104Y-41080321D01*
X-141363723Y-41032702D01*
X-141411342Y-40937464D01*
X-141458961Y-40746988D01*
X-141458961Y-40508893D01*
X-141411342Y-40318417D01*
X-141363723Y-40223179D01*
X-141316104Y-40175560D01*
X-141220866Y-40127940D01*
X-140506580Y-41127940D02*
X-140268485Y-41127940D01*
X-140268485Y-40937464D01*
X-140363723Y-40889845D01*
X-140458961Y-40794607D01*
X-140506580Y-40651750D01*
X-140506580Y-40413655D01*
X-140458961Y-40270798D01*
X-140363723Y-40175560D01*
X-140220866Y-40127940D01*
X-140030390Y-40127940D01*
X-139887533Y-40175560D01*
X-139792295Y-40270798D01*
X-139744676Y-40413655D01*
X-139744676Y-40651750D01*
X-139792295Y-40794607D01*
X-139887533Y-40889845D01*
X-139982771Y-40937464D01*
X-139982771Y-41127940D01*
X-139744676Y-41127940D01*
X-106371045Y-29593373D02*
X-105704379Y-29593373D01*
X-106751998Y-29831468D02*
X-106037712Y-30069563D01*
X-106037712Y-29450516D01*
X-106704379Y-29164801D02*
X-106704379Y-28498135D01*
X-105704379Y-28926706D01*
X-106704379Y-27926706D02*
X-106704379Y-27831468D01*
X-106656760Y-27736230D01*
X-106609140Y-27688611D01*
X-106513902Y-27640992D01*
X-106323426Y-27593373D01*
X-106085331Y-27593373D01*
X-105894855Y-27640992D01*
X-105799617Y-27688611D01*
X-105751998Y-27736230D01*
X-105704379Y-27831468D01*
X-105704379Y-27926706D01*
X-105751998Y-28021944D01*
X-105799617Y-28069563D01*
X-105894855Y-28117182D01*
X-106085331Y-28164801D01*
X-106323426Y-28164801D01*
X-106513902Y-28117182D01*
X-106609140Y-28069563D01*
X-106656760Y-28021944D01*
X-106704379Y-27926706D01*
X-105704379Y-27212420D02*
X-105704379Y-26974325D01*
X-105894855Y-26974325D01*
X-105942474Y-27069563D01*
X-106037712Y-27164801D01*
X-106180569Y-27212420D01*
X-106418664Y-27212420D01*
X-106561521Y-27164801D01*
X-106656760Y-27069563D01*
X-106704379Y-26926706D01*
X-106704379Y-26736230D01*
X-106656760Y-26593373D01*
X-106561521Y-26498135D01*
X-106418664Y-26450516D01*
X-106180569Y-26450516D01*
X-106037712Y-26498135D01*
X-105942474Y-26593373D01*
X-105894855Y-26688611D01*
X-105704379Y-26688611D01*
X-105704379Y-26450516D01*
X-116629013Y-40476514D02*
X-116629013Y-41143180D01*
X-116867108Y-40095561D02*
X-117105203Y-40809847D01*
X-116486156Y-40809847D01*
X-116200441Y-40143180D02*
X-115533775Y-40143180D01*
X-115962346Y-41143180D01*
X-114962346Y-40143180D02*
X-114867108Y-40143180D01*
X-114771870Y-40190800D01*
X-114724251Y-40238419D01*
X-114676632Y-40333657D01*
X-114629013Y-40524133D01*
X-114629013Y-40762228D01*
X-114676632Y-40952704D01*
X-114724251Y-41047942D01*
X-114771870Y-41095561D01*
X-114867108Y-41143180D01*
X-114962346Y-41143180D01*
X-115057584Y-41095561D01*
X-115105203Y-41047942D01*
X-115152822Y-40952704D01*
X-115200441Y-40762228D01*
X-115200441Y-40524133D01*
X-115152822Y-40333657D01*
X-115105203Y-40238419D01*
X-115057584Y-40190800D01*
X-114962346Y-40143180D01*
X-114248060Y-41143180D02*
X-114009965Y-41143180D01*
X-114009965Y-40952704D01*
X-114105203Y-40905085D01*
X-114200441Y-40809847D01*
X-114248060Y-40666990D01*
X-114248060Y-40428895D01*
X-114200441Y-40286038D01*
X-114105203Y-40190800D01*
X-113962346Y-40143180D01*
X-113771870Y-40143180D01*
X-113629013Y-40190800D01*
X-113533775Y-40286038D01*
X-113486156Y-40428895D01*
X-113486156Y-40666990D01*
X-113533775Y-40809847D01*
X-113629013Y-40905085D01*
X-113724251Y-40952704D01*
X-113724251Y-41143180D01*
X-113486156Y-41143180D01*
X-79853445Y-29532413D02*
X-79186779Y-29532413D01*
X-80234398Y-29770508D02*
X-79520112Y-30008603D01*
X-79520112Y-29389556D01*
X-80186779Y-29103841D02*
X-80186779Y-28437175D01*
X-79186779Y-28865746D01*
X-80186779Y-27865746D02*
X-80186779Y-27770508D01*
X-80139160Y-27675270D01*
X-80091540Y-27627651D01*
X-79996302Y-27580032D01*
X-79805826Y-27532413D01*
X-79567731Y-27532413D01*
X-79377255Y-27580032D01*
X-79282017Y-27627651D01*
X-79234398Y-27675270D01*
X-79186779Y-27770508D01*
X-79186779Y-27865746D01*
X-79234398Y-27960984D01*
X-79282017Y-28008603D01*
X-79377255Y-28056222D01*
X-79567731Y-28103841D01*
X-79805826Y-28103841D01*
X-79996302Y-28056222D01*
X-80091540Y-28008603D01*
X-80139160Y-27960984D01*
X-80186779Y-27865746D01*
X-79186779Y-27151460D02*
X-79186779Y-26913365D01*
X-79377255Y-26913365D01*
X-79424874Y-27008603D01*
X-79520112Y-27103841D01*
X-79662969Y-27151460D01*
X-79901064Y-27151460D01*
X-80043921Y-27103841D01*
X-80139160Y-27008603D01*
X-80186779Y-26865746D01*
X-80186779Y-26675270D01*
X-80139160Y-26532413D01*
X-80043921Y-26437175D01*
X-79901064Y-26389556D01*
X-79662969Y-26389556D01*
X-79520112Y-26437175D01*
X-79424874Y-26532413D01*
X-79377255Y-26627651D01*
X-79186779Y-26627651D01*
X-79186779Y-26389556D01*
X-89760893Y-40319034D02*
X-89760893Y-40985700D01*
X-89998988Y-39938081D02*
X-90237083Y-40652367D01*
X-89618036Y-40652367D01*
X-89332321Y-39985700D02*
X-88665655Y-39985700D01*
X-89094226Y-40985700D01*
X-88094226Y-39985700D02*
X-87998988Y-39985700D01*
X-87903750Y-40033320D01*
X-87856131Y-40080939D01*
X-87808512Y-40176177D01*
X-87760893Y-40366653D01*
X-87760893Y-40604748D01*
X-87808512Y-40795224D01*
X-87856131Y-40890462D01*
X-87903750Y-40938081D01*
X-87998988Y-40985700D01*
X-88094226Y-40985700D01*
X-88189464Y-40938081D01*
X-88237083Y-40890462D01*
X-88284702Y-40795224D01*
X-88332321Y-40604748D01*
X-88332321Y-40366653D01*
X-88284702Y-40176177D01*
X-88237083Y-40080939D01*
X-88189464Y-40033320D01*
X-88094226Y-39985700D01*
X-87379940Y-40985700D02*
X-87141845Y-40985700D01*
X-87141845Y-40795224D01*
X-87237083Y-40747605D01*
X-87332321Y-40652367D01*
X-87379940Y-40509510D01*
X-87379940Y-40271415D01*
X-87332321Y-40128558D01*
X-87237083Y-40033320D01*
X-87094226Y-39985700D01*
X-86903750Y-39985700D01*
X-86760893Y-40033320D01*
X-86665655Y-40128558D01*
X-86618036Y-40271415D01*
X-86618036Y-40509510D01*
X-86665655Y-40652367D01*
X-86760893Y-40747605D01*
X-86856131Y-40795224D01*
X-86856131Y-40985700D01*
X-86618036Y-40985700D01*
X-53356165Y-29679733D02*
X-52689499Y-29679733D01*
X-53737118Y-29917828D02*
X-53022832Y-30155923D01*
X-53022832Y-29536876D01*
X-53689499Y-29251161D02*
X-53689499Y-28584495D01*
X-52689499Y-29013066D01*
X-53689499Y-28013066D02*
X-53689499Y-27917828D01*
X-53641880Y-27822590D01*
X-53594260Y-27774971D01*
X-53499022Y-27727352D01*
X-53308546Y-27679733D01*
X-53070451Y-27679733D01*
X-52879975Y-27727352D01*
X-52784737Y-27774971D01*
X-52737118Y-27822590D01*
X-52689499Y-27917828D01*
X-52689499Y-28013066D01*
X-52737118Y-28108304D01*
X-52784737Y-28155923D01*
X-52879975Y-28203542D01*
X-53070451Y-28251161D01*
X-53308546Y-28251161D01*
X-53499022Y-28203542D01*
X-53594260Y-28155923D01*
X-53641880Y-28108304D01*
X-53689499Y-28013066D01*
X-52689499Y-27298780D02*
X-52689499Y-27060685D01*
X-52879975Y-27060685D01*
X-52927594Y-27155923D01*
X-53022832Y-27251161D01*
X-53165689Y-27298780D01*
X-53403784Y-27298780D01*
X-53546641Y-27251161D01*
X-53641880Y-27155923D01*
X-53689499Y-27013066D01*
X-53689499Y-26822590D01*
X-53641880Y-26679733D01*
X-53546641Y-26584495D01*
X-53403784Y-26536876D01*
X-53165689Y-26536876D01*
X-53022832Y-26584495D01*
X-52927594Y-26679733D01*
X-52879975Y-26774971D01*
X-52689499Y-26774971D01*
X-52689499Y-26536876D01*
X-63202653Y-40374914D02*
X-63202653Y-41041580D01*
X-63440748Y-39993961D02*
X-63678843Y-40708247D01*
X-63059796Y-40708247D01*
X-62774081Y-40041580D02*
X-62107415Y-40041580D01*
X-62535986Y-41041580D01*
X-61535986Y-40041580D02*
X-61440748Y-40041580D01*
X-61345510Y-40089200D01*
X-61297891Y-40136819D01*
X-61250272Y-40232057D01*
X-61202653Y-40422533D01*
X-61202653Y-40660628D01*
X-61250272Y-40851104D01*
X-61297891Y-40946342D01*
X-61345510Y-40993961D01*
X-61440748Y-41041580D01*
X-61535986Y-41041580D01*
X-61631224Y-40993961D01*
X-61678843Y-40946342D01*
X-61726462Y-40851104D01*
X-61774081Y-40660628D01*
X-61774081Y-40422533D01*
X-61726462Y-40232057D01*
X-61678843Y-40136819D01*
X-61631224Y-40089200D01*
X-61535986Y-40041580D01*
X-60821700Y-41041580D02*
X-60583605Y-41041580D01*
X-60583605Y-40851104D01*
X-60678843Y-40803485D01*
X-60774081Y-40708247D01*
X-60821700Y-40565390D01*
X-60821700Y-40327295D01*
X-60774081Y-40184438D01*
X-60678843Y-40089200D01*
X-60535986Y-40041580D01*
X-60345510Y-40041580D01*
X-60202653Y-40089200D01*
X-60107415Y-40184438D01*
X-60059796Y-40327295D01*
X-60059796Y-40565390D01*
X-60107415Y-40708247D01*
X-60202653Y-40803485D01*
X-60297891Y-40851104D01*
X-60297891Y-41041580D01*
X-60059796Y-41041580D01*
X-140198171Y-91067000D02*
X-140293409Y-91019380D01*
X-140436266Y-91019380D01*
X-140579123Y-91067000D01*
X-140674361Y-91162238D01*
X-140721980Y-91257476D01*
X-140769600Y-91447952D01*
X-140769600Y-91590809D01*
X-140721980Y-91781285D01*
X-140674361Y-91876523D01*
X-140579123Y-91971761D01*
X-140436266Y-92019380D01*
X-140341028Y-92019380D01*
X-140198171Y-91971761D01*
X-140150552Y-91924142D01*
X-140150552Y-91590809D01*
X-140341028Y-91590809D01*
X-139769600Y-91733666D02*
X-139293409Y-91733666D01*
X-139864838Y-92019380D02*
X-139531504Y-91019380D01*
X-139198171Y-92019380D01*
X-138388647Y-92019380D02*
X-138864838Y-92019380D01*
X-138864838Y-91019380D01*
X-137531504Y-92019380D02*
X-138102933Y-92019380D01*
X-137817219Y-92019380D02*
X-137817219Y-91019380D01*
X-137912457Y-91162238D01*
X-138007695Y-91257476D01*
X-138102933Y-91305095D01*
X-136674361Y-91019380D02*
X-136864838Y-91019380D01*
X-136960076Y-91067000D01*
X-137007695Y-91114619D01*
X-137102933Y-91257476D01*
X-137150552Y-91447952D01*
X-137150552Y-91828904D01*
X-137102933Y-91924142D01*
X-137055314Y-91971761D01*
X-136960076Y-92019380D01*
X-136769600Y-92019380D01*
X-136674361Y-91971761D01*
X-136626742Y-91924142D01*
X-136579123Y-91828904D01*
X-136579123Y-91590809D01*
X-136626742Y-91495571D01*
X-136674361Y-91447952D01*
X-136769600Y-91400333D01*
X-136960076Y-91400333D01*
X-137055314Y-91447952D01*
X-137102933Y-91495571D01*
X-137150552Y-91590809D01*
X-136293409Y-91019380D02*
X-135960076Y-92019380D01*
X-135626742Y-91019380D01*
X-135150552Y-91447952D02*
X-135245790Y-91400333D01*
X-135293409Y-91352714D01*
X-135341028Y-91257476D01*
X-135341028Y-91209857D01*
X-135293409Y-91114619D01*
X-135245790Y-91067000D01*
X-135150552Y-91019380D01*
X-134960076Y-91019380D01*
X-134864838Y-91067000D01*
X-134817219Y-91114619D01*
X-134769600Y-91209857D01*
X-134769600Y-91257476D01*
X-134817219Y-91352714D01*
X-134864838Y-91400333D01*
X-134960076Y-91447952D01*
X-135150552Y-91447952D01*
X-135245790Y-91495571D01*
X-135293409Y-91543190D01*
X-135341028Y-91638428D01*
X-135341028Y-91828904D01*
X-135293409Y-91924142D01*
X-135245790Y-91971761D01*
X-135150552Y-92019380D01*
X-134960076Y-92019380D01*
X-134864838Y-91971761D01*
X-134817219Y-91924142D01*
X-134769600Y-91828904D01*
X-134769600Y-91638428D01*
X-134817219Y-91543190D01*
X-134864838Y-91495571D01*
X-134960076Y-91447952D01*
X-108881466Y-80000860D02*
X-108214800Y-80000860D01*
X-108643371Y-81000860D01*
X-107405276Y-80334194D02*
X-107405276Y-81000860D01*
X-107643371Y-79953241D02*
X-107881466Y-80667527D01*
X-107262419Y-80667527D01*
X-106881466Y-81000860D02*
X-106881466Y-80000860D01*
X-106881466Y-80477051D02*
X-106310038Y-80477051D01*
X-106310038Y-81000860D02*
X-106310038Y-80000860D01*
X-105262419Y-80905622D02*
X-105310038Y-80953241D01*
X-105452895Y-81000860D01*
X-105548133Y-81000860D01*
X-105690990Y-80953241D01*
X-105786228Y-80858003D01*
X-105833847Y-80762765D01*
X-105881466Y-80572289D01*
X-105881466Y-80429432D01*
X-105833847Y-80238956D01*
X-105786228Y-80143718D01*
X-105690990Y-80048480D01*
X-105548133Y-80000860D01*
X-105452895Y-80000860D01*
X-105310038Y-80048480D01*
X-105262419Y-80096099D01*
X-104976704Y-80000860D02*
X-104405276Y-80000860D01*
X-104690990Y-81000860D02*
X-104690990Y-80000860D01*
X-103881466Y-80000860D02*
X-103786228Y-80000860D01*
X-103690990Y-80048480D01*
X-103643371Y-80096099D01*
X-103595752Y-80191337D01*
X-103548133Y-80381813D01*
X-103548133Y-80619908D01*
X-103595752Y-80810384D01*
X-103643371Y-80905622D01*
X-103690990Y-80953241D01*
X-103786228Y-81000860D01*
X-103881466Y-81000860D01*
X-103976704Y-80953241D01*
X-104024323Y-80905622D01*
X-104071942Y-80810384D01*
X-104119561Y-80619908D01*
X-104119561Y-80381813D01*
X-104071942Y-80191337D01*
X-104024323Y-80096099D01*
X-103976704Y-80048480D01*
X-103881466Y-80000860D01*
X-102690990Y-80334194D02*
X-102690990Y-81000860D01*
X-102929085Y-79953241D02*
X-103167180Y-80667527D01*
X-102548133Y-80667527D01*
X-85838586Y-80031340D02*
X-85171920Y-80031340D01*
X-85600491Y-81031340D01*
X-84362396Y-80364674D02*
X-84362396Y-81031340D01*
X-84600491Y-79983721D02*
X-84838586Y-80698007D01*
X-84219539Y-80698007D01*
X-83838586Y-81031340D02*
X-83838586Y-80031340D01*
X-83838586Y-80507531D02*
X-83267158Y-80507531D01*
X-83267158Y-81031340D02*
X-83267158Y-80031340D01*
X-82219539Y-80936102D02*
X-82267158Y-80983721D01*
X-82410015Y-81031340D01*
X-82505253Y-81031340D01*
X-82648110Y-80983721D01*
X-82743348Y-80888483D01*
X-82790967Y-80793245D01*
X-82838586Y-80602769D01*
X-82838586Y-80459912D01*
X-82790967Y-80269436D01*
X-82743348Y-80174198D01*
X-82648110Y-80078960D01*
X-82505253Y-80031340D01*
X-82410015Y-80031340D01*
X-82267158Y-80078960D01*
X-82219539Y-80126579D01*
X-81933824Y-80031340D02*
X-81362396Y-80031340D01*
X-81648110Y-81031340D02*
X-81648110Y-80031340D01*
X-80838586Y-80031340D02*
X-80743348Y-80031340D01*
X-80648110Y-80078960D01*
X-80600491Y-80126579D01*
X-80552872Y-80221817D01*
X-80505253Y-80412293D01*
X-80505253Y-80650388D01*
X-80552872Y-80840864D01*
X-80600491Y-80936102D01*
X-80648110Y-80983721D01*
X-80743348Y-81031340D01*
X-80838586Y-81031340D01*
X-80933824Y-80983721D01*
X-80981443Y-80936102D01*
X-81029062Y-80840864D01*
X-81076681Y-80650388D01*
X-81076681Y-80412293D01*
X-81029062Y-80221817D01*
X-80981443Y-80126579D01*
X-80933824Y-80078960D01*
X-80838586Y-80031340D01*
X-79886205Y-80031340D02*
X-79790967Y-80031340D01*
X-79695729Y-80078960D01*
X-79648110Y-80126579D01*
X-79600491Y-80221817D01*
X-79552872Y-80412293D01*
X-79552872Y-80650388D01*
X-79600491Y-80840864D01*
X-79648110Y-80936102D01*
X-79695729Y-80983721D01*
X-79790967Y-81031340D01*
X-79886205Y-81031340D01*
X-79981443Y-80983721D01*
X-80029062Y-80936102D01*
X-80076681Y-80840864D01*
X-80124300Y-80650388D01*
X-80124300Y-80412293D01*
X-80076681Y-80221817D01*
X-80029062Y-80126579D01*
X-79981443Y-80078960D01*
X-79886205Y-80031340D01*
X-112770847Y-91120980D02*
X-112104180Y-91120980D01*
X-112532752Y-92120980D01*
X-111294657Y-91454314D02*
X-111294657Y-92120980D01*
X-111532752Y-91073361D02*
X-111770847Y-91787647D01*
X-111151800Y-91787647D01*
X-110294657Y-92120980D02*
X-110770847Y-92120980D01*
X-110770847Y-91120980D01*
X-110008942Y-92073361D02*
X-109866085Y-92120980D01*
X-109627990Y-92120980D01*
X-109532752Y-92073361D01*
X-109485133Y-92025742D01*
X-109437514Y-91930504D01*
X-109437514Y-91835266D01*
X-109485133Y-91740028D01*
X-109532752Y-91692409D01*
X-109627990Y-91644790D01*
X-109818466Y-91597171D01*
X-109913704Y-91549552D01*
X-109961323Y-91501933D01*
X-110008942Y-91406695D01*
X-110008942Y-91311457D01*
X-109961323Y-91216219D01*
X-109913704Y-91168600D01*
X-109818466Y-91120980D01*
X-109580371Y-91120980D01*
X-109437514Y-91168600D01*
X-108485133Y-92120980D02*
X-109056561Y-92120980D01*
X-108770847Y-92120980D02*
X-108770847Y-91120980D01*
X-108866085Y-91263838D01*
X-108961323Y-91359076D01*
X-109056561Y-91406695D01*
X-107580371Y-91120980D02*
X-108056561Y-91120980D01*
X-108104180Y-91597171D01*
X-108056561Y-91549552D01*
X-107961323Y-91501933D01*
X-107723228Y-91501933D01*
X-107627990Y-91549552D01*
X-107580371Y-91597171D01*
X-107532752Y-91692409D01*
X-107532752Y-91930504D01*
X-107580371Y-92025742D01*
X-107627990Y-92073361D01*
X-107723228Y-92120980D01*
X-107961323Y-92120980D01*
X-108056561Y-92073361D01*
X-108104180Y-92025742D01*
X-107199419Y-91120980D02*
X-106532752Y-91120980D01*
X-106961323Y-92120980D01*
X-87218447Y-91222580D02*
X-86551780Y-91222580D01*
X-86980352Y-92222580D01*
X-85742257Y-91555914D02*
X-85742257Y-92222580D01*
X-85980352Y-91174961D02*
X-86218447Y-91889247D01*
X-85599400Y-91889247D01*
X-84742257Y-92222580D02*
X-85218447Y-92222580D01*
X-85218447Y-91222580D01*
X-84456542Y-92174961D02*
X-84313685Y-92222580D01*
X-84075590Y-92222580D01*
X-83980352Y-92174961D01*
X-83932733Y-92127342D01*
X-83885114Y-92032104D01*
X-83885114Y-91936866D01*
X-83932733Y-91841628D01*
X-83980352Y-91794009D01*
X-84075590Y-91746390D01*
X-84266066Y-91698771D01*
X-84361304Y-91651152D01*
X-84408923Y-91603533D01*
X-84456542Y-91508295D01*
X-84456542Y-91413057D01*
X-84408923Y-91317819D01*
X-84361304Y-91270200D01*
X-84266066Y-91222580D01*
X-84027971Y-91222580D01*
X-83885114Y-91270200D01*
X-82932733Y-92222580D02*
X-83504161Y-92222580D01*
X-83218447Y-92222580D02*
X-83218447Y-91222580D01*
X-83313685Y-91365438D01*
X-83408923Y-91460676D01*
X-83504161Y-91508295D01*
X-82027971Y-91222580D02*
X-82504161Y-91222580D01*
X-82551780Y-91698771D01*
X-82504161Y-91651152D01*
X-82408923Y-91603533D01*
X-82170828Y-91603533D01*
X-82075590Y-91651152D01*
X-82027971Y-91698771D01*
X-81980352Y-91794009D01*
X-81980352Y-92032104D01*
X-82027971Y-92127342D01*
X-82075590Y-92174961D01*
X-82170828Y-92222580D01*
X-82408923Y-92222580D01*
X-82504161Y-92174961D01*
X-82551780Y-92127342D01*
X-81647019Y-91222580D02*
X-80980352Y-91222580D01*
X-81408923Y-92222580D01*
X-142107847Y-57313580D02*
X-141441180Y-57313580D01*
X-141869752Y-58313580D01*
X-140631657Y-57646914D02*
X-140631657Y-58313580D01*
X-140869752Y-57265961D02*
X-141107847Y-57980247D01*
X-140488800Y-57980247D01*
X-139631657Y-58313580D02*
X-140107847Y-58313580D01*
X-140107847Y-57313580D01*
X-139345942Y-58265961D02*
X-139203085Y-58313580D01*
X-138964990Y-58313580D01*
X-138869752Y-58265961D01*
X-138822133Y-58218342D01*
X-138774514Y-58123104D01*
X-138774514Y-58027866D01*
X-138822133Y-57932628D01*
X-138869752Y-57885009D01*
X-138964990Y-57837390D01*
X-139155466Y-57789771D01*
X-139250704Y-57742152D01*
X-139298323Y-57694533D01*
X-139345942Y-57599295D01*
X-139345942Y-57504057D01*
X-139298323Y-57408819D01*
X-139250704Y-57361200D01*
X-139155466Y-57313580D01*
X-138917371Y-57313580D01*
X-138774514Y-57361200D01*
X-137822133Y-58313580D02*
X-138393561Y-58313580D01*
X-138107847Y-58313580D02*
X-138107847Y-57313580D01*
X-138203085Y-57456438D01*
X-138298323Y-57551676D01*
X-138393561Y-57599295D01*
X-136964990Y-57313580D02*
X-137155466Y-57313580D01*
X-137250704Y-57361200D01*
X-137298323Y-57408819D01*
X-137393561Y-57551676D01*
X-137441180Y-57742152D01*
X-137441180Y-58123104D01*
X-137393561Y-58218342D01*
X-137345942Y-58265961D01*
X-137250704Y-58313580D01*
X-137060228Y-58313580D01*
X-136964990Y-58265961D01*
X-136917371Y-58218342D01*
X-136869752Y-58123104D01*
X-136869752Y-57885009D01*
X-136917371Y-57789771D01*
X-136964990Y-57742152D01*
X-137060228Y-57694533D01*
X-137250704Y-57694533D01*
X-137345942Y-57742152D01*
X-137393561Y-57789771D01*
X-137441180Y-57885009D01*
X-136393561Y-58313580D02*
X-136203085Y-58313580D01*
X-136107847Y-58265961D01*
X-136060228Y-58218342D01*
X-135964990Y-58075485D01*
X-135917371Y-57885009D01*
X-135917371Y-57504057D01*
X-135964990Y-57408819D01*
X-136012609Y-57361200D01*
X-136107847Y-57313580D01*
X-136298323Y-57313580D01*
X-136393561Y-57361200D01*
X-136441180Y-57408819D01*
X-136488800Y-57504057D01*
X-136488800Y-57742152D01*
X-136441180Y-57837390D01*
X-136393561Y-57885009D01*
X-136298323Y-57932628D01*
X-136107847Y-57932628D01*
X-136012609Y-57885009D01*
X-135964990Y-57837390D01*
X-135917371Y-57742152D01*
X-142336447Y-46391580D02*
X-141669780Y-46391580D01*
X-142098352Y-47391580D01*
X-140860257Y-46724914D02*
X-140860257Y-47391580D01*
X-141098352Y-46343961D02*
X-141336447Y-47058247D01*
X-140717400Y-47058247D01*
X-139860257Y-47391580D02*
X-140336447Y-47391580D01*
X-140336447Y-46391580D01*
X-139574542Y-47343961D02*
X-139431685Y-47391580D01*
X-139193590Y-47391580D01*
X-139098352Y-47343961D01*
X-139050733Y-47296342D01*
X-139003114Y-47201104D01*
X-139003114Y-47105866D01*
X-139050733Y-47010628D01*
X-139098352Y-46963009D01*
X-139193590Y-46915390D01*
X-139384066Y-46867771D01*
X-139479304Y-46820152D01*
X-139526923Y-46772533D01*
X-139574542Y-46677295D01*
X-139574542Y-46582057D01*
X-139526923Y-46486819D01*
X-139479304Y-46439200D01*
X-139384066Y-46391580D01*
X-139145971Y-46391580D01*
X-139003114Y-46439200D01*
X-138050733Y-47391580D02*
X-138622161Y-47391580D01*
X-138336447Y-47391580D02*
X-138336447Y-46391580D01*
X-138431685Y-46534438D01*
X-138526923Y-46629676D01*
X-138622161Y-46677295D01*
X-137193590Y-46391580D02*
X-137384066Y-46391580D01*
X-137479304Y-46439200D01*
X-137526923Y-46486819D01*
X-137622161Y-46629676D01*
X-137669780Y-46820152D01*
X-137669780Y-47201104D01*
X-137622161Y-47296342D01*
X-137574542Y-47343961D01*
X-137479304Y-47391580D01*
X-137288828Y-47391580D01*
X-137193590Y-47343961D01*
X-137145971Y-47296342D01*
X-137098352Y-47201104D01*
X-137098352Y-46963009D01*
X-137145971Y-46867771D01*
X-137193590Y-46820152D01*
X-137288828Y-46772533D01*
X-137479304Y-46772533D01*
X-137574542Y-46820152D01*
X-137622161Y-46867771D01*
X-137669780Y-46963009D01*
X-136622161Y-47391580D02*
X-136431685Y-47391580D01*
X-136336447Y-47343961D01*
X-136288828Y-47296342D01*
X-136193590Y-47153485D01*
X-136145971Y-46963009D01*
X-136145971Y-46582057D01*
X-136193590Y-46486819D01*
X-136241209Y-46439200D01*
X-136336447Y-46391580D01*
X-136526923Y-46391580D01*
X-136622161Y-46439200D01*
X-136669780Y-46486819D01*
X-136717400Y-46582057D01*
X-136717400Y-46820152D01*
X-136669780Y-46915390D01*
X-136622161Y-46963009D01*
X-136526923Y-47010628D01*
X-136336447Y-47010628D01*
X-136241209Y-46963009D01*
X-136193590Y-46915390D01*
X-136145971Y-46820152D01*
X-144495447Y-68489580D02*
X-143828780Y-68489580D01*
X-144257352Y-69489580D01*
X-143019257Y-68822914D02*
X-143019257Y-69489580D01*
X-143257352Y-68441961D02*
X-143495447Y-69156247D01*
X-142876400Y-69156247D01*
X-142019257Y-69489580D02*
X-142495447Y-69489580D01*
X-142495447Y-68489580D01*
X-141733542Y-69441961D02*
X-141590685Y-69489580D01*
X-141352590Y-69489580D01*
X-141257352Y-69441961D01*
X-141209733Y-69394342D01*
X-141162114Y-69299104D01*
X-141162114Y-69203866D01*
X-141209733Y-69108628D01*
X-141257352Y-69061009D01*
X-141352590Y-69013390D01*
X-141543066Y-68965771D01*
X-141638304Y-68918152D01*
X-141685923Y-68870533D01*
X-141733542Y-68775295D01*
X-141733542Y-68680057D01*
X-141685923Y-68584819D01*
X-141638304Y-68537200D01*
X-141543066Y-68489580D01*
X-141304971Y-68489580D01*
X-141162114Y-68537200D01*
X-140257352Y-68489580D02*
X-140733542Y-68489580D01*
X-140781161Y-68965771D01*
X-140733542Y-68918152D01*
X-140638304Y-68870533D01*
X-140400209Y-68870533D01*
X-140304971Y-68918152D01*
X-140257352Y-68965771D01*
X-140209733Y-69061009D01*
X-140209733Y-69299104D01*
X-140257352Y-69394342D01*
X-140304971Y-69441961D01*
X-140400209Y-69489580D01*
X-140638304Y-69489580D01*
X-140733542Y-69441961D01*
X-140781161Y-69394342D01*
X-139352590Y-68822914D02*
X-139352590Y-69489580D01*
X-139590685Y-68441961D02*
X-139828780Y-69156247D01*
X-139209733Y-69156247D01*
X-138304971Y-69489580D02*
X-138876400Y-69489580D01*
X-138590685Y-69489580D02*
X-138590685Y-68489580D01*
X-138685923Y-68632438D01*
X-138781161Y-68727676D01*
X-138876400Y-68775295D01*
X-115437847Y-57567580D02*
X-114771180Y-57567580D01*
X-115199752Y-58567580D01*
X-113961657Y-57900914D02*
X-113961657Y-58567580D01*
X-114199752Y-57519961D02*
X-114437847Y-58234247D01*
X-113818800Y-58234247D01*
X-112961657Y-58567580D02*
X-113437847Y-58567580D01*
X-113437847Y-57567580D01*
X-112675942Y-58519961D02*
X-112533085Y-58567580D01*
X-112294990Y-58567580D01*
X-112199752Y-58519961D01*
X-112152133Y-58472342D01*
X-112104514Y-58377104D01*
X-112104514Y-58281866D01*
X-112152133Y-58186628D01*
X-112199752Y-58139009D01*
X-112294990Y-58091390D01*
X-112485466Y-58043771D01*
X-112580704Y-57996152D01*
X-112628323Y-57948533D01*
X-112675942Y-57853295D01*
X-112675942Y-57758057D01*
X-112628323Y-57662819D01*
X-112580704Y-57615200D01*
X-112485466Y-57567580D01*
X-112247371Y-57567580D01*
X-112104514Y-57615200D01*
X-111152133Y-58567580D02*
X-111723561Y-58567580D01*
X-111437847Y-58567580D02*
X-111437847Y-57567580D01*
X-111533085Y-57710438D01*
X-111628323Y-57805676D01*
X-111723561Y-57853295D01*
X-110294990Y-57567580D02*
X-110485466Y-57567580D01*
X-110580704Y-57615200D01*
X-110628323Y-57662819D01*
X-110723561Y-57805676D01*
X-110771180Y-57996152D01*
X-110771180Y-58377104D01*
X-110723561Y-58472342D01*
X-110675942Y-58519961D01*
X-110580704Y-58567580D01*
X-110390228Y-58567580D01*
X-110294990Y-58519961D01*
X-110247371Y-58472342D01*
X-110199752Y-58377104D01*
X-110199752Y-58139009D01*
X-110247371Y-58043771D01*
X-110294990Y-57996152D01*
X-110390228Y-57948533D01*
X-110580704Y-57948533D01*
X-110675942Y-57996152D01*
X-110723561Y-58043771D01*
X-110771180Y-58139009D01*
X-109723561Y-58567580D02*
X-109533085Y-58567580D01*
X-109437847Y-58519961D01*
X-109390228Y-58472342D01*
X-109294990Y-58329485D01*
X-109247371Y-58139009D01*
X-109247371Y-57758057D01*
X-109294990Y-57662819D01*
X-109342609Y-57615200D01*
X-109437847Y-57567580D01*
X-109628323Y-57567580D01*
X-109723561Y-57615200D01*
X-109771180Y-57662819D01*
X-109818800Y-57758057D01*
X-109818800Y-57996152D01*
X-109771180Y-58091390D01*
X-109723561Y-58139009D01*
X-109628323Y-58186628D01*
X-109437847Y-58186628D01*
X-109342609Y-58139009D01*
X-109294990Y-58091390D01*
X-109247371Y-57996152D01*
X-115564847Y-46239180D02*
X-114898180Y-46239180D01*
X-115326752Y-47239180D01*
X-114088657Y-46572514D02*
X-114088657Y-47239180D01*
X-114326752Y-46191561D02*
X-114564847Y-46905847D01*
X-113945800Y-46905847D01*
X-113088657Y-47239180D02*
X-113564847Y-47239180D01*
X-113564847Y-46239180D01*
X-112802942Y-47191561D02*
X-112660085Y-47239180D01*
X-112421990Y-47239180D01*
X-112326752Y-47191561D01*
X-112279133Y-47143942D01*
X-112231514Y-47048704D01*
X-112231514Y-46953466D01*
X-112279133Y-46858228D01*
X-112326752Y-46810609D01*
X-112421990Y-46762990D01*
X-112612466Y-46715371D01*
X-112707704Y-46667752D01*
X-112755323Y-46620133D01*
X-112802942Y-46524895D01*
X-112802942Y-46429657D01*
X-112755323Y-46334419D01*
X-112707704Y-46286800D01*
X-112612466Y-46239180D01*
X-112374371Y-46239180D01*
X-112231514Y-46286800D01*
X-111279133Y-47239180D02*
X-111850561Y-47239180D01*
X-111564847Y-47239180D02*
X-111564847Y-46239180D01*
X-111660085Y-46382038D01*
X-111755323Y-46477276D01*
X-111850561Y-46524895D01*
X-110421990Y-46239180D02*
X-110612466Y-46239180D01*
X-110707704Y-46286800D01*
X-110755323Y-46334419D01*
X-110850561Y-46477276D01*
X-110898180Y-46667752D01*
X-110898180Y-47048704D01*
X-110850561Y-47143942D01*
X-110802942Y-47191561D01*
X-110707704Y-47239180D01*
X-110517228Y-47239180D01*
X-110421990Y-47191561D01*
X-110374371Y-47143942D01*
X-110326752Y-47048704D01*
X-110326752Y-46810609D01*
X-110374371Y-46715371D01*
X-110421990Y-46667752D01*
X-110517228Y-46620133D01*
X-110707704Y-46620133D01*
X-110802942Y-46667752D01*
X-110850561Y-46715371D01*
X-110898180Y-46810609D01*
X-109850561Y-47239180D02*
X-109660085Y-47239180D01*
X-109564847Y-47191561D01*
X-109517228Y-47143942D01*
X-109421990Y-47001085D01*
X-109374371Y-46810609D01*
X-109374371Y-46429657D01*
X-109421990Y-46334419D01*
X-109469609Y-46286800D01*
X-109564847Y-46239180D01*
X-109755323Y-46239180D01*
X-109850561Y-46286800D01*
X-109898180Y-46334419D01*
X-109945800Y-46429657D01*
X-109945800Y-46667752D01*
X-109898180Y-46762990D01*
X-109850561Y-46810609D01*
X-109755323Y-46858228D01*
X-109564847Y-46858228D01*
X-109469609Y-46810609D01*
X-109421990Y-46762990D01*
X-109374371Y-46667752D01*
X-117952447Y-68845180D02*
X-117285780Y-68845180D01*
X-117714352Y-69845180D01*
X-116476257Y-69178514D02*
X-116476257Y-69845180D01*
X-116714352Y-68797561D02*
X-116952447Y-69511847D01*
X-116333400Y-69511847D01*
X-115476257Y-69845180D02*
X-115952447Y-69845180D01*
X-115952447Y-68845180D01*
X-115190542Y-69797561D02*
X-115047685Y-69845180D01*
X-114809590Y-69845180D01*
X-114714352Y-69797561D01*
X-114666733Y-69749942D01*
X-114619114Y-69654704D01*
X-114619114Y-69559466D01*
X-114666733Y-69464228D01*
X-114714352Y-69416609D01*
X-114809590Y-69368990D01*
X-115000066Y-69321371D01*
X-115095304Y-69273752D01*
X-115142923Y-69226133D01*
X-115190542Y-69130895D01*
X-115190542Y-69035657D01*
X-115142923Y-68940419D01*
X-115095304Y-68892800D01*
X-115000066Y-68845180D01*
X-114761971Y-68845180D01*
X-114619114Y-68892800D01*
X-113714352Y-68845180D02*
X-114190542Y-68845180D01*
X-114238161Y-69321371D01*
X-114190542Y-69273752D01*
X-114095304Y-69226133D01*
X-113857209Y-69226133D01*
X-113761971Y-69273752D01*
X-113714352Y-69321371D01*
X-113666733Y-69416609D01*
X-113666733Y-69654704D01*
X-113714352Y-69749942D01*
X-113761971Y-69797561D01*
X-113857209Y-69845180D01*
X-114095304Y-69845180D01*
X-114190542Y-69797561D01*
X-114238161Y-69749942D01*
X-112809590Y-69178514D02*
X-112809590Y-69845180D01*
X-113047685Y-68797561D02*
X-113285780Y-69511847D01*
X-112666733Y-69511847D01*
X-111761971Y-69845180D02*
X-112333400Y-69845180D01*
X-112047685Y-69845180D02*
X-112047685Y-68845180D01*
X-112142923Y-68988038D01*
X-112238161Y-69083276D01*
X-112333400Y-69130895D01*
X-89021847Y-57516780D02*
X-88355180Y-57516780D01*
X-88783752Y-58516780D01*
X-87545657Y-57850114D02*
X-87545657Y-58516780D01*
X-87783752Y-57469161D02*
X-88021847Y-58183447D01*
X-87402800Y-58183447D01*
X-86545657Y-58516780D02*
X-87021847Y-58516780D01*
X-87021847Y-57516780D01*
X-86259942Y-58469161D02*
X-86117085Y-58516780D01*
X-85878990Y-58516780D01*
X-85783752Y-58469161D01*
X-85736133Y-58421542D01*
X-85688514Y-58326304D01*
X-85688514Y-58231066D01*
X-85736133Y-58135828D01*
X-85783752Y-58088209D01*
X-85878990Y-58040590D01*
X-86069466Y-57992971D01*
X-86164704Y-57945352D01*
X-86212323Y-57897733D01*
X-86259942Y-57802495D01*
X-86259942Y-57707257D01*
X-86212323Y-57612019D01*
X-86164704Y-57564400D01*
X-86069466Y-57516780D01*
X-85831371Y-57516780D01*
X-85688514Y-57564400D01*
X-84736133Y-58516780D02*
X-85307561Y-58516780D01*
X-85021847Y-58516780D02*
X-85021847Y-57516780D01*
X-85117085Y-57659638D01*
X-85212323Y-57754876D01*
X-85307561Y-57802495D01*
X-83878990Y-57516780D02*
X-84069466Y-57516780D01*
X-84164704Y-57564400D01*
X-84212323Y-57612019D01*
X-84307561Y-57754876D01*
X-84355180Y-57945352D01*
X-84355180Y-58326304D01*
X-84307561Y-58421542D01*
X-84259942Y-58469161D01*
X-84164704Y-58516780D01*
X-83974228Y-58516780D01*
X-83878990Y-58469161D01*
X-83831371Y-58421542D01*
X-83783752Y-58326304D01*
X-83783752Y-58088209D01*
X-83831371Y-57992971D01*
X-83878990Y-57945352D01*
X-83974228Y-57897733D01*
X-84164704Y-57897733D01*
X-84259942Y-57945352D01*
X-84307561Y-57992971D01*
X-84355180Y-58088209D01*
X-83307561Y-58516780D02*
X-83117085Y-58516780D01*
X-83021847Y-58469161D01*
X-82974228Y-58421542D01*
X-82878990Y-58278685D01*
X-82831371Y-58088209D01*
X-82831371Y-57707257D01*
X-82878990Y-57612019D01*
X-82926609Y-57564400D01*
X-83021847Y-57516780D01*
X-83212323Y-57516780D01*
X-83307561Y-57564400D01*
X-83355180Y-57612019D01*
X-83402800Y-57707257D01*
X-83402800Y-57945352D01*
X-83355180Y-58040590D01*
X-83307561Y-58088209D01*
X-83212323Y-58135828D01*
X-83021847Y-58135828D01*
X-82926609Y-58088209D01*
X-82878990Y-58040590D01*
X-82831371Y-57945352D01*
X-89047247Y-46366180D02*
X-88380580Y-46366180D01*
X-88809152Y-47366180D01*
X-87571057Y-46699514D02*
X-87571057Y-47366180D01*
X-87809152Y-46318561D02*
X-88047247Y-47032847D01*
X-87428200Y-47032847D01*
X-86571057Y-47366180D02*
X-87047247Y-47366180D01*
X-87047247Y-46366180D01*
X-86285342Y-47318561D02*
X-86142485Y-47366180D01*
X-85904390Y-47366180D01*
X-85809152Y-47318561D01*
X-85761533Y-47270942D01*
X-85713914Y-47175704D01*
X-85713914Y-47080466D01*
X-85761533Y-46985228D01*
X-85809152Y-46937609D01*
X-85904390Y-46889990D01*
X-86094866Y-46842371D01*
X-86190104Y-46794752D01*
X-86237723Y-46747133D01*
X-86285342Y-46651895D01*
X-86285342Y-46556657D01*
X-86237723Y-46461419D01*
X-86190104Y-46413800D01*
X-86094866Y-46366180D01*
X-85856771Y-46366180D01*
X-85713914Y-46413800D01*
X-84761533Y-47366180D02*
X-85332961Y-47366180D01*
X-85047247Y-47366180D02*
X-85047247Y-46366180D01*
X-85142485Y-46509038D01*
X-85237723Y-46604276D01*
X-85332961Y-46651895D01*
X-83904390Y-46366180D02*
X-84094866Y-46366180D01*
X-84190104Y-46413800D01*
X-84237723Y-46461419D01*
X-84332961Y-46604276D01*
X-84380580Y-46794752D01*
X-84380580Y-47175704D01*
X-84332961Y-47270942D01*
X-84285342Y-47318561D01*
X-84190104Y-47366180D01*
X-83999628Y-47366180D01*
X-83904390Y-47318561D01*
X-83856771Y-47270942D01*
X-83809152Y-47175704D01*
X-83809152Y-46937609D01*
X-83856771Y-46842371D01*
X-83904390Y-46794752D01*
X-83999628Y-46747133D01*
X-84190104Y-46747133D01*
X-84285342Y-46794752D01*
X-84332961Y-46842371D01*
X-84380580Y-46937609D01*
X-83332961Y-47366180D02*
X-83142485Y-47366180D01*
X-83047247Y-47318561D01*
X-82999628Y-47270942D01*
X-82904390Y-47128085D01*
X-82856771Y-46937609D01*
X-82856771Y-46556657D01*
X-82904390Y-46461419D01*
X-82952009Y-46413800D01*
X-83047247Y-46366180D01*
X-83237723Y-46366180D01*
X-83332961Y-46413800D01*
X-83380580Y-46461419D01*
X-83428200Y-46556657D01*
X-83428200Y-46794752D01*
X-83380580Y-46889990D01*
X-83332961Y-46937609D01*
X-83237723Y-46985228D01*
X-83047247Y-46985228D01*
X-82952009Y-46937609D01*
X-82904390Y-46889990D01*
X-82856771Y-46794752D01*
X-91511047Y-68692780D02*
X-90844380Y-68692780D01*
X-91272952Y-69692780D01*
X-90034857Y-69026114D02*
X-90034857Y-69692780D01*
X-90272952Y-68645161D02*
X-90511047Y-69359447D01*
X-89892000Y-69359447D01*
X-89034857Y-69692780D02*
X-89511047Y-69692780D01*
X-89511047Y-68692780D01*
X-88749142Y-69645161D02*
X-88606285Y-69692780D01*
X-88368190Y-69692780D01*
X-88272952Y-69645161D01*
X-88225333Y-69597542D01*
X-88177714Y-69502304D01*
X-88177714Y-69407066D01*
X-88225333Y-69311828D01*
X-88272952Y-69264209D01*
X-88368190Y-69216590D01*
X-88558666Y-69168971D01*
X-88653904Y-69121352D01*
X-88701523Y-69073733D01*
X-88749142Y-68978495D01*
X-88749142Y-68883257D01*
X-88701523Y-68788019D01*
X-88653904Y-68740400D01*
X-88558666Y-68692780D01*
X-88320571Y-68692780D01*
X-88177714Y-68740400D01*
X-87272952Y-68692780D02*
X-87749142Y-68692780D01*
X-87796761Y-69168971D01*
X-87749142Y-69121352D01*
X-87653904Y-69073733D01*
X-87415809Y-69073733D01*
X-87320571Y-69121352D01*
X-87272952Y-69168971D01*
X-87225333Y-69264209D01*
X-87225333Y-69502304D01*
X-87272952Y-69597542D01*
X-87320571Y-69645161D01*
X-87415809Y-69692780D01*
X-87653904Y-69692780D01*
X-87749142Y-69645161D01*
X-87796761Y-69597542D01*
X-86368190Y-69026114D02*
X-86368190Y-69692780D01*
X-86606285Y-68645161D02*
X-86844380Y-69359447D01*
X-86225333Y-69359447D01*
X-85320571Y-69692780D02*
X-85892000Y-69692780D01*
X-85606285Y-69692780D02*
X-85606285Y-68692780D01*
X-85701523Y-68835638D01*
X-85796761Y-68930876D01*
X-85892000Y-68978495D01*
M02*
