M48
; DRILL file {KiCad (5.1.4-0-10_14)} date Tuesday, February 04, 2020 at 07:50:17 PM
; FORMAT={-:-/ absolute / inch / decimal}
; #@! TF.CreationDate,2020-02-04T19:50:17-08:00
; #@! TF.GenerationSoftware,Kicad,Pcbnew,(5.1.4-0-10_14)
; #@! TF.FileFunction,Plated,1,4,PTH
FMAT,2
INCH
T1C0.0157
T2C0.0315
T3C0.0354
T4C0.0394
%
G90
G05
T1
X-6.1975Y-3.855
X-6.1375Y-3.475
X-6.1275Y-3.0475
X-6.1175Y-3.2875
X-6.1075Y-2.4
X-6.105Y-1.345
X-6.1025Y-1.9075
X-6.1025Y-2.165
X-6.0975Y-1.6125
X-6.0275Y-4.095
X-5.9875Y-3.7425
X-5.975Y-1.1375
X-5.8175Y-4.21
X-5.805Y-2.76
X-5.7775Y-3.68
X-5.745Y-3.1175
X-5.625Y-1.8475
X-5.625Y-2.2975
X-5.62Y-4.21
X-5.58Y-1.1775
X-5.525Y-1.875
X-5.525Y-2.325
X-5.425Y-1.9
X-5.425Y-2.35
X-5.4175Y-4.2075
X-5.37Y-1.785
X-5.3675Y-4.15
X-5.2525Y-3.115
X-5.2225Y-4.21
X-5.2Y-1.785
X-5.1725Y-1.165
X-5.07Y-4.1175
X-5.0675Y-0.9275
X-5.0575Y-2.895
X-5.0275Y-1.615
X-5.02Y-4.2075
X-4.95Y-1.1225
X-4.9475Y-2.0025
X-4.9175Y-3.095
X-4.84Y-3.9916
X-4.805Y-2.795
X-4.7675Y-4.2025
X-4.675Y-2.7725
X-4.58Y-1.845
X-4.58Y-2.286
X-4.58Y-2.75
X-4.5663Y-3.2963
X-4.56Y-4.205
X-4.52Y-3.6385
X-4.48Y-1.8725
X-4.48Y-2.3037
X-4.475Y-2.725
X-4.425Y-0.9775
X-4.38Y-1.8975
X-4.38Y-2.3215
X-4.375Y-2.7
X-4.3725Y-1.785
X-4.365Y-4.2075
X-4.275Y-2.675
X-4.175Y-2.65
X-4.165Y-4.2075
X-4.1375Y-1.14
X-4.08Y-3.2125
X-4.0Y-1.645
X-3.9851Y-2.8645
X-3.965Y-4.205
X-3.9625Y-1.435
X-3.9525Y-1.1775
X-3.9425Y-0.95
X-3.9Y-3.4625
X-3.8075Y-3.8925
X-3.7625Y-4.205
X-3.755Y-2.805
X-3.6275Y-2.7725
X-3.565Y-4.205
X-3.5475Y-3.6575
X-3.5375Y-2.291
X-3.535Y-1.8475
X-3.5325Y-2.75
X-3.475Y-3.8925
X-3.4375Y-2.3087
X-3.435Y-1.875
X-3.4275Y-2.725
X-3.365Y-4.2025
X-3.3375Y-2.3265
X-3.335Y-1.9
X-3.33Y-1.7925
X-3.3275Y-2.7
X-3.2275Y-2.675
X-3.1625Y-4.2025
X-3.1275Y-2.65
X-3.04Y-0.8125
X-2.9675Y-4.2075
X-2.96Y-1.6222
X-2.96Y-2.8775
X-2.815Y-0.9925
X-2.7925Y-0.7525
X-2.7725Y-4.2025
X-2.73Y-3.5925
X-2.685Y-2.8
X-2.5825Y-2.7725
X-2.5725Y-4.005
X-2.57Y-4.205
X-2.54Y-0.7575
X-2.535Y-3.63
X-2.5125Y-3.55
X-2.5125Y-3.55
X-2.4875Y-2.7525
X-2.485Y-1.85
X-2.485Y-2.2935
X-2.3875Y-1.8725
X-2.385Y-2.3112
X-2.3825Y-2.7275
X-2.37Y-4.205
X-2.3575Y-3.8725
X-2.33Y-3.6075
X-2.2875Y-1.9
X-2.285Y-2.329
X-2.2825Y-2.705
X-2.2825Y-1.8025
X-2.2425Y-0.7525
X-2.1825Y-2.6765
X-2.175Y-4.2025
X-2.0825Y-2.65
X-2.02Y-4.1725
X-2.0125Y-0.81
X-1.9875Y-2.0675
X-1.9788Y-2.7312
X-1.9625Y-3.0025
X-1.94Y-4.045
X-1.8575Y-0.955
X-1.8275Y-3.865
X-1.8225Y-1.8375
X-1.8225Y-3.4425
X-1.8225Y-3.63
X-1.82Y-1.5875
X-1.82Y-2.065
X-1.82Y-3.2325
X-1.8175Y-1.115
X-1.8175Y-1.3425
X-1.81Y-2.7675
X-1.8075Y-2.3075
X-1.8075Y-2.5325
T2
X-4.975Y-2.575
X-4.975Y-2.875
X-4.875Y-2.575
X-4.875Y-2.875
X-4.775Y-2.575
X-4.775Y-2.875
X-4.675Y-2.575
X-4.675Y-2.875
X-4.575Y-2.575
X-4.575Y-2.875
X-4.475Y-2.575
X-4.475Y-2.875
X-4.375Y-2.575
X-4.375Y-2.875
X-4.275Y-2.575
X-4.175Y-2.575
X-4.075Y-2.575
X-2.8072Y-3.7822
X-4.075Y-2.875
X-2.8072Y-3.3822
X-4.275Y-2.875
X-4.175Y-2.875
X-5.863Y-3.457
X-5.863Y-3.757
X-5.763Y-3.457
X-5.6278Y-1.1064
X-4.78Y-2.135
X-4.78Y-2.435
X-4.68Y-2.135
X-4.68Y-2.435
X-4.58Y-2.135
X-4.58Y-2.435
X-4.48Y-2.135
X-4.48Y-2.435
X-4.38Y-2.135
X-4.38Y-2.435
X-4.28Y-2.135
X-4.28Y-2.435
X-4.18Y-2.135
X-4.18Y-2.435
X-4.08Y-2.135
X-4.08Y-2.435
X-5.9804Y-2.9996
X-5.9804Y-3.098
X-2.532Y-3.3822
X-2.532Y-3.7822
X-2.845Y-2.135
X-2.845Y-2.2334
X-4.8882Y-1.4968
X-4.7882Y-1.4968
X-4.6882Y-1.4968
X-4.5882Y-1.4968
X-4.4882Y-1.4968
X-4.3882Y-1.4968
X-4.2882Y-1.4968
X-4.1882Y-1.4968
X-4.0882Y-1.4968
X-3.89Y-1.695
X-3.89Y-1.7934
X-4.667Y-3.461
X-4.667Y-3.761
X-4.567Y-3.461
X-5.163Y-3.757
X-4.567Y-3.761
X-4.467Y-3.461
X-4.467Y-3.761
X-4.367Y-3.461
X-4.367Y-3.761
X-4.267Y-3.461
X-4.267Y-3.761
X-4.167Y-3.461
X-4.167Y-3.761
X-4.067Y-3.461
X-3.967Y-3.461
X-5.063Y-3.457
X-4.963Y-3.457
X-5.97Y-1.7934
X-5.763Y-3.757
X-5.363Y-3.757
X-4.067Y-3.761
X-3.967Y-3.761
X-5.663Y-3.757
X-5.563Y-3.457
X-5.463Y-3.457
X-5.363Y-3.457
X-5.263Y-3.757
X-5.163Y-3.457
X-5.063Y-3.757
X-4.963Y-3.757
X-5.97Y-1.695
X-5.663Y-3.457
X-5.563Y-3.757
X-5.463Y-3.757
X-5.263Y-3.457
X-2.685Y-2.135
X-2.685Y-2.435
X-2.585Y-2.135
X-2.585Y-2.435
X-2.485Y-2.135
X-2.485Y-2.435
X-2.385Y-2.135
X-2.385Y-2.435
X-2.285Y-2.135
X-2.285Y-2.435
X-2.185Y-2.135
X-2.185Y-2.435
X-2.085Y-2.135
X-2.085Y-2.435
X-1.985Y-2.135
X-1.985Y-2.435
X-4.935Y-2.12
X-2.5956Y-1.1122
X-2.4956Y-1.1122
X-2.3956Y-1.1122
X-2.2956Y-1.1122
X-2.1956Y-1.1122
X-5.4278Y-1.1064
X-5.3278Y-1.1064
X-4.78Y-1.695
X-4.78Y-1.995
X-4.68Y-1.695
X-4.68Y-1.995
X-4.58Y-1.695
X-4.58Y-1.995
X-4.48Y-1.695
X-4.48Y-1.995
X-4.38Y-1.695
X-4.38Y-1.995
X-4.28Y-1.695
X-4.28Y-1.995
X-4.18Y-1.695
X-4.18Y-1.995
X-4.08Y-1.695
X-4.08Y-1.995
X-4.935Y-2.2184
X-5.7278Y-1.1064
X-5.97Y-2.135
X-5.97Y-2.2334
X-5.5278Y-1.1064
X-3.89Y-2.355
X-3.89Y-2.4534
X-3.735Y-2.135
X-3.735Y-2.435
X-3.635Y-2.135
X-3.635Y-2.435
X-3.535Y-2.135
X-3.535Y-2.435
X-3.435Y-2.135
X-3.435Y-2.435
X-3.335Y-1.1134
X-3.635Y-1.1134
X-3.535Y-1.1134
X-3.435Y-1.1134
X-3.235Y-1.1134
X-3.035Y-2.435
X-2.845Y-1.695
X-2.845Y-1.7934
X-3.335Y-2.135
X-3.235Y-2.435
X-2.667Y-3.3822
X-2.667Y-3.7822
X-3.335Y-2.435
X-3.035Y-2.135
X-5.989Y-3.445
X-5.989Y-3.5434
X-3.135Y-2.135
X-3.135Y-2.435
X-4.5838Y-3.0016
X-4.5838Y-3.1
X-3.235Y-2.135
X-5.825Y-1.695
X-5.825Y-1.995
X-5.725Y-1.695
X-5.725Y-1.995
X-5.625Y-1.695
X-5.625Y-1.995
X-5.525Y-1.695
X-5.525Y-1.995
X-5.425Y-1.695
X-5.425Y-1.995
X-5.325Y-1.695
X-5.325Y-1.995
X-5.225Y-1.695
X-5.225Y-1.995
X-5.125Y-1.695
X-5.125Y-1.995
X-2.84Y-2.36
X-4.46Y-3.0182
X-4.94Y-1.695
X-4.46Y-3.3182
X-4.36Y-3.0182
X-4.36Y-3.3182
X-4.26Y-3.0182
X-4.26Y-3.3182
X-4.16Y-3.0182
X-4.16Y-3.3182
X-4.06Y-3.0182
X-4.06Y-3.3182
X-3.96Y-3.0182
X-3.96Y-3.3182
X-3.86Y-3.0182
X-3.86Y-3.3182
X-2.885Y-2.575
X-3.53Y-2.575
X-3.93Y-2.575
X-4.6828Y-1.1074
X-4.5828Y-1.1074
X-4.4828Y-1.1074
X-4.3828Y-1.1074
X-4.2828Y-1.1074
X-4.94Y-1.7934
X-2.84Y-2.4584
X-2.885Y-2.875
X-1.985Y-2.575
X-2.785Y-2.875
X-2.085Y-2.575
X-5.8606Y-3.3172
X-4.7606Y-3.0172
X-5.7606Y-3.3172
X-4.8606Y-3.0172
X-5.6606Y-3.3172
X-4.9606Y-3.0172
X-5.5606Y-3.3172
X-5.0606Y-3.0172
X-5.4606Y-3.3172
X-5.1606Y-3.0172
X-5.3606Y-3.3172
X-5.2606Y-3.0172
X-5.2606Y-3.3172
X-5.3606Y-3.0172
X-5.1606Y-3.3172
X-5.4606Y-3.0172
X-5.0606Y-3.3172
X-5.5606Y-3.0172
X-4.9606Y-3.3172
X-5.6606Y-3.0172
X-4.8606Y-3.3172
X-5.7606Y-3.0172
X-4.7606Y-3.3172
X-5.8606Y-3.0172
X-2.685Y-2.875
X-1.985Y-2.875
X-2.785Y-2.575
X-2.085Y-2.875
X-2.685Y-2.575
X-2.185Y-2.875
X-2.585Y-2.575
X-2.285Y-2.875
X-2.485Y-2.575
X-2.385Y-2.875
X-2.385Y-2.575
X-2.485Y-2.875
X-2.285Y-2.575
X-2.585Y-2.875
X-2.185Y-2.575
X-3.93Y-2.875
X-3.83Y-2.575
X-3.83Y-2.875
X-3.73Y-2.575
X-3.73Y-2.875
X-3.63Y-2.575
X-3.63Y-2.875
X-3.53Y-2.875
X-3.43Y-2.575
X-3.43Y-2.875
X-3.33Y-2.575
X-3.33Y-2.875
X-3.23Y-2.575
X-3.23Y-2.875
X-3.13Y-2.575
X-3.13Y-2.875
X-3.03Y-2.575
X-3.03Y-2.875
X-6.02Y-2.575
X-6.02Y-2.875
X-5.92Y-2.575
X-5.92Y-2.875
X-5.82Y-2.575
X-5.82Y-2.875
X-5.72Y-2.575
X-5.72Y-2.875
X-5.62Y-2.575
X-5.62Y-2.875
X-5.52Y-2.575
X-5.52Y-2.875
X-5.42Y-2.575
X-5.42Y-2.875
X-5.32Y-2.575
X-5.32Y-2.875
X-5.22Y-2.575
X-5.22Y-2.875
X-5.12Y-2.575
X-5.12Y-2.875
X-5.825Y-2.135
X-5.825Y-2.435
X-5.725Y-2.135
X-5.725Y-2.435
X-5.625Y-2.135
X-5.625Y-2.435
X-5.525Y-2.135
X-5.525Y-2.435
X-5.425Y-2.135
X-5.425Y-2.435
X-5.325Y-2.135
X-5.325Y-2.435
X-5.225Y-2.135
X-5.225Y-2.435
X-5.125Y-2.135
X-3.89Y-2.23
X-3.89Y-2.1316
X-5.125Y-2.435
X-5.97Y-2.355
X-5.97Y-2.4534
X-4.935Y-2.355
X-4.935Y-2.4534
X-2.685Y-1.695
X-2.685Y-1.995
X-2.585Y-1.695
X-2.585Y-1.995
X-2.485Y-1.695
X-2.485Y-1.995
X-2.385Y-1.695
X-2.385Y-1.995
X-2.285Y-1.695
X-2.285Y-1.995
X-2.185Y-1.695
X-2.185Y-1.995
X-2.085Y-1.695
X-2.085Y-1.995
X-1.985Y-1.695
X-1.985Y-1.995
X-3.6812Y-2.9962
X-3.655Y-3.465
X-3.655Y-3.765
X-3.555Y-3.465
X-3.555Y-3.765
X-3.455Y-3.465
X-3.455Y-3.765
X-3.355Y-3.465
X-3.355Y-3.765
X-3.255Y-3.465
X-3.255Y-3.765
X-3.155Y-3.465
X-3.155Y-3.765
X-3.055Y-3.465
X-3.055Y-3.765
X-2.955Y-3.465
X-2.955Y-3.765
X-3.5578Y-3.0144
X-3.5578Y-3.3144
X-3.4578Y-3.0144
X-3.4578Y-3.3144
X-3.3578Y-3.0144
X-3.3578Y-3.3144
X-3.2578Y-3.0144
X-3.2578Y-3.3144
X-3.1578Y-3.0144
X-3.1578Y-3.3144
X-3.0578Y-3.0144
X-2.9578Y-3.0144
X-2.9578Y-3.3144
X-2.7932Y-1.4956
X-2.6932Y-1.4956
X-2.5932Y-1.4956
X-2.4932Y-1.4956
X-2.3932Y-1.4956
X-2.2932Y-1.4956
X-2.1932Y-1.4956
X-2.0932Y-1.4956
X-1.9932Y-1.4956
X-3.0578Y-3.3144
X-2.3934Y-3.3826
X-2.3934Y-3.7826
X-5.9358Y-1.4992
X-5.8358Y-1.4992
X-5.7358Y-1.4992
X-5.3358Y-1.4992
X-5.2358Y-1.4992
X-5.1358Y-1.4992
X-3.7828Y-3.449
X-3.6812Y-3.0946
X-5.6358Y-1.4992
X-5.5358Y-1.4992
X-5.4358Y-1.4992
X-3.7828Y-3.5474
X-4.784Y-3.436
X-4.784Y-3.5344
X-3.735Y-1.695
X-3.735Y-1.995
X-3.635Y-1.695
X-3.635Y-1.995
X-3.535Y-1.695
X-3.535Y-1.995
X-3.435Y-1.695
X-3.435Y-1.995
X-3.335Y-1.695
X-3.335Y-1.995
X-3.235Y-1.695
X-3.235Y-1.995
X-3.135Y-1.695
X-3.135Y-1.995
X-3.035Y-1.995
X-3.8386Y-1.499
X-3.7386Y-1.499
X-3.035Y-1.695
X-3.6386Y-1.499
X-3.5386Y-1.499
X-3.4386Y-1.499
X-3.3386Y-1.499
X-3.2386Y-1.499
X-3.1386Y-1.499
X-3.0386Y-1.499
T3
X-2.6644Y-3.1486
X-4.311Y-1.259
X-4.311Y-1.359
X-5.832Y-1.258
X-5.832Y-1.358
X-3.141Y-1.356
X-2.69Y-1.259
X-2.69Y-1.359
X-3.141Y-1.256
X-4.904Y-1.259
X-4.904Y-1.359
X-2.471Y-0.875
X-2.471Y-0.975
X-4.56Y-0.862
X-2.6644Y-3.2486
X-2.3934Y-3.1472
X-2.3934Y-3.2472
X-2.097Y-1.259
X-2.097Y-1.359
X-5.95Y-1.258
X-5.95Y-1.358
X-2.334Y-1.259
X-2.334Y-1.359
X-2.453Y-1.259
X-2.453Y-1.359
X-4.669Y-1.259
X-4.669Y-1.359
X-2.607Y-0.875
X-2.607Y-0.975
X-3.497Y-1.256
X-3.497Y-1.356
X-4.696Y-0.862
X-4.696Y-0.962
X-5.604Y-0.865
X-5.604Y-0.965
X-5.239Y-1.258
X-5.239Y-1.358
X-3.734Y-1.256
X-3.734Y-1.356
X-2.8008Y-3.146
X-2.808Y-1.259
X-2.808Y-1.359
X-3.225Y-0.875
X-3.225Y-0.975
X-4.56Y-0.962
X-3.653Y-0.875
X-3.653Y-0.975
X-5.476Y-1.258
X-5.476Y-1.358
X-5.314Y-0.865
X-5.314Y-0.965
X-5.715Y-1.258
X-5.715Y-1.358
X-3.616Y-1.256
X-2.215Y-1.259
X-4.786Y-1.359
X-2.215Y-1.359
X-2.572Y-1.259
X-3.378Y-1.256
X-3.378Y-1.356
X-3.616Y-1.356
X-5.74Y-0.865
X-5.74Y-0.965
X-3.852Y-1.356
X-4.269Y-0.862
X-4.269Y-0.962
X-2.8008Y-3.246
X-3.023Y-1.256
X-3.023Y-1.356
X-3.259Y-1.256
X-4.193Y-1.259
X-4.193Y-1.359
X-3.259Y-1.356
X-3.852Y-1.256
X-4.55Y-1.259
X-4.55Y-1.359
X-2.572Y-1.359
X-2.179Y-0.875
X-2.179Y-0.975
X-4.786Y-1.259
X-2.5306Y-3.1486
X-2.5306Y-3.2486
X-5.596Y-1.358
X-4.43Y-1.259
X-3.516Y-0.875
X-3.516Y-0.975
X-5.357Y-1.258
X-5.357Y-1.358
X-4.075Y-1.259
X-4.075Y-1.359
X-5.596Y-1.258
X-4.43Y-1.359
X-1.978Y-1.259
X-1.978Y-1.359
X-5.121Y-1.258
X-5.121Y-1.358
T4
X-2.2Y-3.53
X-2.1Y-3.53
X-2.0Y-3.53
X-5.817Y-4.0664
X-5.717Y-4.0664
X-5.617Y-4.0664
X-5.517Y-4.0664
X-5.417Y-4.0664
X-5.317Y-4.0664
X-5.217Y-4.0664
X-5.117Y-4.0664
X-5.017Y-4.0664
X-4.917Y-4.0664
X-4.817Y-4.0664
X-4.717Y-4.0664
X-4.617Y-4.0664
X-4.517Y-4.0664
X-4.417Y-4.0664
X-4.317Y-4.0664
X-4.217Y-4.0664
X-4.117Y-4.0664
X-4.017Y-4.0664
X-3.917Y-4.0664
X-3.817Y-4.0664
X-3.717Y-4.0664
X-3.617Y-4.0664
X-3.517Y-4.0664
X-3.417Y-4.0664
X-3.317Y-4.0664
X-3.217Y-4.0664
X-3.117Y-4.0664
X-3.017Y-4.0664
X-2.917Y-4.0664
X-2.817Y-4.0664
X-2.717Y-4.0664
X-2.617Y-4.0664
X-2.517Y-4.0664
X-2.417Y-4.0664
X-2.317Y-4.0664
X-2.217Y-4.0664
X-2.117Y-4.0664
X-2.2Y-3.754
X-2.1Y-3.754
X-2.0Y-3.754
T0
M30
