G04 #@! TF.GenerationSoftware,KiCad,Pcbnew,(5.1.4-0-10_14)*
G04 #@! TF.CreationDate,2020-04-08T08:52:14-07:00*
G04 #@! TF.ProjectId,address-register-bank,61646472-6573-4732-9d72-656769737465,rev?*
G04 #@! TF.SameCoordinates,Original*
G04 #@! TF.FileFunction,Legend,Top*
G04 #@! TF.FilePolarity,Positive*
%FSLAX46Y46*%
G04 Gerber Fmt 4.6, Leading zero omitted, Abs format (unit mm)*
G04 Created by KiCad (PCBNEW (5.1.4-0-10_14)) date 2020-04-08 08:52:14*
%MOMM*%
%LPD*%
G04 APERTURE LIST*
%ADD10C,0.100000*%
%ADD11C,0.150000*%
%ADD12C,0.120000*%
G04 APERTURE END LIST*
D10*
X-73595204Y-98937052D02*
X-73595204Y-99318004D01*
X-73861871Y-98518004D02*
X-73595204Y-98937052D01*
X-73328538Y-98518004D01*
X-73099966Y-99089433D02*
X-72719014Y-99089433D01*
X-73176157Y-99318004D02*
X-72909490Y-98518004D01*
X-72642823Y-99318004D01*
X-72033300Y-98784671D02*
X-72033300Y-99318004D01*
X-72223776Y-98479909D02*
X-72414252Y-99051338D01*
X-71919014Y-99051338D01*
X-71347585Y-98898957D02*
X-71233300Y-98937052D01*
X-71195204Y-98975147D01*
X-71157109Y-99051338D01*
X-71157109Y-99165623D01*
X-71195204Y-99241814D01*
X-71233300Y-99279909D01*
X-71309490Y-99318004D01*
X-71614252Y-99318004D01*
X-71614252Y-98518004D01*
X-71347585Y-98518004D01*
X-71271395Y-98556100D01*
X-71233300Y-98594195D01*
X-71195204Y-98670385D01*
X-71195204Y-98746576D01*
X-71233300Y-98822766D01*
X-71271395Y-98860861D01*
X-71347585Y-98898957D01*
X-71614252Y-98898957D01*
X-70242823Y-99089433D02*
X-69861871Y-99089433D01*
X-70319014Y-99318004D02*
X-70052347Y-98518004D01*
X-69785680Y-99318004D01*
X-69176157Y-99318004D02*
X-69176157Y-98518004D01*
X-69176157Y-99279909D02*
X-69252347Y-99318004D01*
X-69404728Y-99318004D01*
X-69480919Y-99279909D01*
X-69519014Y-99241814D01*
X-69557109Y-99165623D01*
X-69557109Y-98937052D01*
X-69519014Y-98860861D01*
X-69480919Y-98822766D01*
X-69404728Y-98784671D01*
X-69252347Y-98784671D01*
X-69176157Y-98822766D01*
X-68452347Y-99318004D02*
X-68452347Y-98518004D01*
X-68452347Y-99279909D02*
X-68528538Y-99318004D01*
X-68680919Y-99318004D01*
X-68757109Y-99279909D01*
X-68795204Y-99241814D01*
X-68833300Y-99165623D01*
X-68833300Y-98937052D01*
X-68795204Y-98860861D01*
X-68757109Y-98822766D01*
X-68680919Y-98784671D01*
X-68528538Y-98784671D01*
X-68452347Y-98822766D01*
X-68071395Y-99318004D02*
X-68071395Y-98784671D01*
X-68071395Y-98937052D02*
X-68033300Y-98860861D01*
X-67995204Y-98822766D01*
X-67919014Y-98784671D01*
X-67842823Y-98784671D01*
X-67271395Y-99279909D02*
X-67347585Y-99318004D01*
X-67499966Y-99318004D01*
X-67576157Y-99279909D01*
X-67614252Y-99203719D01*
X-67614252Y-98898957D01*
X-67576157Y-98822766D01*
X-67499966Y-98784671D01*
X-67347585Y-98784671D01*
X-67271395Y-98822766D01*
X-67233300Y-98898957D01*
X-67233300Y-98975147D01*
X-67614252Y-99051338D01*
X-66928538Y-99279909D02*
X-66852347Y-99318004D01*
X-66699966Y-99318004D01*
X-66623776Y-99279909D01*
X-66585680Y-99203719D01*
X-66585680Y-99165623D01*
X-66623776Y-99089433D01*
X-66699966Y-99051338D01*
X-66814252Y-99051338D01*
X-66890442Y-99013242D01*
X-66928538Y-98937052D01*
X-66928538Y-98898957D01*
X-66890442Y-98822766D01*
X-66814252Y-98784671D01*
X-66699966Y-98784671D01*
X-66623776Y-98822766D01*
X-66280919Y-99279909D02*
X-66204728Y-99318004D01*
X-66052347Y-99318004D01*
X-65976157Y-99279909D01*
X-65938061Y-99203719D01*
X-65938061Y-99165623D01*
X-65976157Y-99089433D01*
X-66052347Y-99051338D01*
X-66166633Y-99051338D01*
X-66242823Y-99013242D01*
X-66280919Y-98937052D01*
X-66280919Y-98898957D01*
X-66242823Y-98822766D01*
X-66166633Y-98784671D01*
X-66052347Y-98784671D01*
X-65976157Y-98822766D01*
X-64528538Y-99318004D02*
X-64795204Y-98937052D01*
X-64985680Y-99318004D02*
X-64985680Y-98518004D01*
X-64680919Y-98518004D01*
X-64604728Y-98556100D01*
X-64566633Y-98594195D01*
X-64528538Y-98670385D01*
X-64528538Y-98784671D01*
X-64566633Y-98860861D01*
X-64604728Y-98898957D01*
X-64680919Y-98937052D01*
X-64985680Y-98937052D01*
X-63880919Y-99279909D02*
X-63957109Y-99318004D01*
X-64109490Y-99318004D01*
X-64185680Y-99279909D01*
X-64223776Y-99203719D01*
X-64223776Y-98898957D01*
X-64185680Y-98822766D01*
X-64109490Y-98784671D01*
X-63957109Y-98784671D01*
X-63880919Y-98822766D01*
X-63842823Y-98898957D01*
X-63842823Y-98975147D01*
X-64223776Y-99051338D01*
X-63157109Y-98784671D02*
X-63157109Y-99432290D01*
X-63195204Y-99508480D01*
X-63233300Y-99546576D01*
X-63309490Y-99584671D01*
X-63423776Y-99584671D01*
X-63499966Y-99546576D01*
X-63157109Y-99279909D02*
X-63233300Y-99318004D01*
X-63385680Y-99318004D01*
X-63461871Y-99279909D01*
X-63499966Y-99241814D01*
X-63538061Y-99165623D01*
X-63538061Y-98937052D01*
X-63499966Y-98860861D01*
X-63461871Y-98822766D01*
X-63385680Y-98784671D01*
X-63233300Y-98784671D01*
X-63157109Y-98822766D01*
X-62776157Y-99318004D02*
X-62776157Y-98784671D01*
X-62776157Y-98518004D02*
X-62814252Y-98556100D01*
X-62776157Y-98594195D01*
X-62738061Y-98556100D01*
X-62776157Y-98518004D01*
X-62776157Y-98594195D01*
X-62433300Y-99279909D02*
X-62357109Y-99318004D01*
X-62204728Y-99318004D01*
X-62128538Y-99279909D01*
X-62090442Y-99203719D01*
X-62090442Y-99165623D01*
X-62128538Y-99089433D01*
X-62204728Y-99051338D01*
X-62319014Y-99051338D01*
X-62395204Y-99013242D01*
X-62433300Y-98937052D01*
X-62433300Y-98898957D01*
X-62395204Y-98822766D01*
X-62319014Y-98784671D01*
X-62204728Y-98784671D01*
X-62128538Y-98822766D01*
X-61861871Y-98784671D02*
X-61557109Y-98784671D01*
X-61747585Y-98518004D02*
X-61747585Y-99203719D01*
X-61709490Y-99279909D01*
X-61633300Y-99318004D01*
X-61557109Y-99318004D01*
X-60985680Y-99279909D02*
X-61061871Y-99318004D01*
X-61214252Y-99318004D01*
X-61290442Y-99279909D01*
X-61328538Y-99203719D01*
X-61328538Y-98898957D01*
X-61290442Y-98822766D01*
X-61214252Y-98784671D01*
X-61061871Y-98784671D01*
X-60985680Y-98822766D01*
X-60947585Y-98898957D01*
X-60947585Y-98975147D01*
X-61328538Y-99051338D01*
X-60604728Y-99318004D02*
X-60604728Y-98784671D01*
X-60604728Y-98937052D02*
X-60566633Y-98860861D01*
X-60528538Y-98822766D01*
X-60452347Y-98784671D01*
X-60376157Y-98784671D01*
X-59233300Y-98898957D02*
X-59119014Y-98937052D01*
X-59080919Y-98975147D01*
X-59042823Y-99051338D01*
X-59042823Y-99165623D01*
X-59080919Y-99241814D01*
X-59119014Y-99279909D01*
X-59195204Y-99318004D01*
X-59499966Y-99318004D01*
X-59499966Y-98518004D01*
X-59233300Y-98518004D01*
X-59157109Y-98556100D01*
X-59119014Y-98594195D01*
X-59080919Y-98670385D01*
X-59080919Y-98746576D01*
X-59119014Y-98822766D01*
X-59157109Y-98860861D01*
X-59233300Y-98898957D01*
X-59499966Y-98898957D01*
X-58357109Y-99318004D02*
X-58357109Y-98898957D01*
X-58395204Y-98822766D01*
X-58471395Y-98784671D01*
X-58623776Y-98784671D01*
X-58699966Y-98822766D01*
X-58357109Y-99279909D02*
X-58433300Y-99318004D01*
X-58623776Y-99318004D01*
X-58699966Y-99279909D01*
X-58738061Y-99203719D01*
X-58738061Y-99127528D01*
X-58699966Y-99051338D01*
X-58623776Y-99013242D01*
X-58433300Y-99013242D01*
X-58357109Y-98975147D01*
X-57976157Y-98784671D02*
X-57976157Y-99318004D01*
X-57976157Y-98860861D02*
X-57938061Y-98822766D01*
X-57861871Y-98784671D01*
X-57747585Y-98784671D01*
X-57671395Y-98822766D01*
X-57633300Y-98898957D01*
X-57633300Y-99318004D01*
X-57252347Y-99318004D02*
X-57252347Y-98518004D01*
X-57176157Y-99013242D02*
X-56947585Y-99318004D01*
X-56947585Y-98784671D02*
X-57252347Y-99089433D01*
X-56071395Y-98784671D02*
X-55880919Y-99318004D01*
X-55690442Y-98784671D01*
X-54966633Y-99318004D02*
X-55423776Y-99318004D01*
X-55195204Y-99318004D02*
X-55195204Y-98518004D01*
X-55271395Y-98632290D01*
X-55347585Y-98708480D01*
X-55423776Y-98746576D01*
X-54623776Y-99241814D02*
X-54585680Y-99279909D01*
X-54623776Y-99318004D01*
X-54661871Y-99279909D01*
X-54623776Y-99241814D01*
X-54623776Y-99318004D01*
X-54090442Y-98518004D02*
X-54014252Y-98518004D01*
X-53938061Y-98556100D01*
X-53899966Y-98594195D01*
X-53861871Y-98670385D01*
X-53823776Y-98822766D01*
X-53823776Y-99013242D01*
X-53861871Y-99165623D01*
X-53899966Y-99241814D01*
X-53938061Y-99279909D01*
X-54014252Y-99318004D01*
X-54090442Y-99318004D01*
X-54166633Y-99279909D01*
X-54204728Y-99241814D01*
X-54242823Y-99165623D01*
X-54280919Y-99013242D01*
X-54280919Y-98822766D01*
X-54242823Y-98670385D01*
X-54204728Y-98594195D01*
X-54166633Y-98556100D01*
X-54090442Y-98518004D01*
X-53480919Y-99241814D02*
X-53442823Y-99279909D01*
X-53480919Y-99318004D01*
X-53519014Y-99279909D01*
X-53480919Y-99241814D01*
X-53480919Y-99318004D01*
X-52680919Y-99318004D02*
X-53138061Y-99318004D01*
X-52909490Y-99318004D02*
X-52909490Y-98518004D01*
X-52985680Y-98632290D01*
X-53061871Y-98708480D01*
X-53138061Y-98746576D01*
X-69633300Y-100008480D02*
X-69709490Y-99970385D01*
X-69861871Y-99970385D01*
X-69938061Y-100008480D01*
X-70014252Y-100084671D01*
X-70052347Y-100160861D01*
X-70052347Y-100313242D01*
X-70014252Y-100389433D01*
X-69938061Y-100465623D01*
X-69861871Y-100503719D01*
X-69709490Y-100503719D01*
X-69633300Y-100465623D01*
X-69785680Y-99703719D02*
X-69976157Y-99741814D01*
X-70166633Y-99856100D01*
X-70280919Y-100046576D01*
X-70319014Y-100237052D01*
X-70280919Y-100427528D01*
X-70166633Y-100618004D01*
X-69976157Y-100732290D01*
X-69785680Y-100770385D01*
X-69595204Y-100732290D01*
X-69404728Y-100618004D01*
X-69290442Y-100427528D01*
X-69252347Y-100237052D01*
X-69290442Y-100046576D01*
X-69404728Y-99856100D01*
X-69595204Y-99741814D01*
X-69785680Y-99703719D01*
X-68338061Y-99894195D02*
X-68299966Y-99856100D01*
X-68223776Y-99818004D01*
X-68033300Y-99818004D01*
X-67957109Y-99856100D01*
X-67919014Y-99894195D01*
X-67880919Y-99970385D01*
X-67880919Y-100046576D01*
X-67919014Y-100160861D01*
X-68376157Y-100618004D01*
X-67880919Y-100618004D01*
X-67385680Y-99818004D02*
X-67309490Y-99818004D01*
X-67233300Y-99856100D01*
X-67195204Y-99894195D01*
X-67157109Y-99970385D01*
X-67119014Y-100122766D01*
X-67119014Y-100313242D01*
X-67157109Y-100465623D01*
X-67195204Y-100541814D01*
X-67233300Y-100579909D01*
X-67309490Y-100618004D01*
X-67385680Y-100618004D01*
X-67461871Y-100579909D01*
X-67499966Y-100541814D01*
X-67538061Y-100465623D01*
X-67576157Y-100313242D01*
X-67576157Y-100122766D01*
X-67538061Y-99970385D01*
X-67499966Y-99894195D01*
X-67461871Y-99856100D01*
X-67385680Y-99818004D01*
X-66814252Y-99894195D02*
X-66776157Y-99856100D01*
X-66699966Y-99818004D01*
X-66509490Y-99818004D01*
X-66433300Y-99856100D01*
X-66395204Y-99894195D01*
X-66357109Y-99970385D01*
X-66357109Y-100046576D01*
X-66395204Y-100160861D01*
X-66852347Y-100618004D01*
X-66357109Y-100618004D01*
X-65861871Y-99818004D02*
X-65785680Y-99818004D01*
X-65709490Y-99856100D01*
X-65671395Y-99894195D01*
X-65633300Y-99970385D01*
X-65595204Y-100122766D01*
X-65595204Y-100313242D01*
X-65633300Y-100465623D01*
X-65671395Y-100541814D01*
X-65709490Y-100579909D01*
X-65785680Y-100618004D01*
X-65861871Y-100618004D01*
X-65938061Y-100579909D01*
X-65976157Y-100541814D01*
X-66014252Y-100465623D01*
X-66052347Y-100313242D01*
X-66052347Y-100122766D01*
X-66014252Y-99970385D01*
X-65976157Y-99894195D01*
X-65938061Y-99856100D01*
X-65861871Y-99818004D01*
X-64223776Y-99856100D02*
X-64299966Y-99818004D01*
X-64414252Y-99818004D01*
X-64528538Y-99856100D01*
X-64604728Y-99932290D01*
X-64642823Y-100008480D01*
X-64680919Y-100160861D01*
X-64680919Y-100275147D01*
X-64642823Y-100427528D01*
X-64604728Y-100503719D01*
X-64528538Y-100579909D01*
X-64414252Y-100618004D01*
X-64338061Y-100618004D01*
X-64223776Y-100579909D01*
X-64185680Y-100541814D01*
X-64185680Y-100275147D01*
X-64338061Y-100275147D01*
X-63842823Y-100618004D02*
X-63842823Y-100084671D01*
X-63842823Y-100237052D02*
X-63804728Y-100160861D01*
X-63766633Y-100122766D01*
X-63690442Y-100084671D01*
X-63614252Y-100084671D01*
X-63042823Y-100579909D02*
X-63119014Y-100618004D01*
X-63271395Y-100618004D01*
X-63347585Y-100579909D01*
X-63385680Y-100503719D01*
X-63385680Y-100198957D01*
X-63347585Y-100122766D01*
X-63271395Y-100084671D01*
X-63119014Y-100084671D01*
X-63042823Y-100122766D01*
X-63004728Y-100198957D01*
X-63004728Y-100275147D01*
X-63385680Y-100351338D01*
X-62319014Y-100084671D02*
X-62319014Y-100732290D01*
X-62357109Y-100808480D01*
X-62395204Y-100846576D01*
X-62471395Y-100884671D01*
X-62585680Y-100884671D01*
X-62661871Y-100846576D01*
X-62319014Y-100579909D02*
X-62395204Y-100618004D01*
X-62547585Y-100618004D01*
X-62623776Y-100579909D01*
X-62661871Y-100541814D01*
X-62699966Y-100465623D01*
X-62699966Y-100237052D01*
X-62661871Y-100160861D01*
X-62623776Y-100122766D01*
X-62547585Y-100084671D01*
X-62395204Y-100084671D01*
X-62319014Y-100122766D01*
X-61823776Y-100618004D02*
X-61899966Y-100579909D01*
X-61938061Y-100541814D01*
X-61976157Y-100465623D01*
X-61976157Y-100237052D01*
X-61938061Y-100160861D01*
X-61899966Y-100122766D01*
X-61823776Y-100084671D01*
X-61709490Y-100084671D01*
X-61633300Y-100122766D01*
X-61595204Y-100160861D01*
X-61557109Y-100237052D01*
X-61557109Y-100465623D01*
X-61595204Y-100541814D01*
X-61633300Y-100579909D01*
X-61709490Y-100618004D01*
X-61823776Y-100618004D01*
X-61214252Y-100618004D02*
X-61214252Y-100084671D01*
X-61214252Y-100237052D02*
X-61176157Y-100160861D01*
X-61138061Y-100122766D01*
X-61061871Y-100084671D01*
X-60985680Y-100084671D01*
X-60795204Y-100084671D02*
X-60604728Y-100618004D01*
X-60414252Y-100084671D02*
X-60604728Y-100618004D01*
X-60680919Y-100808480D01*
X-60719014Y-100846576D01*
X-60795204Y-100884671D01*
X-59499966Y-100618004D02*
X-59499966Y-99818004D01*
X-59233300Y-100389433D01*
X-58966633Y-99818004D01*
X-58966633Y-100618004D01*
X-58242823Y-100618004D02*
X-58242823Y-100198957D01*
X-58280919Y-100122766D01*
X-58357109Y-100084671D01*
X-58509490Y-100084671D01*
X-58585680Y-100122766D01*
X-58242823Y-100579909D02*
X-58319014Y-100618004D01*
X-58509490Y-100618004D01*
X-58585680Y-100579909D01*
X-58623776Y-100503719D01*
X-58623776Y-100427528D01*
X-58585680Y-100351338D01*
X-58509490Y-100313242D01*
X-58319014Y-100313242D01*
X-58242823Y-100275147D01*
X-57861871Y-100618004D02*
X-57861871Y-100084671D01*
X-57861871Y-100237052D02*
X-57823776Y-100160861D01*
X-57785680Y-100122766D01*
X-57709490Y-100084671D01*
X-57633300Y-100084671D01*
X-57480919Y-100084671D02*
X-57176157Y-100084671D01*
X-57366633Y-99818004D02*
X-57366633Y-100503719D01*
X-57328538Y-100579909D01*
X-57252347Y-100618004D01*
X-57176157Y-100618004D01*
X-56909490Y-100618004D02*
X-56909490Y-100084671D01*
X-56909490Y-99818004D02*
X-56947585Y-99856100D01*
X-56909490Y-99894195D01*
X-56871395Y-99856100D01*
X-56909490Y-99818004D01*
X-56909490Y-99894195D01*
X-56528538Y-100084671D02*
X-56528538Y-100618004D01*
X-56528538Y-100160861D02*
X-56490442Y-100122766D01*
X-56414252Y-100084671D01*
X-56299966Y-100084671D01*
X-56223776Y-100122766D01*
X-56185680Y-100198957D01*
X-56185680Y-100618004D01*
D11*
X-49069619Y-92251280D02*
X-48974380Y-92251280D01*
X-48879142Y-92298900D01*
X-48831523Y-92346519D01*
X-48783904Y-92441757D01*
X-48736285Y-92632233D01*
X-48736285Y-92870328D01*
X-48783904Y-93060804D01*
X-48831523Y-93156042D01*
X-48879142Y-93203661D01*
X-48974380Y-93251280D01*
X-49069619Y-93251280D01*
X-49164857Y-93203661D01*
X-49212476Y-93156042D01*
X-49260095Y-93060804D01*
X-49307714Y-92870328D01*
X-49307714Y-92632233D01*
X-49260095Y-92441757D01*
X-49212476Y-92346519D01*
X-49164857Y-92298900D01*
X-49069619Y-92251280D01*
X-53943285Y-93251280D02*
X-54514714Y-93251280D01*
X-54229000Y-93251280D02*
X-54229000Y-92251280D01*
X-54324238Y-92394138D01*
X-54419476Y-92489376D01*
X-54514714Y-92536995D01*
X-137129259Y-100448026D02*
X-137605449Y-100781360D01*
X-137129259Y-101019455D02*
X-138129259Y-101019455D01*
X-138129259Y-100638502D01*
X-138081640Y-100543264D01*
X-138034020Y-100495645D01*
X-137938782Y-100448026D01*
X-137795925Y-100448026D01*
X-137700687Y-100495645D01*
X-137653068Y-100543264D01*
X-137605449Y-100638502D01*
X-137605449Y-101019455D01*
X-137653068Y-99686121D02*
X-137605449Y-99543264D01*
X-137557830Y-99495645D01*
X-137462592Y-99448026D01*
X-137319735Y-99448026D01*
X-137224497Y-99495645D01*
X-137176878Y-99543264D01*
X-137129259Y-99638502D01*
X-137129259Y-100019455D01*
X-138129259Y-100019455D01*
X-138129259Y-99686121D01*
X-138081640Y-99590883D01*
X-138034020Y-99543264D01*
X-137938782Y-99495645D01*
X-137843544Y-99495645D01*
X-137748306Y-99543264D01*
X-137700687Y-99590883D01*
X-137653068Y-99686121D01*
X-137653068Y-100019455D01*
X-138129259Y-99114693D02*
X-138129259Y-98495645D01*
X-137748306Y-98828979D01*
X-137748306Y-98686121D01*
X-137700687Y-98590883D01*
X-137653068Y-98543264D01*
X-137557830Y-98495645D01*
X-137319735Y-98495645D01*
X-137224497Y-98543264D01*
X-137176878Y-98590883D01*
X-137129259Y-98686121D01*
X-137129259Y-98971836D01*
X-137176878Y-99067074D01*
X-137224497Y-99114693D01*
X-109459733Y-100927445D02*
X-109459733Y-100451255D01*
X-109174019Y-101022683D02*
X-110174019Y-100689350D01*
X-109174019Y-100356017D01*
X-110174019Y-99832207D02*
X-110174019Y-99736969D01*
X-110126400Y-99641731D01*
X-110078780Y-99594112D01*
X-109983542Y-99546493D01*
X-109793066Y-99498874D01*
X-109554971Y-99498874D01*
X-109364495Y-99546493D01*
X-109269257Y-99594112D01*
X-109221638Y-99641731D01*
X-109174019Y-99736969D01*
X-109174019Y-99832207D01*
X-109221638Y-99927445D01*
X-109269257Y-99975064D01*
X-109364495Y-100022683D01*
X-109554971Y-100070302D01*
X-109793066Y-100070302D01*
X-109983542Y-100022683D01*
X-110078780Y-99975064D01*
X-110126400Y-99927445D01*
X-110174019Y-99832207D01*
X-107515280Y-100634704D02*
X-107562899Y-100729942D01*
X-107562899Y-100872800D01*
X-107515280Y-101015657D01*
X-107420041Y-101110895D01*
X-107324803Y-101158514D01*
X-107134327Y-101206133D01*
X-106991470Y-101206133D01*
X-106800994Y-101158514D01*
X-106705756Y-101110895D01*
X-106610518Y-101015657D01*
X-106562899Y-100872800D01*
X-106562899Y-100777561D01*
X-106610518Y-100634704D01*
X-106658137Y-100587085D01*
X-106991470Y-100587085D01*
X-106991470Y-100777561D01*
X-106562899Y-100158514D02*
X-107562899Y-100158514D01*
X-106562899Y-99587085D01*
X-107562899Y-99587085D01*
X-106562899Y-99110895D02*
X-107562899Y-99110895D01*
X-107562899Y-98872800D01*
X-107515280Y-98729942D01*
X-107420041Y-98634704D01*
X-107324803Y-98587085D01*
X-107134327Y-98539466D01*
X-106991470Y-98539466D01*
X-106800994Y-98587085D01*
X-106705756Y-98634704D01*
X-106610518Y-98729942D01*
X-106562899Y-98872800D01*
X-106562899Y-99110895D01*
X-100366160Y-101331542D02*
X-100366160Y-100331542D01*
X-98998779Y-100522019D02*
X-99474969Y-100855352D01*
X-98998779Y-101093447D02*
X-99998779Y-101093447D01*
X-99998779Y-100712495D01*
X-99951160Y-100617257D01*
X-99903540Y-100569638D01*
X-99808302Y-100522019D01*
X-99665445Y-100522019D01*
X-99570207Y-100569638D01*
X-99522588Y-100617257D01*
X-99474969Y-100712495D01*
X-99474969Y-101093447D01*
X-100366160Y-100331542D02*
X-100366160Y-99379161D01*
X-99046398Y-100141066D02*
X-98998779Y-99998209D01*
X-98998779Y-99760114D01*
X-99046398Y-99664876D01*
X-99094017Y-99617257D01*
X-99189255Y-99569638D01*
X-99284493Y-99569638D01*
X-99379731Y-99617257D01*
X-99427350Y-99664876D01*
X-99474969Y-99760114D01*
X-99522588Y-99950590D01*
X-99570207Y-100045828D01*
X-99617826Y-100093447D01*
X-99713064Y-100141066D01*
X-99808302Y-100141066D01*
X-99903540Y-100093447D01*
X-99951160Y-100045828D01*
X-99998779Y-99950590D01*
X-99998779Y-99712495D01*
X-99951160Y-99569638D01*
X-100366160Y-99379161D02*
X-100366160Y-98617257D01*
X-99998779Y-99283923D02*
X-99998779Y-98712495D01*
X-98998779Y-98998209D02*
X-99998779Y-98998209D01*
X-104977179Y-101155333D02*
X-103977179Y-100822000D01*
X-104977179Y-100488666D01*
X-104072417Y-99583904D02*
X-104024798Y-99631523D01*
X-103977179Y-99774380D01*
X-103977179Y-99869619D01*
X-104024798Y-100012476D01*
X-104120036Y-100107714D01*
X-104215274Y-100155333D01*
X-104405750Y-100202952D01*
X-104548607Y-100202952D01*
X-104739083Y-100155333D01*
X-104834321Y-100107714D01*
X-104929560Y-100012476D01*
X-104977179Y-99869619D01*
X-104977179Y-99774380D01*
X-104929560Y-99631523D01*
X-104881940Y-99583904D01*
X-104072417Y-98583904D02*
X-104024798Y-98631523D01*
X-103977179Y-98774380D01*
X-103977179Y-98869619D01*
X-104024798Y-99012476D01*
X-104120036Y-99107714D01*
X-104215274Y-99155333D01*
X-104405750Y-99202952D01*
X-104548607Y-99202952D01*
X-104739083Y-99155333D01*
X-104834321Y-99107714D01*
X-104929560Y-99012476D01*
X-104977179Y-98869619D01*
X-104977179Y-98774380D01*
X-104929560Y-98631523D01*
X-104881940Y-98583904D01*
X-147289259Y-100346118D02*
X-147765449Y-100679451D01*
X-147289259Y-100917546D02*
X-148289259Y-100917546D01*
X-148289259Y-100536594D01*
X-148241640Y-100441356D01*
X-148194020Y-100393737D01*
X-148098782Y-100346118D01*
X-147955925Y-100346118D01*
X-147860687Y-100393737D01*
X-147813068Y-100441356D01*
X-147765449Y-100536594D01*
X-147765449Y-100917546D01*
X-147574973Y-99965165D02*
X-147574973Y-99488975D01*
X-147289259Y-100060403D02*
X-148289259Y-99727070D01*
X-147289259Y-99393737D01*
X-148289259Y-99155641D02*
X-148289259Y-98536594D01*
X-147908306Y-98869927D01*
X-147908306Y-98727070D01*
X-147860687Y-98631832D01*
X-147813068Y-98584213D01*
X-147717830Y-98536594D01*
X-147479735Y-98536594D01*
X-147384497Y-98584213D01*
X-147336878Y-98631832D01*
X-147289259Y-98727070D01*
X-147289259Y-99012784D01*
X-147336878Y-99108022D01*
X-147384497Y-99155641D01*
X-127148293Y-100993485D02*
X-127148293Y-100517295D01*
X-126862579Y-101088723D02*
X-127862579Y-100755390D01*
X-126862579Y-100422057D01*
X-127862579Y-100183961D02*
X-127862579Y-99517295D01*
X-126862579Y-99945866D01*
X-134619739Y-100448026D02*
X-135095929Y-100781360D01*
X-134619739Y-101019455D02*
X-135619739Y-101019455D01*
X-135619739Y-100638502D01*
X-135572120Y-100543264D01*
X-135524500Y-100495645D01*
X-135429262Y-100448026D01*
X-135286405Y-100448026D01*
X-135191167Y-100495645D01*
X-135143548Y-100543264D01*
X-135095929Y-100638502D01*
X-135095929Y-101019455D01*
X-135143548Y-99686121D02*
X-135095929Y-99543264D01*
X-135048310Y-99495645D01*
X-134953072Y-99448026D01*
X-134810215Y-99448026D01*
X-134714977Y-99495645D01*
X-134667358Y-99543264D01*
X-134619739Y-99638502D01*
X-134619739Y-100019455D01*
X-135619739Y-100019455D01*
X-135619739Y-99686121D01*
X-135572120Y-99590883D01*
X-135524500Y-99543264D01*
X-135429262Y-99495645D01*
X-135334024Y-99495645D01*
X-135238786Y-99543264D01*
X-135191167Y-99590883D01*
X-135143548Y-99686121D01*
X-135143548Y-100019455D01*
X-135524500Y-99067074D02*
X-135572120Y-99019455D01*
X-135619739Y-98924217D01*
X-135619739Y-98686121D01*
X-135572120Y-98590883D01*
X-135524500Y-98543264D01*
X-135429262Y-98495645D01*
X-135334024Y-98495645D01*
X-135191167Y-98543264D01*
X-134619739Y-99114693D01*
X-134619739Y-98495645D01*
X-132018779Y-100448026D02*
X-132494969Y-100781360D01*
X-132018779Y-101019455D02*
X-133018779Y-101019455D01*
X-133018779Y-100638502D01*
X-132971160Y-100543264D01*
X-132923540Y-100495645D01*
X-132828302Y-100448026D01*
X-132685445Y-100448026D01*
X-132590207Y-100495645D01*
X-132542588Y-100543264D01*
X-132494969Y-100638502D01*
X-132494969Y-101019455D01*
X-132542588Y-99686121D02*
X-132494969Y-99543264D01*
X-132447350Y-99495645D01*
X-132352112Y-99448026D01*
X-132209255Y-99448026D01*
X-132114017Y-99495645D01*
X-132066398Y-99543264D01*
X-132018779Y-99638502D01*
X-132018779Y-100019455D01*
X-133018779Y-100019455D01*
X-133018779Y-99686121D01*
X-132971160Y-99590883D01*
X-132923540Y-99543264D01*
X-132828302Y-99495645D01*
X-132733064Y-99495645D01*
X-132637826Y-99543264D01*
X-132590207Y-99590883D01*
X-132542588Y-99686121D01*
X-132542588Y-100019455D01*
X-132018779Y-98495645D02*
X-132018779Y-99067074D01*
X-132018779Y-98781360D02*
X-133018779Y-98781360D01*
X-132875921Y-98876598D01*
X-132780683Y-98971836D01*
X-132733064Y-99067074D01*
X-129448299Y-100417546D02*
X-129924489Y-100750880D01*
X-129448299Y-100988975D02*
X-130448299Y-100988975D01*
X-130448299Y-100608022D01*
X-130400680Y-100512784D01*
X-130353060Y-100465165D01*
X-130257822Y-100417546D01*
X-130114965Y-100417546D01*
X-130019727Y-100465165D01*
X-129972108Y-100512784D01*
X-129924489Y-100608022D01*
X-129924489Y-100988975D01*
X-129972108Y-99655641D02*
X-129924489Y-99512784D01*
X-129876870Y-99465165D01*
X-129781632Y-99417546D01*
X-129638775Y-99417546D01*
X-129543537Y-99465165D01*
X-129495918Y-99512784D01*
X-129448299Y-99608022D01*
X-129448299Y-99988975D01*
X-130448299Y-99988975D01*
X-130448299Y-99655641D01*
X-130400680Y-99560403D01*
X-130353060Y-99512784D01*
X-130257822Y-99465165D01*
X-130162584Y-99465165D01*
X-130067346Y-99512784D01*
X-130019727Y-99560403D01*
X-129972108Y-99655641D01*
X-129972108Y-99988975D01*
X-130448299Y-98798499D02*
X-130448299Y-98703260D01*
X-130400680Y-98608022D01*
X-130353060Y-98560403D01*
X-130257822Y-98512784D01*
X-130067346Y-98465165D01*
X-129829251Y-98465165D01*
X-129638775Y-98512784D01*
X-129543537Y-98560403D01*
X-129495918Y-98608022D01*
X-129448299Y-98703260D01*
X-129448299Y-98798499D01*
X-129495918Y-98893737D01*
X-129543537Y-98941356D01*
X-129638775Y-98988975D01*
X-129829251Y-99036594D01*
X-130067346Y-99036594D01*
X-130257822Y-98988975D01*
X-130353060Y-98941356D01*
X-130400680Y-98893737D01*
X-130448299Y-98798499D01*
X-124618453Y-100957925D02*
X-124618453Y-100481735D01*
X-124332739Y-101053163D02*
X-125332739Y-100719830D01*
X-124332739Y-100386497D01*
X-125332739Y-99624592D02*
X-125332739Y-99815068D01*
X-125285120Y-99910306D01*
X-125237500Y-99957925D01*
X-125094643Y-100053163D01*
X-124904167Y-100100782D01*
X-124523215Y-100100782D01*
X-124427977Y-100053163D01*
X-124380358Y-100005544D01*
X-124332739Y-99910306D01*
X-124332739Y-99719830D01*
X-124380358Y-99624592D01*
X-124427977Y-99576973D01*
X-124523215Y-99529354D01*
X-124761310Y-99529354D01*
X-124856548Y-99576973D01*
X-124904167Y-99624592D01*
X-124951786Y-99719830D01*
X-124951786Y-99910306D01*
X-124904167Y-100005544D01*
X-124856548Y-100053163D01*
X-124761310Y-100100782D01*
X-139669259Y-100376598D02*
X-140145449Y-100709931D01*
X-139669259Y-100948026D02*
X-140669259Y-100948026D01*
X-140669259Y-100567074D01*
X-140621640Y-100471836D01*
X-140574020Y-100424217D01*
X-140478782Y-100376598D01*
X-140335925Y-100376598D01*
X-140240687Y-100424217D01*
X-140193068Y-100471836D01*
X-140145449Y-100567074D01*
X-140145449Y-100948026D01*
X-139954973Y-99995645D02*
X-139954973Y-99519455D01*
X-139669259Y-100090883D02*
X-140669259Y-99757550D01*
X-139669259Y-99424217D01*
X-140669259Y-98900407D02*
X-140669259Y-98805169D01*
X-140621640Y-98709931D01*
X-140574020Y-98662312D01*
X-140478782Y-98614693D01*
X-140288306Y-98567074D01*
X-140050211Y-98567074D01*
X-139859735Y-98614693D01*
X-139764497Y-98662312D01*
X-139716878Y-98709931D01*
X-139669259Y-98805169D01*
X-139669259Y-98900407D01*
X-139716878Y-98995645D01*
X-139764497Y-99043264D01*
X-139859735Y-99090883D01*
X-140050211Y-99138502D01*
X-140288306Y-99138502D01*
X-140478782Y-99090883D01*
X-140574020Y-99043264D01*
X-140621640Y-98995645D01*
X-140669259Y-98900407D01*
X-114473693Y-100927445D02*
X-114473693Y-100451255D01*
X-114187979Y-101022683D02*
X-115187979Y-100689350D01*
X-114187979Y-100356017D01*
X-115092740Y-100070302D02*
X-115140360Y-100022683D01*
X-115187979Y-99927445D01*
X-115187979Y-99689350D01*
X-115140360Y-99594112D01*
X-115092740Y-99546493D01*
X-114997502Y-99498874D01*
X-114902264Y-99498874D01*
X-114759407Y-99546493D01*
X-114187979Y-100117921D01*
X-114187979Y-99498874D01*
X-111964173Y-100957925D02*
X-111964173Y-100481735D01*
X-111678459Y-101053163D02*
X-112678459Y-100719830D01*
X-111678459Y-100386497D01*
X-111678459Y-99529354D02*
X-111678459Y-100100782D01*
X-111678459Y-99815068D02*
X-112678459Y-99815068D01*
X-112535601Y-99910306D01*
X-112440363Y-100005544D01*
X-112392744Y-100100782D01*
X-142173699Y-100346118D02*
X-142649889Y-100679451D01*
X-142173699Y-100917546D02*
X-143173699Y-100917546D01*
X-143173699Y-100536594D01*
X-143126080Y-100441356D01*
X-143078460Y-100393737D01*
X-142983222Y-100346118D01*
X-142840365Y-100346118D01*
X-142745127Y-100393737D01*
X-142697508Y-100441356D01*
X-142649889Y-100536594D01*
X-142649889Y-100917546D01*
X-142459413Y-99965165D02*
X-142459413Y-99488975D01*
X-142173699Y-100060403D02*
X-143173699Y-99727070D01*
X-142173699Y-99393737D01*
X-142173699Y-98536594D02*
X-142173699Y-99108022D01*
X-142173699Y-98822308D02*
X-143173699Y-98822308D01*
X-143030841Y-98917546D01*
X-142935603Y-99012784D01*
X-142887984Y-99108022D01*
X-92256859Y-101059834D02*
X-91447335Y-101059834D01*
X-91352097Y-101012215D01*
X-91304478Y-100964596D01*
X-91256859Y-100869358D01*
X-91256859Y-100678881D01*
X-91304478Y-100583643D01*
X-91352097Y-100536024D01*
X-91447335Y-100488405D01*
X-92256859Y-100488405D01*
X-92624240Y-100250310D02*
X-92624240Y-99250310D01*
X-91256859Y-100012215D02*
X-92256859Y-100012215D01*
X-92256859Y-99774120D01*
X-92209240Y-99631262D01*
X-92114001Y-99536024D01*
X-92018763Y-99488405D01*
X-91828287Y-99440786D01*
X-91685430Y-99440786D01*
X-91494954Y-99488405D01*
X-91399716Y-99536024D01*
X-91304478Y-99631262D01*
X-91256859Y-99774120D01*
X-91256859Y-100012215D01*
X-96508297Y-100569638D02*
X-96460678Y-100617257D01*
X-96413059Y-100760114D01*
X-96413059Y-100855352D01*
X-96460678Y-100998209D01*
X-96555916Y-101093447D01*
X-96651154Y-101141066D01*
X-96841630Y-101188685D01*
X-96984487Y-101188685D01*
X-97174963Y-101141066D01*
X-97270201Y-101093447D01*
X-97365440Y-100998209D01*
X-97413059Y-100855352D01*
X-97413059Y-100760114D01*
X-97365440Y-100617257D01*
X-97317820Y-100569638D01*
X-96413059Y-99664876D02*
X-96413059Y-100141066D01*
X-97413059Y-100141066D01*
X-96413059Y-99331542D02*
X-97413059Y-99331542D01*
X-96413059Y-98760114D02*
X-96984487Y-99188685D01*
X-97413059Y-98760114D02*
X-96841630Y-99331542D01*
X-117013693Y-100957925D02*
X-117013693Y-100481735D01*
X-116727979Y-101053163D02*
X-117727979Y-100719830D01*
X-116727979Y-100386497D01*
X-117727979Y-100148401D02*
X-117727979Y-99529354D01*
X-117347026Y-99862687D01*
X-117347026Y-99719830D01*
X-117299407Y-99624592D01*
X-117251788Y-99576973D01*
X-117156550Y-99529354D01*
X-116918455Y-99529354D01*
X-116823217Y-99576973D01*
X-116775598Y-99624592D01*
X-116727979Y-99719830D01*
X-116727979Y-100005544D01*
X-116775598Y-100100782D01*
X-116823217Y-100148401D01*
X-144749259Y-100346118D02*
X-145225449Y-100679451D01*
X-144749259Y-100917546D02*
X-145749259Y-100917546D01*
X-145749259Y-100536594D01*
X-145701640Y-100441356D01*
X-145654020Y-100393737D01*
X-145558782Y-100346118D01*
X-145415925Y-100346118D01*
X-145320687Y-100393737D01*
X-145273068Y-100441356D01*
X-145225449Y-100536594D01*
X-145225449Y-100917546D01*
X-145034973Y-99965165D02*
X-145034973Y-99488975D01*
X-144749259Y-100060403D02*
X-145749259Y-99727070D01*
X-144749259Y-99393737D01*
X-145654020Y-99108022D02*
X-145701640Y-99060403D01*
X-145749259Y-98965165D01*
X-145749259Y-98727070D01*
X-145701640Y-98631832D01*
X-145654020Y-98584213D01*
X-145558782Y-98536594D01*
X-145463544Y-98536594D01*
X-145320687Y-98584213D01*
X-144749259Y-99155641D01*
X-144749259Y-98536594D01*
X-95164240Y-101226500D02*
X-95164240Y-100226500D01*
X-93892097Y-100416977D02*
X-93844478Y-100464596D01*
X-93796859Y-100607453D01*
X-93796859Y-100702691D01*
X-93844478Y-100845548D01*
X-93939716Y-100940786D01*
X-94034954Y-100988405D01*
X-94225430Y-101036024D01*
X-94368287Y-101036024D01*
X-94558763Y-100988405D01*
X-94654001Y-100940786D01*
X-94749240Y-100845548D01*
X-94796859Y-100702691D01*
X-94796859Y-100607453D01*
X-94749240Y-100464596D01*
X-94701620Y-100416977D01*
X-95164240Y-100226500D02*
X-95164240Y-99321739D01*
X-94320668Y-99988405D02*
X-94320668Y-99655072D01*
X-93796859Y-99512215D02*
X-93796859Y-99988405D01*
X-94796859Y-99988405D01*
X-94796859Y-99512215D01*
X-87681400Y-101328361D02*
X-87681400Y-100471219D01*
X-86599733Y-101137885D02*
X-86599733Y-100661695D01*
X-86314019Y-101233123D02*
X-87314019Y-100899790D01*
X-86314019Y-100566457D01*
X-87681400Y-100471219D02*
X-87681400Y-99423600D01*
X-87314019Y-100042647D02*
X-87314019Y-99852171D01*
X-87266400Y-99756933D01*
X-87171161Y-99661695D01*
X-86980685Y-99614076D01*
X-86647352Y-99614076D01*
X-86456876Y-99661695D01*
X-86361638Y-99756933D01*
X-86314019Y-99852171D01*
X-86314019Y-100042647D01*
X-86361638Y-100137885D01*
X-86456876Y-100233123D01*
X-86647352Y-100280742D01*
X-86980685Y-100280742D01*
X-87171161Y-100233123D01*
X-87266400Y-100137885D01*
X-87314019Y-100042647D01*
X-87681400Y-99423600D02*
X-87681400Y-98518838D01*
X-86837828Y-99185504D02*
X-86837828Y-98852171D01*
X-86314019Y-98709314D02*
X-86314019Y-99185504D01*
X-87314019Y-99185504D01*
X-87314019Y-98709314D01*
X-119619733Y-100957925D02*
X-119619733Y-100481735D01*
X-119334019Y-101053163D02*
X-120334019Y-100719830D01*
X-119334019Y-100386497D01*
X-120000685Y-99624592D02*
X-119334019Y-99624592D01*
X-120381638Y-99862687D02*
X-119667352Y-100100782D01*
X-119667352Y-99481735D01*
X-122144493Y-100927445D02*
X-122144493Y-100451255D01*
X-121858779Y-101022683D02*
X-122858779Y-100689350D01*
X-121858779Y-100356017D01*
X-122858779Y-99546493D02*
X-122858779Y-100022683D01*
X-122382588Y-100070302D01*
X-122430207Y-100022683D01*
X-122477826Y-99927445D01*
X-122477826Y-99689350D01*
X-122430207Y-99594112D01*
X-122382588Y-99546493D01*
X-122287350Y-99498874D01*
X-122049255Y-99498874D01*
X-121954017Y-99546493D01*
X-121906398Y-99594112D01*
X-121858779Y-99689350D01*
X-121858779Y-99927445D01*
X-121906398Y-100022683D01*
X-121954017Y-100070302D01*
X-90267120Y-101379161D02*
X-90267120Y-100569638D01*
X-88899739Y-100664876D02*
X-88899739Y-101141066D01*
X-89899739Y-101141066D01*
X-90267120Y-100569638D02*
X-90267120Y-99569638D01*
X-88899739Y-100331542D02*
X-89899739Y-100331542D01*
X-89899739Y-100093447D01*
X-89852120Y-99950590D01*
X-89756881Y-99855352D01*
X-89661643Y-99807733D01*
X-89471167Y-99760114D01*
X-89328310Y-99760114D01*
X-89137834Y-99807733D01*
X-89042596Y-99855352D01*
X-88947358Y-99950590D01*
X-88899739Y-100093447D01*
X-88899739Y-100331542D01*
X-90267120Y-99569638D02*
X-90267120Y-98569638D01*
X-89423548Y-98998209D02*
X-89375929Y-98855352D01*
X-89328310Y-98807733D01*
X-89233072Y-98760114D01*
X-89090215Y-98760114D01*
X-88994977Y-98807733D01*
X-88947358Y-98855352D01*
X-88899739Y-98950590D01*
X-88899739Y-99331542D01*
X-89899739Y-99331542D01*
X-89899739Y-98998209D01*
X-89852120Y-98902971D01*
X-89804500Y-98855352D01*
X-89709262Y-98807733D01*
X-89614024Y-98807733D01*
X-89518786Y-98855352D01*
X-89471167Y-98902971D01*
X-89423548Y-98998209D01*
X-89423548Y-99331542D01*
X-56854339Y-107108523D02*
X-56854339Y-106489476D01*
X-56473386Y-106822809D01*
X-56473386Y-106679952D01*
X-56425767Y-106584714D01*
X-56378148Y-106537095D01*
X-56282910Y-106489476D01*
X-56044815Y-106489476D01*
X-55949577Y-106537095D01*
X-55901958Y-106584714D01*
X-55854339Y-106679952D01*
X-55854339Y-106965666D01*
X-55901958Y-107060904D01*
X-55949577Y-107108523D01*
X-56854339Y-106156142D02*
X-56854339Y-105489476D01*
X-55854339Y-105918047D01*
X-54314339Y-107108523D02*
X-54314339Y-106489476D01*
X-53933386Y-106822809D01*
X-53933386Y-106679952D01*
X-53885767Y-106584714D01*
X-53838148Y-106537095D01*
X-53742910Y-106489476D01*
X-53504815Y-106489476D01*
X-53409577Y-106537095D01*
X-53361958Y-106584714D01*
X-53314339Y-106679952D01*
X-53314339Y-106965666D01*
X-53361958Y-107060904D01*
X-53409577Y-107108523D01*
X-53885767Y-105918047D02*
X-53933386Y-106013285D01*
X-53981005Y-106060904D01*
X-54076243Y-106108523D01*
X-54123862Y-106108523D01*
X-54219100Y-106060904D01*
X-54266720Y-106013285D01*
X-54314339Y-105918047D01*
X-54314339Y-105727571D01*
X-54266720Y-105632333D01*
X-54219100Y-105584714D01*
X-54123862Y-105537095D01*
X-54076243Y-105537095D01*
X-53981005Y-105584714D01*
X-53933386Y-105632333D01*
X-53885767Y-105727571D01*
X-53885767Y-105918047D01*
X-53838148Y-106013285D01*
X-53790529Y-106060904D01*
X-53695291Y-106108523D01*
X-53504815Y-106108523D01*
X-53409577Y-106060904D01*
X-53361958Y-106013285D01*
X-53314339Y-105918047D01*
X-53314339Y-105727571D01*
X-53361958Y-105632333D01*
X-53409577Y-105584714D01*
X-53504815Y-105537095D01*
X-53695291Y-105537095D01*
X-53790529Y-105584714D01*
X-53838148Y-105632333D01*
X-53885767Y-105727571D01*
X-59394339Y-107139003D02*
X-59394339Y-106519956D01*
X-59013386Y-106853289D01*
X-59013386Y-106710432D01*
X-58965767Y-106615194D01*
X-58918148Y-106567575D01*
X-58822910Y-106519956D01*
X-58584815Y-106519956D01*
X-58489577Y-106567575D01*
X-58441958Y-106615194D01*
X-58394339Y-106710432D01*
X-58394339Y-106996146D01*
X-58441958Y-107091384D01*
X-58489577Y-107139003D01*
X-59394339Y-105662813D02*
X-59394339Y-105853289D01*
X-59346720Y-105948527D01*
X-59299100Y-105996146D01*
X-59156243Y-106091384D01*
X-58965767Y-106139003D01*
X-58584815Y-106139003D01*
X-58489577Y-106091384D01*
X-58441958Y-106043765D01*
X-58394339Y-105948527D01*
X-58394339Y-105758051D01*
X-58441958Y-105662813D01*
X-58489577Y-105615194D01*
X-58584815Y-105567575D01*
X-58822910Y-105567575D01*
X-58918148Y-105615194D01*
X-58965767Y-105662813D01*
X-59013386Y-105758051D01*
X-59013386Y-105948527D01*
X-58965767Y-106043765D01*
X-58918148Y-106091384D01*
X-58822910Y-106139003D01*
X-69589899Y-107108523D02*
X-69589899Y-106489476D01*
X-69208946Y-106822809D01*
X-69208946Y-106679952D01*
X-69161327Y-106584714D01*
X-69113708Y-106537095D01*
X-69018470Y-106489476D01*
X-68780375Y-106489476D01*
X-68685137Y-106537095D01*
X-68637518Y-106584714D01*
X-68589899Y-106679952D01*
X-68589899Y-106965666D01*
X-68637518Y-107060904D01*
X-68685137Y-107108523D01*
X-69494660Y-106108523D02*
X-69542280Y-106060904D01*
X-69589899Y-105965666D01*
X-69589899Y-105727571D01*
X-69542280Y-105632333D01*
X-69494660Y-105584714D01*
X-69399422Y-105537095D01*
X-69304184Y-105537095D01*
X-69161327Y-105584714D01*
X-68589899Y-106156142D01*
X-68589899Y-105537095D01*
X-67049899Y-107108523D02*
X-67049899Y-106489476D01*
X-66668946Y-106822809D01*
X-66668946Y-106679952D01*
X-66621327Y-106584714D01*
X-66573708Y-106537095D01*
X-66478470Y-106489476D01*
X-66240375Y-106489476D01*
X-66145137Y-106537095D01*
X-66097518Y-106584714D01*
X-66049899Y-106679952D01*
X-66049899Y-106965666D01*
X-66097518Y-107060904D01*
X-66145137Y-107108523D01*
X-67049899Y-106156142D02*
X-67049899Y-105537095D01*
X-66668946Y-105870428D01*
X-66668946Y-105727571D01*
X-66621327Y-105632333D01*
X-66573708Y-105584714D01*
X-66478470Y-105537095D01*
X-66240375Y-105537095D01*
X-66145137Y-105584714D01*
X-66097518Y-105632333D01*
X-66049899Y-105727571D01*
X-66049899Y-106013285D01*
X-66097518Y-106108523D01*
X-66145137Y-106156142D01*
X-64408299Y-107042483D02*
X-64408299Y-106423436D01*
X-64027346Y-106756769D01*
X-64027346Y-106613912D01*
X-63979727Y-106518674D01*
X-63932108Y-106471055D01*
X-63836870Y-106423436D01*
X-63598775Y-106423436D01*
X-63503537Y-106471055D01*
X-63455918Y-106518674D01*
X-63408299Y-106613912D01*
X-63408299Y-106899626D01*
X-63455918Y-106994864D01*
X-63503537Y-107042483D01*
X-64074965Y-105566293D02*
X-63408299Y-105566293D01*
X-64455918Y-105804388D02*
X-63741632Y-106042483D01*
X-63741632Y-105423436D01*
X-72063859Y-107072963D02*
X-72063859Y-106453916D01*
X-71682906Y-106787249D01*
X-71682906Y-106644392D01*
X-71635287Y-106549154D01*
X-71587668Y-106501535D01*
X-71492430Y-106453916D01*
X-71254335Y-106453916D01*
X-71159097Y-106501535D01*
X-71111478Y-106549154D01*
X-71063859Y-106644392D01*
X-71063859Y-106930106D01*
X-71111478Y-107025344D01*
X-71159097Y-107072963D01*
X-71063859Y-105501535D02*
X-71063859Y-106072963D01*
X-71063859Y-105787249D02*
X-72063859Y-105787249D01*
X-71921001Y-105882487D01*
X-71825763Y-105977725D01*
X-71778144Y-106072963D01*
X-61903859Y-107108523D02*
X-61903859Y-106489476D01*
X-61522906Y-106822809D01*
X-61522906Y-106679952D01*
X-61475287Y-106584714D01*
X-61427668Y-106537095D01*
X-61332430Y-106489476D01*
X-61094335Y-106489476D01*
X-60999097Y-106537095D01*
X-60951478Y-106584714D01*
X-60903859Y-106679952D01*
X-60903859Y-106965666D01*
X-60951478Y-107060904D01*
X-60999097Y-107108523D01*
X-61903859Y-105584714D02*
X-61903859Y-106060904D01*
X-61427668Y-106108523D01*
X-61475287Y-106060904D01*
X-61522906Y-105965666D01*
X-61522906Y-105727571D01*
X-61475287Y-105632333D01*
X-61427668Y-105584714D01*
X-61332430Y-105537095D01*
X-61094335Y-105537095D01*
X-60999097Y-105584714D01*
X-60951478Y-105632333D01*
X-60903859Y-105727571D01*
X-60903859Y-105965666D01*
X-60951478Y-106060904D01*
X-60999097Y-106108523D01*
X-79522580Y-107091384D02*
X-79570200Y-107043765D01*
X-79617819Y-106948527D01*
X-79617819Y-106710432D01*
X-79570200Y-106615194D01*
X-79522580Y-106567575D01*
X-79427342Y-106519956D01*
X-79332104Y-106519956D01*
X-79189247Y-106567575D01*
X-78617819Y-107139003D01*
X-78617819Y-106519956D01*
X-79189247Y-105948527D02*
X-79236866Y-106043765D01*
X-79284485Y-106091384D01*
X-79379723Y-106139003D01*
X-79427342Y-106139003D01*
X-79522580Y-106091384D01*
X-79570200Y-106043765D01*
X-79617819Y-105948527D01*
X-79617819Y-105758051D01*
X-79570200Y-105662813D01*
X-79522580Y-105615194D01*
X-79427342Y-105567575D01*
X-79379723Y-105567575D01*
X-79284485Y-105615194D01*
X-79236866Y-105662813D01*
X-79189247Y-105758051D01*
X-79189247Y-105948527D01*
X-79141628Y-106043765D01*
X-79094009Y-106091384D01*
X-78998771Y-106139003D01*
X-78808295Y-106139003D01*
X-78713057Y-106091384D01*
X-78665438Y-106043765D01*
X-78617819Y-105948527D01*
X-78617819Y-105758051D01*
X-78665438Y-105662813D01*
X-78713057Y-105615194D01*
X-78808295Y-105567575D01*
X-78998771Y-105567575D01*
X-79094009Y-105615194D01*
X-79141628Y-105662813D01*
X-79189247Y-105758051D01*
X-84765140Y-107025344D02*
X-84812760Y-106977725D01*
X-84860379Y-106882487D01*
X-84860379Y-106644392D01*
X-84812760Y-106549154D01*
X-84765140Y-106501535D01*
X-84669902Y-106453916D01*
X-84574664Y-106453916D01*
X-84431807Y-106501535D01*
X-83860379Y-107072963D01*
X-83860379Y-106453916D01*
X-84860379Y-105596773D02*
X-84860379Y-105787249D01*
X-84812760Y-105882487D01*
X-84765140Y-105930106D01*
X-84622283Y-106025344D01*
X-84431807Y-106072963D01*
X-84050855Y-106072963D01*
X-83955617Y-106025344D01*
X-83907998Y-105977725D01*
X-83860379Y-105882487D01*
X-83860379Y-105692011D01*
X-83907998Y-105596773D01*
X-83955617Y-105549154D01*
X-84050855Y-105501535D01*
X-84288950Y-105501535D01*
X-84384188Y-105549154D01*
X-84431807Y-105596773D01*
X-84479426Y-105692011D01*
X-84479426Y-105882487D01*
X-84431807Y-105977725D01*
X-84384188Y-106025344D01*
X-84288950Y-106072963D01*
X-82225140Y-107060904D02*
X-82272760Y-107013285D01*
X-82320379Y-106918047D01*
X-82320379Y-106679952D01*
X-82272760Y-106584714D01*
X-82225140Y-106537095D01*
X-82129902Y-106489476D01*
X-82034664Y-106489476D01*
X-81891807Y-106537095D01*
X-81320379Y-107108523D01*
X-81320379Y-106489476D01*
X-82320379Y-106156142D02*
X-82320379Y-105489476D01*
X-81320379Y-105918047D01*
X-74537819Y-107108523D02*
X-74537819Y-106489476D01*
X-74156866Y-106822809D01*
X-74156866Y-106679952D01*
X-74109247Y-106584714D01*
X-74061628Y-106537095D01*
X-73966390Y-106489476D01*
X-73728295Y-106489476D01*
X-73633057Y-106537095D01*
X-73585438Y-106584714D01*
X-73537819Y-106679952D01*
X-73537819Y-106965666D01*
X-73585438Y-107060904D01*
X-73633057Y-107108523D01*
X-74537819Y-105870428D02*
X-74537819Y-105775190D01*
X-74490200Y-105679952D01*
X-74442580Y-105632333D01*
X-74347342Y-105584714D01*
X-74156866Y-105537095D01*
X-73918771Y-105537095D01*
X-73728295Y-105584714D01*
X-73633057Y-105632333D01*
X-73585438Y-105679952D01*
X-73537819Y-105775190D01*
X-73537819Y-105870428D01*
X-73585438Y-105965666D01*
X-73633057Y-106013285D01*
X-73728295Y-106060904D01*
X-73918771Y-106108523D01*
X-74156866Y-106108523D01*
X-74347342Y-106060904D01*
X-74442580Y-106013285D01*
X-74490200Y-105965666D01*
X-74537819Y-105870428D01*
X-76982580Y-107060904D02*
X-77030200Y-107013285D01*
X-77077819Y-106918047D01*
X-77077819Y-106679952D01*
X-77030200Y-106584714D01*
X-76982580Y-106537095D01*
X-76887342Y-106489476D01*
X-76792104Y-106489476D01*
X-76649247Y-106537095D01*
X-76077819Y-107108523D01*
X-76077819Y-106489476D01*
X-76077819Y-106013285D02*
X-76077819Y-105822809D01*
X-76125438Y-105727571D01*
X-76173057Y-105679952D01*
X-76315914Y-105584714D01*
X-76506390Y-105537095D01*
X-76887342Y-105537095D01*
X-76982580Y-105584714D01*
X-77030200Y-105632333D01*
X-77077819Y-105727571D01*
X-77077819Y-105918047D01*
X-77030200Y-106013285D01*
X-76982580Y-106060904D01*
X-76887342Y-106108523D01*
X-76649247Y-106108523D01*
X-76554009Y-106060904D01*
X-76506390Y-106013285D01*
X-76458771Y-105918047D01*
X-76458771Y-105727571D01*
X-76506390Y-105632333D01*
X-76554009Y-105584714D01*
X-76649247Y-105537095D01*
X-89799420Y-106994864D02*
X-89847040Y-106947245D01*
X-89894659Y-106852007D01*
X-89894659Y-106613912D01*
X-89847040Y-106518674D01*
X-89799420Y-106471055D01*
X-89704182Y-106423436D01*
X-89608944Y-106423436D01*
X-89466087Y-106471055D01*
X-88894659Y-107042483D01*
X-88894659Y-106423436D01*
X-89561325Y-105566293D02*
X-88894659Y-105566293D01*
X-89942278Y-105804388D02*
X-89227992Y-106042483D01*
X-89227992Y-105423436D01*
X-97419420Y-106994864D02*
X-97467040Y-106947245D01*
X-97514659Y-106852007D01*
X-97514659Y-106613912D01*
X-97467040Y-106518674D01*
X-97419420Y-106471055D01*
X-97324182Y-106423436D01*
X-97228944Y-106423436D01*
X-97086087Y-106471055D01*
X-96514659Y-107042483D01*
X-96514659Y-106423436D01*
X-96514659Y-105471055D02*
X-96514659Y-106042483D01*
X-96514659Y-105756769D02*
X-97514659Y-105756769D01*
X-97371801Y-105852007D01*
X-97276563Y-105947245D01*
X-97228944Y-106042483D01*
X-94752420Y-107025344D02*
X-94800040Y-106977725D01*
X-94847659Y-106882487D01*
X-94847659Y-106644392D01*
X-94800040Y-106549154D01*
X-94752420Y-106501535D01*
X-94657182Y-106453916D01*
X-94561944Y-106453916D01*
X-94419087Y-106501535D01*
X-93847659Y-107072963D01*
X-93847659Y-106453916D01*
X-94752420Y-106072963D02*
X-94800040Y-106025344D01*
X-94847659Y-105930106D01*
X-94847659Y-105692011D01*
X-94800040Y-105596773D01*
X-94752420Y-105549154D01*
X-94657182Y-105501535D01*
X-94561944Y-105501535D01*
X-94419087Y-105549154D01*
X-93847659Y-106120582D01*
X-93847659Y-105501535D01*
X-87305140Y-107060904D02*
X-87352760Y-107013285D01*
X-87400379Y-106918047D01*
X-87400379Y-106679952D01*
X-87352760Y-106584714D01*
X-87305140Y-106537095D01*
X-87209902Y-106489476D01*
X-87114664Y-106489476D01*
X-86971807Y-106537095D01*
X-86400379Y-107108523D01*
X-86400379Y-106489476D01*
X-87400379Y-105584714D02*
X-87400379Y-106060904D01*
X-86924188Y-106108523D01*
X-86971807Y-106060904D01*
X-87019426Y-105965666D01*
X-87019426Y-105727571D01*
X-86971807Y-105632333D01*
X-86924188Y-105584714D01*
X-86828950Y-105537095D01*
X-86590855Y-105537095D01*
X-86495617Y-105584714D01*
X-86447998Y-105632333D01*
X-86400379Y-105727571D01*
X-86400379Y-105965666D01*
X-86447998Y-106060904D01*
X-86495617Y-106108523D01*
X-92212420Y-107025344D02*
X-92260040Y-106977725D01*
X-92307659Y-106882487D01*
X-92307659Y-106644392D01*
X-92260040Y-106549154D01*
X-92212420Y-106501535D01*
X-92117182Y-106453916D01*
X-92021944Y-106453916D01*
X-91879087Y-106501535D01*
X-91307659Y-107072963D01*
X-91307659Y-106453916D01*
X-92307659Y-106120582D02*
X-92307659Y-105501535D01*
X-91926706Y-105834868D01*
X-91926706Y-105692011D01*
X-91879087Y-105596773D01*
X-91831468Y-105549154D01*
X-91736230Y-105501535D01*
X-91498135Y-105501535D01*
X-91402897Y-105549154D01*
X-91355278Y-105596773D01*
X-91307659Y-105692011D01*
X-91307659Y-105977725D01*
X-91355278Y-106072963D01*
X-91402897Y-106120582D01*
X-101503219Y-106392956D02*
X-101503219Y-106964384D01*
X-101503219Y-106678670D02*
X-102503219Y-106678670D01*
X-102360361Y-106773908D01*
X-102265123Y-106869146D01*
X-102217504Y-106964384D01*
X-101503219Y-105916765D02*
X-101503219Y-105726289D01*
X-101550838Y-105631051D01*
X-101598457Y-105583432D01*
X-101741314Y-105488194D01*
X-101931790Y-105440575D01*
X-102312742Y-105440575D01*
X-102407980Y-105488194D01*
X-102455600Y-105535813D01*
X-102503219Y-105631051D01*
X-102503219Y-105821527D01*
X-102455600Y-105916765D01*
X-102407980Y-105964384D01*
X-102312742Y-106012003D01*
X-102074647Y-106012003D01*
X-101979409Y-105964384D01*
X-101931790Y-105916765D01*
X-101884171Y-105821527D01*
X-101884171Y-105631051D01*
X-101931790Y-105535813D01*
X-101979409Y-105488194D01*
X-102074647Y-105440575D01*
X-99959420Y-107025344D02*
X-100007040Y-106977725D01*
X-100054659Y-106882487D01*
X-100054659Y-106644392D01*
X-100007040Y-106549154D01*
X-99959420Y-106501535D01*
X-99864182Y-106453916D01*
X-99768944Y-106453916D01*
X-99626087Y-106501535D01*
X-99054659Y-107072963D01*
X-99054659Y-106453916D01*
X-100054659Y-105834868D02*
X-100054659Y-105739630D01*
X-100007040Y-105644392D01*
X-99959420Y-105596773D01*
X-99864182Y-105549154D01*
X-99673706Y-105501535D01*
X-99435611Y-105501535D01*
X-99245135Y-105549154D01*
X-99149897Y-105596773D01*
X-99102278Y-105644392D01*
X-99054659Y-105739630D01*
X-99054659Y-105834868D01*
X-99102278Y-105930106D01*
X-99149897Y-105977725D01*
X-99245135Y-106025344D01*
X-99435611Y-106072963D01*
X-99673706Y-106072963D01*
X-99864182Y-106025344D01*
X-99959420Y-105977725D01*
X-100007040Y-105930106D01*
X-100054659Y-105834868D01*
X-104012739Y-106453916D02*
X-104012739Y-107025344D01*
X-104012739Y-106739630D02*
X-105012739Y-106739630D01*
X-104869881Y-106834868D01*
X-104774643Y-106930106D01*
X-104727024Y-107025344D01*
X-104584167Y-105882487D02*
X-104631786Y-105977725D01*
X-104679405Y-106025344D01*
X-104774643Y-106072963D01*
X-104822262Y-106072963D01*
X-104917500Y-106025344D01*
X-104965120Y-105977725D01*
X-105012739Y-105882487D01*
X-105012739Y-105692011D01*
X-104965120Y-105596773D01*
X-104917500Y-105549154D01*
X-104822262Y-105501535D01*
X-104774643Y-105501535D01*
X-104679405Y-105549154D01*
X-104631786Y-105596773D01*
X-104584167Y-105692011D01*
X-104584167Y-105882487D01*
X-104536548Y-105977725D01*
X-104488929Y-106025344D01*
X-104393691Y-106072963D01*
X-104203215Y-106072963D01*
X-104107977Y-106025344D01*
X-104060358Y-105977725D01*
X-104012739Y-105882487D01*
X-104012739Y-105692011D01*
X-104060358Y-105596773D01*
X-104107977Y-105549154D01*
X-104203215Y-105501535D01*
X-104393691Y-105501535D01*
X-104488929Y-105549154D01*
X-104536548Y-105596773D01*
X-104584167Y-105692011D01*
X-106649259Y-106392956D02*
X-106649259Y-106964384D01*
X-106649259Y-106678670D02*
X-107649259Y-106678670D01*
X-107506401Y-106773908D01*
X-107411163Y-106869146D01*
X-107363544Y-106964384D01*
X-107649259Y-106059622D02*
X-107649259Y-105392956D01*
X-106649259Y-105821527D01*
X-109224819Y-106392956D02*
X-109224819Y-106964384D01*
X-109224819Y-106678670D02*
X-110224819Y-106678670D01*
X-110081961Y-106773908D01*
X-109986723Y-106869146D01*
X-109939104Y-106964384D01*
X-110224819Y-105535813D02*
X-110224819Y-105726289D01*
X-110177200Y-105821527D01*
X-110129580Y-105869146D01*
X-109986723Y-105964384D01*
X-109796247Y-106012003D01*
X-109415295Y-106012003D01*
X-109320057Y-105964384D01*
X-109272438Y-105916765D01*
X-109224819Y-105821527D01*
X-109224819Y-105631051D01*
X-109272438Y-105535813D01*
X-109320057Y-105488194D01*
X-109415295Y-105440575D01*
X-109653390Y-105440575D01*
X-109748628Y-105488194D01*
X-109796247Y-105535813D01*
X-109843866Y-105631051D01*
X-109843866Y-105821527D01*
X-109796247Y-105916765D01*
X-109748628Y-105964384D01*
X-109653390Y-106012003D01*
X-114238779Y-106392956D02*
X-114238779Y-106964384D01*
X-114238779Y-106678670D02*
X-115238779Y-106678670D01*
X-115095921Y-106773908D01*
X-115000683Y-106869146D01*
X-114953064Y-106964384D01*
X-114905445Y-105535813D02*
X-114238779Y-105535813D01*
X-115286398Y-105773908D02*
X-114572112Y-106012003D01*
X-114572112Y-105392956D01*
X-121909579Y-106392956D02*
X-121909579Y-106964384D01*
X-121909579Y-106678670D02*
X-122909579Y-106678670D01*
X-122766721Y-106773908D01*
X-122671483Y-106869146D01*
X-122623864Y-106964384D01*
X-121909579Y-105440575D02*
X-121909579Y-106012003D01*
X-121909579Y-105726289D02*
X-122909579Y-105726289D01*
X-122766721Y-105821527D01*
X-122671483Y-105916765D01*
X-122623864Y-106012003D01*
X-119384819Y-106423436D02*
X-119384819Y-106994864D01*
X-119384819Y-106709150D02*
X-120384819Y-106709150D01*
X-120241961Y-106804388D01*
X-120146723Y-106899626D01*
X-120099104Y-106994864D01*
X-120289580Y-106042483D02*
X-120337200Y-105994864D01*
X-120384819Y-105899626D01*
X-120384819Y-105661531D01*
X-120337200Y-105566293D01*
X-120289580Y-105518674D01*
X-120194342Y-105471055D01*
X-120099104Y-105471055D01*
X-119956247Y-105518674D01*
X-119384819Y-106090102D01*
X-119384819Y-105471055D01*
X-116778779Y-106423436D02*
X-116778779Y-106994864D01*
X-116778779Y-106709150D02*
X-117778779Y-106709150D01*
X-117635921Y-106804388D01*
X-117540683Y-106899626D01*
X-117493064Y-106994864D01*
X-117778779Y-106090102D02*
X-117778779Y-105471055D01*
X-117397826Y-105804388D01*
X-117397826Y-105661531D01*
X-117350207Y-105566293D01*
X-117302588Y-105518674D01*
X-117207350Y-105471055D01*
X-116969255Y-105471055D01*
X-116874017Y-105518674D01*
X-116826398Y-105566293D01*
X-116778779Y-105661531D01*
X-116778779Y-105947245D01*
X-116826398Y-106042483D01*
X-116874017Y-106090102D01*
X-111729259Y-106423436D02*
X-111729259Y-106994864D01*
X-111729259Y-106709150D02*
X-112729259Y-106709150D01*
X-112586401Y-106804388D01*
X-112491163Y-106899626D01*
X-112443544Y-106994864D01*
X-112729259Y-105518674D02*
X-112729259Y-105994864D01*
X-112253068Y-106042483D01*
X-112300687Y-105994864D01*
X-112348306Y-105899626D01*
X-112348306Y-105661531D01*
X-112300687Y-105566293D01*
X-112253068Y-105518674D01*
X-112157830Y-105471055D01*
X-111919735Y-105471055D01*
X-111824497Y-105518674D01*
X-111776878Y-105566293D01*
X-111729259Y-105661531D01*
X-111729259Y-105899626D01*
X-111776878Y-105994864D01*
X-111824497Y-106042483D01*
X-124383539Y-106423436D02*
X-124383539Y-106994864D01*
X-124383539Y-106709150D02*
X-125383539Y-106709150D01*
X-125240681Y-106804388D01*
X-125145443Y-106899626D01*
X-125097824Y-106994864D01*
X-125383539Y-105804388D02*
X-125383539Y-105709150D01*
X-125335920Y-105613912D01*
X-125288300Y-105566293D01*
X-125193062Y-105518674D01*
X-125002586Y-105471055D01*
X-124764491Y-105471055D01*
X-124574015Y-105518674D01*
X-124478777Y-105566293D01*
X-124431158Y-105613912D01*
X-124383539Y-105709150D01*
X-124383539Y-105804388D01*
X-124431158Y-105899626D01*
X-124478777Y-105947245D01*
X-124574015Y-105994864D01*
X-124764491Y-106042483D01*
X-125002586Y-106042483D01*
X-125193062Y-105994864D01*
X-125288300Y-105947245D01*
X-125335920Y-105899626D01*
X-125383539Y-105804388D01*
X-135670539Y-105580203D02*
X-135670539Y-105770680D01*
X-135622920Y-105865918D01*
X-135575300Y-105913537D01*
X-135432443Y-106008775D01*
X-135241967Y-106056394D01*
X-134861015Y-106056394D01*
X-134765777Y-106008775D01*
X-134718158Y-105961156D01*
X-134670539Y-105865918D01*
X-134670539Y-105675441D01*
X-134718158Y-105580203D01*
X-134765777Y-105532584D01*
X-134861015Y-105484965D01*
X-135099110Y-105484965D01*
X-135194348Y-105532584D01*
X-135241967Y-105580203D01*
X-135289586Y-105675441D01*
X-135289586Y-105865918D01*
X-135241967Y-105961156D01*
X-135194348Y-106008775D01*
X-135099110Y-106056394D01*
X-126923539Y-105961156D02*
X-126923539Y-105770680D01*
X-126971158Y-105675441D01*
X-127018777Y-105627822D01*
X-127161634Y-105532584D01*
X-127352110Y-105484965D01*
X-127733062Y-105484965D01*
X-127828300Y-105532584D01*
X-127875920Y-105580203D01*
X-127923539Y-105675441D01*
X-127923539Y-105865918D01*
X-127875920Y-105961156D01*
X-127828300Y-106008775D01*
X-127733062Y-106056394D01*
X-127494967Y-106056394D01*
X-127399729Y-106008775D01*
X-127352110Y-105961156D01*
X-127304491Y-105865918D01*
X-127304491Y-105675441D01*
X-127352110Y-105580203D01*
X-127399729Y-105532584D01*
X-127494967Y-105484965D01*
X-130070527Y-105835438D02*
X-130118146Y-105930676D01*
X-130165765Y-105978295D01*
X-130261003Y-106025914D01*
X-130308622Y-106025914D01*
X-130403860Y-105978295D01*
X-130451480Y-105930676D01*
X-130499099Y-105835438D01*
X-130499099Y-105644961D01*
X-130451480Y-105549723D01*
X-130403860Y-105502104D01*
X-130308622Y-105454485D01*
X-130261003Y-105454485D01*
X-130165765Y-105502104D01*
X-130118146Y-105549723D01*
X-130070527Y-105644961D01*
X-130070527Y-105835438D01*
X-130022908Y-105930676D01*
X-129975289Y-105978295D01*
X-129880051Y-106025914D01*
X-129689575Y-106025914D01*
X-129594337Y-105978295D01*
X-129546718Y-105930676D01*
X-129499099Y-105835438D01*
X-129499099Y-105644961D01*
X-129546718Y-105549723D01*
X-129594337Y-105502104D01*
X-129689575Y-105454485D01*
X-129880051Y-105454485D01*
X-129975289Y-105502104D01*
X-130022908Y-105549723D01*
X-130070527Y-105644961D01*
X-133069579Y-106104013D02*
X-133069579Y-105437346D01*
X-132069579Y-105865918D01*
X-138180059Y-105532584D02*
X-138180059Y-106008775D01*
X-137703868Y-106056394D01*
X-137751487Y-106008775D01*
X-137799106Y-105913537D01*
X-137799106Y-105675441D01*
X-137751487Y-105580203D01*
X-137703868Y-105532584D01*
X-137608630Y-105484965D01*
X-137370535Y-105484965D01*
X-137275297Y-105532584D01*
X-137227678Y-105580203D01*
X-137180059Y-105675441D01*
X-137180059Y-105913537D01*
X-137227678Y-106008775D01*
X-137275297Y-106056394D01*
X-140386725Y-105580203D02*
X-139720059Y-105580203D01*
X-140767678Y-105818299D02*
X-140053392Y-106056394D01*
X-140053392Y-105437346D01*
X-143224499Y-106073533D02*
X-143224499Y-105454485D01*
X-142843546Y-105787819D01*
X-142843546Y-105644961D01*
X-142795927Y-105549723D01*
X-142748308Y-105502104D01*
X-142653070Y-105454485D01*
X-142414975Y-105454485D01*
X-142319737Y-105502104D01*
X-142272118Y-105549723D01*
X-142224499Y-105644961D01*
X-142224499Y-105930676D01*
X-142272118Y-106025914D01*
X-142319737Y-106073533D01*
X-145704820Y-106025914D02*
X-145752440Y-105978295D01*
X-145800059Y-105883057D01*
X-145800059Y-105644961D01*
X-145752440Y-105549723D01*
X-145704820Y-105502104D01*
X-145609582Y-105454485D01*
X-145514344Y-105454485D01*
X-145371487Y-105502104D01*
X-144800059Y-106073533D01*
X-144800059Y-105454485D01*
X-147340059Y-105454485D02*
X-147340059Y-106025914D01*
X-147340059Y-105740200D02*
X-148340059Y-105740200D01*
X-148197201Y-105835438D01*
X-148101963Y-105930676D01*
X-148054344Y-106025914D01*
X-60075011Y-23135340D02*
X-59979773Y-23135340D01*
X-59884535Y-23182960D01*
X-59836916Y-23230579D01*
X-59789297Y-23325817D01*
X-59741678Y-23516293D01*
X-59741678Y-23754388D01*
X-59789297Y-23944864D01*
X-59836916Y-24040102D01*
X-59884535Y-24087721D01*
X-59979773Y-24135340D01*
X-60075011Y-24135340D01*
X-60170249Y-24087721D01*
X-60217868Y-24040102D01*
X-60265487Y-23944864D01*
X-60313106Y-23754388D01*
X-60313106Y-23516293D01*
X-60265487Y-23325817D01*
X-60217868Y-23230579D01*
X-60170249Y-23182960D01*
X-60075011Y-23135340D01*
X-59408344Y-24135340D02*
X-58884535Y-23468674D01*
X-59408344Y-23468674D02*
X-58884535Y-24135340D01*
X-58598820Y-23135340D02*
X-57979773Y-23135340D01*
X-58313106Y-23516293D01*
X-58170249Y-23516293D01*
X-58075011Y-23563912D01*
X-58027392Y-23611531D01*
X-57979773Y-23706769D01*
X-57979773Y-23944864D01*
X-58027392Y-24040102D01*
X-58075011Y-24087721D01*
X-58170249Y-24135340D01*
X-58455963Y-24135340D01*
X-58551201Y-24087721D01*
X-58598820Y-24040102D01*
X-86770411Y-23125180D02*
X-86675173Y-23125180D01*
X-86579935Y-23172800D01*
X-86532316Y-23220419D01*
X-86484697Y-23315657D01*
X-86437078Y-23506133D01*
X-86437078Y-23744228D01*
X-86484697Y-23934704D01*
X-86532316Y-24029942D01*
X-86579935Y-24077561D01*
X-86675173Y-24125180D01*
X-86770411Y-24125180D01*
X-86865649Y-24077561D01*
X-86913268Y-24029942D01*
X-86960887Y-23934704D01*
X-87008506Y-23744228D01*
X-87008506Y-23506133D01*
X-86960887Y-23315657D01*
X-86913268Y-23220419D01*
X-86865649Y-23172800D01*
X-86770411Y-23125180D01*
X-86103744Y-24125180D02*
X-85579935Y-23458514D01*
X-86103744Y-23458514D02*
X-85579935Y-24125180D01*
X-85246601Y-23220419D02*
X-85198982Y-23172800D01*
X-85103744Y-23125180D01*
X-84865649Y-23125180D01*
X-84770411Y-23172800D01*
X-84722792Y-23220419D01*
X-84675173Y-23315657D01*
X-84675173Y-23410895D01*
X-84722792Y-23553752D01*
X-85294220Y-24125180D01*
X-84675173Y-24125180D01*
X-113237211Y-22708620D02*
X-113141973Y-22708620D01*
X-113046735Y-22756240D01*
X-112999116Y-22803859D01*
X-112951497Y-22899097D01*
X-112903878Y-23089573D01*
X-112903878Y-23327668D01*
X-112951497Y-23518144D01*
X-112999116Y-23613382D01*
X-113046735Y-23661001D01*
X-113141973Y-23708620D01*
X-113237211Y-23708620D01*
X-113332449Y-23661001D01*
X-113380068Y-23613382D01*
X-113427687Y-23518144D01*
X-113475306Y-23327668D01*
X-113475306Y-23089573D01*
X-113427687Y-22899097D01*
X-113380068Y-22803859D01*
X-113332449Y-22756240D01*
X-113237211Y-22708620D01*
X-112570544Y-23708620D02*
X-112046735Y-23041954D01*
X-112570544Y-23041954D02*
X-112046735Y-23708620D01*
X-111141973Y-23708620D02*
X-111713401Y-23708620D01*
X-111427687Y-23708620D02*
X-111427687Y-22708620D01*
X-111522925Y-22851478D01*
X-111618163Y-22946716D01*
X-111713401Y-22994335D01*
X-139704011Y-22723860D02*
X-139608773Y-22723860D01*
X-139513535Y-22771480D01*
X-139465916Y-22819099D01*
X-139418297Y-22914337D01*
X-139370678Y-23104813D01*
X-139370678Y-23342908D01*
X-139418297Y-23533384D01*
X-139465916Y-23628622D01*
X-139513535Y-23676241D01*
X-139608773Y-23723860D01*
X-139704011Y-23723860D01*
X-139799249Y-23676241D01*
X-139846868Y-23628622D01*
X-139894487Y-23533384D01*
X-139942106Y-23342908D01*
X-139942106Y-23104813D01*
X-139894487Y-22914337D01*
X-139846868Y-22819099D01*
X-139799249Y-22771480D01*
X-139704011Y-22723860D01*
X-139037344Y-23723860D02*
X-138513535Y-23057194D01*
X-139037344Y-23057194D02*
X-138513535Y-23723860D01*
X-137942106Y-22723860D02*
X-137846868Y-22723860D01*
X-137751630Y-22771480D01*
X-137704011Y-22819099D01*
X-137656392Y-22914337D01*
X-137608773Y-23104813D01*
X-137608773Y-23342908D01*
X-137656392Y-23533384D01*
X-137704011Y-23628622D01*
X-137751630Y-23676241D01*
X-137846868Y-23723860D01*
X-137942106Y-23723860D01*
X-138037344Y-23676241D01*
X-138084963Y-23628622D01*
X-138132582Y-23533384D01*
X-138180201Y-23342908D01*
X-138180201Y-23104813D01*
X-138132582Y-22914337D01*
X-138084963Y-22819099D01*
X-138037344Y-22771480D01*
X-137942106Y-22723860D01*
X-54070285Y-87536280D02*
X-54641714Y-87536280D01*
X-54356000Y-87536280D02*
X-54356000Y-86536280D01*
X-54451238Y-86679138D01*
X-54546476Y-86774376D01*
X-54641714Y-86821995D01*
X-49323619Y-86536280D02*
X-49228380Y-86536280D01*
X-49133142Y-86583900D01*
X-49085523Y-86631519D01*
X-49037904Y-86726757D01*
X-48990285Y-86917233D01*
X-48990285Y-87155328D01*
X-49037904Y-87345804D01*
X-49085523Y-87441042D01*
X-49133142Y-87488661D01*
X-49228380Y-87536280D01*
X-49323619Y-87536280D01*
X-49418857Y-87488661D01*
X-49466476Y-87441042D01*
X-49514095Y-87345804D01*
X-49561714Y-87155328D01*
X-49561714Y-86917233D01*
X-49514095Y-86726757D01*
X-49466476Y-86631519D01*
X-49418857Y-86583900D01*
X-49323619Y-86536280D01*
X-53284285Y-83139471D02*
X-53141428Y-83187090D01*
X-53093809Y-83234709D01*
X-53046190Y-83329947D01*
X-53046190Y-83472804D01*
X-53093809Y-83568042D01*
X-53141428Y-83615661D01*
X-53236666Y-83663280D01*
X-53617619Y-83663280D01*
X-53617619Y-82663280D01*
X-53284285Y-82663280D01*
X-53189047Y-82710900D01*
X-53141428Y-82758519D01*
X-53093809Y-82853757D01*
X-53093809Y-82948995D01*
X-53141428Y-83044233D01*
X-53189047Y-83091852D01*
X-53284285Y-83139471D01*
X-53617619Y-83139471D01*
X-52189047Y-83663280D02*
X-52189047Y-83139471D01*
X-52236666Y-83044233D01*
X-52331904Y-82996614D01*
X-52522380Y-82996614D01*
X-52617619Y-83044233D01*
X-52189047Y-83615661D02*
X-52284285Y-83663280D01*
X-52522380Y-83663280D01*
X-52617619Y-83615661D01*
X-52665238Y-83520423D01*
X-52665238Y-83425185D01*
X-52617619Y-83329947D01*
X-52522380Y-83282328D01*
X-52284285Y-83282328D01*
X-52189047Y-83234709D01*
X-51760476Y-83615661D02*
X-51665238Y-83663280D01*
X-51474761Y-83663280D01*
X-51379523Y-83615661D01*
X-51331904Y-83520423D01*
X-51331904Y-83472804D01*
X-51379523Y-83377566D01*
X-51474761Y-83329947D01*
X-51617619Y-83329947D01*
X-51712857Y-83282328D01*
X-51760476Y-83187090D01*
X-51760476Y-83139471D01*
X-51712857Y-83044233D01*
X-51617619Y-82996614D01*
X-51474761Y-82996614D01*
X-51379523Y-83044233D01*
X-50522380Y-83615661D02*
X-50617619Y-83663280D01*
X-50808095Y-83663280D01*
X-50903333Y-83615661D01*
X-50950952Y-83520423D01*
X-50950952Y-83139471D01*
X-50903333Y-83044233D01*
X-50808095Y-82996614D01*
X-50617619Y-82996614D01*
X-50522380Y-83044233D01*
X-50474761Y-83139471D01*
X-50474761Y-83234709D01*
X-50950952Y-83329947D01*
X-54760476Y-85027566D02*
X-54284285Y-85027566D01*
X-54855714Y-85313280D02*
X-54522380Y-84313280D01*
X-54189047Y-85313280D01*
X-53427142Y-85313280D02*
X-53427142Y-84313280D01*
X-53427142Y-85265661D02*
X-53522380Y-85313280D01*
X-53712857Y-85313280D01*
X-53808095Y-85265661D01*
X-53855714Y-85218042D01*
X-53903333Y-85122804D01*
X-53903333Y-84837090D01*
X-53855714Y-84741852D01*
X-53808095Y-84694233D01*
X-53712857Y-84646614D01*
X-53522380Y-84646614D01*
X-53427142Y-84694233D01*
X-52522380Y-85313280D02*
X-52522380Y-84313280D01*
X-52522380Y-85265661D02*
X-52617619Y-85313280D01*
X-52808095Y-85313280D01*
X-52903333Y-85265661D01*
X-52950952Y-85218042D01*
X-52998571Y-85122804D01*
X-52998571Y-84837090D01*
X-52950952Y-84741852D01*
X-52903333Y-84694233D01*
X-52808095Y-84646614D01*
X-52617619Y-84646614D01*
X-52522380Y-84694233D01*
X-52046190Y-85313280D02*
X-52046190Y-84646614D01*
X-52046190Y-84837090D02*
X-51998571Y-84741852D01*
X-51950952Y-84694233D01*
X-51855714Y-84646614D01*
X-51760476Y-84646614D01*
X-51046190Y-85265661D02*
X-51141428Y-85313280D01*
X-51331904Y-85313280D01*
X-51427142Y-85265661D01*
X-51474761Y-85170423D01*
X-51474761Y-84789471D01*
X-51427142Y-84694233D01*
X-51331904Y-84646614D01*
X-51141428Y-84646614D01*
X-51046190Y-84694233D01*
X-50998571Y-84789471D01*
X-50998571Y-84884709D01*
X-51474761Y-84979947D01*
X-50617619Y-85265661D02*
X-50522380Y-85313280D01*
X-50331904Y-85313280D01*
X-50236666Y-85265661D01*
X-50189047Y-85170423D01*
X-50189047Y-85122804D01*
X-50236666Y-85027566D01*
X-50331904Y-84979947D01*
X-50474761Y-84979947D01*
X-50570000Y-84932328D01*
X-50617619Y-84837090D01*
X-50617619Y-84789471D01*
X-50570000Y-84694233D01*
X-50474761Y-84646614D01*
X-50331904Y-84646614D01*
X-50236666Y-84694233D01*
X-49808095Y-85265661D02*
X-49712857Y-85313280D01*
X-49522380Y-85313280D01*
X-49427142Y-85265661D01*
X-49379523Y-85170423D01*
X-49379523Y-85122804D01*
X-49427142Y-85027566D01*
X-49522380Y-84979947D01*
X-49665238Y-84979947D01*
X-49760476Y-84932328D01*
X-49808095Y-84837090D01*
X-49808095Y-84789471D01*
X-49760476Y-84694233D01*
X-49665238Y-84646614D01*
X-49522380Y-84646614D01*
X-49427142Y-84694233D01*
D12*
X-150189240Y-79446880D02*
G75*
G02X-150189240Y-81446880I0J-1000000D01*
G01*
X-150189240Y-81446880D02*
X-150189240Y-83096880D01*
X-150189240Y-83096880D02*
X-119589240Y-83096880D01*
X-119589240Y-83096880D02*
X-119589240Y-77796880D01*
X-119589240Y-77796880D02*
X-150189240Y-77796880D01*
X-150189240Y-77796880D02*
X-150189240Y-79446880D01*
X-150249240Y-85586880D02*
X-119529240Y-85586880D01*
X-119529240Y-85586880D02*
X-119529240Y-75306880D01*
X-119529240Y-75306880D02*
X-150249240Y-75306880D01*
X-150249240Y-75306880D02*
X-150249240Y-85586880D01*
X-136596120Y-29502560D02*
X-136596120Y-26702560D01*
X-146926120Y-29502560D02*
X-133886120Y-29502560D01*
X-146926120Y-26702560D02*
X-146926120Y-29502560D01*
X-133886120Y-26702560D02*
X-146926120Y-26702560D01*
X-133886120Y-29502560D02*
X-133886120Y-26702560D01*
X-51492800Y-63140900D02*
X-51492800Y-52860900D01*
X-72052800Y-63140900D02*
X-51492800Y-63140900D01*
X-72052800Y-52860900D02*
X-72052800Y-63140900D01*
X-51492800Y-52860900D02*
X-72052800Y-52860900D01*
X-51552800Y-60650900D02*
X-51552800Y-59000900D01*
X-71992800Y-60650900D02*
X-51552800Y-60650900D01*
X-71992800Y-55350900D02*
X-71992800Y-60650900D01*
X-51552800Y-55350900D02*
X-71992800Y-55350900D01*
X-51552800Y-57000900D02*
X-51552800Y-55350900D01*
X-51552800Y-59000900D02*
G75*
G02X-51552800Y-57000900I0J1000000D01*
G01*
X-74669000Y-64075000D02*
X-74669000Y-74355000D01*
X-49029000Y-64075000D02*
X-74669000Y-64075000D01*
X-49029000Y-74355000D02*
X-49029000Y-64075000D01*
X-74669000Y-74355000D02*
X-49029000Y-74355000D01*
X-74609000Y-66565000D02*
X-74609000Y-68215000D01*
X-49089000Y-66565000D02*
X-74609000Y-66565000D01*
X-49089000Y-71865000D02*
X-49089000Y-66565000D01*
X-74609000Y-71865000D02*
X-49089000Y-71865000D01*
X-74609000Y-70215000D02*
X-74609000Y-71865000D01*
X-74609000Y-68215000D02*
G75*
G02X-74609000Y-70215000I0J-1000000D01*
G01*
X-51616300Y-47736000D02*
G75*
G02X-51616300Y-45736000I0J1000000D01*
G01*
X-51616300Y-45736000D02*
X-51616300Y-44086000D01*
X-51616300Y-44086000D02*
X-72056300Y-44086000D01*
X-72056300Y-44086000D02*
X-72056300Y-49386000D01*
X-72056300Y-49386000D02*
X-51616300Y-49386000D01*
X-51616300Y-49386000D02*
X-51616300Y-47736000D01*
X-51556300Y-41596000D02*
X-72116300Y-41596000D01*
X-72116300Y-41596000D02*
X-72116300Y-51876000D01*
X-72116300Y-51876000D02*
X-51556300Y-51876000D01*
X-51556300Y-51876000D02*
X-51556300Y-41596000D01*
X-72383200Y-35688600D02*
X-70263200Y-35688600D01*
X-72383200Y-30688600D02*
X-70263200Y-30688600D01*
X-72383200Y-35808600D02*
X-70263200Y-35808600D01*
X-70263200Y-31248600D02*
X-70263200Y-30688600D01*
X-70263200Y-33438600D02*
X-70263200Y-32707600D01*
X-70263200Y-35808600D02*
X-70263200Y-35598600D01*
X-72383200Y-31248600D02*
X-72383200Y-30688600D01*
X-72383200Y-33438600D02*
X-72383200Y-32707600D01*
X-72383200Y-35808600D02*
X-72383200Y-35598600D01*
X-62788800Y-86947880D02*
X-62788800Y-87717880D01*
X-62788800Y-95027880D02*
X-62788800Y-94257880D01*
X-64158800Y-87717880D02*
X-64158800Y-94257880D01*
X-61418800Y-87717880D02*
X-64158800Y-87717880D01*
X-61418800Y-94257880D02*
X-61418800Y-87717880D01*
X-64158800Y-94257880D02*
X-61418800Y-94257880D01*
X-63813240Y-83684440D02*
X-61693240Y-83684440D01*
X-63813240Y-78684440D02*
X-61693240Y-78684440D01*
X-63813240Y-83804440D02*
X-61693240Y-83804440D01*
X-61693240Y-79244440D02*
X-61693240Y-78684440D01*
X-61693240Y-81434440D02*
X-61693240Y-80703440D01*
X-61693240Y-83804440D02*
X-61693240Y-83594440D01*
X-63813240Y-79244440D02*
X-63813240Y-78684440D01*
X-63813240Y-81434440D02*
X-63813240Y-80703440D01*
X-63813240Y-83804440D02*
X-63813240Y-83594440D01*
X-67211760Y-83684440D02*
X-65091760Y-83684440D01*
X-67211760Y-78684440D02*
X-65091760Y-78684440D01*
X-67211760Y-83804440D02*
X-65091760Y-83804440D01*
X-65091760Y-79244440D02*
X-65091760Y-78684440D01*
X-65091760Y-81434440D02*
X-65091760Y-80703440D01*
X-65091760Y-83804440D02*
X-65091760Y-83594440D01*
X-67211760Y-79244440D02*
X-67211760Y-78684440D01*
X-67211760Y-81434440D02*
X-67211760Y-80703440D01*
X-67211760Y-83804440D02*
X-67211760Y-83594440D01*
X-70676320Y-83618400D02*
X-68556320Y-83618400D01*
X-70676320Y-78618400D02*
X-68556320Y-78618400D01*
X-70676320Y-83738400D02*
X-68556320Y-83738400D01*
X-68556320Y-79178400D02*
X-68556320Y-78618400D01*
X-68556320Y-81368400D02*
X-68556320Y-80637400D01*
X-68556320Y-83738400D02*
X-68556320Y-83528400D01*
X-70676320Y-79178400D02*
X-70676320Y-78618400D01*
X-70676320Y-81368400D02*
X-70676320Y-80637400D01*
X-70676320Y-83738400D02*
X-70676320Y-83528400D01*
X-60328360Y-83648880D02*
X-58208360Y-83648880D01*
X-60328360Y-78648880D02*
X-58208360Y-78648880D01*
X-60328360Y-83768880D02*
X-58208360Y-83768880D01*
X-58208360Y-79208880D02*
X-58208360Y-78648880D01*
X-58208360Y-81398880D02*
X-58208360Y-80667880D01*
X-58208360Y-83768880D02*
X-58208360Y-83558880D01*
X-60328360Y-79208880D02*
X-60328360Y-78648880D01*
X-60328360Y-81398880D02*
X-60328360Y-80667880D01*
X-60328360Y-83768880D02*
X-60328360Y-83558880D01*
X-51301200Y-35688600D02*
X-49181200Y-35688600D01*
X-51301200Y-30688600D02*
X-49181200Y-30688600D01*
X-51301200Y-35808600D02*
X-49181200Y-35808600D01*
X-49181200Y-31248600D02*
X-49181200Y-30688600D01*
X-49181200Y-33438600D02*
X-49181200Y-32707600D01*
X-49181200Y-35808600D02*
X-49181200Y-35598600D01*
X-51301200Y-31248600D02*
X-51301200Y-30688600D01*
X-51301200Y-33438600D02*
X-51301200Y-32707600D01*
X-51301200Y-35808600D02*
X-51301200Y-35598600D01*
X-54323800Y-35688600D02*
X-52203800Y-35688600D01*
X-54323800Y-30688600D02*
X-52203800Y-30688600D01*
X-54323800Y-35808600D02*
X-52203800Y-35808600D01*
X-52203800Y-31248600D02*
X-52203800Y-30688600D01*
X-52203800Y-33438600D02*
X-52203800Y-32707600D01*
X-52203800Y-35808600D02*
X-52203800Y-35598600D01*
X-54323800Y-31248600D02*
X-54323800Y-30688600D01*
X-54323800Y-33438600D02*
X-54323800Y-32707600D01*
X-54323800Y-35808600D02*
X-54323800Y-35598600D01*
X-57321000Y-35688600D02*
X-55201000Y-35688600D01*
X-57321000Y-30688600D02*
X-55201000Y-30688600D01*
X-57321000Y-35808600D02*
X-55201000Y-35808600D01*
X-55201000Y-31248600D02*
X-55201000Y-30688600D01*
X-55201000Y-33438600D02*
X-55201000Y-32707600D01*
X-55201000Y-35808600D02*
X-55201000Y-35598600D01*
X-57321000Y-31248600D02*
X-57321000Y-30688600D01*
X-57321000Y-33438600D02*
X-57321000Y-32707600D01*
X-57321000Y-35808600D02*
X-57321000Y-35598600D01*
X-60343600Y-35688600D02*
X-58223600Y-35688600D01*
X-60343600Y-30688600D02*
X-58223600Y-30688600D01*
X-60343600Y-35808600D02*
X-58223600Y-35808600D01*
X-58223600Y-31248600D02*
X-58223600Y-30688600D01*
X-58223600Y-33438600D02*
X-58223600Y-32707600D01*
X-58223600Y-35808600D02*
X-58223600Y-35598600D01*
X-60343600Y-31248600D02*
X-60343600Y-30688600D01*
X-60343600Y-33438600D02*
X-60343600Y-32707600D01*
X-60343600Y-35808600D02*
X-60343600Y-35598600D01*
X-63366200Y-35688600D02*
X-61246200Y-35688600D01*
X-63366200Y-30688600D02*
X-61246200Y-30688600D01*
X-63366200Y-35808600D02*
X-61246200Y-35808600D01*
X-61246200Y-31248600D02*
X-61246200Y-30688600D01*
X-61246200Y-33438600D02*
X-61246200Y-32707600D01*
X-61246200Y-35808600D02*
X-61246200Y-35598600D01*
X-63366200Y-31248600D02*
X-63366200Y-30688600D01*
X-63366200Y-33438600D02*
X-63366200Y-32707600D01*
X-63366200Y-35808600D02*
X-63366200Y-35598600D01*
X-66388800Y-35688600D02*
X-64268800Y-35688600D01*
X-66388800Y-30688600D02*
X-64268800Y-30688600D01*
X-66388800Y-35808600D02*
X-64268800Y-35808600D01*
X-64268800Y-31248600D02*
X-64268800Y-30688600D01*
X-64268800Y-33438600D02*
X-64268800Y-32707600D01*
X-64268800Y-35808600D02*
X-64268800Y-35598600D01*
X-66388800Y-31248600D02*
X-66388800Y-30688600D01*
X-66388800Y-33438600D02*
X-66388800Y-32707600D01*
X-66388800Y-35808600D02*
X-66388800Y-35598600D01*
X-69386000Y-35688600D02*
X-67266000Y-35688600D01*
X-69386000Y-30688600D02*
X-67266000Y-30688600D01*
X-69386000Y-35808600D02*
X-67266000Y-35808600D01*
X-67266000Y-31248600D02*
X-67266000Y-30688600D01*
X-67266000Y-33438600D02*
X-67266000Y-32707600D01*
X-67266000Y-35808600D02*
X-67266000Y-35598600D01*
X-69386000Y-31248600D02*
X-69386000Y-30688600D01*
X-69386000Y-33438600D02*
X-69386000Y-32707600D01*
X-69386000Y-35808600D02*
X-69386000Y-35598600D01*
X-56406600Y-25935000D02*
X-54286600Y-25935000D01*
X-56406600Y-20935000D02*
X-54286600Y-20935000D01*
X-56406600Y-26055000D02*
X-54286600Y-26055000D01*
X-54286600Y-21495000D02*
X-54286600Y-20935000D01*
X-54286600Y-23685000D02*
X-54286600Y-22954000D01*
X-54286600Y-26055000D02*
X-54286600Y-25845000D01*
X-56406600Y-21495000D02*
X-56406600Y-20935000D01*
X-56406600Y-23685000D02*
X-56406600Y-22954000D01*
X-56406600Y-26055000D02*
X-56406600Y-25845000D01*
X-63823400Y-25935000D02*
X-61703400Y-25935000D01*
X-63823400Y-20935000D02*
X-61703400Y-20935000D01*
X-63823400Y-26055000D02*
X-61703400Y-26055000D01*
X-61703400Y-21495000D02*
X-61703400Y-20935000D01*
X-61703400Y-23685000D02*
X-61703400Y-22954000D01*
X-61703400Y-26055000D02*
X-61703400Y-25845000D01*
X-63823400Y-21495000D02*
X-63823400Y-20935000D01*
X-63823400Y-23685000D02*
X-63823400Y-22954000D01*
X-63823400Y-26055000D02*
X-63823400Y-25845000D01*
X-67277800Y-25935000D02*
X-65157800Y-25935000D01*
X-67277800Y-20935000D02*
X-65157800Y-20935000D01*
X-67277800Y-26055000D02*
X-65157800Y-26055000D01*
X-65157800Y-21495000D02*
X-65157800Y-20935000D01*
X-65157800Y-23685000D02*
X-65157800Y-22954000D01*
X-65157800Y-26055000D02*
X-65157800Y-25845000D01*
X-67277800Y-21495000D02*
X-67277800Y-20935000D01*
X-67277800Y-23685000D02*
X-67277800Y-22954000D01*
X-67277800Y-26055000D02*
X-67277800Y-25845000D01*
X-77844200Y-35612400D02*
X-75724200Y-35612400D01*
X-77844200Y-30612400D02*
X-75724200Y-30612400D01*
X-77844200Y-35732400D02*
X-75724200Y-35732400D01*
X-75724200Y-31172400D02*
X-75724200Y-30612400D01*
X-75724200Y-33362400D02*
X-75724200Y-32631400D01*
X-75724200Y-35732400D02*
X-75724200Y-35522400D01*
X-77844200Y-31172400D02*
X-77844200Y-30612400D01*
X-77844200Y-33362400D02*
X-77844200Y-32631400D01*
X-77844200Y-35732400D02*
X-77844200Y-35522400D01*
X-80841400Y-35612400D02*
X-78721400Y-35612400D01*
X-80841400Y-30612400D02*
X-78721400Y-30612400D01*
X-80841400Y-35732400D02*
X-78721400Y-35732400D01*
X-78721400Y-31172400D02*
X-78721400Y-30612400D01*
X-78721400Y-33362400D02*
X-78721400Y-32631400D01*
X-78721400Y-35732400D02*
X-78721400Y-35522400D01*
X-80841400Y-31172400D02*
X-80841400Y-30612400D01*
X-80841400Y-33362400D02*
X-80841400Y-32631400D01*
X-80841400Y-35732400D02*
X-80841400Y-35522400D01*
X-83838600Y-35612400D02*
X-81718600Y-35612400D01*
X-83838600Y-30612400D02*
X-81718600Y-30612400D01*
X-83838600Y-35732400D02*
X-81718600Y-35732400D01*
X-81718600Y-31172400D02*
X-81718600Y-30612400D01*
X-81718600Y-33362400D02*
X-81718600Y-32631400D01*
X-81718600Y-35732400D02*
X-81718600Y-35522400D01*
X-83838600Y-31172400D02*
X-83838600Y-30612400D01*
X-83838600Y-33362400D02*
X-83838600Y-32631400D01*
X-83838600Y-35732400D02*
X-83838600Y-35522400D01*
X-86861200Y-35612400D02*
X-84741200Y-35612400D01*
X-86861200Y-30612400D02*
X-84741200Y-30612400D01*
X-86861200Y-35732400D02*
X-84741200Y-35732400D01*
X-84741200Y-31172400D02*
X-84741200Y-30612400D01*
X-84741200Y-33362400D02*
X-84741200Y-32631400D01*
X-84741200Y-35732400D02*
X-84741200Y-35522400D01*
X-86861200Y-31172400D02*
X-86861200Y-30612400D01*
X-86861200Y-33362400D02*
X-86861200Y-32631400D01*
X-86861200Y-35732400D02*
X-86861200Y-35522400D01*
X-89883800Y-35612400D02*
X-87763800Y-35612400D01*
X-89883800Y-30612400D02*
X-87763800Y-30612400D01*
X-89883800Y-35732400D02*
X-87763800Y-35732400D01*
X-87763800Y-31172400D02*
X-87763800Y-30612400D01*
X-87763800Y-33362400D02*
X-87763800Y-32631400D01*
X-87763800Y-35732400D02*
X-87763800Y-35522400D01*
X-89883800Y-31172400D02*
X-89883800Y-30612400D01*
X-89883800Y-33362400D02*
X-89883800Y-32631400D01*
X-89883800Y-35732400D02*
X-89883800Y-35522400D01*
X-92906400Y-35612400D02*
X-90786400Y-35612400D01*
X-92906400Y-30612400D02*
X-90786400Y-30612400D01*
X-92906400Y-35732400D02*
X-90786400Y-35732400D01*
X-90786400Y-31172400D02*
X-90786400Y-30612400D01*
X-90786400Y-33362400D02*
X-90786400Y-32631400D01*
X-90786400Y-35732400D02*
X-90786400Y-35522400D01*
X-92906400Y-31172400D02*
X-92906400Y-30612400D01*
X-92906400Y-33362400D02*
X-92906400Y-32631400D01*
X-92906400Y-35732400D02*
X-92906400Y-35522400D01*
X-95903600Y-35612400D02*
X-93783600Y-35612400D01*
X-95903600Y-30612400D02*
X-93783600Y-30612400D01*
X-95903600Y-35732400D02*
X-93783600Y-35732400D01*
X-93783600Y-31172400D02*
X-93783600Y-30612400D01*
X-93783600Y-33362400D02*
X-93783600Y-32631400D01*
X-93783600Y-35732400D02*
X-93783600Y-35522400D01*
X-95903600Y-31172400D02*
X-95903600Y-30612400D01*
X-95903600Y-33362400D02*
X-95903600Y-32631400D01*
X-95903600Y-35732400D02*
X-95903600Y-35522400D01*
X-98900800Y-35612400D02*
X-96780800Y-35612400D01*
X-98900800Y-30612400D02*
X-96780800Y-30612400D01*
X-98900800Y-35732400D02*
X-96780800Y-35732400D01*
X-96780800Y-31172400D02*
X-96780800Y-30612400D01*
X-96780800Y-33362400D02*
X-96780800Y-32631400D01*
X-96780800Y-35732400D02*
X-96780800Y-35522400D01*
X-98900800Y-31172400D02*
X-98900800Y-30612400D01*
X-98900800Y-33362400D02*
X-98900800Y-32631400D01*
X-98900800Y-35732400D02*
X-98900800Y-35522400D01*
X-82975000Y-25935000D02*
X-80855000Y-25935000D01*
X-82975000Y-20935000D02*
X-80855000Y-20935000D01*
X-82975000Y-26055000D02*
X-80855000Y-26055000D01*
X-80855000Y-21495000D02*
X-80855000Y-20935000D01*
X-80855000Y-23685000D02*
X-80855000Y-22954000D01*
X-80855000Y-26055000D02*
X-80855000Y-25845000D01*
X-82975000Y-21495000D02*
X-82975000Y-20935000D01*
X-82975000Y-23685000D02*
X-82975000Y-22954000D01*
X-82975000Y-26055000D02*
X-82975000Y-25845000D01*
X-90366400Y-25935000D02*
X-88246400Y-25935000D01*
X-90366400Y-20935000D02*
X-88246400Y-20935000D01*
X-90366400Y-26055000D02*
X-88246400Y-26055000D01*
X-88246400Y-21495000D02*
X-88246400Y-20935000D01*
X-88246400Y-23685000D02*
X-88246400Y-22954000D01*
X-88246400Y-26055000D02*
X-88246400Y-25845000D01*
X-90366400Y-21495000D02*
X-90366400Y-20935000D01*
X-90366400Y-23685000D02*
X-90366400Y-22954000D01*
X-90366400Y-26055000D02*
X-90366400Y-25845000D01*
X-93846200Y-25935000D02*
X-91726200Y-25935000D01*
X-93846200Y-20935000D02*
X-91726200Y-20935000D01*
X-93846200Y-26055000D02*
X-91726200Y-26055000D01*
X-91726200Y-21495000D02*
X-91726200Y-20935000D01*
X-91726200Y-23685000D02*
X-91726200Y-22954000D01*
X-91726200Y-26055000D02*
X-91726200Y-25845000D01*
X-93846200Y-21495000D02*
X-93846200Y-20935000D01*
X-93846200Y-23685000D02*
X-93846200Y-22954000D01*
X-93846200Y-26055000D02*
X-93846200Y-25845000D01*
X-104565000Y-35688600D02*
X-102445000Y-35688600D01*
X-104565000Y-30688600D02*
X-102445000Y-30688600D01*
X-104565000Y-35808600D02*
X-102445000Y-35808600D01*
X-102445000Y-31248600D02*
X-102445000Y-30688600D01*
X-102445000Y-33438600D02*
X-102445000Y-32707600D01*
X-102445000Y-35808600D02*
X-102445000Y-35598600D01*
X-104565000Y-31248600D02*
X-104565000Y-30688600D01*
X-104565000Y-33438600D02*
X-104565000Y-32707600D01*
X-104565000Y-35808600D02*
X-104565000Y-35598600D01*
X-107562200Y-35688600D02*
X-105442200Y-35688600D01*
X-107562200Y-30688600D02*
X-105442200Y-30688600D01*
X-107562200Y-35808600D02*
X-105442200Y-35808600D01*
X-105442200Y-31248600D02*
X-105442200Y-30688600D01*
X-105442200Y-33438600D02*
X-105442200Y-32707600D01*
X-105442200Y-35808600D02*
X-105442200Y-35598600D01*
X-107562200Y-31248600D02*
X-107562200Y-30688600D01*
X-107562200Y-33438600D02*
X-107562200Y-32707600D01*
X-107562200Y-35808600D02*
X-107562200Y-35598600D01*
X-110559400Y-35688600D02*
X-108439400Y-35688600D01*
X-110559400Y-30688600D02*
X-108439400Y-30688600D01*
X-110559400Y-35808600D02*
X-108439400Y-35808600D01*
X-108439400Y-31248600D02*
X-108439400Y-30688600D01*
X-108439400Y-33438600D02*
X-108439400Y-32707600D01*
X-108439400Y-35808600D02*
X-108439400Y-35598600D01*
X-110559400Y-31248600D02*
X-110559400Y-30688600D01*
X-110559400Y-33438600D02*
X-110559400Y-32707600D01*
X-110559400Y-35808600D02*
X-110559400Y-35598600D01*
X-113582000Y-35688600D02*
X-111462000Y-35688600D01*
X-113582000Y-30688600D02*
X-111462000Y-30688600D01*
X-113582000Y-35808600D02*
X-111462000Y-35808600D01*
X-111462000Y-31248600D02*
X-111462000Y-30688600D01*
X-111462000Y-33438600D02*
X-111462000Y-32707600D01*
X-111462000Y-35808600D02*
X-111462000Y-35598600D01*
X-113582000Y-31248600D02*
X-113582000Y-30688600D01*
X-113582000Y-33438600D02*
X-113582000Y-32707600D01*
X-113582000Y-35808600D02*
X-113582000Y-35598600D01*
X-116630000Y-35688600D02*
X-114510000Y-35688600D01*
X-116630000Y-30688600D02*
X-114510000Y-30688600D01*
X-116630000Y-35808600D02*
X-114510000Y-35808600D01*
X-114510000Y-31248600D02*
X-114510000Y-30688600D01*
X-114510000Y-33438600D02*
X-114510000Y-32707600D01*
X-114510000Y-35808600D02*
X-114510000Y-35598600D01*
X-116630000Y-31248600D02*
X-116630000Y-30688600D01*
X-116630000Y-33438600D02*
X-116630000Y-32707600D01*
X-116630000Y-35808600D02*
X-116630000Y-35598600D01*
X-119652600Y-35688600D02*
X-117532600Y-35688600D01*
X-119652600Y-30688600D02*
X-117532600Y-30688600D01*
X-119652600Y-35808600D02*
X-117532600Y-35808600D01*
X-117532600Y-31248600D02*
X-117532600Y-30688600D01*
X-117532600Y-33438600D02*
X-117532600Y-32707600D01*
X-117532600Y-35808600D02*
X-117532600Y-35598600D01*
X-119652600Y-31248600D02*
X-119652600Y-30688600D01*
X-119652600Y-33438600D02*
X-119652600Y-32707600D01*
X-119652600Y-35808600D02*
X-119652600Y-35598600D01*
X-122624400Y-35688600D02*
X-120504400Y-35688600D01*
X-122624400Y-30688600D02*
X-120504400Y-30688600D01*
X-122624400Y-35808600D02*
X-120504400Y-35808600D01*
X-120504400Y-31248600D02*
X-120504400Y-30688600D01*
X-120504400Y-33438600D02*
X-120504400Y-32707600D01*
X-120504400Y-35808600D02*
X-120504400Y-35598600D01*
X-122624400Y-31248600D02*
X-122624400Y-30688600D01*
X-122624400Y-33438600D02*
X-122624400Y-32707600D01*
X-122624400Y-35808600D02*
X-122624400Y-35598600D01*
X-125621600Y-35688600D02*
X-123501600Y-35688600D01*
X-125621600Y-30688600D02*
X-123501600Y-30688600D01*
X-125621600Y-35808600D02*
X-123501600Y-35808600D01*
X-123501600Y-31248600D02*
X-123501600Y-30688600D01*
X-123501600Y-33438600D02*
X-123501600Y-32707600D01*
X-123501600Y-35808600D02*
X-123501600Y-35598600D01*
X-125621600Y-31248600D02*
X-125621600Y-30688600D01*
X-125621600Y-33438600D02*
X-125621600Y-32707600D01*
X-125621600Y-35808600D02*
X-125621600Y-35598600D01*
X-109492600Y-25604800D02*
X-107372600Y-25604800D01*
X-109492600Y-20604800D02*
X-107372600Y-20604800D01*
X-109492600Y-25724800D02*
X-107372600Y-25724800D01*
X-107372600Y-21164800D02*
X-107372600Y-20604800D01*
X-107372600Y-23354800D02*
X-107372600Y-22623800D01*
X-107372600Y-25724800D02*
X-107372600Y-25514800D01*
X-109492600Y-21164800D02*
X-109492600Y-20604800D01*
X-109492600Y-23354800D02*
X-109492600Y-22623800D01*
X-109492600Y-25724800D02*
X-109492600Y-25514800D01*
X-116884000Y-25604800D02*
X-114764000Y-25604800D01*
X-116884000Y-20604800D02*
X-114764000Y-20604800D01*
X-116884000Y-25724800D02*
X-114764000Y-25724800D01*
X-114764000Y-21164800D02*
X-114764000Y-20604800D01*
X-114764000Y-23354800D02*
X-114764000Y-22623800D01*
X-114764000Y-25724800D02*
X-114764000Y-25514800D01*
X-116884000Y-21164800D02*
X-116884000Y-20604800D01*
X-116884000Y-23354800D02*
X-116884000Y-22623800D01*
X-116884000Y-25724800D02*
X-116884000Y-25514800D01*
X-120338400Y-25604800D02*
X-118218400Y-25604800D01*
X-120338400Y-20604800D02*
X-118218400Y-20604800D01*
X-120338400Y-25724800D02*
X-118218400Y-25724800D01*
X-118218400Y-21164800D02*
X-118218400Y-20604800D01*
X-118218400Y-23354800D02*
X-118218400Y-22623800D01*
X-118218400Y-25724800D02*
X-118218400Y-25514800D01*
X-120338400Y-21164800D02*
X-120338400Y-20604800D01*
X-120338400Y-23354800D02*
X-120338400Y-22623800D01*
X-120338400Y-25724800D02*
X-120338400Y-25514800D01*
X-131133400Y-35663200D02*
X-129013400Y-35663200D01*
X-131133400Y-30663200D02*
X-129013400Y-30663200D01*
X-131133400Y-35783200D02*
X-129013400Y-35783200D01*
X-129013400Y-31223200D02*
X-129013400Y-30663200D01*
X-129013400Y-33413200D02*
X-129013400Y-32682200D01*
X-129013400Y-35783200D02*
X-129013400Y-35573200D01*
X-131133400Y-31223200D02*
X-131133400Y-30663200D01*
X-131133400Y-33413200D02*
X-131133400Y-32682200D01*
X-131133400Y-35783200D02*
X-131133400Y-35573200D01*
X-134130600Y-35663200D02*
X-132010600Y-35663200D01*
X-134130600Y-30663200D02*
X-132010600Y-30663200D01*
X-134130600Y-35783200D02*
X-132010600Y-35783200D01*
X-132010600Y-31223200D02*
X-132010600Y-30663200D01*
X-132010600Y-33413200D02*
X-132010600Y-32682200D01*
X-132010600Y-35783200D02*
X-132010600Y-35573200D01*
X-134130600Y-31223200D02*
X-134130600Y-30663200D01*
X-134130600Y-33413200D02*
X-134130600Y-32682200D01*
X-134130600Y-35783200D02*
X-134130600Y-35573200D01*
X-137127800Y-35663200D02*
X-135007800Y-35663200D01*
X-137127800Y-30663200D02*
X-135007800Y-30663200D01*
X-137127800Y-35783200D02*
X-135007800Y-35783200D01*
X-135007800Y-31223200D02*
X-135007800Y-30663200D01*
X-135007800Y-33413200D02*
X-135007800Y-32682200D01*
X-135007800Y-35783200D02*
X-135007800Y-35573200D01*
X-137127800Y-31223200D02*
X-137127800Y-30663200D01*
X-137127800Y-33413200D02*
X-137127800Y-32682200D01*
X-137127800Y-35783200D02*
X-137127800Y-35573200D01*
X-140150400Y-35663200D02*
X-138030400Y-35663200D01*
X-140150400Y-30663200D02*
X-138030400Y-30663200D01*
X-140150400Y-35783200D02*
X-138030400Y-35783200D01*
X-138030400Y-31223200D02*
X-138030400Y-30663200D01*
X-138030400Y-33413200D02*
X-138030400Y-32682200D01*
X-138030400Y-35783200D02*
X-138030400Y-35573200D01*
X-140150400Y-31223200D02*
X-140150400Y-30663200D01*
X-140150400Y-33413200D02*
X-140150400Y-32682200D01*
X-140150400Y-35783200D02*
X-140150400Y-35573200D01*
X-143198400Y-35663200D02*
X-141078400Y-35663200D01*
X-143198400Y-30663200D02*
X-141078400Y-30663200D01*
X-143198400Y-35783200D02*
X-141078400Y-35783200D01*
X-141078400Y-31223200D02*
X-141078400Y-30663200D01*
X-141078400Y-33413200D02*
X-141078400Y-32682200D01*
X-141078400Y-35783200D02*
X-141078400Y-35573200D01*
X-143198400Y-31223200D02*
X-143198400Y-30663200D01*
X-143198400Y-33413200D02*
X-143198400Y-32682200D01*
X-143198400Y-35783200D02*
X-143198400Y-35573200D01*
X-146221000Y-35663200D02*
X-144101000Y-35663200D01*
X-146221000Y-30663200D02*
X-144101000Y-30663200D01*
X-146221000Y-35783200D02*
X-144101000Y-35783200D01*
X-144101000Y-31223200D02*
X-144101000Y-30663200D01*
X-144101000Y-33413200D02*
X-144101000Y-32682200D01*
X-144101000Y-35783200D02*
X-144101000Y-35573200D01*
X-146221000Y-31223200D02*
X-146221000Y-30663200D01*
X-146221000Y-33413200D02*
X-146221000Y-32682200D01*
X-146221000Y-35783200D02*
X-146221000Y-35573200D01*
X-149192800Y-35663200D02*
X-147072800Y-35663200D01*
X-149192800Y-30663200D02*
X-147072800Y-30663200D01*
X-149192800Y-35783200D02*
X-147072800Y-35783200D01*
X-147072800Y-31223200D02*
X-147072800Y-30663200D01*
X-147072800Y-33413200D02*
X-147072800Y-32682200D01*
X-147072800Y-35783200D02*
X-147072800Y-35573200D01*
X-149192800Y-31223200D02*
X-149192800Y-30663200D01*
X-149192800Y-33413200D02*
X-149192800Y-32682200D01*
X-149192800Y-35783200D02*
X-149192800Y-35573200D01*
X-152190000Y-35663200D02*
X-150070000Y-35663200D01*
X-152190000Y-30663200D02*
X-150070000Y-30663200D01*
X-152190000Y-35783200D02*
X-150070000Y-35783200D01*
X-150070000Y-31223200D02*
X-150070000Y-30663200D01*
X-150070000Y-33413200D02*
X-150070000Y-32682200D01*
X-150070000Y-35783200D02*
X-150070000Y-35573200D01*
X-152190000Y-31223200D02*
X-152190000Y-30663200D01*
X-152190000Y-33413200D02*
X-152190000Y-32682200D01*
X-152190000Y-35783200D02*
X-152190000Y-35573200D01*
X-136035600Y-25681000D02*
X-133915600Y-25681000D01*
X-136035600Y-20681000D02*
X-133915600Y-20681000D01*
X-136035600Y-25801000D02*
X-133915600Y-25801000D01*
X-133915600Y-21241000D02*
X-133915600Y-20681000D01*
X-133915600Y-23431000D02*
X-133915600Y-22700000D01*
X-133915600Y-25801000D02*
X-133915600Y-25591000D01*
X-136035600Y-21241000D02*
X-136035600Y-20681000D01*
X-136035600Y-23431000D02*
X-136035600Y-22700000D01*
X-136035600Y-25801000D02*
X-136035600Y-25591000D01*
X-143401600Y-25681000D02*
X-141281600Y-25681000D01*
X-143401600Y-20681000D02*
X-141281600Y-20681000D01*
X-143401600Y-25801000D02*
X-141281600Y-25801000D01*
X-141281600Y-21241000D02*
X-141281600Y-20681000D01*
X-141281600Y-23431000D02*
X-141281600Y-22700000D01*
X-141281600Y-25801000D02*
X-141281600Y-25591000D01*
X-143401600Y-21241000D02*
X-143401600Y-20681000D01*
X-143401600Y-23431000D02*
X-143401600Y-22700000D01*
X-143401600Y-25801000D02*
X-143401600Y-25591000D01*
X-146856000Y-25681000D02*
X-144736000Y-25681000D01*
X-146856000Y-20681000D02*
X-144736000Y-20681000D01*
X-146856000Y-25801000D02*
X-144736000Y-25801000D01*
X-144736000Y-21241000D02*
X-144736000Y-20681000D01*
X-144736000Y-23431000D02*
X-144736000Y-22700000D01*
X-144736000Y-25801000D02*
X-144736000Y-25591000D01*
X-146856000Y-21241000D02*
X-146856000Y-20681000D01*
X-146856000Y-23431000D02*
X-146856000Y-22700000D01*
X-146856000Y-25801000D02*
X-146856000Y-25591000D01*
X-75470500Y-49912300D02*
X-75470500Y-48654300D01*
X-77310500Y-49912300D02*
X-77310500Y-48654300D01*
X-75457800Y-61278800D02*
X-75457800Y-60020800D01*
X-77297800Y-61278800D02*
X-77297800Y-60020800D01*
X-72816200Y-61380400D02*
X-72816200Y-60122400D01*
X-74656200Y-61380400D02*
X-74656200Y-60122400D01*
X-102165900Y-49912300D02*
X-102165900Y-48654300D01*
X-104005900Y-49912300D02*
X-104005900Y-48654300D01*
X-128912100Y-61278800D02*
X-128912100Y-60020800D01*
X-130752100Y-61278800D02*
X-130752100Y-60020800D01*
X-48876700Y-49963100D02*
X-48876700Y-48705100D01*
X-50716700Y-49963100D02*
X-50716700Y-48705100D01*
X-102229400Y-61177200D02*
X-102229400Y-59919200D01*
X-104069400Y-61177200D02*
X-104069400Y-59919200D01*
X-129013700Y-49963100D02*
X-129013700Y-48705100D01*
X-130853700Y-49963100D02*
X-130853700Y-48705100D01*
X-152775400Y-61634400D02*
X-152775400Y-60376400D01*
X-154615400Y-61634400D02*
X-154615400Y-60376400D01*
X-99486200Y-61177200D02*
X-99486200Y-59919200D01*
X-101326200Y-61177200D02*
X-101326200Y-59919200D01*
X-126130800Y-61380400D02*
X-126130800Y-60122400D01*
X-127970800Y-61380400D02*
X-127970800Y-60122400D01*
X-48914800Y-61228000D02*
X-48914800Y-59970000D01*
X-50754800Y-61228000D02*
X-50754800Y-59970000D01*
X-94422480Y-76724480D02*
X-94422480Y-77982480D01*
X-92582480Y-76724480D02*
X-92582480Y-77982480D01*
X-117348520Y-76861640D02*
X-117348520Y-78119640D01*
X-115508520Y-76861640D02*
X-115508520Y-78119640D01*
X-97003120Y-88225600D02*
X-97003120Y-89483600D01*
X-95163120Y-88225600D02*
X-95163120Y-89483600D01*
X-152822160Y-76810840D02*
X-152822160Y-78068840D01*
X-150982160Y-76810840D02*
X-150982160Y-78068840D01*
X-122433600Y-87895400D02*
X-122433600Y-89153400D01*
X-120593600Y-87895400D02*
X-120593600Y-89153400D01*
X-153040600Y-88124000D02*
X-153040600Y-89382000D01*
X-151200600Y-88124000D02*
X-151200600Y-89382000D01*
X-52441800Y-104616560D02*
X-52441800Y-101956560D01*
X-146481800Y-104616560D02*
X-52441800Y-104616560D01*
X-146481800Y-101956560D02*
X-52441800Y-101956560D01*
X-146481800Y-104616560D02*
X-146481800Y-101956560D01*
X-147751800Y-104616560D02*
X-149081800Y-104616560D01*
X-149081800Y-104616560D02*
X-149081800Y-103286560D01*
X-55686000Y-93856500D02*
X-55686000Y-96516500D01*
X-50546000Y-93856500D02*
X-55686000Y-93856500D01*
X-50546000Y-96516500D02*
X-55686000Y-96516500D01*
X-50546000Y-93856500D02*
X-50546000Y-96516500D01*
X-49276000Y-93856500D02*
X-47946000Y-93856500D01*
X-47946000Y-93856500D02*
X-47946000Y-95186500D01*
X-47946000Y-88166900D02*
X-47946000Y-89496900D01*
X-49276000Y-88166900D02*
X-47946000Y-88166900D01*
X-50546000Y-88166900D02*
X-50546000Y-90826900D01*
X-50546000Y-90826900D02*
X-55686000Y-90826900D01*
X-50546000Y-88166900D02*
X-55686000Y-88166900D01*
X-55686000Y-88166900D02*
X-55686000Y-90826900D01*
X-60638360Y-94268040D02*
X-57898360Y-94268040D01*
X-57898360Y-94268040D02*
X-57898360Y-87728040D01*
X-57898360Y-87728040D02*
X-60638360Y-87728040D01*
X-60638360Y-87728040D02*
X-60638360Y-94268040D01*
X-59268360Y-95038040D02*
X-59268360Y-94268040D01*
X-59268360Y-86958040D02*
X-59268360Y-87728040D01*
X-69778880Y-86947880D02*
X-69778880Y-87717880D01*
X-69778880Y-95027880D02*
X-69778880Y-94257880D01*
X-71148880Y-87717880D02*
X-71148880Y-94257880D01*
X-68408880Y-87717880D02*
X-71148880Y-87717880D01*
X-68408880Y-94257880D02*
X-68408880Y-87717880D01*
X-71148880Y-94257880D02*
X-68408880Y-94257880D01*
X-67587800Y-94257880D02*
X-64847800Y-94257880D01*
X-64847800Y-94257880D02*
X-64847800Y-87717880D01*
X-64847800Y-87717880D02*
X-67587800Y-87717880D01*
X-67587800Y-87717880D02*
X-67587800Y-94257880D01*
X-66217800Y-95027880D02*
X-66217800Y-94257880D01*
X-66217800Y-86947880D02*
X-66217800Y-87717880D01*
X-131719320Y-39479680D02*
X-131719320Y-36679680D01*
X-152209320Y-39479680D02*
X-129009320Y-39479680D01*
X-152209320Y-36679680D02*
X-152209320Y-39479680D01*
X-129009320Y-36679680D02*
X-152209320Y-36679680D01*
X-129009320Y-39479680D02*
X-129009320Y-36679680D01*
X-107343120Y-29527960D02*
X-107343120Y-26727960D01*
X-107343120Y-26727960D02*
X-120383120Y-26727960D01*
X-120383120Y-26727960D02*
X-120383120Y-29527960D01*
X-120383120Y-29527960D02*
X-107343120Y-29527960D01*
X-110053120Y-29527960D02*
X-110053120Y-26727960D01*
X-102400280Y-39418720D02*
X-102400280Y-36618720D01*
X-102400280Y-36618720D02*
X-125600280Y-36618720D01*
X-125600280Y-36618720D02*
X-125600280Y-39418720D01*
X-125600280Y-39418720D02*
X-102400280Y-39418720D01*
X-105110280Y-39418720D02*
X-105110280Y-36618720D01*
X-83439000Y-29680360D02*
X-83439000Y-26880360D01*
X-93769000Y-29680360D02*
X-80729000Y-29680360D01*
X-93769000Y-26880360D02*
X-93769000Y-29680360D01*
X-80729000Y-26880360D02*
X-93769000Y-26880360D01*
X-80729000Y-29680360D02*
X-80729000Y-26880360D01*
X-78450440Y-39474600D02*
X-78450440Y-36674600D01*
X-98940440Y-39474600D02*
X-75740440Y-39474600D01*
X-98940440Y-36674600D02*
X-98940440Y-39474600D01*
X-75740440Y-36674600D02*
X-98940440Y-36674600D01*
X-75740440Y-39474600D02*
X-75740440Y-36674600D01*
X-54328240Y-29649880D02*
X-54328240Y-26849880D01*
X-54328240Y-26849880D02*
X-67368240Y-26849880D01*
X-67368240Y-26849880D02*
X-67368240Y-29649880D01*
X-67368240Y-29649880D02*
X-54328240Y-29649880D01*
X-57038240Y-29649880D02*
X-57038240Y-26849880D01*
X-49187280Y-39388240D02*
X-49187280Y-36588240D01*
X-49187280Y-36588240D02*
X-72387280Y-36588240D01*
X-72387280Y-36588240D02*
X-72387280Y-39388240D01*
X-72387280Y-39388240D02*
X-49187280Y-39388240D01*
X-51897280Y-39388240D02*
X-51897280Y-36588240D01*
X-150250200Y-90617800D02*
G75*
G02X-150250200Y-92617800I0J-1000000D01*
G01*
X-150250200Y-92617800D02*
X-150250200Y-94267800D01*
X-150250200Y-94267800D02*
X-124730200Y-94267800D01*
X-124730200Y-94267800D02*
X-124730200Y-88967800D01*
X-124730200Y-88967800D02*
X-150250200Y-88967800D01*
X-150250200Y-88967800D02*
X-150250200Y-90617800D01*
X-150310200Y-96757800D02*
X-124670200Y-96757800D01*
X-124670200Y-96757800D02*
X-124670200Y-86477800D01*
X-124670200Y-86477800D02*
X-150310200Y-86477800D01*
X-150310200Y-86477800D02*
X-150310200Y-96757800D01*
X-114614000Y-79472280D02*
G75*
G02X-114614000Y-81472280I0J-1000000D01*
G01*
X-114614000Y-81472280D02*
X-114614000Y-83122280D01*
X-114614000Y-83122280D02*
X-96714000Y-83122280D01*
X-96714000Y-83122280D02*
X-96714000Y-77822280D01*
X-96714000Y-77822280D02*
X-114614000Y-77822280D01*
X-114614000Y-77822280D02*
X-114614000Y-79472280D01*
X-114674000Y-85612280D02*
X-96654000Y-85612280D01*
X-96654000Y-85612280D02*
X-96654000Y-75332280D01*
X-96654000Y-75332280D02*
X-114674000Y-75332280D01*
X-114674000Y-75332280D02*
X-114674000Y-85612280D01*
X-91758120Y-75235760D02*
X-91758120Y-85515760D01*
X-73738120Y-75235760D02*
X-91758120Y-75235760D01*
X-73738120Y-85515760D02*
X-73738120Y-75235760D01*
X-91758120Y-85515760D02*
X-73738120Y-85515760D01*
X-91698120Y-77725760D02*
X-91698120Y-79375760D01*
X-73798120Y-77725760D02*
X-91698120Y-77725760D01*
X-73798120Y-83025760D02*
X-73798120Y-77725760D01*
X-91698120Y-83025760D02*
X-73798120Y-83025760D01*
X-91698120Y-81375760D02*
X-91698120Y-83025760D01*
X-91698120Y-79375760D02*
G75*
G02X-91698120Y-81375760I0J-1000000D01*
G01*
X-119931800Y-86579400D02*
X-119931800Y-96859400D01*
X-99371800Y-86579400D02*
X-119931800Y-86579400D01*
X-99371800Y-96859400D02*
X-99371800Y-86579400D01*
X-119931800Y-96859400D02*
X-99371800Y-96859400D01*
X-119871800Y-89069400D02*
X-119871800Y-90719400D01*
X-99431800Y-89069400D02*
X-119871800Y-89069400D01*
X-99431800Y-94369400D02*
X-99431800Y-89069400D01*
X-119871800Y-94369400D02*
X-99431800Y-94369400D01*
X-119871800Y-92719400D02*
X-119871800Y-94369400D01*
X-119871800Y-90719400D02*
G75*
G02X-119871800Y-92719400I0J-1000000D01*
G01*
X-94167000Y-90821000D02*
G75*
G02X-94167000Y-92821000I0J-1000000D01*
G01*
X-94167000Y-92821000D02*
X-94167000Y-94471000D01*
X-94167000Y-94471000D02*
X-73727000Y-94471000D01*
X-73727000Y-94471000D02*
X-73727000Y-89171000D01*
X-73727000Y-89171000D02*
X-94167000Y-89171000D01*
X-94167000Y-89171000D02*
X-94167000Y-90821000D01*
X-94227000Y-96961000D02*
X-73667000Y-96961000D01*
X-73667000Y-96961000D02*
X-73667000Y-86681000D01*
X-73667000Y-86681000D02*
X-94227000Y-86681000D01*
X-94227000Y-86681000D02*
X-94227000Y-96961000D01*
X-131540900Y-63140900D02*
X-131540900Y-52860900D01*
X-152100900Y-63140900D02*
X-131540900Y-63140900D01*
X-152100900Y-52860900D02*
X-152100900Y-63140900D01*
X-131540900Y-52860900D02*
X-152100900Y-52860900D01*
X-131600900Y-60650900D02*
X-131600900Y-59000900D01*
X-152040900Y-60650900D02*
X-131600900Y-60650900D01*
X-152040900Y-55350900D02*
X-152040900Y-60650900D01*
X-131600900Y-55350900D02*
X-152040900Y-55350900D01*
X-131600900Y-57000900D02*
X-131600900Y-55350900D01*
X-131600900Y-59000900D02*
G75*
G02X-131600900Y-57000900I0J1000000D01*
G01*
X-131528200Y-51888700D02*
X-131528200Y-41608700D01*
X-152088200Y-51888700D02*
X-131528200Y-51888700D01*
X-152088200Y-41608700D02*
X-152088200Y-51888700D01*
X-131528200Y-41608700D02*
X-152088200Y-41608700D01*
X-131588200Y-49398700D02*
X-131588200Y-47748700D01*
X-152028200Y-49398700D02*
X-131588200Y-49398700D01*
X-152028200Y-44098700D02*
X-152028200Y-49398700D01*
X-131588200Y-44098700D02*
X-152028200Y-44098700D01*
X-131588200Y-45748700D02*
X-131588200Y-44098700D01*
X-131588200Y-47748700D02*
G75*
G02X-131588200Y-45748700I0J1000000D01*
G01*
X-154238000Y-68215000D02*
G75*
G02X-154238000Y-70215000I0J-1000000D01*
G01*
X-154238000Y-70215000D02*
X-154238000Y-71865000D01*
X-154238000Y-71865000D02*
X-128718000Y-71865000D01*
X-128718000Y-71865000D02*
X-128718000Y-66565000D01*
X-128718000Y-66565000D02*
X-154238000Y-66565000D01*
X-154238000Y-66565000D02*
X-154238000Y-68215000D01*
X-154298000Y-74355000D02*
X-128658000Y-74355000D01*
X-128658000Y-74355000D02*
X-128658000Y-64075000D01*
X-128658000Y-64075000D02*
X-154298000Y-64075000D01*
X-154298000Y-64075000D02*
X-154298000Y-74355000D01*
X-104892800Y-58950100D02*
G75*
G02X-104892800Y-56950100I0J1000000D01*
G01*
X-104892800Y-56950100D02*
X-104892800Y-55300100D01*
X-104892800Y-55300100D02*
X-125332800Y-55300100D01*
X-125332800Y-55300100D02*
X-125332800Y-60600100D01*
X-125332800Y-60600100D02*
X-104892800Y-60600100D01*
X-104892800Y-60600100D02*
X-104892800Y-58950100D01*
X-104832800Y-52810100D02*
X-125392800Y-52810100D01*
X-125392800Y-52810100D02*
X-125392800Y-63090100D01*
X-125392800Y-63090100D02*
X-104832800Y-63090100D01*
X-104832800Y-63090100D02*
X-104832800Y-52810100D01*
X-104943600Y-47748700D02*
G75*
G02X-104943600Y-45748700I0J1000000D01*
G01*
X-104943600Y-45748700D02*
X-104943600Y-44098700D01*
X-104943600Y-44098700D02*
X-125383600Y-44098700D01*
X-125383600Y-44098700D02*
X-125383600Y-49398700D01*
X-125383600Y-49398700D02*
X-104943600Y-49398700D01*
X-104943600Y-49398700D02*
X-104943600Y-47748700D01*
X-104883600Y-41608700D02*
X-125443600Y-41608700D01*
X-125443600Y-41608700D02*
X-125443600Y-51888700D01*
X-125443600Y-51888700D02*
X-104883600Y-51888700D01*
X-104883600Y-51888700D02*
X-104883600Y-41608700D01*
X-127755000Y-64075000D02*
X-127755000Y-74355000D01*
X-102115000Y-64075000D02*
X-127755000Y-64075000D01*
X-102115000Y-74355000D02*
X-102115000Y-64075000D01*
X-127755000Y-74355000D02*
X-102115000Y-74355000D01*
X-127695000Y-66565000D02*
X-127695000Y-68215000D01*
X-102175000Y-66565000D02*
X-127695000Y-66565000D01*
X-102175000Y-71865000D02*
X-102175000Y-66565000D01*
X-127695000Y-71865000D02*
X-102175000Y-71865000D01*
X-127695000Y-70215000D02*
X-127695000Y-71865000D01*
X-127695000Y-68215000D02*
G75*
G02X-127695000Y-70215000I0J-1000000D01*
G01*
X-78099300Y-63140900D02*
X-78099300Y-52860900D01*
X-98659300Y-63140900D02*
X-78099300Y-63140900D01*
X-98659300Y-52860900D02*
X-98659300Y-63140900D01*
X-78099300Y-52860900D02*
X-98659300Y-52860900D01*
X-78159300Y-60650900D02*
X-78159300Y-59000900D01*
X-98599300Y-60650900D02*
X-78159300Y-60650900D01*
X-98599300Y-55350900D02*
X-98599300Y-60650900D01*
X-78159300Y-55350900D02*
X-98599300Y-55350900D01*
X-78159300Y-57000900D02*
X-78159300Y-55350900D01*
X-78159300Y-59000900D02*
G75*
G02X-78159300Y-57000900I0J1000000D01*
G01*
X-78197400Y-47685200D02*
G75*
G02X-78197400Y-45685200I0J1000000D01*
G01*
X-78197400Y-45685200D02*
X-78197400Y-44035200D01*
X-78197400Y-44035200D02*
X-98637400Y-44035200D01*
X-98637400Y-44035200D02*
X-98637400Y-49335200D01*
X-98637400Y-49335200D02*
X-78197400Y-49335200D01*
X-78197400Y-49335200D02*
X-78197400Y-47685200D01*
X-78137400Y-41545200D02*
X-98697400Y-41545200D01*
X-98697400Y-41545200D02*
X-98697400Y-51825200D01*
X-98697400Y-51825200D02*
X-78137400Y-51825200D01*
X-78137400Y-51825200D02*
X-78137400Y-41545200D01*
X-101152000Y-68215000D02*
G75*
G02X-101152000Y-70215000I0J-1000000D01*
G01*
X-101152000Y-70215000D02*
X-101152000Y-71865000D01*
X-101152000Y-71865000D02*
X-75632000Y-71865000D01*
X-75632000Y-71865000D02*
X-75632000Y-66565000D01*
X-75632000Y-66565000D02*
X-101152000Y-66565000D01*
X-101152000Y-66565000D02*
X-101152000Y-68215000D01*
X-101212000Y-74355000D02*
X-75572000Y-74355000D01*
X-75572000Y-74355000D02*
X-75572000Y-64075000D01*
X-75572000Y-64075000D02*
X-101212000Y-64075000D01*
X-101212000Y-64075000D02*
X-101212000Y-74355000D01*
D11*
X-137844801Y-79921480D02*
X-137940040Y-79873860D01*
X-138082897Y-79873860D01*
X-138225754Y-79921480D01*
X-138320992Y-80016718D01*
X-138368611Y-80111956D01*
X-138416230Y-80302432D01*
X-138416230Y-80445289D01*
X-138368611Y-80635765D01*
X-138320992Y-80731003D01*
X-138225754Y-80826241D01*
X-138082897Y-80873860D01*
X-137987659Y-80873860D01*
X-137844801Y-80826241D01*
X-137797182Y-80778622D01*
X-137797182Y-80445289D01*
X-137987659Y-80445289D01*
X-137416230Y-80588146D02*
X-136940040Y-80588146D01*
X-137511468Y-80873860D02*
X-137178135Y-79873860D01*
X-136844801Y-80873860D01*
X-136035278Y-80873860D02*
X-136511468Y-80873860D01*
X-136511468Y-79873860D01*
X-135749563Y-79969099D02*
X-135701944Y-79921480D01*
X-135606706Y-79873860D01*
X-135368611Y-79873860D01*
X-135273373Y-79921480D01*
X-135225754Y-79969099D01*
X-135178135Y-80064337D01*
X-135178135Y-80159575D01*
X-135225754Y-80302432D01*
X-135797182Y-80873860D01*
X-135178135Y-80873860D01*
X-134797182Y-79969099D02*
X-134749563Y-79921480D01*
X-134654325Y-79873860D01*
X-134416230Y-79873860D01*
X-134320992Y-79921480D01*
X-134273373Y-79969099D01*
X-134225754Y-80064337D01*
X-134225754Y-80159575D01*
X-134273373Y-80302432D01*
X-134844801Y-80873860D01*
X-134225754Y-80873860D01*
X-133940039Y-79873860D02*
X-133606706Y-80873860D01*
X-133273373Y-79873860D01*
X-132416230Y-80873860D02*
X-132987659Y-80873860D01*
X-132701944Y-80873860D02*
X-132701944Y-79873860D01*
X-132797182Y-80016718D01*
X-132892420Y-80111956D01*
X-132987659Y-80159575D01*
X-131797182Y-79873860D02*
X-131701944Y-79873860D01*
X-131606706Y-79921480D01*
X-131559087Y-79969099D01*
X-131511468Y-80064337D01*
X-131463849Y-80254813D01*
X-131463849Y-80492908D01*
X-131511468Y-80683384D01*
X-131559087Y-80778622D01*
X-131606706Y-80826241D01*
X-131701944Y-80873860D01*
X-131797182Y-80873860D01*
X-131892420Y-80826241D01*
X-131940039Y-80778622D01*
X-131987659Y-80683384D01*
X-132035278Y-80492908D01*
X-132035278Y-80254813D01*
X-131987659Y-80064337D01*
X-131940039Y-79969099D01*
X-131892420Y-79921480D01*
X-131797182Y-79873860D01*
X-132660045Y-29644173D02*
X-131993379Y-29644173D01*
X-133040998Y-29882268D02*
X-132326712Y-30120363D01*
X-132326712Y-29501316D01*
X-132993379Y-29215601D02*
X-132993379Y-28548935D01*
X-131993379Y-28977506D01*
X-132993379Y-27977506D02*
X-132993379Y-27882268D01*
X-132945760Y-27787030D01*
X-132898140Y-27739411D01*
X-132802902Y-27691792D01*
X-132612426Y-27644173D01*
X-132374331Y-27644173D01*
X-132183855Y-27691792D01*
X-132088617Y-27739411D01*
X-132040998Y-27787030D01*
X-131993379Y-27882268D01*
X-131993379Y-27977506D01*
X-132040998Y-28072744D01*
X-132088617Y-28120363D01*
X-132183855Y-28167982D01*
X-132374331Y-28215601D01*
X-132612426Y-28215601D01*
X-132802902Y-28167982D01*
X-132898140Y-28120363D01*
X-132945760Y-28072744D01*
X-132993379Y-27977506D01*
X-131993379Y-27263220D02*
X-131993379Y-27025125D01*
X-132183855Y-27025125D01*
X-132231474Y-27120363D01*
X-132326712Y-27215601D01*
X-132469569Y-27263220D01*
X-132707664Y-27263220D01*
X-132850521Y-27215601D01*
X-132945760Y-27120363D01*
X-132993379Y-26977506D01*
X-132993379Y-26787030D01*
X-132945760Y-26644173D01*
X-132850521Y-26548935D01*
X-132707664Y-26501316D01*
X-132469569Y-26501316D01*
X-132326712Y-26548935D01*
X-132231474Y-26644173D01*
X-132183855Y-26739411D01*
X-131993379Y-26739411D01*
X-131993379Y-26501316D01*
X-64891847Y-57351680D02*
X-64225180Y-57351680D01*
X-64653752Y-58351680D01*
X-63415657Y-57685014D02*
X-63415657Y-58351680D01*
X-63653752Y-57304061D02*
X-63891847Y-58018347D01*
X-63272800Y-58018347D01*
X-62415657Y-58351680D02*
X-62891847Y-58351680D01*
X-62891847Y-57351680D01*
X-62129942Y-58304061D02*
X-61987085Y-58351680D01*
X-61748990Y-58351680D01*
X-61653752Y-58304061D01*
X-61606133Y-58256442D01*
X-61558514Y-58161204D01*
X-61558514Y-58065966D01*
X-61606133Y-57970728D01*
X-61653752Y-57923109D01*
X-61748990Y-57875490D01*
X-61939466Y-57827871D01*
X-62034704Y-57780252D01*
X-62082323Y-57732633D01*
X-62129942Y-57637395D01*
X-62129942Y-57542157D01*
X-62082323Y-57446919D01*
X-62034704Y-57399300D01*
X-61939466Y-57351680D01*
X-61701371Y-57351680D01*
X-61558514Y-57399300D01*
X-60606133Y-58351680D02*
X-61177561Y-58351680D01*
X-60891847Y-58351680D02*
X-60891847Y-57351680D01*
X-60987085Y-57494538D01*
X-61082323Y-57589776D01*
X-61177561Y-57637395D01*
X-59748990Y-57351680D02*
X-59939466Y-57351680D01*
X-60034704Y-57399300D01*
X-60082323Y-57446919D01*
X-60177561Y-57589776D01*
X-60225180Y-57780252D01*
X-60225180Y-58161204D01*
X-60177561Y-58256442D01*
X-60129942Y-58304061D01*
X-60034704Y-58351680D01*
X-59844228Y-58351680D01*
X-59748990Y-58304061D01*
X-59701371Y-58256442D01*
X-59653752Y-58161204D01*
X-59653752Y-57923109D01*
X-59701371Y-57827871D01*
X-59748990Y-57780252D01*
X-59844228Y-57732633D01*
X-60034704Y-57732633D01*
X-60129942Y-57780252D01*
X-60177561Y-57827871D01*
X-60225180Y-57923109D01*
X-59177561Y-58351680D02*
X-58987085Y-58351680D01*
X-58891847Y-58304061D01*
X-58844228Y-58256442D01*
X-58748990Y-58113585D01*
X-58701371Y-57923109D01*
X-58701371Y-57542157D01*
X-58748990Y-57446919D01*
X-58796609Y-57399300D01*
X-58891847Y-57351680D01*
X-59082323Y-57351680D01*
X-59177561Y-57399300D01*
X-59225180Y-57446919D01*
X-59272800Y-57542157D01*
X-59272800Y-57780252D01*
X-59225180Y-57875490D01*
X-59177561Y-57923109D01*
X-59082323Y-57970728D01*
X-58891847Y-57970728D01*
X-58796609Y-57923109D01*
X-58748990Y-57875490D01*
X-58701371Y-57780252D01*
X-64917247Y-68616580D02*
X-64250580Y-68616580D01*
X-64679152Y-69616580D01*
X-63441057Y-68949914D02*
X-63441057Y-69616580D01*
X-63679152Y-68568961D02*
X-63917247Y-69283247D01*
X-63298200Y-69283247D01*
X-62441057Y-69616580D02*
X-62917247Y-69616580D01*
X-62917247Y-68616580D01*
X-62155342Y-69568961D02*
X-62012485Y-69616580D01*
X-61774390Y-69616580D01*
X-61679152Y-69568961D01*
X-61631533Y-69521342D01*
X-61583914Y-69426104D01*
X-61583914Y-69330866D01*
X-61631533Y-69235628D01*
X-61679152Y-69188009D01*
X-61774390Y-69140390D01*
X-61964866Y-69092771D01*
X-62060104Y-69045152D01*
X-62107723Y-68997533D01*
X-62155342Y-68902295D01*
X-62155342Y-68807057D01*
X-62107723Y-68711819D01*
X-62060104Y-68664200D01*
X-61964866Y-68616580D01*
X-61726771Y-68616580D01*
X-61583914Y-68664200D01*
X-60679152Y-68616580D02*
X-61155342Y-68616580D01*
X-61202961Y-69092771D01*
X-61155342Y-69045152D01*
X-61060104Y-68997533D01*
X-60822009Y-68997533D01*
X-60726771Y-69045152D01*
X-60679152Y-69092771D01*
X-60631533Y-69188009D01*
X-60631533Y-69426104D01*
X-60679152Y-69521342D01*
X-60726771Y-69568961D01*
X-60822009Y-69616580D01*
X-61060104Y-69616580D01*
X-61155342Y-69568961D01*
X-61202961Y-69521342D01*
X-59774390Y-68949914D02*
X-59774390Y-69616580D01*
X-60012485Y-68568961D02*
X-60250580Y-69283247D01*
X-59631533Y-69283247D01*
X-58726771Y-69616580D02*
X-59298200Y-69616580D01*
X-59012485Y-69616580D02*
X-59012485Y-68616580D01*
X-59107723Y-68759438D01*
X-59202961Y-68854676D01*
X-59298200Y-68902295D01*
X-65260147Y-46340780D02*
X-64593480Y-46340780D01*
X-65022052Y-47340780D01*
X-63783957Y-46674114D02*
X-63783957Y-47340780D01*
X-64022052Y-46293161D02*
X-64260147Y-47007447D01*
X-63641100Y-47007447D01*
X-62783957Y-47340780D02*
X-63260147Y-47340780D01*
X-63260147Y-46340780D01*
X-62498242Y-47293161D02*
X-62355385Y-47340780D01*
X-62117290Y-47340780D01*
X-62022052Y-47293161D01*
X-61974433Y-47245542D01*
X-61926814Y-47150304D01*
X-61926814Y-47055066D01*
X-61974433Y-46959828D01*
X-62022052Y-46912209D01*
X-62117290Y-46864590D01*
X-62307766Y-46816971D01*
X-62403004Y-46769352D01*
X-62450623Y-46721733D01*
X-62498242Y-46626495D01*
X-62498242Y-46531257D01*
X-62450623Y-46436019D01*
X-62403004Y-46388400D01*
X-62307766Y-46340780D01*
X-62069671Y-46340780D01*
X-61926814Y-46388400D01*
X-60974433Y-47340780D02*
X-61545861Y-47340780D01*
X-61260147Y-47340780D02*
X-61260147Y-46340780D01*
X-61355385Y-46483638D01*
X-61450623Y-46578876D01*
X-61545861Y-46626495D01*
X-60117290Y-46340780D02*
X-60307766Y-46340780D01*
X-60403004Y-46388400D01*
X-60450623Y-46436019D01*
X-60545861Y-46578876D01*
X-60593480Y-46769352D01*
X-60593480Y-47150304D01*
X-60545861Y-47245542D01*
X-60498242Y-47293161D01*
X-60403004Y-47340780D01*
X-60212528Y-47340780D01*
X-60117290Y-47293161D01*
X-60069671Y-47245542D01*
X-60022052Y-47150304D01*
X-60022052Y-46912209D01*
X-60069671Y-46816971D01*
X-60117290Y-46769352D01*
X-60212528Y-46721733D01*
X-60403004Y-46721733D01*
X-60498242Y-46769352D01*
X-60545861Y-46816971D01*
X-60593480Y-46912209D01*
X-59545861Y-47340780D02*
X-59355385Y-47340780D01*
X-59260147Y-47293161D01*
X-59212528Y-47245542D01*
X-59117290Y-47102685D01*
X-59069671Y-46912209D01*
X-59069671Y-46531257D01*
X-59117290Y-46436019D01*
X-59164909Y-46388400D01*
X-59260147Y-46340780D01*
X-59450623Y-46340780D01*
X-59545861Y-46388400D01*
X-59593480Y-46436019D01*
X-59641100Y-46531257D01*
X-59641100Y-46769352D01*
X-59593480Y-46864590D01*
X-59545861Y-46912209D01*
X-59450623Y-46959828D01*
X-59260147Y-46959828D01*
X-59164909Y-46912209D01*
X-59117290Y-46864590D01*
X-59069671Y-46769352D01*
X-62972605Y-92356773D02*
X-62305939Y-92356773D01*
X-63353558Y-92594868D02*
X-62639272Y-92832963D01*
X-62639272Y-92213916D01*
X-63305939Y-91928201D02*
X-63305939Y-91261535D01*
X-62305939Y-91690106D01*
X-63305939Y-90690106D02*
X-63305939Y-90594868D01*
X-63258320Y-90499630D01*
X-63210700Y-90452011D01*
X-63115462Y-90404392D01*
X-62924986Y-90356773D01*
X-62686891Y-90356773D01*
X-62496415Y-90404392D01*
X-62401177Y-90452011D01*
X-62353558Y-90499630D01*
X-62305939Y-90594868D01*
X-62305939Y-90690106D01*
X-62353558Y-90785344D01*
X-62401177Y-90832963D01*
X-62496415Y-90880582D01*
X-62686891Y-90928201D01*
X-62924986Y-90928201D01*
X-63115462Y-90880582D01*
X-63210700Y-90832963D01*
X-63258320Y-90785344D01*
X-63305939Y-90690106D01*
X-62305939Y-89975820D02*
X-62305939Y-89737725D01*
X-62496415Y-89737725D01*
X-62544034Y-89832963D01*
X-62639272Y-89928201D01*
X-62782129Y-89975820D01*
X-63020224Y-89975820D01*
X-63163081Y-89928201D01*
X-63258320Y-89832963D01*
X-63305939Y-89690106D01*
X-63305939Y-89499630D01*
X-63258320Y-89356773D01*
X-63163081Y-89261535D01*
X-63020224Y-89213916D01*
X-62782129Y-89213916D01*
X-62639272Y-89261535D01*
X-62544034Y-89356773D01*
X-62496415Y-89452011D01*
X-62305939Y-89452011D01*
X-62305939Y-89213916D01*
X-63574514Y-76983340D02*
X-63574514Y-77792864D01*
X-63526895Y-77888102D01*
X-63479276Y-77935721D01*
X-63384038Y-77983340D01*
X-63193561Y-77983340D01*
X-63098323Y-77935721D01*
X-63050704Y-77888102D01*
X-63003085Y-77792864D01*
X-63003085Y-76983340D01*
X-62764990Y-76615960D02*
X-61764990Y-76615960D01*
X-62526895Y-77983340D02*
X-62526895Y-76983340D01*
X-62288800Y-76983340D01*
X-62145942Y-77030960D01*
X-62050704Y-77126198D01*
X-62003085Y-77221436D01*
X-61955466Y-77411912D01*
X-61955466Y-77554769D01*
X-62003085Y-77745245D01*
X-62050704Y-77840483D01*
X-62145942Y-77935721D01*
X-62288800Y-77983340D01*
X-62526895Y-77983340D01*
X-67493662Y-76615960D02*
X-66493662Y-76615960D01*
X-66684139Y-77983340D02*
X-67017472Y-77507150D01*
X-67255567Y-77983340D02*
X-67255567Y-76983340D01*
X-66874615Y-76983340D01*
X-66779377Y-77030960D01*
X-66731758Y-77078579D01*
X-66684139Y-77173817D01*
X-66684139Y-77316674D01*
X-66731758Y-77411912D01*
X-66779377Y-77459531D01*
X-66874615Y-77507150D01*
X-67255567Y-77507150D01*
X-66493662Y-76615960D02*
X-65541281Y-76615960D01*
X-66303186Y-77935721D02*
X-66160329Y-77983340D01*
X-65922234Y-77983340D01*
X-65826996Y-77935721D01*
X-65779377Y-77888102D01*
X-65731758Y-77792864D01*
X-65731758Y-77697626D01*
X-65779377Y-77602388D01*
X-65826996Y-77554769D01*
X-65922234Y-77507150D01*
X-66112710Y-77459531D01*
X-66207948Y-77411912D01*
X-66255567Y-77364293D01*
X-66303186Y-77269055D01*
X-66303186Y-77173817D01*
X-66255567Y-77078579D01*
X-66207948Y-77030960D01*
X-66112710Y-76983340D01*
X-65874615Y-76983340D01*
X-65731758Y-77030960D01*
X-65541281Y-76615960D02*
X-64779377Y-76615960D01*
X-65446043Y-76983340D02*
X-64874615Y-76983340D01*
X-65160329Y-77983340D02*
X-65160329Y-76983340D01*
X-71173790Y-76600720D02*
X-70173790Y-76600720D01*
X-70602361Y-77444291D02*
X-70459504Y-77491910D01*
X-70411885Y-77539529D01*
X-70364266Y-77634767D01*
X-70364266Y-77777624D01*
X-70411885Y-77872862D01*
X-70459504Y-77920481D01*
X-70554742Y-77968100D01*
X-70935695Y-77968100D01*
X-70935695Y-76968100D01*
X-70602361Y-76968100D01*
X-70507123Y-77015720D01*
X-70459504Y-77063339D01*
X-70411885Y-77158577D01*
X-70411885Y-77253815D01*
X-70459504Y-77349053D01*
X-70507123Y-77396672D01*
X-70602361Y-77444291D01*
X-70935695Y-77444291D01*
X-70173790Y-76600720D02*
X-69173790Y-76600720D01*
X-69602361Y-77444291D02*
X-69459504Y-77491910D01*
X-69411885Y-77539529D01*
X-69364266Y-77634767D01*
X-69364266Y-77777624D01*
X-69411885Y-77872862D01*
X-69459504Y-77920481D01*
X-69554742Y-77968100D01*
X-69935695Y-77968100D01*
X-69935695Y-76968100D01*
X-69602361Y-76968100D01*
X-69507123Y-77015720D01*
X-69459504Y-77063339D01*
X-69411885Y-77158577D01*
X-69411885Y-77253815D01*
X-69459504Y-77349053D01*
X-69507123Y-77396672D01*
X-69602361Y-77444291D01*
X-69935695Y-77444291D01*
X-69173790Y-76600720D02*
X-68221409Y-76600720D01*
X-68983314Y-77920481D02*
X-68840457Y-77968100D01*
X-68602361Y-77968100D01*
X-68507123Y-77920481D01*
X-68459504Y-77872862D01*
X-68411885Y-77777624D01*
X-68411885Y-77682386D01*
X-68459504Y-77587148D01*
X-68507123Y-77539529D01*
X-68602361Y-77491910D01*
X-68792838Y-77444291D01*
X-68888076Y-77396672D01*
X-68935695Y-77349053D01*
X-68983314Y-77253815D01*
X-68983314Y-77158577D01*
X-68935695Y-77063339D01*
X-68888076Y-77015720D01*
X-68792838Y-76968100D01*
X-68554742Y-76968100D01*
X-68411885Y-77015720D01*
X-60744241Y-76615960D02*
X-59887099Y-76615960D01*
X-60553765Y-77697626D02*
X-60077575Y-77697626D01*
X-60649003Y-77983340D02*
X-60315670Y-76983340D01*
X-59982337Y-77983340D01*
X-59887099Y-76615960D02*
X-58887099Y-76615960D01*
X-59315670Y-77459531D02*
X-59172813Y-77507150D01*
X-59125194Y-77554769D01*
X-59077575Y-77650007D01*
X-59077575Y-77792864D01*
X-59125194Y-77888102D01*
X-59172813Y-77935721D01*
X-59268051Y-77983340D01*
X-59649003Y-77983340D01*
X-59649003Y-76983340D01*
X-59315670Y-76983340D01*
X-59220432Y-77030960D01*
X-59172813Y-77078579D01*
X-59125194Y-77173817D01*
X-59125194Y-77269055D01*
X-59172813Y-77364293D01*
X-59220432Y-77411912D01*
X-59315670Y-77459531D01*
X-59649003Y-77459531D01*
X-58887099Y-76615960D02*
X-57934718Y-76615960D01*
X-58696622Y-77935721D02*
X-58553765Y-77983340D01*
X-58315670Y-77983340D01*
X-58220432Y-77935721D01*
X-58172813Y-77888102D01*
X-58125194Y-77792864D01*
X-58125194Y-77697626D01*
X-58172813Y-77602388D01*
X-58220432Y-77554769D01*
X-58315670Y-77507150D01*
X-58506146Y-77459531D01*
X-58601384Y-77411912D01*
X-58649003Y-77364293D01*
X-58696622Y-77269055D01*
X-58696622Y-77173817D01*
X-58649003Y-77078579D01*
X-58601384Y-77030960D01*
X-58506146Y-76983340D01*
X-58268051Y-76983340D01*
X-58125194Y-77030960D01*
X-56951380Y-18744600D02*
X-55903761Y-18744600D01*
X-56522809Y-19111980D02*
X-56332333Y-19111980D01*
X-56237095Y-19159600D01*
X-56141857Y-19254838D01*
X-56094238Y-19445314D01*
X-56094238Y-19778647D01*
X-56141857Y-19969123D01*
X-56237095Y-20064361D01*
X-56332333Y-20111980D01*
X-56522809Y-20111980D01*
X-56618047Y-20064361D01*
X-56713285Y-19969123D01*
X-56760904Y-19778647D01*
X-56760904Y-19445314D01*
X-56713285Y-19254838D01*
X-56618047Y-19159600D01*
X-56522809Y-19111980D01*
X-55903761Y-18744600D02*
X-54999000Y-18744600D01*
X-55665666Y-19588171D02*
X-55332333Y-19588171D01*
X-55189476Y-20111980D02*
X-55665666Y-20111980D01*
X-55665666Y-19111980D01*
X-55189476Y-19111980D01*
X-54999000Y-18744600D02*
X-54046619Y-18744600D01*
X-54856142Y-19111980D02*
X-54237095Y-19111980D01*
X-54570428Y-19492933D01*
X-54427571Y-19492933D01*
X-54332333Y-19540552D01*
X-54284714Y-19588171D01*
X-54237095Y-19683409D01*
X-54237095Y-19921504D01*
X-54284714Y-20016742D01*
X-54332333Y-20064361D01*
X-54427571Y-20111980D01*
X-54713285Y-20111980D01*
X-54808523Y-20064361D01*
X-54856142Y-20016742D01*
X-64191971Y-18744600D02*
X-63191971Y-18744600D01*
X-63382447Y-20016742D02*
X-63430066Y-20064361D01*
X-63572923Y-20111980D01*
X-63668161Y-20111980D01*
X-63811019Y-20064361D01*
X-63906257Y-19969123D01*
X-63953876Y-19873885D01*
X-64001495Y-19683409D01*
X-64001495Y-19540552D01*
X-63953876Y-19350076D01*
X-63906257Y-19254838D01*
X-63811019Y-19159600D01*
X-63668161Y-19111980D01*
X-63572923Y-19111980D01*
X-63430066Y-19159600D01*
X-63382447Y-19207219D01*
X-63191971Y-18744600D02*
X-62287209Y-18744600D01*
X-62953876Y-19588171D02*
X-62620542Y-19588171D01*
X-62477685Y-20111980D02*
X-62953876Y-20111980D01*
X-62953876Y-19111980D01*
X-62477685Y-19111980D01*
X-62287209Y-18744600D02*
X-61334828Y-18744600D01*
X-62144352Y-19111980D02*
X-61525304Y-19111980D01*
X-61858638Y-19492933D01*
X-61715780Y-19492933D01*
X-61620542Y-19540552D01*
X-61572923Y-19588171D01*
X-61525304Y-19683409D01*
X-61525304Y-19921504D01*
X-61572923Y-20016742D01*
X-61620542Y-20064361D01*
X-61715780Y-20111980D01*
X-62001495Y-20111980D01*
X-62096733Y-20064361D01*
X-62144352Y-20016742D01*
X-67573352Y-18795400D02*
X-66763828Y-18795400D01*
X-66859066Y-20162780D02*
X-67335257Y-20162780D01*
X-67335257Y-19162780D01*
X-66763828Y-18795400D02*
X-65763828Y-18795400D01*
X-66525733Y-20162780D02*
X-66525733Y-19162780D01*
X-66287638Y-19162780D01*
X-66144780Y-19210400D01*
X-66049542Y-19305638D01*
X-66001923Y-19400876D01*
X-65954304Y-19591352D01*
X-65954304Y-19734209D01*
X-66001923Y-19924685D01*
X-66049542Y-20019923D01*
X-66144780Y-20115161D01*
X-66287638Y-20162780D01*
X-66525733Y-20162780D01*
X-65763828Y-18795400D02*
X-64811447Y-18795400D01*
X-65620971Y-19162780D02*
X-65001923Y-19162780D01*
X-65335257Y-19543733D01*
X-65192400Y-19543733D01*
X-65097161Y-19591352D01*
X-65049542Y-19638971D01*
X-65001923Y-19734209D01*
X-65001923Y-19972304D01*
X-65049542Y-20067542D01*
X-65097161Y-20115161D01*
X-65192400Y-20162780D01*
X-65478114Y-20162780D01*
X-65573352Y-20115161D01*
X-65620971Y-20067542D01*
X-83392780Y-19074800D02*
X-82345161Y-19074800D01*
X-82964209Y-19442180D02*
X-82773733Y-19442180D01*
X-82678495Y-19489800D01*
X-82583257Y-19585038D01*
X-82535638Y-19775514D01*
X-82535638Y-20108847D01*
X-82583257Y-20299323D01*
X-82678495Y-20394561D01*
X-82773733Y-20442180D01*
X-82964209Y-20442180D01*
X-83059447Y-20394561D01*
X-83154685Y-20299323D01*
X-83202304Y-20108847D01*
X-83202304Y-19775514D01*
X-83154685Y-19585038D01*
X-83059447Y-19489800D01*
X-82964209Y-19442180D01*
X-82345161Y-19074800D02*
X-81440400Y-19074800D01*
X-82107066Y-19918371D02*
X-81773733Y-19918371D01*
X-81630876Y-20442180D02*
X-82107066Y-20442180D01*
X-82107066Y-19442180D01*
X-81630876Y-19442180D01*
X-81440400Y-19074800D02*
X-80488019Y-19074800D01*
X-81249923Y-19537419D02*
X-81202304Y-19489800D01*
X-81107066Y-19442180D01*
X-80868971Y-19442180D01*
X-80773733Y-19489800D01*
X-80726114Y-19537419D01*
X-80678495Y-19632657D01*
X-80678495Y-19727895D01*
X-80726114Y-19870752D01*
X-81297542Y-20442180D01*
X-80678495Y-20442180D01*
X-90785771Y-19024000D02*
X-89785771Y-19024000D01*
X-89976247Y-20296142D02*
X-90023866Y-20343761D01*
X-90166723Y-20391380D01*
X-90261961Y-20391380D01*
X-90404819Y-20343761D01*
X-90500057Y-20248523D01*
X-90547676Y-20153285D01*
X-90595295Y-19962809D01*
X-90595295Y-19819952D01*
X-90547676Y-19629476D01*
X-90500057Y-19534238D01*
X-90404819Y-19439000D01*
X-90261961Y-19391380D01*
X-90166723Y-19391380D01*
X-90023866Y-19439000D01*
X-89976247Y-19486619D01*
X-89785771Y-19024000D02*
X-88881009Y-19024000D01*
X-89547676Y-19867571D02*
X-89214342Y-19867571D01*
X-89071485Y-20391380D02*
X-89547676Y-20391380D01*
X-89547676Y-19391380D01*
X-89071485Y-19391380D01*
X-88881009Y-19024000D02*
X-87928628Y-19024000D01*
X-88690533Y-19486619D02*
X-88642914Y-19439000D01*
X-88547676Y-19391380D01*
X-88309580Y-19391380D01*
X-88214342Y-19439000D01*
X-88166723Y-19486619D01*
X-88119104Y-19581857D01*
X-88119104Y-19677095D01*
X-88166723Y-19819952D01*
X-88738152Y-20391380D01*
X-88119104Y-20391380D01*
X-94116352Y-19024000D02*
X-93306828Y-19024000D01*
X-93402066Y-20391380D02*
X-93878257Y-20391380D01*
X-93878257Y-19391380D01*
X-93306828Y-19024000D02*
X-92306828Y-19024000D01*
X-93068733Y-20391380D02*
X-93068733Y-19391380D01*
X-92830638Y-19391380D01*
X-92687780Y-19439000D01*
X-92592542Y-19534238D01*
X-92544923Y-19629476D01*
X-92497304Y-19819952D01*
X-92497304Y-19962809D01*
X-92544923Y-20153285D01*
X-92592542Y-20248523D01*
X-92687780Y-20343761D01*
X-92830638Y-20391380D01*
X-93068733Y-20391380D01*
X-92306828Y-19024000D02*
X-91354447Y-19024000D01*
X-92116352Y-19486619D02*
X-92068733Y-19439000D01*
X-91973495Y-19391380D01*
X-91735400Y-19391380D01*
X-91640161Y-19439000D01*
X-91592542Y-19486619D01*
X-91544923Y-19581857D01*
X-91544923Y-19677095D01*
X-91592542Y-19819952D01*
X-92163971Y-20391380D01*
X-91544923Y-20391380D01*
X-109910380Y-18744600D02*
X-108862761Y-18744600D01*
X-109481809Y-19111980D02*
X-109291333Y-19111980D01*
X-109196095Y-19159600D01*
X-109100857Y-19254838D01*
X-109053238Y-19445314D01*
X-109053238Y-19778647D01*
X-109100857Y-19969123D01*
X-109196095Y-20064361D01*
X-109291333Y-20111980D01*
X-109481809Y-20111980D01*
X-109577047Y-20064361D01*
X-109672285Y-19969123D01*
X-109719904Y-19778647D01*
X-109719904Y-19445314D01*
X-109672285Y-19254838D01*
X-109577047Y-19159600D01*
X-109481809Y-19111980D01*
X-108862761Y-18744600D02*
X-107958000Y-18744600D01*
X-108624666Y-19588171D02*
X-108291333Y-19588171D01*
X-108148476Y-20111980D02*
X-108624666Y-20111980D01*
X-108624666Y-19111980D01*
X-108148476Y-19111980D01*
X-107958000Y-18744600D02*
X-107005619Y-18744600D01*
X-107196095Y-20111980D02*
X-107767523Y-20111980D01*
X-107481809Y-20111980D02*
X-107481809Y-19111980D01*
X-107577047Y-19254838D01*
X-107672285Y-19350076D01*
X-107767523Y-19397695D01*
X-117303371Y-18668400D02*
X-116303371Y-18668400D01*
X-116493847Y-19940542D02*
X-116541466Y-19988161D01*
X-116684323Y-20035780D01*
X-116779561Y-20035780D01*
X-116922419Y-19988161D01*
X-117017657Y-19892923D01*
X-117065276Y-19797685D01*
X-117112895Y-19607209D01*
X-117112895Y-19464352D01*
X-117065276Y-19273876D01*
X-117017657Y-19178638D01*
X-116922419Y-19083400D01*
X-116779561Y-19035780D01*
X-116684323Y-19035780D01*
X-116541466Y-19083400D01*
X-116493847Y-19131019D01*
X-116303371Y-18668400D02*
X-115398609Y-18668400D01*
X-116065276Y-19511971D02*
X-115731942Y-19511971D01*
X-115589085Y-20035780D02*
X-116065276Y-20035780D01*
X-116065276Y-19035780D01*
X-115589085Y-19035780D01*
X-115398609Y-18668400D02*
X-114446228Y-18668400D01*
X-114636704Y-20035780D02*
X-115208133Y-20035780D01*
X-114922419Y-20035780D02*
X-114922419Y-19035780D01*
X-115017657Y-19178638D01*
X-115112895Y-19273876D01*
X-115208133Y-19321495D01*
X-120659352Y-18719200D02*
X-119849828Y-18719200D01*
X-119945066Y-20086580D02*
X-120421257Y-20086580D01*
X-120421257Y-19086580D01*
X-119849828Y-18719200D02*
X-118849828Y-18719200D01*
X-119611733Y-20086580D02*
X-119611733Y-19086580D01*
X-119373638Y-19086580D01*
X-119230780Y-19134200D01*
X-119135542Y-19229438D01*
X-119087923Y-19324676D01*
X-119040304Y-19515152D01*
X-119040304Y-19658009D01*
X-119087923Y-19848485D01*
X-119135542Y-19943723D01*
X-119230780Y-20038961D01*
X-119373638Y-20086580D01*
X-119611733Y-20086580D01*
X-118849828Y-18719200D02*
X-117897447Y-18719200D01*
X-118087923Y-20086580D02*
X-118659352Y-20086580D01*
X-118373638Y-20086580D02*
X-118373638Y-19086580D01*
X-118468876Y-19229438D01*
X-118564114Y-19324676D01*
X-118659352Y-19372295D01*
X-136478780Y-18770000D02*
X-135431161Y-18770000D01*
X-136050209Y-19137380D02*
X-135859733Y-19137380D01*
X-135764495Y-19185000D01*
X-135669257Y-19280238D01*
X-135621638Y-19470714D01*
X-135621638Y-19804047D01*
X-135669257Y-19994523D01*
X-135764495Y-20089761D01*
X-135859733Y-20137380D01*
X-136050209Y-20137380D01*
X-136145447Y-20089761D01*
X-136240685Y-19994523D01*
X-136288304Y-19804047D01*
X-136288304Y-19470714D01*
X-136240685Y-19280238D01*
X-136145447Y-19185000D01*
X-136050209Y-19137380D01*
X-135431161Y-18770000D02*
X-134526400Y-18770000D01*
X-135193066Y-19613571D02*
X-134859733Y-19613571D01*
X-134716876Y-20137380D02*
X-135193066Y-20137380D01*
X-135193066Y-19137380D01*
X-134716876Y-19137380D01*
X-134526400Y-18770000D02*
X-133574019Y-18770000D01*
X-134097828Y-19137380D02*
X-134002590Y-19137380D01*
X-133907352Y-19185000D01*
X-133859733Y-19232619D01*
X-133812114Y-19327857D01*
X-133764495Y-19518333D01*
X-133764495Y-19756428D01*
X-133812114Y-19946904D01*
X-133859733Y-20042142D01*
X-133907352Y-20089761D01*
X-134002590Y-20137380D01*
X-134097828Y-20137380D01*
X-134193066Y-20089761D01*
X-134240685Y-20042142D01*
X-134288304Y-19946904D01*
X-134335923Y-19756428D01*
X-134335923Y-19518333D01*
X-134288304Y-19327857D01*
X-134240685Y-19232619D01*
X-134193066Y-19185000D01*
X-134097828Y-19137380D01*
X-143719371Y-18744600D02*
X-142719371Y-18744600D01*
X-142909847Y-20016742D02*
X-142957466Y-20064361D01*
X-143100323Y-20111980D01*
X-143195561Y-20111980D01*
X-143338419Y-20064361D01*
X-143433657Y-19969123D01*
X-143481276Y-19873885D01*
X-143528895Y-19683409D01*
X-143528895Y-19540552D01*
X-143481276Y-19350076D01*
X-143433657Y-19254838D01*
X-143338419Y-19159600D01*
X-143195561Y-19111980D01*
X-143100323Y-19111980D01*
X-142957466Y-19159600D01*
X-142909847Y-19207219D01*
X-142719371Y-18744600D02*
X-141814609Y-18744600D01*
X-142481276Y-19588171D02*
X-142147942Y-19588171D01*
X-142005085Y-20111980D02*
X-142481276Y-20111980D01*
X-142481276Y-19111980D01*
X-142005085Y-19111980D01*
X-141814609Y-18744600D02*
X-140862228Y-18744600D01*
X-141386038Y-19111980D02*
X-141290800Y-19111980D01*
X-141195561Y-19159600D01*
X-141147942Y-19207219D01*
X-141100323Y-19302457D01*
X-141052704Y-19492933D01*
X-141052704Y-19731028D01*
X-141100323Y-19921504D01*
X-141147942Y-20016742D01*
X-141195561Y-20064361D01*
X-141290800Y-20111980D01*
X-141386038Y-20111980D01*
X-141481276Y-20064361D01*
X-141528895Y-20016742D01*
X-141576514Y-19921504D01*
X-141624133Y-19731028D01*
X-141624133Y-19492933D01*
X-141576514Y-19302457D01*
X-141528895Y-19207219D01*
X-141481276Y-19159600D01*
X-141386038Y-19111980D01*
X-147202352Y-18719200D02*
X-146392828Y-18719200D01*
X-146488066Y-20086580D02*
X-146964257Y-20086580D01*
X-146964257Y-19086580D01*
X-146392828Y-18719200D02*
X-145392828Y-18719200D01*
X-146154733Y-20086580D02*
X-146154733Y-19086580D01*
X-145916638Y-19086580D01*
X-145773780Y-19134200D01*
X-145678542Y-19229438D01*
X-145630923Y-19324676D01*
X-145583304Y-19515152D01*
X-145583304Y-19658009D01*
X-145630923Y-19848485D01*
X-145678542Y-19943723D01*
X-145773780Y-20038961D01*
X-145916638Y-20086580D01*
X-146154733Y-20086580D01*
X-145392828Y-18719200D02*
X-144440447Y-18719200D01*
X-144964257Y-19086580D02*
X-144869019Y-19086580D01*
X-144773780Y-19134200D01*
X-144726161Y-19181819D01*
X-144678542Y-19277057D01*
X-144630923Y-19467533D01*
X-144630923Y-19705628D01*
X-144678542Y-19896104D01*
X-144726161Y-19991342D01*
X-144773780Y-20038961D01*
X-144869019Y-20086580D01*
X-144964257Y-20086580D01*
X-145059495Y-20038961D01*
X-145107114Y-19991342D01*
X-145154733Y-19896104D01*
X-145202352Y-19705628D01*
X-145202352Y-19467533D01*
X-145154733Y-19277057D01*
X-145107114Y-19181819D01*
X-145059495Y-19134200D01*
X-144964257Y-19086580D01*
X-76900019Y-46176985D02*
X-76900019Y-46081747D01*
X-76852400Y-45986509D01*
X-76804780Y-45938890D01*
X-76709542Y-45891271D01*
X-76519066Y-45843652D01*
X-76280971Y-45843652D01*
X-76090495Y-45891271D01*
X-75995257Y-45938890D01*
X-75947638Y-45986509D01*
X-75900019Y-46081747D01*
X-75900019Y-46176985D01*
X-75947638Y-46272223D01*
X-75995257Y-46319842D01*
X-76090495Y-46367461D01*
X-76280971Y-46415080D01*
X-76519066Y-46415080D01*
X-76709542Y-46367461D01*
X-76804780Y-46319842D01*
X-76852400Y-46272223D01*
X-76900019Y-46176985D01*
X-75995257Y-45415080D02*
X-75947638Y-45367461D01*
X-75900019Y-45415080D01*
X-75947638Y-45462700D01*
X-75995257Y-45415080D01*
X-75900019Y-45415080D01*
X-75900019Y-44415080D02*
X-75900019Y-44986509D01*
X-75900019Y-44700795D02*
X-76900019Y-44700795D01*
X-76757161Y-44796033D01*
X-76661923Y-44891271D01*
X-76614304Y-44986509D01*
X-76566685Y-43986509D02*
X-75566685Y-43986509D01*
X-76042876Y-43510319D02*
X-75947638Y-43462700D01*
X-75900019Y-43367461D01*
X-76042876Y-43986509D02*
X-75947638Y-43938890D01*
X-75900019Y-43843652D01*
X-75900019Y-43653176D01*
X-75947638Y-43557938D01*
X-76042876Y-43510319D01*
X-76566685Y-43510319D01*
X-76423828Y-42605557D02*
X-76423828Y-42938890D01*
X-75900019Y-42938890D02*
X-76900019Y-42938890D01*
X-76900019Y-42462700D01*
X-76773019Y-57645085D02*
X-76773019Y-57549847D01*
X-76725400Y-57454609D01*
X-76677780Y-57406990D01*
X-76582542Y-57359371D01*
X-76392066Y-57311752D01*
X-76153971Y-57311752D01*
X-75963495Y-57359371D01*
X-75868257Y-57406990D01*
X-75820638Y-57454609D01*
X-75773019Y-57549847D01*
X-75773019Y-57645085D01*
X-75820638Y-57740323D01*
X-75868257Y-57787942D01*
X-75963495Y-57835561D01*
X-76153971Y-57883180D01*
X-76392066Y-57883180D01*
X-76582542Y-57835561D01*
X-76677780Y-57787942D01*
X-76725400Y-57740323D01*
X-76773019Y-57645085D01*
X-75868257Y-56883180D02*
X-75820638Y-56835561D01*
X-75773019Y-56883180D01*
X-75820638Y-56930800D01*
X-75868257Y-56883180D01*
X-75773019Y-56883180D01*
X-75773019Y-55883180D02*
X-75773019Y-56454609D01*
X-75773019Y-56168895D02*
X-76773019Y-56168895D01*
X-76630161Y-56264133D01*
X-76534923Y-56359371D01*
X-76487304Y-56454609D01*
X-76439685Y-55454609D02*
X-75439685Y-55454609D01*
X-75915876Y-54978419D02*
X-75820638Y-54930800D01*
X-75773019Y-54835561D01*
X-75915876Y-55454609D02*
X-75820638Y-55406990D01*
X-75773019Y-55311752D01*
X-75773019Y-55121276D01*
X-75820638Y-55026038D01*
X-75915876Y-54978419D01*
X-76439685Y-54978419D01*
X-76296828Y-54073657D02*
X-76296828Y-54406990D01*
X-75773019Y-54406990D02*
X-76773019Y-54406990D01*
X-76773019Y-53930800D01*
X-74156819Y-57772085D02*
X-74156819Y-57676847D01*
X-74109200Y-57581609D01*
X-74061580Y-57533990D01*
X-73966342Y-57486371D01*
X-73775866Y-57438752D01*
X-73537771Y-57438752D01*
X-73347295Y-57486371D01*
X-73252057Y-57533990D01*
X-73204438Y-57581609D01*
X-73156819Y-57676847D01*
X-73156819Y-57772085D01*
X-73204438Y-57867323D01*
X-73252057Y-57914942D01*
X-73347295Y-57962561D01*
X-73537771Y-58010180D01*
X-73775866Y-58010180D01*
X-73966342Y-57962561D01*
X-74061580Y-57914942D01*
X-74109200Y-57867323D01*
X-74156819Y-57772085D01*
X-73252057Y-57010180D02*
X-73204438Y-56962561D01*
X-73156819Y-57010180D01*
X-73204438Y-57057800D01*
X-73252057Y-57010180D01*
X-73156819Y-57010180D01*
X-73156819Y-56010180D02*
X-73156819Y-56581609D01*
X-73156819Y-56295895D02*
X-74156819Y-56295895D01*
X-74013961Y-56391133D01*
X-73918723Y-56486371D01*
X-73871104Y-56581609D01*
X-73823485Y-55581609D02*
X-72823485Y-55581609D01*
X-73299676Y-55105419D02*
X-73204438Y-55057800D01*
X-73156819Y-54962561D01*
X-73299676Y-55581609D02*
X-73204438Y-55533990D01*
X-73156819Y-55438752D01*
X-73156819Y-55248276D01*
X-73204438Y-55153038D01*
X-73299676Y-55105419D01*
X-73823485Y-55105419D01*
X-73680628Y-54200657D02*
X-73680628Y-54533990D01*
X-73156819Y-54533990D02*
X-74156819Y-54533990D01*
X-74156819Y-54057800D01*
X-103582719Y-46164285D02*
X-103582719Y-46069047D01*
X-103535100Y-45973809D01*
X-103487480Y-45926190D01*
X-103392242Y-45878571D01*
X-103201766Y-45830952D01*
X-102963671Y-45830952D01*
X-102773195Y-45878571D01*
X-102677957Y-45926190D01*
X-102630338Y-45973809D01*
X-102582719Y-46069047D01*
X-102582719Y-46164285D01*
X-102630338Y-46259523D01*
X-102677957Y-46307142D01*
X-102773195Y-46354761D01*
X-102963671Y-46402380D01*
X-103201766Y-46402380D01*
X-103392242Y-46354761D01*
X-103487480Y-46307142D01*
X-103535100Y-46259523D01*
X-103582719Y-46164285D01*
X-102677957Y-45402380D02*
X-102630338Y-45354761D01*
X-102582719Y-45402380D01*
X-102630338Y-45450000D01*
X-102677957Y-45402380D01*
X-102582719Y-45402380D01*
X-102582719Y-44402380D02*
X-102582719Y-44973809D01*
X-102582719Y-44688095D02*
X-103582719Y-44688095D01*
X-103439861Y-44783333D01*
X-103344623Y-44878571D01*
X-103297004Y-44973809D01*
X-103249385Y-43973809D02*
X-102249385Y-43973809D01*
X-102725576Y-43497619D02*
X-102630338Y-43450000D01*
X-102582719Y-43354761D01*
X-102725576Y-43973809D02*
X-102630338Y-43926190D01*
X-102582719Y-43830952D01*
X-102582719Y-43640476D01*
X-102630338Y-43545238D01*
X-102725576Y-43497619D01*
X-103249385Y-43497619D01*
X-103106528Y-42592857D02*
X-103106528Y-42926190D01*
X-102582719Y-42926190D02*
X-103582719Y-42926190D01*
X-103582719Y-42450000D01*
X-130316219Y-57695885D02*
X-130316219Y-57600647D01*
X-130268600Y-57505409D01*
X-130220980Y-57457790D01*
X-130125742Y-57410171D01*
X-129935266Y-57362552D01*
X-129697171Y-57362552D01*
X-129506695Y-57410171D01*
X-129411457Y-57457790D01*
X-129363838Y-57505409D01*
X-129316219Y-57600647D01*
X-129316219Y-57695885D01*
X-129363838Y-57791123D01*
X-129411457Y-57838742D01*
X-129506695Y-57886361D01*
X-129697171Y-57933980D01*
X-129935266Y-57933980D01*
X-130125742Y-57886361D01*
X-130220980Y-57838742D01*
X-130268600Y-57791123D01*
X-130316219Y-57695885D01*
X-129411457Y-56933980D02*
X-129363838Y-56886361D01*
X-129316219Y-56933980D01*
X-129363838Y-56981600D01*
X-129411457Y-56933980D01*
X-129316219Y-56933980D01*
X-129316219Y-55933980D02*
X-129316219Y-56505409D01*
X-129316219Y-56219695D02*
X-130316219Y-56219695D01*
X-130173361Y-56314933D01*
X-130078123Y-56410171D01*
X-130030504Y-56505409D01*
X-129982885Y-55505409D02*
X-128982885Y-55505409D01*
X-129459076Y-55029219D02*
X-129363838Y-54981600D01*
X-129316219Y-54886361D01*
X-129459076Y-55505409D02*
X-129363838Y-55457790D01*
X-129316219Y-55362552D01*
X-129316219Y-55172076D01*
X-129363838Y-55076838D01*
X-129459076Y-55029219D01*
X-129982885Y-55029219D01*
X-129840028Y-54124457D02*
X-129840028Y-54457790D01*
X-129316219Y-54457790D02*
X-130316219Y-54457790D01*
X-130316219Y-53981600D01*
X-50344319Y-46113485D02*
X-50344319Y-46018247D01*
X-50296700Y-45923009D01*
X-50249080Y-45875390D01*
X-50153842Y-45827771D01*
X-49963366Y-45780152D01*
X-49725271Y-45780152D01*
X-49534795Y-45827771D01*
X-49439557Y-45875390D01*
X-49391938Y-45923009D01*
X-49344319Y-46018247D01*
X-49344319Y-46113485D01*
X-49391938Y-46208723D01*
X-49439557Y-46256342D01*
X-49534795Y-46303961D01*
X-49725271Y-46351580D01*
X-49963366Y-46351580D01*
X-50153842Y-46303961D01*
X-50249080Y-46256342D01*
X-50296700Y-46208723D01*
X-50344319Y-46113485D01*
X-49439557Y-45351580D02*
X-49391938Y-45303961D01*
X-49344319Y-45351580D01*
X-49391938Y-45399200D01*
X-49439557Y-45351580D01*
X-49344319Y-45351580D01*
X-49344319Y-44351580D02*
X-49344319Y-44923009D01*
X-49344319Y-44637295D02*
X-50344319Y-44637295D01*
X-50201461Y-44732533D01*
X-50106223Y-44827771D01*
X-50058604Y-44923009D01*
X-50010985Y-43923009D02*
X-49010985Y-43923009D01*
X-49487176Y-43446819D02*
X-49391938Y-43399200D01*
X-49344319Y-43303961D01*
X-49487176Y-43923009D02*
X-49391938Y-43875390D01*
X-49344319Y-43780152D01*
X-49344319Y-43589676D01*
X-49391938Y-43494438D01*
X-49487176Y-43446819D01*
X-50010985Y-43446819D01*
X-49868128Y-42542057D02*
X-49868128Y-42875390D01*
X-49344319Y-42875390D02*
X-50344319Y-42875390D01*
X-50344319Y-42399200D01*
X-103684319Y-57454585D02*
X-103684319Y-57359347D01*
X-103636700Y-57264109D01*
X-103589080Y-57216490D01*
X-103493842Y-57168871D01*
X-103303366Y-57121252D01*
X-103065271Y-57121252D01*
X-102874795Y-57168871D01*
X-102779557Y-57216490D01*
X-102731938Y-57264109D01*
X-102684319Y-57359347D01*
X-102684319Y-57454585D01*
X-102731938Y-57549823D01*
X-102779557Y-57597442D01*
X-102874795Y-57645061D01*
X-103065271Y-57692680D01*
X-103303366Y-57692680D01*
X-103493842Y-57645061D01*
X-103589080Y-57597442D01*
X-103636700Y-57549823D01*
X-103684319Y-57454585D01*
X-102779557Y-56692680D02*
X-102731938Y-56645061D01*
X-102684319Y-56692680D01*
X-102731938Y-56740300D01*
X-102779557Y-56692680D01*
X-102684319Y-56692680D01*
X-102684319Y-55692680D02*
X-102684319Y-56264109D01*
X-102684319Y-55978395D02*
X-103684319Y-55978395D01*
X-103541461Y-56073633D01*
X-103446223Y-56168871D01*
X-103398604Y-56264109D01*
X-103350985Y-55264109D02*
X-102350985Y-55264109D01*
X-102827176Y-54787919D02*
X-102731938Y-54740300D01*
X-102684319Y-54645061D01*
X-102827176Y-55264109D02*
X-102731938Y-55216490D01*
X-102684319Y-55121252D01*
X-102684319Y-54930776D01*
X-102731938Y-54835538D01*
X-102827176Y-54787919D01*
X-103350985Y-54787919D01*
X-103208128Y-53883157D02*
X-103208128Y-54216490D01*
X-102684319Y-54216490D02*
X-103684319Y-54216490D01*
X-103684319Y-53740300D01*
X-130532119Y-46265885D02*
X-130532119Y-46170647D01*
X-130484500Y-46075409D01*
X-130436880Y-46027790D01*
X-130341642Y-45980171D01*
X-130151166Y-45932552D01*
X-129913071Y-45932552D01*
X-129722595Y-45980171D01*
X-129627357Y-46027790D01*
X-129579738Y-46075409D01*
X-129532119Y-46170647D01*
X-129532119Y-46265885D01*
X-129579738Y-46361123D01*
X-129627357Y-46408742D01*
X-129722595Y-46456361D01*
X-129913071Y-46503980D01*
X-130151166Y-46503980D01*
X-130341642Y-46456361D01*
X-130436880Y-46408742D01*
X-130484500Y-46361123D01*
X-130532119Y-46265885D01*
X-129627357Y-45503980D02*
X-129579738Y-45456361D01*
X-129532119Y-45503980D01*
X-129579738Y-45551600D01*
X-129627357Y-45503980D01*
X-129532119Y-45503980D01*
X-129532119Y-44503980D02*
X-129532119Y-45075409D01*
X-129532119Y-44789695D02*
X-130532119Y-44789695D01*
X-130389261Y-44884933D01*
X-130294023Y-44980171D01*
X-130246404Y-45075409D01*
X-130198785Y-44075409D02*
X-129198785Y-44075409D01*
X-129674976Y-43599219D02*
X-129579738Y-43551600D01*
X-129532119Y-43456361D01*
X-129674976Y-44075409D02*
X-129579738Y-44027790D01*
X-129532119Y-43932552D01*
X-129532119Y-43742076D01*
X-129579738Y-43646838D01*
X-129674976Y-43599219D01*
X-130198785Y-43599219D01*
X-130055928Y-42694457D02*
X-130055928Y-43027790D01*
X-129532119Y-43027790D02*
X-130532119Y-43027790D01*
X-130532119Y-42551600D01*
X-154306519Y-57911785D02*
X-154306519Y-57816547D01*
X-154258900Y-57721309D01*
X-154211280Y-57673690D01*
X-154116042Y-57626071D01*
X-153925566Y-57578452D01*
X-153687471Y-57578452D01*
X-153496995Y-57626071D01*
X-153401757Y-57673690D01*
X-153354138Y-57721309D01*
X-153306519Y-57816547D01*
X-153306519Y-57911785D01*
X-153354138Y-58007023D01*
X-153401757Y-58054642D01*
X-153496995Y-58102261D01*
X-153687471Y-58149880D01*
X-153925566Y-58149880D01*
X-154116042Y-58102261D01*
X-154211280Y-58054642D01*
X-154258900Y-58007023D01*
X-154306519Y-57911785D01*
X-153401757Y-57149880D02*
X-153354138Y-57102261D01*
X-153306519Y-57149880D01*
X-153354138Y-57197500D01*
X-153401757Y-57149880D01*
X-153306519Y-57149880D01*
X-153306519Y-56149880D02*
X-153306519Y-56721309D01*
X-153306519Y-56435595D02*
X-154306519Y-56435595D01*
X-154163661Y-56530833D01*
X-154068423Y-56626071D01*
X-154020804Y-56721309D01*
X-153973185Y-55721309D02*
X-152973185Y-55721309D01*
X-153449376Y-55245119D02*
X-153354138Y-55197500D01*
X-153306519Y-55102261D01*
X-153449376Y-55721309D02*
X-153354138Y-55673690D01*
X-153306519Y-55578452D01*
X-153306519Y-55387976D01*
X-153354138Y-55292738D01*
X-153449376Y-55245119D01*
X-153973185Y-55245119D01*
X-153830328Y-54340357D02*
X-153830328Y-54673690D01*
X-153306519Y-54673690D02*
X-154306519Y-54673690D01*
X-154306519Y-54197500D01*
X-100928419Y-57543485D02*
X-100928419Y-57448247D01*
X-100880800Y-57353009D01*
X-100833180Y-57305390D01*
X-100737942Y-57257771D01*
X-100547466Y-57210152D01*
X-100309371Y-57210152D01*
X-100118895Y-57257771D01*
X-100023657Y-57305390D01*
X-99976038Y-57353009D01*
X-99928419Y-57448247D01*
X-99928419Y-57543485D01*
X-99976038Y-57638723D01*
X-100023657Y-57686342D01*
X-100118895Y-57733961D01*
X-100309371Y-57781580D01*
X-100547466Y-57781580D01*
X-100737942Y-57733961D01*
X-100833180Y-57686342D01*
X-100880800Y-57638723D01*
X-100928419Y-57543485D01*
X-100023657Y-56781580D02*
X-99976038Y-56733961D01*
X-99928419Y-56781580D01*
X-99976038Y-56829200D01*
X-100023657Y-56781580D01*
X-99928419Y-56781580D01*
X-99928419Y-55781580D02*
X-99928419Y-56353009D01*
X-99928419Y-56067295D02*
X-100928419Y-56067295D01*
X-100785561Y-56162533D01*
X-100690323Y-56257771D01*
X-100642704Y-56353009D01*
X-100595085Y-55353009D02*
X-99595085Y-55353009D01*
X-100071276Y-54876819D02*
X-99976038Y-54829200D01*
X-99928419Y-54733961D01*
X-100071276Y-55353009D02*
X-99976038Y-55305390D01*
X-99928419Y-55210152D01*
X-99928419Y-55019676D01*
X-99976038Y-54924438D01*
X-100071276Y-54876819D01*
X-100595085Y-54876819D01*
X-100452228Y-53972057D02*
X-100452228Y-54305390D01*
X-99928419Y-54305390D02*
X-100928419Y-54305390D01*
X-100928419Y-53829200D01*
X-127407919Y-57746685D02*
X-127407919Y-57651447D01*
X-127360300Y-57556209D01*
X-127312680Y-57508590D01*
X-127217442Y-57460971D01*
X-127026966Y-57413352D01*
X-126788871Y-57413352D01*
X-126598395Y-57460971D01*
X-126503157Y-57508590D01*
X-126455538Y-57556209D01*
X-126407919Y-57651447D01*
X-126407919Y-57746685D01*
X-126455538Y-57841923D01*
X-126503157Y-57889542D01*
X-126598395Y-57937161D01*
X-126788871Y-57984780D01*
X-127026966Y-57984780D01*
X-127217442Y-57937161D01*
X-127312680Y-57889542D01*
X-127360300Y-57841923D01*
X-127407919Y-57746685D01*
X-126503157Y-56984780D02*
X-126455538Y-56937161D01*
X-126407919Y-56984780D01*
X-126455538Y-57032400D01*
X-126503157Y-56984780D01*
X-126407919Y-56984780D01*
X-126407919Y-55984780D02*
X-126407919Y-56556209D01*
X-126407919Y-56270495D02*
X-127407919Y-56270495D01*
X-127265061Y-56365733D01*
X-127169823Y-56460971D01*
X-127122204Y-56556209D01*
X-127074585Y-55556209D02*
X-126074585Y-55556209D01*
X-126550776Y-55080019D02*
X-126455538Y-55032400D01*
X-126407919Y-54937161D01*
X-126550776Y-55556209D02*
X-126455538Y-55508590D01*
X-126407919Y-55413352D01*
X-126407919Y-55222876D01*
X-126455538Y-55127638D01*
X-126550776Y-55080019D01*
X-127074585Y-55080019D01*
X-126931728Y-54175257D02*
X-126931728Y-54508590D01*
X-126407919Y-54508590D02*
X-127407919Y-54508590D01*
X-127407919Y-54032400D01*
X-50357019Y-57454585D02*
X-50357019Y-57359347D01*
X-50309400Y-57264109D01*
X-50261780Y-57216490D01*
X-50166542Y-57168871D01*
X-49976066Y-57121252D01*
X-49737971Y-57121252D01*
X-49547495Y-57168871D01*
X-49452257Y-57216490D01*
X-49404638Y-57264109D01*
X-49357019Y-57359347D01*
X-49357019Y-57454585D01*
X-49404638Y-57549823D01*
X-49452257Y-57597442D01*
X-49547495Y-57645061D01*
X-49737971Y-57692680D01*
X-49976066Y-57692680D01*
X-50166542Y-57645061D01*
X-50261780Y-57597442D01*
X-50309400Y-57549823D01*
X-50357019Y-57454585D01*
X-49452257Y-56692680D02*
X-49404638Y-56645061D01*
X-49357019Y-56692680D01*
X-49404638Y-56740300D01*
X-49452257Y-56692680D01*
X-49357019Y-56692680D01*
X-49357019Y-55692680D02*
X-49357019Y-56264109D01*
X-49357019Y-55978395D02*
X-50357019Y-55978395D01*
X-50214161Y-56073633D01*
X-50118923Y-56168871D01*
X-50071304Y-56264109D01*
X-50023685Y-55264109D02*
X-49023685Y-55264109D01*
X-49499876Y-54787919D02*
X-49404638Y-54740300D01*
X-49357019Y-54645061D01*
X-49499876Y-55264109D02*
X-49404638Y-55216490D01*
X-49357019Y-55121252D01*
X-49357019Y-54930776D01*
X-49404638Y-54835538D01*
X-49499876Y-54787919D01*
X-50023685Y-54787919D01*
X-49880828Y-53883157D02*
X-49880828Y-54216490D01*
X-49357019Y-54216490D02*
X-50357019Y-54216490D01*
X-50357019Y-53740300D01*
X-96100099Y-79067765D02*
X-96100099Y-78972527D01*
X-96052480Y-78877289D01*
X-96004860Y-78829670D01*
X-95909622Y-78782051D01*
X-95719146Y-78734432D01*
X-95481051Y-78734432D01*
X-95290575Y-78782051D01*
X-95195337Y-78829670D01*
X-95147718Y-78877289D01*
X-95100099Y-78972527D01*
X-95100099Y-79067765D01*
X-95147718Y-79163003D01*
X-95195337Y-79210622D01*
X-95290575Y-79258241D01*
X-95481051Y-79305860D01*
X-95719146Y-79305860D01*
X-95909622Y-79258241D01*
X-96004860Y-79210622D01*
X-96052480Y-79163003D01*
X-96100099Y-79067765D01*
X-95195337Y-78305860D02*
X-95147718Y-78258241D01*
X-95100099Y-78305860D01*
X-95147718Y-78353480D01*
X-95195337Y-78305860D01*
X-95100099Y-78305860D01*
X-95100099Y-77305860D02*
X-95100099Y-77877289D01*
X-95100099Y-77591575D02*
X-96100099Y-77591575D01*
X-95957241Y-77686813D01*
X-95862003Y-77782051D01*
X-95814384Y-77877289D01*
X-95766765Y-76877289D02*
X-94766765Y-76877289D01*
X-95242956Y-76401099D02*
X-95147718Y-76353480D01*
X-95100099Y-76258241D01*
X-95242956Y-76877289D02*
X-95147718Y-76829670D01*
X-95100099Y-76734432D01*
X-95100099Y-76543956D01*
X-95147718Y-76448718D01*
X-95242956Y-76401099D01*
X-95766765Y-76401099D01*
X-95623908Y-75496337D02*
X-95623908Y-75829670D01*
X-95100099Y-75829670D02*
X-96100099Y-75829670D01*
X-96100099Y-75353480D01*
X-119026139Y-79204925D02*
X-119026139Y-79109687D01*
X-118978520Y-79014449D01*
X-118930900Y-78966830D01*
X-118835662Y-78919211D01*
X-118645186Y-78871592D01*
X-118407091Y-78871592D01*
X-118216615Y-78919211D01*
X-118121377Y-78966830D01*
X-118073758Y-79014449D01*
X-118026139Y-79109687D01*
X-118026139Y-79204925D01*
X-118073758Y-79300163D01*
X-118121377Y-79347782D01*
X-118216615Y-79395401D01*
X-118407091Y-79443020D01*
X-118645186Y-79443020D01*
X-118835662Y-79395401D01*
X-118930900Y-79347782D01*
X-118978520Y-79300163D01*
X-119026139Y-79204925D01*
X-118121377Y-78443020D02*
X-118073758Y-78395401D01*
X-118026139Y-78443020D01*
X-118073758Y-78490640D01*
X-118121377Y-78443020D01*
X-118026139Y-78443020D01*
X-118026139Y-77443020D02*
X-118026139Y-78014449D01*
X-118026139Y-77728735D02*
X-119026139Y-77728735D01*
X-118883281Y-77823973D01*
X-118788043Y-77919211D01*
X-118740424Y-78014449D01*
X-118692805Y-77014449D02*
X-117692805Y-77014449D01*
X-118168996Y-76538259D02*
X-118073758Y-76490640D01*
X-118026139Y-76395401D01*
X-118168996Y-77014449D02*
X-118073758Y-76966830D01*
X-118026139Y-76871592D01*
X-118026139Y-76681116D01*
X-118073758Y-76585878D01*
X-118168996Y-76538259D01*
X-118692805Y-76538259D01*
X-118549948Y-75633497D02*
X-118549948Y-75966830D01*
X-118026139Y-75966830D02*
X-119026139Y-75966830D01*
X-119026139Y-75490640D01*
X-98680739Y-90568885D02*
X-98680739Y-90473647D01*
X-98633120Y-90378409D01*
X-98585500Y-90330790D01*
X-98490262Y-90283171D01*
X-98299786Y-90235552D01*
X-98061691Y-90235552D01*
X-97871215Y-90283171D01*
X-97775977Y-90330790D01*
X-97728358Y-90378409D01*
X-97680739Y-90473647D01*
X-97680739Y-90568885D01*
X-97728358Y-90664123D01*
X-97775977Y-90711742D01*
X-97871215Y-90759361D01*
X-98061691Y-90806980D01*
X-98299786Y-90806980D01*
X-98490262Y-90759361D01*
X-98585500Y-90711742D01*
X-98633120Y-90664123D01*
X-98680739Y-90568885D01*
X-97775977Y-89806980D02*
X-97728358Y-89759361D01*
X-97680739Y-89806980D01*
X-97728358Y-89854600D01*
X-97775977Y-89806980D01*
X-97680739Y-89806980D01*
X-97680739Y-88806980D02*
X-97680739Y-89378409D01*
X-97680739Y-89092695D02*
X-98680739Y-89092695D01*
X-98537881Y-89187933D01*
X-98442643Y-89283171D01*
X-98395024Y-89378409D01*
X-98347405Y-88378409D02*
X-97347405Y-88378409D01*
X-97823596Y-87902219D02*
X-97728358Y-87854600D01*
X-97680739Y-87759361D01*
X-97823596Y-88378409D02*
X-97728358Y-88330790D01*
X-97680739Y-88235552D01*
X-97680739Y-88045076D01*
X-97728358Y-87949838D01*
X-97823596Y-87902219D01*
X-98347405Y-87902219D01*
X-98204548Y-86997457D02*
X-98204548Y-87330790D01*
X-97680739Y-87330790D02*
X-98680739Y-87330790D01*
X-98680739Y-86854600D01*
X-154499779Y-79154125D02*
X-154499779Y-79058887D01*
X-154452160Y-78963649D01*
X-154404540Y-78916030D01*
X-154309302Y-78868411D01*
X-154118826Y-78820792D01*
X-153880731Y-78820792D01*
X-153690255Y-78868411D01*
X-153595017Y-78916030D01*
X-153547398Y-78963649D01*
X-153499779Y-79058887D01*
X-153499779Y-79154125D01*
X-153547398Y-79249363D01*
X-153595017Y-79296982D01*
X-153690255Y-79344601D01*
X-153880731Y-79392220D01*
X-154118826Y-79392220D01*
X-154309302Y-79344601D01*
X-154404540Y-79296982D01*
X-154452160Y-79249363D01*
X-154499779Y-79154125D01*
X-153595017Y-78392220D02*
X-153547398Y-78344601D01*
X-153499779Y-78392220D01*
X-153547398Y-78439840D01*
X-153595017Y-78392220D01*
X-153499779Y-78392220D01*
X-153499779Y-77392220D02*
X-153499779Y-77963649D01*
X-153499779Y-77677935D02*
X-154499779Y-77677935D01*
X-154356921Y-77773173D01*
X-154261683Y-77868411D01*
X-154214064Y-77963649D01*
X-154166445Y-76963649D02*
X-153166445Y-76963649D01*
X-153642636Y-76487459D02*
X-153547398Y-76439840D01*
X-153499779Y-76344601D01*
X-153642636Y-76963649D02*
X-153547398Y-76916030D01*
X-153499779Y-76820792D01*
X-153499779Y-76630316D01*
X-153547398Y-76535078D01*
X-153642636Y-76487459D01*
X-154166445Y-76487459D01*
X-154023588Y-75582697D02*
X-154023588Y-75916030D01*
X-153499779Y-75916030D02*
X-154499779Y-75916030D01*
X-154499779Y-75439840D01*
X-124111219Y-90238685D02*
X-124111219Y-90143447D01*
X-124063600Y-90048209D01*
X-124015980Y-90000590D01*
X-123920742Y-89952971D01*
X-123730266Y-89905352D01*
X-123492171Y-89905352D01*
X-123301695Y-89952971D01*
X-123206457Y-90000590D01*
X-123158838Y-90048209D01*
X-123111219Y-90143447D01*
X-123111219Y-90238685D01*
X-123158838Y-90333923D01*
X-123206457Y-90381542D01*
X-123301695Y-90429161D01*
X-123492171Y-90476780D01*
X-123730266Y-90476780D01*
X-123920742Y-90429161D01*
X-124015980Y-90381542D01*
X-124063600Y-90333923D01*
X-124111219Y-90238685D01*
X-123206457Y-89476780D02*
X-123158838Y-89429161D01*
X-123111219Y-89476780D01*
X-123158838Y-89524400D01*
X-123206457Y-89476780D01*
X-123111219Y-89476780D01*
X-123111219Y-88476780D02*
X-123111219Y-89048209D01*
X-123111219Y-88762495D02*
X-124111219Y-88762495D01*
X-123968361Y-88857733D01*
X-123873123Y-88952971D01*
X-123825504Y-89048209D01*
X-123777885Y-88048209D02*
X-122777885Y-88048209D01*
X-123254076Y-87572019D02*
X-123158838Y-87524400D01*
X-123111219Y-87429161D01*
X-123254076Y-88048209D02*
X-123158838Y-88000590D01*
X-123111219Y-87905352D01*
X-123111219Y-87714876D01*
X-123158838Y-87619638D01*
X-123254076Y-87572019D01*
X-123777885Y-87572019D01*
X-123635028Y-86667257D02*
X-123635028Y-87000590D01*
X-123111219Y-87000590D02*
X-124111219Y-87000590D01*
X-124111219Y-86524400D01*
X-154718219Y-90467285D02*
X-154718219Y-90372047D01*
X-154670600Y-90276809D01*
X-154622980Y-90229190D01*
X-154527742Y-90181571D01*
X-154337266Y-90133952D01*
X-154099171Y-90133952D01*
X-153908695Y-90181571D01*
X-153813457Y-90229190D01*
X-153765838Y-90276809D01*
X-153718219Y-90372047D01*
X-153718219Y-90467285D01*
X-153765838Y-90562523D01*
X-153813457Y-90610142D01*
X-153908695Y-90657761D01*
X-154099171Y-90705380D01*
X-154337266Y-90705380D01*
X-154527742Y-90657761D01*
X-154622980Y-90610142D01*
X-154670600Y-90562523D01*
X-154718219Y-90467285D01*
X-153813457Y-89705380D02*
X-153765838Y-89657761D01*
X-153718219Y-89705380D01*
X-153765838Y-89753000D01*
X-153813457Y-89705380D01*
X-153718219Y-89705380D01*
X-153718219Y-88705380D02*
X-153718219Y-89276809D01*
X-153718219Y-88991095D02*
X-154718219Y-88991095D01*
X-154575361Y-89086333D01*
X-154480123Y-89181571D01*
X-154432504Y-89276809D01*
X-154384885Y-88276809D02*
X-153384885Y-88276809D01*
X-153861076Y-87800619D02*
X-153765838Y-87753000D01*
X-153718219Y-87657761D01*
X-153861076Y-88276809D02*
X-153765838Y-88229190D01*
X-153718219Y-88133952D01*
X-153718219Y-87943476D01*
X-153765838Y-87848238D01*
X-153861076Y-87800619D01*
X-154384885Y-87800619D01*
X-154242028Y-86895857D02*
X-154242028Y-87229190D01*
X-153718219Y-87229190D02*
X-154718219Y-87229190D01*
X-154718219Y-86753000D01*
X-150629419Y-103619893D02*
X-149915133Y-103619893D01*
X-149772276Y-103667512D01*
X-149677038Y-103762750D01*
X-149629419Y-103905607D01*
X-149629419Y-104000845D01*
X-149629419Y-102619893D02*
X-149629419Y-103191321D01*
X-149629419Y-102905607D02*
X-150629419Y-102905607D01*
X-150486561Y-103000845D01*
X-150391323Y-103096083D01*
X-150343704Y-103191321D01*
X-52647125Y-92965566D02*
X-52170935Y-92965566D01*
X-52742363Y-93251280D02*
X-52409030Y-92251280D01*
X-52075697Y-93251280D01*
X-51789982Y-92346519D02*
X-51742363Y-92298900D01*
X-51647125Y-92251280D01*
X-51409030Y-92251280D01*
X-51313792Y-92298900D01*
X-51266173Y-92346519D01*
X-51218554Y-92441757D01*
X-51218554Y-92536995D01*
X-51266173Y-92679852D01*
X-51837601Y-93251280D01*
X-51218554Y-93251280D01*
X-52530285Y-87250566D02*
X-52054095Y-87250566D01*
X-52625523Y-87536280D02*
X-52292190Y-86536280D01*
X-51958857Y-87536280D01*
X-51720761Y-86536280D02*
X-51101714Y-86536280D01*
X-51435047Y-86917233D01*
X-51292190Y-86917233D01*
X-51196952Y-86964852D01*
X-51149333Y-87012471D01*
X-51101714Y-87107709D01*
X-51101714Y-87345804D01*
X-51149333Y-87441042D01*
X-51196952Y-87488661D01*
X-51292190Y-87536280D01*
X-51577904Y-87536280D01*
X-51673142Y-87488661D01*
X-51720761Y-87441042D01*
X-59431845Y-92509173D02*
X-58765179Y-92509173D01*
X-59812798Y-92747268D02*
X-59098512Y-92985363D01*
X-59098512Y-92366316D01*
X-59765179Y-92080601D02*
X-59765179Y-91413935D01*
X-58765179Y-91842506D01*
X-59765179Y-90842506D02*
X-59765179Y-90747268D01*
X-59717560Y-90652030D01*
X-59669940Y-90604411D01*
X-59574702Y-90556792D01*
X-59384226Y-90509173D01*
X-59146131Y-90509173D01*
X-58955655Y-90556792D01*
X-58860417Y-90604411D01*
X-58812798Y-90652030D01*
X-58765179Y-90747268D01*
X-58765179Y-90842506D01*
X-58812798Y-90937744D01*
X-58860417Y-90985363D01*
X-58955655Y-91032982D01*
X-59146131Y-91080601D01*
X-59384226Y-91080601D01*
X-59574702Y-91032982D01*
X-59669940Y-90985363D01*
X-59717560Y-90937744D01*
X-59765179Y-90842506D01*
X-58765179Y-90128220D02*
X-58765179Y-89890125D01*
X-58955655Y-89890125D01*
X-59003274Y-89985363D01*
X-59098512Y-90080601D01*
X-59241369Y-90128220D01*
X-59479464Y-90128220D01*
X-59622321Y-90080601D01*
X-59717560Y-89985363D01*
X-59765179Y-89842506D01*
X-59765179Y-89652030D01*
X-59717560Y-89509173D01*
X-59622321Y-89413935D01*
X-59479464Y-89366316D01*
X-59241369Y-89366316D01*
X-59098512Y-89413935D01*
X-59003274Y-89509173D01*
X-58955655Y-89604411D01*
X-58765179Y-89604411D01*
X-58765179Y-89366316D01*
X-69927125Y-92453293D02*
X-69260459Y-92453293D01*
X-70308078Y-92691388D02*
X-69593792Y-92929483D01*
X-69593792Y-92310436D01*
X-70260459Y-92024721D02*
X-70260459Y-91358055D01*
X-69260459Y-91786626D01*
X-70260459Y-90786626D02*
X-70260459Y-90691388D01*
X-70212840Y-90596150D01*
X-70165220Y-90548531D01*
X-70069982Y-90500912D01*
X-69879506Y-90453293D01*
X-69641411Y-90453293D01*
X-69450935Y-90500912D01*
X-69355697Y-90548531D01*
X-69308078Y-90596150D01*
X-69260459Y-90691388D01*
X-69260459Y-90786626D01*
X-69308078Y-90881864D01*
X-69355697Y-90929483D01*
X-69450935Y-90977102D01*
X-69641411Y-91024721D01*
X-69879506Y-91024721D01*
X-70069982Y-90977102D01*
X-70165220Y-90929483D01*
X-70212840Y-90881864D01*
X-70260459Y-90786626D01*
X-69260459Y-90072340D02*
X-69260459Y-89834245D01*
X-69450935Y-89834245D01*
X-69498554Y-89929483D01*
X-69593792Y-90024721D01*
X-69736649Y-90072340D01*
X-69974744Y-90072340D01*
X-70117601Y-90024721D01*
X-70212840Y-89929483D01*
X-70260459Y-89786626D01*
X-70260459Y-89596150D01*
X-70212840Y-89453293D01*
X-70117601Y-89358055D01*
X-69974744Y-89310436D01*
X-69736649Y-89310436D01*
X-69593792Y-89358055D01*
X-69498554Y-89453293D01*
X-69450935Y-89548531D01*
X-69260459Y-89548531D01*
X-69260459Y-89310436D01*
X-66432085Y-92387253D02*
X-65765419Y-92387253D01*
X-66813038Y-92625348D02*
X-66098752Y-92863443D01*
X-66098752Y-92244396D01*
X-66765419Y-91958681D02*
X-66765419Y-91292015D01*
X-65765419Y-91720586D01*
X-66765419Y-90720586D02*
X-66765419Y-90625348D01*
X-66717800Y-90530110D01*
X-66670180Y-90482491D01*
X-66574942Y-90434872D01*
X-66384466Y-90387253D01*
X-66146371Y-90387253D01*
X-65955895Y-90434872D01*
X-65860657Y-90482491D01*
X-65813038Y-90530110D01*
X-65765419Y-90625348D01*
X-65765419Y-90720586D01*
X-65813038Y-90815824D01*
X-65860657Y-90863443D01*
X-65955895Y-90911062D01*
X-66146371Y-90958681D01*
X-66384466Y-90958681D01*
X-66574942Y-90911062D01*
X-66670180Y-90863443D01*
X-66717800Y-90815824D01*
X-66765419Y-90720586D01*
X-65765419Y-90006300D02*
X-65765419Y-89768205D01*
X-65955895Y-89768205D01*
X-66003514Y-89863443D01*
X-66098752Y-89958681D01*
X-66241609Y-90006300D01*
X-66479704Y-90006300D01*
X-66622561Y-89958681D01*
X-66717800Y-89863443D01*
X-66765419Y-89720586D01*
X-66765419Y-89530110D01*
X-66717800Y-89387253D01*
X-66622561Y-89292015D01*
X-66479704Y-89244396D01*
X-66241609Y-89244396D01*
X-66098752Y-89292015D01*
X-66003514Y-89387253D01*
X-65955895Y-89482491D01*
X-65765419Y-89482491D01*
X-65765419Y-89244396D01*
X-142887533Y-40461274D02*
X-142887533Y-41127940D01*
X-143125628Y-40080321D02*
X-143363723Y-40794607D01*
X-142744676Y-40794607D01*
X-142458961Y-40127940D02*
X-141792295Y-40127940D01*
X-142220866Y-41127940D01*
X-141220866Y-40127940D02*
X-141125628Y-40127940D01*
X-141030390Y-40175560D01*
X-140982771Y-40223179D01*
X-140935152Y-40318417D01*
X-140887533Y-40508893D01*
X-140887533Y-40746988D01*
X-140935152Y-40937464D01*
X-140982771Y-41032702D01*
X-141030390Y-41080321D01*
X-141125628Y-41127940D01*
X-141220866Y-41127940D01*
X-141316104Y-41080321D01*
X-141363723Y-41032702D01*
X-141411342Y-40937464D01*
X-141458961Y-40746988D01*
X-141458961Y-40508893D01*
X-141411342Y-40318417D01*
X-141363723Y-40223179D01*
X-141316104Y-40175560D01*
X-141220866Y-40127940D01*
X-140506580Y-41127940D02*
X-140268485Y-41127940D01*
X-140268485Y-40937464D01*
X-140363723Y-40889845D01*
X-140458961Y-40794607D01*
X-140506580Y-40651750D01*
X-140506580Y-40413655D01*
X-140458961Y-40270798D01*
X-140363723Y-40175560D01*
X-140220866Y-40127940D01*
X-140030390Y-40127940D01*
X-139887533Y-40175560D01*
X-139792295Y-40270798D01*
X-139744676Y-40413655D01*
X-139744676Y-40651750D01*
X-139792295Y-40794607D01*
X-139887533Y-40889845D01*
X-139982771Y-40937464D01*
X-139982771Y-41127940D01*
X-139744676Y-41127940D01*
X-106371045Y-29593373D02*
X-105704379Y-29593373D01*
X-106751998Y-29831468D02*
X-106037712Y-30069563D01*
X-106037712Y-29450516D01*
X-106704379Y-29164801D02*
X-106704379Y-28498135D01*
X-105704379Y-28926706D01*
X-106704379Y-27926706D02*
X-106704379Y-27831468D01*
X-106656760Y-27736230D01*
X-106609140Y-27688611D01*
X-106513902Y-27640992D01*
X-106323426Y-27593373D01*
X-106085331Y-27593373D01*
X-105894855Y-27640992D01*
X-105799617Y-27688611D01*
X-105751998Y-27736230D01*
X-105704379Y-27831468D01*
X-105704379Y-27926706D01*
X-105751998Y-28021944D01*
X-105799617Y-28069563D01*
X-105894855Y-28117182D01*
X-106085331Y-28164801D01*
X-106323426Y-28164801D01*
X-106513902Y-28117182D01*
X-106609140Y-28069563D01*
X-106656760Y-28021944D01*
X-106704379Y-27926706D01*
X-105704379Y-27212420D02*
X-105704379Y-26974325D01*
X-105894855Y-26974325D01*
X-105942474Y-27069563D01*
X-106037712Y-27164801D01*
X-106180569Y-27212420D01*
X-106418664Y-27212420D01*
X-106561521Y-27164801D01*
X-106656760Y-27069563D01*
X-106704379Y-26926706D01*
X-106704379Y-26736230D01*
X-106656760Y-26593373D01*
X-106561521Y-26498135D01*
X-106418664Y-26450516D01*
X-106180569Y-26450516D01*
X-106037712Y-26498135D01*
X-105942474Y-26593373D01*
X-105894855Y-26688611D01*
X-105704379Y-26688611D01*
X-105704379Y-26450516D01*
X-116629013Y-40476514D02*
X-116629013Y-41143180D01*
X-116867108Y-40095561D02*
X-117105203Y-40809847D01*
X-116486156Y-40809847D01*
X-116200441Y-40143180D02*
X-115533775Y-40143180D01*
X-115962346Y-41143180D01*
X-114962346Y-40143180D02*
X-114867108Y-40143180D01*
X-114771870Y-40190800D01*
X-114724251Y-40238419D01*
X-114676632Y-40333657D01*
X-114629013Y-40524133D01*
X-114629013Y-40762228D01*
X-114676632Y-40952704D01*
X-114724251Y-41047942D01*
X-114771870Y-41095561D01*
X-114867108Y-41143180D01*
X-114962346Y-41143180D01*
X-115057584Y-41095561D01*
X-115105203Y-41047942D01*
X-115152822Y-40952704D01*
X-115200441Y-40762228D01*
X-115200441Y-40524133D01*
X-115152822Y-40333657D01*
X-115105203Y-40238419D01*
X-115057584Y-40190800D01*
X-114962346Y-40143180D01*
X-114248060Y-41143180D02*
X-114009965Y-41143180D01*
X-114009965Y-40952704D01*
X-114105203Y-40905085D01*
X-114200441Y-40809847D01*
X-114248060Y-40666990D01*
X-114248060Y-40428895D01*
X-114200441Y-40286038D01*
X-114105203Y-40190800D01*
X-113962346Y-40143180D01*
X-113771870Y-40143180D01*
X-113629013Y-40190800D01*
X-113533775Y-40286038D01*
X-113486156Y-40428895D01*
X-113486156Y-40666990D01*
X-113533775Y-40809847D01*
X-113629013Y-40905085D01*
X-113724251Y-40952704D01*
X-113724251Y-41143180D01*
X-113486156Y-41143180D01*
X-79853445Y-29532413D02*
X-79186779Y-29532413D01*
X-80234398Y-29770508D02*
X-79520112Y-30008603D01*
X-79520112Y-29389556D01*
X-80186779Y-29103841D02*
X-80186779Y-28437175D01*
X-79186779Y-28865746D01*
X-80186779Y-27865746D02*
X-80186779Y-27770508D01*
X-80139160Y-27675270D01*
X-80091540Y-27627651D01*
X-79996302Y-27580032D01*
X-79805826Y-27532413D01*
X-79567731Y-27532413D01*
X-79377255Y-27580032D01*
X-79282017Y-27627651D01*
X-79234398Y-27675270D01*
X-79186779Y-27770508D01*
X-79186779Y-27865746D01*
X-79234398Y-27960984D01*
X-79282017Y-28008603D01*
X-79377255Y-28056222D01*
X-79567731Y-28103841D01*
X-79805826Y-28103841D01*
X-79996302Y-28056222D01*
X-80091540Y-28008603D01*
X-80139160Y-27960984D01*
X-80186779Y-27865746D01*
X-79186779Y-27151460D02*
X-79186779Y-26913365D01*
X-79377255Y-26913365D01*
X-79424874Y-27008603D01*
X-79520112Y-27103841D01*
X-79662969Y-27151460D01*
X-79901064Y-27151460D01*
X-80043921Y-27103841D01*
X-80139160Y-27008603D01*
X-80186779Y-26865746D01*
X-80186779Y-26675270D01*
X-80139160Y-26532413D01*
X-80043921Y-26437175D01*
X-79901064Y-26389556D01*
X-79662969Y-26389556D01*
X-79520112Y-26437175D01*
X-79424874Y-26532413D01*
X-79377255Y-26627651D01*
X-79186779Y-26627651D01*
X-79186779Y-26389556D01*
X-89760893Y-40319034D02*
X-89760893Y-40985700D01*
X-89998988Y-39938081D02*
X-90237083Y-40652367D01*
X-89618036Y-40652367D01*
X-89332321Y-39985700D02*
X-88665655Y-39985700D01*
X-89094226Y-40985700D01*
X-88094226Y-39985700D02*
X-87998988Y-39985700D01*
X-87903750Y-40033320D01*
X-87856131Y-40080939D01*
X-87808512Y-40176177D01*
X-87760893Y-40366653D01*
X-87760893Y-40604748D01*
X-87808512Y-40795224D01*
X-87856131Y-40890462D01*
X-87903750Y-40938081D01*
X-87998988Y-40985700D01*
X-88094226Y-40985700D01*
X-88189464Y-40938081D01*
X-88237083Y-40890462D01*
X-88284702Y-40795224D01*
X-88332321Y-40604748D01*
X-88332321Y-40366653D01*
X-88284702Y-40176177D01*
X-88237083Y-40080939D01*
X-88189464Y-40033320D01*
X-88094226Y-39985700D01*
X-87379940Y-40985700D02*
X-87141845Y-40985700D01*
X-87141845Y-40795224D01*
X-87237083Y-40747605D01*
X-87332321Y-40652367D01*
X-87379940Y-40509510D01*
X-87379940Y-40271415D01*
X-87332321Y-40128558D01*
X-87237083Y-40033320D01*
X-87094226Y-39985700D01*
X-86903750Y-39985700D01*
X-86760893Y-40033320D01*
X-86665655Y-40128558D01*
X-86618036Y-40271415D01*
X-86618036Y-40509510D01*
X-86665655Y-40652367D01*
X-86760893Y-40747605D01*
X-86856131Y-40795224D01*
X-86856131Y-40985700D01*
X-86618036Y-40985700D01*
X-53356165Y-29679733D02*
X-52689499Y-29679733D01*
X-53737118Y-29917828D02*
X-53022832Y-30155923D01*
X-53022832Y-29536876D01*
X-53689499Y-29251161D02*
X-53689499Y-28584495D01*
X-52689499Y-29013066D01*
X-53689499Y-28013066D02*
X-53689499Y-27917828D01*
X-53641880Y-27822590D01*
X-53594260Y-27774971D01*
X-53499022Y-27727352D01*
X-53308546Y-27679733D01*
X-53070451Y-27679733D01*
X-52879975Y-27727352D01*
X-52784737Y-27774971D01*
X-52737118Y-27822590D01*
X-52689499Y-27917828D01*
X-52689499Y-28013066D01*
X-52737118Y-28108304D01*
X-52784737Y-28155923D01*
X-52879975Y-28203542D01*
X-53070451Y-28251161D01*
X-53308546Y-28251161D01*
X-53499022Y-28203542D01*
X-53594260Y-28155923D01*
X-53641880Y-28108304D01*
X-53689499Y-28013066D01*
X-52689499Y-27298780D02*
X-52689499Y-27060685D01*
X-52879975Y-27060685D01*
X-52927594Y-27155923D01*
X-53022832Y-27251161D01*
X-53165689Y-27298780D01*
X-53403784Y-27298780D01*
X-53546641Y-27251161D01*
X-53641880Y-27155923D01*
X-53689499Y-27013066D01*
X-53689499Y-26822590D01*
X-53641880Y-26679733D01*
X-53546641Y-26584495D01*
X-53403784Y-26536876D01*
X-53165689Y-26536876D01*
X-53022832Y-26584495D01*
X-52927594Y-26679733D01*
X-52879975Y-26774971D01*
X-52689499Y-26774971D01*
X-52689499Y-26536876D01*
X-63202653Y-40374914D02*
X-63202653Y-41041580D01*
X-63440748Y-39993961D02*
X-63678843Y-40708247D01*
X-63059796Y-40708247D01*
X-62774081Y-40041580D02*
X-62107415Y-40041580D01*
X-62535986Y-41041580D01*
X-61535986Y-40041580D02*
X-61440748Y-40041580D01*
X-61345510Y-40089200D01*
X-61297891Y-40136819D01*
X-61250272Y-40232057D01*
X-61202653Y-40422533D01*
X-61202653Y-40660628D01*
X-61250272Y-40851104D01*
X-61297891Y-40946342D01*
X-61345510Y-40993961D01*
X-61440748Y-41041580D01*
X-61535986Y-41041580D01*
X-61631224Y-40993961D01*
X-61678843Y-40946342D01*
X-61726462Y-40851104D01*
X-61774081Y-40660628D01*
X-61774081Y-40422533D01*
X-61726462Y-40232057D01*
X-61678843Y-40136819D01*
X-61631224Y-40089200D01*
X-61535986Y-40041580D01*
X-60821700Y-41041580D02*
X-60583605Y-41041580D01*
X-60583605Y-40851104D01*
X-60678843Y-40803485D01*
X-60774081Y-40708247D01*
X-60821700Y-40565390D01*
X-60821700Y-40327295D01*
X-60774081Y-40184438D01*
X-60678843Y-40089200D01*
X-60535986Y-40041580D01*
X-60345510Y-40041580D01*
X-60202653Y-40089200D01*
X-60107415Y-40184438D01*
X-60059796Y-40327295D01*
X-60059796Y-40565390D01*
X-60107415Y-40708247D01*
X-60202653Y-40803485D01*
X-60297891Y-40851104D01*
X-60297891Y-41041580D01*
X-60059796Y-41041580D01*
X-140198171Y-91067000D02*
X-140293409Y-91019380D01*
X-140436266Y-91019380D01*
X-140579123Y-91067000D01*
X-140674361Y-91162238D01*
X-140721980Y-91257476D01*
X-140769600Y-91447952D01*
X-140769600Y-91590809D01*
X-140721980Y-91781285D01*
X-140674361Y-91876523D01*
X-140579123Y-91971761D01*
X-140436266Y-92019380D01*
X-140341028Y-92019380D01*
X-140198171Y-91971761D01*
X-140150552Y-91924142D01*
X-140150552Y-91590809D01*
X-140341028Y-91590809D01*
X-139769600Y-91733666D02*
X-139293409Y-91733666D01*
X-139864838Y-92019380D02*
X-139531504Y-91019380D01*
X-139198171Y-92019380D01*
X-138388647Y-92019380D02*
X-138864838Y-92019380D01*
X-138864838Y-91019380D01*
X-137531504Y-92019380D02*
X-138102933Y-92019380D01*
X-137817219Y-92019380D02*
X-137817219Y-91019380D01*
X-137912457Y-91162238D01*
X-138007695Y-91257476D01*
X-138102933Y-91305095D01*
X-136674361Y-91019380D02*
X-136864838Y-91019380D01*
X-136960076Y-91067000D01*
X-137007695Y-91114619D01*
X-137102933Y-91257476D01*
X-137150552Y-91447952D01*
X-137150552Y-91828904D01*
X-137102933Y-91924142D01*
X-137055314Y-91971761D01*
X-136960076Y-92019380D01*
X-136769600Y-92019380D01*
X-136674361Y-91971761D01*
X-136626742Y-91924142D01*
X-136579123Y-91828904D01*
X-136579123Y-91590809D01*
X-136626742Y-91495571D01*
X-136674361Y-91447952D01*
X-136769600Y-91400333D01*
X-136960076Y-91400333D01*
X-137055314Y-91447952D01*
X-137102933Y-91495571D01*
X-137150552Y-91590809D01*
X-136293409Y-91019380D02*
X-135960076Y-92019380D01*
X-135626742Y-91019380D01*
X-135150552Y-91447952D02*
X-135245790Y-91400333D01*
X-135293409Y-91352714D01*
X-135341028Y-91257476D01*
X-135341028Y-91209857D01*
X-135293409Y-91114619D01*
X-135245790Y-91067000D01*
X-135150552Y-91019380D01*
X-134960076Y-91019380D01*
X-134864838Y-91067000D01*
X-134817219Y-91114619D01*
X-134769600Y-91209857D01*
X-134769600Y-91257476D01*
X-134817219Y-91352714D01*
X-134864838Y-91400333D01*
X-134960076Y-91447952D01*
X-135150552Y-91447952D01*
X-135245790Y-91495571D01*
X-135293409Y-91543190D01*
X-135341028Y-91638428D01*
X-135341028Y-91828904D01*
X-135293409Y-91924142D01*
X-135245790Y-91971761D01*
X-135150552Y-92019380D01*
X-134960076Y-92019380D01*
X-134864838Y-91971761D01*
X-134817219Y-91924142D01*
X-134769600Y-91828904D01*
X-134769600Y-91638428D01*
X-134817219Y-91543190D01*
X-134864838Y-91495571D01*
X-134960076Y-91447952D01*
X-108881466Y-80000860D02*
X-108214800Y-80000860D01*
X-108643371Y-81000860D01*
X-107405276Y-80334194D02*
X-107405276Y-81000860D01*
X-107643371Y-79953241D02*
X-107881466Y-80667527D01*
X-107262419Y-80667527D01*
X-106881466Y-81000860D02*
X-106881466Y-80000860D01*
X-106881466Y-80477051D02*
X-106310038Y-80477051D01*
X-106310038Y-81000860D02*
X-106310038Y-80000860D01*
X-105262419Y-80905622D02*
X-105310038Y-80953241D01*
X-105452895Y-81000860D01*
X-105548133Y-81000860D01*
X-105690990Y-80953241D01*
X-105786228Y-80858003D01*
X-105833847Y-80762765D01*
X-105881466Y-80572289D01*
X-105881466Y-80429432D01*
X-105833847Y-80238956D01*
X-105786228Y-80143718D01*
X-105690990Y-80048480D01*
X-105548133Y-80000860D01*
X-105452895Y-80000860D01*
X-105310038Y-80048480D01*
X-105262419Y-80096099D01*
X-104976704Y-80000860D02*
X-104405276Y-80000860D01*
X-104690990Y-81000860D02*
X-104690990Y-80000860D01*
X-103881466Y-80000860D02*
X-103786228Y-80000860D01*
X-103690990Y-80048480D01*
X-103643371Y-80096099D01*
X-103595752Y-80191337D01*
X-103548133Y-80381813D01*
X-103548133Y-80619908D01*
X-103595752Y-80810384D01*
X-103643371Y-80905622D01*
X-103690990Y-80953241D01*
X-103786228Y-81000860D01*
X-103881466Y-81000860D01*
X-103976704Y-80953241D01*
X-104024323Y-80905622D01*
X-104071942Y-80810384D01*
X-104119561Y-80619908D01*
X-104119561Y-80381813D01*
X-104071942Y-80191337D01*
X-104024323Y-80096099D01*
X-103976704Y-80048480D01*
X-103881466Y-80000860D01*
X-102690990Y-80334194D02*
X-102690990Y-81000860D01*
X-102929085Y-79953241D02*
X-103167180Y-80667527D01*
X-102548133Y-80667527D01*
X-85838586Y-80031340D02*
X-85171920Y-80031340D01*
X-85600491Y-81031340D01*
X-84362396Y-80364674D02*
X-84362396Y-81031340D01*
X-84600491Y-79983721D02*
X-84838586Y-80698007D01*
X-84219539Y-80698007D01*
X-83838586Y-81031340D02*
X-83838586Y-80031340D01*
X-83838586Y-80507531D02*
X-83267158Y-80507531D01*
X-83267158Y-81031340D02*
X-83267158Y-80031340D01*
X-82219539Y-80936102D02*
X-82267158Y-80983721D01*
X-82410015Y-81031340D01*
X-82505253Y-81031340D01*
X-82648110Y-80983721D01*
X-82743348Y-80888483D01*
X-82790967Y-80793245D01*
X-82838586Y-80602769D01*
X-82838586Y-80459912D01*
X-82790967Y-80269436D01*
X-82743348Y-80174198D01*
X-82648110Y-80078960D01*
X-82505253Y-80031340D01*
X-82410015Y-80031340D01*
X-82267158Y-80078960D01*
X-82219539Y-80126579D01*
X-81933824Y-80031340D02*
X-81362396Y-80031340D01*
X-81648110Y-81031340D02*
X-81648110Y-80031340D01*
X-80838586Y-80031340D02*
X-80743348Y-80031340D01*
X-80648110Y-80078960D01*
X-80600491Y-80126579D01*
X-80552872Y-80221817D01*
X-80505253Y-80412293D01*
X-80505253Y-80650388D01*
X-80552872Y-80840864D01*
X-80600491Y-80936102D01*
X-80648110Y-80983721D01*
X-80743348Y-81031340D01*
X-80838586Y-81031340D01*
X-80933824Y-80983721D01*
X-80981443Y-80936102D01*
X-81029062Y-80840864D01*
X-81076681Y-80650388D01*
X-81076681Y-80412293D01*
X-81029062Y-80221817D01*
X-80981443Y-80126579D01*
X-80933824Y-80078960D01*
X-80838586Y-80031340D01*
X-79886205Y-80031340D02*
X-79790967Y-80031340D01*
X-79695729Y-80078960D01*
X-79648110Y-80126579D01*
X-79600491Y-80221817D01*
X-79552872Y-80412293D01*
X-79552872Y-80650388D01*
X-79600491Y-80840864D01*
X-79648110Y-80936102D01*
X-79695729Y-80983721D01*
X-79790967Y-81031340D01*
X-79886205Y-81031340D01*
X-79981443Y-80983721D01*
X-80029062Y-80936102D01*
X-80076681Y-80840864D01*
X-80124300Y-80650388D01*
X-80124300Y-80412293D01*
X-80076681Y-80221817D01*
X-80029062Y-80126579D01*
X-79981443Y-80078960D01*
X-79886205Y-80031340D01*
X-112770847Y-91120980D02*
X-112104180Y-91120980D01*
X-112532752Y-92120980D01*
X-111294657Y-91454314D02*
X-111294657Y-92120980D01*
X-111532752Y-91073361D02*
X-111770847Y-91787647D01*
X-111151800Y-91787647D01*
X-110294657Y-92120980D02*
X-110770847Y-92120980D01*
X-110770847Y-91120980D01*
X-110008942Y-92073361D02*
X-109866085Y-92120980D01*
X-109627990Y-92120980D01*
X-109532752Y-92073361D01*
X-109485133Y-92025742D01*
X-109437514Y-91930504D01*
X-109437514Y-91835266D01*
X-109485133Y-91740028D01*
X-109532752Y-91692409D01*
X-109627990Y-91644790D01*
X-109818466Y-91597171D01*
X-109913704Y-91549552D01*
X-109961323Y-91501933D01*
X-110008942Y-91406695D01*
X-110008942Y-91311457D01*
X-109961323Y-91216219D01*
X-109913704Y-91168600D01*
X-109818466Y-91120980D01*
X-109580371Y-91120980D01*
X-109437514Y-91168600D01*
X-108485133Y-92120980D02*
X-109056561Y-92120980D01*
X-108770847Y-92120980D02*
X-108770847Y-91120980D01*
X-108866085Y-91263838D01*
X-108961323Y-91359076D01*
X-109056561Y-91406695D01*
X-107580371Y-91120980D02*
X-108056561Y-91120980D01*
X-108104180Y-91597171D01*
X-108056561Y-91549552D01*
X-107961323Y-91501933D01*
X-107723228Y-91501933D01*
X-107627990Y-91549552D01*
X-107580371Y-91597171D01*
X-107532752Y-91692409D01*
X-107532752Y-91930504D01*
X-107580371Y-92025742D01*
X-107627990Y-92073361D01*
X-107723228Y-92120980D01*
X-107961323Y-92120980D01*
X-108056561Y-92073361D01*
X-108104180Y-92025742D01*
X-107199419Y-91120980D02*
X-106532752Y-91120980D01*
X-106961323Y-92120980D01*
X-87218447Y-91222580D02*
X-86551780Y-91222580D01*
X-86980352Y-92222580D01*
X-85742257Y-91555914D02*
X-85742257Y-92222580D01*
X-85980352Y-91174961D02*
X-86218447Y-91889247D01*
X-85599400Y-91889247D01*
X-84742257Y-92222580D02*
X-85218447Y-92222580D01*
X-85218447Y-91222580D01*
X-84456542Y-92174961D02*
X-84313685Y-92222580D01*
X-84075590Y-92222580D01*
X-83980352Y-92174961D01*
X-83932733Y-92127342D01*
X-83885114Y-92032104D01*
X-83885114Y-91936866D01*
X-83932733Y-91841628D01*
X-83980352Y-91794009D01*
X-84075590Y-91746390D01*
X-84266066Y-91698771D01*
X-84361304Y-91651152D01*
X-84408923Y-91603533D01*
X-84456542Y-91508295D01*
X-84456542Y-91413057D01*
X-84408923Y-91317819D01*
X-84361304Y-91270200D01*
X-84266066Y-91222580D01*
X-84027971Y-91222580D01*
X-83885114Y-91270200D01*
X-82932733Y-92222580D02*
X-83504161Y-92222580D01*
X-83218447Y-92222580D02*
X-83218447Y-91222580D01*
X-83313685Y-91365438D01*
X-83408923Y-91460676D01*
X-83504161Y-91508295D01*
X-82027971Y-91222580D02*
X-82504161Y-91222580D01*
X-82551780Y-91698771D01*
X-82504161Y-91651152D01*
X-82408923Y-91603533D01*
X-82170828Y-91603533D01*
X-82075590Y-91651152D01*
X-82027971Y-91698771D01*
X-81980352Y-91794009D01*
X-81980352Y-92032104D01*
X-82027971Y-92127342D01*
X-82075590Y-92174961D01*
X-82170828Y-92222580D01*
X-82408923Y-92222580D01*
X-82504161Y-92174961D01*
X-82551780Y-92127342D01*
X-81647019Y-91222580D02*
X-80980352Y-91222580D01*
X-81408923Y-92222580D01*
X-145016147Y-57631080D02*
X-144349480Y-57631080D01*
X-144778052Y-58631080D01*
X-143539957Y-57964414D02*
X-143539957Y-58631080D01*
X-143778052Y-57583461D02*
X-144016147Y-58297747D01*
X-143397100Y-58297747D01*
X-142539957Y-58631080D02*
X-143016147Y-58631080D01*
X-143016147Y-57631080D01*
X-142254242Y-58583461D02*
X-142111385Y-58631080D01*
X-141873290Y-58631080D01*
X-141778052Y-58583461D01*
X-141730433Y-58535842D01*
X-141682814Y-58440604D01*
X-141682814Y-58345366D01*
X-141730433Y-58250128D01*
X-141778052Y-58202509D01*
X-141873290Y-58154890D01*
X-142063766Y-58107271D01*
X-142159004Y-58059652D01*
X-142206623Y-58012033D01*
X-142254242Y-57916795D01*
X-142254242Y-57821557D01*
X-142206623Y-57726319D01*
X-142159004Y-57678700D01*
X-142063766Y-57631080D01*
X-141825671Y-57631080D01*
X-141682814Y-57678700D01*
X-140730433Y-58631080D02*
X-141301861Y-58631080D01*
X-141016147Y-58631080D02*
X-141016147Y-57631080D01*
X-141111385Y-57773938D01*
X-141206623Y-57869176D01*
X-141301861Y-57916795D01*
X-139873290Y-57631080D02*
X-140063766Y-57631080D01*
X-140159004Y-57678700D01*
X-140206623Y-57726319D01*
X-140301861Y-57869176D01*
X-140349480Y-58059652D01*
X-140349480Y-58440604D01*
X-140301861Y-58535842D01*
X-140254242Y-58583461D01*
X-140159004Y-58631080D01*
X-139968528Y-58631080D01*
X-139873290Y-58583461D01*
X-139825671Y-58535842D01*
X-139778052Y-58440604D01*
X-139778052Y-58202509D01*
X-139825671Y-58107271D01*
X-139873290Y-58059652D01*
X-139968528Y-58012033D01*
X-140159004Y-58012033D01*
X-140254242Y-58059652D01*
X-140301861Y-58107271D01*
X-140349480Y-58202509D01*
X-139301861Y-58631080D02*
X-139111385Y-58631080D01*
X-139016147Y-58583461D01*
X-138968528Y-58535842D01*
X-138873290Y-58392985D01*
X-138825671Y-58202509D01*
X-138825671Y-57821557D01*
X-138873290Y-57726319D01*
X-138920909Y-57678700D01*
X-139016147Y-57631080D01*
X-139206623Y-57631080D01*
X-139301861Y-57678700D01*
X-139349480Y-57726319D01*
X-139397100Y-57821557D01*
X-139397100Y-58059652D01*
X-139349480Y-58154890D01*
X-139301861Y-58202509D01*
X-139206623Y-58250128D01*
X-139016147Y-58250128D01*
X-138920909Y-58202509D01*
X-138873290Y-58154890D01*
X-138825671Y-58059652D01*
X-144774847Y-46124880D02*
X-144108180Y-46124880D01*
X-144536752Y-47124880D01*
X-143298657Y-46458214D02*
X-143298657Y-47124880D01*
X-143536752Y-46077261D02*
X-143774847Y-46791547D01*
X-143155800Y-46791547D01*
X-142298657Y-47124880D02*
X-142774847Y-47124880D01*
X-142774847Y-46124880D01*
X-142012942Y-47077261D02*
X-141870085Y-47124880D01*
X-141631990Y-47124880D01*
X-141536752Y-47077261D01*
X-141489133Y-47029642D01*
X-141441514Y-46934404D01*
X-141441514Y-46839166D01*
X-141489133Y-46743928D01*
X-141536752Y-46696309D01*
X-141631990Y-46648690D01*
X-141822466Y-46601071D01*
X-141917704Y-46553452D01*
X-141965323Y-46505833D01*
X-142012942Y-46410595D01*
X-142012942Y-46315357D01*
X-141965323Y-46220119D01*
X-141917704Y-46172500D01*
X-141822466Y-46124880D01*
X-141584371Y-46124880D01*
X-141441514Y-46172500D01*
X-140489133Y-47124880D02*
X-141060561Y-47124880D01*
X-140774847Y-47124880D02*
X-140774847Y-46124880D01*
X-140870085Y-46267738D01*
X-140965323Y-46362976D01*
X-141060561Y-46410595D01*
X-139631990Y-46124880D02*
X-139822466Y-46124880D01*
X-139917704Y-46172500D01*
X-139965323Y-46220119D01*
X-140060561Y-46362976D01*
X-140108180Y-46553452D01*
X-140108180Y-46934404D01*
X-140060561Y-47029642D01*
X-140012942Y-47077261D01*
X-139917704Y-47124880D01*
X-139727228Y-47124880D01*
X-139631990Y-47077261D01*
X-139584371Y-47029642D01*
X-139536752Y-46934404D01*
X-139536752Y-46696309D01*
X-139584371Y-46601071D01*
X-139631990Y-46553452D01*
X-139727228Y-46505833D01*
X-139917704Y-46505833D01*
X-140012942Y-46553452D01*
X-140060561Y-46601071D01*
X-140108180Y-46696309D01*
X-139060561Y-47124880D02*
X-138870085Y-47124880D01*
X-138774847Y-47077261D01*
X-138727228Y-47029642D01*
X-138631990Y-46886785D01*
X-138584371Y-46696309D01*
X-138584371Y-46315357D01*
X-138631990Y-46220119D01*
X-138679609Y-46172500D01*
X-138774847Y-46124880D01*
X-138965323Y-46124880D01*
X-139060561Y-46172500D01*
X-139108180Y-46220119D01*
X-139155800Y-46315357D01*
X-139155800Y-46553452D01*
X-139108180Y-46648690D01*
X-139060561Y-46696309D01*
X-138965323Y-46743928D01*
X-138774847Y-46743928D01*
X-138679609Y-46696309D01*
X-138631990Y-46648690D01*
X-138584371Y-46553452D01*
X-144495447Y-68489580D02*
X-143828780Y-68489580D01*
X-144257352Y-69489580D01*
X-143019257Y-68822914D02*
X-143019257Y-69489580D01*
X-143257352Y-68441961D02*
X-143495447Y-69156247D01*
X-142876400Y-69156247D01*
X-142019257Y-69489580D02*
X-142495447Y-69489580D01*
X-142495447Y-68489580D01*
X-141733542Y-69441961D02*
X-141590685Y-69489580D01*
X-141352590Y-69489580D01*
X-141257352Y-69441961D01*
X-141209733Y-69394342D01*
X-141162114Y-69299104D01*
X-141162114Y-69203866D01*
X-141209733Y-69108628D01*
X-141257352Y-69061009D01*
X-141352590Y-69013390D01*
X-141543066Y-68965771D01*
X-141638304Y-68918152D01*
X-141685923Y-68870533D01*
X-141733542Y-68775295D01*
X-141733542Y-68680057D01*
X-141685923Y-68584819D01*
X-141638304Y-68537200D01*
X-141543066Y-68489580D01*
X-141304971Y-68489580D01*
X-141162114Y-68537200D01*
X-140257352Y-68489580D02*
X-140733542Y-68489580D01*
X-140781161Y-68965771D01*
X-140733542Y-68918152D01*
X-140638304Y-68870533D01*
X-140400209Y-68870533D01*
X-140304971Y-68918152D01*
X-140257352Y-68965771D01*
X-140209733Y-69061009D01*
X-140209733Y-69299104D01*
X-140257352Y-69394342D01*
X-140304971Y-69441961D01*
X-140400209Y-69489580D01*
X-140638304Y-69489580D01*
X-140733542Y-69441961D01*
X-140781161Y-69394342D01*
X-139352590Y-68822914D02*
X-139352590Y-69489580D01*
X-139590685Y-68441961D02*
X-139828780Y-69156247D01*
X-139209733Y-69156247D01*
X-138304971Y-69489580D02*
X-138876400Y-69489580D01*
X-138590685Y-69489580D02*
X-138590685Y-68489580D01*
X-138685923Y-68632438D01*
X-138781161Y-68727676D01*
X-138876400Y-68775295D01*
X-118435047Y-57326280D02*
X-117768380Y-57326280D01*
X-118196952Y-58326280D01*
X-116958857Y-57659614D02*
X-116958857Y-58326280D01*
X-117196952Y-57278661D02*
X-117435047Y-57992947D01*
X-116816000Y-57992947D01*
X-115958857Y-58326280D02*
X-116435047Y-58326280D01*
X-116435047Y-57326280D01*
X-115673142Y-58278661D02*
X-115530285Y-58326280D01*
X-115292190Y-58326280D01*
X-115196952Y-58278661D01*
X-115149333Y-58231042D01*
X-115101714Y-58135804D01*
X-115101714Y-58040566D01*
X-115149333Y-57945328D01*
X-115196952Y-57897709D01*
X-115292190Y-57850090D01*
X-115482666Y-57802471D01*
X-115577904Y-57754852D01*
X-115625523Y-57707233D01*
X-115673142Y-57611995D01*
X-115673142Y-57516757D01*
X-115625523Y-57421519D01*
X-115577904Y-57373900D01*
X-115482666Y-57326280D01*
X-115244571Y-57326280D01*
X-115101714Y-57373900D01*
X-114149333Y-58326280D02*
X-114720761Y-58326280D01*
X-114435047Y-58326280D02*
X-114435047Y-57326280D01*
X-114530285Y-57469138D01*
X-114625523Y-57564376D01*
X-114720761Y-57611995D01*
X-113292190Y-57326280D02*
X-113482666Y-57326280D01*
X-113577904Y-57373900D01*
X-113625523Y-57421519D01*
X-113720761Y-57564376D01*
X-113768380Y-57754852D01*
X-113768380Y-58135804D01*
X-113720761Y-58231042D01*
X-113673142Y-58278661D01*
X-113577904Y-58326280D01*
X-113387428Y-58326280D01*
X-113292190Y-58278661D01*
X-113244571Y-58231042D01*
X-113196952Y-58135804D01*
X-113196952Y-57897709D01*
X-113244571Y-57802471D01*
X-113292190Y-57754852D01*
X-113387428Y-57707233D01*
X-113577904Y-57707233D01*
X-113673142Y-57754852D01*
X-113720761Y-57802471D01*
X-113768380Y-57897709D01*
X-112720761Y-58326280D02*
X-112530285Y-58326280D01*
X-112435047Y-58278661D01*
X-112387428Y-58231042D01*
X-112292190Y-58088185D01*
X-112244571Y-57897709D01*
X-112244571Y-57516757D01*
X-112292190Y-57421519D01*
X-112339809Y-57373900D01*
X-112435047Y-57326280D01*
X-112625523Y-57326280D01*
X-112720761Y-57373900D01*
X-112768380Y-57421519D01*
X-112816000Y-57516757D01*
X-112816000Y-57754852D01*
X-112768380Y-57850090D01*
X-112720761Y-57897709D01*
X-112625523Y-57945328D01*
X-112435047Y-57945328D01*
X-112339809Y-57897709D01*
X-112292190Y-57850090D01*
X-112244571Y-57754852D01*
X-118358847Y-46277280D02*
X-117692180Y-46277280D01*
X-118120752Y-47277280D01*
X-116882657Y-46610614D02*
X-116882657Y-47277280D01*
X-117120752Y-46229661D02*
X-117358847Y-46943947D01*
X-116739800Y-46943947D01*
X-115882657Y-47277280D02*
X-116358847Y-47277280D01*
X-116358847Y-46277280D01*
X-115596942Y-47229661D02*
X-115454085Y-47277280D01*
X-115215990Y-47277280D01*
X-115120752Y-47229661D01*
X-115073133Y-47182042D01*
X-115025514Y-47086804D01*
X-115025514Y-46991566D01*
X-115073133Y-46896328D01*
X-115120752Y-46848709D01*
X-115215990Y-46801090D01*
X-115406466Y-46753471D01*
X-115501704Y-46705852D01*
X-115549323Y-46658233D01*
X-115596942Y-46562995D01*
X-115596942Y-46467757D01*
X-115549323Y-46372519D01*
X-115501704Y-46324900D01*
X-115406466Y-46277280D01*
X-115168371Y-46277280D01*
X-115025514Y-46324900D01*
X-114073133Y-47277280D02*
X-114644561Y-47277280D01*
X-114358847Y-47277280D02*
X-114358847Y-46277280D01*
X-114454085Y-46420138D01*
X-114549323Y-46515376D01*
X-114644561Y-46562995D01*
X-113215990Y-46277280D02*
X-113406466Y-46277280D01*
X-113501704Y-46324900D01*
X-113549323Y-46372519D01*
X-113644561Y-46515376D01*
X-113692180Y-46705852D01*
X-113692180Y-47086804D01*
X-113644561Y-47182042D01*
X-113596942Y-47229661D01*
X-113501704Y-47277280D01*
X-113311228Y-47277280D01*
X-113215990Y-47229661D01*
X-113168371Y-47182042D01*
X-113120752Y-47086804D01*
X-113120752Y-46848709D01*
X-113168371Y-46753471D01*
X-113215990Y-46705852D01*
X-113311228Y-46658233D01*
X-113501704Y-46658233D01*
X-113596942Y-46705852D01*
X-113644561Y-46753471D01*
X-113692180Y-46848709D01*
X-112644561Y-47277280D02*
X-112454085Y-47277280D01*
X-112358847Y-47229661D01*
X-112311228Y-47182042D01*
X-112215990Y-47039185D01*
X-112168371Y-46848709D01*
X-112168371Y-46467757D01*
X-112215990Y-46372519D01*
X-112263609Y-46324900D01*
X-112358847Y-46277280D01*
X-112549323Y-46277280D01*
X-112644561Y-46324900D01*
X-112692180Y-46372519D01*
X-112739800Y-46467757D01*
X-112739800Y-46705852D01*
X-112692180Y-46801090D01*
X-112644561Y-46848709D01*
X-112549323Y-46896328D01*
X-112358847Y-46896328D01*
X-112263609Y-46848709D01*
X-112215990Y-46801090D01*
X-112168371Y-46705852D01*
X-117952447Y-68845180D02*
X-117285780Y-68845180D01*
X-117714352Y-69845180D01*
X-116476257Y-69178514D02*
X-116476257Y-69845180D01*
X-116714352Y-68797561D02*
X-116952447Y-69511847D01*
X-116333400Y-69511847D01*
X-115476257Y-69845180D02*
X-115952447Y-69845180D01*
X-115952447Y-68845180D01*
X-115190542Y-69797561D02*
X-115047685Y-69845180D01*
X-114809590Y-69845180D01*
X-114714352Y-69797561D01*
X-114666733Y-69749942D01*
X-114619114Y-69654704D01*
X-114619114Y-69559466D01*
X-114666733Y-69464228D01*
X-114714352Y-69416609D01*
X-114809590Y-69368990D01*
X-115000066Y-69321371D01*
X-115095304Y-69273752D01*
X-115142923Y-69226133D01*
X-115190542Y-69130895D01*
X-115190542Y-69035657D01*
X-115142923Y-68940419D01*
X-115095304Y-68892800D01*
X-115000066Y-68845180D01*
X-114761971Y-68845180D01*
X-114619114Y-68892800D01*
X-113714352Y-68845180D02*
X-114190542Y-68845180D01*
X-114238161Y-69321371D01*
X-114190542Y-69273752D01*
X-114095304Y-69226133D01*
X-113857209Y-69226133D01*
X-113761971Y-69273752D01*
X-113714352Y-69321371D01*
X-113666733Y-69416609D01*
X-113666733Y-69654704D01*
X-113714352Y-69749942D01*
X-113761971Y-69797561D01*
X-113857209Y-69845180D01*
X-114095304Y-69845180D01*
X-114190542Y-69797561D01*
X-114238161Y-69749942D01*
X-112809590Y-69178514D02*
X-112809590Y-69845180D01*
X-113047685Y-68797561D02*
X-113285780Y-69511847D01*
X-112666733Y-69511847D01*
X-111761971Y-69845180D02*
X-112333400Y-69845180D01*
X-112047685Y-69845180D02*
X-112047685Y-68845180D01*
X-112142923Y-68988038D01*
X-112238161Y-69083276D01*
X-112333400Y-69130895D01*
X-91574547Y-57427880D02*
X-90907880Y-57427880D01*
X-91336452Y-58427880D01*
X-90098357Y-57761214D02*
X-90098357Y-58427880D01*
X-90336452Y-57380261D02*
X-90574547Y-58094547D01*
X-89955500Y-58094547D01*
X-89098357Y-58427880D02*
X-89574547Y-58427880D01*
X-89574547Y-57427880D01*
X-88812642Y-58380261D02*
X-88669785Y-58427880D01*
X-88431690Y-58427880D01*
X-88336452Y-58380261D01*
X-88288833Y-58332642D01*
X-88241214Y-58237404D01*
X-88241214Y-58142166D01*
X-88288833Y-58046928D01*
X-88336452Y-57999309D01*
X-88431690Y-57951690D01*
X-88622166Y-57904071D01*
X-88717404Y-57856452D01*
X-88765023Y-57808833D01*
X-88812642Y-57713595D01*
X-88812642Y-57618357D01*
X-88765023Y-57523119D01*
X-88717404Y-57475500D01*
X-88622166Y-57427880D01*
X-88384071Y-57427880D01*
X-88241214Y-57475500D01*
X-87288833Y-58427880D02*
X-87860261Y-58427880D01*
X-87574547Y-58427880D02*
X-87574547Y-57427880D01*
X-87669785Y-57570738D01*
X-87765023Y-57665976D01*
X-87860261Y-57713595D01*
X-86431690Y-57427880D02*
X-86622166Y-57427880D01*
X-86717404Y-57475500D01*
X-86765023Y-57523119D01*
X-86860261Y-57665976D01*
X-86907880Y-57856452D01*
X-86907880Y-58237404D01*
X-86860261Y-58332642D01*
X-86812642Y-58380261D01*
X-86717404Y-58427880D01*
X-86526928Y-58427880D01*
X-86431690Y-58380261D01*
X-86384071Y-58332642D01*
X-86336452Y-58237404D01*
X-86336452Y-57999309D01*
X-86384071Y-57904071D01*
X-86431690Y-57856452D01*
X-86526928Y-57808833D01*
X-86717404Y-57808833D01*
X-86812642Y-57856452D01*
X-86860261Y-57904071D01*
X-86907880Y-57999309D01*
X-85860261Y-58427880D02*
X-85669785Y-58427880D01*
X-85574547Y-58380261D01*
X-85526928Y-58332642D01*
X-85431690Y-58189785D01*
X-85384071Y-57999309D01*
X-85384071Y-57618357D01*
X-85431690Y-57523119D01*
X-85479309Y-57475500D01*
X-85574547Y-57427880D01*
X-85765023Y-57427880D01*
X-85860261Y-57475500D01*
X-85907880Y-57523119D01*
X-85955500Y-57618357D01*
X-85955500Y-57856452D01*
X-85907880Y-57951690D01*
X-85860261Y-57999309D01*
X-85765023Y-58046928D01*
X-85574547Y-58046928D01*
X-85479309Y-57999309D01*
X-85431690Y-57951690D01*
X-85384071Y-57856452D01*
X-91587247Y-46086780D02*
X-90920580Y-46086780D01*
X-91349152Y-47086780D01*
X-90111057Y-46420114D02*
X-90111057Y-47086780D01*
X-90349152Y-46039161D02*
X-90587247Y-46753447D01*
X-89968200Y-46753447D01*
X-89111057Y-47086780D02*
X-89587247Y-47086780D01*
X-89587247Y-46086780D01*
X-88825342Y-47039161D02*
X-88682485Y-47086780D01*
X-88444390Y-47086780D01*
X-88349152Y-47039161D01*
X-88301533Y-46991542D01*
X-88253914Y-46896304D01*
X-88253914Y-46801066D01*
X-88301533Y-46705828D01*
X-88349152Y-46658209D01*
X-88444390Y-46610590D01*
X-88634866Y-46562971D01*
X-88730104Y-46515352D01*
X-88777723Y-46467733D01*
X-88825342Y-46372495D01*
X-88825342Y-46277257D01*
X-88777723Y-46182019D01*
X-88730104Y-46134400D01*
X-88634866Y-46086780D01*
X-88396771Y-46086780D01*
X-88253914Y-46134400D01*
X-87301533Y-47086780D02*
X-87872961Y-47086780D01*
X-87587247Y-47086780D02*
X-87587247Y-46086780D01*
X-87682485Y-46229638D01*
X-87777723Y-46324876D01*
X-87872961Y-46372495D01*
X-86444390Y-46086780D02*
X-86634866Y-46086780D01*
X-86730104Y-46134400D01*
X-86777723Y-46182019D01*
X-86872961Y-46324876D01*
X-86920580Y-46515352D01*
X-86920580Y-46896304D01*
X-86872961Y-46991542D01*
X-86825342Y-47039161D01*
X-86730104Y-47086780D01*
X-86539628Y-47086780D01*
X-86444390Y-47039161D01*
X-86396771Y-46991542D01*
X-86349152Y-46896304D01*
X-86349152Y-46658209D01*
X-86396771Y-46562971D01*
X-86444390Y-46515352D01*
X-86539628Y-46467733D01*
X-86730104Y-46467733D01*
X-86825342Y-46515352D01*
X-86872961Y-46562971D01*
X-86920580Y-46658209D01*
X-85872961Y-47086780D02*
X-85682485Y-47086780D01*
X-85587247Y-47039161D01*
X-85539628Y-46991542D01*
X-85444390Y-46848685D01*
X-85396771Y-46658209D01*
X-85396771Y-46277257D01*
X-85444390Y-46182019D01*
X-85492009Y-46134400D01*
X-85587247Y-46086780D01*
X-85777723Y-46086780D01*
X-85872961Y-46134400D01*
X-85920580Y-46182019D01*
X-85968200Y-46277257D01*
X-85968200Y-46515352D01*
X-85920580Y-46610590D01*
X-85872961Y-46658209D01*
X-85777723Y-46705828D01*
X-85587247Y-46705828D01*
X-85492009Y-46658209D01*
X-85444390Y-46610590D01*
X-85396771Y-46515352D01*
X-91511047Y-68692780D02*
X-90844380Y-68692780D01*
X-91272952Y-69692780D01*
X-90034857Y-69026114D02*
X-90034857Y-69692780D01*
X-90272952Y-68645161D02*
X-90511047Y-69359447D01*
X-89892000Y-69359447D01*
X-89034857Y-69692780D02*
X-89511047Y-69692780D01*
X-89511047Y-68692780D01*
X-88749142Y-69645161D02*
X-88606285Y-69692780D01*
X-88368190Y-69692780D01*
X-88272952Y-69645161D01*
X-88225333Y-69597542D01*
X-88177714Y-69502304D01*
X-88177714Y-69407066D01*
X-88225333Y-69311828D01*
X-88272952Y-69264209D01*
X-88368190Y-69216590D01*
X-88558666Y-69168971D01*
X-88653904Y-69121352D01*
X-88701523Y-69073733D01*
X-88749142Y-68978495D01*
X-88749142Y-68883257D01*
X-88701523Y-68788019D01*
X-88653904Y-68740400D01*
X-88558666Y-68692780D01*
X-88320571Y-68692780D01*
X-88177714Y-68740400D01*
X-87272952Y-68692780D02*
X-87749142Y-68692780D01*
X-87796761Y-69168971D01*
X-87749142Y-69121352D01*
X-87653904Y-69073733D01*
X-87415809Y-69073733D01*
X-87320571Y-69121352D01*
X-87272952Y-69168971D01*
X-87225333Y-69264209D01*
X-87225333Y-69502304D01*
X-87272952Y-69597542D01*
X-87320571Y-69645161D01*
X-87415809Y-69692780D01*
X-87653904Y-69692780D01*
X-87749142Y-69645161D01*
X-87796761Y-69597542D01*
X-86368190Y-69026114D02*
X-86368190Y-69692780D01*
X-86606285Y-68645161D02*
X-86844380Y-69359447D01*
X-86225333Y-69359447D01*
X-85320571Y-69692780D02*
X-85892000Y-69692780D01*
X-85606285Y-69692780D02*
X-85606285Y-68692780D01*
X-85701523Y-68835638D01*
X-85796761Y-68930876D01*
X-85892000Y-68978495D01*
M02*
