G04 #@! TF.GenerationSoftware,KiCad,Pcbnew,(5.1.4-0-10_14)*
G04 #@! TF.CreationDate,2020-02-04T19:49:50-08:00*
G04 #@! TF.ProjectId,address-register-bank,61646472-6573-4732-9d72-656769737465,rev?*
G04 #@! TF.SameCoordinates,Original*
G04 #@! TF.FileFunction,Soldermask,Bot*
G04 #@! TF.FilePolarity,Negative*
%FSLAX46Y46*%
G04 Gerber Fmt 4.6, Leading zero omitted, Abs format (unit mm)*
G04 Created by KiCad (PCBNEW (5.1.4-0-10_14)) date 2020-02-04 19:49:50*
%MOMM*%
%LPD*%
G04 APERTURE LIST*
%ADD10R,1.600000X1.600000*%
%ADD11O,1.600000X1.600000*%
%ADD12C,1.800000*%
%ADD13R,1.800000X1.800000*%
%ADD14C,1.600000*%
%ADD15R,1.700000X1.700000*%
%ADD16O,1.700000X1.700000*%
G04 APERTURE END LIST*
D10*
X-148859240Y-84256880D03*
D11*
X-120919240Y-76636880D03*
X-146319240Y-84256880D03*
X-123459240Y-76636880D03*
X-143779240Y-84256880D03*
X-125999240Y-76636880D03*
X-141239240Y-84256880D03*
X-128539240Y-76636880D03*
X-138699240Y-84256880D03*
X-131079240Y-76636880D03*
X-136159240Y-84256880D03*
X-133619240Y-76636880D03*
X-133619240Y-84256880D03*
X-136159240Y-76636880D03*
X-131079240Y-84256880D03*
X-138699240Y-76636880D03*
X-128539240Y-84256880D03*
X-141239240Y-76636880D03*
X-125999240Y-84256880D03*
X-143779240Y-76636880D03*
X-123459240Y-84256880D03*
X-146319240Y-76636880D03*
X-120919240Y-84256880D03*
X-148859240Y-76636880D03*
X-145486120Y-28102560D03*
X-142946120Y-28102560D03*
X-140406120Y-28102560D03*
X-137866120Y-28102560D03*
D10*
X-135326120Y-28102560D03*
D11*
X-68199000Y-54229000D03*
X-50419000Y-61849000D03*
X-65659000Y-54229000D03*
X-52959000Y-61849000D03*
X-63119000Y-54229000D03*
X-55499000Y-61849000D03*
X-60579000Y-54229000D03*
X-58039000Y-61849000D03*
X-58039000Y-54229000D03*
X-60579000Y-61849000D03*
X-55499000Y-54229000D03*
X-63119000Y-61849000D03*
X-52959000Y-54229000D03*
X-65659000Y-61849000D03*
X-50419000Y-54229000D03*
D10*
X-68199000Y-61849000D03*
D11*
X-73279000Y-65405000D03*
X-50419000Y-73025000D03*
X-70739000Y-65405000D03*
X-52959000Y-73025000D03*
X-68199000Y-65405000D03*
X-55499000Y-73025000D03*
X-65659000Y-65405000D03*
X-58039000Y-73025000D03*
X-63119000Y-65405000D03*
X-60579000Y-73025000D03*
X-60579000Y-65405000D03*
X-63119000Y-73025000D03*
X-58039000Y-65405000D03*
X-65659000Y-73025000D03*
X-55499000Y-65405000D03*
X-68199000Y-73025000D03*
X-52959000Y-65405000D03*
X-70739000Y-73025000D03*
X-50419000Y-65405000D03*
D10*
X-73279000Y-73025000D03*
X-68199000Y-50673000D03*
D11*
X-50419000Y-43053000D03*
X-65659000Y-50673000D03*
X-52959000Y-43053000D03*
X-63119000Y-50673000D03*
X-55499000Y-43053000D03*
X-60579000Y-50673000D03*
X-58039000Y-43053000D03*
X-58039000Y-50673000D03*
X-60579000Y-43053000D03*
X-55499000Y-50673000D03*
X-63119000Y-43053000D03*
X-52959000Y-50673000D03*
X-65659000Y-43053000D03*
X-50419000Y-50673000D03*
X-68199000Y-43053000D03*
D12*
X-71323200Y-31978600D03*
D13*
X-71323200Y-34518600D03*
D11*
X-64312800Y-85907880D03*
D14*
X-64312800Y-96067880D03*
D12*
X-64277240Y-79974440D03*
D13*
X-64277240Y-82514440D03*
D12*
X-67675760Y-79974440D03*
D13*
X-67675760Y-82514440D03*
D12*
X-71140320Y-79908400D03*
D13*
X-71140320Y-82448400D03*
D12*
X-60792360Y-79938880D03*
D13*
X-60792360Y-82478880D03*
D12*
X-50241200Y-31978600D03*
D13*
X-50241200Y-34518600D03*
D12*
X-53263800Y-31978600D03*
D13*
X-53263800Y-34518600D03*
D12*
X-56261000Y-31978600D03*
D13*
X-56261000Y-34518600D03*
D12*
X-59283600Y-31978600D03*
D13*
X-59283600Y-34518600D03*
D12*
X-62306200Y-31978600D03*
D13*
X-62306200Y-34518600D03*
D12*
X-65328800Y-31978600D03*
D13*
X-65328800Y-34518600D03*
D12*
X-68326000Y-31978600D03*
D13*
X-68326000Y-34518600D03*
D12*
X-55346600Y-22225000D03*
D13*
X-55346600Y-24765000D03*
D12*
X-62763400Y-22225000D03*
D13*
X-62763400Y-24765000D03*
D12*
X-66217800Y-22225000D03*
D13*
X-66217800Y-24765000D03*
D12*
X-76784200Y-31902400D03*
D13*
X-76784200Y-34442400D03*
D12*
X-79781400Y-31902400D03*
D13*
X-79781400Y-34442400D03*
D12*
X-82778600Y-31902400D03*
D13*
X-82778600Y-34442400D03*
D12*
X-85801200Y-31902400D03*
D13*
X-85801200Y-34442400D03*
D12*
X-88823800Y-31902400D03*
D13*
X-88823800Y-34442400D03*
D12*
X-91846400Y-31902400D03*
D13*
X-91846400Y-34442400D03*
D12*
X-94843600Y-31902400D03*
D13*
X-94843600Y-34442400D03*
D12*
X-97840800Y-31902400D03*
D13*
X-97840800Y-34442400D03*
D12*
X-81915000Y-22225000D03*
D13*
X-81915000Y-24765000D03*
D12*
X-89306400Y-22225000D03*
D13*
X-89306400Y-24765000D03*
D12*
X-92786200Y-22225000D03*
D13*
X-92786200Y-24765000D03*
D12*
X-103505000Y-31978600D03*
D13*
X-103505000Y-34518600D03*
D12*
X-106502200Y-31978600D03*
D13*
X-106502200Y-34518600D03*
D12*
X-109499400Y-31978600D03*
D13*
X-109499400Y-34518600D03*
D12*
X-112522000Y-31978600D03*
D13*
X-112522000Y-34518600D03*
D12*
X-115570000Y-31978600D03*
D13*
X-115570000Y-34518600D03*
D12*
X-118592600Y-31978600D03*
D13*
X-118592600Y-34518600D03*
D12*
X-121564400Y-31978600D03*
D13*
X-121564400Y-34518600D03*
D12*
X-124561600Y-31978600D03*
D13*
X-124561600Y-34518600D03*
D12*
X-108432600Y-21894800D03*
D13*
X-108432600Y-24434800D03*
D12*
X-115824000Y-21894800D03*
D13*
X-115824000Y-24434800D03*
D12*
X-119278400Y-21894800D03*
D13*
X-119278400Y-24434800D03*
D12*
X-130073400Y-31953200D03*
D13*
X-130073400Y-34493200D03*
D12*
X-133070600Y-31953200D03*
D13*
X-133070600Y-34493200D03*
D12*
X-136067800Y-31953200D03*
D13*
X-136067800Y-34493200D03*
D12*
X-139090400Y-31953200D03*
D13*
X-139090400Y-34493200D03*
D12*
X-142138400Y-31953200D03*
D13*
X-142138400Y-34493200D03*
D12*
X-145161000Y-31953200D03*
D13*
X-145161000Y-34493200D03*
D12*
X-148132800Y-31953200D03*
D13*
X-148132800Y-34493200D03*
D12*
X-151130000Y-31953200D03*
D13*
X-151130000Y-34493200D03*
D12*
X-134975600Y-21971000D03*
D13*
X-134975600Y-24511000D03*
D12*
X-142341600Y-21971000D03*
D13*
X-142341600Y-24511000D03*
D12*
X-145796000Y-21971000D03*
D13*
X-145796000Y-24511000D03*
D14*
X-72263000Y-45553000D03*
X-72263000Y-43053000D03*
X-72263000Y-56729000D03*
X-72263000Y-54229000D03*
X-72136000Y-62444000D03*
X-72136000Y-59944000D03*
X-98806000Y-45553000D03*
X-98806000Y-43053000D03*
X-125476000Y-45553000D03*
X-125476000Y-43053000D03*
X-151638000Y-45553000D03*
X-151638000Y-43053000D03*
X-98806000Y-56642000D03*
X-98806000Y-54142000D03*
X-125349000Y-56348000D03*
X-125349000Y-53848000D03*
X-151638000Y-62317000D03*
X-151638000Y-59817000D03*
X-98806000Y-62317000D03*
X-98806000Y-59817000D03*
X-125349000Y-62317000D03*
X-125349000Y-59817000D03*
X-151638000Y-56729000D03*
X-151638000Y-54229000D03*
X-93502480Y-78603480D03*
X-93502480Y-76103480D03*
X-116428520Y-78740640D03*
X-116428520Y-76240640D03*
X-96083120Y-90104600D03*
X-96083120Y-87604600D03*
X-151902160Y-78689840D03*
X-151902160Y-76189840D03*
X-121513600Y-89774400D03*
X-121513600Y-87274400D03*
X-152120600Y-90003000D03*
X-152120600Y-87503000D03*
D15*
X-147751800Y-103286560D03*
D16*
X-145211800Y-103286560D03*
X-142671800Y-103286560D03*
X-140131800Y-103286560D03*
X-137591800Y-103286560D03*
X-135051800Y-103286560D03*
X-132511800Y-103286560D03*
X-129971800Y-103286560D03*
X-127431800Y-103286560D03*
X-124891800Y-103286560D03*
X-122351800Y-103286560D03*
X-119811800Y-103286560D03*
X-117271800Y-103286560D03*
X-114731800Y-103286560D03*
X-112191800Y-103286560D03*
X-109651800Y-103286560D03*
X-107111800Y-103286560D03*
X-104571800Y-103286560D03*
X-102031800Y-103286560D03*
X-99491800Y-103286560D03*
X-96951800Y-103286560D03*
X-94411800Y-103286560D03*
X-91871800Y-103286560D03*
X-89331800Y-103286560D03*
X-86791800Y-103286560D03*
X-84251800Y-103286560D03*
X-81711800Y-103286560D03*
X-79171800Y-103286560D03*
X-76631800Y-103286560D03*
X-74091800Y-103286560D03*
X-71551800Y-103286560D03*
X-69011800Y-103286560D03*
X-66471800Y-103286560D03*
X-63931800Y-103286560D03*
X-61391800Y-103286560D03*
X-58851800Y-103286560D03*
X-56311800Y-103286560D03*
X-53771800Y-103286560D03*
D15*
X-50800000Y-95351600D03*
D16*
X-53340000Y-95351600D03*
X-55880000Y-95351600D03*
X-55880000Y-89662000D03*
X-53340000Y-89662000D03*
D15*
X-50800000Y-89662000D03*
D14*
X-60792360Y-96078040D03*
D11*
X-60792360Y-85918040D03*
X-71302880Y-85907880D03*
D14*
X-71302880Y-96067880D03*
X-67741800Y-96067880D03*
D11*
X-67741800Y-85907880D03*
X-150769320Y-38079680D03*
X-148229320Y-38079680D03*
X-145689320Y-38079680D03*
X-143149320Y-38079680D03*
X-140609320Y-38079680D03*
X-138069320Y-38079680D03*
X-135529320Y-38079680D03*
X-132989320Y-38079680D03*
D10*
X-130449320Y-38079680D03*
X-108783120Y-28127960D03*
D11*
X-111323120Y-28127960D03*
X-113863120Y-28127960D03*
X-116403120Y-28127960D03*
X-118943120Y-28127960D03*
D10*
X-103840280Y-38018720D03*
D11*
X-106380280Y-38018720D03*
X-108920280Y-38018720D03*
X-111460280Y-38018720D03*
X-114000280Y-38018720D03*
X-116540280Y-38018720D03*
X-119080280Y-38018720D03*
X-121620280Y-38018720D03*
X-124160280Y-38018720D03*
X-92329000Y-28280360D03*
X-89789000Y-28280360D03*
X-87249000Y-28280360D03*
X-84709000Y-28280360D03*
D10*
X-82169000Y-28280360D03*
D11*
X-97500440Y-38074600D03*
X-94960440Y-38074600D03*
X-92420440Y-38074600D03*
X-89880440Y-38074600D03*
X-87340440Y-38074600D03*
X-84800440Y-38074600D03*
X-82260440Y-38074600D03*
X-79720440Y-38074600D03*
D10*
X-77180440Y-38074600D03*
X-55768240Y-28249880D03*
D11*
X-58308240Y-28249880D03*
X-60848240Y-28249880D03*
X-63388240Y-28249880D03*
X-65928240Y-28249880D03*
D10*
X-50627280Y-37988240D03*
D11*
X-53167280Y-37988240D03*
X-55707280Y-37988240D03*
X-58247280Y-37988240D03*
X-60787280Y-37988240D03*
X-63327280Y-37988240D03*
X-65867280Y-37988240D03*
X-68407280Y-37988240D03*
X-70947280Y-37988240D03*
D10*
X-148920200Y-95427800D03*
D11*
X-126060200Y-87807800D03*
X-146380200Y-95427800D03*
X-128600200Y-87807800D03*
X-143840200Y-95427800D03*
X-131140200Y-87807800D03*
X-141300200Y-95427800D03*
X-133680200Y-87807800D03*
X-138760200Y-95427800D03*
X-136220200Y-87807800D03*
X-136220200Y-95427800D03*
X-138760200Y-87807800D03*
X-133680200Y-95427800D03*
X-141300200Y-87807800D03*
X-131140200Y-95427800D03*
X-143840200Y-87807800D03*
X-128600200Y-95427800D03*
X-146380200Y-87807800D03*
X-126060200Y-95427800D03*
X-148920200Y-87807800D03*
D10*
X-113284000Y-84282280D03*
D11*
X-98044000Y-76662280D03*
X-110744000Y-84282280D03*
X-100584000Y-76662280D03*
X-108204000Y-84282280D03*
X-103124000Y-76662280D03*
X-105664000Y-84282280D03*
X-105664000Y-76662280D03*
X-103124000Y-84282280D03*
X-108204000Y-76662280D03*
X-100584000Y-84282280D03*
X-110744000Y-76662280D03*
X-98044000Y-84282280D03*
X-113284000Y-76662280D03*
X-90368120Y-76565760D03*
X-75128120Y-84185760D03*
X-87828120Y-76565760D03*
X-77668120Y-84185760D03*
X-85288120Y-76565760D03*
X-80208120Y-84185760D03*
X-82748120Y-76565760D03*
X-82748120Y-84185760D03*
X-80208120Y-76565760D03*
X-85288120Y-84185760D03*
X-77668120Y-76565760D03*
X-87828120Y-84185760D03*
X-75128120Y-76565760D03*
D10*
X-90368120Y-84185760D03*
D11*
X-118541800Y-87909400D03*
X-100761800Y-95529400D03*
X-116001800Y-87909400D03*
X-103301800Y-95529400D03*
X-113461800Y-87909400D03*
X-105841800Y-95529400D03*
X-110921800Y-87909400D03*
X-108381800Y-95529400D03*
X-108381800Y-87909400D03*
X-110921800Y-95529400D03*
X-105841800Y-87909400D03*
X-113461800Y-95529400D03*
X-103301800Y-87909400D03*
X-116001800Y-95529400D03*
X-100761800Y-87909400D03*
D10*
X-118541800Y-95529400D03*
X-92837000Y-95631000D03*
D11*
X-75057000Y-88011000D03*
X-90297000Y-95631000D03*
X-77597000Y-88011000D03*
X-87757000Y-95631000D03*
X-80137000Y-88011000D03*
X-85217000Y-95631000D03*
X-82677000Y-88011000D03*
X-82677000Y-95631000D03*
X-85217000Y-88011000D03*
X-80137000Y-95631000D03*
X-87757000Y-88011000D03*
X-77597000Y-95631000D03*
X-90297000Y-88011000D03*
X-75057000Y-95631000D03*
X-92837000Y-88011000D03*
X-147955000Y-54229000D03*
X-130175000Y-61849000D03*
X-145415000Y-54229000D03*
X-132715000Y-61849000D03*
X-142875000Y-54229000D03*
X-135255000Y-61849000D03*
X-140335000Y-54229000D03*
X-137795000Y-61849000D03*
X-137795000Y-54229000D03*
X-140335000Y-61849000D03*
X-135255000Y-54229000D03*
X-142875000Y-61849000D03*
X-132715000Y-54229000D03*
X-145415000Y-61849000D03*
X-130175000Y-54229000D03*
D10*
X-147955000Y-61849000D03*
D11*
X-147955000Y-43053000D03*
X-130175000Y-50673000D03*
X-145415000Y-43053000D03*
X-132715000Y-50673000D03*
X-142875000Y-43053000D03*
X-135255000Y-50673000D03*
X-140335000Y-43053000D03*
X-137795000Y-50673000D03*
X-137795000Y-43053000D03*
X-140335000Y-50673000D03*
X-135255000Y-43053000D03*
X-142875000Y-50673000D03*
X-132715000Y-43053000D03*
X-145415000Y-50673000D03*
X-130175000Y-43053000D03*
D10*
X-147955000Y-50673000D03*
X-152908000Y-73025000D03*
D11*
X-130048000Y-65405000D03*
X-150368000Y-73025000D03*
X-132588000Y-65405000D03*
X-147828000Y-73025000D03*
X-135128000Y-65405000D03*
X-145288000Y-73025000D03*
X-137668000Y-65405000D03*
X-142748000Y-73025000D03*
X-140208000Y-65405000D03*
X-140208000Y-73025000D03*
X-142748000Y-65405000D03*
X-137668000Y-73025000D03*
X-145288000Y-65405000D03*
X-135128000Y-73025000D03*
X-147828000Y-65405000D03*
X-132588000Y-73025000D03*
X-150368000Y-65405000D03*
X-130048000Y-73025000D03*
X-152908000Y-65405000D03*
D10*
X-121412000Y-61849000D03*
D11*
X-103632000Y-54229000D03*
X-118872000Y-61849000D03*
X-106172000Y-54229000D03*
X-116332000Y-61849000D03*
X-108712000Y-54229000D03*
X-113792000Y-61849000D03*
X-111252000Y-54229000D03*
X-111252000Y-61849000D03*
X-113792000Y-54229000D03*
X-108712000Y-61849000D03*
X-116332000Y-54229000D03*
X-106172000Y-61849000D03*
X-118872000Y-54229000D03*
X-103632000Y-61849000D03*
X-121412000Y-54229000D03*
D10*
X-121412000Y-50673000D03*
D11*
X-103632000Y-43053000D03*
X-118872000Y-50673000D03*
X-106172000Y-43053000D03*
X-116332000Y-50673000D03*
X-108712000Y-43053000D03*
X-113792000Y-50673000D03*
X-111252000Y-43053000D03*
X-111252000Y-50673000D03*
X-113792000Y-43053000D03*
X-108712000Y-50673000D03*
X-116332000Y-43053000D03*
X-106172000Y-50673000D03*
X-118872000Y-43053000D03*
X-103632000Y-50673000D03*
X-121412000Y-43053000D03*
X-126365000Y-65405000D03*
X-103505000Y-73025000D03*
X-123825000Y-65405000D03*
X-106045000Y-73025000D03*
X-121285000Y-65405000D03*
X-108585000Y-73025000D03*
X-118745000Y-65405000D03*
X-111125000Y-73025000D03*
X-116205000Y-65405000D03*
X-113665000Y-73025000D03*
X-113665000Y-65405000D03*
X-116205000Y-73025000D03*
X-111125000Y-65405000D03*
X-118745000Y-73025000D03*
X-108585000Y-65405000D03*
X-121285000Y-73025000D03*
X-106045000Y-65405000D03*
X-123825000Y-73025000D03*
X-103505000Y-65405000D03*
D10*
X-126365000Y-73025000D03*
D11*
X-94869000Y-54229000D03*
X-77089000Y-61849000D03*
X-92329000Y-54229000D03*
X-79629000Y-61849000D03*
X-89789000Y-54229000D03*
X-82169000Y-61849000D03*
X-87249000Y-54229000D03*
X-84709000Y-61849000D03*
X-84709000Y-54229000D03*
X-87249000Y-61849000D03*
X-82169000Y-54229000D03*
X-89789000Y-61849000D03*
X-79629000Y-54229000D03*
X-92329000Y-61849000D03*
X-77089000Y-54229000D03*
D10*
X-94869000Y-61849000D03*
X-94869000Y-50673000D03*
D11*
X-77089000Y-43053000D03*
X-92329000Y-50673000D03*
X-79629000Y-43053000D03*
X-89789000Y-50673000D03*
X-82169000Y-43053000D03*
X-87249000Y-50673000D03*
X-84709000Y-43053000D03*
X-84709000Y-50673000D03*
X-87249000Y-43053000D03*
X-82169000Y-50673000D03*
X-89789000Y-43053000D03*
X-79629000Y-50673000D03*
X-92329000Y-43053000D03*
X-77089000Y-50673000D03*
X-94869000Y-43053000D03*
D10*
X-99822000Y-73025000D03*
D11*
X-76962000Y-65405000D03*
X-97282000Y-73025000D03*
X-79502000Y-65405000D03*
X-94742000Y-73025000D03*
X-82042000Y-65405000D03*
X-92202000Y-73025000D03*
X-84582000Y-65405000D03*
X-89662000Y-73025000D03*
X-87122000Y-65405000D03*
X-87122000Y-73025000D03*
X-89662000Y-65405000D03*
X-84582000Y-73025000D03*
X-92202000Y-65405000D03*
X-82042000Y-73025000D03*
X-94742000Y-65405000D03*
X-79502000Y-73025000D03*
X-97282000Y-65405000D03*
X-76962000Y-73025000D03*
X-99822000Y-65405000D03*
M02*
