G04 #@! TF.GenerationSoftware,KiCad,Pcbnew,(5.1.4-0-10_14)*
G04 #@! TF.CreationDate,2019-12-15T08:51:47-08:00*
G04 #@! TF.ProjectId,ram-32-word,72616d2d-3332-42d7-976f-72642e6b6963,rev?*
G04 #@! TF.SameCoordinates,Original*
G04 #@! TF.FileFunction,Legend,Bot*
G04 #@! TF.FilePolarity,Positive*
%FSLAX46Y46*%
G04 Gerber Fmt 4.6, Leading zero omitted, Abs format (unit mm)*
G04 Created by KiCad (PCBNEW (5.1.4-0-10_14)) date 2019-12-15 08:51:47*
%MOMM*%
%LPD*%
G04 APERTURE LIST*
%ADD10C,0.150000*%
G04 APERTURE END LIST*
D10*
X152978190Y-106085190D02*
X152978190Y-106561380D01*
X153311523Y-105561380D02*
X152978190Y-106085190D01*
X152644857Y-105561380D01*
X152359142Y-106275666D02*
X151882952Y-106275666D01*
X152454380Y-106561380D02*
X152121047Y-105561380D01*
X151787714Y-106561380D01*
X151025809Y-105894714D02*
X151025809Y-106561380D01*
X151263904Y-105513761D02*
X151502000Y-106228047D01*
X150882952Y-106228047D01*
X150168666Y-106037571D02*
X150025809Y-106085190D01*
X149978190Y-106132809D01*
X149930571Y-106228047D01*
X149930571Y-106370904D01*
X149978190Y-106466142D01*
X150025809Y-106513761D01*
X150121047Y-106561380D01*
X150502000Y-106561380D01*
X150502000Y-105561380D01*
X150168666Y-105561380D01*
X150073428Y-105609000D01*
X150025809Y-105656619D01*
X149978190Y-105751857D01*
X149978190Y-105847095D01*
X150025809Y-105942333D01*
X150073428Y-105989952D01*
X150168666Y-106037571D01*
X150502000Y-106037571D01*
X148835333Y-105561380D02*
X148216285Y-105561380D01*
X148549619Y-105942333D01*
X148406761Y-105942333D01*
X148311523Y-105989952D01*
X148263904Y-106037571D01*
X148216285Y-106132809D01*
X148216285Y-106370904D01*
X148263904Y-106466142D01*
X148311523Y-106513761D01*
X148406761Y-106561380D01*
X148692476Y-106561380D01*
X148787714Y-106513761D01*
X148835333Y-106466142D01*
X147835333Y-105656619D02*
X147787714Y-105609000D01*
X147692476Y-105561380D01*
X147454380Y-105561380D01*
X147359142Y-105609000D01*
X147311523Y-105656619D01*
X147263904Y-105751857D01*
X147263904Y-105847095D01*
X147311523Y-105989952D01*
X147882952Y-106561380D01*
X147263904Y-106561380D01*
X146835333Y-106180428D02*
X146073428Y-106180428D01*
X145692476Y-105894714D02*
X145502000Y-106561380D01*
X145311523Y-106085190D01*
X145121047Y-106561380D01*
X144930571Y-105894714D01*
X144406761Y-106561380D02*
X144502000Y-106513761D01*
X144549619Y-106466142D01*
X144597238Y-106370904D01*
X144597238Y-106085190D01*
X144549619Y-105989952D01*
X144502000Y-105942333D01*
X144406761Y-105894714D01*
X144263904Y-105894714D01*
X144168666Y-105942333D01*
X144121047Y-105989952D01*
X144073428Y-106085190D01*
X144073428Y-106370904D01*
X144121047Y-106466142D01*
X144168666Y-106513761D01*
X144263904Y-106561380D01*
X144406761Y-106561380D01*
X143644857Y-106561380D02*
X143644857Y-105894714D01*
X143644857Y-106085190D02*
X143597238Y-105989952D01*
X143549619Y-105942333D01*
X143454380Y-105894714D01*
X143359142Y-105894714D01*
X142597238Y-106561380D02*
X142597238Y-105561380D01*
X142597238Y-106513761D02*
X142692476Y-106561380D01*
X142882952Y-106561380D01*
X142978190Y-106513761D01*
X143025809Y-106466142D01*
X143073428Y-106370904D01*
X143073428Y-106085190D01*
X143025809Y-105989952D01*
X142978190Y-105942333D01*
X142882952Y-105894714D01*
X142692476Y-105894714D01*
X142597238Y-105942333D01*
X140787714Y-106561380D02*
X141121047Y-106085190D01*
X141359142Y-106561380D02*
X141359142Y-105561380D01*
X140978190Y-105561380D01*
X140882952Y-105609000D01*
X140835333Y-105656619D01*
X140787714Y-105751857D01*
X140787714Y-105894714D01*
X140835333Y-105989952D01*
X140882952Y-106037571D01*
X140978190Y-106085190D01*
X141359142Y-106085190D01*
X140406761Y-106275666D02*
X139930571Y-106275666D01*
X140502000Y-106561380D02*
X140168666Y-105561380D01*
X139835333Y-106561380D01*
X139502000Y-106561380D02*
X139502000Y-105561380D01*
X139168666Y-106275666D01*
X138835333Y-105561380D01*
X138835333Y-106561380D01*
X137597238Y-106561380D02*
X137597238Y-105561380D01*
X137263904Y-106275666D01*
X136930571Y-105561380D01*
X136930571Y-106561380D01*
X136311523Y-106561380D02*
X136406761Y-106513761D01*
X136454380Y-106466142D01*
X136502000Y-106370904D01*
X136502000Y-106085190D01*
X136454380Y-105989952D01*
X136406761Y-105942333D01*
X136311523Y-105894714D01*
X136168666Y-105894714D01*
X136073428Y-105942333D01*
X136025809Y-105989952D01*
X135978190Y-106085190D01*
X135978190Y-106370904D01*
X136025809Y-106466142D01*
X136073428Y-106513761D01*
X136168666Y-106561380D01*
X136311523Y-106561380D01*
X135121047Y-106561380D02*
X135121047Y-105561380D01*
X135121047Y-106513761D02*
X135216285Y-106561380D01*
X135406761Y-106561380D01*
X135502000Y-106513761D01*
X135549619Y-106466142D01*
X135597238Y-106370904D01*
X135597238Y-106085190D01*
X135549619Y-105989952D01*
X135502000Y-105942333D01*
X135406761Y-105894714D01*
X135216285Y-105894714D01*
X135121047Y-105942333D01*
X134216285Y-105894714D02*
X134216285Y-106561380D01*
X134644857Y-105894714D02*
X134644857Y-106418523D01*
X134597238Y-106513761D01*
X134502000Y-106561380D01*
X134359142Y-106561380D01*
X134263904Y-106513761D01*
X134216285Y-106466142D01*
X133597238Y-106561380D02*
X133692476Y-106513761D01*
X133740095Y-106418523D01*
X133740095Y-105561380D01*
X132835333Y-106513761D02*
X132930571Y-106561380D01*
X133121047Y-106561380D01*
X133216285Y-106513761D01*
X133263904Y-106418523D01*
X133263904Y-106037571D01*
X133216285Y-105942333D01*
X133121047Y-105894714D01*
X132930571Y-105894714D01*
X132835333Y-105942333D01*
X132787714Y-106037571D01*
X132787714Y-106132809D01*
X133263904Y-106228047D01*
X151002000Y-107449476D02*
X151097238Y-107401857D01*
X151287714Y-107401857D01*
X151382952Y-107449476D01*
X151478190Y-107544714D01*
X151525809Y-107639952D01*
X151525809Y-107830428D01*
X151478190Y-107925666D01*
X151382952Y-108020904D01*
X151287714Y-108068523D01*
X151097238Y-108068523D01*
X151002000Y-108020904D01*
X151192476Y-107068523D02*
X151430571Y-107116142D01*
X151668666Y-107259000D01*
X151811523Y-107497095D01*
X151859142Y-107735190D01*
X151811523Y-107973285D01*
X151668666Y-108211380D01*
X151430571Y-108354238D01*
X151192476Y-108401857D01*
X150954380Y-108354238D01*
X150716285Y-108211380D01*
X150573428Y-107973285D01*
X150525809Y-107735190D01*
X150573428Y-107497095D01*
X150716285Y-107259000D01*
X150954380Y-107116142D01*
X151192476Y-107068523D01*
X149382952Y-107306619D02*
X149335333Y-107259000D01*
X149240095Y-107211380D01*
X149002000Y-107211380D01*
X148906761Y-107259000D01*
X148859142Y-107306619D01*
X148811523Y-107401857D01*
X148811523Y-107497095D01*
X148859142Y-107639952D01*
X149430571Y-108211380D01*
X148811523Y-108211380D01*
X148192476Y-107211380D02*
X148097238Y-107211380D01*
X148002000Y-107259000D01*
X147954380Y-107306619D01*
X147906761Y-107401857D01*
X147859142Y-107592333D01*
X147859142Y-107830428D01*
X147906761Y-108020904D01*
X147954380Y-108116142D01*
X148002000Y-108163761D01*
X148097238Y-108211380D01*
X148192476Y-108211380D01*
X148287714Y-108163761D01*
X148335333Y-108116142D01*
X148382952Y-108020904D01*
X148430571Y-107830428D01*
X148430571Y-107592333D01*
X148382952Y-107401857D01*
X148335333Y-107306619D01*
X148287714Y-107259000D01*
X148192476Y-107211380D01*
X146906761Y-108211380D02*
X147478190Y-108211380D01*
X147192476Y-108211380D02*
X147192476Y-107211380D01*
X147287714Y-107354238D01*
X147382952Y-107449476D01*
X147478190Y-107497095D01*
X146430571Y-108211380D02*
X146240095Y-108211380D01*
X146144857Y-108163761D01*
X146097238Y-108116142D01*
X146002000Y-107973285D01*
X145954380Y-107782809D01*
X145954380Y-107401857D01*
X146002000Y-107306619D01*
X146049619Y-107259000D01*
X146144857Y-107211380D01*
X146335333Y-107211380D01*
X146430571Y-107259000D01*
X146478190Y-107306619D01*
X146525809Y-107401857D01*
X146525809Y-107639952D01*
X146478190Y-107735190D01*
X146430571Y-107782809D01*
X146335333Y-107830428D01*
X146144857Y-107830428D01*
X146049619Y-107782809D01*
X146002000Y-107735190D01*
X145954380Y-107639952D01*
X144240095Y-107259000D02*
X144335333Y-107211380D01*
X144478190Y-107211380D01*
X144621047Y-107259000D01*
X144716285Y-107354238D01*
X144763904Y-107449476D01*
X144811523Y-107639952D01*
X144811523Y-107782809D01*
X144763904Y-107973285D01*
X144716285Y-108068523D01*
X144621047Y-108163761D01*
X144478190Y-108211380D01*
X144382952Y-108211380D01*
X144240095Y-108163761D01*
X144192476Y-108116142D01*
X144192476Y-107782809D01*
X144382952Y-107782809D01*
X143763904Y-108211380D02*
X143763904Y-107544714D01*
X143763904Y-107735190D02*
X143716285Y-107639952D01*
X143668666Y-107592333D01*
X143573428Y-107544714D01*
X143478190Y-107544714D01*
X142763904Y-108163761D02*
X142859142Y-108211380D01*
X143049619Y-108211380D01*
X143144857Y-108163761D01*
X143192476Y-108068523D01*
X143192476Y-107687571D01*
X143144857Y-107592333D01*
X143049619Y-107544714D01*
X142859142Y-107544714D01*
X142763904Y-107592333D01*
X142716285Y-107687571D01*
X142716285Y-107782809D01*
X143192476Y-107878047D01*
X141859142Y-107544714D02*
X141859142Y-108354238D01*
X141906761Y-108449476D01*
X141954380Y-108497095D01*
X142049619Y-108544714D01*
X142192476Y-108544714D01*
X142287714Y-108497095D01*
X141859142Y-108163761D02*
X141954380Y-108211380D01*
X142144857Y-108211380D01*
X142240095Y-108163761D01*
X142287714Y-108116142D01*
X142335333Y-108020904D01*
X142335333Y-107735190D01*
X142287714Y-107639952D01*
X142240095Y-107592333D01*
X142144857Y-107544714D01*
X141954380Y-107544714D01*
X141859142Y-107592333D01*
X141240095Y-108211380D02*
X141335333Y-108163761D01*
X141382952Y-108116142D01*
X141430571Y-108020904D01*
X141430571Y-107735190D01*
X141382952Y-107639952D01*
X141335333Y-107592333D01*
X141240095Y-107544714D01*
X141097238Y-107544714D01*
X141002000Y-107592333D01*
X140954380Y-107639952D01*
X140906761Y-107735190D01*
X140906761Y-108020904D01*
X140954380Y-108116142D01*
X141002000Y-108163761D01*
X141097238Y-108211380D01*
X141240095Y-108211380D01*
X140478190Y-108211380D02*
X140478190Y-107544714D01*
X140478190Y-107735190D02*
X140430571Y-107639952D01*
X140382952Y-107592333D01*
X140287714Y-107544714D01*
X140192476Y-107544714D01*
X139954380Y-107544714D02*
X139716285Y-108211380D01*
X139478190Y-107544714D02*
X139716285Y-108211380D01*
X139811523Y-108449476D01*
X139859142Y-108497095D01*
X139954380Y-108544714D01*
X138335333Y-108211380D02*
X138335333Y-107211380D01*
X138002000Y-107925666D01*
X137668666Y-107211380D01*
X137668666Y-108211380D01*
X136763904Y-108211380D02*
X136763904Y-107687571D01*
X136811523Y-107592333D01*
X136906761Y-107544714D01*
X137097238Y-107544714D01*
X137192476Y-107592333D01*
X136763904Y-108163761D02*
X136859142Y-108211380D01*
X137097238Y-108211380D01*
X137192476Y-108163761D01*
X137240095Y-108068523D01*
X137240095Y-107973285D01*
X137192476Y-107878047D01*
X137097238Y-107830428D01*
X136859142Y-107830428D01*
X136763904Y-107782809D01*
X136287714Y-108211380D02*
X136287714Y-107544714D01*
X136287714Y-107735190D02*
X136240095Y-107639952D01*
X136192476Y-107592333D01*
X136097238Y-107544714D01*
X136002000Y-107544714D01*
X135811523Y-107544714D02*
X135430571Y-107544714D01*
X135668666Y-107211380D02*
X135668666Y-108068523D01*
X135621047Y-108163761D01*
X135525809Y-108211380D01*
X135430571Y-108211380D01*
X135097238Y-108211380D02*
X135097238Y-107544714D01*
X135097238Y-107211380D02*
X135144857Y-107259000D01*
X135097238Y-107306619D01*
X135049619Y-107259000D01*
X135097238Y-107211380D01*
X135097238Y-107306619D01*
X134621047Y-107544714D02*
X134621047Y-108211380D01*
X134621047Y-107639952D02*
X134573428Y-107592333D01*
X134478190Y-107544714D01*
X134335333Y-107544714D01*
X134240095Y-107592333D01*
X134192476Y-107687571D01*
X134192476Y-108211380D01*
M02*
