M48
; DRILL file {KiCad (5.1.4-0-10_14)} date Sunday, December 15, 2019 at 08:52:22 AM
; FORMAT={-:-/ absolute / inch / decimal}
; #@! TF.CreationDate,2019-12-15T08:52:22-08:00
; #@! TF.GenerationSoftware,Kicad,Pcbnew,(5.1.4-0-10_14)
; #@! TF.FileFunction,Plated,1,2,PTH
FMAT,2
INCH
T1C0.0157
T2C0.0315
T3C0.0354
T4C0.0394
%
G90
G05
T1
X2.46Y-4.74
X3.28Y-4.58
X3.41Y-5.34
X3.6Y-5.34
X3.79Y-4.93
X3.79Y-5.01
X4.38Y-4.5
X4.45Y-4.98
X4.58Y-5.61
X4.87Y-4.68
X4.92Y-4.1248
X4.99Y-4.95
X5.06Y-5.33
X5.11Y-5.54
X5.22Y-5.57
T2
X5.4Y-5.13
X5.4Y-5.43
X5.5Y-5.13
X5.5Y-5.43
X5.6Y-5.13
X5.7Y-5.13
X5.7Y-5.43
X5.8Y-5.13
X5.9Y-5.13
X5.9Y-5.43
X6.0Y-5.43
X5.1Y-4.9
X6.0Y-5.13
X5.1Y-4.77
X5.5Y-4.77
X5.5Y-4.9
X5.1Y-4.51
X5.5Y-4.51
X5.5Y-4.38
X5.6Y-5.43
X5.1Y-4.38
X2.55Y-5.2716
X2.55Y-5.37
X2.76Y-5.16
X5.8Y-5.43
X2.76Y-5.46
X2.86Y-5.16
X2.86Y-5.46
X2.96Y-5.16
X2.96Y-5.46
X3.06Y-5.16
X4.58Y-5.38
X3.06Y-5.46
X3.16Y-5.16
X3.16Y-5.46
X3.26Y-5.16
X3.26Y-5.46
X3.36Y-5.16
X4.88Y-5.28
X5.69Y-4.38
X6.09Y-4.38
X4.0416Y-4.58
X4.14Y-4.58
X4.58Y-4.78
X4.58Y-4.88
X4.58Y-4.98
X4.58Y-5.08
X4.58Y-5.18
X4.58Y-5.28
X4.58Y-5.48
X4.88Y-4.78
X4.88Y-4.88
X4.88Y-4.98
X4.88Y-5.08
X3.36Y-5.46
X3.46Y-5.16
X3.46Y-5.46
X3.56Y-5.16
X3.56Y-5.46
X3.94Y-4.78
X5.69Y-4.77
X6.09Y-4.77
X4.88Y-5.18
X4.88Y-5.38
X4.88Y-5.48
X5.69Y-4.9
X6.09Y-4.9
X3.94Y-4.88
X3.94Y-4.98
X3.94Y-5.08
X3.94Y-5.18
X3.94Y-5.28
X3.94Y-5.38
X3.94Y-5.48
X4.24Y-4.78
X4.24Y-4.88
X4.24Y-4.98
X4.24Y-5.08
X3.66Y-5.16
X4.24Y-5.18
X4.24Y-5.28
X4.6716Y-4.59
X4.77Y-4.59
X5.1Y-4.64
X5.5Y-4.64
X5.22Y-5.3284
X5.69Y-4.51
X6.09Y-4.51
X5.69Y-4.64
X6.09Y-4.64
X4.24Y-5.38
X4.24Y-5.48
X3.66Y-5.46
X5.22Y-5.23
T3
X4.55Y-4.27
X4.55Y-4.37
X4.21Y-4.27
X4.21Y-4.37
X2.84Y-4.27
X2.84Y-4.37
X3.67Y-4.27
X3.67Y-4.37
X2.56Y-4.28
X2.56Y-4.38
X3.06Y-4.27
X3.06Y-4.37
X4.86Y-4.27
X4.86Y-4.37
X4.38Y-4.27
X4.38Y-4.37
X3.46Y-4.27
X3.46Y-4.37
X4.04Y-4.27
X4.04Y-4.37
T4
X2.96Y-4.74
X2.96Y-4.84
X2.96Y-4.94
X2.78Y-4.74
X2.78Y-4.84
X2.78Y-4.94
X2.5Y-5.75
X2.6Y-5.75
X2.7Y-5.75
X2.8Y-5.75
X2.9Y-5.75
X3.0Y-5.75
X3.1Y-5.75
X3.2Y-5.75
X3.3Y-5.75
X3.4Y-5.75
X3.5Y-5.75
X3.6Y-5.75
X3.7Y-5.75
X3.8Y-5.75
X3.9Y-5.75
X4.0Y-5.75
X4.1Y-5.75
X4.2Y-5.75
X4.3Y-5.75
X4.4Y-5.75
X4.5Y-5.75
X4.6Y-5.75
X4.7Y-5.75
X4.8Y-5.75
X4.9Y-5.75
X5.0Y-5.75
X5.1Y-5.75
X5.2Y-5.75
X5.3Y-5.75
X5.4Y-5.75
X5.5Y-5.75
X5.6Y-5.75
X5.7Y-5.75
X5.8Y-5.75
X5.9Y-5.75
X6.0Y-5.75
X6.1Y-5.75
X6.2Y-5.75
X2.6Y-4.74
X2.6Y-4.84
X2.6Y-4.94
T0
M30
