G04 #@! TF.GenerationSoftware,KiCad,Pcbnew,(5.1.4-0-10_14)*
G04 #@! TF.CreationDate,2019-12-15T08:51:47-08:00*
G04 #@! TF.ProjectId,ram-32-word,72616d2d-3332-42d7-976f-72642e6b6963,rev?*
G04 #@! TF.SameCoordinates,Original*
G04 #@! TF.FileFunction,Legend,Top*
G04 #@! TF.FilePolarity,Positive*
%FSLAX46Y46*%
G04 Gerber Fmt 4.6, Leading zero omitted, Abs format (unit mm)*
G04 Created by KiCad (PCBNEW (5.1.4-0-10_14)) date 2019-12-15 08:51:47*
%MOMM*%
%LPD*%
G04 APERTURE LIST*
%ADD10C,0.150000*%
%ADD11C,0.120000*%
G04 APERTURE END LIST*
D10*
X156932380Y-149653523D02*
X156932380Y-149034476D01*
X157313333Y-149367809D01*
X157313333Y-149224952D01*
X157360952Y-149129714D01*
X157408571Y-149082095D01*
X157503809Y-149034476D01*
X157741904Y-149034476D01*
X157837142Y-149082095D01*
X157884761Y-149129714D01*
X157932380Y-149224952D01*
X157932380Y-149510666D01*
X157884761Y-149605904D01*
X157837142Y-149653523D01*
X157360952Y-148463047D02*
X157313333Y-148558285D01*
X157265714Y-148605904D01*
X157170476Y-148653523D01*
X157122857Y-148653523D01*
X157027619Y-148605904D01*
X156980000Y-148558285D01*
X156932380Y-148463047D01*
X156932380Y-148272571D01*
X156980000Y-148177333D01*
X157027619Y-148129714D01*
X157122857Y-148082095D01*
X157170476Y-148082095D01*
X157265714Y-148129714D01*
X157313333Y-148177333D01*
X157360952Y-148272571D01*
X157360952Y-148463047D01*
X157408571Y-148558285D01*
X157456190Y-148605904D01*
X157551428Y-148653523D01*
X157741904Y-148653523D01*
X157837142Y-148605904D01*
X157884761Y-148558285D01*
X157932380Y-148463047D01*
X157932380Y-148272571D01*
X157884761Y-148177333D01*
X157837142Y-148129714D01*
X157741904Y-148082095D01*
X157551428Y-148082095D01*
X157456190Y-148129714D01*
X157408571Y-148177333D01*
X157360952Y-148272571D01*
X154392380Y-149653523D02*
X154392380Y-149034476D01*
X154773333Y-149367809D01*
X154773333Y-149224952D01*
X154820952Y-149129714D01*
X154868571Y-149082095D01*
X154963809Y-149034476D01*
X155201904Y-149034476D01*
X155297142Y-149082095D01*
X155344761Y-149129714D01*
X155392380Y-149224952D01*
X155392380Y-149510666D01*
X155344761Y-149605904D01*
X155297142Y-149653523D01*
X154392380Y-148701142D02*
X154392380Y-148034476D01*
X155392380Y-148463047D01*
X151852380Y-149653523D02*
X151852380Y-149034476D01*
X152233333Y-149367809D01*
X152233333Y-149224952D01*
X152280952Y-149129714D01*
X152328571Y-149082095D01*
X152423809Y-149034476D01*
X152661904Y-149034476D01*
X152757142Y-149082095D01*
X152804761Y-149129714D01*
X152852380Y-149224952D01*
X152852380Y-149510666D01*
X152804761Y-149605904D01*
X152757142Y-149653523D01*
X151852380Y-148177333D02*
X151852380Y-148367809D01*
X151900000Y-148463047D01*
X151947619Y-148510666D01*
X152090476Y-148605904D01*
X152280952Y-148653523D01*
X152661904Y-148653523D01*
X152757142Y-148605904D01*
X152804761Y-148558285D01*
X152852380Y-148463047D01*
X152852380Y-148272571D01*
X152804761Y-148177333D01*
X152757142Y-148129714D01*
X152661904Y-148082095D01*
X152423809Y-148082095D01*
X152328571Y-148129714D01*
X152280952Y-148177333D01*
X152233333Y-148272571D01*
X152233333Y-148463047D01*
X152280952Y-148558285D01*
X152328571Y-148605904D01*
X152423809Y-148653523D01*
X149312380Y-149653523D02*
X149312380Y-149034476D01*
X149693333Y-149367809D01*
X149693333Y-149224952D01*
X149740952Y-149129714D01*
X149788571Y-149082095D01*
X149883809Y-149034476D01*
X150121904Y-149034476D01*
X150217142Y-149082095D01*
X150264761Y-149129714D01*
X150312380Y-149224952D01*
X150312380Y-149510666D01*
X150264761Y-149605904D01*
X150217142Y-149653523D01*
X149312380Y-148129714D02*
X149312380Y-148605904D01*
X149788571Y-148653523D01*
X149740952Y-148605904D01*
X149693333Y-148510666D01*
X149693333Y-148272571D01*
X149740952Y-148177333D01*
X149788571Y-148129714D01*
X149883809Y-148082095D01*
X150121904Y-148082095D01*
X150217142Y-148129714D01*
X150264761Y-148177333D01*
X150312380Y-148272571D01*
X150312380Y-148510666D01*
X150264761Y-148605904D01*
X150217142Y-148653523D01*
X146772380Y-149653523D02*
X146772380Y-149034476D01*
X147153333Y-149367809D01*
X147153333Y-149224952D01*
X147200952Y-149129714D01*
X147248571Y-149082095D01*
X147343809Y-149034476D01*
X147581904Y-149034476D01*
X147677142Y-149082095D01*
X147724761Y-149129714D01*
X147772380Y-149224952D01*
X147772380Y-149510666D01*
X147724761Y-149605904D01*
X147677142Y-149653523D01*
X147105714Y-148177333D02*
X147772380Y-148177333D01*
X146724761Y-148415428D02*
X147439047Y-148653523D01*
X147439047Y-148034476D01*
X144232380Y-149653523D02*
X144232380Y-149034476D01*
X144613333Y-149367809D01*
X144613333Y-149224952D01*
X144660952Y-149129714D01*
X144708571Y-149082095D01*
X144803809Y-149034476D01*
X145041904Y-149034476D01*
X145137142Y-149082095D01*
X145184761Y-149129714D01*
X145232380Y-149224952D01*
X145232380Y-149510666D01*
X145184761Y-149605904D01*
X145137142Y-149653523D01*
X144232380Y-148701142D02*
X144232380Y-148082095D01*
X144613333Y-148415428D01*
X144613333Y-148272571D01*
X144660952Y-148177333D01*
X144708571Y-148129714D01*
X144803809Y-148082095D01*
X145041904Y-148082095D01*
X145137142Y-148129714D01*
X145184761Y-148177333D01*
X145232380Y-148272571D01*
X145232380Y-148558285D01*
X145184761Y-148653523D01*
X145137142Y-148701142D01*
X141692380Y-149653523D02*
X141692380Y-149034476D01*
X142073333Y-149367809D01*
X142073333Y-149224952D01*
X142120952Y-149129714D01*
X142168571Y-149082095D01*
X142263809Y-149034476D01*
X142501904Y-149034476D01*
X142597142Y-149082095D01*
X142644761Y-149129714D01*
X142692380Y-149224952D01*
X142692380Y-149510666D01*
X142644761Y-149605904D01*
X142597142Y-149653523D01*
X141787619Y-148653523D02*
X141740000Y-148605904D01*
X141692380Y-148510666D01*
X141692380Y-148272571D01*
X141740000Y-148177333D01*
X141787619Y-148129714D01*
X141882857Y-148082095D01*
X141978095Y-148082095D01*
X142120952Y-148129714D01*
X142692380Y-148701142D01*
X142692380Y-148082095D01*
X139152380Y-149653523D02*
X139152380Y-149034476D01*
X139533333Y-149367809D01*
X139533333Y-149224952D01*
X139580952Y-149129714D01*
X139628571Y-149082095D01*
X139723809Y-149034476D01*
X139961904Y-149034476D01*
X140057142Y-149082095D01*
X140104761Y-149129714D01*
X140152380Y-149224952D01*
X140152380Y-149510666D01*
X140104761Y-149605904D01*
X140057142Y-149653523D01*
X140152380Y-148082095D02*
X140152380Y-148653523D01*
X140152380Y-148367809D02*
X139152380Y-148367809D01*
X139295238Y-148463047D01*
X139390476Y-148558285D01*
X139438095Y-148653523D01*
X136612380Y-149653523D02*
X136612380Y-149034476D01*
X136993333Y-149367809D01*
X136993333Y-149224952D01*
X137040952Y-149129714D01*
X137088571Y-149082095D01*
X137183809Y-149034476D01*
X137421904Y-149034476D01*
X137517142Y-149082095D01*
X137564761Y-149129714D01*
X137612380Y-149224952D01*
X137612380Y-149510666D01*
X137564761Y-149605904D01*
X137517142Y-149653523D01*
X136612380Y-148415428D02*
X136612380Y-148320190D01*
X136660000Y-148224952D01*
X136707619Y-148177333D01*
X136802857Y-148129714D01*
X136993333Y-148082095D01*
X137231428Y-148082095D01*
X137421904Y-148129714D01*
X137517142Y-148177333D01*
X137564761Y-148224952D01*
X137612380Y-148320190D01*
X137612380Y-148415428D01*
X137564761Y-148510666D01*
X137517142Y-148558285D01*
X137421904Y-148605904D01*
X137231428Y-148653523D01*
X136993333Y-148653523D01*
X136802857Y-148605904D01*
X136707619Y-148558285D01*
X136660000Y-148510666D01*
X136612380Y-148415428D01*
X134167619Y-149605904D02*
X134120000Y-149558285D01*
X134072380Y-149463047D01*
X134072380Y-149224952D01*
X134120000Y-149129714D01*
X134167619Y-149082095D01*
X134262857Y-149034476D01*
X134358095Y-149034476D01*
X134500952Y-149082095D01*
X135072380Y-149653523D01*
X135072380Y-149034476D01*
X135072380Y-148558285D02*
X135072380Y-148367809D01*
X135024761Y-148272571D01*
X134977142Y-148224952D01*
X134834285Y-148129714D01*
X134643809Y-148082095D01*
X134262857Y-148082095D01*
X134167619Y-148129714D01*
X134120000Y-148177333D01*
X134072380Y-148272571D01*
X134072380Y-148463047D01*
X134120000Y-148558285D01*
X134167619Y-148605904D01*
X134262857Y-148653523D01*
X134500952Y-148653523D01*
X134596190Y-148605904D01*
X134643809Y-148558285D01*
X134691428Y-148463047D01*
X134691428Y-148272571D01*
X134643809Y-148177333D01*
X134596190Y-148129714D01*
X134500952Y-148082095D01*
X131627619Y-149605904D02*
X131580000Y-149558285D01*
X131532380Y-149463047D01*
X131532380Y-149224952D01*
X131580000Y-149129714D01*
X131627619Y-149082095D01*
X131722857Y-149034476D01*
X131818095Y-149034476D01*
X131960952Y-149082095D01*
X132532380Y-149653523D01*
X132532380Y-149034476D01*
X131960952Y-148463047D02*
X131913333Y-148558285D01*
X131865714Y-148605904D01*
X131770476Y-148653523D01*
X131722857Y-148653523D01*
X131627619Y-148605904D01*
X131580000Y-148558285D01*
X131532380Y-148463047D01*
X131532380Y-148272571D01*
X131580000Y-148177333D01*
X131627619Y-148129714D01*
X131722857Y-148082095D01*
X131770476Y-148082095D01*
X131865714Y-148129714D01*
X131913333Y-148177333D01*
X131960952Y-148272571D01*
X131960952Y-148463047D01*
X132008571Y-148558285D01*
X132056190Y-148605904D01*
X132151428Y-148653523D01*
X132341904Y-148653523D01*
X132437142Y-148605904D01*
X132484761Y-148558285D01*
X132532380Y-148463047D01*
X132532380Y-148272571D01*
X132484761Y-148177333D01*
X132437142Y-148129714D01*
X132341904Y-148082095D01*
X132151428Y-148082095D01*
X132056190Y-148129714D01*
X132008571Y-148177333D01*
X131960952Y-148272571D01*
X129087619Y-149605904D02*
X129040000Y-149558285D01*
X128992380Y-149463047D01*
X128992380Y-149224952D01*
X129040000Y-149129714D01*
X129087619Y-149082095D01*
X129182857Y-149034476D01*
X129278095Y-149034476D01*
X129420952Y-149082095D01*
X129992380Y-149653523D01*
X129992380Y-149034476D01*
X128992380Y-148701142D02*
X128992380Y-148034476D01*
X129992380Y-148463047D01*
X126801619Y-149605904D02*
X126754000Y-149558285D01*
X126706380Y-149463047D01*
X126706380Y-149224952D01*
X126754000Y-149129714D01*
X126801619Y-149082095D01*
X126896857Y-149034476D01*
X126992095Y-149034476D01*
X127134952Y-149082095D01*
X127706380Y-149653523D01*
X127706380Y-149034476D01*
X126706380Y-148177333D02*
X126706380Y-148367809D01*
X126754000Y-148463047D01*
X126801619Y-148510666D01*
X126944476Y-148605904D01*
X127134952Y-148653523D01*
X127515904Y-148653523D01*
X127611142Y-148605904D01*
X127658761Y-148558285D01*
X127706380Y-148463047D01*
X127706380Y-148272571D01*
X127658761Y-148177333D01*
X127611142Y-148129714D01*
X127515904Y-148082095D01*
X127277809Y-148082095D01*
X127182571Y-148129714D01*
X127134952Y-148177333D01*
X127087333Y-148272571D01*
X127087333Y-148463047D01*
X127134952Y-148558285D01*
X127182571Y-148605904D01*
X127277809Y-148653523D01*
X124007619Y-149605904D02*
X123960000Y-149558285D01*
X123912380Y-149463047D01*
X123912380Y-149224952D01*
X123960000Y-149129714D01*
X124007619Y-149082095D01*
X124102857Y-149034476D01*
X124198095Y-149034476D01*
X124340952Y-149082095D01*
X124912380Y-149653523D01*
X124912380Y-149034476D01*
X123912380Y-148129714D02*
X123912380Y-148605904D01*
X124388571Y-148653523D01*
X124340952Y-148605904D01*
X124293333Y-148510666D01*
X124293333Y-148272571D01*
X124340952Y-148177333D01*
X124388571Y-148129714D01*
X124483809Y-148082095D01*
X124721904Y-148082095D01*
X124817142Y-148129714D01*
X124864761Y-148177333D01*
X124912380Y-148272571D01*
X124912380Y-148510666D01*
X124864761Y-148605904D01*
X124817142Y-148653523D01*
X121467619Y-149605904D02*
X121420000Y-149558285D01*
X121372380Y-149463047D01*
X121372380Y-149224952D01*
X121420000Y-149129714D01*
X121467619Y-149082095D01*
X121562857Y-149034476D01*
X121658095Y-149034476D01*
X121800952Y-149082095D01*
X122372380Y-149653523D01*
X122372380Y-149034476D01*
X121705714Y-148177333D02*
X122372380Y-148177333D01*
X121324761Y-148415428D02*
X122039047Y-148653523D01*
X122039047Y-148034476D01*
X118927619Y-149605904D02*
X118880000Y-149558285D01*
X118832380Y-149463047D01*
X118832380Y-149224952D01*
X118880000Y-149129714D01*
X118927619Y-149082095D01*
X119022857Y-149034476D01*
X119118095Y-149034476D01*
X119260952Y-149082095D01*
X119832380Y-149653523D01*
X119832380Y-149034476D01*
X118832380Y-148701142D02*
X118832380Y-148082095D01*
X119213333Y-148415428D01*
X119213333Y-148272571D01*
X119260952Y-148177333D01*
X119308571Y-148129714D01*
X119403809Y-148082095D01*
X119641904Y-148082095D01*
X119737142Y-148129714D01*
X119784761Y-148177333D01*
X119832380Y-148272571D01*
X119832380Y-148558285D01*
X119784761Y-148653523D01*
X119737142Y-148701142D01*
X116387619Y-149605904D02*
X116340000Y-149558285D01*
X116292380Y-149463047D01*
X116292380Y-149224952D01*
X116340000Y-149129714D01*
X116387619Y-149082095D01*
X116482857Y-149034476D01*
X116578095Y-149034476D01*
X116720952Y-149082095D01*
X117292380Y-149653523D01*
X117292380Y-149034476D01*
X116387619Y-148653523D02*
X116340000Y-148605904D01*
X116292380Y-148510666D01*
X116292380Y-148272571D01*
X116340000Y-148177333D01*
X116387619Y-148129714D01*
X116482857Y-148082095D01*
X116578095Y-148082095D01*
X116720952Y-148129714D01*
X117292380Y-148701142D01*
X117292380Y-148082095D01*
X113847619Y-149605904D02*
X113800000Y-149558285D01*
X113752380Y-149463047D01*
X113752380Y-149224952D01*
X113800000Y-149129714D01*
X113847619Y-149082095D01*
X113942857Y-149034476D01*
X114038095Y-149034476D01*
X114180952Y-149082095D01*
X114752380Y-149653523D01*
X114752380Y-149034476D01*
X114752380Y-148082095D02*
X114752380Y-148653523D01*
X114752380Y-148367809D02*
X113752380Y-148367809D01*
X113895238Y-148463047D01*
X113990476Y-148558285D01*
X114038095Y-148653523D01*
X111307619Y-149605904D02*
X111260000Y-149558285D01*
X111212380Y-149463047D01*
X111212380Y-149224952D01*
X111260000Y-149129714D01*
X111307619Y-149082095D01*
X111402857Y-149034476D01*
X111498095Y-149034476D01*
X111640952Y-149082095D01*
X112212380Y-149653523D01*
X112212380Y-149034476D01*
X111212380Y-148415428D02*
X111212380Y-148320190D01*
X111260000Y-148224952D01*
X111307619Y-148177333D01*
X111402857Y-148129714D01*
X111593333Y-148082095D01*
X111831428Y-148082095D01*
X112021904Y-148129714D01*
X112117142Y-148177333D01*
X112164761Y-148224952D01*
X112212380Y-148320190D01*
X112212380Y-148415428D01*
X112164761Y-148510666D01*
X112117142Y-148558285D01*
X112021904Y-148605904D01*
X111831428Y-148653523D01*
X111593333Y-148653523D01*
X111402857Y-148605904D01*
X111307619Y-148558285D01*
X111260000Y-148510666D01*
X111212380Y-148415428D01*
X109672380Y-149034476D02*
X109672380Y-149605904D01*
X109672380Y-149320190D02*
X108672380Y-149320190D01*
X108815238Y-149415428D01*
X108910476Y-149510666D01*
X108958095Y-149605904D01*
X109672380Y-148558285D02*
X109672380Y-148367809D01*
X109624761Y-148272571D01*
X109577142Y-148224952D01*
X109434285Y-148129714D01*
X109243809Y-148082095D01*
X108862857Y-148082095D01*
X108767619Y-148129714D01*
X108720000Y-148177333D01*
X108672380Y-148272571D01*
X108672380Y-148463047D01*
X108720000Y-148558285D01*
X108767619Y-148605904D01*
X108862857Y-148653523D01*
X109100952Y-148653523D01*
X109196190Y-148605904D01*
X109243809Y-148558285D01*
X109291428Y-148463047D01*
X109291428Y-148272571D01*
X109243809Y-148177333D01*
X109196190Y-148129714D01*
X109100952Y-148082095D01*
X107132380Y-149034476D02*
X107132380Y-149605904D01*
X107132380Y-149320190D02*
X106132380Y-149320190D01*
X106275238Y-149415428D01*
X106370476Y-149510666D01*
X106418095Y-149605904D01*
X106560952Y-148463047D02*
X106513333Y-148558285D01*
X106465714Y-148605904D01*
X106370476Y-148653523D01*
X106322857Y-148653523D01*
X106227619Y-148605904D01*
X106180000Y-148558285D01*
X106132380Y-148463047D01*
X106132380Y-148272571D01*
X106180000Y-148177333D01*
X106227619Y-148129714D01*
X106322857Y-148082095D01*
X106370476Y-148082095D01*
X106465714Y-148129714D01*
X106513333Y-148177333D01*
X106560952Y-148272571D01*
X106560952Y-148463047D01*
X106608571Y-148558285D01*
X106656190Y-148605904D01*
X106751428Y-148653523D01*
X106941904Y-148653523D01*
X107037142Y-148605904D01*
X107084761Y-148558285D01*
X107132380Y-148463047D01*
X107132380Y-148272571D01*
X107084761Y-148177333D01*
X107037142Y-148129714D01*
X106941904Y-148082095D01*
X106751428Y-148082095D01*
X106656190Y-148129714D01*
X106608571Y-148177333D01*
X106560952Y-148272571D01*
X104592380Y-149034476D02*
X104592380Y-149605904D01*
X104592380Y-149320190D02*
X103592380Y-149320190D01*
X103735238Y-149415428D01*
X103830476Y-149510666D01*
X103878095Y-149605904D01*
X103592380Y-148701142D02*
X103592380Y-148034476D01*
X104592380Y-148463047D01*
X102052380Y-149034476D02*
X102052380Y-149605904D01*
X102052380Y-149320190D02*
X101052380Y-149320190D01*
X101195238Y-149415428D01*
X101290476Y-149510666D01*
X101338095Y-149605904D01*
X101052380Y-148177333D02*
X101052380Y-148367809D01*
X101100000Y-148463047D01*
X101147619Y-148510666D01*
X101290476Y-148605904D01*
X101480952Y-148653523D01*
X101861904Y-148653523D01*
X101957142Y-148605904D01*
X102004761Y-148558285D01*
X102052380Y-148463047D01*
X102052380Y-148272571D01*
X102004761Y-148177333D01*
X101957142Y-148129714D01*
X101861904Y-148082095D01*
X101623809Y-148082095D01*
X101528571Y-148129714D01*
X101480952Y-148177333D01*
X101433333Y-148272571D01*
X101433333Y-148463047D01*
X101480952Y-148558285D01*
X101528571Y-148605904D01*
X101623809Y-148653523D01*
X99512380Y-149034476D02*
X99512380Y-149605904D01*
X99512380Y-149320190D02*
X98512380Y-149320190D01*
X98655238Y-149415428D01*
X98750476Y-149510666D01*
X98798095Y-149605904D01*
X98512380Y-148129714D02*
X98512380Y-148605904D01*
X98988571Y-148653523D01*
X98940952Y-148605904D01*
X98893333Y-148510666D01*
X98893333Y-148272571D01*
X98940952Y-148177333D01*
X98988571Y-148129714D01*
X99083809Y-148082095D01*
X99321904Y-148082095D01*
X99417142Y-148129714D01*
X99464761Y-148177333D01*
X99512380Y-148272571D01*
X99512380Y-148510666D01*
X99464761Y-148605904D01*
X99417142Y-148653523D01*
X96972380Y-149034476D02*
X96972380Y-149605904D01*
X96972380Y-149320190D02*
X95972380Y-149320190D01*
X96115238Y-149415428D01*
X96210476Y-149510666D01*
X96258095Y-149605904D01*
X96305714Y-148177333D02*
X96972380Y-148177333D01*
X95924761Y-148415428D02*
X96639047Y-148653523D01*
X96639047Y-148034476D01*
X94432380Y-149034476D02*
X94432380Y-149605904D01*
X94432380Y-149320190D02*
X93432380Y-149320190D01*
X93575238Y-149415428D01*
X93670476Y-149510666D01*
X93718095Y-149605904D01*
X93432380Y-148701142D02*
X93432380Y-148082095D01*
X93813333Y-148415428D01*
X93813333Y-148272571D01*
X93860952Y-148177333D01*
X93908571Y-148129714D01*
X94003809Y-148082095D01*
X94241904Y-148082095D01*
X94337142Y-148129714D01*
X94384761Y-148177333D01*
X94432380Y-148272571D01*
X94432380Y-148558285D01*
X94384761Y-148653523D01*
X94337142Y-148701142D01*
X91892380Y-149034476D02*
X91892380Y-149605904D01*
X91892380Y-149320190D02*
X90892380Y-149320190D01*
X91035238Y-149415428D01*
X91130476Y-149510666D01*
X91178095Y-149605904D01*
X90987619Y-148653523D02*
X90940000Y-148605904D01*
X90892380Y-148510666D01*
X90892380Y-148272571D01*
X90940000Y-148177333D01*
X90987619Y-148129714D01*
X91082857Y-148082095D01*
X91178095Y-148082095D01*
X91320952Y-148129714D01*
X91892380Y-148701142D01*
X91892380Y-148082095D01*
X89352380Y-149034476D02*
X89352380Y-149605904D01*
X89352380Y-149320190D02*
X88352380Y-149320190D01*
X88495238Y-149415428D01*
X88590476Y-149510666D01*
X88638095Y-149605904D01*
X89352380Y-148082095D02*
X89352380Y-148653523D01*
X89352380Y-148367809D02*
X88352380Y-148367809D01*
X88495238Y-148463047D01*
X88590476Y-148558285D01*
X88638095Y-148653523D01*
X86812380Y-149034476D02*
X86812380Y-149605904D01*
X86812380Y-149320190D02*
X85812380Y-149320190D01*
X85955238Y-149415428D01*
X86050476Y-149510666D01*
X86098095Y-149605904D01*
X85812380Y-148415428D02*
X85812380Y-148320190D01*
X85860000Y-148224952D01*
X85907619Y-148177333D01*
X86002857Y-148129714D01*
X86193333Y-148082095D01*
X86431428Y-148082095D01*
X86621904Y-148129714D01*
X86717142Y-148177333D01*
X86764761Y-148224952D01*
X86812380Y-148320190D01*
X86812380Y-148415428D01*
X86764761Y-148510666D01*
X86717142Y-148558285D01*
X86621904Y-148605904D01*
X86431428Y-148653523D01*
X86193333Y-148653523D01*
X86002857Y-148605904D01*
X85907619Y-148558285D01*
X85860000Y-148510666D01*
X85812380Y-148415428D01*
X84272380Y-148526476D02*
X84272380Y-148336000D01*
X84224761Y-148240761D01*
X84177142Y-148193142D01*
X84034285Y-148097904D01*
X83843809Y-148050285D01*
X83462857Y-148050285D01*
X83367619Y-148097904D01*
X83320000Y-148145523D01*
X83272380Y-148240761D01*
X83272380Y-148431238D01*
X83320000Y-148526476D01*
X83367619Y-148574095D01*
X83462857Y-148621714D01*
X83700952Y-148621714D01*
X83796190Y-148574095D01*
X83843809Y-148526476D01*
X83891428Y-148431238D01*
X83891428Y-148240761D01*
X83843809Y-148145523D01*
X83796190Y-148097904D01*
X83700952Y-148050285D01*
X81160952Y-148431238D02*
X81113333Y-148526476D01*
X81065714Y-148574095D01*
X80970476Y-148621714D01*
X80922857Y-148621714D01*
X80827619Y-148574095D01*
X80780000Y-148526476D01*
X80732380Y-148431238D01*
X80732380Y-148240761D01*
X80780000Y-148145523D01*
X80827619Y-148097904D01*
X80922857Y-148050285D01*
X80970476Y-148050285D01*
X81065714Y-148097904D01*
X81113333Y-148145523D01*
X81160952Y-148240761D01*
X81160952Y-148431238D01*
X81208571Y-148526476D01*
X81256190Y-148574095D01*
X81351428Y-148621714D01*
X81541904Y-148621714D01*
X81637142Y-148574095D01*
X81684761Y-148526476D01*
X81732380Y-148431238D01*
X81732380Y-148240761D01*
X81684761Y-148145523D01*
X81637142Y-148097904D01*
X81541904Y-148050285D01*
X81351428Y-148050285D01*
X81256190Y-148097904D01*
X81208571Y-148145523D01*
X81160952Y-148240761D01*
X78192380Y-148669333D02*
X78192380Y-148002666D01*
X79192380Y-148431238D01*
X75652380Y-148145523D02*
X75652380Y-148336000D01*
X75700000Y-148431238D01*
X75747619Y-148478857D01*
X75890476Y-148574095D01*
X76080952Y-148621714D01*
X76461904Y-148621714D01*
X76557142Y-148574095D01*
X76604761Y-148526476D01*
X76652380Y-148431238D01*
X76652380Y-148240761D01*
X76604761Y-148145523D01*
X76557142Y-148097904D01*
X76461904Y-148050285D01*
X76223809Y-148050285D01*
X76128571Y-148097904D01*
X76080952Y-148145523D01*
X76033333Y-148240761D01*
X76033333Y-148431238D01*
X76080952Y-148526476D01*
X76128571Y-148574095D01*
X76223809Y-148621714D01*
X73112380Y-148097904D02*
X73112380Y-148574095D01*
X73588571Y-148621714D01*
X73540952Y-148574095D01*
X73493333Y-148478857D01*
X73493333Y-148240761D01*
X73540952Y-148145523D01*
X73588571Y-148097904D01*
X73683809Y-148050285D01*
X73921904Y-148050285D01*
X74017142Y-148097904D01*
X74064761Y-148145523D01*
X74112380Y-148240761D01*
X74112380Y-148478857D01*
X74064761Y-148574095D01*
X74017142Y-148621714D01*
X70905714Y-148145523D02*
X71572380Y-148145523D01*
X70524761Y-148383619D02*
X71239047Y-148621714D01*
X71239047Y-148002666D01*
X68032380Y-148669333D02*
X68032380Y-148050285D01*
X68413333Y-148383619D01*
X68413333Y-148240761D01*
X68460952Y-148145523D01*
X68508571Y-148097904D01*
X68603809Y-148050285D01*
X68841904Y-148050285D01*
X68937142Y-148097904D01*
X68984761Y-148145523D01*
X69032380Y-148240761D01*
X69032380Y-148526476D01*
X68984761Y-148621714D01*
X68937142Y-148669333D01*
X65587619Y-148621714D02*
X65540000Y-148574095D01*
X65492380Y-148478857D01*
X65492380Y-148240761D01*
X65540000Y-148145523D01*
X65587619Y-148097904D01*
X65682857Y-148050285D01*
X65778095Y-148050285D01*
X65920952Y-148097904D01*
X66492380Y-148669333D01*
X66492380Y-148050285D01*
X63952380Y-148050285D02*
X63952380Y-148621714D01*
X63952380Y-148336000D02*
X62952380Y-148336000D01*
X63095238Y-148431238D01*
X63190476Y-148526476D01*
X63238095Y-148621714D01*
D11*
X79248000Y-115062000D02*
X63500000Y-115062000D01*
X79248000Y-128016000D02*
X79248000Y-115062000D01*
X63500000Y-128016000D02*
X79248000Y-128016000D01*
X63500000Y-115062000D02*
X63500000Y-128016000D01*
D10*
X78184380Y-124928380D02*
X78279619Y-124928380D01*
X78374857Y-124976000D01*
X78422476Y-125023619D01*
X78470095Y-125118857D01*
X78517714Y-125309333D01*
X78517714Y-125547428D01*
X78470095Y-125737904D01*
X78422476Y-125833142D01*
X78374857Y-125880761D01*
X78279619Y-125928380D01*
X78184380Y-125928380D01*
X78089142Y-125880761D01*
X78041523Y-125833142D01*
X77993904Y-125737904D01*
X77946285Y-125547428D01*
X77946285Y-125309333D01*
X77993904Y-125118857D01*
X78041523Y-125023619D01*
X78089142Y-124976000D01*
X78184380Y-124928380D01*
X78517714Y-120594380D02*
X77946285Y-120594380D01*
X78232000Y-120594380D02*
X78232000Y-119594380D01*
X78136761Y-119737238D01*
X78041523Y-119832476D01*
X77946285Y-119880095D01*
X74469714Y-117768666D02*
X74945904Y-117768666D01*
X74374476Y-118054380D02*
X74707809Y-117054380D01*
X75041142Y-118054380D01*
X75850666Y-117054380D02*
X75374476Y-117054380D01*
X75326857Y-117530571D01*
X75374476Y-117482952D01*
X75469714Y-117435333D01*
X75707809Y-117435333D01*
X75803047Y-117482952D01*
X75850666Y-117530571D01*
X75898285Y-117625809D01*
X75898285Y-117863904D01*
X75850666Y-117959142D01*
X75803047Y-118006761D01*
X75707809Y-118054380D01*
X75469714Y-118054380D01*
X75374476Y-118006761D01*
X75326857Y-117959142D01*
X69897714Y-117768666D02*
X70373904Y-117768666D01*
X69802476Y-118054380D02*
X70135809Y-117054380D01*
X70469142Y-118054380D01*
X71231047Y-117054380D02*
X71040571Y-117054380D01*
X70945333Y-117102000D01*
X70897714Y-117149619D01*
X70802476Y-117292476D01*
X70754857Y-117482952D01*
X70754857Y-117863904D01*
X70802476Y-117959142D01*
X70850095Y-118006761D01*
X70945333Y-118054380D01*
X71135809Y-118054380D01*
X71231047Y-118006761D01*
X71278666Y-117959142D01*
X71326285Y-117863904D01*
X71326285Y-117625809D01*
X71278666Y-117530571D01*
X71231047Y-117482952D01*
X71135809Y-117435333D01*
X70945333Y-117435333D01*
X70850095Y-117482952D01*
X70802476Y-117530571D01*
X70754857Y-117625809D01*
X65325714Y-117768666D02*
X65801904Y-117768666D01*
X65230476Y-118054380D02*
X65563809Y-117054380D01*
X65897142Y-118054380D01*
X66135238Y-117054380D02*
X66801904Y-117054380D01*
X66373333Y-118054380D01*
X66135809Y-116006571D02*
X66278666Y-116054190D01*
X66326285Y-116101809D01*
X66373904Y-116197047D01*
X66373904Y-116339904D01*
X66326285Y-116435142D01*
X66278666Y-116482761D01*
X66183428Y-116530380D01*
X65802476Y-116530380D01*
X65802476Y-115530380D01*
X66135809Y-115530380D01*
X66231047Y-115578000D01*
X66278666Y-115625619D01*
X66326285Y-115720857D01*
X66326285Y-115816095D01*
X66278666Y-115911333D01*
X66231047Y-115958952D01*
X66135809Y-116006571D01*
X65802476Y-116006571D01*
X67231047Y-116530380D02*
X67231047Y-116006571D01*
X67183428Y-115911333D01*
X67088190Y-115863714D01*
X66897714Y-115863714D01*
X66802476Y-115911333D01*
X67231047Y-116482761D02*
X67135809Y-116530380D01*
X66897714Y-116530380D01*
X66802476Y-116482761D01*
X66754857Y-116387523D01*
X66754857Y-116292285D01*
X66802476Y-116197047D01*
X66897714Y-116149428D01*
X67135809Y-116149428D01*
X67231047Y-116101809D01*
X67659619Y-116482761D02*
X67754857Y-116530380D01*
X67945333Y-116530380D01*
X68040571Y-116482761D01*
X68088190Y-116387523D01*
X68088190Y-116339904D01*
X68040571Y-116244666D01*
X67945333Y-116197047D01*
X67802476Y-116197047D01*
X67707238Y-116149428D01*
X67659619Y-116054190D01*
X67659619Y-116006571D01*
X67707238Y-115911333D01*
X67802476Y-115863714D01*
X67945333Y-115863714D01*
X68040571Y-115911333D01*
X68897714Y-116482761D02*
X68802476Y-116530380D01*
X68612000Y-116530380D01*
X68516761Y-116482761D01*
X68469142Y-116387523D01*
X68469142Y-116006571D01*
X68516761Y-115911333D01*
X68612000Y-115863714D01*
X68802476Y-115863714D01*
X68897714Y-115911333D01*
X68945333Y-116006571D01*
X68945333Y-116101809D01*
X68469142Y-116197047D01*
X70088190Y-116244666D02*
X70564380Y-116244666D01*
X69992952Y-116530380D02*
X70326285Y-115530380D01*
X70659619Y-116530380D01*
X71421523Y-116530380D02*
X71421523Y-115530380D01*
X71421523Y-116482761D02*
X71326285Y-116530380D01*
X71135809Y-116530380D01*
X71040571Y-116482761D01*
X70992952Y-116435142D01*
X70945333Y-116339904D01*
X70945333Y-116054190D01*
X70992952Y-115958952D01*
X71040571Y-115911333D01*
X71135809Y-115863714D01*
X71326285Y-115863714D01*
X71421523Y-115911333D01*
X72326285Y-116530380D02*
X72326285Y-115530380D01*
X72326285Y-116482761D02*
X72231047Y-116530380D01*
X72040571Y-116530380D01*
X71945333Y-116482761D01*
X71897714Y-116435142D01*
X71850095Y-116339904D01*
X71850095Y-116054190D01*
X71897714Y-115958952D01*
X71945333Y-115911333D01*
X72040571Y-115863714D01*
X72231047Y-115863714D01*
X72326285Y-115911333D01*
X72802476Y-116530380D02*
X72802476Y-115863714D01*
X72802476Y-116054190D02*
X72850095Y-115958952D01*
X72897714Y-115911333D01*
X72992952Y-115863714D01*
X73088190Y-115863714D01*
X73802476Y-116482761D02*
X73707238Y-116530380D01*
X73516761Y-116530380D01*
X73421523Y-116482761D01*
X73373904Y-116387523D01*
X73373904Y-116006571D01*
X73421523Y-115911333D01*
X73516761Y-115863714D01*
X73707238Y-115863714D01*
X73802476Y-115911333D01*
X73850095Y-116006571D01*
X73850095Y-116101809D01*
X73373904Y-116197047D01*
X74231047Y-116482761D02*
X74326285Y-116530380D01*
X74516761Y-116530380D01*
X74612000Y-116482761D01*
X74659619Y-116387523D01*
X74659619Y-116339904D01*
X74612000Y-116244666D01*
X74516761Y-116197047D01*
X74373904Y-116197047D01*
X74278666Y-116149428D01*
X74231047Y-116054190D01*
X74231047Y-116006571D01*
X74278666Y-115911333D01*
X74373904Y-115863714D01*
X74516761Y-115863714D01*
X74612000Y-115911333D01*
X75040571Y-116482761D02*
X75135809Y-116530380D01*
X75326285Y-116530380D01*
X75421523Y-116482761D01*
X75469142Y-116387523D01*
X75469142Y-116339904D01*
X75421523Y-116244666D01*
X75326285Y-116197047D01*
X75183428Y-116197047D01*
X75088190Y-116149428D01*
X75040571Y-116054190D01*
X75040571Y-116006571D01*
X75088190Y-115911333D01*
X75183428Y-115863714D01*
X75326285Y-115863714D01*
X75421523Y-115911333D01*
X145534476Y-107910380D02*
X145058285Y-107910380D01*
X145010666Y-108386571D01*
X145058285Y-108338952D01*
X145153523Y-108291333D01*
X145391619Y-108291333D01*
X145486857Y-108338952D01*
X145534476Y-108386571D01*
X145582095Y-108481809D01*
X145582095Y-108719904D01*
X145534476Y-108815142D01*
X145486857Y-108862761D01*
X145391619Y-108910380D01*
X145153523Y-108910380D01*
X145058285Y-108862761D01*
X145010666Y-108815142D01*
X146677333Y-108910380D02*
X147201142Y-108243714D01*
X146677333Y-108243714D02*
X147201142Y-108910380D01*
X148248761Y-107910380D02*
X148867809Y-107910380D01*
X148534476Y-108291333D01*
X148677333Y-108291333D01*
X148772571Y-108338952D01*
X148820190Y-108386571D01*
X148867809Y-108481809D01*
X148867809Y-108719904D01*
X148820190Y-108815142D01*
X148772571Y-108862761D01*
X148677333Y-108910380D01*
X148391619Y-108910380D01*
X148296380Y-108862761D01*
X148248761Y-108815142D01*
X149201142Y-107910380D02*
X149820190Y-107910380D01*
X149486857Y-108291333D01*
X149629714Y-108291333D01*
X149724952Y-108338952D01*
X149772571Y-108386571D01*
X149820190Y-108481809D01*
X149820190Y-108719904D01*
X149772571Y-108815142D01*
X149724952Y-108862761D01*
X149629714Y-108910380D01*
X149344000Y-108910380D01*
X149248761Y-108862761D01*
X149201142Y-108815142D01*
X150439238Y-107910380D02*
X150534476Y-107910380D01*
X150629714Y-107958000D01*
X150677333Y-108005619D01*
X150724952Y-108100857D01*
X150772571Y-108291333D01*
X150772571Y-108529428D01*
X150724952Y-108719904D01*
X150677333Y-108815142D01*
X150629714Y-108862761D01*
X150534476Y-108910380D01*
X150439238Y-108910380D01*
X150344000Y-108862761D01*
X150296380Y-108815142D01*
X150248761Y-108719904D01*
X150201142Y-108529428D01*
X150201142Y-108291333D01*
X150248761Y-108100857D01*
X150296380Y-108005619D01*
X150344000Y-107958000D01*
X150439238Y-107910380D01*
X151915428Y-108910380D02*
X152153523Y-108910380D01*
X152153523Y-108719904D01*
X152058285Y-108672285D01*
X151963047Y-108577047D01*
X151915428Y-108434190D01*
X151915428Y-108196095D01*
X151963047Y-108053238D01*
X152058285Y-107958000D01*
X152201142Y-107910380D01*
X152391619Y-107910380D01*
X152534476Y-107958000D01*
X152629714Y-108053238D01*
X152677333Y-108196095D01*
X152677333Y-108434190D01*
X152629714Y-108577047D01*
X152534476Y-108672285D01*
X152439238Y-108719904D01*
X152439238Y-108910380D01*
X152677333Y-108910380D01*
X131056476Y-107910380D02*
X130580285Y-107910380D01*
X130532666Y-108386571D01*
X130580285Y-108338952D01*
X130675523Y-108291333D01*
X130913619Y-108291333D01*
X131008857Y-108338952D01*
X131056476Y-108386571D01*
X131104095Y-108481809D01*
X131104095Y-108719904D01*
X131056476Y-108815142D01*
X131008857Y-108862761D01*
X130913619Y-108910380D01*
X130675523Y-108910380D01*
X130580285Y-108862761D01*
X130532666Y-108815142D01*
X132199333Y-108910380D02*
X132723142Y-108243714D01*
X132199333Y-108243714D02*
X132723142Y-108910380D01*
X133770761Y-107910380D02*
X134389809Y-107910380D01*
X134056476Y-108291333D01*
X134199333Y-108291333D01*
X134294571Y-108338952D01*
X134342190Y-108386571D01*
X134389809Y-108481809D01*
X134389809Y-108719904D01*
X134342190Y-108815142D01*
X134294571Y-108862761D01*
X134199333Y-108910380D01*
X133913619Y-108910380D01*
X133818380Y-108862761D01*
X133770761Y-108815142D01*
X134723142Y-107910380D02*
X135342190Y-107910380D01*
X135008857Y-108291333D01*
X135151714Y-108291333D01*
X135246952Y-108338952D01*
X135294571Y-108386571D01*
X135342190Y-108481809D01*
X135342190Y-108719904D01*
X135294571Y-108815142D01*
X135246952Y-108862761D01*
X135151714Y-108910380D01*
X134866000Y-108910380D01*
X134770761Y-108862761D01*
X134723142Y-108815142D01*
X135961238Y-107910380D02*
X136056476Y-107910380D01*
X136151714Y-107958000D01*
X136199333Y-108005619D01*
X136246952Y-108100857D01*
X136294571Y-108291333D01*
X136294571Y-108529428D01*
X136246952Y-108719904D01*
X136199333Y-108815142D01*
X136151714Y-108862761D01*
X136056476Y-108910380D01*
X135961238Y-108910380D01*
X135866000Y-108862761D01*
X135818380Y-108815142D01*
X135770761Y-108719904D01*
X135723142Y-108529428D01*
X135723142Y-108291333D01*
X135770761Y-108100857D01*
X135818380Y-108005619D01*
X135866000Y-107958000D01*
X135961238Y-107910380D01*
X137437428Y-108910380D02*
X137675523Y-108910380D01*
X137675523Y-108719904D01*
X137580285Y-108672285D01*
X137485047Y-108577047D01*
X137437428Y-108434190D01*
X137437428Y-108196095D01*
X137485047Y-108053238D01*
X137580285Y-107958000D01*
X137723142Y-107910380D01*
X137913619Y-107910380D01*
X138056476Y-107958000D01*
X138151714Y-108053238D01*
X138199333Y-108196095D01*
X138199333Y-108434190D01*
X138151714Y-108577047D01*
X138056476Y-108672285D01*
X137961238Y-108719904D01*
X137961238Y-108910380D01*
X138199333Y-108910380D01*
X122467809Y-105003000D02*
X123515428Y-105003000D01*
X122896380Y-105370380D02*
X123086857Y-105370380D01*
X123182095Y-105418000D01*
X123277333Y-105513238D01*
X123324952Y-105703714D01*
X123324952Y-106037047D01*
X123277333Y-106227523D01*
X123182095Y-106322761D01*
X123086857Y-106370380D01*
X122896380Y-106370380D01*
X122801142Y-106322761D01*
X122705904Y-106227523D01*
X122658285Y-106037047D01*
X122658285Y-105703714D01*
X122705904Y-105513238D01*
X122801142Y-105418000D01*
X122896380Y-105370380D01*
X123515428Y-105003000D02*
X124420190Y-105003000D01*
X123753523Y-105846571D02*
X124086857Y-105846571D01*
X124229714Y-106370380D02*
X123753523Y-106370380D01*
X123753523Y-105370380D01*
X124229714Y-105370380D01*
X114831904Y-106370380D02*
X114831904Y-105370380D01*
X115070000Y-105370380D01*
X115212857Y-105418000D01*
X115308095Y-105513238D01*
X115355714Y-105608476D01*
X115403333Y-105798952D01*
X115403333Y-105941809D01*
X115355714Y-106132285D01*
X115308095Y-106227523D01*
X115212857Y-106322761D01*
X115070000Y-106370380D01*
X114831904Y-106370380D01*
X116022380Y-105370380D02*
X116117619Y-105370380D01*
X116212857Y-105418000D01*
X116260476Y-105465619D01*
X116308095Y-105560857D01*
X116355714Y-105751333D01*
X116355714Y-105989428D01*
X116308095Y-106179904D01*
X116260476Y-106275142D01*
X116212857Y-106322761D01*
X116117619Y-106370380D01*
X116022380Y-106370380D01*
X115927142Y-106322761D01*
X115879523Y-106275142D01*
X115831904Y-106179904D01*
X115784285Y-105989428D01*
X115784285Y-105751333D01*
X115831904Y-105560857D01*
X115879523Y-105465619D01*
X115927142Y-105418000D01*
X116022380Y-105370380D01*
X110513904Y-106370380D02*
X110513904Y-105370380D01*
X110752000Y-105370380D01*
X110894857Y-105418000D01*
X110990095Y-105513238D01*
X111037714Y-105608476D01*
X111085333Y-105798952D01*
X111085333Y-105941809D01*
X111037714Y-106132285D01*
X110990095Y-106227523D01*
X110894857Y-106322761D01*
X110752000Y-106370380D01*
X110513904Y-106370380D01*
X112037714Y-106370380D02*
X111466285Y-106370380D01*
X111752000Y-106370380D02*
X111752000Y-105370380D01*
X111656761Y-105513238D01*
X111561523Y-105608476D01*
X111466285Y-105656095D01*
X106195904Y-106370380D02*
X106195904Y-105370380D01*
X106434000Y-105370380D01*
X106576857Y-105418000D01*
X106672095Y-105513238D01*
X106719714Y-105608476D01*
X106767333Y-105798952D01*
X106767333Y-105941809D01*
X106719714Y-106132285D01*
X106672095Y-106227523D01*
X106576857Y-106322761D01*
X106434000Y-106370380D01*
X106195904Y-106370380D01*
X107148285Y-105465619D02*
X107195904Y-105418000D01*
X107291142Y-105370380D01*
X107529238Y-105370380D01*
X107624476Y-105418000D01*
X107672095Y-105465619D01*
X107719714Y-105560857D01*
X107719714Y-105656095D01*
X107672095Y-105798952D01*
X107100666Y-106370380D01*
X107719714Y-106370380D01*
X101877904Y-106370380D02*
X101877904Y-105370380D01*
X102116000Y-105370380D01*
X102258857Y-105418000D01*
X102354095Y-105513238D01*
X102401714Y-105608476D01*
X102449333Y-105798952D01*
X102449333Y-105941809D01*
X102401714Y-106132285D01*
X102354095Y-106227523D01*
X102258857Y-106322761D01*
X102116000Y-106370380D01*
X101877904Y-106370380D01*
X102782666Y-105370380D02*
X103401714Y-105370380D01*
X103068380Y-105751333D01*
X103211238Y-105751333D01*
X103306476Y-105798952D01*
X103354095Y-105846571D01*
X103401714Y-105941809D01*
X103401714Y-106179904D01*
X103354095Y-106275142D01*
X103306476Y-106322761D01*
X103211238Y-106370380D01*
X102925523Y-106370380D01*
X102830285Y-106322761D01*
X102782666Y-106275142D01*
X92170380Y-105003000D02*
X93313238Y-105003000D01*
X92313238Y-105370380D02*
X92551333Y-106370380D01*
X92741809Y-105656095D01*
X92932285Y-106370380D01*
X93170380Y-105370380D01*
X93313238Y-105003000D02*
X94265619Y-105003000D01*
X93741809Y-105370380D02*
X93837047Y-105370380D01*
X93932285Y-105418000D01*
X93979904Y-105465619D01*
X94027523Y-105560857D01*
X94075142Y-105751333D01*
X94075142Y-105989428D01*
X94027523Y-106179904D01*
X93979904Y-106275142D01*
X93932285Y-106322761D01*
X93837047Y-106370380D01*
X93741809Y-106370380D01*
X93646571Y-106322761D01*
X93598952Y-106275142D01*
X93551333Y-106179904D01*
X93503714Y-105989428D01*
X93503714Y-105751333D01*
X93551333Y-105560857D01*
X93598952Y-105465619D01*
X93646571Y-105418000D01*
X93741809Y-105370380D01*
X86431619Y-105003000D02*
X87431619Y-105003000D01*
X87241142Y-106275142D02*
X87193523Y-106322761D01*
X87050666Y-106370380D01*
X86955428Y-106370380D01*
X86812571Y-106322761D01*
X86717333Y-106227523D01*
X86669714Y-106132285D01*
X86622095Y-105941809D01*
X86622095Y-105798952D01*
X86669714Y-105608476D01*
X86717333Y-105513238D01*
X86812571Y-105418000D01*
X86955428Y-105370380D01*
X87050666Y-105370380D01*
X87193523Y-105418000D01*
X87241142Y-105465619D01*
X87431619Y-105003000D02*
X88384000Y-105003000D01*
X87622095Y-106322761D02*
X87764952Y-106370380D01*
X88003047Y-106370380D01*
X88098285Y-106322761D01*
X88145904Y-106275142D01*
X88193523Y-106179904D01*
X88193523Y-106084666D01*
X88145904Y-105989428D01*
X88098285Y-105941809D01*
X88003047Y-105894190D01*
X87812571Y-105846571D01*
X87717333Y-105798952D01*
X87669714Y-105751333D01*
X87622095Y-105656095D01*
X87622095Y-105560857D01*
X87669714Y-105465619D01*
X87717333Y-105418000D01*
X87812571Y-105370380D01*
X88050666Y-105370380D01*
X88193523Y-105418000D01*
X88384000Y-105003000D02*
X89336380Y-105003000D01*
X88812571Y-105370380D02*
X88907809Y-105370380D01*
X89003047Y-105418000D01*
X89050666Y-105465619D01*
X89098285Y-105560857D01*
X89145904Y-105751333D01*
X89145904Y-105989428D01*
X89098285Y-106179904D01*
X89050666Y-106275142D01*
X89003047Y-106322761D01*
X88907809Y-106370380D01*
X88812571Y-106370380D01*
X88717333Y-106322761D01*
X88669714Y-106275142D01*
X88622095Y-106179904D01*
X88574476Y-105989428D01*
X88574476Y-105751333D01*
X88622095Y-105560857D01*
X88669714Y-105465619D01*
X88717333Y-105418000D01*
X88812571Y-105370380D01*
X76676380Y-105003000D02*
X77819238Y-105003000D01*
X76819238Y-105370380D02*
X77057333Y-106370380D01*
X77247809Y-105656095D01*
X77438285Y-106370380D01*
X77676380Y-105370380D01*
X77819238Y-105003000D02*
X78771619Y-105003000D01*
X78581142Y-106370380D02*
X78009714Y-106370380D01*
X78295428Y-106370380D02*
X78295428Y-105370380D01*
X78200190Y-105513238D01*
X78104952Y-105608476D01*
X78009714Y-105656095D01*
X70683619Y-105003000D02*
X71683619Y-105003000D01*
X71493142Y-106275142D02*
X71445523Y-106322761D01*
X71302666Y-106370380D01*
X71207428Y-106370380D01*
X71064571Y-106322761D01*
X70969333Y-106227523D01*
X70921714Y-106132285D01*
X70874095Y-105941809D01*
X70874095Y-105798952D01*
X70921714Y-105608476D01*
X70969333Y-105513238D01*
X71064571Y-105418000D01*
X71207428Y-105370380D01*
X71302666Y-105370380D01*
X71445523Y-105418000D01*
X71493142Y-105465619D01*
X71683619Y-105003000D02*
X72636000Y-105003000D01*
X71874095Y-106322761D02*
X72016952Y-106370380D01*
X72255047Y-106370380D01*
X72350285Y-106322761D01*
X72397904Y-106275142D01*
X72445523Y-106179904D01*
X72445523Y-106084666D01*
X72397904Y-105989428D01*
X72350285Y-105941809D01*
X72255047Y-105894190D01*
X72064571Y-105846571D01*
X71969333Y-105798952D01*
X71921714Y-105751333D01*
X71874095Y-105656095D01*
X71874095Y-105560857D01*
X71921714Y-105465619D01*
X71969333Y-105418000D01*
X72064571Y-105370380D01*
X72302666Y-105370380D01*
X72445523Y-105418000D01*
X72636000Y-105003000D02*
X73588380Y-105003000D01*
X73397904Y-106370380D02*
X72826476Y-106370380D01*
X73112190Y-106370380D02*
X73112190Y-105370380D01*
X73016952Y-105513238D01*
X72921714Y-105608476D01*
X72826476Y-105656095D01*
X64555809Y-105003000D02*
X65555809Y-105003000D01*
X65127238Y-105846571D02*
X65270095Y-105894190D01*
X65317714Y-105941809D01*
X65365333Y-106037047D01*
X65365333Y-106179904D01*
X65317714Y-106275142D01*
X65270095Y-106322761D01*
X65174857Y-106370380D01*
X64793904Y-106370380D01*
X64793904Y-105370380D01*
X65127238Y-105370380D01*
X65222476Y-105418000D01*
X65270095Y-105465619D01*
X65317714Y-105560857D01*
X65317714Y-105656095D01*
X65270095Y-105751333D01*
X65222476Y-105798952D01*
X65127238Y-105846571D01*
X64793904Y-105846571D01*
X65555809Y-105003000D02*
X66508190Y-105003000D01*
X65746285Y-106322761D02*
X65889142Y-106370380D01*
X66127238Y-106370380D01*
X66222476Y-106322761D01*
X66270095Y-106275142D01*
X66317714Y-106179904D01*
X66317714Y-106084666D01*
X66270095Y-105989428D01*
X66222476Y-105941809D01*
X66127238Y-105894190D01*
X65936761Y-105846571D01*
X65841523Y-105798952D01*
X65793904Y-105751333D01*
X65746285Y-105656095D01*
X65746285Y-105560857D01*
X65793904Y-105465619D01*
X65841523Y-105418000D01*
X65936761Y-105370380D01*
X66174857Y-105370380D01*
X66317714Y-105418000D01*
X137612380Y-143994095D02*
X136612380Y-143994095D01*
X136612380Y-143756000D01*
X136660000Y-143613142D01*
X136755238Y-143517904D01*
X136850476Y-143470285D01*
X137040952Y-143422666D01*
X137183809Y-143422666D01*
X137374285Y-143470285D01*
X137469523Y-143517904D01*
X137564761Y-143613142D01*
X137612380Y-143756000D01*
X137612380Y-143994095D01*
X136612380Y-142803619D02*
X136612380Y-142708380D01*
X136660000Y-142613142D01*
X136707619Y-142565523D01*
X136802857Y-142517904D01*
X136993333Y-142470285D01*
X137231428Y-142470285D01*
X137421904Y-142517904D01*
X137517142Y-142565523D01*
X137564761Y-142613142D01*
X137612380Y-142708380D01*
X137612380Y-142803619D01*
X137564761Y-142898857D01*
X137517142Y-142946476D01*
X137421904Y-142994095D01*
X137231428Y-143041714D01*
X136993333Y-143041714D01*
X136802857Y-142994095D01*
X136707619Y-142946476D01*
X136660000Y-142898857D01*
X136612380Y-142803619D01*
X135072380Y-143994095D02*
X134072380Y-143994095D01*
X134072380Y-143756000D01*
X134120000Y-143613142D01*
X134215238Y-143517904D01*
X134310476Y-143470285D01*
X134500952Y-143422666D01*
X134643809Y-143422666D01*
X134834285Y-143470285D01*
X134929523Y-143517904D01*
X135024761Y-143613142D01*
X135072380Y-143756000D01*
X135072380Y-143994095D01*
X135072380Y-142470285D02*
X135072380Y-143041714D01*
X135072380Y-142756000D02*
X134072380Y-142756000D01*
X134215238Y-142851238D01*
X134310476Y-142946476D01*
X134358095Y-143041714D01*
X132532380Y-143994095D02*
X131532380Y-143994095D01*
X131532380Y-143756000D01*
X131580000Y-143613142D01*
X131675238Y-143517904D01*
X131770476Y-143470285D01*
X131960952Y-143422666D01*
X132103809Y-143422666D01*
X132294285Y-143470285D01*
X132389523Y-143517904D01*
X132484761Y-143613142D01*
X132532380Y-143756000D01*
X132532380Y-143994095D01*
X131627619Y-143041714D02*
X131580000Y-142994095D01*
X131532380Y-142898857D01*
X131532380Y-142660761D01*
X131580000Y-142565523D01*
X131627619Y-142517904D01*
X131722857Y-142470285D01*
X131818095Y-142470285D01*
X131960952Y-142517904D01*
X132532380Y-143089333D01*
X132532380Y-142470285D01*
X129992380Y-143994095D02*
X128992380Y-143994095D01*
X128992380Y-143756000D01*
X129040000Y-143613142D01*
X129135238Y-143517904D01*
X129230476Y-143470285D01*
X129420952Y-143422666D01*
X129563809Y-143422666D01*
X129754285Y-143470285D01*
X129849523Y-143517904D01*
X129944761Y-143613142D01*
X129992380Y-143756000D01*
X129992380Y-143994095D01*
X128992380Y-143089333D02*
X128992380Y-142470285D01*
X129373333Y-142803619D01*
X129373333Y-142660761D01*
X129420952Y-142565523D01*
X129468571Y-142517904D01*
X129563809Y-142470285D01*
X129801904Y-142470285D01*
X129897142Y-142517904D01*
X129944761Y-142565523D01*
X129992380Y-142660761D01*
X129992380Y-142946476D01*
X129944761Y-143041714D01*
X129897142Y-143089333D01*
X123545000Y-144256000D02*
X123545000Y-143256000D01*
X124912380Y-143446476D02*
X124436190Y-143779809D01*
X124912380Y-144017904D02*
X123912380Y-144017904D01*
X123912380Y-143636952D01*
X123960000Y-143541714D01*
X124007619Y-143494095D01*
X124102857Y-143446476D01*
X124245714Y-143446476D01*
X124340952Y-143494095D01*
X124388571Y-143541714D01*
X124436190Y-143636952D01*
X124436190Y-144017904D01*
X123545000Y-143256000D02*
X123545000Y-142256000D01*
X124912380Y-143017904D02*
X123912380Y-143017904D01*
X123912380Y-142779809D01*
X123960000Y-142636952D01*
X124055238Y-142541714D01*
X124150476Y-142494095D01*
X124340952Y-142446476D01*
X124483809Y-142446476D01*
X124674285Y-142494095D01*
X124769523Y-142541714D01*
X124864761Y-142636952D01*
X124912380Y-142779809D01*
X124912380Y-143017904D01*
X121005000Y-144327428D02*
X121005000Y-143184571D01*
X121372380Y-144184571D02*
X122372380Y-143946476D01*
X121658095Y-143756000D01*
X122372380Y-143565523D01*
X121372380Y-143327428D01*
X121005000Y-143184571D02*
X121005000Y-142184571D01*
X122372380Y-142375047D02*
X121896190Y-142708380D01*
X122372380Y-142946476D02*
X121372380Y-142946476D01*
X121372380Y-142565523D01*
X121420000Y-142470285D01*
X121467619Y-142422666D01*
X121562857Y-142375047D01*
X121705714Y-142375047D01*
X121800952Y-142422666D01*
X121848571Y-142470285D01*
X121896190Y-142565523D01*
X121896190Y-142946476D01*
X114657142Y-143343238D02*
X114704761Y-143390857D01*
X114752380Y-143533714D01*
X114752380Y-143628952D01*
X114704761Y-143771809D01*
X114609523Y-143867047D01*
X114514285Y-143914666D01*
X114323809Y-143962285D01*
X114180952Y-143962285D01*
X113990476Y-143914666D01*
X113895238Y-143867047D01*
X113800000Y-143771809D01*
X113752380Y-143628952D01*
X113752380Y-143533714D01*
X113800000Y-143390857D01*
X113847619Y-143343238D01*
X114752380Y-142438476D02*
X114752380Y-142914666D01*
X113752380Y-142914666D01*
X114752380Y-142105142D02*
X113752380Y-142105142D01*
X114752380Y-141533714D02*
X114180952Y-141962285D01*
X113752380Y-141533714D02*
X114323809Y-142105142D01*
X106751428Y-144033714D02*
X106751428Y-143271809D01*
X107132380Y-143652761D02*
X106370476Y-143652761D01*
X106132380Y-142319428D02*
X106132380Y-142795619D01*
X106608571Y-142843238D01*
X106560952Y-142795619D01*
X106513333Y-142700380D01*
X106513333Y-142462285D01*
X106560952Y-142367047D01*
X106608571Y-142319428D01*
X106703809Y-142271809D01*
X106941904Y-142271809D01*
X107037142Y-142319428D01*
X107084761Y-142367047D01*
X107132380Y-142462285D01*
X107132380Y-142700380D01*
X107084761Y-142795619D01*
X107037142Y-142843238D01*
X106132380Y-141986095D02*
X107132380Y-141652761D01*
X106132380Y-141319428D01*
X103640000Y-143509904D02*
X103592380Y-143605142D01*
X103592380Y-143748000D01*
X103640000Y-143890857D01*
X103735238Y-143986095D01*
X103830476Y-144033714D01*
X104020952Y-144081333D01*
X104163809Y-144081333D01*
X104354285Y-144033714D01*
X104449523Y-143986095D01*
X104544761Y-143890857D01*
X104592380Y-143748000D01*
X104592380Y-143652761D01*
X104544761Y-143509904D01*
X104497142Y-143462285D01*
X104163809Y-143462285D01*
X104163809Y-143652761D01*
X104592380Y-143033714D02*
X103592380Y-143033714D01*
X104592380Y-142462285D01*
X103592380Y-142462285D01*
X104592380Y-141986095D02*
X103592380Y-141986095D01*
X103592380Y-141748000D01*
X103640000Y-141605142D01*
X103735238Y-141509904D01*
X103830476Y-141462285D01*
X104020952Y-141414666D01*
X104163809Y-141414666D01*
X104354285Y-141462285D01*
X104449523Y-141509904D01*
X104544761Y-141605142D01*
X104592380Y-141748000D01*
X104592380Y-141986095D01*
X101766666Y-143970285D02*
X101766666Y-143494095D01*
X102052380Y-144065523D02*
X101052380Y-143732190D01*
X102052380Y-143398857D01*
X101052380Y-142875047D02*
X101052380Y-142779809D01*
X101100000Y-142684571D01*
X101147619Y-142636952D01*
X101242857Y-142589333D01*
X101433333Y-142541714D01*
X101671428Y-142541714D01*
X101861904Y-142589333D01*
X101957142Y-142636952D01*
X102004761Y-142684571D01*
X102052380Y-142779809D01*
X102052380Y-142875047D01*
X102004761Y-142970285D01*
X101957142Y-143017904D01*
X101861904Y-143065523D01*
X101671428Y-143113142D01*
X101433333Y-143113142D01*
X101242857Y-143065523D01*
X101147619Y-143017904D01*
X101100000Y-142970285D01*
X101052380Y-142875047D01*
X99226666Y-143970285D02*
X99226666Y-143494095D01*
X99512380Y-144065523D02*
X98512380Y-143732190D01*
X99512380Y-143398857D01*
X99512380Y-142541714D02*
X99512380Y-143113142D01*
X99512380Y-142827428D02*
X98512380Y-142827428D01*
X98655238Y-142922666D01*
X98750476Y-143017904D01*
X98798095Y-143113142D01*
X96686666Y-143970285D02*
X96686666Y-143494095D01*
X96972380Y-144065523D02*
X95972380Y-143732190D01*
X96972380Y-143398857D01*
X96067619Y-143113142D02*
X96020000Y-143065523D01*
X95972380Y-142970285D01*
X95972380Y-142732190D01*
X96020000Y-142636952D01*
X96067619Y-142589333D01*
X96162857Y-142541714D01*
X96258095Y-142541714D01*
X96400952Y-142589333D01*
X96972380Y-143160761D01*
X96972380Y-142541714D01*
X94146666Y-143970285D02*
X94146666Y-143494095D01*
X94432380Y-144065523D02*
X93432380Y-143732190D01*
X94432380Y-143398857D01*
X93432380Y-143160761D02*
X93432380Y-142541714D01*
X93813333Y-142875047D01*
X93813333Y-142732190D01*
X93860952Y-142636952D01*
X93908571Y-142589333D01*
X94003809Y-142541714D01*
X94241904Y-142541714D01*
X94337142Y-142589333D01*
X94384761Y-142636952D01*
X94432380Y-142732190D01*
X94432380Y-143017904D01*
X94384761Y-143113142D01*
X94337142Y-143160761D01*
X91606666Y-143970285D02*
X91606666Y-143494095D01*
X91892380Y-144065523D02*
X90892380Y-143732190D01*
X91892380Y-143398857D01*
X91225714Y-142636952D02*
X91892380Y-142636952D01*
X90844761Y-142875047D02*
X91559047Y-143113142D01*
X91559047Y-142494095D01*
X89066666Y-143970285D02*
X89066666Y-143494095D01*
X89352380Y-144065523D02*
X88352380Y-143732190D01*
X89352380Y-143398857D01*
X88352380Y-142589333D02*
X88352380Y-143065523D01*
X88828571Y-143113142D01*
X88780952Y-143065523D01*
X88733333Y-142970285D01*
X88733333Y-142732190D01*
X88780952Y-142636952D01*
X88828571Y-142589333D01*
X88923809Y-142541714D01*
X89161904Y-142541714D01*
X89257142Y-142589333D01*
X89304761Y-142636952D01*
X89352380Y-142732190D01*
X89352380Y-142970285D01*
X89304761Y-143065523D01*
X89257142Y-143113142D01*
X86526666Y-143970285D02*
X86526666Y-143494095D01*
X86812380Y-144065523D02*
X85812380Y-143732190D01*
X86812380Y-143398857D01*
X85812380Y-142636952D02*
X85812380Y-142827428D01*
X85860000Y-142922666D01*
X85907619Y-142970285D01*
X86050476Y-143065523D01*
X86240952Y-143113142D01*
X86621904Y-143113142D01*
X86717142Y-143065523D01*
X86764761Y-143017904D01*
X86812380Y-142922666D01*
X86812380Y-142732190D01*
X86764761Y-142636952D01*
X86717142Y-142589333D01*
X86621904Y-142541714D01*
X86383809Y-142541714D01*
X86288571Y-142589333D01*
X86240952Y-142636952D01*
X86193333Y-142732190D01*
X86193333Y-142922666D01*
X86240952Y-143017904D01*
X86288571Y-143065523D01*
X86383809Y-143113142D01*
X83986666Y-143970285D02*
X83986666Y-143494095D01*
X84272380Y-144065523D02*
X83272380Y-143732190D01*
X84272380Y-143398857D01*
X83272380Y-143160761D02*
X83272380Y-142494095D01*
X84272380Y-142922666D01*
D11*
X153646000Y-124460000D02*
X152876000Y-124460000D01*
X145566000Y-124460000D02*
X146336000Y-124460000D01*
X152876000Y-123090000D02*
X146336000Y-123090000D01*
X152876000Y-125830000D02*
X152876000Y-123090000D01*
X146336000Y-125830000D02*
X152876000Y-125830000D01*
X146336000Y-123090000D02*
X146336000Y-125830000D01*
X153646000Y-121158000D02*
X152876000Y-121158000D01*
X145566000Y-121158000D02*
X146336000Y-121158000D01*
X152876000Y-119788000D02*
X146336000Y-119788000D01*
X152876000Y-122528000D02*
X152876000Y-119788000D01*
X146336000Y-122528000D02*
X152876000Y-122528000D01*
X146336000Y-119788000D02*
X146336000Y-122528000D01*
X153646000Y-117856000D02*
X152876000Y-117856000D01*
X145566000Y-117856000D02*
X146336000Y-117856000D01*
X152876000Y-116486000D02*
X146336000Y-116486000D01*
X152876000Y-119226000D02*
X152876000Y-116486000D01*
X146336000Y-119226000D02*
X152876000Y-119226000D01*
X146336000Y-116486000D02*
X146336000Y-119226000D01*
X153646000Y-114554000D02*
X152876000Y-114554000D01*
X145566000Y-114554000D02*
X146336000Y-114554000D01*
X152876000Y-113184000D02*
X146336000Y-113184000D01*
X152876000Y-115924000D02*
X152876000Y-113184000D01*
X146336000Y-115924000D02*
X152876000Y-115924000D01*
X146336000Y-113184000D02*
X146336000Y-115924000D01*
X153646000Y-111252000D02*
X152876000Y-111252000D01*
X145566000Y-111252000D02*
X146336000Y-111252000D01*
X152876000Y-109882000D02*
X146336000Y-109882000D01*
X152876000Y-112622000D02*
X152876000Y-109882000D01*
X146336000Y-112622000D02*
X152876000Y-112622000D01*
X146336000Y-109882000D02*
X146336000Y-112622000D01*
X138660000Y-124460000D02*
X137890000Y-124460000D01*
X130580000Y-124460000D02*
X131350000Y-124460000D01*
X137890000Y-123090000D02*
X131350000Y-123090000D01*
X137890000Y-125830000D02*
X137890000Y-123090000D01*
X131350000Y-125830000D02*
X137890000Y-125830000D01*
X131350000Y-123090000D02*
X131350000Y-125830000D01*
X138660000Y-121158000D02*
X137890000Y-121158000D01*
X130580000Y-121158000D02*
X131350000Y-121158000D01*
X137890000Y-119788000D02*
X131350000Y-119788000D01*
X137890000Y-122528000D02*
X137890000Y-119788000D01*
X131350000Y-122528000D02*
X137890000Y-122528000D01*
X131350000Y-119788000D02*
X131350000Y-122528000D01*
X138660000Y-117856000D02*
X137890000Y-117856000D01*
X130580000Y-117856000D02*
X131350000Y-117856000D01*
X137890000Y-116486000D02*
X131350000Y-116486000D01*
X137890000Y-119226000D02*
X137890000Y-116486000D01*
X131350000Y-119226000D02*
X137890000Y-119226000D01*
X131350000Y-116486000D02*
X131350000Y-119226000D01*
X138660000Y-114554000D02*
X137890000Y-114554000D01*
X130580000Y-114554000D02*
X131350000Y-114554000D01*
X137890000Y-113184000D02*
X131350000Y-113184000D01*
X137890000Y-115924000D02*
X137890000Y-113184000D01*
X131350000Y-115924000D02*
X137890000Y-115924000D01*
X131350000Y-113184000D02*
X131350000Y-115924000D01*
X138660000Y-111252000D02*
X137890000Y-111252000D01*
X130580000Y-111252000D02*
X131350000Y-111252000D01*
X137890000Y-109882000D02*
X131350000Y-109882000D01*
X137890000Y-112622000D02*
X137890000Y-109882000D01*
X131350000Y-112622000D02*
X137890000Y-112622000D01*
X131350000Y-109882000D02*
X131350000Y-112622000D01*
X101886000Y-115537000D02*
X101886000Y-114912000D01*
X101886000Y-117752000D02*
X101886000Y-117127000D01*
X105926000Y-115537000D02*
X105926000Y-114912000D01*
X105926000Y-117752000D02*
X105926000Y-117127000D01*
X105926000Y-114912000D02*
X101886000Y-114912000D01*
X105926000Y-117752000D02*
X101886000Y-117752000D01*
X117888000Y-115791000D02*
X117888000Y-115166000D01*
X117888000Y-118006000D02*
X117888000Y-117381000D01*
X121928000Y-115791000D02*
X121928000Y-115166000D01*
X121928000Y-118006000D02*
X121928000Y-117381000D01*
X121928000Y-115166000D02*
X117888000Y-115166000D01*
X121928000Y-118006000D02*
X117888000Y-118006000D01*
X65565000Y-133128000D02*
X66190000Y-133128000D01*
X63350000Y-133128000D02*
X63975000Y-133128000D01*
X65565000Y-137168000D02*
X66190000Y-137168000D01*
X63350000Y-137168000D02*
X63975000Y-137168000D01*
X66190000Y-137168000D02*
X66190000Y-133128000D01*
X63350000Y-137168000D02*
X63350000Y-133128000D01*
X131793000Y-136112000D02*
X131168000Y-136112000D01*
X134008000Y-136112000D02*
X133383000Y-136112000D01*
X131793000Y-132072000D02*
X131168000Y-132072000D01*
X134008000Y-132072000D02*
X133383000Y-132072000D01*
X131168000Y-132072000D02*
X131168000Y-136112000D01*
X134008000Y-132072000D02*
X134008000Y-136112000D01*
X125282000Y-120022000D02*
X115002000Y-120022000D01*
X125282000Y-140582000D02*
X125282000Y-120022000D01*
X115002000Y-140582000D02*
X125282000Y-140582000D01*
X115002000Y-120022000D02*
X115002000Y-140582000D01*
X122792000Y-120082000D02*
X121142000Y-120082000D01*
X122792000Y-140522000D02*
X122792000Y-120082000D01*
X117492000Y-140522000D02*
X122792000Y-140522000D01*
X117492000Y-120082000D02*
X117492000Y-140522000D01*
X119142000Y-120082000D02*
X117492000Y-120082000D01*
X121142000Y-120082000D02*
G75*
G02X119142000Y-120082000I-1000000J0D01*
G01*
X109026000Y-120022000D02*
X98746000Y-120022000D01*
X109026000Y-140582000D02*
X109026000Y-120022000D01*
X98746000Y-140582000D02*
X109026000Y-140582000D01*
X98746000Y-120022000D02*
X98746000Y-140582000D01*
X106536000Y-120082000D02*
X104886000Y-120082000D01*
X106536000Y-140522000D02*
X106536000Y-120082000D01*
X101236000Y-140522000D02*
X106536000Y-140522000D01*
X101236000Y-120082000D02*
X101236000Y-140522000D01*
X102886000Y-120082000D02*
X101236000Y-120082000D01*
X104886000Y-120082000D02*
G75*
G02X102886000Y-120082000I-1000000J0D01*
G01*
X68714000Y-129734000D02*
X68714000Y-140014000D01*
X94354000Y-129734000D02*
X68714000Y-129734000D01*
X94354000Y-140014000D02*
X94354000Y-129734000D01*
X68714000Y-140014000D02*
X94354000Y-140014000D01*
X68774000Y-132224000D02*
X68774000Y-133874000D01*
X94294000Y-132224000D02*
X68774000Y-132224000D01*
X94294000Y-137524000D02*
X94294000Y-132224000D01*
X68774000Y-137524000D02*
X94294000Y-137524000D01*
X68774000Y-135874000D02*
X68774000Y-137524000D01*
X68774000Y-133874000D02*
G75*
G02X68774000Y-135874000I0J-1000000D01*
G01*
X135770000Y-128972000D02*
X135770000Y-139252000D01*
X153790000Y-128972000D02*
X135770000Y-128972000D01*
X153790000Y-139252000D02*
X153790000Y-128972000D01*
X135770000Y-139252000D02*
X153790000Y-139252000D01*
X135830000Y-131462000D02*
X135830000Y-133112000D01*
X153730000Y-131462000D02*
X135830000Y-131462000D01*
X153730000Y-136762000D02*
X153730000Y-131462000D01*
X135830000Y-136762000D02*
X153730000Y-136762000D01*
X135830000Y-135112000D02*
X135830000Y-136762000D01*
X135830000Y-133112000D02*
G75*
G02X135830000Y-135112000I0J-1000000D01*
G01*
X62170000Y-147380000D02*
X62170000Y-146050000D01*
X63500000Y-147380000D02*
X62170000Y-147380000D01*
X64770000Y-147380000D02*
X64770000Y-144720000D01*
X64770000Y-144720000D02*
X158810000Y-144720000D01*
X64770000Y-147380000D02*
X158810000Y-147380000D01*
X158810000Y-147380000D02*
X158810000Y-144720000D01*
X73854000Y-119066000D02*
X75184000Y-119066000D01*
X73854000Y-120396000D02*
X73854000Y-119066000D01*
X73854000Y-121666000D02*
X76514000Y-121666000D01*
X76514000Y-121666000D02*
X76514000Y-126806000D01*
X73854000Y-121666000D02*
X73854000Y-126806000D01*
X73854000Y-126806000D02*
X76514000Y-126806000D01*
X69282000Y-119066000D02*
X70612000Y-119066000D01*
X69282000Y-120396000D02*
X69282000Y-119066000D01*
X69282000Y-121666000D02*
X71942000Y-121666000D01*
X71942000Y-121666000D02*
X71942000Y-126806000D01*
X69282000Y-121666000D02*
X69282000Y-126806000D01*
X69282000Y-126806000D02*
X71942000Y-126806000D01*
X64710000Y-119066000D02*
X66040000Y-119066000D01*
X64710000Y-120396000D02*
X64710000Y-119066000D01*
X64710000Y-121666000D02*
X67370000Y-121666000D01*
X67370000Y-121666000D02*
X67370000Y-126806000D01*
X64710000Y-121666000D02*
X64710000Y-126806000D01*
X64710000Y-126806000D02*
X67370000Y-126806000D01*
X122384000Y-112168000D02*
X124504000Y-112168000D01*
X122384000Y-107168000D02*
X124504000Y-107168000D01*
X122384000Y-112288000D02*
X124504000Y-112288000D01*
X124504000Y-107728000D02*
X124504000Y-107168000D01*
X124504000Y-109918000D02*
X124504000Y-109187000D01*
X124504000Y-112288000D02*
X124504000Y-112078000D01*
X122384000Y-107728000D02*
X122384000Y-107168000D01*
X122384000Y-109918000D02*
X122384000Y-109187000D01*
X122384000Y-112288000D02*
X122384000Y-112078000D01*
X92158000Y-112168000D02*
X94278000Y-112168000D01*
X92158000Y-107168000D02*
X94278000Y-107168000D01*
X92158000Y-112288000D02*
X94278000Y-112288000D01*
X94278000Y-107728000D02*
X94278000Y-107168000D01*
X94278000Y-109918000D02*
X94278000Y-109187000D01*
X94278000Y-112288000D02*
X94278000Y-112078000D01*
X92158000Y-107728000D02*
X92158000Y-107168000D01*
X92158000Y-109918000D02*
X92158000Y-109187000D01*
X92158000Y-112288000D02*
X92158000Y-112078000D01*
X86824000Y-112168000D02*
X88944000Y-112168000D01*
X86824000Y-107168000D02*
X88944000Y-107168000D01*
X86824000Y-112288000D02*
X88944000Y-112288000D01*
X88944000Y-107728000D02*
X88944000Y-107168000D01*
X88944000Y-109918000D02*
X88944000Y-109187000D01*
X88944000Y-112288000D02*
X88944000Y-112078000D01*
X86824000Y-107728000D02*
X86824000Y-107168000D01*
X86824000Y-109918000D02*
X86824000Y-109187000D01*
X86824000Y-112288000D02*
X86824000Y-112078000D01*
X76664000Y-112168000D02*
X78784000Y-112168000D01*
X76664000Y-107168000D02*
X78784000Y-107168000D01*
X76664000Y-112288000D02*
X78784000Y-112288000D01*
X78784000Y-107728000D02*
X78784000Y-107168000D01*
X78784000Y-109918000D02*
X78784000Y-109187000D01*
X78784000Y-112288000D02*
X78784000Y-112078000D01*
X76664000Y-107728000D02*
X76664000Y-107168000D01*
X76664000Y-109918000D02*
X76664000Y-109187000D01*
X76664000Y-112288000D02*
X76664000Y-112078000D01*
X71076000Y-112168000D02*
X73196000Y-112168000D01*
X71076000Y-107168000D02*
X73196000Y-107168000D01*
X71076000Y-112288000D02*
X73196000Y-112288000D01*
X73196000Y-107728000D02*
X73196000Y-107168000D01*
X73196000Y-109918000D02*
X73196000Y-109187000D01*
X73196000Y-112288000D02*
X73196000Y-112078000D01*
X71076000Y-107728000D02*
X71076000Y-107168000D01*
X71076000Y-109918000D02*
X71076000Y-109187000D01*
X71076000Y-112288000D02*
X71076000Y-112078000D01*
X114510000Y-112168000D02*
X116630000Y-112168000D01*
X114510000Y-107168000D02*
X116630000Y-107168000D01*
X114510000Y-112288000D02*
X116630000Y-112288000D01*
X116630000Y-107728000D02*
X116630000Y-107168000D01*
X116630000Y-109918000D02*
X116630000Y-109187000D01*
X116630000Y-112288000D02*
X116630000Y-112078000D01*
X114510000Y-107728000D02*
X114510000Y-107168000D01*
X114510000Y-109918000D02*
X114510000Y-109187000D01*
X114510000Y-112288000D02*
X114510000Y-112078000D01*
X110192000Y-112168000D02*
X112312000Y-112168000D01*
X110192000Y-107168000D02*
X112312000Y-107168000D01*
X110192000Y-112288000D02*
X112312000Y-112288000D01*
X112312000Y-107728000D02*
X112312000Y-107168000D01*
X112312000Y-109918000D02*
X112312000Y-109187000D01*
X112312000Y-112288000D02*
X112312000Y-112078000D01*
X110192000Y-107728000D02*
X110192000Y-107168000D01*
X110192000Y-109918000D02*
X110192000Y-109187000D01*
X110192000Y-112288000D02*
X110192000Y-112078000D01*
X105874000Y-112168000D02*
X107994000Y-112168000D01*
X105874000Y-107168000D02*
X107994000Y-107168000D01*
X105874000Y-112288000D02*
X107994000Y-112288000D01*
X107994000Y-107728000D02*
X107994000Y-107168000D01*
X107994000Y-109918000D02*
X107994000Y-109187000D01*
X107994000Y-112288000D02*
X107994000Y-112078000D01*
X105874000Y-107728000D02*
X105874000Y-107168000D01*
X105874000Y-109918000D02*
X105874000Y-109187000D01*
X105874000Y-112288000D02*
X105874000Y-112078000D01*
X101556000Y-112168000D02*
X103676000Y-112168000D01*
X101556000Y-107168000D02*
X103676000Y-107168000D01*
X101556000Y-112288000D02*
X103676000Y-112288000D01*
X103676000Y-107728000D02*
X103676000Y-107168000D01*
X103676000Y-109918000D02*
X103676000Y-109187000D01*
X103676000Y-112288000D02*
X103676000Y-112078000D01*
X101556000Y-107728000D02*
X101556000Y-107168000D01*
X101556000Y-109918000D02*
X101556000Y-109187000D01*
X101556000Y-112288000D02*
X101556000Y-112078000D01*
X63964000Y-112422000D02*
X66084000Y-112422000D01*
X63964000Y-107422000D02*
X66084000Y-107422000D01*
X63964000Y-112542000D02*
X66084000Y-112542000D01*
X66084000Y-107982000D02*
X66084000Y-107422000D01*
X66084000Y-110172000D02*
X66084000Y-109441000D01*
X66084000Y-112542000D02*
X66084000Y-112332000D01*
X63964000Y-107982000D02*
X63964000Y-107422000D01*
X63964000Y-110172000D02*
X63964000Y-109441000D01*
X63964000Y-112542000D02*
X63964000Y-112332000D01*
D10*
X101810761Y-113234380D02*
X101906000Y-113234380D01*
X102001238Y-113282000D01*
X102048857Y-113329619D01*
X102096476Y-113424857D01*
X102144095Y-113615333D01*
X102144095Y-113853428D01*
X102096476Y-114043904D01*
X102048857Y-114139142D01*
X102001238Y-114186761D01*
X101906000Y-114234380D01*
X101810761Y-114234380D01*
X101715523Y-114186761D01*
X101667904Y-114139142D01*
X101620285Y-114043904D01*
X101572666Y-113853428D01*
X101572666Y-113615333D01*
X101620285Y-113424857D01*
X101667904Y-113329619D01*
X101715523Y-113282000D01*
X101810761Y-113234380D01*
X102572666Y-114139142D02*
X102620285Y-114186761D01*
X102572666Y-114234380D01*
X102525047Y-114186761D01*
X102572666Y-114139142D01*
X102572666Y-114234380D01*
X103572666Y-114234380D02*
X103001238Y-114234380D01*
X103286952Y-114234380D02*
X103286952Y-113234380D01*
X103191714Y-113377238D01*
X103096476Y-113472476D01*
X103001238Y-113520095D01*
X104763142Y-113567714D02*
X104763142Y-114567714D01*
X105239333Y-114091523D02*
X105286952Y-114186761D01*
X105382190Y-114234380D01*
X104763142Y-114091523D02*
X104810761Y-114186761D01*
X104906000Y-114234380D01*
X105096476Y-114234380D01*
X105191714Y-114186761D01*
X105239333Y-114091523D01*
X105239333Y-113567714D01*
X106144095Y-113710571D02*
X105810761Y-113710571D01*
X105810761Y-114234380D02*
X105810761Y-113234380D01*
X106286952Y-113234380D01*
X117812761Y-113488380D02*
X117908000Y-113488380D01*
X118003238Y-113536000D01*
X118050857Y-113583619D01*
X118098476Y-113678857D01*
X118146095Y-113869333D01*
X118146095Y-114107428D01*
X118098476Y-114297904D01*
X118050857Y-114393142D01*
X118003238Y-114440761D01*
X117908000Y-114488380D01*
X117812761Y-114488380D01*
X117717523Y-114440761D01*
X117669904Y-114393142D01*
X117622285Y-114297904D01*
X117574666Y-114107428D01*
X117574666Y-113869333D01*
X117622285Y-113678857D01*
X117669904Y-113583619D01*
X117717523Y-113536000D01*
X117812761Y-113488380D01*
X118574666Y-114393142D02*
X118622285Y-114440761D01*
X118574666Y-114488380D01*
X118527047Y-114440761D01*
X118574666Y-114393142D01*
X118574666Y-114488380D01*
X119574666Y-114488380D02*
X119003238Y-114488380D01*
X119288952Y-114488380D02*
X119288952Y-113488380D01*
X119193714Y-113631238D01*
X119098476Y-113726476D01*
X119003238Y-113774095D01*
X120765142Y-113821714D02*
X120765142Y-114821714D01*
X121241333Y-114345523D02*
X121288952Y-114440761D01*
X121384190Y-114488380D01*
X120765142Y-114345523D02*
X120812761Y-114440761D01*
X120908000Y-114488380D01*
X121098476Y-114488380D01*
X121193714Y-114440761D01*
X121241333Y-114345523D01*
X121241333Y-113821714D01*
X122146095Y-113964571D02*
X121812761Y-113964571D01*
X121812761Y-114488380D02*
X121812761Y-113488380D01*
X122288952Y-113488380D01*
X61682380Y-137243238D02*
X61682380Y-137148000D01*
X61730000Y-137052761D01*
X61777619Y-137005142D01*
X61872857Y-136957523D01*
X62063333Y-136909904D01*
X62301428Y-136909904D01*
X62491904Y-136957523D01*
X62587142Y-137005142D01*
X62634761Y-137052761D01*
X62682380Y-137148000D01*
X62682380Y-137243238D01*
X62634761Y-137338476D01*
X62587142Y-137386095D01*
X62491904Y-137433714D01*
X62301428Y-137481333D01*
X62063333Y-137481333D01*
X61872857Y-137433714D01*
X61777619Y-137386095D01*
X61730000Y-137338476D01*
X61682380Y-137243238D01*
X62587142Y-136481333D02*
X62634761Y-136433714D01*
X62682380Y-136481333D01*
X62634761Y-136528952D01*
X62587142Y-136481333D01*
X62682380Y-136481333D01*
X62682380Y-135481333D02*
X62682380Y-136052761D01*
X62682380Y-135767047D02*
X61682380Y-135767047D01*
X61825238Y-135862285D01*
X61920476Y-135957523D01*
X61968095Y-136052761D01*
X62015714Y-134290857D02*
X63015714Y-134290857D01*
X62539523Y-133814666D02*
X62634761Y-133767047D01*
X62682380Y-133671809D01*
X62539523Y-134290857D02*
X62634761Y-134243238D01*
X62682380Y-134148000D01*
X62682380Y-133957523D01*
X62634761Y-133862285D01*
X62539523Y-133814666D01*
X62015714Y-133814666D01*
X62158571Y-132909904D02*
X62158571Y-133243238D01*
X62682380Y-133243238D02*
X61682380Y-133243238D01*
X61682380Y-132767047D01*
X134580380Y-136187238D02*
X134580380Y-136092000D01*
X134628000Y-135996761D01*
X134675619Y-135949142D01*
X134770857Y-135901523D01*
X134961333Y-135853904D01*
X135199428Y-135853904D01*
X135389904Y-135901523D01*
X135485142Y-135949142D01*
X135532761Y-135996761D01*
X135580380Y-136092000D01*
X135580380Y-136187238D01*
X135532761Y-136282476D01*
X135485142Y-136330095D01*
X135389904Y-136377714D01*
X135199428Y-136425333D01*
X134961333Y-136425333D01*
X134770857Y-136377714D01*
X134675619Y-136330095D01*
X134628000Y-136282476D01*
X134580380Y-136187238D01*
X135485142Y-135425333D02*
X135532761Y-135377714D01*
X135580380Y-135425333D01*
X135532761Y-135472952D01*
X135485142Y-135425333D01*
X135580380Y-135425333D01*
X135580380Y-134425333D02*
X135580380Y-134996761D01*
X135580380Y-134711047D02*
X134580380Y-134711047D01*
X134723238Y-134806285D01*
X134818476Y-134901523D01*
X134866095Y-134996761D01*
X134913714Y-133234857D02*
X135913714Y-133234857D01*
X135437523Y-132758666D02*
X135532761Y-132711047D01*
X135580380Y-132615809D01*
X135437523Y-133234857D02*
X135532761Y-133187238D01*
X135580380Y-133092000D01*
X135580380Y-132901523D01*
X135532761Y-132806285D01*
X135437523Y-132758666D01*
X134913714Y-132758666D01*
X135056571Y-131853904D02*
X135056571Y-132187238D01*
X135580380Y-132187238D02*
X134580380Y-132187238D01*
X134580380Y-131711047D01*
X119380095Y-118534380D02*
X119380095Y-119343904D01*
X119427714Y-119439142D01*
X119475333Y-119486761D01*
X119570571Y-119534380D01*
X119761047Y-119534380D01*
X119856285Y-119486761D01*
X119903904Y-119439142D01*
X119951523Y-119343904D01*
X119951523Y-118534380D01*
X120856285Y-118867714D02*
X120856285Y-119534380D01*
X120618190Y-118486761D02*
X120380095Y-119201047D01*
X120999142Y-119201047D01*
X119594380Y-133548047D02*
X119594380Y-132881380D01*
X120594380Y-133309952D01*
X119927714Y-132071857D02*
X120594380Y-132071857D01*
X119546761Y-132309952D02*
X120261047Y-132548047D01*
X120261047Y-131929000D01*
X120594380Y-131071857D02*
X120594380Y-131548047D01*
X119594380Y-131548047D01*
X120546761Y-130786142D02*
X120594380Y-130643285D01*
X120594380Y-130405190D01*
X120546761Y-130309952D01*
X120499142Y-130262333D01*
X120403904Y-130214714D01*
X120308666Y-130214714D01*
X120213428Y-130262333D01*
X120165809Y-130309952D01*
X120118190Y-130405190D01*
X120070571Y-130595666D01*
X120022952Y-130690904D01*
X119975333Y-130738523D01*
X119880095Y-130786142D01*
X119784857Y-130786142D01*
X119689619Y-130738523D01*
X119642000Y-130690904D01*
X119594380Y-130595666D01*
X119594380Y-130357571D01*
X119642000Y-130214714D01*
X119689619Y-129833761D02*
X119642000Y-129786142D01*
X119594380Y-129690904D01*
X119594380Y-129452809D01*
X119642000Y-129357571D01*
X119689619Y-129309952D01*
X119784857Y-129262333D01*
X119880095Y-129262333D01*
X120022952Y-129309952D01*
X120594380Y-129881380D01*
X120594380Y-129262333D01*
X120594380Y-128309952D02*
X120594380Y-128881380D01*
X120594380Y-128595666D02*
X119594380Y-128595666D01*
X119737238Y-128690904D01*
X119832476Y-128786142D01*
X119880095Y-128881380D01*
X120594380Y-127833761D02*
X120594380Y-127643285D01*
X120546761Y-127548047D01*
X120499142Y-127500428D01*
X120356285Y-127405190D01*
X120165809Y-127357571D01*
X119784857Y-127357571D01*
X119689619Y-127405190D01*
X119642000Y-127452809D01*
X119594380Y-127548047D01*
X119594380Y-127738523D01*
X119642000Y-127833761D01*
X119689619Y-127881380D01*
X119784857Y-127929000D01*
X120022952Y-127929000D01*
X120118190Y-127881380D01*
X120165809Y-127833761D01*
X120213428Y-127738523D01*
X120213428Y-127548047D01*
X120165809Y-127452809D01*
X120118190Y-127405190D01*
X120022952Y-127357571D01*
X103124095Y-118534380D02*
X103124095Y-119343904D01*
X103171714Y-119439142D01*
X103219333Y-119486761D01*
X103314571Y-119534380D01*
X103505047Y-119534380D01*
X103600285Y-119486761D01*
X103647904Y-119439142D01*
X103695523Y-119343904D01*
X103695523Y-118534380D01*
X104076476Y-118534380D02*
X104695523Y-118534380D01*
X104362190Y-118915333D01*
X104505047Y-118915333D01*
X104600285Y-118962952D01*
X104647904Y-119010571D01*
X104695523Y-119105809D01*
X104695523Y-119343904D01*
X104647904Y-119439142D01*
X104600285Y-119486761D01*
X104505047Y-119534380D01*
X104219333Y-119534380D01*
X104124095Y-119486761D01*
X104076476Y-119439142D01*
X103338380Y-133421047D02*
X103338380Y-132754380D01*
X104338380Y-133182952D01*
X103671714Y-131944857D02*
X104338380Y-131944857D01*
X103290761Y-132182952D02*
X104005047Y-132421047D01*
X104005047Y-131802000D01*
X104338380Y-130944857D02*
X104338380Y-131421047D01*
X103338380Y-131421047D01*
X104290761Y-130659142D02*
X104338380Y-130516285D01*
X104338380Y-130278190D01*
X104290761Y-130182952D01*
X104243142Y-130135333D01*
X104147904Y-130087714D01*
X104052666Y-130087714D01*
X103957428Y-130135333D01*
X103909809Y-130182952D01*
X103862190Y-130278190D01*
X103814571Y-130468666D01*
X103766952Y-130563904D01*
X103719333Y-130611523D01*
X103624095Y-130659142D01*
X103528857Y-130659142D01*
X103433619Y-130611523D01*
X103386000Y-130563904D01*
X103338380Y-130468666D01*
X103338380Y-130230571D01*
X103386000Y-130087714D01*
X103433619Y-129706761D02*
X103386000Y-129659142D01*
X103338380Y-129563904D01*
X103338380Y-129325809D01*
X103386000Y-129230571D01*
X103433619Y-129182952D01*
X103528857Y-129135333D01*
X103624095Y-129135333D01*
X103766952Y-129182952D01*
X104338380Y-129754380D01*
X104338380Y-129135333D01*
X104338380Y-128182952D02*
X104338380Y-128754380D01*
X104338380Y-128468666D02*
X103338380Y-128468666D01*
X103481238Y-128563904D01*
X103576476Y-128659142D01*
X103624095Y-128754380D01*
X104338380Y-127706761D02*
X104338380Y-127516285D01*
X104290761Y-127421047D01*
X104243142Y-127373428D01*
X104100285Y-127278190D01*
X103909809Y-127230571D01*
X103528857Y-127230571D01*
X103433619Y-127278190D01*
X103386000Y-127325809D01*
X103338380Y-127421047D01*
X103338380Y-127611523D01*
X103386000Y-127706761D01*
X103433619Y-127754380D01*
X103528857Y-127802000D01*
X103766952Y-127802000D01*
X103862190Y-127754380D01*
X103909809Y-127706761D01*
X103957428Y-127611523D01*
X103957428Y-127421047D01*
X103909809Y-127325809D01*
X103862190Y-127278190D01*
X103766952Y-127230571D01*
X67226380Y-135635904D02*
X68035904Y-135635904D01*
X68131142Y-135588285D01*
X68178761Y-135540666D01*
X68226380Y-135445428D01*
X68226380Y-135254952D01*
X68178761Y-135159714D01*
X68131142Y-135112095D01*
X68035904Y-135064476D01*
X67226380Y-135064476D01*
X67321619Y-134635904D02*
X67274000Y-134588285D01*
X67226380Y-134493047D01*
X67226380Y-134254952D01*
X67274000Y-134159714D01*
X67321619Y-134112095D01*
X67416857Y-134064476D01*
X67512095Y-134064476D01*
X67654952Y-134112095D01*
X68226380Y-134683523D01*
X68226380Y-134064476D01*
X78343428Y-134247000D02*
X78248190Y-134199380D01*
X78105333Y-134199380D01*
X77962476Y-134247000D01*
X77867238Y-134342238D01*
X77819619Y-134437476D01*
X77772000Y-134627952D01*
X77772000Y-134770809D01*
X77819619Y-134961285D01*
X77867238Y-135056523D01*
X77962476Y-135151761D01*
X78105333Y-135199380D01*
X78200571Y-135199380D01*
X78343428Y-135151761D01*
X78391047Y-135104142D01*
X78391047Y-134770809D01*
X78200571Y-134770809D01*
X78772000Y-134913666D02*
X79248190Y-134913666D01*
X78676761Y-135199380D02*
X79010095Y-134199380D01*
X79343428Y-135199380D01*
X80152952Y-135199380D02*
X79676761Y-135199380D01*
X79676761Y-134199380D01*
X81010095Y-135199380D02*
X80438666Y-135199380D01*
X80724380Y-135199380D02*
X80724380Y-134199380D01*
X80629142Y-134342238D01*
X80533904Y-134437476D01*
X80438666Y-134485095D01*
X81867238Y-134199380D02*
X81676761Y-134199380D01*
X81581523Y-134247000D01*
X81533904Y-134294619D01*
X81438666Y-134437476D01*
X81391047Y-134627952D01*
X81391047Y-135008904D01*
X81438666Y-135104142D01*
X81486285Y-135151761D01*
X81581523Y-135199380D01*
X81772000Y-135199380D01*
X81867238Y-135151761D01*
X81914857Y-135104142D01*
X81962476Y-135008904D01*
X81962476Y-134770809D01*
X81914857Y-134675571D01*
X81867238Y-134627952D01*
X81772000Y-134580333D01*
X81581523Y-134580333D01*
X81486285Y-134627952D01*
X81438666Y-134675571D01*
X81391047Y-134770809D01*
X82248190Y-134199380D02*
X82581523Y-135199380D01*
X82914857Y-134199380D01*
X83391047Y-134627952D02*
X83295809Y-134580333D01*
X83248190Y-134532714D01*
X83200571Y-134437476D01*
X83200571Y-134389857D01*
X83248190Y-134294619D01*
X83295809Y-134247000D01*
X83391047Y-134199380D01*
X83581523Y-134199380D01*
X83676761Y-134247000D01*
X83724380Y-134294619D01*
X83772000Y-134389857D01*
X83772000Y-134437476D01*
X83724380Y-134532714D01*
X83676761Y-134580333D01*
X83581523Y-134627952D01*
X83391047Y-134627952D01*
X83295809Y-134675571D01*
X83248190Y-134723190D01*
X83200571Y-134818428D01*
X83200571Y-135008904D01*
X83248190Y-135104142D01*
X83295809Y-135151761D01*
X83391047Y-135199380D01*
X83581523Y-135199380D01*
X83676761Y-135151761D01*
X83724380Y-135104142D01*
X83772000Y-135008904D01*
X83772000Y-134818428D01*
X83724380Y-134723190D01*
X83676761Y-134675571D01*
X83581523Y-134627952D01*
X134282380Y-134873904D02*
X135091904Y-134873904D01*
X135187142Y-134826285D01*
X135234761Y-134778666D01*
X135282380Y-134683428D01*
X135282380Y-134492952D01*
X135234761Y-134397714D01*
X135187142Y-134350095D01*
X135091904Y-134302476D01*
X134282380Y-134302476D01*
X135282380Y-133302476D02*
X135282380Y-133873904D01*
X135282380Y-133588190D02*
X134282380Y-133588190D01*
X134425238Y-133683428D01*
X134520476Y-133778666D01*
X134568095Y-133873904D01*
X141787952Y-133691380D02*
X142454619Y-133691380D01*
X142026047Y-134691380D01*
X143264142Y-134024714D02*
X143264142Y-134691380D01*
X143026047Y-133643761D02*
X142787952Y-134358047D01*
X143407000Y-134358047D01*
X144264142Y-134691380D02*
X143787952Y-134691380D01*
X143787952Y-133691380D01*
X144549857Y-134643761D02*
X144692714Y-134691380D01*
X144930809Y-134691380D01*
X145026047Y-134643761D01*
X145073666Y-134596142D01*
X145121285Y-134500904D01*
X145121285Y-134405666D01*
X145073666Y-134310428D01*
X145026047Y-134262809D01*
X144930809Y-134215190D01*
X144740333Y-134167571D01*
X144645095Y-134119952D01*
X144597476Y-134072333D01*
X144549857Y-133977095D01*
X144549857Y-133881857D01*
X144597476Y-133786619D01*
X144645095Y-133739000D01*
X144740333Y-133691380D01*
X144978428Y-133691380D01*
X145121285Y-133739000D01*
X145502238Y-133786619D02*
X145549857Y-133739000D01*
X145645095Y-133691380D01*
X145883190Y-133691380D01*
X145978428Y-133739000D01*
X146026047Y-133786619D01*
X146073666Y-133881857D01*
X146073666Y-133977095D01*
X146026047Y-134119952D01*
X145454619Y-134691380D01*
X146073666Y-134691380D01*
X146930809Y-134024714D02*
X146930809Y-134691380D01*
X146692714Y-133643761D02*
X146454619Y-134358047D01*
X147073666Y-134358047D01*
X147359380Y-133691380D02*
X147978428Y-133691380D01*
X147645095Y-134072333D01*
X147787952Y-134072333D01*
X147883190Y-134119952D01*
X147930809Y-134167571D01*
X147978428Y-134262809D01*
X147978428Y-134500904D01*
X147930809Y-134596142D01*
X147883190Y-134643761D01*
X147787952Y-134691380D01*
X147502238Y-134691380D01*
X147407000Y-134643761D01*
X147359380Y-134596142D01*
X63166666Y-142708380D02*
X63166666Y-143422666D01*
X63119047Y-143565523D01*
X63023809Y-143660761D01*
X62880952Y-143708380D01*
X62785714Y-143708380D01*
X64071428Y-143041714D02*
X64071428Y-143708380D01*
X63833333Y-142660761D02*
X63595238Y-143375047D01*
X64214285Y-143375047D01*
X121836380Y-110942285D02*
X120836380Y-110942285D01*
X120836380Y-110704190D01*
X120884000Y-110561333D01*
X120979238Y-110466095D01*
X121074476Y-110418476D01*
X121264952Y-110370857D01*
X121407809Y-110370857D01*
X121598285Y-110418476D01*
X121693523Y-110466095D01*
X121788761Y-110561333D01*
X121836380Y-110704190D01*
X121836380Y-110942285D01*
X121836380Y-109418476D02*
X121836380Y-109989904D01*
X121836380Y-109704190D02*
X120836380Y-109704190D01*
X120979238Y-109799428D01*
X121074476Y-109894666D01*
X121122095Y-109989904D01*
X120836380Y-108799428D02*
X120836380Y-108704190D01*
X120884000Y-108608952D01*
X120931619Y-108561333D01*
X121026857Y-108513714D01*
X121217333Y-108466095D01*
X121455428Y-108466095D01*
X121645904Y-108513714D01*
X121741142Y-108561333D01*
X121788761Y-108608952D01*
X121836380Y-108704190D01*
X121836380Y-108799428D01*
X121788761Y-108894666D01*
X121741142Y-108942285D01*
X121645904Y-108989904D01*
X121455428Y-109037523D01*
X121217333Y-109037523D01*
X121026857Y-108989904D01*
X120931619Y-108942285D01*
X120884000Y-108894666D01*
X120836380Y-108799428D01*
X91610380Y-110466095D02*
X90610380Y-110466095D01*
X90610380Y-110228000D01*
X90658000Y-110085142D01*
X90753238Y-109989904D01*
X90848476Y-109942285D01*
X91038952Y-109894666D01*
X91181809Y-109894666D01*
X91372285Y-109942285D01*
X91467523Y-109989904D01*
X91562761Y-110085142D01*
X91610380Y-110228000D01*
X91610380Y-110466095D01*
X91610380Y-109418476D02*
X91610380Y-109228000D01*
X91562761Y-109132761D01*
X91515142Y-109085142D01*
X91372285Y-108989904D01*
X91181809Y-108942285D01*
X90800857Y-108942285D01*
X90705619Y-108989904D01*
X90658000Y-109037523D01*
X90610380Y-109132761D01*
X90610380Y-109323238D01*
X90658000Y-109418476D01*
X90705619Y-109466095D01*
X90800857Y-109513714D01*
X91038952Y-109513714D01*
X91134190Y-109466095D01*
X91181809Y-109418476D01*
X91229428Y-109323238D01*
X91229428Y-109132761D01*
X91181809Y-109037523D01*
X91134190Y-108989904D01*
X91038952Y-108942285D01*
X86276380Y-110466095D02*
X85276380Y-110466095D01*
X85276380Y-110228000D01*
X85324000Y-110085142D01*
X85419238Y-109989904D01*
X85514476Y-109942285D01*
X85704952Y-109894666D01*
X85847809Y-109894666D01*
X86038285Y-109942285D01*
X86133523Y-109989904D01*
X86228761Y-110085142D01*
X86276380Y-110228000D01*
X86276380Y-110466095D01*
X85704952Y-109323238D02*
X85657333Y-109418476D01*
X85609714Y-109466095D01*
X85514476Y-109513714D01*
X85466857Y-109513714D01*
X85371619Y-109466095D01*
X85324000Y-109418476D01*
X85276380Y-109323238D01*
X85276380Y-109132761D01*
X85324000Y-109037523D01*
X85371619Y-108989904D01*
X85466857Y-108942285D01*
X85514476Y-108942285D01*
X85609714Y-108989904D01*
X85657333Y-109037523D01*
X85704952Y-109132761D01*
X85704952Y-109323238D01*
X85752571Y-109418476D01*
X85800190Y-109466095D01*
X85895428Y-109513714D01*
X86085904Y-109513714D01*
X86181142Y-109466095D01*
X86228761Y-109418476D01*
X86276380Y-109323238D01*
X86276380Y-109132761D01*
X86228761Y-109037523D01*
X86181142Y-108989904D01*
X86085904Y-108942285D01*
X85895428Y-108942285D01*
X85800190Y-108989904D01*
X85752571Y-109037523D01*
X85704952Y-109132761D01*
X76116380Y-110466095D02*
X75116380Y-110466095D01*
X75116380Y-110228000D01*
X75164000Y-110085142D01*
X75259238Y-109989904D01*
X75354476Y-109942285D01*
X75544952Y-109894666D01*
X75687809Y-109894666D01*
X75878285Y-109942285D01*
X75973523Y-109989904D01*
X76068761Y-110085142D01*
X76116380Y-110228000D01*
X76116380Y-110466095D01*
X75116380Y-109561333D02*
X75116380Y-108894666D01*
X76116380Y-109323238D01*
X70528380Y-110466095D02*
X69528380Y-110466095D01*
X69528380Y-110228000D01*
X69576000Y-110085142D01*
X69671238Y-109989904D01*
X69766476Y-109942285D01*
X69956952Y-109894666D01*
X70099809Y-109894666D01*
X70290285Y-109942285D01*
X70385523Y-109989904D01*
X70480761Y-110085142D01*
X70528380Y-110228000D01*
X70528380Y-110466095D01*
X69528380Y-109037523D02*
X69528380Y-109228000D01*
X69576000Y-109323238D01*
X69623619Y-109370857D01*
X69766476Y-109466095D01*
X69956952Y-109513714D01*
X70337904Y-109513714D01*
X70433142Y-109466095D01*
X70480761Y-109418476D01*
X70528380Y-109323238D01*
X70528380Y-109132761D01*
X70480761Y-109037523D01*
X70433142Y-108989904D01*
X70337904Y-108942285D01*
X70099809Y-108942285D01*
X70004571Y-108989904D01*
X69956952Y-109037523D01*
X69909333Y-109132761D01*
X69909333Y-109323238D01*
X69956952Y-109418476D01*
X70004571Y-109466095D01*
X70099809Y-109513714D01*
X113962380Y-110466095D02*
X112962380Y-110466095D01*
X112962380Y-110228000D01*
X113010000Y-110085142D01*
X113105238Y-109989904D01*
X113200476Y-109942285D01*
X113390952Y-109894666D01*
X113533809Y-109894666D01*
X113724285Y-109942285D01*
X113819523Y-109989904D01*
X113914761Y-110085142D01*
X113962380Y-110228000D01*
X113962380Y-110466095D01*
X112962380Y-108989904D02*
X112962380Y-109466095D01*
X113438571Y-109513714D01*
X113390952Y-109466095D01*
X113343333Y-109370857D01*
X113343333Y-109132761D01*
X113390952Y-109037523D01*
X113438571Y-108989904D01*
X113533809Y-108942285D01*
X113771904Y-108942285D01*
X113867142Y-108989904D01*
X113914761Y-109037523D01*
X113962380Y-109132761D01*
X113962380Y-109370857D01*
X113914761Y-109466095D01*
X113867142Y-109513714D01*
X109644380Y-110466095D02*
X108644380Y-110466095D01*
X108644380Y-110228000D01*
X108692000Y-110085142D01*
X108787238Y-109989904D01*
X108882476Y-109942285D01*
X109072952Y-109894666D01*
X109215809Y-109894666D01*
X109406285Y-109942285D01*
X109501523Y-109989904D01*
X109596761Y-110085142D01*
X109644380Y-110228000D01*
X109644380Y-110466095D01*
X108977714Y-109037523D02*
X109644380Y-109037523D01*
X108596761Y-109275619D02*
X109311047Y-109513714D01*
X109311047Y-108894666D01*
X105326380Y-110466095D02*
X104326380Y-110466095D01*
X104326380Y-110228000D01*
X104374000Y-110085142D01*
X104469238Y-109989904D01*
X104564476Y-109942285D01*
X104754952Y-109894666D01*
X104897809Y-109894666D01*
X105088285Y-109942285D01*
X105183523Y-109989904D01*
X105278761Y-110085142D01*
X105326380Y-110228000D01*
X105326380Y-110466095D01*
X104326380Y-109561333D02*
X104326380Y-108942285D01*
X104707333Y-109275619D01*
X104707333Y-109132761D01*
X104754952Y-109037523D01*
X104802571Y-108989904D01*
X104897809Y-108942285D01*
X105135904Y-108942285D01*
X105231142Y-108989904D01*
X105278761Y-109037523D01*
X105326380Y-109132761D01*
X105326380Y-109418476D01*
X105278761Y-109513714D01*
X105231142Y-109561333D01*
X101008380Y-110466095D02*
X100008380Y-110466095D01*
X100008380Y-110228000D01*
X100056000Y-110085142D01*
X100151238Y-109989904D01*
X100246476Y-109942285D01*
X100436952Y-109894666D01*
X100579809Y-109894666D01*
X100770285Y-109942285D01*
X100865523Y-109989904D01*
X100960761Y-110085142D01*
X101008380Y-110228000D01*
X101008380Y-110466095D01*
X100103619Y-109513714D02*
X100056000Y-109466095D01*
X100008380Y-109370857D01*
X100008380Y-109132761D01*
X100056000Y-109037523D01*
X100103619Y-108989904D01*
X100198857Y-108942285D01*
X100294095Y-108942285D01*
X100436952Y-108989904D01*
X101008380Y-109561333D01*
X101008380Y-108942285D01*
X63416380Y-110720095D02*
X62416380Y-110720095D01*
X62416380Y-110482000D01*
X62464000Y-110339142D01*
X62559238Y-110243904D01*
X62654476Y-110196285D01*
X62844952Y-110148666D01*
X62987809Y-110148666D01*
X63178285Y-110196285D01*
X63273523Y-110243904D01*
X63368761Y-110339142D01*
X63416380Y-110482000D01*
X63416380Y-110720095D01*
X63416380Y-109196285D02*
X63416380Y-109767714D01*
X63416380Y-109482000D02*
X62416380Y-109482000D01*
X62559238Y-109577238D01*
X62654476Y-109672476D01*
X62702095Y-109767714D01*
M02*
