M48
; DRILL file {KiCad (5.1.4-0-10_14)} date Saturday, December 21, 2019 at 02:54:50 PM
; FORMAT={-:-/ absolute / inch / decimal}
; #@! TF.CreationDate,2019-12-21T14:54:50-08:00
; #@! TF.GenerationSoftware,Kicad,Pcbnew,(5.1.4-0-10_14)
; #@! TF.FileFunction,Plated,1,2,PTH
FMAT,2
INCH
T1C0.0157
T2C0.0300
T3C0.0315
T4C0.0354
T5C0.0394
T6C0.0433
%
G90
G05
T1
X2.12Y-2.215
X2.12Y-2.215
X2.555Y-2.27
X2.89Y-2.27
X3.67Y-1.735
X3.885Y-2.08
T2
X1.14Y-1.14
X1.24Y-1.14
X1.34Y-1.14
X1.14Y-1.64
X1.24Y-1.64
X1.34Y-1.64
T3
X2.27Y-1.16
X2.67Y-1.16
X2.825Y-1.855
X2.9234Y-1.855
X2.27Y-1.58
X2.67Y-1.58
X1.78Y-1.855
X1.8784Y-1.855
X3.065Y-1.24
X3.1634Y-1.24
X1.8016Y-1.19
X1.9Y-1.19
X1.1Y-2.05
X1.1Y-2.35
X1.2Y-2.05
X1.2Y-2.35
X1.3Y-2.05
X1.3Y-2.35
X1.4Y-2.05
X2.27Y-1.44
X2.67Y-1.44
X2.845Y-1.375
X2.845Y-1.675
X2.945Y-1.375
X2.945Y-1.675
X1.7Y-2.35
X1.4Y-2.35
X1.5Y-2.05
X1.5Y-2.35
X1.6Y-2.05
X1.6Y-2.35
X1.7Y-2.05
X1.59Y-1.34
X2.67Y-1.3
X3.045Y-1.375
X3.145Y-1.375
X3.345Y-1.675
X3.445Y-1.675
X3.545Y-1.675
X2.27Y-1.3
X1.5716Y-1.19
X1.59Y-1.64
X1.69Y-1.34
X1.69Y-1.64
X1.79Y-1.34
X1.79Y-1.64
X1.89Y-1.34
X1.89Y-1.64
X1.1934Y-1.85
X3.045Y-1.675
X3.145Y-1.675
X3.245Y-1.375
X3.245Y-1.675
X3.345Y-1.375
X3.445Y-1.375
X1.095Y-1.85
X3.545Y-1.375
X1.67Y-1.19
X2.85Y-2.05
X2.85Y-2.35
X2.95Y-2.05
X2.95Y-2.35
X3.05Y-2.05
X3.05Y-2.35
X3.15Y-2.05
X3.15Y-2.35
X3.25Y-2.05
X3.25Y-2.35
X3.35Y-2.05
X3.35Y-2.35
X3.45Y-2.05
X2.3Y-2.35
X2.0Y-2.35
X2.1Y-2.35
X2.2Y-2.35
X2.4Y-2.05
X2.5Y-2.05
X2.6Y-2.05
X3.45Y-2.35
X2.27Y-1.72
X2.67Y-1.72
X3.75Y-1.57
X4.15Y-1.57
X2.825Y-1.24
X2.9234Y-1.24
X2.0Y-2.05
X2.1Y-2.05
X2.2Y-2.05
X2.3Y-2.05
X2.4Y-2.35
X2.5Y-2.35
X2.6Y-2.35
X3.785Y-1.78
X3.785Y-1.88
X3.785Y-1.98
X3.785Y-2.08
X3.785Y-2.18
X3.785Y-2.28
X3.785Y-2.38
X4.085Y-1.78
X4.085Y-1.88
X4.085Y-1.98
X4.085Y-2.08
X2.675Y-1.865
X2.275Y-1.865
X4.085Y-2.18
X4.085Y-2.28
X4.085Y-2.38
X3.645Y-1.84
X3.645Y-1.9384
T4
X3.4Y-1.19
X3.5Y-1.19
T5
X2.2Y-2.635
X2.3Y-2.635
X2.4Y-2.635
X2.5Y-2.635
X2.6Y-2.635
X2.7Y-2.635
T6
X3.81Y-1.17
X3.81Y-1.3472
X4.0659Y-1.17
X4.0659Y-1.3472
T0
M30
