G04 #@! TF.GenerationSoftware,KiCad,Pcbnew,(5.1.4-0-10_14)*
G04 #@! TF.CreationDate,2019-12-21T14:54:42-08:00*
G04 #@! TF.ProjectId,slow-clock,736c6f77-2d63-46c6-9f63-6b2e6b696361,rev?*
G04 #@! TF.SameCoordinates,Original*
G04 #@! TF.FileFunction,Copper,L1,Top*
G04 #@! TF.FilePolarity,Positive*
%FSLAX46Y46*%
G04 Gerber Fmt 4.6, Leading zero omitted, Abs format (unit mm)*
G04 Created by KiCad (PCBNEW (5.1.4-0-10_14)) date 2019-12-21 14:54:42*
%MOMM*%
%LPD*%
G04 APERTURE LIST*
%ADD10C,1.524000*%
%ADD11O,1.600000X1.600000*%
%ADD12C,1.600000*%
%ADD13R,1.800000X1.800000*%
%ADD14C,1.800000*%
%ADD15R,1.700000X1.700000*%
%ADD16O,1.700000X1.700000*%
%ADD17C,2.000000*%
%ADD18R,1.600000X1.600000*%
%ADD19C,0.600000*%
%ADD20C,0.250000*%
%ADD21C,0.254000*%
G04 APERTURE END LIST*
D10*
X28956000Y-41656000D03*
X31496000Y-41656000D03*
X34036000Y-41656000D03*
X34036000Y-28956000D03*
X31496000Y-28956000D03*
X28956000Y-28956000D03*
D11*
X57658000Y-29464000D03*
D12*
X67818000Y-29464000D03*
D11*
X57658000Y-33020000D03*
D12*
X67818000Y-33020000D03*
D11*
X105410000Y-39878000D03*
D12*
X95250000Y-39878000D03*
D11*
X67818000Y-43688000D03*
D12*
X57658000Y-43688000D03*
D11*
X57785000Y-47371000D03*
D12*
X67945000Y-47371000D03*
D11*
X67818000Y-40132000D03*
D12*
X57658000Y-40132000D03*
D11*
X57658000Y-36576000D03*
D12*
X67818000Y-36576000D03*
X45760000Y-30226000D03*
X48260000Y-30226000D03*
X42418000Y-30226000D03*
X39918000Y-30226000D03*
X77851000Y-31496000D03*
X80351000Y-31496000D03*
X47712000Y-47117000D03*
X45212000Y-47117000D03*
X71755000Y-31496000D03*
X74255000Y-31496000D03*
X74255000Y-47117000D03*
X71755000Y-47117000D03*
X27813000Y-46990000D03*
X30313000Y-46990000D03*
X92583000Y-49236000D03*
X92583000Y-46736000D03*
D13*
X88900000Y-30226000D03*
D14*
X86360000Y-30226000D03*
D15*
X55880000Y-66929000D03*
D16*
X58420000Y-66929000D03*
X60960000Y-66929000D03*
X63500000Y-66929000D03*
X66040000Y-66929000D03*
X68580000Y-66929000D03*
D17*
X96774000Y-34218000D03*
X96774000Y-29718000D03*
X103274000Y-34218000D03*
X103274000Y-29718000D03*
D18*
X40386000Y-41656000D03*
D11*
X48006000Y-34036000D03*
X42926000Y-41656000D03*
X45466000Y-34036000D03*
X45466000Y-41656000D03*
X42926000Y-34036000D03*
X48006000Y-41656000D03*
X40386000Y-34036000D03*
D18*
X96139000Y-45212000D03*
D11*
X103759000Y-60452000D03*
X96139000Y-47752000D03*
X103759000Y-57912000D03*
X96139000Y-50292000D03*
X103759000Y-55372000D03*
X96139000Y-52832000D03*
X103759000Y-52832000D03*
X96139000Y-55372000D03*
X103759000Y-50292000D03*
X96139000Y-57912000D03*
X103759000Y-47752000D03*
X96139000Y-60452000D03*
X103759000Y-45212000D03*
X50800000Y-52070000D03*
X66040000Y-59690000D03*
X53340000Y-52070000D03*
X63500000Y-59690000D03*
X55880000Y-52070000D03*
X60960000Y-59690000D03*
X58420000Y-52070000D03*
X58420000Y-59690000D03*
X60960000Y-52070000D03*
X55880000Y-59690000D03*
X63500000Y-52070000D03*
X53340000Y-59690000D03*
X66040000Y-52070000D03*
D18*
X50800000Y-59690000D03*
X72263000Y-42545000D03*
D11*
X90043000Y-34925000D03*
X74803000Y-42545000D03*
X87503000Y-34925000D03*
X77343000Y-42545000D03*
X84963000Y-34925000D03*
X79883000Y-42545000D03*
X82423000Y-34925000D03*
X82423000Y-42545000D03*
X79883000Y-34925000D03*
X84963000Y-42545000D03*
X77343000Y-34925000D03*
X87503000Y-42545000D03*
X74803000Y-34925000D03*
X90043000Y-42545000D03*
X72263000Y-34925000D03*
D18*
X27940000Y-59690000D03*
D11*
X43180000Y-52070000D03*
X30480000Y-59690000D03*
X40640000Y-52070000D03*
X33020000Y-59690000D03*
X38100000Y-52070000D03*
X35560000Y-59690000D03*
X35560000Y-52070000D03*
X38100000Y-59690000D03*
X33020000Y-52070000D03*
X40640000Y-59690000D03*
X30480000Y-52070000D03*
X43180000Y-59690000D03*
X27940000Y-52070000D03*
X72390000Y-52070000D03*
X87630000Y-59690000D03*
X74930000Y-52070000D03*
X85090000Y-59690000D03*
X77470000Y-52070000D03*
X82550000Y-59690000D03*
X80010000Y-52070000D03*
X80010000Y-59690000D03*
X82550000Y-52070000D03*
X77470000Y-59690000D03*
X85090000Y-52070000D03*
X74930000Y-59690000D03*
X87630000Y-52070000D03*
D18*
X72390000Y-59690000D03*
D19*
X98679000Y-52832000D03*
X53848000Y-56261000D03*
X53848000Y-56261000D03*
X93218000Y-44069000D03*
X64897000Y-57658000D03*
X73406000Y-57658000D03*
D20*
X54471370Y-52070000D02*
X55880000Y-52070000D01*
X53340000Y-52070000D02*
X54471370Y-52070000D01*
X59834999Y-53195001D02*
X60160001Y-52869999D01*
X60160001Y-52869999D02*
X60960000Y-52070000D01*
X57005001Y-53195001D02*
X59834999Y-53195001D01*
X55880000Y-52070000D02*
X57005001Y-53195001D01*
X62091370Y-52070000D02*
X63500000Y-52070000D01*
X60960000Y-52070000D02*
X62091370Y-52070000D01*
X73804999Y-53195001D02*
X74130001Y-52869999D01*
X74130001Y-52869999D02*
X74930000Y-52070000D01*
X64625001Y-53195001D02*
X73804999Y-53195001D01*
X63500000Y-52070000D02*
X64625001Y-53195001D01*
X74930000Y-52070000D02*
X77470000Y-52070000D01*
X81424999Y-50944999D02*
X81750001Y-51270001D01*
X81750001Y-51270001D02*
X82550000Y-52070000D01*
X78595001Y-50944999D02*
X81424999Y-50944999D01*
X77470000Y-52070000D02*
X78595001Y-50944999D01*
X83681370Y-52070000D02*
X85090000Y-52070000D01*
X82550000Y-52070000D02*
X83681370Y-52070000D01*
X91451630Y-49236000D02*
X92583000Y-49236000D01*
X88798998Y-49236000D02*
X91451630Y-49236000D01*
X85964998Y-52070000D02*
X88798998Y-49236000D01*
X85090000Y-52070000D02*
X85964998Y-52070000D01*
X103274000Y-34218000D02*
X96774000Y-34218000D01*
X43094990Y-45414990D02*
X40386000Y-42706000D01*
X46009990Y-45414990D02*
X43094990Y-45414990D01*
X40386000Y-42706000D02*
X40386000Y-41656000D01*
X47712000Y-47117000D02*
X46009990Y-45414990D01*
X56858001Y-30263999D02*
X57658000Y-29464000D01*
X46885001Y-31351001D02*
X55770999Y-31351001D01*
X55770999Y-31351001D02*
X56858001Y-30263999D01*
X45760000Y-30226000D02*
X46885001Y-31351001D01*
X40717999Y-31025999D02*
X39918000Y-30226000D01*
X41043001Y-31351001D02*
X40717999Y-31025999D01*
X44634999Y-31351001D02*
X41043001Y-31351001D01*
X45760000Y-30226000D02*
X44634999Y-31351001D01*
X80010000Y-59690000D02*
X82550000Y-59690000D01*
X86830001Y-60489999D02*
X87630000Y-59690000D01*
X83675001Y-60815001D02*
X86504999Y-60815001D01*
X86504999Y-60815001D02*
X86830001Y-60489999D01*
X82550000Y-59690000D02*
X83675001Y-60815001D01*
X96139000Y-55372000D02*
X98679000Y-52832000D01*
X98679000Y-52832000D02*
X103759000Y-52832000D01*
X98679000Y-52832000D02*
X98679000Y-52832000D01*
X90043000Y-34925000D02*
X87503000Y-34925000D01*
X86371630Y-34925000D02*
X84963000Y-34925000D01*
X87503000Y-34925000D02*
X86371630Y-34925000D01*
X81534000Y-31496000D02*
X80351000Y-31496000D01*
X84963000Y-34925000D02*
X81534000Y-31496000D01*
X77343000Y-34504000D02*
X77343000Y-34925000D01*
X80351000Y-31496000D02*
X77343000Y-34504000D01*
X74255000Y-31837000D02*
X74255000Y-31496000D01*
X77343000Y-34925000D02*
X74255000Y-31837000D01*
X30480000Y-52070000D02*
X33020000Y-52070000D01*
X37300001Y-52869999D02*
X38100000Y-52070000D01*
X36974999Y-53195001D02*
X37300001Y-52869999D01*
X34145001Y-53195001D02*
X36974999Y-53195001D01*
X33020000Y-52070000D02*
X34145001Y-53195001D01*
X39231370Y-52070000D02*
X40640000Y-52070000D01*
X38100000Y-52070000D02*
X39231370Y-52070000D01*
X51562000Y-40132000D02*
X57658000Y-40132000D01*
X45466000Y-34036000D02*
X51562000Y-40132000D01*
X43959999Y-45864999D02*
X44412001Y-46317001D01*
X28938001Y-45864999D02*
X43959999Y-45864999D01*
X44412001Y-46317001D02*
X45212000Y-47117000D01*
X27813000Y-46990000D02*
X28938001Y-45864999D01*
X36576000Y-34036000D02*
X31496000Y-28956000D01*
X40386000Y-34036000D02*
X36576000Y-34036000D01*
X51599999Y-51270001D02*
X50800000Y-52070000D01*
X52832000Y-50038000D02*
X51599999Y-51270001D01*
X65278000Y-50038000D02*
X52832000Y-50038000D01*
X67945000Y-47371000D02*
X65278000Y-50038000D01*
X102959001Y-46011999D02*
X103759000Y-45212000D01*
X102633999Y-46337001D02*
X102959001Y-46011999D01*
X94113369Y-46337001D02*
X102633999Y-46337001D01*
X93714370Y-46736000D02*
X94113369Y-46337001D01*
X92583000Y-46736000D02*
X93714370Y-46736000D01*
X74803000Y-42545000D02*
X77343000Y-42545000D01*
X102959001Y-44412001D02*
X103759000Y-45212000D01*
X99966999Y-41419999D02*
X102959001Y-44412001D01*
X78468001Y-41419999D02*
X99966999Y-41419999D01*
X77343000Y-42545000D02*
X78468001Y-41419999D01*
X71501000Y-47371000D02*
X71755000Y-47117000D01*
X67945000Y-47371000D02*
X71501000Y-47371000D01*
X50000001Y-51270001D02*
X50800000Y-52070000D01*
X49674999Y-50944999D02*
X50000001Y-51270001D01*
X29939999Y-50944999D02*
X49674999Y-50944999D01*
X26814999Y-54069999D02*
X29939999Y-50944999D01*
X26814999Y-61739999D02*
X26814999Y-54069999D01*
X33179001Y-68104001D02*
X26814999Y-61739999D01*
X57244999Y-68104001D02*
X33179001Y-68104001D01*
X58420000Y-66929000D02*
X57244999Y-68104001D01*
X70612000Y-36576000D02*
X72263000Y-34925000D01*
X67818000Y-36576000D02*
X70612000Y-36576000D01*
X96381370Y-39878000D02*
X95250000Y-39878000D01*
X104599001Y-34854001D02*
X99575002Y-39878000D01*
X104599001Y-29081999D02*
X104599001Y-34854001D01*
X103910001Y-28392999D02*
X104599001Y-29081999D01*
X91883001Y-28392999D02*
X103910001Y-28392999D01*
X90050000Y-30226000D02*
X91883001Y-28392999D01*
X99575002Y-39878000D02*
X96381370Y-39878000D01*
X88900000Y-30226000D02*
X90050000Y-30226000D01*
X76670001Y-60489999D02*
X77470000Y-59690000D01*
X76344999Y-60815001D02*
X76670001Y-60489999D01*
X72153999Y-60815001D02*
X76344999Y-60815001D01*
X66040000Y-66929000D02*
X72153999Y-60815001D01*
X32621001Y-40530999D02*
X32257999Y-40894001D01*
X32257999Y-40894001D02*
X31496000Y-41656000D01*
X48546001Y-40530999D02*
X32621001Y-40530999D01*
X66692999Y-41257001D02*
X49272003Y-41257001D01*
X49272003Y-41257001D02*
X48546001Y-40530999D01*
X67818000Y-40132000D02*
X66692999Y-41257001D01*
X72263000Y-41495000D02*
X76674000Y-37084000D01*
X72263000Y-42545000D02*
X72263000Y-41495000D01*
X96774000Y-31132213D02*
X96774000Y-29718000D01*
X90822213Y-37084000D02*
X96774000Y-31132213D01*
X76674000Y-37084000D02*
X90822213Y-37084000D01*
X96774000Y-29718000D02*
X103274000Y-29718000D01*
X58801000Y-42545000D02*
X72263000Y-42545000D01*
X57658000Y-43688000D02*
X58801000Y-42545000D01*
X49022000Y-45212000D02*
X96139000Y-45212000D01*
X45466000Y-41656000D02*
X49022000Y-45212000D01*
X87630000Y-56261000D02*
X96139000Y-47752000D01*
X53848000Y-56261000D02*
X87630000Y-56261000D01*
X79883000Y-43676370D02*
X80275630Y-44069000D01*
X79883000Y-42545000D02*
X79883000Y-43676370D01*
X80275630Y-44069000D02*
X93218000Y-44069000D01*
X93218000Y-44069000D02*
X93345000Y-44069000D01*
X89274631Y-58564999D02*
X62085001Y-58564999D01*
X95007630Y-52832000D02*
X89274631Y-58564999D01*
X61759999Y-58890001D02*
X60960000Y-59690000D01*
X62085001Y-58564999D02*
X61759999Y-58890001D01*
X96139000Y-52832000D02*
X95007630Y-52832000D01*
X64897000Y-57658000D02*
X73406000Y-57658000D01*
X73406000Y-57658000D02*
X73406000Y-57658000D01*
X37300001Y-58890001D02*
X38100000Y-59690000D01*
X36974999Y-58564999D02*
X37300001Y-58890001D01*
X34145001Y-58564999D02*
X36974999Y-58564999D01*
X33020000Y-59690000D02*
X34145001Y-58564999D01*
X39225001Y-58564999D02*
X57294999Y-58564999D01*
X57620001Y-58890001D02*
X58420000Y-59690000D01*
X57294999Y-58564999D02*
X57620001Y-58890001D01*
X38100000Y-59690000D02*
X39225001Y-58564999D01*
X71340000Y-59690000D02*
X72390000Y-59690000D01*
X70214999Y-60815001D02*
X71340000Y-59690000D01*
X57005001Y-60815001D02*
X70214999Y-60815001D01*
X55880000Y-59690000D02*
X57005001Y-60815001D01*
X39840001Y-60489999D02*
X40640000Y-59690000D01*
X29957998Y-60833000D02*
X39497000Y-60833000D01*
X28814998Y-59690000D02*
X29957998Y-60833000D01*
X39497000Y-60833000D02*
X39840001Y-60489999D01*
X27940000Y-59690000D02*
X28814998Y-59690000D01*
X52540001Y-60489999D02*
X53340000Y-59690000D01*
X52214999Y-60815001D02*
X52540001Y-60489999D01*
X41765001Y-60815001D02*
X52214999Y-60815001D01*
X40640000Y-59690000D02*
X41765001Y-60815001D01*
X56858001Y-35776001D02*
X57658000Y-36576000D01*
X53992999Y-32910999D02*
X56858001Y-35776001D01*
X44051001Y-32910999D02*
X53992999Y-32910999D01*
X42926000Y-34036000D02*
X44051001Y-32910999D01*
X57117999Y-28338999D02*
X63136999Y-28338999D01*
X63136999Y-28338999D02*
X67018001Y-32220001D01*
X56500998Y-28956000D02*
X57117999Y-28338999D01*
X67018001Y-32220001D02*
X67818000Y-33020000D01*
X34036000Y-28956000D02*
X56500998Y-28956000D01*
X67018001Y-28664001D02*
X67818000Y-29464000D01*
X65913000Y-27559000D02*
X67018001Y-28664001D01*
X30353000Y-27559000D02*
X65913000Y-27559000D01*
X28956000Y-28956000D02*
X30353000Y-27559000D01*
D21*
G36*
X107011001Y-70435000D02*
G01*
X24815000Y-70435000D01*
X24815000Y-54069999D01*
X26051323Y-54069999D01*
X26055000Y-54107331D01*
X26054999Y-61702677D01*
X26051323Y-61739999D01*
X26054999Y-61777321D01*
X26054999Y-61777331D01*
X26065996Y-61888984D01*
X26109453Y-62032245D01*
X26180025Y-62164275D01*
X26219870Y-62212825D01*
X26274998Y-62280000D01*
X26304002Y-62303803D01*
X32615202Y-68615004D01*
X32639000Y-68644002D01*
X32667998Y-68667800D01*
X32754724Y-68738975D01*
X32886754Y-68809547D01*
X33030015Y-68853004D01*
X33141668Y-68864001D01*
X33141678Y-68864001D01*
X33179001Y-68867677D01*
X33216324Y-68864001D01*
X57207677Y-68864001D01*
X57244999Y-68867677D01*
X57282321Y-68864001D01*
X57282332Y-68864001D01*
X57393985Y-68853004D01*
X57537246Y-68809547D01*
X57669275Y-68738975D01*
X57785000Y-68644002D01*
X57808803Y-68614998D01*
X58054004Y-68369797D01*
X58128889Y-68392513D01*
X58347050Y-68414000D01*
X58492950Y-68414000D01*
X58711111Y-68392513D01*
X58991034Y-68307599D01*
X59249014Y-68169706D01*
X59475134Y-67984134D01*
X59660706Y-67758014D01*
X59690000Y-67703209D01*
X59719294Y-67758014D01*
X59904866Y-67984134D01*
X60130986Y-68169706D01*
X60388966Y-68307599D01*
X60668889Y-68392513D01*
X60887050Y-68414000D01*
X61032950Y-68414000D01*
X61251111Y-68392513D01*
X61531034Y-68307599D01*
X61789014Y-68169706D01*
X62015134Y-67984134D01*
X62200706Y-67758014D01*
X62230000Y-67703209D01*
X62259294Y-67758014D01*
X62444866Y-67984134D01*
X62670986Y-68169706D01*
X62928966Y-68307599D01*
X63208889Y-68392513D01*
X63427050Y-68414000D01*
X63572950Y-68414000D01*
X63791111Y-68392513D01*
X64071034Y-68307599D01*
X64329014Y-68169706D01*
X64555134Y-67984134D01*
X64740706Y-67758014D01*
X64770000Y-67703209D01*
X64799294Y-67758014D01*
X64984866Y-67984134D01*
X65210986Y-68169706D01*
X65468966Y-68307599D01*
X65748889Y-68392513D01*
X65967050Y-68414000D01*
X66112950Y-68414000D01*
X66331111Y-68392513D01*
X66611034Y-68307599D01*
X66869014Y-68169706D01*
X67095134Y-67984134D01*
X67280706Y-67758014D01*
X67310000Y-67703209D01*
X67339294Y-67758014D01*
X67524866Y-67984134D01*
X67750986Y-68169706D01*
X68008966Y-68307599D01*
X68288889Y-68392513D01*
X68507050Y-68414000D01*
X68652950Y-68414000D01*
X68871111Y-68392513D01*
X69151034Y-68307599D01*
X69409014Y-68169706D01*
X69635134Y-67984134D01*
X69820706Y-67758014D01*
X69958599Y-67500034D01*
X70043513Y-67220111D01*
X70072185Y-66929000D01*
X70043513Y-66637889D01*
X69958599Y-66357966D01*
X69820706Y-66099986D01*
X69635134Y-65873866D01*
X69409014Y-65688294D01*
X69151034Y-65550401D01*
X68871111Y-65465487D01*
X68652950Y-65444000D01*
X68599801Y-65444000D01*
X72468801Y-61575001D01*
X76307677Y-61575001D01*
X76344999Y-61578677D01*
X76382321Y-61575001D01*
X76382332Y-61575001D01*
X76493985Y-61564004D01*
X76637246Y-61520547D01*
X76769275Y-61449975D01*
X76885000Y-61355002D01*
X76908803Y-61325998D01*
X77144093Y-61090708D01*
X77188691Y-61104236D01*
X77399508Y-61125000D01*
X77540492Y-61125000D01*
X77751309Y-61104236D01*
X78021808Y-61022182D01*
X78271101Y-60888932D01*
X78489608Y-60709608D01*
X78668932Y-60491101D01*
X78742579Y-60353318D01*
X78857615Y-60545131D01*
X79046586Y-60753519D01*
X79272580Y-60921037D01*
X79526913Y-61041246D01*
X79660961Y-61081904D01*
X79883000Y-60959915D01*
X79883000Y-59817000D01*
X80137000Y-59817000D01*
X80137000Y-60959915D01*
X80359039Y-61081904D01*
X80493087Y-61041246D01*
X80747420Y-60921037D01*
X80973414Y-60753519D01*
X81162385Y-60545131D01*
X81280000Y-60349018D01*
X81397615Y-60545131D01*
X81586586Y-60753519D01*
X81812580Y-60921037D01*
X82066913Y-61041246D01*
X82200961Y-61081904D01*
X82423000Y-60959915D01*
X82423000Y-59817000D01*
X80137000Y-59817000D01*
X79883000Y-59817000D01*
X79863000Y-59817000D01*
X79863000Y-59563000D01*
X79883000Y-59563000D01*
X79883000Y-59543000D01*
X80137000Y-59543000D01*
X80137000Y-59563000D01*
X82423000Y-59563000D01*
X82423000Y-59543000D01*
X82677000Y-59543000D01*
X82677000Y-59563000D01*
X82697000Y-59563000D01*
X82697000Y-59817000D01*
X82677000Y-59817000D01*
X82677000Y-60959915D01*
X82899039Y-61081904D01*
X83033087Y-61041246D01*
X83287420Y-60921037D01*
X83513414Y-60753519D01*
X83702385Y-60545131D01*
X83817421Y-60353318D01*
X83891068Y-60491101D01*
X84070392Y-60709608D01*
X84288899Y-60888932D01*
X84538192Y-61022182D01*
X84808691Y-61104236D01*
X85019508Y-61125000D01*
X85160492Y-61125000D01*
X85371309Y-61104236D01*
X85641808Y-61022182D01*
X85891101Y-60888932D01*
X86109608Y-60709608D01*
X86288932Y-60491101D01*
X86362579Y-60353318D01*
X86477615Y-60545131D01*
X86666586Y-60753519D01*
X86892580Y-60921037D01*
X87146913Y-61041246D01*
X87280961Y-61081904D01*
X87503000Y-60959915D01*
X87503000Y-59817000D01*
X87757000Y-59817000D01*
X87757000Y-60959915D01*
X87979039Y-61081904D01*
X88113087Y-61041246D01*
X88367420Y-60921037D01*
X88529306Y-60801039D01*
X94747096Y-60801039D01*
X94787754Y-60935087D01*
X94907963Y-61189420D01*
X95075481Y-61415414D01*
X95283869Y-61604385D01*
X95525119Y-61749070D01*
X95789960Y-61843909D01*
X96012000Y-61722624D01*
X96012000Y-60579000D01*
X96266000Y-60579000D01*
X96266000Y-61722624D01*
X96488040Y-61843909D01*
X96752881Y-61749070D01*
X96994131Y-61604385D01*
X97202519Y-61415414D01*
X97370037Y-61189420D01*
X97490246Y-60935087D01*
X97530904Y-60801039D01*
X97408915Y-60579000D01*
X96266000Y-60579000D01*
X96012000Y-60579000D01*
X94869085Y-60579000D01*
X94747096Y-60801039D01*
X88529306Y-60801039D01*
X88593414Y-60753519D01*
X88782385Y-60545131D01*
X88838238Y-60452000D01*
X102317057Y-60452000D01*
X102344764Y-60733309D01*
X102426818Y-61003808D01*
X102560068Y-61253101D01*
X102739392Y-61471608D01*
X102957899Y-61650932D01*
X103207192Y-61784182D01*
X103477691Y-61866236D01*
X103688508Y-61887000D01*
X103829492Y-61887000D01*
X104040309Y-61866236D01*
X104310808Y-61784182D01*
X104560101Y-61650932D01*
X104778608Y-61471608D01*
X104957932Y-61253101D01*
X105091182Y-61003808D01*
X105173236Y-60733309D01*
X105200943Y-60452000D01*
X105173236Y-60170691D01*
X105091182Y-59900192D01*
X104957932Y-59650899D01*
X104778608Y-59432392D01*
X104560101Y-59253068D01*
X104422318Y-59179421D01*
X104614131Y-59064385D01*
X104822519Y-58875414D01*
X104990037Y-58649420D01*
X105110246Y-58395087D01*
X105150904Y-58261039D01*
X105028915Y-58039000D01*
X103886000Y-58039000D01*
X103886000Y-58059000D01*
X103632000Y-58059000D01*
X103632000Y-58039000D01*
X102489085Y-58039000D01*
X102367096Y-58261039D01*
X102407754Y-58395087D01*
X102527963Y-58649420D01*
X102695481Y-58875414D01*
X102903869Y-59064385D01*
X103095682Y-59179421D01*
X102957899Y-59253068D01*
X102739392Y-59432392D01*
X102560068Y-59650899D01*
X102426818Y-59900192D01*
X102344764Y-60170691D01*
X102317057Y-60452000D01*
X88838238Y-60452000D01*
X88927070Y-60303881D01*
X89021909Y-60039040D01*
X88900624Y-59817000D01*
X87757000Y-59817000D01*
X87503000Y-59817000D01*
X87483000Y-59817000D01*
X87483000Y-59563000D01*
X87503000Y-59563000D01*
X87503000Y-59543000D01*
X87757000Y-59543000D01*
X87757000Y-59563000D01*
X88900624Y-59563000D01*
X89021909Y-59340960D01*
X89016193Y-59324999D01*
X89237309Y-59324999D01*
X89274631Y-59328675D01*
X89311953Y-59324999D01*
X89311964Y-59324999D01*
X89423617Y-59314002D01*
X89566878Y-59270545D01*
X89698907Y-59199973D01*
X89814632Y-59105000D01*
X89838435Y-59075996D01*
X91002431Y-57912000D01*
X94697057Y-57912000D01*
X94724764Y-58193309D01*
X94806818Y-58463808D01*
X94940068Y-58713101D01*
X95119392Y-58931608D01*
X95337899Y-59110932D01*
X95475682Y-59184579D01*
X95283869Y-59299615D01*
X95075481Y-59488586D01*
X94907963Y-59714580D01*
X94787754Y-59968913D01*
X94747096Y-60102961D01*
X94869085Y-60325000D01*
X96012000Y-60325000D01*
X96012000Y-60305000D01*
X96266000Y-60305000D01*
X96266000Y-60325000D01*
X97408915Y-60325000D01*
X97530904Y-60102961D01*
X97490246Y-59968913D01*
X97370037Y-59714580D01*
X97202519Y-59488586D01*
X96994131Y-59299615D01*
X96802318Y-59184579D01*
X96940101Y-59110932D01*
X97158608Y-58931608D01*
X97337932Y-58713101D01*
X97471182Y-58463808D01*
X97553236Y-58193309D01*
X97580943Y-57912000D01*
X97553236Y-57630691D01*
X97471182Y-57360192D01*
X97337932Y-57110899D01*
X97158608Y-56892392D01*
X96940101Y-56713068D01*
X96802318Y-56639421D01*
X96994131Y-56524385D01*
X97202519Y-56335414D01*
X97370037Y-56109420D01*
X97490246Y-55855087D01*
X97530904Y-55721039D01*
X97408915Y-55499000D01*
X96266000Y-55499000D01*
X96266000Y-55519000D01*
X96012000Y-55519000D01*
X96012000Y-55499000D01*
X94869085Y-55499000D01*
X94747096Y-55721039D01*
X94787754Y-55855087D01*
X94907963Y-56109420D01*
X95075481Y-56335414D01*
X95283869Y-56524385D01*
X95475682Y-56639421D01*
X95337899Y-56713068D01*
X95119392Y-56892392D01*
X94940068Y-57110899D01*
X94806818Y-57360192D01*
X94724764Y-57630691D01*
X94697057Y-57912000D01*
X91002431Y-57912000D01*
X93542431Y-55372000D01*
X102317057Y-55372000D01*
X102344764Y-55653309D01*
X102426818Y-55923808D01*
X102560068Y-56173101D01*
X102739392Y-56391608D01*
X102957899Y-56570932D01*
X103095682Y-56644579D01*
X102903869Y-56759615D01*
X102695481Y-56948586D01*
X102527963Y-57174580D01*
X102407754Y-57428913D01*
X102367096Y-57562961D01*
X102489085Y-57785000D01*
X103632000Y-57785000D01*
X103632000Y-57765000D01*
X103886000Y-57765000D01*
X103886000Y-57785000D01*
X105028915Y-57785000D01*
X105150904Y-57562961D01*
X105110246Y-57428913D01*
X104990037Y-57174580D01*
X104822519Y-56948586D01*
X104614131Y-56759615D01*
X104422318Y-56644579D01*
X104560101Y-56570932D01*
X104778608Y-56391608D01*
X104957932Y-56173101D01*
X105091182Y-55923808D01*
X105173236Y-55653309D01*
X105200943Y-55372000D01*
X105173236Y-55090691D01*
X105091182Y-54820192D01*
X104957932Y-54570899D01*
X104778608Y-54352392D01*
X104560101Y-54173068D01*
X104422318Y-54099421D01*
X104614131Y-53984385D01*
X104822519Y-53795414D01*
X104990037Y-53569420D01*
X105110246Y-53315087D01*
X105150904Y-53181039D01*
X105028915Y-52959000D01*
X103886000Y-52959000D01*
X103886000Y-52979000D01*
X103632000Y-52979000D01*
X103632000Y-52959000D01*
X102489085Y-52959000D01*
X102367096Y-53181039D01*
X102407754Y-53315087D01*
X102527963Y-53569420D01*
X102695481Y-53795414D01*
X102903869Y-53984385D01*
X103095682Y-54099421D01*
X102957899Y-54173068D01*
X102739392Y-54352392D01*
X102560068Y-54570899D01*
X102426818Y-54820192D01*
X102344764Y-55090691D01*
X102317057Y-55372000D01*
X93542431Y-55372000D01*
X95093894Y-53820538D01*
X95119392Y-53851608D01*
X95337899Y-54030932D01*
X95475682Y-54104579D01*
X95283869Y-54219615D01*
X95075481Y-54408586D01*
X94907963Y-54634580D01*
X94787754Y-54888913D01*
X94747096Y-55022961D01*
X94869085Y-55245000D01*
X96012000Y-55245000D01*
X96012000Y-55225000D01*
X96266000Y-55225000D01*
X96266000Y-55245000D01*
X97408915Y-55245000D01*
X97530904Y-55022961D01*
X97490246Y-54888913D01*
X97370037Y-54634580D01*
X97202519Y-54408586D01*
X96994131Y-54219615D01*
X96802318Y-54104579D01*
X96940101Y-54030932D01*
X97158608Y-53851608D01*
X97337932Y-53633101D01*
X97471182Y-53383808D01*
X97553236Y-53113309D01*
X97580943Y-52832000D01*
X97553236Y-52550691D01*
X97471182Y-52280192D01*
X97337932Y-52030899D01*
X97158608Y-51812392D01*
X96940101Y-51633068D01*
X96807142Y-51562000D01*
X96940101Y-51490932D01*
X97158608Y-51311608D01*
X97337932Y-51093101D01*
X97471182Y-50843808D01*
X97553236Y-50573309D01*
X97580943Y-50292000D01*
X102317057Y-50292000D01*
X102344764Y-50573309D01*
X102426818Y-50843808D01*
X102560068Y-51093101D01*
X102739392Y-51311608D01*
X102957899Y-51490932D01*
X103095682Y-51564579D01*
X102903869Y-51679615D01*
X102695481Y-51868586D01*
X102527963Y-52094580D01*
X102407754Y-52348913D01*
X102367096Y-52482961D01*
X102489085Y-52705000D01*
X103632000Y-52705000D01*
X103632000Y-52685000D01*
X103886000Y-52685000D01*
X103886000Y-52705000D01*
X105028915Y-52705000D01*
X105150904Y-52482961D01*
X105110246Y-52348913D01*
X104990037Y-52094580D01*
X104822519Y-51868586D01*
X104614131Y-51679615D01*
X104422318Y-51564579D01*
X104560101Y-51490932D01*
X104778608Y-51311608D01*
X104957932Y-51093101D01*
X105091182Y-50843808D01*
X105173236Y-50573309D01*
X105200943Y-50292000D01*
X105173236Y-50010691D01*
X105091182Y-49740192D01*
X104957932Y-49490899D01*
X104778608Y-49272392D01*
X104560101Y-49093068D01*
X104422318Y-49019421D01*
X104614131Y-48904385D01*
X104822519Y-48715414D01*
X104990037Y-48489420D01*
X105110246Y-48235087D01*
X105150904Y-48101039D01*
X105028915Y-47879000D01*
X103886000Y-47879000D01*
X103886000Y-47899000D01*
X103632000Y-47899000D01*
X103632000Y-47879000D01*
X102489085Y-47879000D01*
X102367096Y-48101039D01*
X102407754Y-48235087D01*
X102527963Y-48489420D01*
X102695481Y-48715414D01*
X102903869Y-48904385D01*
X103095682Y-49019421D01*
X102957899Y-49093068D01*
X102739392Y-49272392D01*
X102560068Y-49490899D01*
X102426818Y-49740192D01*
X102344764Y-50010691D01*
X102317057Y-50292000D01*
X97580943Y-50292000D01*
X97553236Y-50010691D01*
X97471182Y-49740192D01*
X97337932Y-49490899D01*
X97158608Y-49272392D01*
X96940101Y-49093068D01*
X96807142Y-49022000D01*
X96940101Y-48950932D01*
X97158608Y-48771608D01*
X97337932Y-48553101D01*
X97471182Y-48303808D01*
X97553236Y-48033309D01*
X97580943Y-47752000D01*
X97553236Y-47470691D01*
X97471182Y-47200192D01*
X97416025Y-47097001D01*
X102489007Y-47097001D01*
X102407754Y-47268913D01*
X102367096Y-47402961D01*
X102489085Y-47625000D01*
X103632000Y-47625000D01*
X103632000Y-47605000D01*
X103886000Y-47605000D01*
X103886000Y-47625000D01*
X105028915Y-47625000D01*
X105150904Y-47402961D01*
X105110246Y-47268913D01*
X104990037Y-47014580D01*
X104822519Y-46788586D01*
X104614131Y-46599615D01*
X104422318Y-46484579D01*
X104560101Y-46410932D01*
X104778608Y-46231608D01*
X104957932Y-46013101D01*
X105091182Y-45763808D01*
X105173236Y-45493309D01*
X105200943Y-45212000D01*
X105173236Y-44930691D01*
X105091182Y-44660192D01*
X104957932Y-44410899D01*
X104778608Y-44192392D01*
X104560101Y-44013068D01*
X104310808Y-43879818D01*
X104040309Y-43797764D01*
X103829492Y-43777000D01*
X103688508Y-43777000D01*
X103477691Y-43797764D01*
X103433094Y-43811292D01*
X100530803Y-40909002D01*
X100507000Y-40879998D01*
X100391275Y-40785025D01*
X100259246Y-40714453D01*
X100115985Y-40670996D01*
X100004332Y-40659999D01*
X100004321Y-40659999D01*
X99966999Y-40656323D01*
X99929677Y-40659999D01*
X96453344Y-40659999D01*
X96468043Y-40638000D01*
X99537680Y-40638000D01*
X99575002Y-40641676D01*
X99612324Y-40638000D01*
X99612335Y-40638000D01*
X99723988Y-40627003D01*
X99867249Y-40583546D01*
X99999278Y-40512974D01*
X100115003Y-40418001D01*
X100138806Y-40388997D01*
X100300764Y-40227039D01*
X104018096Y-40227039D01*
X104058754Y-40361087D01*
X104178963Y-40615420D01*
X104346481Y-40841414D01*
X104554869Y-41030385D01*
X104796119Y-41175070D01*
X105060960Y-41269909D01*
X105283000Y-41148624D01*
X105283000Y-40005000D01*
X105537000Y-40005000D01*
X105537000Y-41148624D01*
X105759040Y-41269909D01*
X106023881Y-41175070D01*
X106265131Y-41030385D01*
X106473519Y-40841414D01*
X106641037Y-40615420D01*
X106761246Y-40361087D01*
X106801904Y-40227039D01*
X106679915Y-40005000D01*
X105537000Y-40005000D01*
X105283000Y-40005000D01*
X104140085Y-40005000D01*
X104018096Y-40227039D01*
X100300764Y-40227039D01*
X100998842Y-39528961D01*
X104018096Y-39528961D01*
X104140085Y-39751000D01*
X105283000Y-39751000D01*
X105283000Y-38607376D01*
X105537000Y-38607376D01*
X105537000Y-39751000D01*
X106679915Y-39751000D01*
X106801904Y-39528961D01*
X106761246Y-39394913D01*
X106641037Y-39140580D01*
X106473519Y-38914586D01*
X106265131Y-38725615D01*
X106023881Y-38580930D01*
X105759040Y-38486091D01*
X105537000Y-38607376D01*
X105283000Y-38607376D01*
X105060960Y-38486091D01*
X104796119Y-38580930D01*
X104554869Y-38725615D01*
X104346481Y-38914586D01*
X104178963Y-39140580D01*
X104058754Y-39394913D01*
X104018096Y-39528961D01*
X100998842Y-39528961D01*
X105110004Y-35417800D01*
X105139002Y-35394002D01*
X105233975Y-35278277D01*
X105304547Y-35146248D01*
X105348004Y-35002987D01*
X105359001Y-34891334D01*
X105362678Y-34854001D01*
X105359001Y-34816668D01*
X105359001Y-29119321D01*
X105362677Y-29081998D01*
X105359001Y-29044675D01*
X105359001Y-29044666D01*
X105348004Y-28933013D01*
X105304547Y-28789752D01*
X105233975Y-28657722D01*
X105162800Y-28570996D01*
X105139002Y-28541998D01*
X105110005Y-28518201D01*
X104473804Y-27882001D01*
X104450002Y-27852998D01*
X104334277Y-27758025D01*
X104202248Y-27687453D01*
X104058987Y-27643996D01*
X103947334Y-27632999D01*
X103947323Y-27632999D01*
X103910001Y-27629323D01*
X103872679Y-27632999D01*
X91920324Y-27632999D01*
X91883001Y-27629323D01*
X91845678Y-27632999D01*
X91845668Y-27632999D01*
X91734015Y-27643996D01*
X91590754Y-27687453D01*
X91458724Y-27758025D01*
X91408799Y-27798998D01*
X91343000Y-27852998D01*
X91319202Y-27881996D01*
X90285081Y-28916118D01*
X90251185Y-28874815D01*
X90154494Y-28795463D01*
X90044180Y-28736498D01*
X89924482Y-28700188D01*
X89800000Y-28687928D01*
X88000000Y-28687928D01*
X87875518Y-28700188D01*
X87755820Y-28736498D01*
X87645506Y-28795463D01*
X87548815Y-28874815D01*
X87469463Y-28971506D01*
X87410498Y-29081820D01*
X87404944Y-29100127D01*
X87338505Y-29033688D01*
X87087095Y-28865701D01*
X86807743Y-28749989D01*
X86511184Y-28691000D01*
X86208816Y-28691000D01*
X85912257Y-28749989D01*
X85632905Y-28865701D01*
X85381495Y-29033688D01*
X85167688Y-29247495D01*
X84999701Y-29498905D01*
X84883989Y-29778257D01*
X84825000Y-30074816D01*
X84825000Y-30377184D01*
X84883989Y-30673743D01*
X84999701Y-30953095D01*
X85167688Y-31204505D01*
X85381495Y-31418312D01*
X85632905Y-31586299D01*
X85912257Y-31702011D01*
X86208816Y-31761000D01*
X86511184Y-31761000D01*
X86807743Y-31702011D01*
X87087095Y-31586299D01*
X87338505Y-31418312D01*
X87404944Y-31351873D01*
X87410498Y-31370180D01*
X87469463Y-31480494D01*
X87548815Y-31577185D01*
X87645506Y-31656537D01*
X87755820Y-31715502D01*
X87875518Y-31751812D01*
X88000000Y-31764072D01*
X89800000Y-31764072D01*
X89924482Y-31751812D01*
X90044180Y-31715502D01*
X90154494Y-31656537D01*
X90251185Y-31577185D01*
X90330537Y-31480494D01*
X90389502Y-31370180D01*
X90425812Y-31250482D01*
X90438072Y-31126000D01*
X90438072Y-30880326D01*
X90474276Y-30860974D01*
X90590001Y-30766001D01*
X90613804Y-30736997D01*
X92197803Y-29152999D01*
X95238320Y-29152999D01*
X95201832Y-29241088D01*
X95139000Y-29556967D01*
X95139000Y-29879033D01*
X95201832Y-30194912D01*
X95325082Y-30492463D01*
X95504013Y-30760252D01*
X95731748Y-30987987D01*
X95798693Y-31032718D01*
X91366591Y-35464821D01*
X91434909Y-35274040D01*
X91313624Y-35052000D01*
X90170000Y-35052000D01*
X90170000Y-35072000D01*
X89916000Y-35072000D01*
X89916000Y-35052000D01*
X87630000Y-35052000D01*
X87630000Y-35072000D01*
X87376000Y-35072000D01*
X87376000Y-35052000D01*
X85090000Y-35052000D01*
X85090000Y-35072000D01*
X84836000Y-35072000D01*
X84836000Y-35052000D01*
X84816000Y-35052000D01*
X84816000Y-34798000D01*
X84836000Y-34798000D01*
X84836000Y-33655085D01*
X85090000Y-33655085D01*
X85090000Y-34798000D01*
X87376000Y-34798000D01*
X87376000Y-33655085D01*
X87630000Y-33655085D01*
X87630000Y-34798000D01*
X89916000Y-34798000D01*
X89916000Y-33655085D01*
X90170000Y-33655085D01*
X90170000Y-34798000D01*
X91313624Y-34798000D01*
X91434909Y-34575960D01*
X91340070Y-34311119D01*
X91195385Y-34069869D01*
X91006414Y-33861481D01*
X90780420Y-33693963D01*
X90526087Y-33573754D01*
X90392039Y-33533096D01*
X90170000Y-33655085D01*
X89916000Y-33655085D01*
X89693961Y-33533096D01*
X89559913Y-33573754D01*
X89305580Y-33693963D01*
X89079586Y-33861481D01*
X88890615Y-34069869D01*
X88773000Y-34265982D01*
X88655385Y-34069869D01*
X88466414Y-33861481D01*
X88240420Y-33693963D01*
X87986087Y-33573754D01*
X87852039Y-33533096D01*
X87630000Y-33655085D01*
X87376000Y-33655085D01*
X87153961Y-33533096D01*
X87019913Y-33573754D01*
X86765580Y-33693963D01*
X86539586Y-33861481D01*
X86350615Y-34069869D01*
X86233000Y-34265982D01*
X86115385Y-34069869D01*
X85926414Y-33861481D01*
X85700420Y-33693963D01*
X85446087Y-33573754D01*
X85312039Y-33533096D01*
X85090000Y-33655085D01*
X84836000Y-33655085D01*
X84613961Y-33533096D01*
X84479913Y-33573754D01*
X84225580Y-33693963D01*
X83999586Y-33861481D01*
X83810615Y-34069869D01*
X83695579Y-34261682D01*
X83621932Y-34123899D01*
X83442608Y-33905392D01*
X83224101Y-33726068D01*
X82974808Y-33592818D01*
X82704309Y-33510764D01*
X82493492Y-33490000D01*
X82352508Y-33490000D01*
X82141691Y-33510764D01*
X81871192Y-33592818D01*
X81621899Y-33726068D01*
X81403392Y-33905392D01*
X81224068Y-34123899D01*
X81153000Y-34256858D01*
X81081932Y-34123899D01*
X80902608Y-33905392D01*
X80684101Y-33726068D01*
X80434808Y-33592818D01*
X80164309Y-33510764D01*
X79953492Y-33490000D01*
X79812508Y-33490000D01*
X79601691Y-33510764D01*
X79331192Y-33592818D01*
X79081899Y-33726068D01*
X78863392Y-33905392D01*
X78684068Y-34123899D01*
X78610421Y-34261682D01*
X78495385Y-34069869D01*
X78306414Y-33861481D01*
X78080420Y-33693963D01*
X77826087Y-33573754D01*
X77692039Y-33533096D01*
X77470000Y-33655085D01*
X77470000Y-34798000D01*
X77490000Y-34798000D01*
X77490000Y-35052000D01*
X77470000Y-35052000D01*
X77470000Y-35072000D01*
X77216000Y-35072000D01*
X77216000Y-35052000D01*
X77196000Y-35052000D01*
X77196000Y-34798000D01*
X77216000Y-34798000D01*
X77216000Y-33655085D01*
X76993961Y-33533096D01*
X76859913Y-33573754D01*
X76605580Y-33693963D01*
X76379586Y-33861481D01*
X76190615Y-34069869D01*
X76075579Y-34261682D01*
X76001932Y-34123899D01*
X75822608Y-33905392D01*
X75604101Y-33726068D01*
X75354808Y-33592818D01*
X75084309Y-33510764D01*
X74873492Y-33490000D01*
X74732508Y-33490000D01*
X74521691Y-33510764D01*
X74251192Y-33592818D01*
X74001899Y-33726068D01*
X73783392Y-33905392D01*
X73604068Y-34123899D01*
X73533000Y-34256858D01*
X73461932Y-34123899D01*
X73282608Y-33905392D01*
X73064101Y-33726068D01*
X72814808Y-33592818D01*
X72544309Y-33510764D01*
X72333492Y-33490000D01*
X72192508Y-33490000D01*
X71981691Y-33510764D01*
X71711192Y-33592818D01*
X71461899Y-33726068D01*
X71243392Y-33905392D01*
X71064068Y-34123899D01*
X70930818Y-34373192D01*
X70848764Y-34643691D01*
X70821057Y-34925000D01*
X70848764Y-35206309D01*
X70862292Y-35250906D01*
X70297199Y-35816000D01*
X69036043Y-35816000D01*
X68932637Y-35661241D01*
X68732759Y-35461363D01*
X68497727Y-35304320D01*
X68236574Y-35196147D01*
X67959335Y-35141000D01*
X67676665Y-35141000D01*
X67399426Y-35196147D01*
X67138273Y-35304320D01*
X66903241Y-35461363D01*
X66703363Y-35661241D01*
X66546320Y-35896273D01*
X66438147Y-36157426D01*
X66383000Y-36434665D01*
X66383000Y-36717335D01*
X66438147Y-36994574D01*
X66546320Y-37255727D01*
X66703363Y-37490759D01*
X66903241Y-37690637D01*
X67138273Y-37847680D01*
X67399426Y-37955853D01*
X67676665Y-38011000D01*
X67959335Y-38011000D01*
X68236574Y-37955853D01*
X68497727Y-37847680D01*
X68732759Y-37690637D01*
X68932637Y-37490759D01*
X69036043Y-37336000D01*
X70574678Y-37336000D01*
X70612000Y-37339676D01*
X70649322Y-37336000D01*
X70649333Y-37336000D01*
X70760986Y-37325003D01*
X70904247Y-37281546D01*
X71036276Y-37210974D01*
X71152001Y-37116001D01*
X71175804Y-37086997D01*
X71937094Y-36325708D01*
X71981691Y-36339236D01*
X72192508Y-36360000D01*
X72333492Y-36360000D01*
X72544309Y-36339236D01*
X72814808Y-36257182D01*
X73064101Y-36123932D01*
X73282608Y-35944608D01*
X73461932Y-35726101D01*
X73533000Y-35593142D01*
X73604068Y-35726101D01*
X73783392Y-35944608D01*
X74001899Y-36123932D01*
X74251192Y-36257182D01*
X74521691Y-36339236D01*
X74732508Y-36360000D01*
X74873492Y-36360000D01*
X75084309Y-36339236D01*
X75354808Y-36257182D01*
X75604101Y-36123932D01*
X75822608Y-35944608D01*
X76001932Y-35726101D01*
X76075579Y-35588318D01*
X76190615Y-35780131D01*
X76379586Y-35988519D01*
X76605580Y-36156037D01*
X76859913Y-36276246D01*
X76993961Y-36316904D01*
X77215998Y-36194916D01*
X77215998Y-36324000D01*
X76711322Y-36324000D01*
X76673999Y-36320324D01*
X76636676Y-36324000D01*
X76636667Y-36324000D01*
X76525014Y-36334997D01*
X76381753Y-36378454D01*
X76249723Y-36449026D01*
X76166083Y-36517668D01*
X76133999Y-36543999D01*
X76110201Y-36572997D01*
X71751998Y-40931201D01*
X71723000Y-40954999D01*
X71699202Y-40983997D01*
X71699201Y-40983998D01*
X71628026Y-41070724D01*
X71608674Y-41106928D01*
X71463000Y-41106928D01*
X71338518Y-41119188D01*
X71218820Y-41155498D01*
X71108506Y-41214463D01*
X71011815Y-41293815D01*
X70932463Y-41390506D01*
X70873498Y-41500820D01*
X70837188Y-41620518D01*
X70824928Y-41745000D01*
X70824928Y-41785000D01*
X67242850Y-41785000D01*
X67256803Y-41767999D01*
X67492094Y-41532708D01*
X67536691Y-41546236D01*
X67747508Y-41567000D01*
X67888492Y-41567000D01*
X68099309Y-41546236D01*
X68369808Y-41464182D01*
X68619101Y-41330932D01*
X68837608Y-41151608D01*
X69016932Y-40933101D01*
X69150182Y-40683808D01*
X69232236Y-40413309D01*
X69259943Y-40132000D01*
X69232236Y-39850691D01*
X69150182Y-39580192D01*
X69016932Y-39330899D01*
X68837608Y-39112392D01*
X68619101Y-38933068D01*
X68369808Y-38799818D01*
X68099309Y-38717764D01*
X67888492Y-38697000D01*
X67747508Y-38697000D01*
X67536691Y-38717764D01*
X67266192Y-38799818D01*
X67016899Y-38933068D01*
X66798392Y-39112392D01*
X66619068Y-39330899D01*
X66485818Y-39580192D01*
X66403764Y-39850691D01*
X66376057Y-40132000D01*
X66403764Y-40413309D01*
X66417292Y-40457906D01*
X66378198Y-40497001D01*
X59048509Y-40497001D01*
X59093000Y-40273335D01*
X59093000Y-39990665D01*
X59037853Y-39713426D01*
X58929680Y-39452273D01*
X58772637Y-39217241D01*
X58572759Y-39017363D01*
X58337727Y-38860320D01*
X58076574Y-38752147D01*
X57799335Y-38697000D01*
X57516665Y-38697000D01*
X57239426Y-38752147D01*
X56978273Y-38860320D01*
X56743241Y-39017363D01*
X56543363Y-39217241D01*
X56439957Y-39372000D01*
X51876802Y-39372000D01*
X47975801Y-35471000D01*
X48076492Y-35471000D01*
X48287309Y-35450236D01*
X48557808Y-35368182D01*
X48807101Y-35234932D01*
X49025608Y-35055608D01*
X49204932Y-34837101D01*
X49338182Y-34587808D01*
X49420236Y-34317309D01*
X49447943Y-34036000D01*
X49420236Y-33754691D01*
X49394849Y-33670999D01*
X53678198Y-33670999D01*
X56257292Y-36250094D01*
X56243764Y-36294691D01*
X56216057Y-36576000D01*
X56243764Y-36857309D01*
X56325818Y-37127808D01*
X56459068Y-37377101D01*
X56638392Y-37595608D01*
X56856899Y-37774932D01*
X57106192Y-37908182D01*
X57376691Y-37990236D01*
X57587508Y-38011000D01*
X57728492Y-38011000D01*
X57939309Y-37990236D01*
X58209808Y-37908182D01*
X58459101Y-37774932D01*
X58677608Y-37595608D01*
X58856932Y-37377101D01*
X58990182Y-37127808D01*
X59072236Y-36857309D01*
X59099943Y-36576000D01*
X59072236Y-36294691D01*
X58990182Y-36024192D01*
X58856932Y-35774899D01*
X58677608Y-35556392D01*
X58459101Y-35377068D01*
X58209808Y-35243818D01*
X57939309Y-35161764D01*
X57728492Y-35141000D01*
X57587508Y-35141000D01*
X57376691Y-35161764D01*
X57332094Y-35175292D01*
X55525841Y-33369039D01*
X56266096Y-33369039D01*
X56306754Y-33503087D01*
X56426963Y-33757420D01*
X56594481Y-33983414D01*
X56802869Y-34172385D01*
X57044119Y-34317070D01*
X57308960Y-34411909D01*
X57531000Y-34290624D01*
X57531000Y-33147000D01*
X57785000Y-33147000D01*
X57785000Y-34290624D01*
X58007040Y-34411909D01*
X58271881Y-34317070D01*
X58513131Y-34172385D01*
X58721519Y-33983414D01*
X58889037Y-33757420D01*
X59009246Y-33503087D01*
X59049904Y-33369039D01*
X58927915Y-33147000D01*
X57785000Y-33147000D01*
X57531000Y-33147000D01*
X56388085Y-33147000D01*
X56266096Y-33369039D01*
X55525841Y-33369039D01*
X54827763Y-32670961D01*
X56266096Y-32670961D01*
X56388085Y-32893000D01*
X57531000Y-32893000D01*
X57531000Y-31749376D01*
X57785000Y-31749376D01*
X57785000Y-32893000D01*
X58927915Y-32893000D01*
X59049904Y-32670961D01*
X59009246Y-32536913D01*
X58889037Y-32282580D01*
X58721519Y-32056586D01*
X58513131Y-31867615D01*
X58271881Y-31722930D01*
X58007040Y-31628091D01*
X57785000Y-31749376D01*
X57531000Y-31749376D01*
X57308960Y-31628091D01*
X57044119Y-31722930D01*
X56802869Y-31867615D01*
X56594481Y-32056586D01*
X56426963Y-32282580D01*
X56306754Y-32536913D01*
X56266096Y-32670961D01*
X54827763Y-32670961D01*
X54556803Y-32400002D01*
X54533000Y-32370998D01*
X54417275Y-32276025D01*
X54285246Y-32205453D01*
X54141985Y-32161996D01*
X54030332Y-32150999D01*
X54030321Y-32150999D01*
X53992999Y-32147323D01*
X53955677Y-32150999D01*
X44088326Y-32150999D01*
X44051001Y-32147323D01*
X44013676Y-32150999D01*
X44013668Y-32150999D01*
X43902015Y-32161996D01*
X43758754Y-32205453D01*
X43626725Y-32276025D01*
X43511000Y-32370998D01*
X43487202Y-32399996D01*
X43251906Y-32635292D01*
X43207309Y-32621764D01*
X42996492Y-32601000D01*
X42855508Y-32601000D01*
X42644691Y-32621764D01*
X42374192Y-32703818D01*
X42124899Y-32837068D01*
X41906392Y-33016392D01*
X41727068Y-33234899D01*
X41656000Y-33367858D01*
X41584932Y-33234899D01*
X41405608Y-33016392D01*
X41187101Y-32837068D01*
X40937808Y-32703818D01*
X40667309Y-32621764D01*
X40456492Y-32601000D01*
X40315508Y-32601000D01*
X40104691Y-32621764D01*
X39834192Y-32703818D01*
X39584899Y-32837068D01*
X39366392Y-33016392D01*
X39187068Y-33234899D01*
X39165099Y-33276000D01*
X36890802Y-33276000D01*
X34833504Y-31218702D01*
X39104903Y-31218702D01*
X39176486Y-31462671D01*
X39431996Y-31583571D01*
X39706184Y-31652300D01*
X39988512Y-31666217D01*
X40268130Y-31624787D01*
X40534292Y-31529603D01*
X40659514Y-31462671D01*
X40731097Y-31218702D01*
X39918000Y-30405605D01*
X39104903Y-31218702D01*
X34833504Y-31218702D01*
X33967801Y-30353000D01*
X34173592Y-30353000D01*
X34443490Y-30299314D01*
X34697727Y-30194005D01*
X34926535Y-30041120D01*
X35121120Y-29846535D01*
X35208341Y-29716000D01*
X38571783Y-29716000D01*
X38560429Y-29739996D01*
X38491700Y-30014184D01*
X38477783Y-30296512D01*
X38519213Y-30576130D01*
X38614397Y-30842292D01*
X38681329Y-30967514D01*
X38925298Y-31039097D01*
X39738395Y-30226000D01*
X39724253Y-30211858D01*
X39903858Y-30032253D01*
X39918000Y-30046395D01*
X39932143Y-30032253D01*
X40111748Y-30211858D01*
X40097605Y-30226000D01*
X40910702Y-31039097D01*
X41154671Y-30967514D01*
X41168324Y-30938659D01*
X41303363Y-31140759D01*
X41503241Y-31340637D01*
X41738273Y-31497680D01*
X41999426Y-31605853D01*
X42276665Y-31661000D01*
X42559335Y-31661000D01*
X42836574Y-31605853D01*
X43097727Y-31497680D01*
X43332759Y-31340637D01*
X43454694Y-31218702D01*
X44946903Y-31218702D01*
X45018486Y-31462671D01*
X45273996Y-31583571D01*
X45548184Y-31652300D01*
X45830512Y-31666217D01*
X46110130Y-31624787D01*
X46376292Y-31529603D01*
X46501514Y-31462671D01*
X46573097Y-31218702D01*
X45760000Y-30405605D01*
X44946903Y-31218702D01*
X43454694Y-31218702D01*
X43532637Y-31140759D01*
X43689680Y-30905727D01*
X43797853Y-30644574D01*
X43853000Y-30367335D01*
X43853000Y-30084665D01*
X43797853Y-29807426D01*
X43759983Y-29716000D01*
X44413783Y-29716000D01*
X44402429Y-29739996D01*
X44333700Y-30014184D01*
X44319783Y-30296512D01*
X44361213Y-30576130D01*
X44456397Y-30842292D01*
X44523329Y-30967514D01*
X44767298Y-31039097D01*
X45580395Y-30226000D01*
X45566253Y-30211858D01*
X45745858Y-30032253D01*
X45760000Y-30046395D01*
X45774143Y-30032253D01*
X45953748Y-30211858D01*
X45939605Y-30226000D01*
X46752702Y-31039097D01*
X46996671Y-30967514D01*
X47010324Y-30938659D01*
X47145363Y-31140759D01*
X47345241Y-31340637D01*
X47580273Y-31497680D01*
X47841426Y-31605853D01*
X48118665Y-31661000D01*
X48401335Y-31661000D01*
X48678574Y-31605853D01*
X48939727Y-31497680D01*
X49174759Y-31340637D01*
X49374637Y-31140759D01*
X49531680Y-30905727D01*
X49639853Y-30644574D01*
X49695000Y-30367335D01*
X49695000Y-30084665D01*
X49639853Y-29807426D01*
X49601983Y-29716000D01*
X56319410Y-29716000D01*
X56266096Y-29813039D01*
X56306754Y-29947087D01*
X56426963Y-30201420D01*
X56594481Y-30427414D01*
X56802869Y-30616385D01*
X57044119Y-30761070D01*
X57308960Y-30855909D01*
X57531000Y-30734624D01*
X57531000Y-29591000D01*
X57785000Y-29591000D01*
X57785000Y-30734624D01*
X58007040Y-30855909D01*
X58271881Y-30761070D01*
X58513131Y-30616385D01*
X58721519Y-30427414D01*
X58889037Y-30201420D01*
X59009246Y-29947087D01*
X59049904Y-29813039D01*
X58927915Y-29591000D01*
X57785000Y-29591000D01*
X57531000Y-29591000D01*
X57511000Y-29591000D01*
X57511000Y-29337000D01*
X57531000Y-29337000D01*
X57531000Y-29317000D01*
X57785000Y-29317000D01*
X57785000Y-29337000D01*
X58927915Y-29337000D01*
X59049904Y-29114961D01*
X59045063Y-29098999D01*
X62822198Y-29098999D01*
X66419312Y-32696114D01*
X66383000Y-32878665D01*
X66383000Y-33161335D01*
X66438147Y-33438574D01*
X66546320Y-33699727D01*
X66703363Y-33934759D01*
X66903241Y-34134637D01*
X67138273Y-34291680D01*
X67399426Y-34399853D01*
X67676665Y-34455000D01*
X67959335Y-34455000D01*
X68236574Y-34399853D01*
X68497727Y-34291680D01*
X68732759Y-34134637D01*
X68932637Y-33934759D01*
X69089680Y-33699727D01*
X69197853Y-33438574D01*
X69253000Y-33161335D01*
X69253000Y-32878665D01*
X69197853Y-32601426D01*
X69089680Y-32340273D01*
X68932637Y-32105241D01*
X68732759Y-31905363D01*
X68497727Y-31748320D01*
X68236574Y-31640147D01*
X67959335Y-31585000D01*
X67676665Y-31585000D01*
X67494114Y-31621312D01*
X67227467Y-31354665D01*
X70320000Y-31354665D01*
X70320000Y-31637335D01*
X70375147Y-31914574D01*
X70483320Y-32175727D01*
X70640363Y-32410759D01*
X70840241Y-32610637D01*
X71075273Y-32767680D01*
X71336426Y-32875853D01*
X71613665Y-32931000D01*
X71896335Y-32931000D01*
X72173574Y-32875853D01*
X72434727Y-32767680D01*
X72669759Y-32610637D01*
X72791694Y-32488702D01*
X73441903Y-32488702D01*
X73513486Y-32732671D01*
X73768996Y-32853571D01*
X74043184Y-32922300D01*
X74325512Y-32936217D01*
X74605130Y-32894787D01*
X74871292Y-32799603D01*
X74996514Y-32732671D01*
X75068097Y-32488702D01*
X74255000Y-31675605D01*
X73441903Y-32488702D01*
X72791694Y-32488702D01*
X72869637Y-32410759D01*
X73003692Y-32210131D01*
X73018329Y-32237514D01*
X73262298Y-32309097D01*
X74075395Y-31496000D01*
X74434605Y-31496000D01*
X75247702Y-32309097D01*
X75491671Y-32237514D01*
X75612571Y-31982004D01*
X75681300Y-31707816D01*
X75695217Y-31425488D01*
X75684724Y-31354665D01*
X76416000Y-31354665D01*
X76416000Y-31637335D01*
X76471147Y-31914574D01*
X76579320Y-32175727D01*
X76736363Y-32410759D01*
X76936241Y-32610637D01*
X77171273Y-32767680D01*
X77432426Y-32875853D01*
X77709665Y-32931000D01*
X77992335Y-32931000D01*
X78269574Y-32875853D01*
X78530727Y-32767680D01*
X78765759Y-32610637D01*
X78887694Y-32488702D01*
X79537903Y-32488702D01*
X79609486Y-32732671D01*
X79864996Y-32853571D01*
X80139184Y-32922300D01*
X80421512Y-32936217D01*
X80701130Y-32894787D01*
X80967292Y-32799603D01*
X81092514Y-32732671D01*
X81164097Y-32488702D01*
X80351000Y-31675605D01*
X79537903Y-32488702D01*
X78887694Y-32488702D01*
X78965637Y-32410759D01*
X79099692Y-32210131D01*
X79114329Y-32237514D01*
X79358298Y-32309097D01*
X80171395Y-31496000D01*
X80530605Y-31496000D01*
X81343702Y-32309097D01*
X81587671Y-32237514D01*
X81708571Y-31982004D01*
X81777300Y-31707816D01*
X81791217Y-31425488D01*
X81749787Y-31145870D01*
X81654603Y-30879708D01*
X81587671Y-30754486D01*
X81343702Y-30682903D01*
X80530605Y-31496000D01*
X80171395Y-31496000D01*
X79358298Y-30682903D01*
X79114329Y-30754486D01*
X79100676Y-30783341D01*
X78965637Y-30581241D01*
X78887694Y-30503298D01*
X79537903Y-30503298D01*
X80351000Y-31316395D01*
X81164097Y-30503298D01*
X81092514Y-30259329D01*
X80837004Y-30138429D01*
X80562816Y-30069700D01*
X80280488Y-30055783D01*
X80000870Y-30097213D01*
X79734708Y-30192397D01*
X79609486Y-30259329D01*
X79537903Y-30503298D01*
X78887694Y-30503298D01*
X78765759Y-30381363D01*
X78530727Y-30224320D01*
X78269574Y-30116147D01*
X77992335Y-30061000D01*
X77709665Y-30061000D01*
X77432426Y-30116147D01*
X77171273Y-30224320D01*
X76936241Y-30381363D01*
X76736363Y-30581241D01*
X76579320Y-30816273D01*
X76471147Y-31077426D01*
X76416000Y-31354665D01*
X75684724Y-31354665D01*
X75653787Y-31145870D01*
X75558603Y-30879708D01*
X75491671Y-30754486D01*
X75247702Y-30682903D01*
X74434605Y-31496000D01*
X74075395Y-31496000D01*
X73262298Y-30682903D01*
X73018329Y-30754486D01*
X73004676Y-30783341D01*
X72869637Y-30581241D01*
X72791694Y-30503298D01*
X73441903Y-30503298D01*
X74255000Y-31316395D01*
X75068097Y-30503298D01*
X74996514Y-30259329D01*
X74741004Y-30138429D01*
X74466816Y-30069700D01*
X74184488Y-30055783D01*
X73904870Y-30097213D01*
X73638708Y-30192397D01*
X73513486Y-30259329D01*
X73441903Y-30503298D01*
X72791694Y-30503298D01*
X72669759Y-30381363D01*
X72434727Y-30224320D01*
X72173574Y-30116147D01*
X71896335Y-30061000D01*
X71613665Y-30061000D01*
X71336426Y-30116147D01*
X71075273Y-30224320D01*
X70840241Y-30381363D01*
X70640363Y-30581241D01*
X70483320Y-30816273D01*
X70375147Y-31077426D01*
X70320000Y-31354665D01*
X67227467Y-31354665D01*
X64191801Y-28319000D01*
X65598199Y-28319000D01*
X66419312Y-29140115D01*
X66383000Y-29322665D01*
X66383000Y-29605335D01*
X66438147Y-29882574D01*
X66546320Y-30143727D01*
X66703363Y-30378759D01*
X66903241Y-30578637D01*
X67138273Y-30735680D01*
X67399426Y-30843853D01*
X67676665Y-30899000D01*
X67959335Y-30899000D01*
X68236574Y-30843853D01*
X68497727Y-30735680D01*
X68732759Y-30578637D01*
X68932637Y-30378759D01*
X69089680Y-30143727D01*
X69197853Y-29882574D01*
X69253000Y-29605335D01*
X69253000Y-29322665D01*
X69197853Y-29045426D01*
X69089680Y-28784273D01*
X68932637Y-28549241D01*
X68732759Y-28349363D01*
X68497727Y-28192320D01*
X68236574Y-28084147D01*
X67959335Y-28029000D01*
X67676665Y-28029000D01*
X67494115Y-28065312D01*
X66476803Y-27048002D01*
X66453001Y-27018999D01*
X66337276Y-26924026D01*
X66205247Y-26853454D01*
X66061986Y-26809997D01*
X65950333Y-26799000D01*
X65950322Y-26799000D01*
X65913000Y-26795324D01*
X65875678Y-26799000D01*
X30390322Y-26799000D01*
X30352999Y-26795324D01*
X30315676Y-26799000D01*
X30315667Y-26799000D01*
X30204014Y-26809997D01*
X30060753Y-26853454D01*
X29928724Y-26924026D01*
X29812999Y-27018999D01*
X29789201Y-27047997D01*
X29247570Y-27589628D01*
X29093592Y-27559000D01*
X28818408Y-27559000D01*
X28548510Y-27612686D01*
X28294273Y-27717995D01*
X28065465Y-27870880D01*
X27870880Y-28065465D01*
X27717995Y-28294273D01*
X27612686Y-28548510D01*
X27559000Y-28818408D01*
X27559000Y-29093592D01*
X27612686Y-29363490D01*
X27717995Y-29617727D01*
X27870880Y-29846535D01*
X28065465Y-30041120D01*
X28294273Y-30194005D01*
X28548510Y-30299314D01*
X28818408Y-30353000D01*
X29093592Y-30353000D01*
X29363490Y-30299314D01*
X29617727Y-30194005D01*
X29846535Y-30041120D01*
X30041120Y-29846535D01*
X30194005Y-29617727D01*
X30226000Y-29540485D01*
X30257995Y-29617727D01*
X30410880Y-29846535D01*
X30605465Y-30041120D01*
X30834273Y-30194005D01*
X31088510Y-30299314D01*
X31358408Y-30353000D01*
X31633592Y-30353000D01*
X31787571Y-30322372D01*
X36012200Y-34547002D01*
X36035999Y-34576001D01*
X36064997Y-34599799D01*
X36151723Y-34670974D01*
X36215409Y-34705015D01*
X36283753Y-34741546D01*
X36427014Y-34785003D01*
X36538667Y-34796000D01*
X36538677Y-34796000D01*
X36576000Y-34799676D01*
X36613323Y-34796000D01*
X39165099Y-34796000D01*
X39187068Y-34837101D01*
X39366392Y-35055608D01*
X39584899Y-35234932D01*
X39834192Y-35368182D01*
X40104691Y-35450236D01*
X40315508Y-35471000D01*
X40456492Y-35471000D01*
X40667309Y-35450236D01*
X40937808Y-35368182D01*
X41187101Y-35234932D01*
X41405608Y-35055608D01*
X41584932Y-34837101D01*
X41656000Y-34704142D01*
X41727068Y-34837101D01*
X41906392Y-35055608D01*
X42124899Y-35234932D01*
X42374192Y-35368182D01*
X42644691Y-35450236D01*
X42855508Y-35471000D01*
X42996492Y-35471000D01*
X43207309Y-35450236D01*
X43477808Y-35368182D01*
X43727101Y-35234932D01*
X43945608Y-35055608D01*
X44124932Y-34837101D01*
X44196000Y-34704142D01*
X44267068Y-34837101D01*
X44446392Y-35055608D01*
X44664899Y-35234932D01*
X44914192Y-35368182D01*
X45184691Y-35450236D01*
X45395508Y-35471000D01*
X45536492Y-35471000D01*
X45747309Y-35450236D01*
X45791907Y-35436708D01*
X50852199Y-40497001D01*
X49586805Y-40497001D01*
X49109804Y-40020001D01*
X49086002Y-39990998D01*
X48970277Y-39896025D01*
X48838248Y-39825453D01*
X48694987Y-39781996D01*
X48583334Y-39770999D01*
X48583323Y-39770999D01*
X48546001Y-39767323D01*
X48508679Y-39770999D01*
X32658323Y-39770999D01*
X32621000Y-39767323D01*
X32583677Y-39770999D01*
X32583668Y-39770999D01*
X32472015Y-39781996D01*
X32328754Y-39825453D01*
X32196725Y-39896025D01*
X32081000Y-39990998D01*
X32057197Y-40020002D01*
X31787571Y-40289628D01*
X31633592Y-40259000D01*
X31358408Y-40259000D01*
X31088510Y-40312686D01*
X30834273Y-40417995D01*
X30605465Y-40570880D01*
X30410880Y-40765465D01*
X30257995Y-40994273D01*
X30226000Y-41071515D01*
X30194005Y-40994273D01*
X30041120Y-40765465D01*
X29846535Y-40570880D01*
X29617727Y-40417995D01*
X29363490Y-40312686D01*
X29093592Y-40259000D01*
X28818408Y-40259000D01*
X28548510Y-40312686D01*
X28294273Y-40417995D01*
X28065465Y-40570880D01*
X27870880Y-40765465D01*
X27717995Y-40994273D01*
X27612686Y-41248510D01*
X27559000Y-41518408D01*
X27559000Y-41793592D01*
X27612686Y-42063490D01*
X27717995Y-42317727D01*
X27870880Y-42546535D01*
X28065465Y-42741120D01*
X28294273Y-42894005D01*
X28548510Y-42999314D01*
X28818408Y-43053000D01*
X29093592Y-43053000D01*
X29363490Y-42999314D01*
X29617727Y-42894005D01*
X29846535Y-42741120D01*
X30041120Y-42546535D01*
X30194005Y-42317727D01*
X30226000Y-42240485D01*
X30257995Y-42317727D01*
X30410880Y-42546535D01*
X30605465Y-42741120D01*
X30834273Y-42894005D01*
X31088510Y-42999314D01*
X31358408Y-43053000D01*
X31633592Y-43053000D01*
X31903490Y-42999314D01*
X32157727Y-42894005D01*
X32386535Y-42741120D01*
X32581120Y-42546535D01*
X32734005Y-42317727D01*
X32766000Y-42240485D01*
X32797995Y-42317727D01*
X32950880Y-42546535D01*
X33145465Y-42741120D01*
X33374273Y-42894005D01*
X33628510Y-42999314D01*
X33898408Y-43053000D01*
X34173592Y-43053000D01*
X34443490Y-42999314D01*
X34697727Y-42894005D01*
X34926535Y-42741120D01*
X35121120Y-42546535D01*
X35181613Y-42456000D01*
X38947928Y-42456000D01*
X38960188Y-42580482D01*
X38996498Y-42700180D01*
X39055463Y-42810494D01*
X39134815Y-42907185D01*
X39231506Y-42986537D01*
X39341820Y-43045502D01*
X39461518Y-43081812D01*
X39586000Y-43094072D01*
X40100250Y-43091000D01*
X40259000Y-42932250D01*
X40259000Y-41783000D01*
X39109750Y-41783000D01*
X38951000Y-41941750D01*
X38947928Y-42456000D01*
X35181613Y-42456000D01*
X35274005Y-42317727D01*
X35379314Y-42063490D01*
X35433000Y-41793592D01*
X35433000Y-41518408D01*
X35387766Y-41290999D01*
X38950527Y-41290999D01*
X38951000Y-41370250D01*
X39109750Y-41529000D01*
X40259000Y-41529000D01*
X40259000Y-41509000D01*
X40513000Y-41509000D01*
X40513000Y-41529000D01*
X40533000Y-41529000D01*
X40533000Y-41783000D01*
X40513000Y-41783000D01*
X40513000Y-42932250D01*
X40671750Y-43091000D01*
X41186000Y-43094072D01*
X41310482Y-43081812D01*
X41430180Y-43045502D01*
X41540494Y-42986537D01*
X41637185Y-42907185D01*
X41716537Y-42810494D01*
X41775502Y-42700180D01*
X41811812Y-42580482D01*
X41813581Y-42562518D01*
X41906392Y-42675608D01*
X42124899Y-42854932D01*
X42374192Y-42988182D01*
X42644691Y-43070236D01*
X42855508Y-43091000D01*
X42996492Y-43091000D01*
X43207309Y-43070236D01*
X43477808Y-42988182D01*
X43727101Y-42854932D01*
X43945608Y-42675608D01*
X44124932Y-42457101D01*
X44196000Y-42324142D01*
X44267068Y-42457101D01*
X44446392Y-42675608D01*
X44664899Y-42854932D01*
X44914192Y-42988182D01*
X45184691Y-43070236D01*
X45395508Y-43091000D01*
X45536492Y-43091000D01*
X45747309Y-43070236D01*
X45791906Y-43056708D01*
X48458205Y-45723008D01*
X48481999Y-45752001D01*
X48510992Y-45775795D01*
X48510996Y-45775799D01*
X48556810Y-45813397D01*
X48597724Y-45846974D01*
X48729753Y-45917546D01*
X48873014Y-45961003D01*
X48984667Y-45972000D01*
X48984676Y-45972000D01*
X49021999Y-45975676D01*
X49059322Y-45972000D01*
X57453464Y-45972000D01*
X57233192Y-46038818D01*
X56983899Y-46172068D01*
X56765392Y-46351392D01*
X56586068Y-46569899D01*
X56452818Y-46819192D01*
X56370764Y-47089691D01*
X56343057Y-47371000D01*
X56370764Y-47652309D01*
X56452818Y-47922808D01*
X56586068Y-48172101D01*
X56765392Y-48390608D01*
X56983899Y-48569932D01*
X57233192Y-48703182D01*
X57503691Y-48785236D01*
X57714508Y-48806000D01*
X57855492Y-48806000D01*
X58066309Y-48785236D01*
X58336808Y-48703182D01*
X58586101Y-48569932D01*
X58804608Y-48390608D01*
X58983932Y-48172101D01*
X59117182Y-47922808D01*
X59199236Y-47652309D01*
X59226943Y-47371000D01*
X59199236Y-47089691D01*
X59117182Y-46819192D01*
X58983932Y-46569899D01*
X58804608Y-46351392D01*
X58586101Y-46172068D01*
X58336808Y-46038818D01*
X58116536Y-45972000D01*
X67622683Y-45972000D01*
X67526426Y-45991147D01*
X67265273Y-46099320D01*
X67030241Y-46256363D01*
X66830363Y-46456241D01*
X66673320Y-46691273D01*
X66565147Y-46952426D01*
X66510000Y-47229665D01*
X66510000Y-47512335D01*
X66546312Y-47694886D01*
X64963199Y-49278000D01*
X52869333Y-49278000D01*
X52832000Y-49274323D01*
X52794667Y-49278000D01*
X52683014Y-49288997D01*
X52539753Y-49332454D01*
X52407724Y-49403026D01*
X52291999Y-49497999D01*
X52268201Y-49526997D01*
X51125907Y-50669292D01*
X51081309Y-50655764D01*
X50870492Y-50635000D01*
X50729508Y-50635000D01*
X50518691Y-50655764D01*
X50474093Y-50669292D01*
X50238803Y-50434002D01*
X50215000Y-50404998D01*
X50099275Y-50310025D01*
X49967246Y-50239453D01*
X49823985Y-50195996D01*
X49712332Y-50184999D01*
X49712321Y-50184999D01*
X49674999Y-50181323D01*
X49637677Y-50184999D01*
X29977321Y-50184999D01*
X29939998Y-50181323D01*
X29902675Y-50184999D01*
X29902666Y-50184999D01*
X29791013Y-50195996D01*
X29647752Y-50239453D01*
X29515723Y-50310025D01*
X29515721Y-50310026D01*
X29515722Y-50310026D01*
X29428995Y-50381200D01*
X29428991Y-50381204D01*
X29399998Y-50404998D01*
X29376204Y-50433991D01*
X28849866Y-50960329D01*
X28741101Y-50871068D01*
X28491808Y-50737818D01*
X28221309Y-50655764D01*
X28010492Y-50635000D01*
X27869508Y-50635000D01*
X27658691Y-50655764D01*
X27388192Y-50737818D01*
X27138899Y-50871068D01*
X26920392Y-51050392D01*
X26741068Y-51268899D01*
X26607818Y-51518192D01*
X26525764Y-51788691D01*
X26498057Y-52070000D01*
X26525764Y-52351309D01*
X26607818Y-52621808D01*
X26741068Y-52871101D01*
X26830330Y-52979867D01*
X26303997Y-53506200D01*
X26274999Y-53529998D01*
X26251201Y-53558996D01*
X26251200Y-53558997D01*
X26180025Y-53645723D01*
X26109453Y-53777753D01*
X26065997Y-53921014D01*
X26051323Y-54069999D01*
X24815000Y-54069999D01*
X24815000Y-46848665D01*
X26378000Y-46848665D01*
X26378000Y-47131335D01*
X26433147Y-47408574D01*
X26541320Y-47669727D01*
X26698363Y-47904759D01*
X26898241Y-48104637D01*
X27133273Y-48261680D01*
X27394426Y-48369853D01*
X27671665Y-48425000D01*
X27954335Y-48425000D01*
X28231574Y-48369853D01*
X28492727Y-48261680D01*
X28727759Y-48104637D01*
X28849694Y-47982702D01*
X29499903Y-47982702D01*
X29571486Y-48226671D01*
X29826996Y-48347571D01*
X30101184Y-48416300D01*
X30383512Y-48430217D01*
X30663130Y-48388787D01*
X30929292Y-48293603D01*
X31054514Y-48226671D01*
X31126097Y-47982702D01*
X30313000Y-47169605D01*
X29499903Y-47982702D01*
X28849694Y-47982702D01*
X28927637Y-47904759D01*
X29061692Y-47704131D01*
X29076329Y-47731514D01*
X29320298Y-47803097D01*
X30133395Y-46990000D01*
X30119253Y-46975858D01*
X30298858Y-46796253D01*
X30313000Y-46810395D01*
X30327143Y-46796253D01*
X30506748Y-46975858D01*
X30492605Y-46990000D01*
X31305702Y-47803097D01*
X31549671Y-47731514D01*
X31670571Y-47476004D01*
X31739300Y-47201816D01*
X31753217Y-46919488D01*
X31711787Y-46639870D01*
X31706469Y-46624999D01*
X43645198Y-46624999D01*
X43813312Y-46793113D01*
X43777000Y-46975665D01*
X43777000Y-47258335D01*
X43832147Y-47535574D01*
X43940320Y-47796727D01*
X44097363Y-48031759D01*
X44297241Y-48231637D01*
X44532273Y-48388680D01*
X44793426Y-48496853D01*
X45070665Y-48552000D01*
X45353335Y-48552000D01*
X45630574Y-48496853D01*
X45891727Y-48388680D01*
X46126759Y-48231637D01*
X46248694Y-48109702D01*
X46898903Y-48109702D01*
X46970486Y-48353671D01*
X47225996Y-48474571D01*
X47500184Y-48543300D01*
X47782512Y-48557217D01*
X48062130Y-48515787D01*
X48328292Y-48420603D01*
X48453514Y-48353671D01*
X48525097Y-48109702D01*
X47712000Y-47296605D01*
X46898903Y-48109702D01*
X46248694Y-48109702D01*
X46326637Y-48031759D01*
X46460692Y-47831131D01*
X46475329Y-47858514D01*
X46719298Y-47930097D01*
X47532395Y-47117000D01*
X47891605Y-47117000D01*
X48704702Y-47930097D01*
X48948671Y-47858514D01*
X49069571Y-47603004D01*
X49138300Y-47328816D01*
X49152217Y-47046488D01*
X49110787Y-46766870D01*
X49015603Y-46500708D01*
X48948671Y-46375486D01*
X48704702Y-46303903D01*
X47891605Y-47117000D01*
X47532395Y-47117000D01*
X46719298Y-46303903D01*
X46475329Y-46375486D01*
X46461676Y-46404341D01*
X46326637Y-46202241D01*
X46248694Y-46124298D01*
X46898903Y-46124298D01*
X47712000Y-46937395D01*
X48525097Y-46124298D01*
X48453514Y-45880329D01*
X48198004Y-45759429D01*
X47923816Y-45690700D01*
X47641488Y-45676783D01*
X47361870Y-45718213D01*
X47095708Y-45813397D01*
X46970486Y-45880329D01*
X46898903Y-46124298D01*
X46248694Y-46124298D01*
X46126759Y-46002363D01*
X45891727Y-45845320D01*
X45630574Y-45737147D01*
X45353335Y-45682000D01*
X45070665Y-45682000D01*
X44888113Y-45718312D01*
X44523803Y-45354002D01*
X44500000Y-45324998D01*
X44384275Y-45230025D01*
X44252246Y-45159453D01*
X44108985Y-45115996D01*
X43997332Y-45104999D01*
X43997321Y-45104999D01*
X43959999Y-45101323D01*
X43922677Y-45104999D01*
X28975326Y-45104999D01*
X28938001Y-45101323D01*
X28900676Y-45104999D01*
X28900668Y-45104999D01*
X28789015Y-45115996D01*
X28645754Y-45159453D01*
X28513725Y-45230025D01*
X28398000Y-45324998D01*
X28374202Y-45353996D01*
X28136886Y-45591312D01*
X27954335Y-45555000D01*
X27671665Y-45555000D01*
X27394426Y-45610147D01*
X27133273Y-45718320D01*
X26898241Y-45875363D01*
X26698363Y-46075241D01*
X26541320Y-46310273D01*
X26433147Y-46571426D01*
X26378000Y-46848665D01*
X24815000Y-46848665D01*
X24815000Y-26720000D01*
X107011000Y-26720000D01*
X107011001Y-70435000D01*
X107011001Y-70435000D01*
G37*
X107011001Y-70435000D02*
X24815000Y-70435000D01*
X24815000Y-54069999D01*
X26051323Y-54069999D01*
X26055000Y-54107331D01*
X26054999Y-61702677D01*
X26051323Y-61739999D01*
X26054999Y-61777321D01*
X26054999Y-61777331D01*
X26065996Y-61888984D01*
X26109453Y-62032245D01*
X26180025Y-62164275D01*
X26219870Y-62212825D01*
X26274998Y-62280000D01*
X26304002Y-62303803D01*
X32615202Y-68615004D01*
X32639000Y-68644002D01*
X32667998Y-68667800D01*
X32754724Y-68738975D01*
X32886754Y-68809547D01*
X33030015Y-68853004D01*
X33141668Y-68864001D01*
X33141678Y-68864001D01*
X33179001Y-68867677D01*
X33216324Y-68864001D01*
X57207677Y-68864001D01*
X57244999Y-68867677D01*
X57282321Y-68864001D01*
X57282332Y-68864001D01*
X57393985Y-68853004D01*
X57537246Y-68809547D01*
X57669275Y-68738975D01*
X57785000Y-68644002D01*
X57808803Y-68614998D01*
X58054004Y-68369797D01*
X58128889Y-68392513D01*
X58347050Y-68414000D01*
X58492950Y-68414000D01*
X58711111Y-68392513D01*
X58991034Y-68307599D01*
X59249014Y-68169706D01*
X59475134Y-67984134D01*
X59660706Y-67758014D01*
X59690000Y-67703209D01*
X59719294Y-67758014D01*
X59904866Y-67984134D01*
X60130986Y-68169706D01*
X60388966Y-68307599D01*
X60668889Y-68392513D01*
X60887050Y-68414000D01*
X61032950Y-68414000D01*
X61251111Y-68392513D01*
X61531034Y-68307599D01*
X61789014Y-68169706D01*
X62015134Y-67984134D01*
X62200706Y-67758014D01*
X62230000Y-67703209D01*
X62259294Y-67758014D01*
X62444866Y-67984134D01*
X62670986Y-68169706D01*
X62928966Y-68307599D01*
X63208889Y-68392513D01*
X63427050Y-68414000D01*
X63572950Y-68414000D01*
X63791111Y-68392513D01*
X64071034Y-68307599D01*
X64329014Y-68169706D01*
X64555134Y-67984134D01*
X64740706Y-67758014D01*
X64770000Y-67703209D01*
X64799294Y-67758014D01*
X64984866Y-67984134D01*
X65210986Y-68169706D01*
X65468966Y-68307599D01*
X65748889Y-68392513D01*
X65967050Y-68414000D01*
X66112950Y-68414000D01*
X66331111Y-68392513D01*
X66611034Y-68307599D01*
X66869014Y-68169706D01*
X67095134Y-67984134D01*
X67280706Y-67758014D01*
X67310000Y-67703209D01*
X67339294Y-67758014D01*
X67524866Y-67984134D01*
X67750986Y-68169706D01*
X68008966Y-68307599D01*
X68288889Y-68392513D01*
X68507050Y-68414000D01*
X68652950Y-68414000D01*
X68871111Y-68392513D01*
X69151034Y-68307599D01*
X69409014Y-68169706D01*
X69635134Y-67984134D01*
X69820706Y-67758014D01*
X69958599Y-67500034D01*
X70043513Y-67220111D01*
X70072185Y-66929000D01*
X70043513Y-66637889D01*
X69958599Y-66357966D01*
X69820706Y-66099986D01*
X69635134Y-65873866D01*
X69409014Y-65688294D01*
X69151034Y-65550401D01*
X68871111Y-65465487D01*
X68652950Y-65444000D01*
X68599801Y-65444000D01*
X72468801Y-61575001D01*
X76307677Y-61575001D01*
X76344999Y-61578677D01*
X76382321Y-61575001D01*
X76382332Y-61575001D01*
X76493985Y-61564004D01*
X76637246Y-61520547D01*
X76769275Y-61449975D01*
X76885000Y-61355002D01*
X76908803Y-61325998D01*
X77144093Y-61090708D01*
X77188691Y-61104236D01*
X77399508Y-61125000D01*
X77540492Y-61125000D01*
X77751309Y-61104236D01*
X78021808Y-61022182D01*
X78271101Y-60888932D01*
X78489608Y-60709608D01*
X78668932Y-60491101D01*
X78742579Y-60353318D01*
X78857615Y-60545131D01*
X79046586Y-60753519D01*
X79272580Y-60921037D01*
X79526913Y-61041246D01*
X79660961Y-61081904D01*
X79883000Y-60959915D01*
X79883000Y-59817000D01*
X80137000Y-59817000D01*
X80137000Y-60959915D01*
X80359039Y-61081904D01*
X80493087Y-61041246D01*
X80747420Y-60921037D01*
X80973414Y-60753519D01*
X81162385Y-60545131D01*
X81280000Y-60349018D01*
X81397615Y-60545131D01*
X81586586Y-60753519D01*
X81812580Y-60921037D01*
X82066913Y-61041246D01*
X82200961Y-61081904D01*
X82423000Y-60959915D01*
X82423000Y-59817000D01*
X80137000Y-59817000D01*
X79883000Y-59817000D01*
X79863000Y-59817000D01*
X79863000Y-59563000D01*
X79883000Y-59563000D01*
X79883000Y-59543000D01*
X80137000Y-59543000D01*
X80137000Y-59563000D01*
X82423000Y-59563000D01*
X82423000Y-59543000D01*
X82677000Y-59543000D01*
X82677000Y-59563000D01*
X82697000Y-59563000D01*
X82697000Y-59817000D01*
X82677000Y-59817000D01*
X82677000Y-60959915D01*
X82899039Y-61081904D01*
X83033087Y-61041246D01*
X83287420Y-60921037D01*
X83513414Y-60753519D01*
X83702385Y-60545131D01*
X83817421Y-60353318D01*
X83891068Y-60491101D01*
X84070392Y-60709608D01*
X84288899Y-60888932D01*
X84538192Y-61022182D01*
X84808691Y-61104236D01*
X85019508Y-61125000D01*
X85160492Y-61125000D01*
X85371309Y-61104236D01*
X85641808Y-61022182D01*
X85891101Y-60888932D01*
X86109608Y-60709608D01*
X86288932Y-60491101D01*
X86362579Y-60353318D01*
X86477615Y-60545131D01*
X86666586Y-60753519D01*
X86892580Y-60921037D01*
X87146913Y-61041246D01*
X87280961Y-61081904D01*
X87503000Y-60959915D01*
X87503000Y-59817000D01*
X87757000Y-59817000D01*
X87757000Y-60959915D01*
X87979039Y-61081904D01*
X88113087Y-61041246D01*
X88367420Y-60921037D01*
X88529306Y-60801039D01*
X94747096Y-60801039D01*
X94787754Y-60935087D01*
X94907963Y-61189420D01*
X95075481Y-61415414D01*
X95283869Y-61604385D01*
X95525119Y-61749070D01*
X95789960Y-61843909D01*
X96012000Y-61722624D01*
X96012000Y-60579000D01*
X96266000Y-60579000D01*
X96266000Y-61722624D01*
X96488040Y-61843909D01*
X96752881Y-61749070D01*
X96994131Y-61604385D01*
X97202519Y-61415414D01*
X97370037Y-61189420D01*
X97490246Y-60935087D01*
X97530904Y-60801039D01*
X97408915Y-60579000D01*
X96266000Y-60579000D01*
X96012000Y-60579000D01*
X94869085Y-60579000D01*
X94747096Y-60801039D01*
X88529306Y-60801039D01*
X88593414Y-60753519D01*
X88782385Y-60545131D01*
X88838238Y-60452000D01*
X102317057Y-60452000D01*
X102344764Y-60733309D01*
X102426818Y-61003808D01*
X102560068Y-61253101D01*
X102739392Y-61471608D01*
X102957899Y-61650932D01*
X103207192Y-61784182D01*
X103477691Y-61866236D01*
X103688508Y-61887000D01*
X103829492Y-61887000D01*
X104040309Y-61866236D01*
X104310808Y-61784182D01*
X104560101Y-61650932D01*
X104778608Y-61471608D01*
X104957932Y-61253101D01*
X105091182Y-61003808D01*
X105173236Y-60733309D01*
X105200943Y-60452000D01*
X105173236Y-60170691D01*
X105091182Y-59900192D01*
X104957932Y-59650899D01*
X104778608Y-59432392D01*
X104560101Y-59253068D01*
X104422318Y-59179421D01*
X104614131Y-59064385D01*
X104822519Y-58875414D01*
X104990037Y-58649420D01*
X105110246Y-58395087D01*
X105150904Y-58261039D01*
X105028915Y-58039000D01*
X103886000Y-58039000D01*
X103886000Y-58059000D01*
X103632000Y-58059000D01*
X103632000Y-58039000D01*
X102489085Y-58039000D01*
X102367096Y-58261039D01*
X102407754Y-58395087D01*
X102527963Y-58649420D01*
X102695481Y-58875414D01*
X102903869Y-59064385D01*
X103095682Y-59179421D01*
X102957899Y-59253068D01*
X102739392Y-59432392D01*
X102560068Y-59650899D01*
X102426818Y-59900192D01*
X102344764Y-60170691D01*
X102317057Y-60452000D01*
X88838238Y-60452000D01*
X88927070Y-60303881D01*
X89021909Y-60039040D01*
X88900624Y-59817000D01*
X87757000Y-59817000D01*
X87503000Y-59817000D01*
X87483000Y-59817000D01*
X87483000Y-59563000D01*
X87503000Y-59563000D01*
X87503000Y-59543000D01*
X87757000Y-59543000D01*
X87757000Y-59563000D01*
X88900624Y-59563000D01*
X89021909Y-59340960D01*
X89016193Y-59324999D01*
X89237309Y-59324999D01*
X89274631Y-59328675D01*
X89311953Y-59324999D01*
X89311964Y-59324999D01*
X89423617Y-59314002D01*
X89566878Y-59270545D01*
X89698907Y-59199973D01*
X89814632Y-59105000D01*
X89838435Y-59075996D01*
X91002431Y-57912000D01*
X94697057Y-57912000D01*
X94724764Y-58193309D01*
X94806818Y-58463808D01*
X94940068Y-58713101D01*
X95119392Y-58931608D01*
X95337899Y-59110932D01*
X95475682Y-59184579D01*
X95283869Y-59299615D01*
X95075481Y-59488586D01*
X94907963Y-59714580D01*
X94787754Y-59968913D01*
X94747096Y-60102961D01*
X94869085Y-60325000D01*
X96012000Y-60325000D01*
X96012000Y-60305000D01*
X96266000Y-60305000D01*
X96266000Y-60325000D01*
X97408915Y-60325000D01*
X97530904Y-60102961D01*
X97490246Y-59968913D01*
X97370037Y-59714580D01*
X97202519Y-59488586D01*
X96994131Y-59299615D01*
X96802318Y-59184579D01*
X96940101Y-59110932D01*
X97158608Y-58931608D01*
X97337932Y-58713101D01*
X97471182Y-58463808D01*
X97553236Y-58193309D01*
X97580943Y-57912000D01*
X97553236Y-57630691D01*
X97471182Y-57360192D01*
X97337932Y-57110899D01*
X97158608Y-56892392D01*
X96940101Y-56713068D01*
X96802318Y-56639421D01*
X96994131Y-56524385D01*
X97202519Y-56335414D01*
X97370037Y-56109420D01*
X97490246Y-55855087D01*
X97530904Y-55721039D01*
X97408915Y-55499000D01*
X96266000Y-55499000D01*
X96266000Y-55519000D01*
X96012000Y-55519000D01*
X96012000Y-55499000D01*
X94869085Y-55499000D01*
X94747096Y-55721039D01*
X94787754Y-55855087D01*
X94907963Y-56109420D01*
X95075481Y-56335414D01*
X95283869Y-56524385D01*
X95475682Y-56639421D01*
X95337899Y-56713068D01*
X95119392Y-56892392D01*
X94940068Y-57110899D01*
X94806818Y-57360192D01*
X94724764Y-57630691D01*
X94697057Y-57912000D01*
X91002431Y-57912000D01*
X93542431Y-55372000D01*
X102317057Y-55372000D01*
X102344764Y-55653309D01*
X102426818Y-55923808D01*
X102560068Y-56173101D01*
X102739392Y-56391608D01*
X102957899Y-56570932D01*
X103095682Y-56644579D01*
X102903869Y-56759615D01*
X102695481Y-56948586D01*
X102527963Y-57174580D01*
X102407754Y-57428913D01*
X102367096Y-57562961D01*
X102489085Y-57785000D01*
X103632000Y-57785000D01*
X103632000Y-57765000D01*
X103886000Y-57765000D01*
X103886000Y-57785000D01*
X105028915Y-57785000D01*
X105150904Y-57562961D01*
X105110246Y-57428913D01*
X104990037Y-57174580D01*
X104822519Y-56948586D01*
X104614131Y-56759615D01*
X104422318Y-56644579D01*
X104560101Y-56570932D01*
X104778608Y-56391608D01*
X104957932Y-56173101D01*
X105091182Y-55923808D01*
X105173236Y-55653309D01*
X105200943Y-55372000D01*
X105173236Y-55090691D01*
X105091182Y-54820192D01*
X104957932Y-54570899D01*
X104778608Y-54352392D01*
X104560101Y-54173068D01*
X104422318Y-54099421D01*
X104614131Y-53984385D01*
X104822519Y-53795414D01*
X104990037Y-53569420D01*
X105110246Y-53315087D01*
X105150904Y-53181039D01*
X105028915Y-52959000D01*
X103886000Y-52959000D01*
X103886000Y-52979000D01*
X103632000Y-52979000D01*
X103632000Y-52959000D01*
X102489085Y-52959000D01*
X102367096Y-53181039D01*
X102407754Y-53315087D01*
X102527963Y-53569420D01*
X102695481Y-53795414D01*
X102903869Y-53984385D01*
X103095682Y-54099421D01*
X102957899Y-54173068D01*
X102739392Y-54352392D01*
X102560068Y-54570899D01*
X102426818Y-54820192D01*
X102344764Y-55090691D01*
X102317057Y-55372000D01*
X93542431Y-55372000D01*
X95093894Y-53820538D01*
X95119392Y-53851608D01*
X95337899Y-54030932D01*
X95475682Y-54104579D01*
X95283869Y-54219615D01*
X95075481Y-54408586D01*
X94907963Y-54634580D01*
X94787754Y-54888913D01*
X94747096Y-55022961D01*
X94869085Y-55245000D01*
X96012000Y-55245000D01*
X96012000Y-55225000D01*
X96266000Y-55225000D01*
X96266000Y-55245000D01*
X97408915Y-55245000D01*
X97530904Y-55022961D01*
X97490246Y-54888913D01*
X97370037Y-54634580D01*
X97202519Y-54408586D01*
X96994131Y-54219615D01*
X96802318Y-54104579D01*
X96940101Y-54030932D01*
X97158608Y-53851608D01*
X97337932Y-53633101D01*
X97471182Y-53383808D01*
X97553236Y-53113309D01*
X97580943Y-52832000D01*
X97553236Y-52550691D01*
X97471182Y-52280192D01*
X97337932Y-52030899D01*
X97158608Y-51812392D01*
X96940101Y-51633068D01*
X96807142Y-51562000D01*
X96940101Y-51490932D01*
X97158608Y-51311608D01*
X97337932Y-51093101D01*
X97471182Y-50843808D01*
X97553236Y-50573309D01*
X97580943Y-50292000D01*
X102317057Y-50292000D01*
X102344764Y-50573309D01*
X102426818Y-50843808D01*
X102560068Y-51093101D01*
X102739392Y-51311608D01*
X102957899Y-51490932D01*
X103095682Y-51564579D01*
X102903869Y-51679615D01*
X102695481Y-51868586D01*
X102527963Y-52094580D01*
X102407754Y-52348913D01*
X102367096Y-52482961D01*
X102489085Y-52705000D01*
X103632000Y-52705000D01*
X103632000Y-52685000D01*
X103886000Y-52685000D01*
X103886000Y-52705000D01*
X105028915Y-52705000D01*
X105150904Y-52482961D01*
X105110246Y-52348913D01*
X104990037Y-52094580D01*
X104822519Y-51868586D01*
X104614131Y-51679615D01*
X104422318Y-51564579D01*
X104560101Y-51490932D01*
X104778608Y-51311608D01*
X104957932Y-51093101D01*
X105091182Y-50843808D01*
X105173236Y-50573309D01*
X105200943Y-50292000D01*
X105173236Y-50010691D01*
X105091182Y-49740192D01*
X104957932Y-49490899D01*
X104778608Y-49272392D01*
X104560101Y-49093068D01*
X104422318Y-49019421D01*
X104614131Y-48904385D01*
X104822519Y-48715414D01*
X104990037Y-48489420D01*
X105110246Y-48235087D01*
X105150904Y-48101039D01*
X105028915Y-47879000D01*
X103886000Y-47879000D01*
X103886000Y-47899000D01*
X103632000Y-47899000D01*
X103632000Y-47879000D01*
X102489085Y-47879000D01*
X102367096Y-48101039D01*
X102407754Y-48235087D01*
X102527963Y-48489420D01*
X102695481Y-48715414D01*
X102903869Y-48904385D01*
X103095682Y-49019421D01*
X102957899Y-49093068D01*
X102739392Y-49272392D01*
X102560068Y-49490899D01*
X102426818Y-49740192D01*
X102344764Y-50010691D01*
X102317057Y-50292000D01*
X97580943Y-50292000D01*
X97553236Y-50010691D01*
X97471182Y-49740192D01*
X97337932Y-49490899D01*
X97158608Y-49272392D01*
X96940101Y-49093068D01*
X96807142Y-49022000D01*
X96940101Y-48950932D01*
X97158608Y-48771608D01*
X97337932Y-48553101D01*
X97471182Y-48303808D01*
X97553236Y-48033309D01*
X97580943Y-47752000D01*
X97553236Y-47470691D01*
X97471182Y-47200192D01*
X97416025Y-47097001D01*
X102489007Y-47097001D01*
X102407754Y-47268913D01*
X102367096Y-47402961D01*
X102489085Y-47625000D01*
X103632000Y-47625000D01*
X103632000Y-47605000D01*
X103886000Y-47605000D01*
X103886000Y-47625000D01*
X105028915Y-47625000D01*
X105150904Y-47402961D01*
X105110246Y-47268913D01*
X104990037Y-47014580D01*
X104822519Y-46788586D01*
X104614131Y-46599615D01*
X104422318Y-46484579D01*
X104560101Y-46410932D01*
X104778608Y-46231608D01*
X104957932Y-46013101D01*
X105091182Y-45763808D01*
X105173236Y-45493309D01*
X105200943Y-45212000D01*
X105173236Y-44930691D01*
X105091182Y-44660192D01*
X104957932Y-44410899D01*
X104778608Y-44192392D01*
X104560101Y-44013068D01*
X104310808Y-43879818D01*
X104040309Y-43797764D01*
X103829492Y-43777000D01*
X103688508Y-43777000D01*
X103477691Y-43797764D01*
X103433094Y-43811292D01*
X100530803Y-40909002D01*
X100507000Y-40879998D01*
X100391275Y-40785025D01*
X100259246Y-40714453D01*
X100115985Y-40670996D01*
X100004332Y-40659999D01*
X100004321Y-40659999D01*
X99966999Y-40656323D01*
X99929677Y-40659999D01*
X96453344Y-40659999D01*
X96468043Y-40638000D01*
X99537680Y-40638000D01*
X99575002Y-40641676D01*
X99612324Y-40638000D01*
X99612335Y-40638000D01*
X99723988Y-40627003D01*
X99867249Y-40583546D01*
X99999278Y-40512974D01*
X100115003Y-40418001D01*
X100138806Y-40388997D01*
X100300764Y-40227039D01*
X104018096Y-40227039D01*
X104058754Y-40361087D01*
X104178963Y-40615420D01*
X104346481Y-40841414D01*
X104554869Y-41030385D01*
X104796119Y-41175070D01*
X105060960Y-41269909D01*
X105283000Y-41148624D01*
X105283000Y-40005000D01*
X105537000Y-40005000D01*
X105537000Y-41148624D01*
X105759040Y-41269909D01*
X106023881Y-41175070D01*
X106265131Y-41030385D01*
X106473519Y-40841414D01*
X106641037Y-40615420D01*
X106761246Y-40361087D01*
X106801904Y-40227039D01*
X106679915Y-40005000D01*
X105537000Y-40005000D01*
X105283000Y-40005000D01*
X104140085Y-40005000D01*
X104018096Y-40227039D01*
X100300764Y-40227039D01*
X100998842Y-39528961D01*
X104018096Y-39528961D01*
X104140085Y-39751000D01*
X105283000Y-39751000D01*
X105283000Y-38607376D01*
X105537000Y-38607376D01*
X105537000Y-39751000D01*
X106679915Y-39751000D01*
X106801904Y-39528961D01*
X106761246Y-39394913D01*
X106641037Y-39140580D01*
X106473519Y-38914586D01*
X106265131Y-38725615D01*
X106023881Y-38580930D01*
X105759040Y-38486091D01*
X105537000Y-38607376D01*
X105283000Y-38607376D01*
X105060960Y-38486091D01*
X104796119Y-38580930D01*
X104554869Y-38725615D01*
X104346481Y-38914586D01*
X104178963Y-39140580D01*
X104058754Y-39394913D01*
X104018096Y-39528961D01*
X100998842Y-39528961D01*
X105110004Y-35417800D01*
X105139002Y-35394002D01*
X105233975Y-35278277D01*
X105304547Y-35146248D01*
X105348004Y-35002987D01*
X105359001Y-34891334D01*
X105362678Y-34854001D01*
X105359001Y-34816668D01*
X105359001Y-29119321D01*
X105362677Y-29081998D01*
X105359001Y-29044675D01*
X105359001Y-29044666D01*
X105348004Y-28933013D01*
X105304547Y-28789752D01*
X105233975Y-28657722D01*
X105162800Y-28570996D01*
X105139002Y-28541998D01*
X105110005Y-28518201D01*
X104473804Y-27882001D01*
X104450002Y-27852998D01*
X104334277Y-27758025D01*
X104202248Y-27687453D01*
X104058987Y-27643996D01*
X103947334Y-27632999D01*
X103947323Y-27632999D01*
X103910001Y-27629323D01*
X103872679Y-27632999D01*
X91920324Y-27632999D01*
X91883001Y-27629323D01*
X91845678Y-27632999D01*
X91845668Y-27632999D01*
X91734015Y-27643996D01*
X91590754Y-27687453D01*
X91458724Y-27758025D01*
X91408799Y-27798998D01*
X91343000Y-27852998D01*
X91319202Y-27881996D01*
X90285081Y-28916118D01*
X90251185Y-28874815D01*
X90154494Y-28795463D01*
X90044180Y-28736498D01*
X89924482Y-28700188D01*
X89800000Y-28687928D01*
X88000000Y-28687928D01*
X87875518Y-28700188D01*
X87755820Y-28736498D01*
X87645506Y-28795463D01*
X87548815Y-28874815D01*
X87469463Y-28971506D01*
X87410498Y-29081820D01*
X87404944Y-29100127D01*
X87338505Y-29033688D01*
X87087095Y-28865701D01*
X86807743Y-28749989D01*
X86511184Y-28691000D01*
X86208816Y-28691000D01*
X85912257Y-28749989D01*
X85632905Y-28865701D01*
X85381495Y-29033688D01*
X85167688Y-29247495D01*
X84999701Y-29498905D01*
X84883989Y-29778257D01*
X84825000Y-30074816D01*
X84825000Y-30377184D01*
X84883989Y-30673743D01*
X84999701Y-30953095D01*
X85167688Y-31204505D01*
X85381495Y-31418312D01*
X85632905Y-31586299D01*
X85912257Y-31702011D01*
X86208816Y-31761000D01*
X86511184Y-31761000D01*
X86807743Y-31702011D01*
X87087095Y-31586299D01*
X87338505Y-31418312D01*
X87404944Y-31351873D01*
X87410498Y-31370180D01*
X87469463Y-31480494D01*
X87548815Y-31577185D01*
X87645506Y-31656537D01*
X87755820Y-31715502D01*
X87875518Y-31751812D01*
X88000000Y-31764072D01*
X89800000Y-31764072D01*
X89924482Y-31751812D01*
X90044180Y-31715502D01*
X90154494Y-31656537D01*
X90251185Y-31577185D01*
X90330537Y-31480494D01*
X90389502Y-31370180D01*
X90425812Y-31250482D01*
X90438072Y-31126000D01*
X90438072Y-30880326D01*
X90474276Y-30860974D01*
X90590001Y-30766001D01*
X90613804Y-30736997D01*
X92197803Y-29152999D01*
X95238320Y-29152999D01*
X95201832Y-29241088D01*
X95139000Y-29556967D01*
X95139000Y-29879033D01*
X95201832Y-30194912D01*
X95325082Y-30492463D01*
X95504013Y-30760252D01*
X95731748Y-30987987D01*
X95798693Y-31032718D01*
X91366591Y-35464821D01*
X91434909Y-35274040D01*
X91313624Y-35052000D01*
X90170000Y-35052000D01*
X90170000Y-35072000D01*
X89916000Y-35072000D01*
X89916000Y-35052000D01*
X87630000Y-35052000D01*
X87630000Y-35072000D01*
X87376000Y-35072000D01*
X87376000Y-35052000D01*
X85090000Y-35052000D01*
X85090000Y-35072000D01*
X84836000Y-35072000D01*
X84836000Y-35052000D01*
X84816000Y-35052000D01*
X84816000Y-34798000D01*
X84836000Y-34798000D01*
X84836000Y-33655085D01*
X85090000Y-33655085D01*
X85090000Y-34798000D01*
X87376000Y-34798000D01*
X87376000Y-33655085D01*
X87630000Y-33655085D01*
X87630000Y-34798000D01*
X89916000Y-34798000D01*
X89916000Y-33655085D01*
X90170000Y-33655085D01*
X90170000Y-34798000D01*
X91313624Y-34798000D01*
X91434909Y-34575960D01*
X91340070Y-34311119D01*
X91195385Y-34069869D01*
X91006414Y-33861481D01*
X90780420Y-33693963D01*
X90526087Y-33573754D01*
X90392039Y-33533096D01*
X90170000Y-33655085D01*
X89916000Y-33655085D01*
X89693961Y-33533096D01*
X89559913Y-33573754D01*
X89305580Y-33693963D01*
X89079586Y-33861481D01*
X88890615Y-34069869D01*
X88773000Y-34265982D01*
X88655385Y-34069869D01*
X88466414Y-33861481D01*
X88240420Y-33693963D01*
X87986087Y-33573754D01*
X87852039Y-33533096D01*
X87630000Y-33655085D01*
X87376000Y-33655085D01*
X87153961Y-33533096D01*
X87019913Y-33573754D01*
X86765580Y-33693963D01*
X86539586Y-33861481D01*
X86350615Y-34069869D01*
X86233000Y-34265982D01*
X86115385Y-34069869D01*
X85926414Y-33861481D01*
X85700420Y-33693963D01*
X85446087Y-33573754D01*
X85312039Y-33533096D01*
X85090000Y-33655085D01*
X84836000Y-33655085D01*
X84613961Y-33533096D01*
X84479913Y-33573754D01*
X84225580Y-33693963D01*
X83999586Y-33861481D01*
X83810615Y-34069869D01*
X83695579Y-34261682D01*
X83621932Y-34123899D01*
X83442608Y-33905392D01*
X83224101Y-33726068D01*
X82974808Y-33592818D01*
X82704309Y-33510764D01*
X82493492Y-33490000D01*
X82352508Y-33490000D01*
X82141691Y-33510764D01*
X81871192Y-33592818D01*
X81621899Y-33726068D01*
X81403392Y-33905392D01*
X81224068Y-34123899D01*
X81153000Y-34256858D01*
X81081932Y-34123899D01*
X80902608Y-33905392D01*
X80684101Y-33726068D01*
X80434808Y-33592818D01*
X80164309Y-33510764D01*
X79953492Y-33490000D01*
X79812508Y-33490000D01*
X79601691Y-33510764D01*
X79331192Y-33592818D01*
X79081899Y-33726068D01*
X78863392Y-33905392D01*
X78684068Y-34123899D01*
X78610421Y-34261682D01*
X78495385Y-34069869D01*
X78306414Y-33861481D01*
X78080420Y-33693963D01*
X77826087Y-33573754D01*
X77692039Y-33533096D01*
X77470000Y-33655085D01*
X77470000Y-34798000D01*
X77490000Y-34798000D01*
X77490000Y-35052000D01*
X77470000Y-35052000D01*
X77470000Y-35072000D01*
X77216000Y-35072000D01*
X77216000Y-35052000D01*
X77196000Y-35052000D01*
X77196000Y-34798000D01*
X77216000Y-34798000D01*
X77216000Y-33655085D01*
X76993961Y-33533096D01*
X76859913Y-33573754D01*
X76605580Y-33693963D01*
X76379586Y-33861481D01*
X76190615Y-34069869D01*
X76075579Y-34261682D01*
X76001932Y-34123899D01*
X75822608Y-33905392D01*
X75604101Y-33726068D01*
X75354808Y-33592818D01*
X75084309Y-33510764D01*
X74873492Y-33490000D01*
X74732508Y-33490000D01*
X74521691Y-33510764D01*
X74251192Y-33592818D01*
X74001899Y-33726068D01*
X73783392Y-33905392D01*
X73604068Y-34123899D01*
X73533000Y-34256858D01*
X73461932Y-34123899D01*
X73282608Y-33905392D01*
X73064101Y-33726068D01*
X72814808Y-33592818D01*
X72544309Y-33510764D01*
X72333492Y-33490000D01*
X72192508Y-33490000D01*
X71981691Y-33510764D01*
X71711192Y-33592818D01*
X71461899Y-33726068D01*
X71243392Y-33905392D01*
X71064068Y-34123899D01*
X70930818Y-34373192D01*
X70848764Y-34643691D01*
X70821057Y-34925000D01*
X70848764Y-35206309D01*
X70862292Y-35250906D01*
X70297199Y-35816000D01*
X69036043Y-35816000D01*
X68932637Y-35661241D01*
X68732759Y-35461363D01*
X68497727Y-35304320D01*
X68236574Y-35196147D01*
X67959335Y-35141000D01*
X67676665Y-35141000D01*
X67399426Y-35196147D01*
X67138273Y-35304320D01*
X66903241Y-35461363D01*
X66703363Y-35661241D01*
X66546320Y-35896273D01*
X66438147Y-36157426D01*
X66383000Y-36434665D01*
X66383000Y-36717335D01*
X66438147Y-36994574D01*
X66546320Y-37255727D01*
X66703363Y-37490759D01*
X66903241Y-37690637D01*
X67138273Y-37847680D01*
X67399426Y-37955853D01*
X67676665Y-38011000D01*
X67959335Y-38011000D01*
X68236574Y-37955853D01*
X68497727Y-37847680D01*
X68732759Y-37690637D01*
X68932637Y-37490759D01*
X69036043Y-37336000D01*
X70574678Y-37336000D01*
X70612000Y-37339676D01*
X70649322Y-37336000D01*
X70649333Y-37336000D01*
X70760986Y-37325003D01*
X70904247Y-37281546D01*
X71036276Y-37210974D01*
X71152001Y-37116001D01*
X71175804Y-37086997D01*
X71937094Y-36325708D01*
X71981691Y-36339236D01*
X72192508Y-36360000D01*
X72333492Y-36360000D01*
X72544309Y-36339236D01*
X72814808Y-36257182D01*
X73064101Y-36123932D01*
X73282608Y-35944608D01*
X73461932Y-35726101D01*
X73533000Y-35593142D01*
X73604068Y-35726101D01*
X73783392Y-35944608D01*
X74001899Y-36123932D01*
X74251192Y-36257182D01*
X74521691Y-36339236D01*
X74732508Y-36360000D01*
X74873492Y-36360000D01*
X75084309Y-36339236D01*
X75354808Y-36257182D01*
X75604101Y-36123932D01*
X75822608Y-35944608D01*
X76001932Y-35726101D01*
X76075579Y-35588318D01*
X76190615Y-35780131D01*
X76379586Y-35988519D01*
X76605580Y-36156037D01*
X76859913Y-36276246D01*
X76993961Y-36316904D01*
X77215998Y-36194916D01*
X77215998Y-36324000D01*
X76711322Y-36324000D01*
X76673999Y-36320324D01*
X76636676Y-36324000D01*
X76636667Y-36324000D01*
X76525014Y-36334997D01*
X76381753Y-36378454D01*
X76249723Y-36449026D01*
X76166083Y-36517668D01*
X76133999Y-36543999D01*
X76110201Y-36572997D01*
X71751998Y-40931201D01*
X71723000Y-40954999D01*
X71699202Y-40983997D01*
X71699201Y-40983998D01*
X71628026Y-41070724D01*
X71608674Y-41106928D01*
X71463000Y-41106928D01*
X71338518Y-41119188D01*
X71218820Y-41155498D01*
X71108506Y-41214463D01*
X71011815Y-41293815D01*
X70932463Y-41390506D01*
X70873498Y-41500820D01*
X70837188Y-41620518D01*
X70824928Y-41745000D01*
X70824928Y-41785000D01*
X67242850Y-41785000D01*
X67256803Y-41767999D01*
X67492094Y-41532708D01*
X67536691Y-41546236D01*
X67747508Y-41567000D01*
X67888492Y-41567000D01*
X68099309Y-41546236D01*
X68369808Y-41464182D01*
X68619101Y-41330932D01*
X68837608Y-41151608D01*
X69016932Y-40933101D01*
X69150182Y-40683808D01*
X69232236Y-40413309D01*
X69259943Y-40132000D01*
X69232236Y-39850691D01*
X69150182Y-39580192D01*
X69016932Y-39330899D01*
X68837608Y-39112392D01*
X68619101Y-38933068D01*
X68369808Y-38799818D01*
X68099309Y-38717764D01*
X67888492Y-38697000D01*
X67747508Y-38697000D01*
X67536691Y-38717764D01*
X67266192Y-38799818D01*
X67016899Y-38933068D01*
X66798392Y-39112392D01*
X66619068Y-39330899D01*
X66485818Y-39580192D01*
X66403764Y-39850691D01*
X66376057Y-40132000D01*
X66403764Y-40413309D01*
X66417292Y-40457906D01*
X66378198Y-40497001D01*
X59048509Y-40497001D01*
X59093000Y-40273335D01*
X59093000Y-39990665D01*
X59037853Y-39713426D01*
X58929680Y-39452273D01*
X58772637Y-39217241D01*
X58572759Y-39017363D01*
X58337727Y-38860320D01*
X58076574Y-38752147D01*
X57799335Y-38697000D01*
X57516665Y-38697000D01*
X57239426Y-38752147D01*
X56978273Y-38860320D01*
X56743241Y-39017363D01*
X56543363Y-39217241D01*
X56439957Y-39372000D01*
X51876802Y-39372000D01*
X47975801Y-35471000D01*
X48076492Y-35471000D01*
X48287309Y-35450236D01*
X48557808Y-35368182D01*
X48807101Y-35234932D01*
X49025608Y-35055608D01*
X49204932Y-34837101D01*
X49338182Y-34587808D01*
X49420236Y-34317309D01*
X49447943Y-34036000D01*
X49420236Y-33754691D01*
X49394849Y-33670999D01*
X53678198Y-33670999D01*
X56257292Y-36250094D01*
X56243764Y-36294691D01*
X56216057Y-36576000D01*
X56243764Y-36857309D01*
X56325818Y-37127808D01*
X56459068Y-37377101D01*
X56638392Y-37595608D01*
X56856899Y-37774932D01*
X57106192Y-37908182D01*
X57376691Y-37990236D01*
X57587508Y-38011000D01*
X57728492Y-38011000D01*
X57939309Y-37990236D01*
X58209808Y-37908182D01*
X58459101Y-37774932D01*
X58677608Y-37595608D01*
X58856932Y-37377101D01*
X58990182Y-37127808D01*
X59072236Y-36857309D01*
X59099943Y-36576000D01*
X59072236Y-36294691D01*
X58990182Y-36024192D01*
X58856932Y-35774899D01*
X58677608Y-35556392D01*
X58459101Y-35377068D01*
X58209808Y-35243818D01*
X57939309Y-35161764D01*
X57728492Y-35141000D01*
X57587508Y-35141000D01*
X57376691Y-35161764D01*
X57332094Y-35175292D01*
X55525841Y-33369039D01*
X56266096Y-33369039D01*
X56306754Y-33503087D01*
X56426963Y-33757420D01*
X56594481Y-33983414D01*
X56802869Y-34172385D01*
X57044119Y-34317070D01*
X57308960Y-34411909D01*
X57531000Y-34290624D01*
X57531000Y-33147000D01*
X57785000Y-33147000D01*
X57785000Y-34290624D01*
X58007040Y-34411909D01*
X58271881Y-34317070D01*
X58513131Y-34172385D01*
X58721519Y-33983414D01*
X58889037Y-33757420D01*
X59009246Y-33503087D01*
X59049904Y-33369039D01*
X58927915Y-33147000D01*
X57785000Y-33147000D01*
X57531000Y-33147000D01*
X56388085Y-33147000D01*
X56266096Y-33369039D01*
X55525841Y-33369039D01*
X54827763Y-32670961D01*
X56266096Y-32670961D01*
X56388085Y-32893000D01*
X57531000Y-32893000D01*
X57531000Y-31749376D01*
X57785000Y-31749376D01*
X57785000Y-32893000D01*
X58927915Y-32893000D01*
X59049904Y-32670961D01*
X59009246Y-32536913D01*
X58889037Y-32282580D01*
X58721519Y-32056586D01*
X58513131Y-31867615D01*
X58271881Y-31722930D01*
X58007040Y-31628091D01*
X57785000Y-31749376D01*
X57531000Y-31749376D01*
X57308960Y-31628091D01*
X57044119Y-31722930D01*
X56802869Y-31867615D01*
X56594481Y-32056586D01*
X56426963Y-32282580D01*
X56306754Y-32536913D01*
X56266096Y-32670961D01*
X54827763Y-32670961D01*
X54556803Y-32400002D01*
X54533000Y-32370998D01*
X54417275Y-32276025D01*
X54285246Y-32205453D01*
X54141985Y-32161996D01*
X54030332Y-32150999D01*
X54030321Y-32150999D01*
X53992999Y-32147323D01*
X53955677Y-32150999D01*
X44088326Y-32150999D01*
X44051001Y-32147323D01*
X44013676Y-32150999D01*
X44013668Y-32150999D01*
X43902015Y-32161996D01*
X43758754Y-32205453D01*
X43626725Y-32276025D01*
X43511000Y-32370998D01*
X43487202Y-32399996D01*
X43251906Y-32635292D01*
X43207309Y-32621764D01*
X42996492Y-32601000D01*
X42855508Y-32601000D01*
X42644691Y-32621764D01*
X42374192Y-32703818D01*
X42124899Y-32837068D01*
X41906392Y-33016392D01*
X41727068Y-33234899D01*
X41656000Y-33367858D01*
X41584932Y-33234899D01*
X41405608Y-33016392D01*
X41187101Y-32837068D01*
X40937808Y-32703818D01*
X40667309Y-32621764D01*
X40456492Y-32601000D01*
X40315508Y-32601000D01*
X40104691Y-32621764D01*
X39834192Y-32703818D01*
X39584899Y-32837068D01*
X39366392Y-33016392D01*
X39187068Y-33234899D01*
X39165099Y-33276000D01*
X36890802Y-33276000D01*
X34833504Y-31218702D01*
X39104903Y-31218702D01*
X39176486Y-31462671D01*
X39431996Y-31583571D01*
X39706184Y-31652300D01*
X39988512Y-31666217D01*
X40268130Y-31624787D01*
X40534292Y-31529603D01*
X40659514Y-31462671D01*
X40731097Y-31218702D01*
X39918000Y-30405605D01*
X39104903Y-31218702D01*
X34833504Y-31218702D01*
X33967801Y-30353000D01*
X34173592Y-30353000D01*
X34443490Y-30299314D01*
X34697727Y-30194005D01*
X34926535Y-30041120D01*
X35121120Y-29846535D01*
X35208341Y-29716000D01*
X38571783Y-29716000D01*
X38560429Y-29739996D01*
X38491700Y-30014184D01*
X38477783Y-30296512D01*
X38519213Y-30576130D01*
X38614397Y-30842292D01*
X38681329Y-30967514D01*
X38925298Y-31039097D01*
X39738395Y-30226000D01*
X39724253Y-30211858D01*
X39903858Y-30032253D01*
X39918000Y-30046395D01*
X39932143Y-30032253D01*
X40111748Y-30211858D01*
X40097605Y-30226000D01*
X40910702Y-31039097D01*
X41154671Y-30967514D01*
X41168324Y-30938659D01*
X41303363Y-31140759D01*
X41503241Y-31340637D01*
X41738273Y-31497680D01*
X41999426Y-31605853D01*
X42276665Y-31661000D01*
X42559335Y-31661000D01*
X42836574Y-31605853D01*
X43097727Y-31497680D01*
X43332759Y-31340637D01*
X43454694Y-31218702D01*
X44946903Y-31218702D01*
X45018486Y-31462671D01*
X45273996Y-31583571D01*
X45548184Y-31652300D01*
X45830512Y-31666217D01*
X46110130Y-31624787D01*
X46376292Y-31529603D01*
X46501514Y-31462671D01*
X46573097Y-31218702D01*
X45760000Y-30405605D01*
X44946903Y-31218702D01*
X43454694Y-31218702D01*
X43532637Y-31140759D01*
X43689680Y-30905727D01*
X43797853Y-30644574D01*
X43853000Y-30367335D01*
X43853000Y-30084665D01*
X43797853Y-29807426D01*
X43759983Y-29716000D01*
X44413783Y-29716000D01*
X44402429Y-29739996D01*
X44333700Y-30014184D01*
X44319783Y-30296512D01*
X44361213Y-30576130D01*
X44456397Y-30842292D01*
X44523329Y-30967514D01*
X44767298Y-31039097D01*
X45580395Y-30226000D01*
X45566253Y-30211858D01*
X45745858Y-30032253D01*
X45760000Y-30046395D01*
X45774143Y-30032253D01*
X45953748Y-30211858D01*
X45939605Y-30226000D01*
X46752702Y-31039097D01*
X46996671Y-30967514D01*
X47010324Y-30938659D01*
X47145363Y-31140759D01*
X47345241Y-31340637D01*
X47580273Y-31497680D01*
X47841426Y-31605853D01*
X48118665Y-31661000D01*
X48401335Y-31661000D01*
X48678574Y-31605853D01*
X48939727Y-31497680D01*
X49174759Y-31340637D01*
X49374637Y-31140759D01*
X49531680Y-30905727D01*
X49639853Y-30644574D01*
X49695000Y-30367335D01*
X49695000Y-30084665D01*
X49639853Y-29807426D01*
X49601983Y-29716000D01*
X56319410Y-29716000D01*
X56266096Y-29813039D01*
X56306754Y-29947087D01*
X56426963Y-30201420D01*
X56594481Y-30427414D01*
X56802869Y-30616385D01*
X57044119Y-30761070D01*
X57308960Y-30855909D01*
X57531000Y-30734624D01*
X57531000Y-29591000D01*
X57785000Y-29591000D01*
X57785000Y-30734624D01*
X58007040Y-30855909D01*
X58271881Y-30761070D01*
X58513131Y-30616385D01*
X58721519Y-30427414D01*
X58889037Y-30201420D01*
X59009246Y-29947087D01*
X59049904Y-29813039D01*
X58927915Y-29591000D01*
X57785000Y-29591000D01*
X57531000Y-29591000D01*
X57511000Y-29591000D01*
X57511000Y-29337000D01*
X57531000Y-29337000D01*
X57531000Y-29317000D01*
X57785000Y-29317000D01*
X57785000Y-29337000D01*
X58927915Y-29337000D01*
X59049904Y-29114961D01*
X59045063Y-29098999D01*
X62822198Y-29098999D01*
X66419312Y-32696114D01*
X66383000Y-32878665D01*
X66383000Y-33161335D01*
X66438147Y-33438574D01*
X66546320Y-33699727D01*
X66703363Y-33934759D01*
X66903241Y-34134637D01*
X67138273Y-34291680D01*
X67399426Y-34399853D01*
X67676665Y-34455000D01*
X67959335Y-34455000D01*
X68236574Y-34399853D01*
X68497727Y-34291680D01*
X68732759Y-34134637D01*
X68932637Y-33934759D01*
X69089680Y-33699727D01*
X69197853Y-33438574D01*
X69253000Y-33161335D01*
X69253000Y-32878665D01*
X69197853Y-32601426D01*
X69089680Y-32340273D01*
X68932637Y-32105241D01*
X68732759Y-31905363D01*
X68497727Y-31748320D01*
X68236574Y-31640147D01*
X67959335Y-31585000D01*
X67676665Y-31585000D01*
X67494114Y-31621312D01*
X67227467Y-31354665D01*
X70320000Y-31354665D01*
X70320000Y-31637335D01*
X70375147Y-31914574D01*
X70483320Y-32175727D01*
X70640363Y-32410759D01*
X70840241Y-32610637D01*
X71075273Y-32767680D01*
X71336426Y-32875853D01*
X71613665Y-32931000D01*
X71896335Y-32931000D01*
X72173574Y-32875853D01*
X72434727Y-32767680D01*
X72669759Y-32610637D01*
X72791694Y-32488702D01*
X73441903Y-32488702D01*
X73513486Y-32732671D01*
X73768996Y-32853571D01*
X74043184Y-32922300D01*
X74325512Y-32936217D01*
X74605130Y-32894787D01*
X74871292Y-32799603D01*
X74996514Y-32732671D01*
X75068097Y-32488702D01*
X74255000Y-31675605D01*
X73441903Y-32488702D01*
X72791694Y-32488702D01*
X72869637Y-32410759D01*
X73003692Y-32210131D01*
X73018329Y-32237514D01*
X73262298Y-32309097D01*
X74075395Y-31496000D01*
X74434605Y-31496000D01*
X75247702Y-32309097D01*
X75491671Y-32237514D01*
X75612571Y-31982004D01*
X75681300Y-31707816D01*
X75695217Y-31425488D01*
X75684724Y-31354665D01*
X76416000Y-31354665D01*
X76416000Y-31637335D01*
X76471147Y-31914574D01*
X76579320Y-32175727D01*
X76736363Y-32410759D01*
X76936241Y-32610637D01*
X77171273Y-32767680D01*
X77432426Y-32875853D01*
X77709665Y-32931000D01*
X77992335Y-32931000D01*
X78269574Y-32875853D01*
X78530727Y-32767680D01*
X78765759Y-32610637D01*
X78887694Y-32488702D01*
X79537903Y-32488702D01*
X79609486Y-32732671D01*
X79864996Y-32853571D01*
X80139184Y-32922300D01*
X80421512Y-32936217D01*
X80701130Y-32894787D01*
X80967292Y-32799603D01*
X81092514Y-32732671D01*
X81164097Y-32488702D01*
X80351000Y-31675605D01*
X79537903Y-32488702D01*
X78887694Y-32488702D01*
X78965637Y-32410759D01*
X79099692Y-32210131D01*
X79114329Y-32237514D01*
X79358298Y-32309097D01*
X80171395Y-31496000D01*
X80530605Y-31496000D01*
X81343702Y-32309097D01*
X81587671Y-32237514D01*
X81708571Y-31982004D01*
X81777300Y-31707816D01*
X81791217Y-31425488D01*
X81749787Y-31145870D01*
X81654603Y-30879708D01*
X81587671Y-30754486D01*
X81343702Y-30682903D01*
X80530605Y-31496000D01*
X80171395Y-31496000D01*
X79358298Y-30682903D01*
X79114329Y-30754486D01*
X79100676Y-30783341D01*
X78965637Y-30581241D01*
X78887694Y-30503298D01*
X79537903Y-30503298D01*
X80351000Y-31316395D01*
X81164097Y-30503298D01*
X81092514Y-30259329D01*
X80837004Y-30138429D01*
X80562816Y-30069700D01*
X80280488Y-30055783D01*
X80000870Y-30097213D01*
X79734708Y-30192397D01*
X79609486Y-30259329D01*
X79537903Y-30503298D01*
X78887694Y-30503298D01*
X78765759Y-30381363D01*
X78530727Y-30224320D01*
X78269574Y-30116147D01*
X77992335Y-30061000D01*
X77709665Y-30061000D01*
X77432426Y-30116147D01*
X77171273Y-30224320D01*
X76936241Y-30381363D01*
X76736363Y-30581241D01*
X76579320Y-30816273D01*
X76471147Y-31077426D01*
X76416000Y-31354665D01*
X75684724Y-31354665D01*
X75653787Y-31145870D01*
X75558603Y-30879708D01*
X75491671Y-30754486D01*
X75247702Y-30682903D01*
X74434605Y-31496000D01*
X74075395Y-31496000D01*
X73262298Y-30682903D01*
X73018329Y-30754486D01*
X73004676Y-30783341D01*
X72869637Y-30581241D01*
X72791694Y-30503298D01*
X73441903Y-30503298D01*
X74255000Y-31316395D01*
X75068097Y-30503298D01*
X74996514Y-30259329D01*
X74741004Y-30138429D01*
X74466816Y-30069700D01*
X74184488Y-30055783D01*
X73904870Y-30097213D01*
X73638708Y-30192397D01*
X73513486Y-30259329D01*
X73441903Y-30503298D01*
X72791694Y-30503298D01*
X72669759Y-30381363D01*
X72434727Y-30224320D01*
X72173574Y-30116147D01*
X71896335Y-30061000D01*
X71613665Y-30061000D01*
X71336426Y-30116147D01*
X71075273Y-30224320D01*
X70840241Y-30381363D01*
X70640363Y-30581241D01*
X70483320Y-30816273D01*
X70375147Y-31077426D01*
X70320000Y-31354665D01*
X67227467Y-31354665D01*
X64191801Y-28319000D01*
X65598199Y-28319000D01*
X66419312Y-29140115D01*
X66383000Y-29322665D01*
X66383000Y-29605335D01*
X66438147Y-29882574D01*
X66546320Y-30143727D01*
X66703363Y-30378759D01*
X66903241Y-30578637D01*
X67138273Y-30735680D01*
X67399426Y-30843853D01*
X67676665Y-30899000D01*
X67959335Y-30899000D01*
X68236574Y-30843853D01*
X68497727Y-30735680D01*
X68732759Y-30578637D01*
X68932637Y-30378759D01*
X69089680Y-30143727D01*
X69197853Y-29882574D01*
X69253000Y-29605335D01*
X69253000Y-29322665D01*
X69197853Y-29045426D01*
X69089680Y-28784273D01*
X68932637Y-28549241D01*
X68732759Y-28349363D01*
X68497727Y-28192320D01*
X68236574Y-28084147D01*
X67959335Y-28029000D01*
X67676665Y-28029000D01*
X67494115Y-28065312D01*
X66476803Y-27048002D01*
X66453001Y-27018999D01*
X66337276Y-26924026D01*
X66205247Y-26853454D01*
X66061986Y-26809997D01*
X65950333Y-26799000D01*
X65950322Y-26799000D01*
X65913000Y-26795324D01*
X65875678Y-26799000D01*
X30390322Y-26799000D01*
X30352999Y-26795324D01*
X30315676Y-26799000D01*
X30315667Y-26799000D01*
X30204014Y-26809997D01*
X30060753Y-26853454D01*
X29928724Y-26924026D01*
X29812999Y-27018999D01*
X29789201Y-27047997D01*
X29247570Y-27589628D01*
X29093592Y-27559000D01*
X28818408Y-27559000D01*
X28548510Y-27612686D01*
X28294273Y-27717995D01*
X28065465Y-27870880D01*
X27870880Y-28065465D01*
X27717995Y-28294273D01*
X27612686Y-28548510D01*
X27559000Y-28818408D01*
X27559000Y-29093592D01*
X27612686Y-29363490D01*
X27717995Y-29617727D01*
X27870880Y-29846535D01*
X28065465Y-30041120D01*
X28294273Y-30194005D01*
X28548510Y-30299314D01*
X28818408Y-30353000D01*
X29093592Y-30353000D01*
X29363490Y-30299314D01*
X29617727Y-30194005D01*
X29846535Y-30041120D01*
X30041120Y-29846535D01*
X30194005Y-29617727D01*
X30226000Y-29540485D01*
X30257995Y-29617727D01*
X30410880Y-29846535D01*
X30605465Y-30041120D01*
X30834273Y-30194005D01*
X31088510Y-30299314D01*
X31358408Y-30353000D01*
X31633592Y-30353000D01*
X31787571Y-30322372D01*
X36012200Y-34547002D01*
X36035999Y-34576001D01*
X36064997Y-34599799D01*
X36151723Y-34670974D01*
X36215409Y-34705015D01*
X36283753Y-34741546D01*
X36427014Y-34785003D01*
X36538667Y-34796000D01*
X36538677Y-34796000D01*
X36576000Y-34799676D01*
X36613323Y-34796000D01*
X39165099Y-34796000D01*
X39187068Y-34837101D01*
X39366392Y-35055608D01*
X39584899Y-35234932D01*
X39834192Y-35368182D01*
X40104691Y-35450236D01*
X40315508Y-35471000D01*
X40456492Y-35471000D01*
X40667309Y-35450236D01*
X40937808Y-35368182D01*
X41187101Y-35234932D01*
X41405608Y-35055608D01*
X41584932Y-34837101D01*
X41656000Y-34704142D01*
X41727068Y-34837101D01*
X41906392Y-35055608D01*
X42124899Y-35234932D01*
X42374192Y-35368182D01*
X42644691Y-35450236D01*
X42855508Y-35471000D01*
X42996492Y-35471000D01*
X43207309Y-35450236D01*
X43477808Y-35368182D01*
X43727101Y-35234932D01*
X43945608Y-35055608D01*
X44124932Y-34837101D01*
X44196000Y-34704142D01*
X44267068Y-34837101D01*
X44446392Y-35055608D01*
X44664899Y-35234932D01*
X44914192Y-35368182D01*
X45184691Y-35450236D01*
X45395508Y-35471000D01*
X45536492Y-35471000D01*
X45747309Y-35450236D01*
X45791907Y-35436708D01*
X50852199Y-40497001D01*
X49586805Y-40497001D01*
X49109804Y-40020001D01*
X49086002Y-39990998D01*
X48970277Y-39896025D01*
X48838248Y-39825453D01*
X48694987Y-39781996D01*
X48583334Y-39770999D01*
X48583323Y-39770999D01*
X48546001Y-39767323D01*
X48508679Y-39770999D01*
X32658323Y-39770999D01*
X32621000Y-39767323D01*
X32583677Y-39770999D01*
X32583668Y-39770999D01*
X32472015Y-39781996D01*
X32328754Y-39825453D01*
X32196725Y-39896025D01*
X32081000Y-39990998D01*
X32057197Y-40020002D01*
X31787571Y-40289628D01*
X31633592Y-40259000D01*
X31358408Y-40259000D01*
X31088510Y-40312686D01*
X30834273Y-40417995D01*
X30605465Y-40570880D01*
X30410880Y-40765465D01*
X30257995Y-40994273D01*
X30226000Y-41071515D01*
X30194005Y-40994273D01*
X30041120Y-40765465D01*
X29846535Y-40570880D01*
X29617727Y-40417995D01*
X29363490Y-40312686D01*
X29093592Y-40259000D01*
X28818408Y-40259000D01*
X28548510Y-40312686D01*
X28294273Y-40417995D01*
X28065465Y-40570880D01*
X27870880Y-40765465D01*
X27717995Y-40994273D01*
X27612686Y-41248510D01*
X27559000Y-41518408D01*
X27559000Y-41793592D01*
X27612686Y-42063490D01*
X27717995Y-42317727D01*
X27870880Y-42546535D01*
X28065465Y-42741120D01*
X28294273Y-42894005D01*
X28548510Y-42999314D01*
X28818408Y-43053000D01*
X29093592Y-43053000D01*
X29363490Y-42999314D01*
X29617727Y-42894005D01*
X29846535Y-42741120D01*
X30041120Y-42546535D01*
X30194005Y-42317727D01*
X30226000Y-42240485D01*
X30257995Y-42317727D01*
X30410880Y-42546535D01*
X30605465Y-42741120D01*
X30834273Y-42894005D01*
X31088510Y-42999314D01*
X31358408Y-43053000D01*
X31633592Y-43053000D01*
X31903490Y-42999314D01*
X32157727Y-42894005D01*
X32386535Y-42741120D01*
X32581120Y-42546535D01*
X32734005Y-42317727D01*
X32766000Y-42240485D01*
X32797995Y-42317727D01*
X32950880Y-42546535D01*
X33145465Y-42741120D01*
X33374273Y-42894005D01*
X33628510Y-42999314D01*
X33898408Y-43053000D01*
X34173592Y-43053000D01*
X34443490Y-42999314D01*
X34697727Y-42894005D01*
X34926535Y-42741120D01*
X35121120Y-42546535D01*
X35181613Y-42456000D01*
X38947928Y-42456000D01*
X38960188Y-42580482D01*
X38996498Y-42700180D01*
X39055463Y-42810494D01*
X39134815Y-42907185D01*
X39231506Y-42986537D01*
X39341820Y-43045502D01*
X39461518Y-43081812D01*
X39586000Y-43094072D01*
X40100250Y-43091000D01*
X40259000Y-42932250D01*
X40259000Y-41783000D01*
X39109750Y-41783000D01*
X38951000Y-41941750D01*
X38947928Y-42456000D01*
X35181613Y-42456000D01*
X35274005Y-42317727D01*
X35379314Y-42063490D01*
X35433000Y-41793592D01*
X35433000Y-41518408D01*
X35387766Y-41290999D01*
X38950527Y-41290999D01*
X38951000Y-41370250D01*
X39109750Y-41529000D01*
X40259000Y-41529000D01*
X40259000Y-41509000D01*
X40513000Y-41509000D01*
X40513000Y-41529000D01*
X40533000Y-41529000D01*
X40533000Y-41783000D01*
X40513000Y-41783000D01*
X40513000Y-42932250D01*
X40671750Y-43091000D01*
X41186000Y-43094072D01*
X41310482Y-43081812D01*
X41430180Y-43045502D01*
X41540494Y-42986537D01*
X41637185Y-42907185D01*
X41716537Y-42810494D01*
X41775502Y-42700180D01*
X41811812Y-42580482D01*
X41813581Y-42562518D01*
X41906392Y-42675608D01*
X42124899Y-42854932D01*
X42374192Y-42988182D01*
X42644691Y-43070236D01*
X42855508Y-43091000D01*
X42996492Y-43091000D01*
X43207309Y-43070236D01*
X43477808Y-42988182D01*
X43727101Y-42854932D01*
X43945608Y-42675608D01*
X44124932Y-42457101D01*
X44196000Y-42324142D01*
X44267068Y-42457101D01*
X44446392Y-42675608D01*
X44664899Y-42854932D01*
X44914192Y-42988182D01*
X45184691Y-43070236D01*
X45395508Y-43091000D01*
X45536492Y-43091000D01*
X45747309Y-43070236D01*
X45791906Y-43056708D01*
X48458205Y-45723008D01*
X48481999Y-45752001D01*
X48510992Y-45775795D01*
X48510996Y-45775799D01*
X48556810Y-45813397D01*
X48597724Y-45846974D01*
X48729753Y-45917546D01*
X48873014Y-45961003D01*
X48984667Y-45972000D01*
X48984676Y-45972000D01*
X49021999Y-45975676D01*
X49059322Y-45972000D01*
X57453464Y-45972000D01*
X57233192Y-46038818D01*
X56983899Y-46172068D01*
X56765392Y-46351392D01*
X56586068Y-46569899D01*
X56452818Y-46819192D01*
X56370764Y-47089691D01*
X56343057Y-47371000D01*
X56370764Y-47652309D01*
X56452818Y-47922808D01*
X56586068Y-48172101D01*
X56765392Y-48390608D01*
X56983899Y-48569932D01*
X57233192Y-48703182D01*
X57503691Y-48785236D01*
X57714508Y-48806000D01*
X57855492Y-48806000D01*
X58066309Y-48785236D01*
X58336808Y-48703182D01*
X58586101Y-48569932D01*
X58804608Y-48390608D01*
X58983932Y-48172101D01*
X59117182Y-47922808D01*
X59199236Y-47652309D01*
X59226943Y-47371000D01*
X59199236Y-47089691D01*
X59117182Y-46819192D01*
X58983932Y-46569899D01*
X58804608Y-46351392D01*
X58586101Y-46172068D01*
X58336808Y-46038818D01*
X58116536Y-45972000D01*
X67622683Y-45972000D01*
X67526426Y-45991147D01*
X67265273Y-46099320D01*
X67030241Y-46256363D01*
X66830363Y-46456241D01*
X66673320Y-46691273D01*
X66565147Y-46952426D01*
X66510000Y-47229665D01*
X66510000Y-47512335D01*
X66546312Y-47694886D01*
X64963199Y-49278000D01*
X52869333Y-49278000D01*
X52832000Y-49274323D01*
X52794667Y-49278000D01*
X52683014Y-49288997D01*
X52539753Y-49332454D01*
X52407724Y-49403026D01*
X52291999Y-49497999D01*
X52268201Y-49526997D01*
X51125907Y-50669292D01*
X51081309Y-50655764D01*
X50870492Y-50635000D01*
X50729508Y-50635000D01*
X50518691Y-50655764D01*
X50474093Y-50669292D01*
X50238803Y-50434002D01*
X50215000Y-50404998D01*
X50099275Y-50310025D01*
X49967246Y-50239453D01*
X49823985Y-50195996D01*
X49712332Y-50184999D01*
X49712321Y-50184999D01*
X49674999Y-50181323D01*
X49637677Y-50184999D01*
X29977321Y-50184999D01*
X29939998Y-50181323D01*
X29902675Y-50184999D01*
X29902666Y-50184999D01*
X29791013Y-50195996D01*
X29647752Y-50239453D01*
X29515723Y-50310025D01*
X29515721Y-50310026D01*
X29515722Y-50310026D01*
X29428995Y-50381200D01*
X29428991Y-50381204D01*
X29399998Y-50404998D01*
X29376204Y-50433991D01*
X28849866Y-50960329D01*
X28741101Y-50871068D01*
X28491808Y-50737818D01*
X28221309Y-50655764D01*
X28010492Y-50635000D01*
X27869508Y-50635000D01*
X27658691Y-50655764D01*
X27388192Y-50737818D01*
X27138899Y-50871068D01*
X26920392Y-51050392D01*
X26741068Y-51268899D01*
X26607818Y-51518192D01*
X26525764Y-51788691D01*
X26498057Y-52070000D01*
X26525764Y-52351309D01*
X26607818Y-52621808D01*
X26741068Y-52871101D01*
X26830330Y-52979867D01*
X26303997Y-53506200D01*
X26274999Y-53529998D01*
X26251201Y-53558996D01*
X26251200Y-53558997D01*
X26180025Y-53645723D01*
X26109453Y-53777753D01*
X26065997Y-53921014D01*
X26051323Y-54069999D01*
X24815000Y-54069999D01*
X24815000Y-46848665D01*
X26378000Y-46848665D01*
X26378000Y-47131335D01*
X26433147Y-47408574D01*
X26541320Y-47669727D01*
X26698363Y-47904759D01*
X26898241Y-48104637D01*
X27133273Y-48261680D01*
X27394426Y-48369853D01*
X27671665Y-48425000D01*
X27954335Y-48425000D01*
X28231574Y-48369853D01*
X28492727Y-48261680D01*
X28727759Y-48104637D01*
X28849694Y-47982702D01*
X29499903Y-47982702D01*
X29571486Y-48226671D01*
X29826996Y-48347571D01*
X30101184Y-48416300D01*
X30383512Y-48430217D01*
X30663130Y-48388787D01*
X30929292Y-48293603D01*
X31054514Y-48226671D01*
X31126097Y-47982702D01*
X30313000Y-47169605D01*
X29499903Y-47982702D01*
X28849694Y-47982702D01*
X28927637Y-47904759D01*
X29061692Y-47704131D01*
X29076329Y-47731514D01*
X29320298Y-47803097D01*
X30133395Y-46990000D01*
X30119253Y-46975858D01*
X30298858Y-46796253D01*
X30313000Y-46810395D01*
X30327143Y-46796253D01*
X30506748Y-46975858D01*
X30492605Y-46990000D01*
X31305702Y-47803097D01*
X31549671Y-47731514D01*
X31670571Y-47476004D01*
X31739300Y-47201816D01*
X31753217Y-46919488D01*
X31711787Y-46639870D01*
X31706469Y-46624999D01*
X43645198Y-46624999D01*
X43813312Y-46793113D01*
X43777000Y-46975665D01*
X43777000Y-47258335D01*
X43832147Y-47535574D01*
X43940320Y-47796727D01*
X44097363Y-48031759D01*
X44297241Y-48231637D01*
X44532273Y-48388680D01*
X44793426Y-48496853D01*
X45070665Y-48552000D01*
X45353335Y-48552000D01*
X45630574Y-48496853D01*
X45891727Y-48388680D01*
X46126759Y-48231637D01*
X46248694Y-48109702D01*
X46898903Y-48109702D01*
X46970486Y-48353671D01*
X47225996Y-48474571D01*
X47500184Y-48543300D01*
X47782512Y-48557217D01*
X48062130Y-48515787D01*
X48328292Y-48420603D01*
X48453514Y-48353671D01*
X48525097Y-48109702D01*
X47712000Y-47296605D01*
X46898903Y-48109702D01*
X46248694Y-48109702D01*
X46326637Y-48031759D01*
X46460692Y-47831131D01*
X46475329Y-47858514D01*
X46719298Y-47930097D01*
X47532395Y-47117000D01*
X47891605Y-47117000D01*
X48704702Y-47930097D01*
X48948671Y-47858514D01*
X49069571Y-47603004D01*
X49138300Y-47328816D01*
X49152217Y-47046488D01*
X49110787Y-46766870D01*
X49015603Y-46500708D01*
X48948671Y-46375486D01*
X48704702Y-46303903D01*
X47891605Y-47117000D01*
X47532395Y-47117000D01*
X46719298Y-46303903D01*
X46475329Y-46375486D01*
X46461676Y-46404341D01*
X46326637Y-46202241D01*
X46248694Y-46124298D01*
X46898903Y-46124298D01*
X47712000Y-46937395D01*
X48525097Y-46124298D01*
X48453514Y-45880329D01*
X48198004Y-45759429D01*
X47923816Y-45690700D01*
X47641488Y-45676783D01*
X47361870Y-45718213D01*
X47095708Y-45813397D01*
X46970486Y-45880329D01*
X46898903Y-46124298D01*
X46248694Y-46124298D01*
X46126759Y-46002363D01*
X45891727Y-45845320D01*
X45630574Y-45737147D01*
X45353335Y-45682000D01*
X45070665Y-45682000D01*
X44888113Y-45718312D01*
X44523803Y-45354002D01*
X44500000Y-45324998D01*
X44384275Y-45230025D01*
X44252246Y-45159453D01*
X44108985Y-45115996D01*
X43997332Y-45104999D01*
X43997321Y-45104999D01*
X43959999Y-45101323D01*
X43922677Y-45104999D01*
X28975326Y-45104999D01*
X28938001Y-45101323D01*
X28900676Y-45104999D01*
X28900668Y-45104999D01*
X28789015Y-45115996D01*
X28645754Y-45159453D01*
X28513725Y-45230025D01*
X28398000Y-45324998D01*
X28374202Y-45353996D01*
X28136886Y-45591312D01*
X27954335Y-45555000D01*
X27671665Y-45555000D01*
X27394426Y-45610147D01*
X27133273Y-45718320D01*
X26898241Y-45875363D01*
X26698363Y-46075241D01*
X26541320Y-46310273D01*
X26433147Y-46571426D01*
X26378000Y-46848665D01*
X24815000Y-46848665D01*
X24815000Y-26720000D01*
X107011000Y-26720000D01*
X107011001Y-70435000D01*
G36*
X54681068Y-60491101D02*
G01*
X54860392Y-60709608D01*
X55078899Y-60888932D01*
X55328192Y-61022182D01*
X55598691Y-61104236D01*
X55809508Y-61125000D01*
X55950492Y-61125000D01*
X56161309Y-61104236D01*
X56205906Y-61090708D01*
X56441202Y-61326004D01*
X56465000Y-61355002D01*
X56580725Y-61449975D01*
X56712754Y-61520547D01*
X56856015Y-61564004D01*
X56967668Y-61575001D01*
X56967676Y-61575001D01*
X57005001Y-61578677D01*
X57042326Y-61575001D01*
X70177677Y-61575001D01*
X70214999Y-61578677D01*
X70252321Y-61575001D01*
X70252332Y-61575001D01*
X70326502Y-61567696D01*
X66405996Y-65488203D01*
X66331111Y-65465487D01*
X66112950Y-65444000D01*
X65967050Y-65444000D01*
X65748889Y-65465487D01*
X65468966Y-65550401D01*
X65210986Y-65688294D01*
X64984866Y-65873866D01*
X64799294Y-66099986D01*
X64770000Y-66154791D01*
X64740706Y-66099986D01*
X64555134Y-65873866D01*
X64329014Y-65688294D01*
X64071034Y-65550401D01*
X63791111Y-65465487D01*
X63572950Y-65444000D01*
X63427050Y-65444000D01*
X63208889Y-65465487D01*
X62928966Y-65550401D01*
X62670986Y-65688294D01*
X62444866Y-65873866D01*
X62259294Y-66099986D01*
X62230000Y-66154791D01*
X62200706Y-66099986D01*
X62015134Y-65873866D01*
X61789014Y-65688294D01*
X61531034Y-65550401D01*
X61251111Y-65465487D01*
X61032950Y-65444000D01*
X60887050Y-65444000D01*
X60668889Y-65465487D01*
X60388966Y-65550401D01*
X60130986Y-65688294D01*
X59904866Y-65873866D01*
X59719294Y-66099986D01*
X59690000Y-66154791D01*
X59660706Y-66099986D01*
X59475134Y-65873866D01*
X59249014Y-65688294D01*
X58991034Y-65550401D01*
X58711111Y-65465487D01*
X58492950Y-65444000D01*
X58347050Y-65444000D01*
X58128889Y-65465487D01*
X57848966Y-65550401D01*
X57590986Y-65688294D01*
X57364866Y-65873866D01*
X57340393Y-65903687D01*
X57319502Y-65834820D01*
X57260537Y-65724506D01*
X57181185Y-65627815D01*
X57084494Y-65548463D01*
X56974180Y-65489498D01*
X56854482Y-65453188D01*
X56730000Y-65440928D01*
X56165750Y-65444000D01*
X56007000Y-65602750D01*
X56007000Y-66802000D01*
X56027000Y-66802000D01*
X56027000Y-67056000D01*
X56007000Y-67056000D01*
X56007000Y-67076000D01*
X55753000Y-67076000D01*
X55753000Y-67056000D01*
X54553750Y-67056000D01*
X54395000Y-67214750D01*
X54394296Y-67344001D01*
X33493803Y-67344001D01*
X32228802Y-66079000D01*
X54391928Y-66079000D01*
X54395000Y-66643250D01*
X54553750Y-66802000D01*
X55753000Y-66802000D01*
X55753000Y-65602750D01*
X55594250Y-65444000D01*
X55030000Y-65440928D01*
X54905518Y-65453188D01*
X54785820Y-65489498D01*
X54675506Y-65548463D01*
X54578815Y-65627815D01*
X54499463Y-65724506D01*
X54440498Y-65834820D01*
X54404188Y-65954518D01*
X54391928Y-66079000D01*
X32228802Y-66079000D01*
X27574999Y-61425198D01*
X27574999Y-61128072D01*
X28740000Y-61128072D01*
X28864482Y-61115812D01*
X28984180Y-61079502D01*
X29079010Y-61028814D01*
X29394199Y-61344003D01*
X29417997Y-61373001D01*
X29446995Y-61396799D01*
X29533721Y-61467974D01*
X29665751Y-61538546D01*
X29809012Y-61582003D01*
X29920665Y-61593000D01*
X29920674Y-61593000D01*
X29957997Y-61596676D01*
X29995320Y-61593000D01*
X39459678Y-61593000D01*
X39497000Y-61596676D01*
X39534322Y-61593000D01*
X39534333Y-61593000D01*
X39645986Y-61582003D01*
X39789247Y-61538546D01*
X39921276Y-61467974D01*
X40037001Y-61373001D01*
X40060804Y-61343997D01*
X40314093Y-61090708D01*
X40358691Y-61104236D01*
X40569508Y-61125000D01*
X40710492Y-61125000D01*
X40921309Y-61104236D01*
X40965906Y-61090708D01*
X41201202Y-61326004D01*
X41225000Y-61355002D01*
X41340725Y-61449975D01*
X41472754Y-61520547D01*
X41616015Y-61564004D01*
X41727668Y-61575001D01*
X41727676Y-61575001D01*
X41765001Y-61578677D01*
X41802326Y-61575001D01*
X52177677Y-61575001D01*
X52214999Y-61578677D01*
X52252321Y-61575001D01*
X52252332Y-61575001D01*
X52363985Y-61564004D01*
X52507246Y-61520547D01*
X52639275Y-61449975D01*
X52755000Y-61355002D01*
X52778803Y-61325998D01*
X53014093Y-61090708D01*
X53058691Y-61104236D01*
X53269508Y-61125000D01*
X53410492Y-61125000D01*
X53621309Y-61104236D01*
X53891808Y-61022182D01*
X54141101Y-60888932D01*
X54359608Y-60709608D01*
X54538932Y-60491101D01*
X54610000Y-60358142D01*
X54681068Y-60491101D01*
X54681068Y-60491101D01*
G37*
X54681068Y-60491101D02*
X54860392Y-60709608D01*
X55078899Y-60888932D01*
X55328192Y-61022182D01*
X55598691Y-61104236D01*
X55809508Y-61125000D01*
X55950492Y-61125000D01*
X56161309Y-61104236D01*
X56205906Y-61090708D01*
X56441202Y-61326004D01*
X56465000Y-61355002D01*
X56580725Y-61449975D01*
X56712754Y-61520547D01*
X56856015Y-61564004D01*
X56967668Y-61575001D01*
X56967676Y-61575001D01*
X57005001Y-61578677D01*
X57042326Y-61575001D01*
X70177677Y-61575001D01*
X70214999Y-61578677D01*
X70252321Y-61575001D01*
X70252332Y-61575001D01*
X70326502Y-61567696D01*
X66405996Y-65488203D01*
X66331111Y-65465487D01*
X66112950Y-65444000D01*
X65967050Y-65444000D01*
X65748889Y-65465487D01*
X65468966Y-65550401D01*
X65210986Y-65688294D01*
X64984866Y-65873866D01*
X64799294Y-66099986D01*
X64770000Y-66154791D01*
X64740706Y-66099986D01*
X64555134Y-65873866D01*
X64329014Y-65688294D01*
X64071034Y-65550401D01*
X63791111Y-65465487D01*
X63572950Y-65444000D01*
X63427050Y-65444000D01*
X63208889Y-65465487D01*
X62928966Y-65550401D01*
X62670986Y-65688294D01*
X62444866Y-65873866D01*
X62259294Y-66099986D01*
X62230000Y-66154791D01*
X62200706Y-66099986D01*
X62015134Y-65873866D01*
X61789014Y-65688294D01*
X61531034Y-65550401D01*
X61251111Y-65465487D01*
X61032950Y-65444000D01*
X60887050Y-65444000D01*
X60668889Y-65465487D01*
X60388966Y-65550401D01*
X60130986Y-65688294D01*
X59904866Y-65873866D01*
X59719294Y-66099986D01*
X59690000Y-66154791D01*
X59660706Y-66099986D01*
X59475134Y-65873866D01*
X59249014Y-65688294D01*
X58991034Y-65550401D01*
X58711111Y-65465487D01*
X58492950Y-65444000D01*
X58347050Y-65444000D01*
X58128889Y-65465487D01*
X57848966Y-65550401D01*
X57590986Y-65688294D01*
X57364866Y-65873866D01*
X57340393Y-65903687D01*
X57319502Y-65834820D01*
X57260537Y-65724506D01*
X57181185Y-65627815D01*
X57084494Y-65548463D01*
X56974180Y-65489498D01*
X56854482Y-65453188D01*
X56730000Y-65440928D01*
X56165750Y-65444000D01*
X56007000Y-65602750D01*
X56007000Y-66802000D01*
X56027000Y-66802000D01*
X56027000Y-67056000D01*
X56007000Y-67056000D01*
X56007000Y-67076000D01*
X55753000Y-67076000D01*
X55753000Y-67056000D01*
X54553750Y-67056000D01*
X54395000Y-67214750D01*
X54394296Y-67344001D01*
X33493803Y-67344001D01*
X32228802Y-66079000D01*
X54391928Y-66079000D01*
X54395000Y-66643250D01*
X54553750Y-66802000D01*
X55753000Y-66802000D01*
X55753000Y-65602750D01*
X55594250Y-65444000D01*
X55030000Y-65440928D01*
X54905518Y-65453188D01*
X54785820Y-65489498D01*
X54675506Y-65548463D01*
X54578815Y-65627815D01*
X54499463Y-65724506D01*
X54440498Y-65834820D01*
X54404188Y-65954518D01*
X54391928Y-66079000D01*
X32228802Y-66079000D01*
X27574999Y-61425198D01*
X27574999Y-61128072D01*
X28740000Y-61128072D01*
X28864482Y-61115812D01*
X28984180Y-61079502D01*
X29079010Y-61028814D01*
X29394199Y-61344003D01*
X29417997Y-61373001D01*
X29446995Y-61396799D01*
X29533721Y-61467974D01*
X29665751Y-61538546D01*
X29809012Y-61582003D01*
X29920665Y-61593000D01*
X29920674Y-61593000D01*
X29957997Y-61596676D01*
X29995320Y-61593000D01*
X39459678Y-61593000D01*
X39497000Y-61596676D01*
X39534322Y-61593000D01*
X39534333Y-61593000D01*
X39645986Y-61582003D01*
X39789247Y-61538546D01*
X39921276Y-61467974D01*
X40037001Y-61373001D01*
X40060804Y-61343997D01*
X40314093Y-61090708D01*
X40358691Y-61104236D01*
X40569508Y-61125000D01*
X40710492Y-61125000D01*
X40921309Y-61104236D01*
X40965906Y-61090708D01*
X41201202Y-61326004D01*
X41225000Y-61355002D01*
X41340725Y-61449975D01*
X41472754Y-61520547D01*
X41616015Y-61564004D01*
X41727668Y-61575001D01*
X41727676Y-61575001D01*
X41765001Y-61578677D01*
X41802326Y-61575001D01*
X52177677Y-61575001D01*
X52214999Y-61578677D01*
X52252321Y-61575001D01*
X52252332Y-61575001D01*
X52363985Y-61564004D01*
X52507246Y-61520547D01*
X52639275Y-61449975D01*
X52755000Y-61355002D01*
X52778803Y-61325998D01*
X53014093Y-61090708D01*
X53058691Y-61104236D01*
X53269508Y-61125000D01*
X53410492Y-61125000D01*
X53621309Y-61104236D01*
X53891808Y-61022182D01*
X54141101Y-60888932D01*
X54359608Y-60709608D01*
X54538932Y-60491101D01*
X54610000Y-60358142D01*
X54681068Y-60491101D01*
G36*
X49361928Y-60055001D02*
G01*
X44566193Y-60055001D01*
X44571909Y-60039040D01*
X44450624Y-59817000D01*
X43307000Y-59817000D01*
X43307000Y-59837000D01*
X43053000Y-59837000D01*
X43053000Y-59817000D01*
X43033000Y-59817000D01*
X43033000Y-59563000D01*
X43053000Y-59563000D01*
X43053000Y-59543000D01*
X43307000Y-59543000D01*
X43307000Y-59563000D01*
X44450624Y-59563000D01*
X44571909Y-59340960D01*
X44566193Y-59324999D01*
X49361928Y-59324999D01*
X49361928Y-60055001D01*
X49361928Y-60055001D01*
G37*
X49361928Y-60055001D02*
X44566193Y-60055001D01*
X44571909Y-60039040D01*
X44450624Y-59817000D01*
X43307000Y-59817000D01*
X43307000Y-59837000D01*
X43053000Y-59837000D01*
X43053000Y-59817000D01*
X43033000Y-59817000D01*
X43033000Y-59563000D01*
X43053000Y-59563000D01*
X43053000Y-59543000D01*
X43307000Y-59543000D01*
X43307000Y-59563000D01*
X44450624Y-59563000D01*
X44571909Y-59340960D01*
X44566193Y-59324999D01*
X49361928Y-59324999D01*
X49361928Y-60055001D01*
G36*
X69900198Y-60055001D02*
G01*
X67426193Y-60055001D01*
X67431909Y-60039040D01*
X67310624Y-59817000D01*
X66167000Y-59817000D01*
X66167000Y-59837000D01*
X65913000Y-59837000D01*
X65913000Y-59817000D01*
X65893000Y-59817000D01*
X65893000Y-59563000D01*
X65913000Y-59563000D01*
X65913000Y-59543000D01*
X66167000Y-59543000D01*
X66167000Y-59563000D01*
X67310624Y-59563000D01*
X67431909Y-59340960D01*
X67426193Y-59324999D01*
X70630199Y-59324999D01*
X69900198Y-60055001D01*
X69900198Y-60055001D01*
G37*
X69900198Y-60055001D02*
X67426193Y-60055001D01*
X67431909Y-60039040D01*
X67310624Y-59817000D01*
X66167000Y-59817000D01*
X66167000Y-59837000D01*
X65913000Y-59837000D01*
X65913000Y-59817000D01*
X65893000Y-59817000D01*
X65893000Y-59563000D01*
X65913000Y-59563000D01*
X65913000Y-59543000D01*
X66167000Y-59543000D01*
X66167000Y-59563000D01*
X67310624Y-59563000D01*
X67431909Y-59340960D01*
X67426193Y-59324999D01*
X70630199Y-59324999D01*
X69900198Y-60055001D01*
G36*
X73441903Y-46124298D02*
G01*
X74255000Y-46937395D01*
X75068097Y-46124298D01*
X75023411Y-45972000D01*
X91367629Y-45972000D01*
X91311320Y-46056273D01*
X91203147Y-46317426D01*
X91148000Y-46594665D01*
X91148000Y-46877335D01*
X91203147Y-47154574D01*
X91311320Y-47415727D01*
X91468363Y-47650759D01*
X91668241Y-47850637D01*
X91868869Y-47984692D01*
X91841486Y-47999329D01*
X91769903Y-48243298D01*
X92583000Y-49056395D01*
X93396097Y-48243298D01*
X93324514Y-47999329D01*
X93295659Y-47985676D01*
X93497759Y-47850637D01*
X93697637Y-47650759D01*
X93804519Y-47490798D01*
X93863356Y-47485003D01*
X94006617Y-47441546D01*
X94138646Y-47370974D01*
X94254371Y-47276001D01*
X94278174Y-47246997D01*
X94428170Y-47097001D01*
X94861975Y-47097001D01*
X94806818Y-47200192D01*
X94724764Y-47470691D01*
X94697057Y-47752000D01*
X94724764Y-48033309D01*
X94738292Y-48077906D01*
X93968232Y-48847966D01*
X93886603Y-48619708D01*
X93819671Y-48494486D01*
X93575702Y-48422903D01*
X92762605Y-49236000D01*
X92776748Y-49250143D01*
X92597143Y-49429748D01*
X92583000Y-49415605D01*
X91769903Y-50228702D01*
X91841486Y-50472671D01*
X92096996Y-50593571D01*
X92197448Y-50618751D01*
X87315199Y-55501000D01*
X54393535Y-55501000D01*
X54290889Y-55432414D01*
X54120729Y-55361932D01*
X53940089Y-55326000D01*
X53755911Y-55326000D01*
X53575271Y-55361932D01*
X53405111Y-55432414D01*
X53251972Y-55534738D01*
X53121738Y-55664972D01*
X53019414Y-55818111D01*
X52948932Y-55988271D01*
X52913000Y-56168911D01*
X52913000Y-56353089D01*
X52948932Y-56533729D01*
X53019414Y-56703889D01*
X53121738Y-56857028D01*
X53251972Y-56987262D01*
X53405111Y-57089586D01*
X53575271Y-57160068D01*
X53755911Y-57196000D01*
X53940089Y-57196000D01*
X54120729Y-57160068D01*
X54290889Y-57089586D01*
X54393535Y-57021000D01*
X64211710Y-57021000D01*
X64170738Y-57061972D01*
X64068414Y-57215111D01*
X63997932Y-57385271D01*
X63962000Y-57565911D01*
X63962000Y-57750089D01*
X63972922Y-57804999D01*
X62122323Y-57804999D01*
X62085000Y-57801323D01*
X62047677Y-57804999D01*
X62047668Y-57804999D01*
X61936015Y-57815996D01*
X61792754Y-57859453D01*
X61660725Y-57930025D01*
X61545000Y-58024998D01*
X61521197Y-58054002D01*
X61285907Y-58289292D01*
X61241309Y-58275764D01*
X61030492Y-58255000D01*
X60889508Y-58255000D01*
X60678691Y-58275764D01*
X60408192Y-58357818D01*
X60158899Y-58491068D01*
X59940392Y-58670392D01*
X59761068Y-58888899D01*
X59690000Y-59021858D01*
X59618932Y-58888899D01*
X59439608Y-58670392D01*
X59221101Y-58491068D01*
X58971808Y-58357818D01*
X58701309Y-58275764D01*
X58490492Y-58255000D01*
X58349508Y-58255000D01*
X58138691Y-58275764D01*
X58094093Y-58289292D01*
X57858803Y-58054002D01*
X57835000Y-58024998D01*
X57719275Y-57930025D01*
X57587246Y-57859453D01*
X57443985Y-57815996D01*
X57332332Y-57804999D01*
X57332321Y-57804999D01*
X57294999Y-57801323D01*
X57257677Y-57804999D01*
X39262326Y-57804999D01*
X39225001Y-57801323D01*
X39187676Y-57804999D01*
X39187668Y-57804999D01*
X39076015Y-57815996D01*
X38932754Y-57859453D01*
X38800725Y-57930025D01*
X38685000Y-58024998D01*
X38661202Y-58053996D01*
X38425906Y-58289292D01*
X38381309Y-58275764D01*
X38170492Y-58255000D01*
X38029508Y-58255000D01*
X37818691Y-58275764D01*
X37774093Y-58289292D01*
X37538803Y-58054002D01*
X37515000Y-58024998D01*
X37399275Y-57930025D01*
X37267246Y-57859453D01*
X37123985Y-57815996D01*
X37012332Y-57804999D01*
X37012321Y-57804999D01*
X36974999Y-57801323D01*
X36937677Y-57804999D01*
X34182326Y-57804999D01*
X34145001Y-57801323D01*
X34107676Y-57804999D01*
X34107668Y-57804999D01*
X33996015Y-57815996D01*
X33852754Y-57859453D01*
X33720725Y-57930025D01*
X33605000Y-58024998D01*
X33581202Y-58053996D01*
X33345906Y-58289292D01*
X33301309Y-58275764D01*
X33090492Y-58255000D01*
X32949508Y-58255000D01*
X32738691Y-58275764D01*
X32468192Y-58357818D01*
X32218899Y-58491068D01*
X32000392Y-58670392D01*
X31821068Y-58888899D01*
X31750000Y-59021858D01*
X31678932Y-58888899D01*
X31499608Y-58670392D01*
X31281101Y-58491068D01*
X31031808Y-58357818D01*
X30761309Y-58275764D01*
X30550492Y-58255000D01*
X30409508Y-58255000D01*
X30198691Y-58275764D01*
X29928192Y-58357818D01*
X29678899Y-58491068D01*
X29460392Y-58670392D01*
X29367581Y-58783482D01*
X29365812Y-58765518D01*
X29329502Y-58645820D01*
X29270537Y-58535506D01*
X29191185Y-58438815D01*
X29094494Y-58359463D01*
X28984180Y-58300498D01*
X28864482Y-58264188D01*
X28740000Y-58251928D01*
X27574999Y-58251928D01*
X27574999Y-54384800D01*
X28633186Y-53326614D01*
X28741101Y-53268932D01*
X28959608Y-53089608D01*
X29138932Y-52871101D01*
X29196613Y-52763187D01*
X29217791Y-52742009D01*
X29327615Y-52925131D01*
X29516586Y-53133519D01*
X29742580Y-53301037D01*
X29996913Y-53421246D01*
X30130961Y-53461904D01*
X30353000Y-53339915D01*
X30353000Y-52197000D01*
X30607000Y-52197000D01*
X30607000Y-53339915D01*
X30829039Y-53461904D01*
X30963087Y-53421246D01*
X31217420Y-53301037D01*
X31443414Y-53133519D01*
X31632385Y-52925131D01*
X31750000Y-52729018D01*
X31867615Y-52925131D01*
X32056586Y-53133519D01*
X32282580Y-53301037D01*
X32536913Y-53421246D01*
X32670961Y-53461904D01*
X32893000Y-53339915D01*
X32893000Y-52197000D01*
X30607000Y-52197000D01*
X30353000Y-52197000D01*
X30333000Y-52197000D01*
X30333000Y-51943000D01*
X30353000Y-51943000D01*
X30353000Y-51923000D01*
X30607000Y-51923000D01*
X30607000Y-51943000D01*
X32893000Y-51943000D01*
X32893000Y-51923000D01*
X33147000Y-51923000D01*
X33147000Y-51943000D01*
X33167000Y-51943000D01*
X33167000Y-52197000D01*
X33147000Y-52197000D01*
X33147000Y-53339915D01*
X33369039Y-53461904D01*
X33503087Y-53421246D01*
X33757420Y-53301037D01*
X33983414Y-53133519D01*
X34172385Y-52925131D01*
X34287421Y-52733318D01*
X34361068Y-52871101D01*
X34540392Y-53089608D01*
X34758899Y-53268932D01*
X35008192Y-53402182D01*
X35278691Y-53484236D01*
X35489508Y-53505000D01*
X35630492Y-53505000D01*
X35841309Y-53484236D01*
X36111808Y-53402182D01*
X36361101Y-53268932D01*
X36579608Y-53089608D01*
X36758932Y-52871101D01*
X36832579Y-52733318D01*
X36947615Y-52925131D01*
X37136586Y-53133519D01*
X37362580Y-53301037D01*
X37616913Y-53421246D01*
X37750961Y-53461904D01*
X37973000Y-53339915D01*
X37973000Y-52197000D01*
X38227000Y-52197000D01*
X38227000Y-53339915D01*
X38449039Y-53461904D01*
X38583087Y-53421246D01*
X38837420Y-53301037D01*
X39063414Y-53133519D01*
X39252385Y-52925131D01*
X39370000Y-52729018D01*
X39487615Y-52925131D01*
X39676586Y-53133519D01*
X39902580Y-53301037D01*
X40156913Y-53421246D01*
X40290961Y-53461904D01*
X40513000Y-53339915D01*
X40513000Y-52197000D01*
X38227000Y-52197000D01*
X37973000Y-52197000D01*
X37953000Y-52197000D01*
X37953000Y-51943000D01*
X37973000Y-51943000D01*
X37973000Y-51923000D01*
X38227000Y-51923000D01*
X38227000Y-51943000D01*
X40513000Y-51943000D01*
X40513000Y-51923000D01*
X40767000Y-51923000D01*
X40767000Y-51943000D01*
X40787000Y-51943000D01*
X40787000Y-52197000D01*
X40767000Y-52197000D01*
X40767000Y-53339915D01*
X40989039Y-53461904D01*
X41123087Y-53421246D01*
X41377420Y-53301037D01*
X41603414Y-53133519D01*
X41792385Y-52925131D01*
X41907421Y-52733318D01*
X41981068Y-52871101D01*
X42160392Y-53089608D01*
X42378899Y-53268932D01*
X42628192Y-53402182D01*
X42898691Y-53484236D01*
X43109508Y-53505000D01*
X43250492Y-53505000D01*
X43461309Y-53484236D01*
X43731808Y-53402182D01*
X43981101Y-53268932D01*
X44199608Y-53089608D01*
X44378932Y-52871101D01*
X44512182Y-52621808D01*
X44594236Y-52351309D01*
X44621943Y-52070000D01*
X44594236Y-51788691D01*
X44568849Y-51704999D01*
X49360198Y-51704999D01*
X49399292Y-51744093D01*
X49385764Y-51788691D01*
X49358057Y-52070000D01*
X49385764Y-52351309D01*
X49467818Y-52621808D01*
X49601068Y-52871101D01*
X49780392Y-53089608D01*
X49998899Y-53268932D01*
X50248192Y-53402182D01*
X50518691Y-53484236D01*
X50729508Y-53505000D01*
X50870492Y-53505000D01*
X51081309Y-53484236D01*
X51351808Y-53402182D01*
X51601101Y-53268932D01*
X51819608Y-53089608D01*
X51998932Y-52871101D01*
X52072579Y-52733318D01*
X52187615Y-52925131D01*
X52376586Y-53133519D01*
X52602580Y-53301037D01*
X52856913Y-53421246D01*
X52990961Y-53461904D01*
X53213000Y-53339915D01*
X53213000Y-52197000D01*
X53467000Y-52197000D01*
X53467000Y-53339915D01*
X53689039Y-53461904D01*
X53823087Y-53421246D01*
X54077420Y-53301037D01*
X54303414Y-53133519D01*
X54492385Y-52925131D01*
X54610000Y-52729018D01*
X54727615Y-52925131D01*
X54916586Y-53133519D01*
X55142580Y-53301037D01*
X55396913Y-53421246D01*
X55530961Y-53461904D01*
X55753000Y-53339915D01*
X55753000Y-52197000D01*
X53467000Y-52197000D01*
X53213000Y-52197000D01*
X53193000Y-52197000D01*
X53193000Y-51943000D01*
X53213000Y-51943000D01*
X53213000Y-51923000D01*
X53467000Y-51923000D01*
X53467000Y-51943000D01*
X55753000Y-51943000D01*
X55753000Y-51923000D01*
X56007000Y-51923000D01*
X56007000Y-51943000D01*
X56027000Y-51943000D01*
X56027000Y-52197000D01*
X56007000Y-52197000D01*
X56007000Y-53339915D01*
X56229039Y-53461904D01*
X56363087Y-53421246D01*
X56617420Y-53301037D01*
X56843414Y-53133519D01*
X57032385Y-52925131D01*
X57147421Y-52733318D01*
X57221068Y-52871101D01*
X57400392Y-53089608D01*
X57618899Y-53268932D01*
X57868192Y-53402182D01*
X58138691Y-53484236D01*
X58349508Y-53505000D01*
X58490492Y-53505000D01*
X58701309Y-53484236D01*
X58971808Y-53402182D01*
X59221101Y-53268932D01*
X59439608Y-53089608D01*
X59618932Y-52871101D01*
X59692579Y-52733318D01*
X59807615Y-52925131D01*
X59996586Y-53133519D01*
X60222580Y-53301037D01*
X60476913Y-53421246D01*
X60610961Y-53461904D01*
X60833000Y-53339915D01*
X60833000Y-52197000D01*
X61087000Y-52197000D01*
X61087000Y-53339915D01*
X61309039Y-53461904D01*
X61443087Y-53421246D01*
X61697420Y-53301037D01*
X61923414Y-53133519D01*
X62112385Y-52925131D01*
X62230000Y-52729018D01*
X62347615Y-52925131D01*
X62536586Y-53133519D01*
X62762580Y-53301037D01*
X63016913Y-53421246D01*
X63150961Y-53461904D01*
X63373000Y-53339915D01*
X63373000Y-52197000D01*
X61087000Y-52197000D01*
X60833000Y-52197000D01*
X60813000Y-52197000D01*
X60813000Y-51943000D01*
X60833000Y-51943000D01*
X60833000Y-51923000D01*
X61087000Y-51923000D01*
X61087000Y-51943000D01*
X63373000Y-51943000D01*
X63373000Y-51923000D01*
X63627000Y-51923000D01*
X63627000Y-51943000D01*
X63647000Y-51943000D01*
X63647000Y-52197000D01*
X63627000Y-52197000D01*
X63627000Y-53339915D01*
X63849039Y-53461904D01*
X63983087Y-53421246D01*
X64237420Y-53301037D01*
X64463414Y-53133519D01*
X64652385Y-52925131D01*
X64767421Y-52733318D01*
X64841068Y-52871101D01*
X65020392Y-53089608D01*
X65238899Y-53268932D01*
X65488192Y-53402182D01*
X65758691Y-53484236D01*
X65969508Y-53505000D01*
X66110492Y-53505000D01*
X66321309Y-53484236D01*
X66591808Y-53402182D01*
X66841101Y-53268932D01*
X67059608Y-53089608D01*
X67238932Y-52871101D01*
X67372182Y-52621808D01*
X67454236Y-52351309D01*
X67481943Y-52070000D01*
X70948057Y-52070000D01*
X70975764Y-52351309D01*
X71057818Y-52621808D01*
X71191068Y-52871101D01*
X71370392Y-53089608D01*
X71588899Y-53268932D01*
X71838192Y-53402182D01*
X72108691Y-53484236D01*
X72319508Y-53505000D01*
X72460492Y-53505000D01*
X72671309Y-53484236D01*
X72941808Y-53402182D01*
X73191101Y-53268932D01*
X73409608Y-53089608D01*
X73588932Y-52871101D01*
X73662579Y-52733318D01*
X73777615Y-52925131D01*
X73966586Y-53133519D01*
X74192580Y-53301037D01*
X74446913Y-53421246D01*
X74580961Y-53461904D01*
X74803000Y-53339915D01*
X74803000Y-52197000D01*
X75057000Y-52197000D01*
X75057000Y-53339915D01*
X75279039Y-53461904D01*
X75413087Y-53421246D01*
X75667420Y-53301037D01*
X75893414Y-53133519D01*
X76082385Y-52925131D01*
X76200000Y-52729018D01*
X76317615Y-52925131D01*
X76506586Y-53133519D01*
X76732580Y-53301037D01*
X76986913Y-53421246D01*
X77120961Y-53461904D01*
X77343000Y-53339915D01*
X77343000Y-52197000D01*
X75057000Y-52197000D01*
X74803000Y-52197000D01*
X74783000Y-52197000D01*
X74783000Y-51943000D01*
X74803000Y-51943000D01*
X74803000Y-50800085D01*
X75057000Y-50800085D01*
X75057000Y-51943000D01*
X77343000Y-51943000D01*
X77343000Y-50800085D01*
X77597000Y-50800085D01*
X77597000Y-51943000D01*
X77617000Y-51943000D01*
X77617000Y-52197000D01*
X77597000Y-52197000D01*
X77597000Y-53339915D01*
X77819039Y-53461904D01*
X77953087Y-53421246D01*
X78207420Y-53301037D01*
X78433414Y-53133519D01*
X78622385Y-52925131D01*
X78737421Y-52733318D01*
X78811068Y-52871101D01*
X78990392Y-53089608D01*
X79208899Y-53268932D01*
X79458192Y-53402182D01*
X79728691Y-53484236D01*
X79939508Y-53505000D01*
X80080492Y-53505000D01*
X80291309Y-53484236D01*
X80561808Y-53402182D01*
X80811101Y-53268932D01*
X81029608Y-53089608D01*
X81208932Y-52871101D01*
X81282579Y-52733318D01*
X81397615Y-52925131D01*
X81586586Y-53133519D01*
X81812580Y-53301037D01*
X82066913Y-53421246D01*
X82200961Y-53461904D01*
X82423000Y-53339915D01*
X82423000Y-52197000D01*
X82677000Y-52197000D01*
X82677000Y-53339915D01*
X82899039Y-53461904D01*
X83033087Y-53421246D01*
X83287420Y-53301037D01*
X83513414Y-53133519D01*
X83702385Y-52925131D01*
X83820000Y-52729018D01*
X83937615Y-52925131D01*
X84126586Y-53133519D01*
X84352580Y-53301037D01*
X84606913Y-53421246D01*
X84740961Y-53461904D01*
X84963000Y-53339915D01*
X84963000Y-52197000D01*
X82677000Y-52197000D01*
X82423000Y-52197000D01*
X82403000Y-52197000D01*
X82403000Y-51943000D01*
X82423000Y-51943000D01*
X82423000Y-50800085D01*
X82677000Y-50800085D01*
X82677000Y-51943000D01*
X84963000Y-51943000D01*
X84963000Y-50800085D01*
X85217000Y-50800085D01*
X85217000Y-51943000D01*
X85237000Y-51943000D01*
X85237000Y-52197000D01*
X85217000Y-52197000D01*
X85217000Y-53339915D01*
X85439039Y-53461904D01*
X85573087Y-53421246D01*
X85827420Y-53301037D01*
X86053414Y-53133519D01*
X86242385Y-52925131D01*
X86357421Y-52733318D01*
X86431068Y-52871101D01*
X86610392Y-53089608D01*
X86828899Y-53268932D01*
X87078192Y-53402182D01*
X87348691Y-53484236D01*
X87559508Y-53505000D01*
X87700492Y-53505000D01*
X87911309Y-53484236D01*
X88181808Y-53402182D01*
X88431101Y-53268932D01*
X88649608Y-53089608D01*
X88828932Y-52871101D01*
X88962182Y-52621808D01*
X89044236Y-52351309D01*
X89071943Y-52070000D01*
X89044236Y-51788691D01*
X88962182Y-51518192D01*
X88828932Y-51268899D01*
X88649608Y-51050392D01*
X88431101Y-50871068D01*
X88181808Y-50737818D01*
X87911309Y-50655764D01*
X87700492Y-50635000D01*
X87559508Y-50635000D01*
X87348691Y-50655764D01*
X87078192Y-50737818D01*
X86828899Y-50871068D01*
X86610392Y-51050392D01*
X86431068Y-51268899D01*
X86357421Y-51406682D01*
X86242385Y-51214869D01*
X86053414Y-51006481D01*
X85827420Y-50838963D01*
X85573087Y-50718754D01*
X85439039Y-50678096D01*
X85217000Y-50800085D01*
X84963000Y-50800085D01*
X84740961Y-50678096D01*
X84606913Y-50718754D01*
X84352580Y-50838963D01*
X84126586Y-51006481D01*
X83937615Y-51214869D01*
X83820000Y-51410982D01*
X83702385Y-51214869D01*
X83513414Y-51006481D01*
X83287420Y-50838963D01*
X83033087Y-50718754D01*
X82899039Y-50678096D01*
X82677000Y-50800085D01*
X82423000Y-50800085D01*
X82200961Y-50678096D01*
X82066913Y-50718754D01*
X81812580Y-50838963D01*
X81586586Y-51006481D01*
X81397615Y-51214869D01*
X81282579Y-51406682D01*
X81208932Y-51268899D01*
X81029608Y-51050392D01*
X80811101Y-50871068D01*
X80561808Y-50737818D01*
X80291309Y-50655764D01*
X80080492Y-50635000D01*
X79939508Y-50635000D01*
X79728691Y-50655764D01*
X79458192Y-50737818D01*
X79208899Y-50871068D01*
X78990392Y-51050392D01*
X78811068Y-51268899D01*
X78737421Y-51406682D01*
X78622385Y-51214869D01*
X78433414Y-51006481D01*
X78207420Y-50838963D01*
X77953087Y-50718754D01*
X77819039Y-50678096D01*
X77597000Y-50800085D01*
X77343000Y-50800085D01*
X77120961Y-50678096D01*
X76986913Y-50718754D01*
X76732580Y-50838963D01*
X76506586Y-51006481D01*
X76317615Y-51214869D01*
X76200000Y-51410982D01*
X76082385Y-51214869D01*
X75893414Y-51006481D01*
X75667420Y-50838963D01*
X75413087Y-50718754D01*
X75279039Y-50678096D01*
X75057000Y-50800085D01*
X74803000Y-50800085D01*
X74580961Y-50678096D01*
X74446913Y-50718754D01*
X74192580Y-50838963D01*
X73966586Y-51006481D01*
X73777615Y-51214869D01*
X73662579Y-51406682D01*
X73588932Y-51268899D01*
X73409608Y-51050392D01*
X73191101Y-50871068D01*
X72941808Y-50737818D01*
X72671309Y-50655764D01*
X72460492Y-50635000D01*
X72319508Y-50635000D01*
X72108691Y-50655764D01*
X71838192Y-50737818D01*
X71588899Y-50871068D01*
X71370392Y-51050392D01*
X71191068Y-51268899D01*
X71057818Y-51518192D01*
X70975764Y-51788691D01*
X70948057Y-52070000D01*
X67481943Y-52070000D01*
X67454236Y-51788691D01*
X67372182Y-51518192D01*
X67238932Y-51268899D01*
X67059608Y-51050392D01*
X66841101Y-50871068D01*
X66591808Y-50737818D01*
X66321309Y-50655764D01*
X66110492Y-50635000D01*
X65969508Y-50635000D01*
X65758691Y-50655764D01*
X65702463Y-50672820D01*
X65818001Y-50578001D01*
X65841804Y-50548997D01*
X67084289Y-49306512D01*
X91142783Y-49306512D01*
X91184213Y-49586130D01*
X91279397Y-49852292D01*
X91346329Y-49977514D01*
X91590298Y-50049097D01*
X92403395Y-49236000D01*
X91590298Y-48422903D01*
X91346329Y-48494486D01*
X91225429Y-48749996D01*
X91156700Y-49024184D01*
X91142783Y-49306512D01*
X67084289Y-49306512D01*
X67621114Y-48769688D01*
X67803665Y-48806000D01*
X68086335Y-48806000D01*
X68363574Y-48750853D01*
X68624727Y-48642680D01*
X68859759Y-48485637D01*
X69059637Y-48285759D01*
X69163043Y-48131000D01*
X70739604Y-48131000D01*
X70840241Y-48231637D01*
X71075273Y-48388680D01*
X71336426Y-48496853D01*
X71613665Y-48552000D01*
X71896335Y-48552000D01*
X72173574Y-48496853D01*
X72434727Y-48388680D01*
X72669759Y-48231637D01*
X72791694Y-48109702D01*
X73441903Y-48109702D01*
X73513486Y-48353671D01*
X73768996Y-48474571D01*
X74043184Y-48543300D01*
X74325512Y-48557217D01*
X74605130Y-48515787D01*
X74871292Y-48420603D01*
X74996514Y-48353671D01*
X75068097Y-48109702D01*
X74255000Y-47296605D01*
X73441903Y-48109702D01*
X72791694Y-48109702D01*
X72869637Y-48031759D01*
X73003692Y-47831131D01*
X73018329Y-47858514D01*
X73262298Y-47930097D01*
X74075395Y-47117000D01*
X74434605Y-47117000D01*
X75247702Y-47930097D01*
X75491671Y-47858514D01*
X75612571Y-47603004D01*
X75681300Y-47328816D01*
X75695217Y-47046488D01*
X75653787Y-46766870D01*
X75558603Y-46500708D01*
X75491671Y-46375486D01*
X75247702Y-46303903D01*
X74434605Y-47117000D01*
X74075395Y-47117000D01*
X73262298Y-46303903D01*
X73018329Y-46375486D01*
X73004676Y-46404341D01*
X72869637Y-46202241D01*
X72669759Y-46002363D01*
X72624317Y-45972000D01*
X73486589Y-45972000D01*
X73441903Y-46124298D01*
X73441903Y-46124298D01*
G37*
X73441903Y-46124298D02*
X74255000Y-46937395D01*
X75068097Y-46124298D01*
X75023411Y-45972000D01*
X91367629Y-45972000D01*
X91311320Y-46056273D01*
X91203147Y-46317426D01*
X91148000Y-46594665D01*
X91148000Y-46877335D01*
X91203147Y-47154574D01*
X91311320Y-47415727D01*
X91468363Y-47650759D01*
X91668241Y-47850637D01*
X91868869Y-47984692D01*
X91841486Y-47999329D01*
X91769903Y-48243298D01*
X92583000Y-49056395D01*
X93396097Y-48243298D01*
X93324514Y-47999329D01*
X93295659Y-47985676D01*
X93497759Y-47850637D01*
X93697637Y-47650759D01*
X93804519Y-47490798D01*
X93863356Y-47485003D01*
X94006617Y-47441546D01*
X94138646Y-47370974D01*
X94254371Y-47276001D01*
X94278174Y-47246997D01*
X94428170Y-47097001D01*
X94861975Y-47097001D01*
X94806818Y-47200192D01*
X94724764Y-47470691D01*
X94697057Y-47752000D01*
X94724764Y-48033309D01*
X94738292Y-48077906D01*
X93968232Y-48847966D01*
X93886603Y-48619708D01*
X93819671Y-48494486D01*
X93575702Y-48422903D01*
X92762605Y-49236000D01*
X92776748Y-49250143D01*
X92597143Y-49429748D01*
X92583000Y-49415605D01*
X91769903Y-50228702D01*
X91841486Y-50472671D01*
X92096996Y-50593571D01*
X92197448Y-50618751D01*
X87315199Y-55501000D01*
X54393535Y-55501000D01*
X54290889Y-55432414D01*
X54120729Y-55361932D01*
X53940089Y-55326000D01*
X53755911Y-55326000D01*
X53575271Y-55361932D01*
X53405111Y-55432414D01*
X53251972Y-55534738D01*
X53121738Y-55664972D01*
X53019414Y-55818111D01*
X52948932Y-55988271D01*
X52913000Y-56168911D01*
X52913000Y-56353089D01*
X52948932Y-56533729D01*
X53019414Y-56703889D01*
X53121738Y-56857028D01*
X53251972Y-56987262D01*
X53405111Y-57089586D01*
X53575271Y-57160068D01*
X53755911Y-57196000D01*
X53940089Y-57196000D01*
X54120729Y-57160068D01*
X54290889Y-57089586D01*
X54393535Y-57021000D01*
X64211710Y-57021000D01*
X64170738Y-57061972D01*
X64068414Y-57215111D01*
X63997932Y-57385271D01*
X63962000Y-57565911D01*
X63962000Y-57750089D01*
X63972922Y-57804999D01*
X62122323Y-57804999D01*
X62085000Y-57801323D01*
X62047677Y-57804999D01*
X62047668Y-57804999D01*
X61936015Y-57815996D01*
X61792754Y-57859453D01*
X61660725Y-57930025D01*
X61545000Y-58024998D01*
X61521197Y-58054002D01*
X61285907Y-58289292D01*
X61241309Y-58275764D01*
X61030492Y-58255000D01*
X60889508Y-58255000D01*
X60678691Y-58275764D01*
X60408192Y-58357818D01*
X60158899Y-58491068D01*
X59940392Y-58670392D01*
X59761068Y-58888899D01*
X59690000Y-59021858D01*
X59618932Y-58888899D01*
X59439608Y-58670392D01*
X59221101Y-58491068D01*
X58971808Y-58357818D01*
X58701309Y-58275764D01*
X58490492Y-58255000D01*
X58349508Y-58255000D01*
X58138691Y-58275764D01*
X58094093Y-58289292D01*
X57858803Y-58054002D01*
X57835000Y-58024998D01*
X57719275Y-57930025D01*
X57587246Y-57859453D01*
X57443985Y-57815996D01*
X57332332Y-57804999D01*
X57332321Y-57804999D01*
X57294999Y-57801323D01*
X57257677Y-57804999D01*
X39262326Y-57804999D01*
X39225001Y-57801323D01*
X39187676Y-57804999D01*
X39187668Y-57804999D01*
X39076015Y-57815996D01*
X38932754Y-57859453D01*
X38800725Y-57930025D01*
X38685000Y-58024998D01*
X38661202Y-58053996D01*
X38425906Y-58289292D01*
X38381309Y-58275764D01*
X38170492Y-58255000D01*
X38029508Y-58255000D01*
X37818691Y-58275764D01*
X37774093Y-58289292D01*
X37538803Y-58054002D01*
X37515000Y-58024998D01*
X37399275Y-57930025D01*
X37267246Y-57859453D01*
X37123985Y-57815996D01*
X37012332Y-57804999D01*
X37012321Y-57804999D01*
X36974999Y-57801323D01*
X36937677Y-57804999D01*
X34182326Y-57804999D01*
X34145001Y-57801323D01*
X34107676Y-57804999D01*
X34107668Y-57804999D01*
X33996015Y-57815996D01*
X33852754Y-57859453D01*
X33720725Y-57930025D01*
X33605000Y-58024998D01*
X33581202Y-58053996D01*
X33345906Y-58289292D01*
X33301309Y-58275764D01*
X33090492Y-58255000D01*
X32949508Y-58255000D01*
X32738691Y-58275764D01*
X32468192Y-58357818D01*
X32218899Y-58491068D01*
X32000392Y-58670392D01*
X31821068Y-58888899D01*
X31750000Y-59021858D01*
X31678932Y-58888899D01*
X31499608Y-58670392D01*
X31281101Y-58491068D01*
X31031808Y-58357818D01*
X30761309Y-58275764D01*
X30550492Y-58255000D01*
X30409508Y-58255000D01*
X30198691Y-58275764D01*
X29928192Y-58357818D01*
X29678899Y-58491068D01*
X29460392Y-58670392D01*
X29367581Y-58783482D01*
X29365812Y-58765518D01*
X29329502Y-58645820D01*
X29270537Y-58535506D01*
X29191185Y-58438815D01*
X29094494Y-58359463D01*
X28984180Y-58300498D01*
X28864482Y-58264188D01*
X28740000Y-58251928D01*
X27574999Y-58251928D01*
X27574999Y-54384800D01*
X28633186Y-53326614D01*
X28741101Y-53268932D01*
X28959608Y-53089608D01*
X29138932Y-52871101D01*
X29196613Y-52763187D01*
X29217791Y-52742009D01*
X29327615Y-52925131D01*
X29516586Y-53133519D01*
X29742580Y-53301037D01*
X29996913Y-53421246D01*
X30130961Y-53461904D01*
X30353000Y-53339915D01*
X30353000Y-52197000D01*
X30607000Y-52197000D01*
X30607000Y-53339915D01*
X30829039Y-53461904D01*
X30963087Y-53421246D01*
X31217420Y-53301037D01*
X31443414Y-53133519D01*
X31632385Y-52925131D01*
X31750000Y-52729018D01*
X31867615Y-52925131D01*
X32056586Y-53133519D01*
X32282580Y-53301037D01*
X32536913Y-53421246D01*
X32670961Y-53461904D01*
X32893000Y-53339915D01*
X32893000Y-52197000D01*
X30607000Y-52197000D01*
X30353000Y-52197000D01*
X30333000Y-52197000D01*
X30333000Y-51943000D01*
X30353000Y-51943000D01*
X30353000Y-51923000D01*
X30607000Y-51923000D01*
X30607000Y-51943000D01*
X32893000Y-51943000D01*
X32893000Y-51923000D01*
X33147000Y-51923000D01*
X33147000Y-51943000D01*
X33167000Y-51943000D01*
X33167000Y-52197000D01*
X33147000Y-52197000D01*
X33147000Y-53339915D01*
X33369039Y-53461904D01*
X33503087Y-53421246D01*
X33757420Y-53301037D01*
X33983414Y-53133519D01*
X34172385Y-52925131D01*
X34287421Y-52733318D01*
X34361068Y-52871101D01*
X34540392Y-53089608D01*
X34758899Y-53268932D01*
X35008192Y-53402182D01*
X35278691Y-53484236D01*
X35489508Y-53505000D01*
X35630492Y-53505000D01*
X35841309Y-53484236D01*
X36111808Y-53402182D01*
X36361101Y-53268932D01*
X36579608Y-53089608D01*
X36758932Y-52871101D01*
X36832579Y-52733318D01*
X36947615Y-52925131D01*
X37136586Y-53133519D01*
X37362580Y-53301037D01*
X37616913Y-53421246D01*
X37750961Y-53461904D01*
X37973000Y-53339915D01*
X37973000Y-52197000D01*
X38227000Y-52197000D01*
X38227000Y-53339915D01*
X38449039Y-53461904D01*
X38583087Y-53421246D01*
X38837420Y-53301037D01*
X39063414Y-53133519D01*
X39252385Y-52925131D01*
X39370000Y-52729018D01*
X39487615Y-52925131D01*
X39676586Y-53133519D01*
X39902580Y-53301037D01*
X40156913Y-53421246D01*
X40290961Y-53461904D01*
X40513000Y-53339915D01*
X40513000Y-52197000D01*
X38227000Y-52197000D01*
X37973000Y-52197000D01*
X37953000Y-52197000D01*
X37953000Y-51943000D01*
X37973000Y-51943000D01*
X37973000Y-51923000D01*
X38227000Y-51923000D01*
X38227000Y-51943000D01*
X40513000Y-51943000D01*
X40513000Y-51923000D01*
X40767000Y-51923000D01*
X40767000Y-51943000D01*
X40787000Y-51943000D01*
X40787000Y-52197000D01*
X40767000Y-52197000D01*
X40767000Y-53339915D01*
X40989039Y-53461904D01*
X41123087Y-53421246D01*
X41377420Y-53301037D01*
X41603414Y-53133519D01*
X41792385Y-52925131D01*
X41907421Y-52733318D01*
X41981068Y-52871101D01*
X42160392Y-53089608D01*
X42378899Y-53268932D01*
X42628192Y-53402182D01*
X42898691Y-53484236D01*
X43109508Y-53505000D01*
X43250492Y-53505000D01*
X43461309Y-53484236D01*
X43731808Y-53402182D01*
X43981101Y-53268932D01*
X44199608Y-53089608D01*
X44378932Y-52871101D01*
X44512182Y-52621808D01*
X44594236Y-52351309D01*
X44621943Y-52070000D01*
X44594236Y-51788691D01*
X44568849Y-51704999D01*
X49360198Y-51704999D01*
X49399292Y-51744093D01*
X49385764Y-51788691D01*
X49358057Y-52070000D01*
X49385764Y-52351309D01*
X49467818Y-52621808D01*
X49601068Y-52871101D01*
X49780392Y-53089608D01*
X49998899Y-53268932D01*
X50248192Y-53402182D01*
X50518691Y-53484236D01*
X50729508Y-53505000D01*
X50870492Y-53505000D01*
X51081309Y-53484236D01*
X51351808Y-53402182D01*
X51601101Y-53268932D01*
X51819608Y-53089608D01*
X51998932Y-52871101D01*
X52072579Y-52733318D01*
X52187615Y-52925131D01*
X52376586Y-53133519D01*
X52602580Y-53301037D01*
X52856913Y-53421246D01*
X52990961Y-53461904D01*
X53213000Y-53339915D01*
X53213000Y-52197000D01*
X53467000Y-52197000D01*
X53467000Y-53339915D01*
X53689039Y-53461904D01*
X53823087Y-53421246D01*
X54077420Y-53301037D01*
X54303414Y-53133519D01*
X54492385Y-52925131D01*
X54610000Y-52729018D01*
X54727615Y-52925131D01*
X54916586Y-53133519D01*
X55142580Y-53301037D01*
X55396913Y-53421246D01*
X55530961Y-53461904D01*
X55753000Y-53339915D01*
X55753000Y-52197000D01*
X53467000Y-52197000D01*
X53213000Y-52197000D01*
X53193000Y-52197000D01*
X53193000Y-51943000D01*
X53213000Y-51943000D01*
X53213000Y-51923000D01*
X53467000Y-51923000D01*
X53467000Y-51943000D01*
X55753000Y-51943000D01*
X55753000Y-51923000D01*
X56007000Y-51923000D01*
X56007000Y-51943000D01*
X56027000Y-51943000D01*
X56027000Y-52197000D01*
X56007000Y-52197000D01*
X56007000Y-53339915D01*
X56229039Y-53461904D01*
X56363087Y-53421246D01*
X56617420Y-53301037D01*
X56843414Y-53133519D01*
X57032385Y-52925131D01*
X57147421Y-52733318D01*
X57221068Y-52871101D01*
X57400392Y-53089608D01*
X57618899Y-53268932D01*
X57868192Y-53402182D01*
X58138691Y-53484236D01*
X58349508Y-53505000D01*
X58490492Y-53505000D01*
X58701309Y-53484236D01*
X58971808Y-53402182D01*
X59221101Y-53268932D01*
X59439608Y-53089608D01*
X59618932Y-52871101D01*
X59692579Y-52733318D01*
X59807615Y-52925131D01*
X59996586Y-53133519D01*
X60222580Y-53301037D01*
X60476913Y-53421246D01*
X60610961Y-53461904D01*
X60833000Y-53339915D01*
X60833000Y-52197000D01*
X61087000Y-52197000D01*
X61087000Y-53339915D01*
X61309039Y-53461904D01*
X61443087Y-53421246D01*
X61697420Y-53301037D01*
X61923414Y-53133519D01*
X62112385Y-52925131D01*
X62230000Y-52729018D01*
X62347615Y-52925131D01*
X62536586Y-53133519D01*
X62762580Y-53301037D01*
X63016913Y-53421246D01*
X63150961Y-53461904D01*
X63373000Y-53339915D01*
X63373000Y-52197000D01*
X61087000Y-52197000D01*
X60833000Y-52197000D01*
X60813000Y-52197000D01*
X60813000Y-51943000D01*
X60833000Y-51943000D01*
X60833000Y-51923000D01*
X61087000Y-51923000D01*
X61087000Y-51943000D01*
X63373000Y-51943000D01*
X63373000Y-51923000D01*
X63627000Y-51923000D01*
X63627000Y-51943000D01*
X63647000Y-51943000D01*
X63647000Y-52197000D01*
X63627000Y-52197000D01*
X63627000Y-53339915D01*
X63849039Y-53461904D01*
X63983087Y-53421246D01*
X64237420Y-53301037D01*
X64463414Y-53133519D01*
X64652385Y-52925131D01*
X64767421Y-52733318D01*
X64841068Y-52871101D01*
X65020392Y-53089608D01*
X65238899Y-53268932D01*
X65488192Y-53402182D01*
X65758691Y-53484236D01*
X65969508Y-53505000D01*
X66110492Y-53505000D01*
X66321309Y-53484236D01*
X66591808Y-53402182D01*
X66841101Y-53268932D01*
X67059608Y-53089608D01*
X67238932Y-52871101D01*
X67372182Y-52621808D01*
X67454236Y-52351309D01*
X67481943Y-52070000D01*
X70948057Y-52070000D01*
X70975764Y-52351309D01*
X71057818Y-52621808D01*
X71191068Y-52871101D01*
X71370392Y-53089608D01*
X71588899Y-53268932D01*
X71838192Y-53402182D01*
X72108691Y-53484236D01*
X72319508Y-53505000D01*
X72460492Y-53505000D01*
X72671309Y-53484236D01*
X72941808Y-53402182D01*
X73191101Y-53268932D01*
X73409608Y-53089608D01*
X73588932Y-52871101D01*
X73662579Y-52733318D01*
X73777615Y-52925131D01*
X73966586Y-53133519D01*
X74192580Y-53301037D01*
X74446913Y-53421246D01*
X74580961Y-53461904D01*
X74803000Y-53339915D01*
X74803000Y-52197000D01*
X75057000Y-52197000D01*
X75057000Y-53339915D01*
X75279039Y-53461904D01*
X75413087Y-53421246D01*
X75667420Y-53301037D01*
X75893414Y-53133519D01*
X76082385Y-52925131D01*
X76200000Y-52729018D01*
X76317615Y-52925131D01*
X76506586Y-53133519D01*
X76732580Y-53301037D01*
X76986913Y-53421246D01*
X77120961Y-53461904D01*
X77343000Y-53339915D01*
X77343000Y-52197000D01*
X75057000Y-52197000D01*
X74803000Y-52197000D01*
X74783000Y-52197000D01*
X74783000Y-51943000D01*
X74803000Y-51943000D01*
X74803000Y-50800085D01*
X75057000Y-50800085D01*
X75057000Y-51943000D01*
X77343000Y-51943000D01*
X77343000Y-50800085D01*
X77597000Y-50800085D01*
X77597000Y-51943000D01*
X77617000Y-51943000D01*
X77617000Y-52197000D01*
X77597000Y-52197000D01*
X77597000Y-53339915D01*
X77819039Y-53461904D01*
X77953087Y-53421246D01*
X78207420Y-53301037D01*
X78433414Y-53133519D01*
X78622385Y-52925131D01*
X78737421Y-52733318D01*
X78811068Y-52871101D01*
X78990392Y-53089608D01*
X79208899Y-53268932D01*
X79458192Y-53402182D01*
X79728691Y-53484236D01*
X79939508Y-53505000D01*
X80080492Y-53505000D01*
X80291309Y-53484236D01*
X80561808Y-53402182D01*
X80811101Y-53268932D01*
X81029608Y-53089608D01*
X81208932Y-52871101D01*
X81282579Y-52733318D01*
X81397615Y-52925131D01*
X81586586Y-53133519D01*
X81812580Y-53301037D01*
X82066913Y-53421246D01*
X82200961Y-53461904D01*
X82423000Y-53339915D01*
X82423000Y-52197000D01*
X82677000Y-52197000D01*
X82677000Y-53339915D01*
X82899039Y-53461904D01*
X83033087Y-53421246D01*
X83287420Y-53301037D01*
X83513414Y-53133519D01*
X83702385Y-52925131D01*
X83820000Y-52729018D01*
X83937615Y-52925131D01*
X84126586Y-53133519D01*
X84352580Y-53301037D01*
X84606913Y-53421246D01*
X84740961Y-53461904D01*
X84963000Y-53339915D01*
X84963000Y-52197000D01*
X82677000Y-52197000D01*
X82423000Y-52197000D01*
X82403000Y-52197000D01*
X82403000Y-51943000D01*
X82423000Y-51943000D01*
X82423000Y-50800085D01*
X82677000Y-50800085D01*
X82677000Y-51943000D01*
X84963000Y-51943000D01*
X84963000Y-50800085D01*
X85217000Y-50800085D01*
X85217000Y-51943000D01*
X85237000Y-51943000D01*
X85237000Y-52197000D01*
X85217000Y-52197000D01*
X85217000Y-53339915D01*
X85439039Y-53461904D01*
X85573087Y-53421246D01*
X85827420Y-53301037D01*
X86053414Y-53133519D01*
X86242385Y-52925131D01*
X86357421Y-52733318D01*
X86431068Y-52871101D01*
X86610392Y-53089608D01*
X86828899Y-53268932D01*
X87078192Y-53402182D01*
X87348691Y-53484236D01*
X87559508Y-53505000D01*
X87700492Y-53505000D01*
X87911309Y-53484236D01*
X88181808Y-53402182D01*
X88431101Y-53268932D01*
X88649608Y-53089608D01*
X88828932Y-52871101D01*
X88962182Y-52621808D01*
X89044236Y-52351309D01*
X89071943Y-52070000D01*
X89044236Y-51788691D01*
X88962182Y-51518192D01*
X88828932Y-51268899D01*
X88649608Y-51050392D01*
X88431101Y-50871068D01*
X88181808Y-50737818D01*
X87911309Y-50655764D01*
X87700492Y-50635000D01*
X87559508Y-50635000D01*
X87348691Y-50655764D01*
X87078192Y-50737818D01*
X86828899Y-50871068D01*
X86610392Y-51050392D01*
X86431068Y-51268899D01*
X86357421Y-51406682D01*
X86242385Y-51214869D01*
X86053414Y-51006481D01*
X85827420Y-50838963D01*
X85573087Y-50718754D01*
X85439039Y-50678096D01*
X85217000Y-50800085D01*
X84963000Y-50800085D01*
X84740961Y-50678096D01*
X84606913Y-50718754D01*
X84352580Y-50838963D01*
X84126586Y-51006481D01*
X83937615Y-51214869D01*
X83820000Y-51410982D01*
X83702385Y-51214869D01*
X83513414Y-51006481D01*
X83287420Y-50838963D01*
X83033087Y-50718754D01*
X82899039Y-50678096D01*
X82677000Y-50800085D01*
X82423000Y-50800085D01*
X82200961Y-50678096D01*
X82066913Y-50718754D01*
X81812580Y-50838963D01*
X81586586Y-51006481D01*
X81397615Y-51214869D01*
X81282579Y-51406682D01*
X81208932Y-51268899D01*
X81029608Y-51050392D01*
X80811101Y-50871068D01*
X80561808Y-50737818D01*
X80291309Y-50655764D01*
X80080492Y-50635000D01*
X79939508Y-50635000D01*
X79728691Y-50655764D01*
X79458192Y-50737818D01*
X79208899Y-50871068D01*
X78990392Y-51050392D01*
X78811068Y-51268899D01*
X78737421Y-51406682D01*
X78622385Y-51214869D01*
X78433414Y-51006481D01*
X78207420Y-50838963D01*
X77953087Y-50718754D01*
X77819039Y-50678096D01*
X77597000Y-50800085D01*
X77343000Y-50800085D01*
X77120961Y-50678096D01*
X76986913Y-50718754D01*
X76732580Y-50838963D01*
X76506586Y-51006481D01*
X76317615Y-51214869D01*
X76200000Y-51410982D01*
X76082385Y-51214869D01*
X75893414Y-51006481D01*
X75667420Y-50838963D01*
X75413087Y-50718754D01*
X75279039Y-50678096D01*
X75057000Y-50800085D01*
X74803000Y-50800085D01*
X74580961Y-50678096D01*
X74446913Y-50718754D01*
X74192580Y-50838963D01*
X73966586Y-51006481D01*
X73777615Y-51214869D01*
X73662579Y-51406682D01*
X73588932Y-51268899D01*
X73409608Y-51050392D01*
X73191101Y-50871068D01*
X72941808Y-50737818D01*
X72671309Y-50655764D01*
X72460492Y-50635000D01*
X72319508Y-50635000D01*
X72108691Y-50655764D01*
X71838192Y-50737818D01*
X71588899Y-50871068D01*
X71370392Y-51050392D01*
X71191068Y-51268899D01*
X71057818Y-51518192D01*
X70975764Y-51788691D01*
X70948057Y-52070000D01*
X67481943Y-52070000D01*
X67454236Y-51788691D01*
X67372182Y-51518192D01*
X67238932Y-51268899D01*
X67059608Y-51050392D01*
X66841101Y-50871068D01*
X66591808Y-50737818D01*
X66321309Y-50655764D01*
X66110492Y-50635000D01*
X65969508Y-50635000D01*
X65758691Y-50655764D01*
X65702463Y-50672820D01*
X65818001Y-50578001D01*
X65841804Y-50548997D01*
X67084289Y-49306512D01*
X91142783Y-49306512D01*
X91184213Y-49586130D01*
X91279397Y-49852292D01*
X91346329Y-49977514D01*
X91590298Y-50049097D01*
X92403395Y-49236000D01*
X91590298Y-48422903D01*
X91346329Y-48494486D01*
X91225429Y-48749996D01*
X91156700Y-49024184D01*
X91142783Y-49306512D01*
X67084289Y-49306512D01*
X67621114Y-48769688D01*
X67803665Y-48806000D01*
X68086335Y-48806000D01*
X68363574Y-48750853D01*
X68624727Y-48642680D01*
X68859759Y-48485637D01*
X69059637Y-48285759D01*
X69163043Y-48131000D01*
X70739604Y-48131000D01*
X70840241Y-48231637D01*
X71075273Y-48388680D01*
X71336426Y-48496853D01*
X71613665Y-48552000D01*
X71896335Y-48552000D01*
X72173574Y-48496853D01*
X72434727Y-48388680D01*
X72669759Y-48231637D01*
X72791694Y-48109702D01*
X73441903Y-48109702D01*
X73513486Y-48353671D01*
X73768996Y-48474571D01*
X74043184Y-48543300D01*
X74325512Y-48557217D01*
X74605130Y-48515787D01*
X74871292Y-48420603D01*
X74996514Y-48353671D01*
X75068097Y-48109702D01*
X74255000Y-47296605D01*
X73441903Y-48109702D01*
X72791694Y-48109702D01*
X72869637Y-48031759D01*
X73003692Y-47831131D01*
X73018329Y-47858514D01*
X73262298Y-47930097D01*
X74075395Y-47117000D01*
X74434605Y-47117000D01*
X75247702Y-47930097D01*
X75491671Y-47858514D01*
X75612571Y-47603004D01*
X75681300Y-47328816D01*
X75695217Y-47046488D01*
X75653787Y-46766870D01*
X75558603Y-46500708D01*
X75491671Y-46375486D01*
X75247702Y-46303903D01*
X74434605Y-47117000D01*
X74075395Y-47117000D01*
X73262298Y-46303903D01*
X73018329Y-46375486D01*
X73004676Y-46404341D01*
X72869637Y-46202241D01*
X72669759Y-46002363D01*
X72624317Y-45972000D01*
X73486589Y-45972000D01*
X73441903Y-46124298D01*
G36*
X102358292Y-44886094D02*
G01*
X102344764Y-44930691D01*
X102317057Y-45212000D01*
X102344764Y-45493309D01*
X102358292Y-45537907D01*
X102319198Y-45577001D01*
X97577072Y-45577001D01*
X97577072Y-44412000D01*
X97564812Y-44287518D01*
X97528502Y-44167820D01*
X97469537Y-44057506D01*
X97390185Y-43960815D01*
X97293494Y-43881463D01*
X97183180Y-43822498D01*
X97063482Y-43786188D01*
X96939000Y-43773928D01*
X95339000Y-43773928D01*
X95214518Y-43786188D01*
X95094820Y-43822498D01*
X94984506Y-43881463D01*
X94887815Y-43960815D01*
X94808463Y-44057506D01*
X94749498Y-44167820D01*
X94713188Y-44287518D01*
X94700928Y-44412000D01*
X94700928Y-44452000D01*
X94071393Y-44452000D01*
X94117068Y-44341729D01*
X94153000Y-44161089D01*
X94153000Y-43976911D01*
X94117068Y-43796271D01*
X94046586Y-43626111D01*
X93944262Y-43472972D01*
X93814028Y-43342738D01*
X93660889Y-43240414D01*
X93490729Y-43169932D01*
X93310089Y-43134000D01*
X93125911Y-43134000D01*
X92945271Y-43169932D01*
X92775111Y-43240414D01*
X92672465Y-43309000D01*
X91250039Y-43309000D01*
X91340070Y-43158881D01*
X91434909Y-42894040D01*
X91313624Y-42672000D01*
X90170000Y-42672000D01*
X90170000Y-42692000D01*
X89916000Y-42692000D01*
X89916000Y-42672000D01*
X89896000Y-42672000D01*
X89896000Y-42418000D01*
X89916000Y-42418000D01*
X89916000Y-42398000D01*
X90170000Y-42398000D01*
X90170000Y-42418000D01*
X91313624Y-42418000D01*
X91434909Y-42195960D01*
X91429193Y-42179999D01*
X99652198Y-42179999D01*
X102358292Y-44886094D01*
X102358292Y-44886094D01*
G37*
X102358292Y-44886094D02*
X102344764Y-44930691D01*
X102317057Y-45212000D01*
X102344764Y-45493309D01*
X102358292Y-45537907D01*
X102319198Y-45577001D01*
X97577072Y-45577001D01*
X97577072Y-44412000D01*
X97564812Y-44287518D01*
X97528502Y-44167820D01*
X97469537Y-44057506D01*
X97390185Y-43960815D01*
X97293494Y-43881463D01*
X97183180Y-43822498D01*
X97063482Y-43786188D01*
X96939000Y-43773928D01*
X95339000Y-43773928D01*
X95214518Y-43786188D01*
X95094820Y-43822498D01*
X94984506Y-43881463D01*
X94887815Y-43960815D01*
X94808463Y-44057506D01*
X94749498Y-44167820D01*
X94713188Y-44287518D01*
X94700928Y-44412000D01*
X94700928Y-44452000D01*
X94071393Y-44452000D01*
X94117068Y-44341729D01*
X94153000Y-44161089D01*
X94153000Y-43976911D01*
X94117068Y-43796271D01*
X94046586Y-43626111D01*
X93944262Y-43472972D01*
X93814028Y-43342738D01*
X93660889Y-43240414D01*
X93490729Y-43169932D01*
X93310089Y-43134000D01*
X93125911Y-43134000D01*
X92945271Y-43169932D01*
X92775111Y-43240414D01*
X92672465Y-43309000D01*
X91250039Y-43309000D01*
X91340070Y-43158881D01*
X91434909Y-42894040D01*
X91313624Y-42672000D01*
X90170000Y-42672000D01*
X90170000Y-42692000D01*
X89916000Y-42692000D01*
X89916000Y-42672000D01*
X89896000Y-42672000D01*
X89896000Y-42418000D01*
X89916000Y-42418000D01*
X89916000Y-42398000D01*
X90170000Y-42398000D01*
X90170000Y-42418000D01*
X91313624Y-42418000D01*
X91434909Y-42195960D01*
X91429193Y-42179999D01*
X99652198Y-42179999D01*
X102358292Y-44886094D01*
G36*
X101825082Y-30492463D02*
G01*
X102004013Y-30760252D01*
X102231748Y-30987987D01*
X102499537Y-31166918D01*
X102797088Y-31290168D01*
X103112967Y-31353000D01*
X103435033Y-31353000D01*
X103750912Y-31290168D01*
X103839001Y-31253680D01*
X103839002Y-32675873D01*
X103532892Y-32595616D01*
X103211405Y-32576282D01*
X102892325Y-32620039D01*
X102587912Y-32725205D01*
X102413956Y-32818186D01*
X102318192Y-33082587D01*
X103274000Y-34038395D01*
X103288143Y-34024253D01*
X103467748Y-34203858D01*
X103453605Y-34218000D01*
X103467748Y-34232143D01*
X103288143Y-34411748D01*
X103274000Y-34397605D01*
X102318192Y-35353413D01*
X102413956Y-35617814D01*
X102647011Y-35731189D01*
X99260201Y-39118000D01*
X96468043Y-39118000D01*
X96364637Y-38963241D01*
X96164759Y-38763363D01*
X95929727Y-38606320D01*
X95668574Y-38498147D01*
X95391335Y-38443000D01*
X95108665Y-38443000D01*
X94831426Y-38498147D01*
X94570273Y-38606320D01*
X94335241Y-38763363D01*
X94135363Y-38963241D01*
X93978320Y-39198273D01*
X93870147Y-39459426D01*
X93815000Y-39736665D01*
X93815000Y-40019335D01*
X93870147Y-40296574D01*
X93978320Y-40557727D01*
X94046656Y-40659999D01*
X78505326Y-40659999D01*
X78468001Y-40656323D01*
X78430676Y-40659999D01*
X78430668Y-40659999D01*
X78319015Y-40670996D01*
X78175754Y-40714453D01*
X78043725Y-40785025D01*
X77928000Y-40879998D01*
X77904202Y-40908996D01*
X77668906Y-41144292D01*
X77624309Y-41130764D01*
X77413492Y-41110000D01*
X77272508Y-41110000D01*
X77061691Y-41130764D01*
X76791192Y-41212818D01*
X76541899Y-41346068D01*
X76323392Y-41525392D01*
X76144068Y-41743899D01*
X76122099Y-41785000D01*
X76023901Y-41785000D01*
X76001932Y-41743899D01*
X75822608Y-41525392D01*
X75604101Y-41346068D01*
X75354808Y-41212818D01*
X75084309Y-41130764D01*
X74873492Y-41110000D01*
X74732508Y-41110000D01*
X74521691Y-41130764D01*
X74251192Y-41212818D01*
X74001899Y-41346068D01*
X73783392Y-41525392D01*
X73690581Y-41638482D01*
X73688812Y-41620518D01*
X73652502Y-41500820D01*
X73593537Y-41390506D01*
X73525364Y-41307437D01*
X76988802Y-37844000D01*
X90784891Y-37844000D01*
X90822213Y-37847676D01*
X90859535Y-37844000D01*
X90859546Y-37844000D01*
X90971199Y-37833003D01*
X91114460Y-37789546D01*
X91246489Y-37718974D01*
X91362214Y-37624001D01*
X91386017Y-37594997D01*
X93627601Y-35353413D01*
X95818192Y-35353413D01*
X95913956Y-35617814D01*
X96203571Y-35758704D01*
X96515108Y-35840384D01*
X96836595Y-35859718D01*
X97155675Y-35815961D01*
X97460088Y-35710795D01*
X97634044Y-35617814D01*
X97729808Y-35353413D01*
X96774000Y-34397605D01*
X95818192Y-35353413D01*
X93627601Y-35353413D01*
X95197708Y-33783306D01*
X95151616Y-33959108D01*
X95132282Y-34280595D01*
X95176039Y-34599675D01*
X95281205Y-34904088D01*
X95374186Y-35078044D01*
X95638587Y-35173808D01*
X96594395Y-34218000D01*
X96953605Y-34218000D01*
X97909413Y-35173808D01*
X98173814Y-35078044D01*
X98314704Y-34788429D01*
X98396384Y-34476892D01*
X98408189Y-34280595D01*
X101632282Y-34280595D01*
X101676039Y-34599675D01*
X101781205Y-34904088D01*
X101874186Y-35078044D01*
X102138587Y-35173808D01*
X103094395Y-34218000D01*
X102138587Y-33262192D01*
X101874186Y-33357956D01*
X101733296Y-33647571D01*
X101651616Y-33959108D01*
X101632282Y-34280595D01*
X98408189Y-34280595D01*
X98415718Y-34155405D01*
X98371961Y-33836325D01*
X98266795Y-33531912D01*
X98173814Y-33357956D01*
X97909413Y-33262192D01*
X96953605Y-34218000D01*
X96594395Y-34218000D01*
X96580253Y-34203858D01*
X96759858Y-34024253D01*
X96774000Y-34038395D01*
X97729808Y-33082587D01*
X97634044Y-32818186D01*
X97344429Y-32677296D01*
X97032892Y-32595616D01*
X96711405Y-32576282D01*
X96392325Y-32620039D01*
X96344429Y-32636586D01*
X97285004Y-31696011D01*
X97314001Y-31672214D01*
X97384510Y-31586299D01*
X97408974Y-31556490D01*
X97479546Y-31424460D01*
X97496011Y-31370180D01*
X97523003Y-31281199D01*
X97533655Y-31173052D01*
X97548463Y-31166918D01*
X97816252Y-30987987D01*
X98043987Y-30760252D01*
X98222918Y-30492463D01*
X98228909Y-30478000D01*
X101819091Y-30478000D01*
X101825082Y-30492463D01*
X101825082Y-30492463D01*
G37*
X101825082Y-30492463D02*
X102004013Y-30760252D01*
X102231748Y-30987987D01*
X102499537Y-31166918D01*
X102797088Y-31290168D01*
X103112967Y-31353000D01*
X103435033Y-31353000D01*
X103750912Y-31290168D01*
X103839001Y-31253680D01*
X103839002Y-32675873D01*
X103532892Y-32595616D01*
X103211405Y-32576282D01*
X102892325Y-32620039D01*
X102587912Y-32725205D01*
X102413956Y-32818186D01*
X102318192Y-33082587D01*
X103274000Y-34038395D01*
X103288143Y-34024253D01*
X103467748Y-34203858D01*
X103453605Y-34218000D01*
X103467748Y-34232143D01*
X103288143Y-34411748D01*
X103274000Y-34397605D01*
X102318192Y-35353413D01*
X102413956Y-35617814D01*
X102647011Y-35731189D01*
X99260201Y-39118000D01*
X96468043Y-39118000D01*
X96364637Y-38963241D01*
X96164759Y-38763363D01*
X95929727Y-38606320D01*
X95668574Y-38498147D01*
X95391335Y-38443000D01*
X95108665Y-38443000D01*
X94831426Y-38498147D01*
X94570273Y-38606320D01*
X94335241Y-38763363D01*
X94135363Y-38963241D01*
X93978320Y-39198273D01*
X93870147Y-39459426D01*
X93815000Y-39736665D01*
X93815000Y-40019335D01*
X93870147Y-40296574D01*
X93978320Y-40557727D01*
X94046656Y-40659999D01*
X78505326Y-40659999D01*
X78468001Y-40656323D01*
X78430676Y-40659999D01*
X78430668Y-40659999D01*
X78319015Y-40670996D01*
X78175754Y-40714453D01*
X78043725Y-40785025D01*
X77928000Y-40879998D01*
X77904202Y-40908996D01*
X77668906Y-41144292D01*
X77624309Y-41130764D01*
X77413492Y-41110000D01*
X77272508Y-41110000D01*
X77061691Y-41130764D01*
X76791192Y-41212818D01*
X76541899Y-41346068D01*
X76323392Y-41525392D01*
X76144068Y-41743899D01*
X76122099Y-41785000D01*
X76023901Y-41785000D01*
X76001932Y-41743899D01*
X75822608Y-41525392D01*
X75604101Y-41346068D01*
X75354808Y-41212818D01*
X75084309Y-41130764D01*
X74873492Y-41110000D01*
X74732508Y-41110000D01*
X74521691Y-41130764D01*
X74251192Y-41212818D01*
X74001899Y-41346068D01*
X73783392Y-41525392D01*
X73690581Y-41638482D01*
X73688812Y-41620518D01*
X73652502Y-41500820D01*
X73593537Y-41390506D01*
X73525364Y-41307437D01*
X76988802Y-37844000D01*
X90784891Y-37844000D01*
X90822213Y-37847676D01*
X90859535Y-37844000D01*
X90859546Y-37844000D01*
X90971199Y-37833003D01*
X91114460Y-37789546D01*
X91246489Y-37718974D01*
X91362214Y-37624001D01*
X91386017Y-37594997D01*
X93627601Y-35353413D01*
X95818192Y-35353413D01*
X95913956Y-35617814D01*
X96203571Y-35758704D01*
X96515108Y-35840384D01*
X96836595Y-35859718D01*
X97155675Y-35815961D01*
X97460088Y-35710795D01*
X97634044Y-35617814D01*
X97729808Y-35353413D01*
X96774000Y-34397605D01*
X95818192Y-35353413D01*
X93627601Y-35353413D01*
X95197708Y-33783306D01*
X95151616Y-33959108D01*
X95132282Y-34280595D01*
X95176039Y-34599675D01*
X95281205Y-34904088D01*
X95374186Y-35078044D01*
X95638587Y-35173808D01*
X96594395Y-34218000D01*
X96953605Y-34218000D01*
X97909413Y-35173808D01*
X98173814Y-35078044D01*
X98314704Y-34788429D01*
X98396384Y-34476892D01*
X98408189Y-34280595D01*
X101632282Y-34280595D01*
X101676039Y-34599675D01*
X101781205Y-34904088D01*
X101874186Y-35078044D01*
X102138587Y-35173808D01*
X103094395Y-34218000D01*
X102138587Y-33262192D01*
X101874186Y-33357956D01*
X101733296Y-33647571D01*
X101651616Y-33959108D01*
X101632282Y-34280595D01*
X98408189Y-34280595D01*
X98415718Y-34155405D01*
X98371961Y-33836325D01*
X98266795Y-33531912D01*
X98173814Y-33357956D01*
X97909413Y-33262192D01*
X96953605Y-34218000D01*
X96594395Y-34218000D01*
X96580253Y-34203858D01*
X96759858Y-34024253D01*
X96774000Y-34038395D01*
X97729808Y-33082587D01*
X97634044Y-32818186D01*
X97344429Y-32677296D01*
X97032892Y-32595616D01*
X96711405Y-32576282D01*
X96392325Y-32620039D01*
X96344429Y-32636586D01*
X97285004Y-31696011D01*
X97314001Y-31672214D01*
X97384510Y-31586299D01*
X97408974Y-31556490D01*
X97479546Y-31424460D01*
X97496011Y-31370180D01*
X97523003Y-31281199D01*
X97533655Y-31173052D01*
X97548463Y-31166918D01*
X97816252Y-30987987D01*
X98043987Y-30760252D01*
X98222918Y-30492463D01*
X98228909Y-30478000D01*
X101819091Y-30478000D01*
X101825082Y-30492463D01*
M02*
