G04 #@! TF.GenerationSoftware,KiCad,Pcbnew,(5.1.4-0-10_14)*
G04 #@! TF.CreationDate,2019-12-07T10:25:11-08:00*
G04 #@! TF.ProjectId,slow-clock,736c6f77-2d63-46c6-9f63-6b2e6b696361,rev?*
G04 #@! TF.SameCoordinates,Original*
G04 #@! TF.FileFunction,Copper,L2,Bot*
G04 #@! TF.FilePolarity,Positive*
%FSLAX46Y46*%
G04 Gerber Fmt 4.6, Leading zero omitted, Abs format (unit mm)*
G04 Created by KiCad (PCBNEW (5.1.4-0-10_14)) date 2019-12-07 10:25:11*
%MOMM*%
%LPD*%
G04 APERTURE LIST*
%ADD10R,1.500000X2.500000*%
%ADD11O,1.500000X2.500000*%
%ADD12O,1.400000X1.400000*%
%ADD13C,1.400000*%
%ADD14C,1.600000*%
%ADD15R,1.800000X1.800000*%
%ADD16C,1.800000*%
%ADD17R,1.700000X1.700000*%
%ADD18O,1.700000X1.700000*%
%ADD19C,2.000000*%
%ADD20R,1.600000X1.600000*%
%ADD21O,1.600000X1.600000*%
%ADD22C,0.600000*%
%ADD23C,0.250000*%
G04 APERTURE END LIST*
D10*
X64770000Y-26670000D03*
D11*
X66770000Y-26670000D03*
X68770000Y-26670000D03*
D12*
X59055000Y-36830000D03*
D13*
X66675000Y-36830000D03*
D12*
X66675000Y-41275000D03*
D13*
X59055000Y-41275000D03*
D12*
X80645000Y-46990000D03*
D13*
X88265000Y-46990000D03*
D12*
X66675000Y-45720000D03*
D13*
X59055000Y-45720000D03*
D12*
X43180000Y-23495000D03*
D13*
X35560000Y-23495000D03*
D14*
X57745000Y-26670000D03*
X55245000Y-26670000D03*
X48895000Y-26670000D03*
X51395000Y-26670000D03*
X84455000Y-26670000D03*
X86955000Y-26670000D03*
X53300000Y-46990000D03*
X50800000Y-46990000D03*
X76835000Y-26670000D03*
X79335000Y-26670000D03*
X76160000Y-46990000D03*
X73660000Y-46990000D03*
X27940000Y-46990000D03*
X30440000Y-46990000D03*
X99655000Y-38100000D03*
X97155000Y-38100000D03*
D15*
X31115000Y-23495000D03*
D16*
X28575000Y-23495000D03*
D17*
X62230000Y-66040000D03*
D18*
X64770000Y-66040000D03*
X67310000Y-66040000D03*
X69850000Y-66040000D03*
X72390000Y-66040000D03*
X74930000Y-66040000D03*
D16*
X30480000Y-41910000D03*
X33020000Y-41910000D03*
X35560000Y-41910000D03*
D19*
X91440000Y-27995000D03*
X91440000Y-23495000D03*
X97940000Y-27995000D03*
X97940000Y-23495000D03*
D20*
X45720000Y-40640000D03*
D21*
X53340000Y-33020000D03*
X48260000Y-40640000D03*
X50800000Y-33020000D03*
X50800000Y-40640000D03*
X48260000Y-33020000D03*
X53340000Y-40640000D03*
X45720000Y-33020000D03*
D20*
X94615000Y-45085000D03*
D21*
X102235000Y-60325000D03*
X94615000Y-47625000D03*
X102235000Y-57785000D03*
X94615000Y-50165000D03*
X102235000Y-55245000D03*
X94615000Y-52705000D03*
X102235000Y-52705000D03*
X94615000Y-55245000D03*
X102235000Y-50165000D03*
X94615000Y-57785000D03*
X102235000Y-47625000D03*
X94615000Y-60325000D03*
X102235000Y-45085000D03*
X50800000Y-52070000D03*
X66040000Y-59690000D03*
X53340000Y-52070000D03*
X63500000Y-59690000D03*
X55880000Y-52070000D03*
X60960000Y-59690000D03*
X58420000Y-52070000D03*
X58420000Y-59690000D03*
X60960000Y-52070000D03*
X55880000Y-59690000D03*
X63500000Y-52070000D03*
X53340000Y-59690000D03*
X66040000Y-52070000D03*
D20*
X50800000Y-59690000D03*
X73660000Y-40640000D03*
D21*
X91440000Y-33020000D03*
X76200000Y-40640000D03*
X88900000Y-33020000D03*
X78740000Y-40640000D03*
X86360000Y-33020000D03*
X81280000Y-40640000D03*
X83820000Y-33020000D03*
X83820000Y-40640000D03*
X81280000Y-33020000D03*
X86360000Y-40640000D03*
X78740000Y-33020000D03*
X88900000Y-40640000D03*
X76200000Y-33020000D03*
X91440000Y-40640000D03*
X73660000Y-33020000D03*
D20*
X27940000Y-59690000D03*
D21*
X43180000Y-52070000D03*
X30480000Y-59690000D03*
X40640000Y-52070000D03*
X33020000Y-59690000D03*
X38100000Y-52070000D03*
X35560000Y-59690000D03*
X35560000Y-52070000D03*
X38100000Y-59690000D03*
X33020000Y-52070000D03*
X40640000Y-59690000D03*
X30480000Y-52070000D03*
X43180000Y-59690000D03*
X27940000Y-52070000D03*
X73660000Y-52070000D03*
X88900000Y-59690000D03*
X76200000Y-52070000D03*
X86360000Y-59690000D03*
X78740000Y-52070000D03*
X83820000Y-59690000D03*
X81280000Y-52070000D03*
X81280000Y-59690000D03*
X83820000Y-52070000D03*
X78740000Y-59690000D03*
X86360000Y-52070000D03*
X76200000Y-59690000D03*
X88900000Y-52070000D03*
D20*
X73660000Y-59690000D03*
D22*
X94615000Y-50165000D03*
X90170000Y-37465000D03*
X46990000Y-46990000D03*
X41275000Y-46990000D03*
X95885000Y-42545000D03*
X95885000Y-42545000D03*
D23*
X49530000Y-66040000D02*
X43180000Y-59690000D01*
X62230000Y-66040000D02*
X49530000Y-66040000D01*
X30480000Y-52070000D02*
X30480000Y-55245000D01*
X30480000Y-55245000D02*
X33655000Y-58420000D01*
X87630000Y-58420000D02*
X88900000Y-59690000D01*
X93980000Y-59690000D02*
X94615000Y-60325000D01*
X88900000Y-59690000D02*
X93980000Y-59690000D01*
X43180000Y-58558630D02*
X43180000Y-58420000D01*
X43180000Y-59690000D02*
X43180000Y-58558630D01*
X33655000Y-58420000D02*
X43180000Y-58420000D01*
X66040000Y-58558630D02*
X66040000Y-58420000D01*
X66040000Y-59690000D02*
X66040000Y-58558630D01*
X43180000Y-58420000D02*
X66040000Y-58420000D01*
X30480000Y-52070000D02*
X33020000Y-52070000D01*
X33819999Y-51270001D02*
X33020000Y-52070000D01*
X34145001Y-50944999D02*
X33819999Y-51270001D01*
X36974999Y-50944999D02*
X34145001Y-50944999D01*
X38100000Y-52070000D02*
X36974999Y-50944999D01*
X38100000Y-52070000D02*
X40640000Y-52070000D01*
X53340000Y-52070000D02*
X55880000Y-52070000D01*
X59834999Y-50944999D02*
X60160001Y-51270001D01*
X60160001Y-51270001D02*
X60960000Y-52070000D01*
X57005001Y-50944999D02*
X59834999Y-50944999D01*
X55880000Y-52070000D02*
X57005001Y-50944999D01*
X60960000Y-52070000D02*
X63500000Y-52070000D01*
X99695000Y-55245000D02*
X102235000Y-57785000D01*
X94615000Y-55245000D02*
X99695000Y-55245000D01*
X86360000Y-33020000D02*
X88900000Y-33020000D01*
X88900000Y-33020000D02*
X91440000Y-33020000D01*
X48220000Y-23495000D02*
X51395000Y-26670000D01*
X43180000Y-23495000D02*
X48220000Y-23495000D01*
X56945001Y-25870001D02*
X57745000Y-26670000D01*
X56619999Y-25544999D02*
X56945001Y-25870001D01*
X52520001Y-25544999D02*
X56619999Y-25544999D01*
X51395000Y-26670000D02*
X52520001Y-25544999D01*
X86155001Y-25870001D02*
X86955000Y-26670000D01*
X85685000Y-25400000D02*
X86155001Y-25870001D01*
X80605000Y-25400000D02*
X85685000Y-25400000D01*
X79335000Y-26670000D02*
X80605000Y-25400000D01*
X88280000Y-27995000D02*
X91440000Y-27995000D01*
X86955000Y-26670000D02*
X88280000Y-27995000D01*
X91440000Y-27995000D02*
X97940000Y-27995000D01*
X86360000Y-52070000D02*
X83820000Y-52070000D01*
X79539999Y-51270001D02*
X78740000Y-52070000D01*
X79865001Y-50944999D02*
X79539999Y-51270001D01*
X82694999Y-50944999D02*
X79865001Y-50944999D01*
X83820000Y-52070000D02*
X82694999Y-50944999D01*
X78740000Y-52070000D02*
X76200000Y-52070000D01*
X81280000Y-59690000D02*
X83820000Y-59690000D01*
X84619999Y-58890001D02*
X84619999Y-58584999D01*
X84619999Y-58584999D02*
X84455000Y-58420000D01*
X83820000Y-59690000D02*
X84619999Y-58890001D01*
X84455000Y-58420000D02*
X87630000Y-58420000D01*
X66040000Y-58420000D02*
X84455000Y-58420000D01*
X52070000Y-36830000D02*
X48260000Y-33020000D01*
X59055000Y-36830000D02*
X52070000Y-36830000D01*
X48260000Y-31888630D02*
X47486370Y-31115000D01*
X48260000Y-33020000D02*
X48260000Y-31888630D01*
X47486370Y-31115000D02*
X38100000Y-31115000D01*
X38100000Y-31115000D02*
X35560000Y-33655000D01*
X35560000Y-33655000D02*
X35560000Y-41910000D01*
X82550000Y-26670000D02*
X84455000Y-26670000D01*
X76200000Y-33020000D02*
X82550000Y-26670000D01*
X27140001Y-52869999D02*
X27940000Y-52070000D01*
X26814999Y-53195001D02*
X27140001Y-52869999D01*
X26814999Y-60750001D02*
X26814999Y-53195001D01*
X33279999Y-67215001D02*
X26814999Y-60750001D01*
X63594999Y-67215001D02*
X33279999Y-67215001D01*
X64770000Y-66040000D02*
X63594999Y-67215001D01*
X70485000Y-33020000D02*
X66675000Y-36830000D01*
X73660000Y-33020000D02*
X70485000Y-33020000D01*
X66770000Y-29305000D02*
X66770000Y-26670000D01*
X70485000Y-33020000D02*
X66770000Y-29305000D01*
X72390000Y-45720000D02*
X73660000Y-46990000D01*
X66675000Y-45720000D02*
X72390000Y-45720000D01*
X76200000Y-40640000D02*
X78740000Y-40640000D01*
X96520000Y-37465000D02*
X97155000Y-38100000D01*
X90170000Y-37465000D02*
X96520000Y-37465000D01*
X50800000Y-46990000D02*
X46990000Y-46990000D01*
X46990000Y-46990000D02*
X41275000Y-46990000D01*
X41275000Y-46990000D02*
X41275000Y-46990000D01*
X31115000Y-23495000D02*
X35560000Y-23495000D01*
X24765000Y-27305000D02*
X24765000Y-61595000D01*
X70485000Y-67945000D02*
X72390000Y-66040000D01*
X31115000Y-67945000D02*
X70485000Y-67945000D01*
X24765000Y-61595000D02*
X31115000Y-67945000D01*
X28575000Y-23495000D02*
X24765000Y-27305000D01*
X57294999Y-39514999D02*
X58355001Y-40575001D01*
X49385001Y-39514999D02*
X57294999Y-39514999D01*
X58355001Y-40575001D02*
X59055000Y-41275000D01*
X48260000Y-40640000D02*
X49385001Y-39514999D01*
X65975001Y-41974999D02*
X66675000Y-41275000D01*
X64814999Y-43135001D02*
X65975001Y-41974999D01*
X34245001Y-43135001D02*
X64814999Y-43135001D01*
X33020000Y-41910000D02*
X34245001Y-43135001D01*
X72610000Y-40640000D02*
X73660000Y-40640000D01*
X68555001Y-44694999D02*
X72610000Y-40640000D01*
X60080001Y-44694999D02*
X68555001Y-44694999D01*
X59055000Y-45720000D02*
X60080001Y-44694999D01*
X91440000Y-23495000D02*
X97940000Y-23495000D01*
X52460001Y-42300001D02*
X51599999Y-41439999D01*
X59547001Y-42300001D02*
X52460001Y-42300001D01*
X74720001Y-39514999D02*
X62332003Y-39514999D01*
X74785001Y-41700001D02*
X74785001Y-39579999D01*
X51599999Y-41439999D02*
X50800000Y-40640000D01*
X74785001Y-39579999D02*
X74720001Y-39514999D01*
X78170000Y-45085000D02*
X74785001Y-41700001D01*
X62332003Y-39514999D02*
X59547001Y-42300001D01*
X94615000Y-45085000D02*
X78170000Y-45085000D01*
X98280001Y-43959999D02*
X95414999Y-46825001D01*
X103360001Y-58325001D02*
X103360001Y-44544999D01*
X102775001Y-58910001D02*
X103360001Y-58325001D01*
X95155001Y-61450001D02*
X97695001Y-58910001D01*
X51510001Y-61450001D02*
X95155001Y-61450001D01*
X102775001Y-43959999D02*
X98280001Y-43959999D01*
X103360001Y-44544999D02*
X102775001Y-43959999D01*
X50800000Y-60740000D02*
X51510001Y-61450001D01*
X95414999Y-46825001D02*
X94615000Y-47625000D01*
X97695001Y-58910001D02*
X102775001Y-58910001D01*
X50800000Y-59690000D02*
X50800000Y-60740000D01*
X81280000Y-40640000D02*
X83185000Y-42545000D01*
X83185000Y-42545000D02*
X95885000Y-42545000D01*
X95885000Y-42545000D02*
X95885000Y-42545000D01*
X95885000Y-42545000D02*
X95885000Y-42545000D01*
X60960000Y-59690000D02*
X61759999Y-58890001D01*
X72610000Y-59690000D02*
X73660000Y-59690000D01*
X71484999Y-60815001D02*
X72610000Y-59690000D01*
X57005001Y-60815001D02*
X71484999Y-60815001D01*
X55880000Y-59690000D02*
X57005001Y-60815001D01*
X39370000Y-60960000D02*
X39840001Y-60489999D01*
X30084998Y-60960000D02*
X39370000Y-60960000D01*
X39840001Y-60489999D02*
X40640000Y-59690000D01*
X28814998Y-59690000D02*
X30084998Y-60960000D01*
X27940000Y-59690000D02*
X28814998Y-59690000D01*
M02*
